  0
SECTION
  2
HEADER
  9
$ACADVER
  1
AC1021
  9
$ACADMAINTVER
 70
    25
  9
$DWGCODEPAGE
  3
ANSI_1252
  9
$INSBASE
 10
0.0
 20
0.0
 30
0.0
  9
$EXTMIN
 10
1.000000000000000E+20
 20
1.000000000000000E+20
 30
1.000000000000000E+20
  9
$EXTMAX
 10
-1.000000000000000E+20
 20
-1.000000000000000E+20
 30
-1.000000000000000E+20
  9
$LIMMIN
 10
0.0
 20
0.0
  9
$LIMMAX
 10
420.0
 20
297.0
  9
$ORTHOMODE
 70
     0
  9
$REGENMODE
 70
     1
  9
$FILLMODE
 70
     1
  9
$QTEXTMODE
 70
     0
  9
$MIRRTEXT
 70
     1
  9
$LTSCALE
 40
1.0
  9
$ATTMODE
 70
     1
  9
$TEXTSIZE
 40
2.5
  9
$TRACEWID
 40
1.0
  9
$TEXTSTYLE
  7
Standard
  9
$CLAYER
  8
0
  9
$CELTYPE
  6
ByLayer
  9
$CECOLOR
 62
   256
  9
$CELTSCALE
 40
1.0
  9
$DISPSILH
 70
     0
  9
$DIMSCALE
 40
1.0
  9
$DIMASZ
 40
3.0
  9
$DIMEXO
 40
0.625
  9
$DIMDLI
 40
3.75
  9
$DIMRND
 40
0.0
  9
$DIMDLE
 40
0.0
  9
$DIMEXE
 40
1.25
  9
$DIMTP
 40
0.0
  9
$DIMTM
 40
0.0
  9
$DIMTXT
 40
2.085798611111111
  9
$DIMCEN
 40
2.5
  9
$DIMTSZ
 40
0.0
  9
$DIMTOL
 70
     0
  9
$DIMLIM
 70
     0
  9
$DIMTIH
 70
     0
  9
$DIMTOH
 70
     0
  9
$DIMSE1
 70
     0
  9
$DIMSE2
 70
     0
  9
$DIMTAD
 70
     1
  9
$DIMZIN
 70
     8
  9
$DIMBLK
  1

  9
$DIMASO
 70
     1
  9
$DIMSHO
 70
     1
  9
$DIMPOST
  1

  9
$DIMAPOST
  1

  9
$DIMALT
 70
     0
  9
$DIMALTD
 70
     3
  9
$DIMALTF
 40
0.03937007874016
  9
$DIMLFAC
 40
1.0
  9
$DIMTOFL
 70
     1
  9
$DIMTVP
 40
0.0
  9
$DIMTIX
 70
     0
  9
$DIMSOXD
 70
     0
  9
$DIMSAH
 70
     0
  9
$DIMBLK1
  1

  9
$DIMBLK2
  1

  9
$DIMSTYLE
  2
ISO-25
  9
$DIMCLRD
 70
     0
  9
$DIMCLRE
 70
     0
  9
$DIMCLRT
 70
     0
  9
$DIMTFAC
 40
1.0
  9
$DIMGAP
 40
0.625
  9
$DIMJUST
 70
     0
  9
$DIMSD1
 70
     0
  9
$DIMSD2
 70
     0
  9
$DIMTOLJ
 70
     0
  9
$DIMTZIN
 70
     8
  9
$DIMALTZ
 70
     0
  9
$DIMALTTZ
 70
     0
  9
$DIMUPT
 70
     0
  9
$DIMDEC
 70
     2
  9
$DIMTDEC
 70
     2
  9
$DIMALTU
 70
     2
  9
$DIMALTTD
 70
     3
  9
$DIMTXSTY
  7
Standard
  9
$DIMAUNIT
 70
     0
  9
$DIMADEC
 70
     0
  9
$DIMALTRND
 40
0.0
  9
$DIMAZIN
 70
     0
  9
$DIMDSEP
 70
    44
  9
$DIMATFIT
 70
     3
  9
$DIMFRAC
 70
     0
  9
$DIMLDRBLK
  1

  9
$DIMLUNIT
 70
     2
  9
$DIMLWD
 70
    -2
  9
$DIMLWE
 70
    -2
  9
$DIMTMOVE
 70
     0
  9
$DIMFXL
 40
1.0
  9
$DIMFXLON
 70
     0
  9
$DIMJOGANG
 40
0.7853981633974483
  9
$DIMTFILL
 70
     0
  9
$DIMTFILLCLR
 70
     0
  9
$DIMARCSYM
 70
     0
  9
$DIMLTYPE
  6

  9
$DIMLTEX1
  6

  9
$DIMLTEX2
  6

  9
$LUNITS
 70
     2
  9
$LUPREC
 70
     4
  9
$SKETCHINC
 40
1.0
  9
$FILLETRAD
 40
10.0
  9
$AUNITS
 70
     0
  9
$AUPREC
 70
     0
  9
$MENU
  1
.
  9
$ELEVATION
 40
0.0
  9
$PELEVATION
 40
0.0
  9
$THICKNESS
 40
0.0
  9
$LIMCHECK
 70
     0
  9
$CHAMFERA
 40
10.0
  9
$CHAMFERB
 40
10.0
  9
$CHAMFERC
 40
20.0
  9
$CHAMFERD
 40
0.0
  9
$SKPOLY
 70
     0
  9
$TDCREATE
 40
2457301.705994931
  9
$TDUCREATE
 40
2457301.664328264
  9
$TDUPDATE
 40
2457301.705994942
  9
$TDUUPDATE
 40
2457301.664328275
  9
$TDINDWG
 40
0.0000000116
  9
$TDUSRTIMER
 40
0.0000000116
  9
$USRTIMER
 70
     1
  9
$ANGBASE
 50
0.0
  9
$ANGDIR
 70
     0
  9
$PDMODE
 70
     0
  9
$PDSIZE
 40
0.0
  9
$PLINEWID
 40
0.0
  9
$SPLFRAME
 70
     0
  9
$SPLINETYPE
 70
     6
  9
$SPLINESEGS
 70
     8
  9
$HANDSEED
  5
18C
  9
$SURFTAB1
 70
     6
  9
$SURFTAB2
 70
     6
  9
$SURFTYPE
 70
     6
  9
$SURFU
 70
     6
  9
$SURFV
 70
     6
  9
$UCSBASE
  2

  9
$UCSNAME
  2

  9
$UCSORG
 10
0.0
 20
0.0
 30
0.0
  9
$UCSXDIR
 10
1.0
 20
0.0
 30
0.0
  9
$UCSYDIR
 10
0.0
 20
1.0
 30
0.0
  9
$UCSORTHOREF
  2

  9
$UCSORTHOVIEW
 70
     0
  9
$UCSORGTOP
 10
0.0
 20
0.0
 30
0.0
  9
$UCSORGBOTTOM
 10
0.0
 20
0.0
 30
0.0
  9
$UCSORGLEFT
 10
0.0
 20
0.0
 30
0.0
  9
$UCSORGRIGHT
 10
0.0
 20
0.0
 30
0.0
  9
$UCSORGFRONT
 10
0.0
 20
0.0
 30
0.0
  9
$UCSORGBACK
 10
0.0
 20
0.0
 30
0.0
  9
$PUCSBASE
  2

  9
$PUCSNAME
  2

  9
$PUCSORG
 10
0.0
 20
0.0
 30
0.0
  9
$PUCSXDIR
 10
1.0
 20
0.0
 30
0.0
  9
$PUCSYDIR
 10
0.0
 20
1.0
 30
0.0
  9
$PUCSORTHOREF
  2

  9
$PUCSORTHOVIEW
 70
     0
  9
$PUCSORGTOP
 10
0.0
 20
0.0
 30
0.0
  9
$PUCSORGBOTTOM
 10
0.0
 20
0.0
 30
0.0
  9
$PUCSORGLEFT
 10
0.0
 20
0.0
 30
0.0
  9
$PUCSORGRIGHT
 10
0.0
 20
0.0
 30
0.0
  9
$PUCSORGFRONT
 10
0.0
 20
0.0
 30
0.0
  9
$PUCSORGBACK
 10
0.0
 20
0.0
 30
0.0
  9
$USERI1
 70
     0
  9
$USERI2
 70
     0
  9
$USERI3
 70
     0
  9
$USERI4
 70
     0
  9
$USERI5
 70
     0
  9
$USERR1
 40
0.0
  9
$USERR2
 40
0.0
  9
$USERR3
 40
0.0
  9
$USERR4
 40
0.0
  9
$USERR5
 40
0.0
  9
$WORLDVIEW
 70
     1
  9
$SHADEDGE
 70
     3
  9
$SHADEDIF
 70
    70
  9
$TILEMODE
 70
     1
  9
$MAXACTVP
 70
    64
  9
$PINSBASE
 10
0.0
 20
0.0
 30
0.0
  9
$PLIMCHECK
 70
     0
  9
$PEXTMIN
 10
1.000000000000000E+20
 20
1.000000000000000E+20
 30
1.000000000000000E+20
  9
$PEXTMAX
 10
-1.000000000000000E+20
 20
-1.000000000000000E+20
 30
-1.000000000000000E+20
  9
$PLIMMIN
 10
0.0
 20
0.0
  9
$PLIMMAX
 10
420.0
 20
297.0
  9
$UNITMODE
 70
     0
  9
$VISRETAIN
 70
     1
  9
$PLINEGEN
 70
     0
  9
$PSLTSCALE
 70
     1
  9
$TREEDEPTH
 70
  3020
  9
$CMLSTYLE
  2
Standard
  9
$CMLJUST
 70
     0
  9
$CMLSCALE
 40
20.0
  9
$PROXYGRAPHICS
 70
     1
  9
$MEASUREMENT
 70
     1
  9
$CELWEIGHT
370
    -1
  9
$ENDCAPS
280
     0
  9
$JOINSTYLE
280
     0
  9
$LWDISPLAY
290
     0
  9
$INSUNITS
 70
     4
  9
$HYPERLINKBASE
  1

  9
$STYLESHEET
  1

  9
$XEDIT
290
     1
  9
$CEPSNTYPE
380
     0
  9
$PSTYLEMODE
290
     1
  9
$FINGERPRINTGUID
  2
{F2EEF76D-41EB-4C98-B85F-F74D96814899}
  9
$VERSIONGUID
  2
{FAEB1C32-E019-11D5-929B-00C0DF256EC4}
  9
$EXTNAMES
290
     1
  9
$PSVPSCALE
 40
0.0
  9
$OLESTARTUP
290
     0
  9
$SORTENTS
280
   127
  9
$INDEXCTL
280
     0
  9
$HIDETEXT
280
     1
  9
$XCLIPFRAME
290
     0
  9
$HALOGAP
280
     0
  9
$OBSCOLOR
 70
   257
  9
$OBSLTYPE
280
     0
  9
$INTERSECTIONDISPLAY
280
     0
  9
$INTERSECTIONCOLOR
 70
   257
  9
$DIMASSOC
280
     2
  9
$PROJECTNAME
  1

  9
$CAMERADISPLAY
290
     0
  9
$LENSLENGTH
 40
50.0
  9
$CAMERAHEIGHT
 40
0.0
  9
$STEPSPERSEC
 40
2.0
  9
$STEPSIZE
 40
6.0
  9
$3DDWFPREC
 40
2.0
  9
$PSOLWIDTH
 40
5.0
  9
$PSOLHEIGHT
 40
80.0
  9
$LOFTANG1
 40
1.570796326794897
  9
$LOFTANG2
 40
1.570796326794897
  9
$LOFTMAG1
 40
0.0
  9
$LOFTMAG2
 40
0.0
  9
$LOFTPARAM
 70
     7
  9
$LOFTNORMALS
280
     1
  9
$LATITUDE
 40
37.795
  9
$LONGITUDE
 40
-122.394
  9
$NORTHDIRECTION
 40
0.0
  9
$TIMEZONE
 70
 -8000
  9
$LIGHTGLYPHDISPLAY
280
     1
  9
$TILEMODELIGHTSYNCH
280
     1
  9
$SOLIDHIST
280
     1
  9
$SHOWHIST
280
     1
  9
$DWFFRAME
280
     2
  9
$DGNFRAME
280
     2
  9
$REALWORLDSCALE
290
     1
  9
$INTERFERECOLOR
 62
   256
  9
$CSHADOW
280
     0
  9
$SHADOWPLANELOCATION
 40
0.0
  0
ENDSEC
  0
SECTION
  2
CLASSES
  0
CLASS
  1
ACDBDICTIONARYWDFLT
  2
AcDbDictionaryWithDefault
  3
ObjectDBX Classes
 90
        0
 91
        3
280
     0
281
     0
  0
CLASS
  1
VISUALSTYLE
  2
AcDbVisualStyle
  3
ObjectDBX Classes
 90
     4095
 91
        3
280
     0
281
     0
  0
CLASS
  1
SCALE
  2
AcDbScale
  3
ObjectDBX Classes
 90
     1153
 91
        3
280
     0
281
     0
  0
ENDSEC
  0
SECTION
  2
TABLES
  0
TABLE
  2
VPORT
  5
8
330
0
100
AcDbSymbolTable
 70
     1
  0
VPORT
  5
29
330
8
100
AcDbSymbolTableRecord
100
AcDbViewportTableRecord
  2
*Active
 70
     0
 10
0.0
 20
0.0
 11
1.0
 21
1.0
 12
344.1869158878504
 22
148.5
 13
0.0
 23
0.0
 14
10.0
 24
10.0
 15
10.0
 25
10.0
 16
0.0
 26
0.0
 36
1.0
 17
0.0
 27
0.0
 37
0.0
 40
297.0
 41
1.972972972850329
 42
50.0
 43
0.0
 44
0.0
 50
0.0
 51
0.0
 71
     0
 72
   100
 73
     1
 74
     3
 75
     0
 76
     0
 77
     0
 78
     0
281
     0
 65
     1
110
0.0
120
0.0
130
0.0
111
1.0
121
0.0
131
0.0
112
0.0
122
1.0
132
0.0
 79
     0
146
0.0
 60
     3
 61
     5
292
     1
282
     1
141
0.0
142
0.0
 63
   256
  0
ENDTAB
  0
TABLE
  2
LTYPE
  5
5
330
0
100
AcDbSymbolTable
 70
     1
  0
LTYPE
  5
14
330
5
100
AcDbSymbolTableRecord
100
AcDbLinetypeTableRecord
  2
ByBlock
 70
     0
  3

 72
    65
 73
     0
 40
0.0
  0
LTYPE
  5
15
330
5
100
AcDbSymbolTableRecord
100
AcDbLinetypeTableRecord
  2
ByLayer
 70
     0
  3

 72
    65
 73
     0
 40
0.0
  0
LTYPE
  5
16
330
5
100
AcDbSymbolTableRecord
100
AcDbLinetypeTableRecord
  2
Continuous
 70
     0
  3
Solid line
 72
    65
 73
     0
 40
0.0
  0
ENDTAB
  0
TABLE
  2
LAYER
  5
2
330
0
100
AcDbSymbolTable
 70
     5
  0
LAYER
  5
10
330
2
100
AcDbSymbolTableRecord
100
AcDbLayerTableRecord
  2
0
 70
     0
 62
     7
  6
Continuous
370
    -3
390
F
347
0
  0
LAYER
  5
5D
330
2
100
AcDbSymbolTableRecord
100
AcDbLayerTableRecord
  2
VISIBLE
 70
     0
 62
     7
  6
Continuous
370
     0
390
F
347
0
  0
LAYER
  5
61
330
2
100
AcDbSymbolTableRecord
100
AcDbLayerTableRecord
  2
TANGENT EDGES
 70
     0
 62
     7
  6
Continuous
370
     0
390
F
347
0
  0
LAYER
  5
64
330
2
100
AcDbSymbolTableRecord
100
AcDbLayerTableRecord
  2
DIMENSIONS
 70
     0
 62
     7
  6
Continuous
370
     0
390
F
347
0
  0
LAYER
  5
187
330
2
100
AcDbSymbolTableRecord
100
AcDbLayerTableRecord
  2
CONTINUOUS
 70
     0
 62
     7
  6
Continuous
370
     0
390
F
347
0
  0
ENDTAB
  0
TABLE
  2
STYLE
  5
3
330
0
100
AcDbSymbolTable
 70
     1
  0
STYLE
  5
11
330
3
100
AcDbSymbolTableRecord
100
AcDbTextStyleTableRecord
  2
Standard
 70
     0
 40
0.125
 41
1.0
 50
0.0
 71
     0
 42
2.5
  3
txt
  4

1001
ACAD
1000
Arial
1071
        0
  0
ENDTAB
  0
TABLE
  2
VIEW
  5
6
330
0
100
AcDbSymbolTable
 70
     0
  0
ENDTAB
  0
TABLE
  2
UCS
  5
7
330
0
100
AcDbSymbolTable
 70
     0
  0
ENDTAB
  0
TABLE
  2
APPID
  5
9
330
0
100
AcDbSymbolTable
 70
     1
  0
APPID
  5
12
330
9
100
AcDbSymbolTableRecord
100
AcDbRegAppTableRecord
  2
ACAD
 70
     0
  0
ENDTAB
  0
TABLE
  2
DIMSTYLE
  5
A
330
0
100
AcDbSymbolTable
 70
     1
100
AcDbDimStyleTable
  0
DIMSTYLE
105
27
102
{ACAD_REACTORS
330
65
330
72
330
D6
330
E3
330
F1
330
FE
330
10B
330
118
330
126
330
133
102
}
330
A
100
AcDbSymbolTableRecord
100
AcDbDimStyleTableRecord
  2
ISO-25
 70
     0
 41
2.5
 42
0.625
 43
3.75
 44
1.25
 73
     0
 74
     0
 77
     1
 78
     8
140
2.5
141
2.5
143
0.03937007874016
147
0.625
171
     3
172
     1
271
     2
272
     2
274
     3
278
    44
283
     0
284
     8
340
11
  0
ENDTAB
  0
TABLE
  2
BLOCK_RECORD
  5
1
330
0
100
AcDbSymbolTable
 70
    11
  0
BLOCK_RECORD
  5
1F
330
1
100
AcDbSymbolTableRecord
100
AcDbBlockTableRecord
  2
*Model_Space
340
22
 70
     0
280
     1
281
     0
  0
BLOCK_RECORD
  5
1B
330
1
100
AcDbSymbolTableRecord
100
AcDbBlockTableRecord
  2
*Paper_Space
340
1E
 70
     0
280
     1
281
     0
  0
BLOCK_RECORD
  5
23
330
1
100
AcDbSymbolTableRecord
100
AcDbBlockTableRecord
  2
*Paper_Space0
340
26
 70
     0
280
     1
281
     0
  0
BLOCK_RECORD
  5
66
330
1
100
AcDbSymbolTableRecord
100
AcDbBlockTableRecord
  2
D1
340
0
 70
     0
280
     1
281
     0
  0
BLOCK_RECORD
  5
73
330
1
100
AcDbSymbolTableRecord
100
AcDbBlockTableRecord
  2
D2
340
0
 70
     0
280
     1
281
     0
  0
BLOCK_RECORD
  5
D7
330
1
100
AcDbSymbolTableRecord
100
AcDbBlockTableRecord
  2
D3
340
0
 70
     0
280
     1
281
     0
  0
BLOCK_RECORD
  5
E4
330
1
100
AcDbSymbolTableRecord
100
AcDbBlockTableRecord
  2
D4
340
0
 70
     0
280
     1
281
     0
  0
BLOCK_RECORD
  5
F2
330
1
100
AcDbSymbolTableRecord
100
AcDbBlockTableRecord
  2
D5
340
0
 70
     0
280
     1
281
     0
  0
BLOCK_RECORD
  5
FF
330
1
100
AcDbSymbolTableRecord
100
AcDbBlockTableRecord
  2
D6
340
0
 70
     0
280
     1
281
     0
  0
BLOCK_RECORD
  5
10C
330
1
100
AcDbSymbolTableRecord
100
AcDbBlockTableRecord
  2
D7
340
0
 70
     0
280
     1
281
     0
  0
BLOCK_RECORD
  5
119
330
1
100
AcDbSymbolTableRecord
100
AcDbBlockTableRecord
  2
D8
340
0
 70
     0
280
     1
281
     0
  0
BLOCK_RECORD
  5
127
330
1
100
AcDbSymbolTableRecord
100
AcDbBlockTableRecord
  2
D9
340
0
 70
     0
280
     1
281
     0
  0
BLOCK_RECORD
  5
134
330
1
100
AcDbSymbolTableRecord
100
AcDbBlockTableRecord
  2
D10
340
0
 70
     0
280
     1
281
     0
  0
ENDTAB
  0
ENDSEC
  0
SECTION
  2
BLOCKS
  0
BLOCK
  5
20
330
1F
100
AcDbEntity
  8
0
100
AcDbBlockBegin
  2
*Model_Space
 70
     0
 10
0.0
 20
0.0
 30
0.0
  3
*Model_Space
  1

  0
ENDBLK
  5
21
330
1F
100
AcDbEntity
  8
0
100
AcDbBlockEnd
  0
BLOCK
  5
1C
330
1B
100
AcDbEntity
 67
     1
  8
0
100
AcDbBlockBegin
  2
*Paper_Space
 70
     0
 10
0.0
 20
0.0
 30
0.0
  3
*Paper_Space
  1

  0
ENDBLK
  5
1D
330
1B
100
AcDbEntity
 67
     1
  8
0
100
AcDbBlockEnd
  0
BLOCK
  5
24
330
23
100
AcDbEntity
  8
0
100
AcDbBlockBegin
  2
*Paper_Space0
 70
     0
 10
0.0
 20
0.0
 30
0.0
  3
*Paper_Space0
  1

  0
ENDBLK
  5
25
330
23
100
AcDbEntity
  8
0
100
AcDbBlockEnd
  0
BLOCK
  5
67
330
66
100
AcDbEntity
  8
0
100
AcDbBlockBegin
  2
D1
 70
     0
 10
0.0
 20
0.0
 30
0.0
  3
D1
  1

  0
MTEXT
  5
69
330
66
100
AcDbEntity
  8
DIMENSIONS
100
AcDbMText
 10
168.5401611328127
 20
182.7590179443362
 30
0.0
 40
2.275416666666667
 41
0.0
 46
0.0
 71
     5
 72
     1
  1
{\fAlibre Symbols|b0|i0|c0|p0;n}{\fArial|b0|i0|c0|p0;13.716}{\fMS Shell Dlg|b0|i0|c0|p0;\H0.9444444x;}
 73
     1
 44
1.0
  0
MTEXT
  5
6A
330
66
100
AcDbEntity
  8
DIMENSIONS
100
AcDbMText
 10
168.5401611328127
 20
182.7590179443362
 30
0.0
 40
2.275416666666667
 41
0.0
 46
0.0
 71
     5
 72
     1
  1
{\fArial|b0|i0|c0|p0;}
 73
     1
 44
1.0
  0
MTEXT
  5
6B
330
66
100
AcDbEntity
  8
DIMENSIONS
100
AcDbMText
 10
168.5401611328127
 20
182.7590179443362
 30
0.0
 40
2.275416666666667
 41
0.0
 46
0.0
 71
     5
 72
     1
  1
{\fArial|b0|i0|c0|p0;}
 73
     1
 44
1.0
  0
LINE
  5
6C
330
66
100
AcDbEntity
  8
DIMENSIONS
100
AcDbLine
 10
141.4836540222169
 20
203.672216056824
 30
0.0
 11
170.5401611328127
 21
203.672216056824
 31
0.0
  0
LINE
  5
6D
330
66
100
AcDbEntity
  8
DIMENSIONS
100
AcDbLine
 10
141.4836540222171
 20
162.524216056824
 30
0.0
 11
170.5401611328127
 21
162.524216056824
 31
0.0
  0
LWPOLYLINE
  5
6E
330
66
100
AcDbEntity
  8
DIMENSIONS
100
AcDbPolyline
 90
        4
 70
     0
 43
0.0
 10
168.5401611328127
 20
203.672216056824
 10
169.0401611328127
 20
200.672216056824
 10
168.0401611328127
 20
200.672216056824
 10
168.5401611328127
 20
203.672216056824
  0
LINE
  5
6F
330
66
100
AcDbEntity
  8
DIMENSIONS
100
AcDbLine
 10
168.5401611328127
 20
200.672216056824
 30
0.0
 11
168.5401619672777
 21
186.8756844550374
 31
0.0
  0
LWPOLYLINE
  5
70
330
66
100
AcDbEntity
  8
DIMENSIONS
100
AcDbPolyline
 90
        4
 70
     0
 43
0.0
 10
168.5401611328127
 20
162.524216056824
 10
168.0401611328127
 20
165.524216056824
 10
169.0401611328127
 20
165.524216056824
 10
168.5401611328127
 20
162.524216056824
  0
LINE
  5
71
330
66
100
AcDbEntity
  8
DIMENSIONS
100
AcDbLine
 10
168.5401611328127
 20
165.524216056824
 30
0.0
 11
168.5401619672777
 21
178.6423512846234
 31
0.0
  0
ENDBLK
  5
68
330
66
100
AcDbEntity
  8
0
100
AcDbBlockEnd
  0
BLOCK
  5
74
330
73
100
AcDbEntity
  8
0
100
AcDbBlockBegin
  2
D2
 70
     0
 10
0.0
 20
0.0
 30
0.0
  3
D2
  1

  0
MTEXT
  5
76
330
73
100
AcDbEntity
  8
DIMENSIONS
100
AcDbMText
 10
140.3225555419922
 20
182.4062042236328
 30
0.0
 40
2.275416666666667
 41
0.0
 46
0.0
 71
     5
 72
     1
  1
{\fAlibre Symbols|b0|i0|c0|p0;n}{\fArial|b0|i0|c0|p0;6.35}{\fMS Shell Dlg|b0|i0|c0|p0;\H0.9444444x;}
 73
     1
 44
1.0
  0
MTEXT
  5
77
330
73
100
AcDbEntity
  8
DIMENSIONS
100
AcDbMText
 10
140.3225555419922
 20
182.4062042236328
 30
0.0
 40
2.275416666666667
 41
0.0
 46
0.0
 71
     5
 72
     1
  1
{\fArial|b0|i0|c0|p0;}
 73
     1
 44
1.0
  0
MTEXT
  5
78
330
73
100
AcDbEntity
  8
DIMENSIONS
100
AcDbMText
 10
140.3225555419922
 20
182.4062042236328
 30
0.0
 40
2.275416666666667
 41
0.0
 46
0.0
 71
     5
 72
     1
  1
{\fArial|b0|i0|c0|p0;}
 73
     1
 44
1.0
  0
LINE
  5
79
330
73
100
AcDbEntity
  8
DIMENSIONS
100
AcDbLine
 10
148.4332301167717
 20
186.9232275244897
 30
0.0
 11
149.0343594742177
 21
186.0647258308592
 31
0.0
  0
LINE
  5
7A
330
73
100
AcDbEntity
  8
DIMENSIONS
100
AcDbLine
 10
132.8283836730664
 20
175.9965964120023
 30
0.0
 11
133.4295130305124
 21
175.1380947183717
 31
0.0
  0
LWPOLYLINE
  5
7B
330
73
100
AcDbEntity
  8
DIMENSIONS
100
AcDbPolyline
 90
        4
 70
     0
 43
0.0
 10
147.8872066015156
 20
187.7030299194371
 10
145.7165386868241
 20
185.5727245882395
 10
145.1429622504731
 20
186.3918766325285
 10
147.8872066015156
 20
187.7030299194371
  0
LINE
  5
7C
330
73
100
AcDbEntity
  8
DIMENSIONS
100
AcDbLine
 10
145.4297504686486
 20
185.982300610384
 30
0.0
 11
144.9837731872017
 21
185.6700235679388
 31
0.0
  0
LWPOLYLINE
  5
7D
330
73
100
AcDbEntity
  8
DIMENSIONS
100
AcDbPolyline
 90
        4
 70
     0
 43
0.0
 10
132.2823601578103
 20
176.7763988069497
 10
134.4530280725017
 20
178.9067041381473
 10
135.0266045088528
 20
178.0875520938584
 10
132.2823601578103
 20
176.7763988069497
  0
LINE
  5
7E
330
73
100
AcDbEntity
  8
DIMENSIONS
100
AcDbLine
 10
134.7398162906773
 20
178.4971281160028
 30
0.0
 11
135.6613385948196
 21
179.1423846707111
 31
0.0
  0
ENDBLK
  5
75
330
73
100
AcDbEntity
  8
0
100
AcDbBlockEnd
  0
BLOCK
  5
D8
330
D7
100
AcDbEntity
  8
0
100
AcDbBlockBegin
  2
D3
 70
     0
 10
0.0
 20
0.0
 30
0.0
  3
D3
  1

  0
MTEXT
  5
DA
330
D7
100
AcDbEntity
  8
DIMENSIONS
100
AcDbMText
 10
9.258492469787498
 20
183.098216056824
 30
0.0
 40
2.275416666666667
 41
0.0
 46
0.0
 71
     5
 72
     1
  1
{\fArial|b0|i0|c0|p0;8.89}{\fMS Shell Dlg|b0|i0|c0|p0;\H0.9444444x;}
 73
     1
 44
1.0
  0
MTEXT
  5
DB
330
D7
100
AcDbEntity
  8
DIMENSIONS
100
AcDbMText
 10
9.258492469787498
 20
183.098216056824
 30
0.0
 40
2.275416666666667
 41
0.0
 46
0.0
 71
     5
 72
     1
  1
{\fArial|b0|i0|c0|p0;}
 73
     1
 44
1.0
  0
MTEXT
  5
DC
330
D7
100
AcDbEntity
  8
DIMENSIONS
100
AcDbMText
 10
9.258492469787498
 20
183.098216056824
 30
0.0
 40
2.275416666666667
 41
0.0
 46
0.0
 71
     5
 72
     1
  1
{\fArial|b0|i0|c0|p0;}
 73
     1
 44
1.0
  0
LINE
  5
DD
330
D7
100
AcDbEntity
  8
DIMENSIONS
100
AcDbLine
 10
12.5156522827148
 20
169.763216056824
 30
0.0
 11
7.258492469787498
 21
169.763216056824
 31
0.0
  0
LINE
  5
DE
330
D7
100
AcDbEntity
  8
DIMENSIONS
100
AcDbLine
 10
12.5156522827148
 20
196.433216056824
 30
0.0
 11
7.258492469787498
 21
196.433216056824
 31
0.0
  0
LWPOLYLINE
  5
DF
330
D7
100
AcDbEntity
  8
DIMENSIONS
100
AcDbPolyline
 90
        4
 70
     0
 43
0.0
 10
9.258492469787484
 20
169.763216056824
 10
8.758492469787484
 20
172.763216056824
 10
9.758492469787498
 20
172.763216056824
 10
9.258492469787484
 20
169.763216056824
  0
LINE
  5
E0
330
D7
100
AcDbEntity
  8
DIMENSIONS
100
AcDbLine
 10
9.258492469787498
 20
172.763216056824
 30
0.0
 11
9.258494358062705
 21
179.51071600616
 31
0.0
  0
LWPOLYLINE
  5
E1
330
D7
100
AcDbEntity
  8
DIMENSIONS
100
AcDbPolyline
 90
        4
 70
     0
 43
0.0
 10
9.258492469787498
 20
196.433216056824
 10
9.758492469787498
 20
193.433216056824
 10
8.758492469787484
 20
193.433216056824
 10
9.258492469787498
 20
196.433216056824
  0
LINE
  5
E2
330
D7
100
AcDbEntity
  8
DIMENSIONS
100
AcDbLine
 10
9.258492469787498
 20
193.433216056824
 30
0.0
 11
9.258494358062705
 21
186.6857161074879
 31
0.0
  0
ENDBLK
  5
D9
330
D7
100
AcDbEntity
  8
0
100
AcDbBlockEnd
  0
BLOCK
  5
E5
330
E4
100
AcDbEntity
  8
0
100
AcDbBlockBegin
  2
D4
 70
     0
 10
0.0
 20
0.0
 30
0.0
  3
D4
  1

  0
MTEXT
  5
E7
330
E4
100
AcDbEntity
  8
DIMENSIONS
100
AcDbMText
 10
67.24526214599605
 20
164.5702667236331
 30
0.0
 40
2.275416666666667
 41
0.0
 46
0.0
 71
     5
 72
     1
  1
{\fArial|b0|i0|c0|p0;0.508}{\fMS Shell Dlg|b0|i0|c0|p0;\H0.9444444x;}
 73
     1
 44
1.0
  0
MTEXT
  5
E8
330
E4
100
AcDbEntity
  8
DIMENSIONS
100
AcDbMText
 10
67.24526214599605
 20
164.5702667236331
 30
0.0
 40
2.275416666666667
 41
0.0
 46
0.0
 71
     5
 72
     1
  1
{\fArial|b0|i0|c0|p0;}
 73
     1
 44
1.0
  0
MTEXT
  5
E9
330
E4
100
AcDbEntity
  8
DIMENSIONS
100
AcDbMText
 10
67.24526214599605
 20
164.5702667236331
 30
0.0
 40
2.275416666666667
 41
0.0
 46
0.0
 71
     5
 72
     1
  1
{\fArial|b0|i0|c0|p0;}
 73
     1
 44
1.0
  0
LINE
  5
EA
330
E4
100
AcDbEntity
  8
DIMENSIONS
100
AcDbLine
 10
72.7730398881435
 20
164.5702672004702
 30
0.0
 11
72.7730398881435
 21
164.5702672004702
 31
0.0
  0
LINE
  5
EB
330
E4
100
AcDbEntity
  8
DIMENSIONS
100
AcDbLine
 10
76.2376522827148
 20
165.3614409675458
 30
0.0
 11
76.2376522827148
 21
166.5702667236331
 31
0.0
  0
LINE
  5
EC
330
E4
100
AcDbEntity
  8
DIMENSIONS
100
AcDbLine
 10
77.7616522827148
 20
165.3614409675458
 30
0.0
 11
77.7616522827148
 21
166.5702667236331
 31
0.0
  0
LWPOLYLINE
  5
ED
330
E4
100
AcDbEntity
  8
DIMENSIONS
100
AcDbPolyline
 90
        4
 70
     0
 43
0.0
 10
76.2376522827148
 20
164.5702667236331
 10
73.2376522827148
 20
164.0702667236331
 10
73.2376522827148
 20
165.0702667236331
 10
76.2376522827148
 20
164.5702667236331
  0
LINE
  5
EE
330
E4
100
AcDbEntity
  8
DIMENSIONS
100
AcDbLine
 10
73.2376522827148
 20
164.5702667236331
 30
0.0
 11
72.7730398881435
 21
164.5702672004702
 31
0.0
  0
LWPOLYLINE
  5
EF
330
E4
100
AcDbEntity
  8
DIMENSIONS
100
AcDbPolyline
 90
        4
 70
     0
 43
0.0
 10
77.7616522827148
 20
164.5702667236331
 10
80.7616522827148
 20
165.0702667236331
 10
80.7616522827148
 20
164.0702667236331
 10
77.7616522827148
 20
164.5702667236331
  0
LINE
  5
F0
330
E4
100
AcDbEntity
  8
DIMENSIONS
100
AcDbLine
 10
80.7616522827148
 20
164.5702667236331
 30
0.0
 11
81.3616522827148
 21
164.5702667236331
 31
0.0
  0
ENDBLK
  5
E6
330
E4
100
AcDbEntity
  8
0
100
AcDbBlockEnd
  0
BLOCK
  5
F3
330
F2
100
AcDbEntity
  8
0
100
AcDbBlockBegin
  2
D5
 70
     0
 10
0.0
 20
0.0
 30
0.0
  3
D5
  1

  0
MTEXT
  5
F5
330
F2
100
AcDbEntity
  8
DIMENSIONS
100
AcDbMText
 10
56.37355804443356
 20
204.1544189453128
 30
0.0
 40
2.275416666666667
 41
0.0
 46
0.0
 71
     5
 72
     1
  1
{\fArial|b0|i0|c0|p0;15.24}{\fMS Shell Dlg|b0|i0|c0|p0;\H0.9444444x;}
 73
     1
 44
1.0
  0
MTEXT
  5
F6
330
F2
100
AcDbEntity
  8
DIMENSIONS
100
AcDbMText
 10
56.37355804443356
 20
204.1544189453128
 30
0.0
 40
2.275416666666667
 41
0.0
 46
0.0
 71
     5
 72
     1
  1
{\fArial|b0|i0|c0|p0;}
 73
     1
 44
1.0
  0
MTEXT
  5
F7
330
F2
100
AcDbEntity
  8
DIMENSIONS
100
AcDbMText
 10
56.37355804443356
 20
204.1544189453128
 30
0.0
 40
2.275416666666667
 41
0.0
 46
0.0
 71
     5
 72
     1
  1
{\fArial|b0|i0|c0|p0;}
 73
     1
 44
1.0
  0
LINE
  5
F8
330
F2
100
AcDbEntity
  8
DIMENSIONS
100
AcDbLine
 10
30.51765228271481
 20
204.910216056824
 30
0.0
 11
30.51765228271481
 21
206.1544189453128
 31
0.0
  0
LINE
  5
F9
330
F2
100
AcDbEntity
  8
DIMENSIONS
100
AcDbLine
 10
76.2376522827148
 20
204.8349911461022
 30
0.0
 11
76.2376522827148
 21
206.1544189453128
 31
0.0
  0
LWPOLYLINE
  5
FA
330
F2
100
AcDbEntity
  8
DIMENSIONS
100
AcDbPolyline
 90
        4
 70
     0
 43
0.0
 10
30.51765228271481
 20
204.1544189453128
 10
33.51765228271481
 20
204.6544189453128
 10
33.51765228271481
 20
203.6544189453128
 10
30.51765228271481
 20
204.1544189453128
  0
LINE
  5
FB
330
F2
100
AcDbEntity
  8
DIMENSIONS
100
AcDbLine
 10
33.51765228271481
 20
204.1544189453128
 30
0.0
 11
50.84578023433681
 21
204.1544187068942
 31
0.0
  0
LWPOLYLINE
  5
FC
330
F2
100
AcDbEntity
  8
DIMENSIONS
100
AcDbPolyline
 90
        4
 70
     0
 43
0.0
 10
76.2376522827148
 20
204.1544189453128
 10
73.2376522827148
 20
203.6544189453128
 10
73.2376522827148
 20
204.6544189453128
 10
76.2376522827148
 20
204.1544189453128
  0
LINE
  5
FD
330
F2
100
AcDbEntity
  8
DIMENSIONS
100
AcDbLine
 10
73.2376522827148
 20
204.1544189453128
 30
0.0
 11
61.90133641242977
 21
204.1544187068942
 31
0.0
  0
ENDBLK
  5
F4
330
F2
100
AcDbEntity
  8
0
100
AcDbBlockEnd
  0
BLOCK
  5
100
330
FF
100
AcDbEntity
  8
0
100
AcDbBlockBegin
  2
D6
 70
     0
 10
0.0
 20
0.0
 30
0.0
  3
D6
  1

  0
MTEXT
  5
102
330
FF
100
AcDbEntity
  8
DIMENSIONS
100
AcDbMText
 10
21.37365228271481
 20
206.4774169921878
 30
0.0
 40
2.275416666666667
 41
0.0
 46
0.0
 71
     5
 72
     1
  1
{\fArial|b0|i0|c0|p0;5.08}{\fMS Shell Dlg|b0|i0|c0|p0;\H0.9444444x;}
 73
     1
 44
1.0
  0
MTEXT
  5
103
330
FF
100
AcDbEntity
  8
DIMENSIONS
100
AcDbMText
 10
21.37365228271481
 20
206.4774169921878
 30
0.0
 40
2.275416666666667
 41
0.0
 46
0.0
 71
     5
 72
     1
  1
{\fArial|b0|i0|c0|p0;}
 73
     1
 44
1.0
  0
MTEXT
  5
104
330
FF
100
AcDbEntity
  8
DIMENSIONS
100
AcDbMText
 10
21.37365228271481
 20
206.4774169921878
 30
0.0
 40
2.275416666666667
 41
0.0
 46
0.0
 71
     5
 72
     1
  1
{\fArial|b0|i0|c0|p0;}
 73
     1
 44
1.0
  0
LINE
  5
105
330
FF
100
AcDbEntity
  8
DIMENSIONS
100
AcDbLine
 10
13.7536522827148
 20
197.671216056824
 30
0.0
 11
13.7536522827148
 21
208.4774169921878
 31
0.0
  0
LINE
  5
106
330
FF
100
AcDbEntity
  8
DIMENSIONS
100
AcDbLine
 10
28.99365228271481
 20
204.910216056824
 30
0.0
 11
28.99365228271481
 21
208.4774169921878
 31
0.0
  0
LWPOLYLINE
  5
107
330
FF
100
AcDbEntity
  8
DIMENSIONS
100
AcDbPolyline
 90
        4
 70
     0
 43
0.0
 10
13.7536522827148
 20
206.4774169921878
 10
16.7536522827148
 20
206.9774169921878
 10
16.7536522827148
 20
205.9774169921878
 10
13.7536522827148
 20
206.4774169921878
  0
LINE
  5
108
330
FF
100
AcDbEntity
  8
DIMENSIONS
100
AcDbLine
 10
16.7536522827148
 20
206.4774169921878
 30
0.0
 11
16.7536522827148
 21
206.4774169921878
 31
0.0
  0
LWPOLYLINE
  5
109
330
FF
100
AcDbEntity
  8
DIMENSIONS
100
AcDbPolyline
 90
        4
 70
     0
 43
0.0
 10
28.99365228271481
 20
206.4774169921878
 10
25.99365228271481
 20
205.9774169921878
 10
25.99365228271481
 20
206.9774169921878
 10
28.99365228271481
 20
206.4774169921878
  0
LINE
  5
10A
330
FF
100
AcDbEntity
  8
DIMENSIONS
100
AcDbLine
 10
25.99365228271481
 20
206.4774169921878
 30
0.0
 11
25.99365228271481
 21
206.4774169921878
 31
0.0
  0
ENDBLK
  5
101
330
FF
100
AcDbEntity
  8
0
100
AcDbBlockEnd
  0
BLOCK
  5
10D
330
10C
100
AcDbEntity
  8
0
100
AcDbBlockBegin
  2
D7
 70
     0
 10
0.0
 20
0.0
 30
0.0
  3
D7
  1

  0
MTEXT
  5
10F
330
10C
100
AcDbEntity
  8
DIMENSIONS
100
AcDbMText
 10
21.15665626525875
 20
188.1720886230472
 30
0.0
 40
2.275416666666667
 41
0.0
 46
0.0
 71
     5
 72
     1
  1
{\fAlibre Symbols|b0|i0|c0|p0;n}{\fArial|b0|i0|c0|p0;2.032}{\fMS Shell Dlg|b0|i0|c0|p0;\H0.9444444x;}
 73
     1
 44
1.0
  0
MTEXT
  5
110
330
10C
100
AcDbEntity
  8
DIMENSIONS
100
AcDbMText
 10
21.15665626525875
 20
188.1720886230472
 30
0.0
 40
2.275416666666667
 41
0.0
 46
0.0
 71
     5
 72
     1
  1
{\fArial|b0|i0|c0|p0;}
 73
     1
 44
1.0
  0
MTEXT
  5
111
330
10C
100
AcDbEntity
  8
DIMENSIONS
100
AcDbMText
 10
21.15665626525875
 20
188.1720886230472
 30
0.0
 40
2.275416666666667
 41
0.0
 46
0.0
 71
     5
 72
     1
  1
{\fArial|b0|i0|c0|p0;}
 73
     1
 44
1.0
  0
LINE
  5
112
330
10C
100
AcDbEntity
  8
DIMENSIONS
100
AcDbLine
 10
17.42314845439078
 20
185.8189481588746
 30
0.0
 11
18.77916926135332
 21
190.8796867065793
 31
0.0
  0
LINE
  5
113
330
10C
100
AcDbEntity
  8
DIMENSIONS
100
AcDbLine
 10
23.31143229144894
 20
184.2411872599296
 30
0.0
 11
24.66745309841147
 21
189.3019258076343
 31
0.0
  0
LWPOLYLINE
  5
114
330
10C
100
AcDbEntity
  8
DIMENSIONS
100
AcDbPolyline
 90
        4
 70
     0
 43
0.0
 10
18.26153117114826
 20
188.9478350540011
 10
15.23434416972981
 20
189.2413292761642
 10
15.49316321483232
 20
190.2072551024532
 10
18.26153117114826
 20
188.9478350540011
  0
LINE
  5
115
330
10C
100
AcDbEntity
  8
DIMENSIONS
100
AcDbLine
 10
15.36375369228106
 20
189.7242921893087
 30
0.0
 11
14.78419819650763
 21
189.8795836163702
 31
0.0
  0
LWPOLYLINE
  5
116
330
10C
100
AcDbEntity
  8
DIMENSIONS
100
AcDbPolyline
 90
        4
 70
     0
 43
0.0
 10
24.14981500820642
 20
187.3700741550562
 10
27.17700200962488
 20
187.0765799328931
 10
26.91818296452235
 20
186.110654106604
 10
24.14981500820642
 20
187.3700741550562
  0
LINE
  5
117
330
10C
100
AcDbEntity
  8
DIMENSIONS
100
AcDbLine
 10
27.04759248707362
 20
186.5936170197486
 30
0.0
 11
27.62714798284706
 21
186.4383255926871
 31
0.0
  0
ENDBLK
  5
10E
330
10C
100
AcDbEntity
  8
0
100
AcDbBlockEnd
  0
BLOCK
  5
11A
330
119
100
AcDbEntity
  8
0
100
AcDbBlockBegin
  2
D8
 70
     0
 10
0.0
 20
0.0
 30
0.0
  3
D8
  1

  0
MTEXT
  5
11C
330
119
100
AcDbEntity
  8
DIMENSIONS
100
AcDbMText
 10
41.35150909423827
 20
164.6277465820312
 30
0.0
 40
2.275416666666667
 41
0.0
 46
0.0
 71
     5
 72
     1
  1
{\fArial|b0|i0|c0|p0;0.508}{\fMS Shell Dlg|b0|i0|c0|p0;\H0.9444444x;}
 73
     1
 44
1.0
  0
MTEXT
  5
11D
330
119
100
AcDbEntity
  8
DIMENSIONS
100
AcDbMText
 10
41.35150909423827
 20
164.6277465820312
 30
0.0
 40
2.275416666666667
 41
0.0
 46
0.0
 71
     5
 72
     1
  1
{\fArial|b0|i0|c0|p0;}
 73
     1
 44
1.0
  0
MTEXT
  5
11E
330
119
100
AcDbEntity
  8
DIMENSIONS
100
AcDbMText
 10
41.35150909423827
 20
164.6277465820312
 30
0.0
 40
2.275416666666667
 41
0.0
 46
0.0
 71
     5
 72
     1
  1
{\fArial|b0|i0|c0|p0;}
 73
     1
 44
1.0
  0
LINE
  5
11F
330
119
100
AcDbEntity
  8
DIMENSIONS
100
AcDbLine
 10
35.82373068809505
 20
164.6277469396594
 30
0.0
 11
35.82373068809505
 21
164.6277469396594
 31
0.0
  0
LINE
  5
120
330
119
100
AcDbEntity
  8
DIMENSIONS
100
AcDbLine
 10
30.51765228271481
 20
165.286216056824
 30
0.0
 11
30.51765228271481
 21
166.6277465820312
 31
0.0
  0
LINE
  5
121
330
119
100
AcDbEntity
  8
DIMENSIONS
100
AcDbLine
 10
28.99365228271481
 20
165.286216056824
 30
0.0
 11
28.99365228271481
 21
166.6277465820312
 31
0.0
  0
LWPOLYLINE
  5
122
330
119
100
AcDbEntity
  8
DIMENSIONS
100
AcDbPolyline
 90
        4
 70
     0
 43
0.0
 10
30.51765228271481
 20
164.6277465820312
 10
33.51765228271481
 20
165.1277465820312
 10
33.51765228271481
 20
164.1277465820312
 10
30.51765228271481
 20
164.6277465820312
  0
LINE
  5
123
330
119
100
AcDbEntity
  8
DIMENSIONS
100
AcDbLine
 10
33.51765228271481
 20
164.6277465820312
 30
0.0
 11
35.82373068809505
 21
164.6277469396594
 31
0.0
  0
LWPOLYLINE
  5
124
330
119
100
AcDbEntity
  8
DIMENSIONS
100
AcDbPolyline
 90
        4
 70
     0
 43
0.0
 10
28.99365228271481
 20
164.6277465820312
 10
25.99365228271481
 20
164.1277465820312
 10
25.99365228271481
 20
165.1277465820312
 10
28.99365228271481
 20
164.6277465820312
  0
LINE
  5
125
330
119
100
AcDbEntity
  8
DIMENSIONS
100
AcDbLine
 10
25.99365228271481
 20
164.6277465820312
 30
0.0
 11
25.39365228271481
 21
164.6277465820312
 31
0.0
  0
ENDBLK
  5
11B
330
119
100
AcDbEntity
  8
0
100
AcDbBlockEnd
  0
BLOCK
  5
128
330
127
100
AcDbEntity
  8
0
100
AcDbBlockBegin
  2
D9
 70
     0
 10
0.0
 20
0.0
 30
0.0
  3
D9
  1

  0
MTEXT
  5
12A
330
127
100
AcDbEntity
  8
DIMENSIONS
100
AcDbMText
 10
51.37563323974609
 20
158.2888641357422
 30
0.0
 40
2.275416666666667
 41
0.0
 46
0.0
 71
     5
 72
     1
  1
{\fArial|b0|i0|c0|p0;21.336}{\fMS Shell Dlg|b0|i0|c0|p0;\H0.9444444x;}
 73
     1
 44
1.0
  0
MTEXT
  5
12B
330
127
100
AcDbEntity
  8
DIMENSIONS
100
AcDbMText
 10
51.37563323974609
 20
158.2888641357422
 30
0.0
 40
2.275416666666667
 41
0.0
 46
0.0
 71
     5
 72
     1
  1
{\fArial|b0|i0|c0|p0;}
 73
     1
 44
1.0
  0
MTEXT
  5
12C
330
127
100
AcDbEntity
  8
DIMENSIONS
100
AcDbMText
 10
51.37563323974609
 20
158.2888641357422
 30
0.0
 40
2.275416666666667
 41
0.0
 46
0.0
 71
     5
 72
     1
  1
{\fArial|b0|i0|c0|p0;}
 73
     1
 44
1.0
  0
LINE
  5
12D
330
127
100
AcDbEntity
  8
DIMENSIONS
100
AcDbLine
 10
13.75365228271481
 20
168.525216056824
 30
0.0
 11
13.75365228271481
 21
156.2888641357422
 31
0.0
  0
LINE
  5
12E
330
127
100
AcDbEntity
  8
DIMENSIONS
100
AcDbLine
 10
77.7616522827148
 20
161.3614409675458
 30
0.0
 11
77.7616522827148
 21
156.2888641357422
 31
0.0
  0
LWPOLYLINE
  5
12F
330
127
100
AcDbEntity
  8
DIMENSIONS
100
AcDbPolyline
 90
        4
 70
     0
 43
0.0
 10
13.75365228271481
 20
158.2888641357422
 10
16.75365228271482
 20
158.7888641357422
 10
16.75365228271482
 20
157.7888641357422
 10
13.75365228271481
 20
158.2888641357422
  0
LINE
  5
130
330
127
100
AcDbEntity
  8
DIMENSIONS
100
AcDbLine
 10
16.75365228271482
 20
158.2888641357422
 30
0.0
 11
44.96591136932369
 21
158.2888644933703
 31
0.0
  0
LWPOLYLINE
  5
131
330
127
100
AcDbEntity
  8
DIMENSIONS
100
AcDbPolyline
 90
        4
 70
     0
 43
0.0
 10
77.7616522827148
 20
158.2888641357422
 10
74.7616522827148
 20
157.7888641357422
 10
74.7616522827148
 20
158.7888641357422
 10
77.7616522827148
 20
158.2888641357422
  0
LINE
  5
132
330
127
100
AcDbEntity
  8
DIMENSIONS
100
AcDbLine
 10
74.7616522827148
 20
158.2888641357422
 30
0.0
 11
57.78535614490505
 21
158.2888644933703
 31
0.0
  0
ENDBLK
  5
129
330
127
100
AcDbEntity
  8
0
100
AcDbBlockEnd
  0
BLOCK
  5
135
330
134
100
AcDbEntity
  8
0
100
AcDbBlockBegin
  2
D10
 70
     0
 10
0.0
 20
0.0
 30
0.0
  3
D10
  1

  0
MTEXT
  5
137
330
134
100
AcDbEntity
  8
DIMENSIONS
100
AcDbMText
 10
19.19982719421385
 20
174.1801605224609
 30
0.0
 40
2.275416666666667
 41
0.0
 46
0.0
 71
     5
 72
     1
  1
{\fArial|b0|i0|c0|p0;3.048}{\fMS Shell Dlg|b0|i0|c0|p0;\H0.9444444x;}
 73
     1
 44
1.0
  0
MTEXT
  5
138
330
134
100
AcDbEntity
  8
DIMENSIONS
100
AcDbMText
 10
19.19982719421385
 20
174.1801605224609
 30
0.0
 40
2.275416666666667
 41
0.0
 46
0.0
 71
     5
 72
     1
  1
{\fArial|b0|i0|c0|p0;}
 73
     1
 44
1.0
  0
MTEXT
  5
139
330
134
100
AcDbEntity
  8
DIMENSIONS
100
AcDbMText
 10
19.19982719421385
 20
174.1801605224609
 30
0.0
 40
2.275416666666667
 41
0.0
 46
0.0
 71
     5
 72
     1
  1
{\fArial|b0|i0|c0|p0;}
 73
     1
 44
1.0
  0
LINE
  5
13A
330
134
100
AcDbEntity
  8
DIMENSIONS
100
AcDbLine
 10
24.72760389327999
 20
174.1801607608798
 30
0.0
 11
24.72760389327999
 21
174.1801607608798
 31
0.0
  0
LINE
  5
13B
330
134
100
AcDbEntity
  8
DIMENSIONS
100
AcDbLine
 10
19.84965228271481
 20
181.098216056824
 30
0.0
 11
19.84965228271481
 21
172.1801605224609
 31
0.0
  0
LINE
  5
13C
330
134
100
AcDbEntity
  8
DIMENSIONS
100
AcDbLine
 10
28.99365228271481
 20
181.098216056824
 30
0.0
 11
28.99365228271481
 21
172.1801605224609
 31
0.0
  0
LWPOLYLINE
  5
13D
330
134
100
AcDbEntity
  8
DIMENSIONS
100
AcDbPolyline
 90
        4
 70
     0
 43
0.0
 10
19.84965228271481
 20
174.1801605224609
 10
22.8496522827148
 20
174.6801605224609
 10
22.8496522827148
 20
173.6801605224609
 10
19.84965228271481
 20
174.1801605224609
  0
LINE
  5
13E
330
134
100
AcDbEntity
  8
DIMENSIONS
100
AcDbLine
 10
19.84965228271481
 20
174.1801605224609
 30
0.0
 11
24.72760389327999
 21
174.1801607608798
 31
0.0
  0
LWPOLYLINE
  5
13F
330
134
100
AcDbEntity
  8
DIMENSIONS
100
AcDbPolyline
 90
        4
 70
     0
 43
0.0
 10
28.99365228271481
 20
174.1801605224609
 10
25.99365228271481
 20
173.6801605224609
 10
25.99365228271481
 20
174.6801605224609
 10
28.99365228271481
 20
174.1801605224609
  0
LINE
  5
140
330
134
100
AcDbEntity
  8
DIMENSIONS
100
AcDbLine
 10
25.99365228271481
 20
174.1801605224609
 30
0.0
 11
22.84965228271481
 21
174.1801605224609
 31
0.0
  0
ENDBLK
  5
136
330
134
100
AcDbEntity
  8
0
100
AcDbBlockEnd
  0
ENDSEC
  0
SECTION
  2
ENTITIES
  0
CIRCLE
  5
5E
330
1F
100
AcDbEntity
  8
VISIBLE
100
AcDbCircle
 10
139.483654022217
 20
183.098216056824
 30
0.0
 40
13.33500000000001
  0
CIRCLE
  5
5F
330
1F
100
AcDbEntity
  8
VISIBLE
100
AcDbCircle
 10
139.483654022217
 20
183.098216056824
 30
0.0
 40
9.525000000000006
  0
CIRCLE
  5
60
330
1F
100
AcDbEntity
  8
VISIBLE
100
AcDbCircle
 10
139.483654022217
 20
183.098216056824
 30
0.0
 40
20.57399999999998
  0
CIRCLE
  5
62
330
1F
100
AcDbEntity
  8
TANGENT EDGES
100
AcDbCircle
 10
139.483654022217
 20
183.098216056824
 30
0.0
 40
19.81200000000001
  0
CIRCLE
  5
63
330
1F
100
AcDbEntity
  8
TANGENT EDGES
100
AcDbCircle
 10
139.483654022217
 20
183.098216056824
 30
0.0
 40
12.57300000000001
  0
DIMENSION
  5
65
330
1F
100
AcDbEntity
  8
DIMENSIONS
100
AcDbDimension
  2
D1
 10
0.0
 20
0.0
 30
0.0
 11
308.0238151550297
 21
365.8572340011602
 31
0.0
 70
    32
  1
<>
 71
     5
 42
-1.0
 73
     0
 74
     0
 75
     0
  3
ISO-25
100
AcDbAlignedDimension
 13
139.4836540222169
 23
203.672216056824
 33
0.0
 14
139.4836540222171
 24
162.524216056824
 34
0.0
100
AcDbRotatedDimension
1001
ACAD
1000
DSTYLE
1002
{
1070
    76
1070
     0
1070
    75
1070
     0
1070
   282
1070
     0
1070
   281
1070
     0
1070
    77
1070
     0
1070
    79
1070
     0
1070
    78
1070
     0
1070
   272
1070
     3
1070
   271
1070
     3
1070
   179
1070
     3
1070
   140
1040
2.275416666666667
1070
    71
1070
     0
1070
    72
1070
     0
1070
    48
1040
0.002
1070
    47
1040
0.005
1002
}
  0
DIMENSION
  5
72
330
1F
100
AcDbEntity
  8
DIMENSIONS
100
AcDbDimension
  2
D2
 10
0.0
 20
0.0
 30
0.0
 11
279.8062095642092
 21
365.5044202804568
 31
0.0
 70
    32
  1
<>
 71
     5
 42
-1.0
 73
     0
 74
     0
 75
     0
  3
ISO-25
100
AcDbAlignedDimension
 13
147.2860772440696
 23
188.5615316130677
 33
0.0
 14
131.6812308003643
 24
177.6349005005803
 34
0.0
100
AcDbRotatedDimension
1001
ACAD
1000
DSTYLE
1002
{
1070
    76
1070
     0
1070
    75
1070
     0
1070
   282
1070
     0
1070
   281
1070
     0
1070
    77
1070
     0
1070
    79
1070
     0
1070
    78
1070
     0
1070
   272
1070
     3
1070
   271
1070
     3
1070
   179
1070
     3
1070
   140
1040
2.275416666666667
1070
    71
1070
     0
1070
    72
1070
     0
1070
    48
1040
0.002
1070
    47
1040
0.005
1002
}
  0
LINE
  5
7F
330
1F
100
AcDbEntity
  8
VISIBLE
100
AcDbLine
 10
154.6430332422258
 20
119.852214317322
 30
0.0
 11
154.6430332422258
 21
74.132214317322
 31
0.0
  0
LINE
  5
80
330
1F
100
AcDbEntity
  8
VISIBLE
100
AcDbLine
 10
151.1126996530047
 20
119.852214317322
 30
0.0
 11
151.1126996530047
 21
74.132214317322
 31
0.0
  0
LINE
  5
81
330
1F
100
AcDbEntity
  8
VISIBLE
100
AcDbLine
 10
137.5676466068444
 20
119.852214317322
 30
0.0
 11
137.5676466068444
 21
74.132214317322
 31
0.0
  0
LINE
  5
82
330
1F
100
AcDbEntity
  8
VISIBLE
100
AcDbLine
 10
153.9745918421242
 20
119.852214317322
 30
0.0
 11
153.9745918421242
 21
74.132214317322
 31
0.0
  0
LINE
  5
83
330
1F
100
AcDbEntity
  8
VISIBLE
100
AcDbLine
 10
147.5905039594024
 20
119.852214317322
 30
0.0
 11
147.5905039594024
 21
74.132214317322
 31
0.0
  0
LINE
  5
84
330
1F
100
AcDbEntity
  8
VISIBLE
100
AcDbLine
 10
140.752320475749
 20
119.852214317322
 30
0.0
 11
140.752320475749
 21
74.132214317322
 31
0.0
  0
LINE
  5
85
330
1F
100
AcDbEntity
  8
VISIBLE
100
AcDbLine
 10
159.295654022217
 20
72.608214317322
 30
0.0
 11
119.671654022217
 21
72.608214317322
 31
0.0
  0
LINE
  5
86
330
1F
100
AcDbEntity
  8
VISIBLE
100
AcDbLine
 10
119.671654022217
 20
74.132214317322
 30
0.0
 11
159.295654022217
 21
74.132214317322
 31
0.0
  0
LINE
  5
87
330
1F
100
AcDbEntity
  8
VISIBLE
100
AcDbLine
 10
125.963711468238
 20
119.852214317322
 30
0.0
 11
125.963711468238
 21
74.132214317322
 31
0.0
  0
LINE
  5
88
330
1F
100
AcDbEntity
  8
VISIBLE
100
AcDbLine
 10
131.3768040850316
 20
119.852214317322
 30
0.0
 11
131.3768040850316
 21
74.132214317322
 31
0.0
  0
SPLINE
  5
89
330
1F
100
AcDbEntity
  8
VISIBLE
100
AcDbSpline
210
0.0
220
0.0
230
1.0
 70
     8
 71
     3
 72
    14
 73
    10
 74
     0
 42
0.000000001
 43
0.000001
 40
0.0
 40
0.0
 40
0.0
 40
0.0
 40
0.0384198244783072
 40
0.0384198244783072
 40
0.0768396489566145
 40
0.0768396489566145
 40
0.1152557571287667
 40
0.1152557571287667
 40
0.1536718653037047
 40
0.1536718653037047
 40
0.1536718653037047
 40
0.1536718653037047
 10
126.5016695437176
 20
63.464214317322
 30
0.0
 10
126.5016695437176
 20
63.08001607253893
 30
0.0
 10
126.4828412709501
 20
62.67117853250409
 30
0.0
 10
126.4155691114525
 20
61.92064116749457
 30
0.0
 10
126.3681759596383
 20
61.57881839968947
 30
0.0
 10
126.2797843163184
 20
61.03911340063081
 30
0.0
 10
126.2329374118366
 20
60.80475268880888
 30
0.0
 10
126.1669244371462
 20
60.49326624953471
 30
0.0
 10
126.148654022217
 20
60.41621431732201
 30
0.0
 10
126.148654022217
 20
60.41621431732201
 30
0.0
  0
SPLINE
  5
8A
330
1F
100
AcDbEntity
  8
VISIBLE
100
AcDbSpline
210
0.0
220
0.0
230
1.0
 70
     8
 71
     3
 72
    14
 73
    10
 74
     0
 42
0.000000001
 43
0.000001
 40
0.4610155959090281
 40
0.4610155959090281
 40
0.4610155959090281
 40
0.4610155959090281
 40
0.4994317040749094
 40
0.4994317040749094
 40
0.5378478122470617
 40
0.5378478122470617
 40
0.576267636725369
 40
0.576267636725369
 40
0.6146874612036761
 40
0.6146874612036761
 40
0.6146874612036761
 40
0.6146874612036761
 10
126.148654022217
 20
66.51221431732199
 30
0.0
 10
126.148654022217
 20
66.51221431732199
 30
0.0
 10
126.1669244371462
 20
66.4351623851093
 30
0.0
 10
126.2329374118366
 20
66.12367594583513
 30
0.0
 10
126.2797843163184
 20
65.8893152340132
 30
0.0
 10
126.3681759596383
 20
65.34961023495453
 30
0.0
 10
126.4155691114525
 20
65.00778746714943
 30
0.0
 10
126.4828412709501
 20
64.25725010213992
 30
0.0
 10
126.5016695437176
 20
63.84841256210508
 30
0.0
 10
126.5016695437176
 20
63.464214317322
 30
0.0
  0
LINE
  5
8B
330
1F
100
AcDbEntity
  8
VISIBLE
100
AcDbLine
 10
119.7468789329388
 20
121.376214317322
 30
0.0
 11
159.2204291114952
 21
121.376214317322
 31
0.0
  0
LINE
  5
8C
330
1F
100
AcDbEntity
  8
VISIBLE
100
AcDbLine
 10
153.003596576196
 20
119.852214317322
 30
0.0
 11
153.003596576196
 21
74.132214317322
 31
0.0
  0
LINE
  5
8D
330
1F
100
AcDbEntity
  8
VISIBLE
100
AcDbLine
 10
149.3058712149073
 20
119.852214317322
 30
0.0
 11
149.3058712149073
 21
74.132214317322
 31
0.0
  0
LINE
  5
8E
330
1F
100
AcDbEntity
  8
VISIBLE
100
AcDbLine
 10
138.214987568685
 20
119.852214317322
 30
0.0
 11
138.214987568685
 21
74.132214317322
 31
0.0
  0
LINE
  5
8F
330
1F
100
AcDbEntity
  8
VISIBLE
100
AcDbLine
 10
152.056654022217
 20
57.368214317322
 30
0.0
 11
126.910654022217
 21
57.368214317322
 31
0.0
  0
LINE
  5
90
330
1F
100
AcDbEntity
  8
VISIBLE
100
AcDbLine
 10
129.6614368295267
 20
119.852214317322
 30
0.0
 11
129.6614368295267
 21
74.132214317322
 31
0.0
  0
LINE
  5
91
330
1F
100
AcDbEntity
  8
VISIBLE
100
AcDbLine
 10
124.3242748022081
 20
119.852214317322
 30
0.0
 11
124.3242748022081
 21
74.132214317322
 31
0.0
  0
SPLINE
  5
92
330
1F
100
AcDbEntity
  8
VISIBLE
100
AcDbSpline
210
0.0
220
0.0
230
1.0
 70
     8
 71
     3
 72
    14
 73
    10
 74
     0
 42
0.000000001
 43
0.000001
 40
0.0
 40
0.0
 40
0.0
 40
0.0
 40
0.0384198244783072
 40
0.0384198244783072
 40
0.0768396489566145
 40
0.0768396489566145
 40
0.1152557571287668
 40
0.1152557571287668
 40
0.1536718653037047
 40
0.1536718653037047
 40
0.1536718653037047
 40
0.1536718653037047
 10
152.4656385007164
 20
63.464214317322
 30
0.0
 10
152.4656385007164
 20
63.84841256210508
 30
0.0
 10
152.4844667734839
 20
64.25725010213992
 30
0.0
 10
152.5517389329815
 20
65.00778746714943
 30
0.0
 10
152.5991320847957
 20
65.34961023495453
 30
0.0
 10
152.6875237281156
 20
65.8893152340132
 30
0.0
 10
152.7343706325974
 20
66.12367594583513
 30
0.0
 10
152.8003836072878
 20
66.4351623851093
 30
0.0
 10
152.818654022217
 20
66.51221431732199
 30
0.0
 10
152.818654022217
 20
66.51221431732199
 30
0.0
  0
SPLINE
  5
93
330
1F
100
AcDbEntity
  8
VISIBLE
100
AcDbSpline
210
0.0
220
0.0
230
1.0
 70
     8
 71
     3
 72
    14
 73
    10
 74
     0
 42
0.000000001
 43
0.000001
 40
0.4610155959090281
 40
0.4610155959090281
 40
0.4610155959090281
 40
0.4610155959090281
 40
0.4994317040749095
 40
0.4994317040749095
 40
0.5378478122470618
 40
0.5378478122470618
 40
0.576267636725369
 40
0.576267636725369
 40
0.6146874612036762
 40
0.6146874612036762
 40
0.6146874612036762
 40
0.6146874612036762
 10
152.818654022217
 20
60.41621431732201
 30
0.0
 10
152.818654022217
 20
60.41621431732201
 30
0.0
 10
152.8003836072878
 20
60.49326624953471
 30
0.0
 10
152.7343706325974
 20
60.80475268880888
 30
0.0
 10
152.6875237281156
 20
61.03911340063081
 30
0.0
 10
152.5991320847957
 20
61.57881839968948
 30
0.0
 10
152.5517389329815
 20
61.92064116749457
 30
0.0
 10
152.4844667734839
 20
62.67117853250409
 30
0.0
 10
152.4656385007164
 20
63.08001607253893
 30
0.0
 10
152.4656385007164
 20
63.464214317322
 30
0.0
  0
LINE
  5
94
330
1F
100
AcDbEntity
  8
VISIBLE
100
AcDbLine
 10
146.4569922646559
 20
119.852214317322
 30
0.0
 11
146.4569922646559
 21
74.132214317322
 31
0.0
  0
LINE
  5
95
330
1F
100
AcDbEntity
  8
VISIBLE
100
AcDbLine
 10
144.1128023246521
 20
119.852214317322
 30
0.0
 11
144.1128023246521
 21
74.132214317322
 31
0.0
  0
LINE
  5
96
330
1F
100
AcDbEntity
  8
VISIBLE
100
AcDbLine
 10
151.1000365196201
 20
119.852214317322
 30
0.0
 11
151.1000365196201
 21
74.132214317322
 31
0.0
  0
LINE
  5
97
330
1F
100
AcDbEntity
  8
VISIBLE
100
AcDbLine
 10
142.8341138516413
 20
119.852214317322
 30
0.0
 11
142.8341138516413
 21
74.132214317322
 31
0.0
  0
LINE
  5
98
330
1F
100
AcDbEntity
  8
VISIBLE
100
AcDbLine
 10
141.3996614375896
 20
119.852214317322
 30
0.0
 11
141.3996614375896
 21
74.132214317322
 31
0.0
  0
LINE
  5
99
330
1F
100
AcDbEntity
  8
VISIBLE
100
AcDbLine
 10
132.5103157797781
 20
119.852214317322
 30
0.0
 11
132.5103157797781
 21
74.132214317322
 31
0.0
  0
LINE
  5
9A
330
1F
100
AcDbEntity
  8
VISIBLE
100
AcDbLine
 10
159.2204291114952
 20
119.852214317322
 30
0.0
 11
119.7468789329388
 21
119.852214317322
 31
0.0
  0
LINE
  5
9B
330
1F
100
AcDbEntity
  8
VISIBLE
100
AcDbLine
 10
134.8545057197819
 20
119.852214317322
 30
0.0
 11
134.8545057197819
 21
74.132214317322
 31
0.0
  0
LINE
  5
9C
330
1F
100
AcDbEntity
  8
VISIBLE
100
AcDbLine
 10
136.1331941927927
 20
119.852214317322
 30
0.0
 11
136.1331941927927
 21
74.132214317322
 31
0.0
  0
LINE
  5
9D
330
1F
100
AcDbEntity
  8
VISIBLE
100
AcDbLine
 10
127.8546083914293
 20
119.852214317322
 30
0.0
 11
127.8546083914293
 21
74.132214317322
 31
0.0
  0
LINE
  5
9E
330
1F
100
AcDbEntity
  8
VISIBLE
100
AcDbLine
 10
127.8672715248139
 20
119.852214317322
 30
0.0
 11
127.8672715248139
 21
74.132214317322
 31
0.0
  0
LINE
  5
9F
330
1F
100
AcDbEntity
  8
VISIBLE
100
AcDbLine
 10
124.9927162023098
 20
119.852214317322
 30
0.0
 11
124.9927162023098
 21
74.132214317322
 31
0.0
  0
LINE
  5
A0
330
1F
100
AcDbEntity
  8
VISIBLE
100
AcDbLine
 10
126.148654022217
 20
72.608214317322
 30
0.0
 11
126.148654022217
 21
66.51221431732199
 31
0.0
  0
LINE
  5
A1
330
1F
100
AcDbEntity
  8
VISIBLE
100
AcDbLine
 10
152.818654022217
 20
72.608214317322
 30
0.0
 11
152.818654022217
 21
66.51221431732199
 31
0.0
  0
ARC
  5
A2
330
1F
100
AcDbEntity
  8
VISIBLE
100
AcDbCircle
 10
119.7468789329388
 20
120.614214317322
 30
0.0
 40
0.7620000000000005
100
AcDbArc
 50
90.0
 51
270.0
  0
ARC
  5
A3
330
1F
100
AcDbEntity
  8
VISIBLE
100
AcDbCircle
 10
119.671654022217
 20
73.370214317322
 30
0.0
 40
0.7620000000000005
100
AcDbArc
 50
90.0
 51
270.0
  0
LINE
  5
A4
330
1F
100
AcDbEntity
  8
VISIBLE
100
AcDbLine
 10
152.818654022217
 20
60.41621431732201
 30
0.0
 11
152.818654022217
 21
58.130214317322
 31
0.0
  0
ARC
  5
A5
330
1F
100
AcDbEntity
  8
VISIBLE
100
AcDbCircle
 10
152.056654022217
 20
58.130214317322
 30
0.0
 40
0.7620000000000005
100
AcDbArc
 50
270.0
 51
0.0
  0
LINE
  5
A6
330
1F
100
AcDbEntity
  8
VISIBLE
100
AcDbLine
 10
126.148654022217
 20
60.41621431732201
 30
0.0
 11
126.148654022217
 21
58.130214317322
 31
0.0
  0
ARC
  5
A7
330
1F
100
AcDbEntity
  8
VISIBLE
100
AcDbCircle
 10
126.910654022217
 20
58.130214317322
 30
0.0
 40
0.7620000000000005
100
AcDbArc
 50
180.0
 51
270.0
  0
ARC
  5
A8
330
1F
100
AcDbEntity
  8
VISIBLE
100
AcDbCircle
 10
159.2204291114952
 20
120.614214317322
 30
0.0
 40
0.7620000000000005
100
AcDbArc
 50
270.0
 51
90.0
  0
ARC
  5
A9
330
1F
100
AcDbEntity
  8
VISIBLE
100
AcDbCircle
 10
159.295654022217
 20
73.370214317322
 30
0.0
 40
0.7620000000000005
100
AcDbArc
 50
270.0
 51
90.0
  0
LINE
  5
AA
330
1F
100
AcDbEntity
  8
TANGENT EDGES
100
AcDbLine
 10
126.148654022217
 20
58.130214317322
 30
0.0
 11
152.818654022217
 21
58.130214317322
 31
0.0
  0
LINE
  5
AB
330
1F
100
AcDbEntity
  8
VISIBLE
100
AcDbLine
 10
76.2376522827148
 20
184.366882510356
 30
0.0
 11
30.51765228271481
 21
184.366882510356
 31
0.0
  0
LINE
  5
AC
330
1F
100
AcDbEntity
  8
VISIBLE
100
AcDbLine
 10
76.2376522827148
 20
187.7273643592591
 30
0.0
 11
30.51765228271481
 21
187.7273643592591
 31
0.0
  0
LINE
  5
AD
330
1F
100
AcDbEntity
  8
VISIBLE
100
AcDbLine
 10
76.2376522827148
 20
171.4818335594209
 30
0.0
 11
30.51765228271481
 21
171.4818335594209
 31
0.0
  0
LINE
  5
AE
330
1F
100
AcDbEntity
  8
VISIBLE
100
AcDbLine
 10
76.2376522827148
 20
198.2575952768328
 30
0.0
 11
30.51765228271481
 21
198.2575952768328
 31
0.0
  0
LINE
  5
AF
330
1F
100
AcDbEntity
  8
VISIBLE
100
AcDbLine
 10
76.2376522827148
 20
176.1248778143851
 30
0.0
 11
30.51765228271481
 21
176.1248778143851
 31
0.0
  0
LINE
  5
B0
330
1F
100
AcDbEntity
  8
VISIBLE
100
AcDbLine
 10
76.2376522827148
 20
185.0142234721966
 30
0.0
 11
30.51765228271481
 21
185.0142234721966
 31
0.0
  0
LINE
  5
B1
330
1F
100
AcDbEntity
  8
VISIBLE
100
AcDbLine
 10
28.99365228271481
 20
163.286216056824
 30
0.0
 11
28.99365228271481
 21
183.098216056824
 31
0.0
  0
LINE
  5
B2
330
1F
100
AcDbEntity
  8
VISIBLE
100
AcDbLine
 10
28.99365228271481
 20
183.098216056824
 30
0.0
 11
28.99365228271481
 21
202.910216056824
 31
0.0
  0
LINE
  5
B3
330
1F
100
AcDbEntity
  8
VISIBLE
100
AcDbLine
 10
30.51765228271481
 20
202.910216056824
 30
0.0
 11
30.51765228271481
 21
183.098216056824
 31
0.0
  0
LINE
  5
B4
330
1F
100
AcDbEntity
  8
VISIBLE
100
AcDbLine
 10
30.51765228271481
 20
183.098216056824
 30
0.0
 11
30.51765228271481
 21
163.286216056824
 31
0.0
  0
LINE
  5
B5
330
1F
100
AcDbEntity
  8
VISIBLE
100
AcDbLine
 10
76.2376522827148
 20
169.578273502845
 30
0.0
 11
30.51765228271481
 21
169.578273502845
 31
0.0
  0
LINE
  5
B6
330
1F
100
AcDbEntity
  8
VISIBLE
100
AcDbLine
 10
76.2376522827148
 20
181.1822086414514
 30
0.0
 11
30.51765228271481
 21
181.1822086414514
 31
0.0
  0
LINE
  5
B7
330
1F
100
AcDbEntity
  8
VISIBLE
100
AcDbLine
 10
76.2376522827148
 20
178.4690677543889
 30
0.0
 11
30.51765228271481
 21
178.4690677543889
 31
0.0
  0
LINE
  5
B8
330
1F
100
AcDbEntity
  8
VISIBLE
100
AcDbLine
 10
77.7616522827148
 20
202.8349911461022
 30
0.0
 11
77.7616522827148
 21
163.3614409675458
 31
0.0
  0
LINE
  5
B9
330
1F
100
AcDbEntity
  8
VISIBLE
100
AcDbLine
 10
76.2376522827148
 20
190.0715542992629
 30
0.0
 11
30.51765228271481
 21
190.0715542992629
 31
0.0
  0
LINE
  5
BA
330
1F
100
AcDbEntity
  8
VISIBLE
100
AcDbLine
 10
76.2376522827148
 20
186.4486758862483
 30
0.0
 11
30.51765228271481
 21
186.4486758862483
 31
0.0
  0
LINE
  5
BB
330
1F
100
AcDbEntity
  8
VISIBLE
100
AcDbLine
 10
76.2376522827148
 20
174.9913661196386
 30
0.0
 11
30.51765228271481
 21
174.9913661196386
 31
0.0
  0
LINE
  5
BC
330
1F
100
AcDbEntity
  8
VISIBLE
100
AcDbLine
 10
76.2376522827148
 20
194.7145985542271
 30
0.0
 11
30.51765228271481
 21
194.7145985542271
 31
0.0
  0
LINE
  5
BD
330
1F
100
AcDbEntity
  8
VISIBLE
100
AcDbLine
 10
76.2376522827148
 20
179.7477562273996
 30
0.0
 11
30.51765228271481
 21
179.7477562273996
 31
0.0
  0
LINE
  5
BE
330
1F
100
AcDbEntity
  8
VISIBLE
100
AcDbLine
 10
76.2376522827148
 20
173.2759988641336
 30
0.0
 11
30.51765228271481
 21
173.2759988641336
 31
0.0
  0
LINE
  5
BF
330
1F
100
AcDbEntity
  8
VISIBLE
100
AcDbLine
 10
13.75365228271481
 20
170.525216056824
 30
0.0
 11
13.75365228271481
 21
183.098216056824
 31
0.0
  0
LINE
  5
C0
330
1F
100
AcDbEntity
  8
VISIBLE
100
AcDbLine
 10
13.75365228271481
 20
183.098216056824
 30
0.0
 11
13.75365228271481
 21
195.671216056824
 31
0.0
  0
LINE
  5
C1
330
1F
100
AcDbEntity
  8
VISIBLE
100
AcDbLine
 10
76.2376522827148
 20
167.9388368368151
 30
0.0
 11
30.51765228271481
 21
167.9388368368151
 31
0.0
  0
CIRCLE
  5
C2
330
1F
100
AcDbEntity
  8
VISIBLE
100
AcDbCircle
 10
19.84965228271481
 20
183.098216056824
 30
0.0
 40
3.047999999999995
  0
LINE
  5
C3
330
1F
100
AcDbEntity
  8
VISIBLE
100
AcDbLine
 10
76.2376522827148
 20
196.618158610803
 30
0.0
 11
30.51765228271481
 21
196.618158610803
 31
0.0
  0
LINE
  5
C4
330
1F
100
AcDbEntity
  8
VISIBLE
100
AcDbLine
 10
76.2376522827148
 20
197.5891538767311
 30
0.0
 11
30.51765228271481
 21
197.5891538767311
 31
0.0
  0
LINE
  5
C5
330
1F
100
AcDbEntity
  8
VISIBLE
100
AcDbLine
 10
76.2376522827148
 20
192.9204332495143
 30
0.0
 11
30.51765228271481
 21
192.9204332495143
 31
0.0
  0
LINE
  5
C6
330
1F
100
AcDbEntity
  8
VISIBLE
100
AcDbLine
 10
76.2376522827148
 20
163.3614409675458
 30
0.0
 11
76.2376522827148
 21
202.8349911461022
 31
0.0
  0
LINE
  5
C7
330
1F
100
AcDbEntity
  8
VISIBLE
100
AcDbLine
 10
76.2376522827148
 20
171.4691704260363
 30
0.0
 11
30.51765228271481
 21
171.4691704260363
 31
0.0
  0
LINE
  5
C8
330
1F
100
AcDbEntity
  8
VISIBLE
100
AcDbLine
 10
76.2376522827148
 20
181.829549603292
 30
0.0
 11
30.51765228271481
 21
181.829549603292
 31
0.0
  0
LINE
  5
C9
330
1F
100
AcDbEntity
  8
VISIBLE
100
AcDbLine
 10
76.2376522827148
 20
194.7272616876116
 30
0.0
 11
30.51765228271481
 21
194.7272616876116
 31
0.0
  0
LINE
  5
CA
330
1F
100
AcDbEntity
  8
VISIBLE
100
AcDbLine
 10
76.2376522827148
 20
168.6072782369168
 30
0.0
 11
30.51765228271481
 21
168.6072782369168
 31
0.0
  0
LINE
  5
CB
330
1F
100
AcDbEntity
  8
VISIBLE
100
AcDbLine
 10
76.2376522827148
 20
191.2050659940094
 30
0.0
 11
30.51765228271481
 21
191.2050659940094
 31
0.0
  0
ARC
  5
CC
330
1F
100
AcDbEntity
  8
VISIBLE
100
AcDbCircle
 10
14.51565228271481
 20
170.525216056824
 30
0.0
 40
0.7620000000000005
100
AcDbArc
 50
180.0
 51
270.0
  0
ARC
  5
CD
330
1F
100
AcDbEntity
  8
VISIBLE
100
AcDbCircle
 10
14.51565228271481
 20
195.671216056824
 30
0.0
 40
0.7620000000000005
100
AcDbArc
 50
90.0
 51
180.0
  0
LINE
  5
CE
330
1F
100
AcDbEntity
  8
VISIBLE
100
AcDbLine
 10
28.99365228271481
 20
196.433216056824
 30
0.0
 11
14.51565228271481
 21
196.433216056824
 31
0.0
  0
ARC
  5
CF
330
1F
100
AcDbEntity
  8
VISIBLE
100
AcDbCircle
 10
76.9996522827148
 20
202.8349911461022
 30
0.0
 40
0.7620000000000005
100
AcDbArc
 50
0.0
 51
180.0
  0
ARC
  5
D0
330
1F
100
AcDbEntity
  8
VISIBLE
100
AcDbCircle
 10
29.75565228271481
 20
202.910216056824
 30
0.0
 40
0.7620000000000076
100
AcDbArc
 50
0.0
 51
180.0
  0
LINE
  5
D1
330
1F
100
AcDbEntity
  8
VISIBLE
100
AcDbLine
 10
28.99365228271481
 20
169.763216056824
 30
0.0
 11
14.51565228271481
 21
169.763216056824
 31
0.0
  0
ARC
  5
D2
330
1F
100
AcDbEntity
  8
VISIBLE
100
AcDbCircle
 10
76.9996522827148
 20
163.3614409675458
 30
0.0
 40
0.7620000000000005
100
AcDbArc
 50
180.0
 51
0.0
  0
ARC
  5
D3
330
1F
100
AcDbEntity
  8
VISIBLE
100
AcDbCircle
 10
29.75565228271481
 20
163.286216056824
 30
0.0
 40
0.7620000000000005
100
AcDbArc
 50
180.0
 51
0.0
  0
LINE
  5
D4
330
1F
100
AcDbEntity
  8
TANGENT EDGES
100
AcDbLine
 10
14.51565228271481
 20
196.433216056824
 30
0.0
 11
14.51565228271481
 21
183.098216056824
 31
0.0
  0
LINE
  5
D5
330
1F
100
AcDbEntity
  8
TANGENT EDGES
100
AcDbLine
 10
14.51565228271481
 20
183.098216056824
 30
0.0
 11
14.51565228271481
 21
169.763216056824
 31
0.0
  0
DIMENSION
  5
D6
330
1F
100
AcDbEntity
  8
DIMENSIONS
100
AcDbDimension
  2
D3
 10
0.0
 20
0.0
 30
0.0
 11
85.4961447525023
 21
366.196432113648
 31
0.0
 70
    32
  1
<>
 71
     5
 42
-1.0
 73
     0
 74
     0
 75
     0
 53
270.0
  3
ISO-25
100
AcDbAlignedDimension
 13
14.51565228271481
 23
169.763216056824
 33
0.0
 14
14.51565228271481
 24
196.433216056824
 34
0.0
 50
270.0
100
AcDbRotatedDimension
1001
ACAD
1000
DSTYLE
1002
{
1070
    76
1070
     0
1070
    75
1070
     0
1070
   282
1070
     0
1070
   281
1070
     0
1070
    77
1070
     0
1070
    79
1070
     0
1070
    78
1070
     0
1070
   272
1070
     3
1070
   271
1070
     3
1070
   179
1070
     3
1070
   140
1040
2.275416666666667
1070
    71
1070
     0
1070
    72
1070
     0
1070
    48
1040
0.002
1070
    47
1040
0.005
1002
}
  0
DIMENSION
  5
E3
330
1F
100
AcDbEntity
  8
DIMENSIONS
100
AcDbDimension
  2
D4
 10
0.0
 20
0.0
 30
0.0
 11
143.4829144287108
 21
347.6684827804571
 31
0.0
 70
    32
  1
<>
 71
     5
 42
-1.0
 73
     0
 74
     0
 75
     0
 53
180.0
  3
ISO-25
100
AcDbAlignedDimension
 13
76.2376522827148
 23
163.3614409675458
 33
0.0
 14
77.7616522827148
 24
163.3614409675458
 34
0.0
 50
180.0
100
AcDbRotatedDimension
1001
ACAD
1000
DSTYLE
1002
{
1070
    76
1070
     0
1070
    75
1070
     0
1070
   282
1070
     0
1070
   281
1070
     0
1070
    77
1070
     0
1070
    79
1070
     0
1070
    78
1070
     0
1070
   272
1070
     3
1070
   271
1070
     3
1070
   179
1070
     3
1070
   140
1040
2.275416666666667
1070
    71
1070
     0
1070
    72
1070
     0
1070
    48
1040
0.002
1070
    47
1040
0.005
1002
}
  0
DIMENSION
  5
F1
330
1F
100
AcDbEntity
  8
DIMENSIONS
100
AcDbDimension
  2
D5
 10
0.0
 20
0.0
 30
0.0
 11
132.6112103271484
 21
387.2526350021367
 31
0.0
 70
    32
  1
<>
 71
     5
 42
-1.0
 73
     0
 74
     0
 75
     0
  3
ISO-25
100
AcDbAlignedDimension
 13
30.51765228271481
 23
202.910216056824
 33
0.0
 14
76.2376522827148
 24
202.8349911461022
 34
0.0
100
AcDbRotatedDimension
1001
ACAD
1000
DSTYLE
1002
{
1070
    76
1070
     0
1070
    75
1070
     0
1070
   282
1070
     0
1070
   281
1070
     0
1070
    77
1070
     0
1070
    79
1070
     0
1070
    78
1070
     0
1070
   272
1070
     3
1070
   271
1070
     3
1070
   179
1070
     3
1070
   140
1040
2.275416666666667
1070
    71
1070
     0
1070
    72
1070
     0
1070
    48
1040
0.002
1070
    47
1040
0.005
1002
}
  0
DIMENSION
  5
FE
330
1F
100
AcDbEntity
  8
DIMENSIONS
100
AcDbDimension
  2
D6
 10
0.0
 20
0.0
 30
0.0
 11
97.6113045654296
 21
389.5756330490117
 31
0.0
 70
    32
  1
<>
 71
     5
 42
-1.0
 73
     0
 74
     0
 75
     0
 53
180.0
  3
ISO-25
100
AcDbAlignedDimension
 13
13.7536522827148
 23
195.671216056824
 33
0.0
 14
28.99365228271481
 24
202.910216056824
 34
0.0
 50
180.0
100
AcDbRotatedDimension
1001
ACAD
1000
DSTYLE
1002
{
1070
    76
1070
     0
1070
    75
1070
     0
1070
   282
1070
     0
1070
   281
1070
     0
1070
    77
1070
     0
1070
    79
1070
     0
1070
    78
1070
     0
1070
   272
1070
     3
1070
   271
1070
     3
1070
   179
1070
     3
1070
   140
1040
2.275416666666667
1070
    71
1070
     0
1070
    72
1070
     0
1070
    48
1040
0.002
1070
    47
1040
0.005
1002
}
  0
DIMENSION
  5
10B
330
1F
100
AcDbEntity
  8
DIMENSIONS
100
AcDbDimension
  2
D7
 10
0.0
 20
0.0
 30
0.0
 11
97.39430854797357
 21
371.2703046798712
 31
0.0
 70
    32
  1
<>
 71
     5
 42
-1.0
 73
     0
 74
     0
 75
     0
  3
ISO-25
100
AcDbAlignedDimension
 13
16.90551036418573
 23
183.8870965062965
 33
0.0
 14
22.79379420124388
 24
182.3093356073515
 34
0.0
100
AcDbRotatedDimension
1001
ACAD
1000
DSTYLE
1002
{
1070
    76
1070
     0
1070
    75
1070
     0
1070
   282
1070
     0
1070
   281
1070
     0
1070
    77
1070
     0
1070
    79
1070
     0
1070
    78
1070
     0
1070
   272
1070
     3
1070
   271
1070
     3
1070
   179
1070
     3
1070
   140
1040
2.275416666666667
1070
    71
1070
     0
1070
    72
1070
     0
1070
    48
1040
0.002
1070
    47
1040
0.005
1002
}
  0
DIMENSION
  5
118
330
1F
100
AcDbEntity
  8
DIMENSIONS
100
AcDbDimension
  2
D8
 10
0.0
 20
0.0
 30
0.0
 11
117.5891613769531
 21
347.7259626388552
 31
0.0
 70
    32
  1
<>
 71
     5
 42
-1.0
 73
     0
 74
     0
 75
     0
  3
ISO-25
100
AcDbAlignedDimension
 13
30.51765228271481
 23
163.286216056824
 33
0.0
 14
28.99365228271481
 24
163.286216056824
 34
0.0
100
AcDbRotatedDimension
1001
ACAD
1000
DSTYLE
1002
{
1070
    76
1070
     0
1070
    75
1070
     0
1070
   282
1070
     0
1070
   281
1070
     0
1070
    77
1070
     0
1070
    79
1070
     0
1070
    78
1070
     0
1070
   272
1070
     3
1070
   271
1070
     3
1070
   179
1070
     3
1070
   140
1040
2.275416666666667
1070
    71
1070
     0
1070
    72
1070
     0
1070
    48
1040
0.002
1070
    47
1040
0.005
1002
}
  0
DIMENSION
  5
126
330
1F
100
AcDbEntity
  8
DIMENSIONS
100
AcDbDimension
  2
D9
 10
0.0
 20
0.0
 30
0.0
 11
127.6132855224609
 21
341.3870801925661
 31
0.0
 70
    32
  1
<>
 71
     5
 42
-1.0
 73
     0
 74
     0
 75
     0
 53
180.0
  3
ISO-25
100
AcDbAlignedDimension
 13
13.75365228271481
 23
170.525216056824
 33
0.0
 14
77.7616522827148
 24
163.3614409675458
 34
0.0
 50
180.0
100
AcDbRotatedDimension
1001
ACAD
1000
DSTYLE
1002
{
1070
    76
1070
     0
1070
    75
1070
     0
1070
   282
1070
     0
1070
   281
1070
     0
1070
    77
1070
     0
1070
    79
1070
     0
1070
    78
1070
     0
1070
   272
1070
     3
1070
   271
1070
     3
1070
   179
1070
     3
1070
   140
1040
2.275416666666667
1070
    71
1070
     0
1070
    72
1070
     0
1070
    48
1040
0.002
1070
    47
1040
0.005
1002
}
  0
DIMENSION
  5
133
330
1F
100
AcDbEntity
  8
DIMENSIONS
100
AcDbDimension
  2
D10
 10
0.0
 20
0.0
 30
0.0
 11
95.43747947692866
 21
357.2783765792849
 31
0.0
 70
    32
  1
<>
 71
     5
 42
-1.0
 73
     0
 74
     0
 75
     0
 53
180.0
  3
ISO-25
100
AcDbAlignedDimension
 13
19.84965228271481
 23
183.098216056824
 33
0.0
 14
28.99365228271481
 24
183.098216056824
 34
0.0
 50
180.0
100
AcDbRotatedDimension
1001
ACAD
1000
DSTYLE
1002
{
1070
    76
1070
     0
1070
    75
1070
     0
1070
   282
1070
     0
1070
   281
1070
     0
1070
    77
1070
     0
1070
    79
1070
     0
1070
    78
1070
     0
1070
   272
1070
     3
1070
   271
1070
     3
1070
   179
1070
     3
1070
   140
1040
2.275416666666667
1070
    71
1070
     0
1070
    72
1070
     0
1070
    48
1040
0.002
1070
    47
1040
0.005
1002
}
  0
LINE
  5
141
330
1F
100
AcDbEntity
  8
VISIBLE
100
AcDbLine
 10
213.3000048041426
 20
110.6292541129549
 30
0.0
 11
215.0941701088554
 21
111.6651159346014
 31
0.0
  0
LINE
  5
142
330
1F
100
AcDbEntity
  8
VISIBLE
100
AcDbLine
 10
209.3245702616656
 20
105.4515306045766
 30
0.0
 11
209.266192697763
 21
106.9617371750153
 31
0.0
  0
LINE
  5
143
330
1F
100
AcDbEntity
  8
VISIBLE
100
AcDbLine
 10
209.266192697763
 20
106.9617371750153
 30
0.0
 11
210.923785300729
 21
108.7115630252717
 31
0.0
  0
LINE
  5
144
330
1F
100
AcDbEntity
  8
VISIBLE
100
AcDbLine
 10
212.8422656202853
 20
108.9127944605238
 30
0.0
 11
241.3984391405364
 21
92.42587999158118
 31
0.0
  0
LINE
  5
145
330
1F
100
AcDbEntity
  8
VISIBLE
100
AcDbLine
 10
215.0941701088554
 20
111.6651159346014
 30
0.0
 11
244.135190011975
 21
94.89827527599401
 31
0.0
  0
LINE
  5
146
330
1F
100
AcDbEntity
  8
VISIBLE
100
AcDbLine
 10
220.6865767531925
 20
111.755589031572
 30
0.0
 11
221.1424438397374
 21
112.264243691013
 31
0.0
  0
LINE
  5
147
330
1F
100
AcDbEntity
  8
VISIBLE
100
AcDbLine
 10
203.95044705829
 20
96.63338689100452
 30
0.0
 11
204.6370443953278
 21
98.94381711942646
 31
0.0
  0
ELLIPSE
  5
148
330
1F
100
AcDbEntity
  8
VISIBLE
100
AcDbEllipse
 10
247.6036402268762
 20
79.48232148697933
 30
0.0
 11
6.667500000000018
 21
11.54844875946549
 31
0.0
210
0.0
220
0.0
230
1.0
 40
0.5773502691896227
 41
0.0
 42
3.141592653589796
  0
LINE
  5
149
330
1F
100
AcDbEntity
  8
VISIBLE
100
AcDbLine
 10
204.6370443953278
 20
98.94381711942646
 30
0.0
 11
234.452364647235
 21
81.72993394601295
 31
0.0
  0
LINE
  5
14A
330
1F
100
AcDbEntity
  8
VISIBLE
100
AcDbLine
 10
208.4646788918535
 20
104.2916261436265
 30
0.0
 11
237.5023352733518
 21
87.52672741513258
 31
0.0
  0
SPLINE
  5
14B
330
1F
100
AcDbEntity
  8
VISIBLE
100
AcDbSpline
210
0.0
220
0.0
230
1.0
 70
     8
 71
     3
 72
    18
 73
    14
 74
     0
 42
0.000000001
 43
0.000001
 40
0.0
 40
0.0
 40
0.0
 40
0.0
 40
0.0384198244783072
 40
0.0384198244783072
 40
0.0768396489566145
 40
0.0768396489566145
 40
0.1152557571287667
 40
0.1152557571287667
 40
0.153671865300919
 40
0.153671865300919
 40
0.1920879734730713
 40
0.1920879734730713
 40
0.2305040816452271
 40
0.2305040816452271
 40
0.2305040816452271
 40
0.2305040816452271
 10
244.8897753760406
 20
72.93810772746968
 30
0.0
 10
245.1614445602467
 20
72.78125945083778
 30
0.0
 10
245.437222757857
 20
72.5437455131648
 30
0.0
 10
245.9203642180233
 20
71.95556067991879
 30
0.0
 10
246.1285573960726
 20
71.60532588163059
 30
0.0
 10
246.4476841303556
 20
70.90823921469247
 30
0.0
 10
246.5802764150918
 20
70.51433060871793
 30
0.0
 10
246.7538523665004
 20
69.74737445602098
 30
0.0
 10
246.79541717598
 20
69.37463358605943
 30
0.0
 10
246.79541717598
 20
68.7473011665572
 30
0.0
 10
246.7538523665004
 20
68.45239066712305
 30
0.0
 10
246.5802764150918
 20
67.99366149523033
 30
0.0
 10
246.4476841303556
 20
67.82935794649866
 30
0.0
 10
246.2881284807793
 20
67.73723844926506
 30
0.0
  0
SPLINE
  5
14C
330
1F
100
AcDbEntity
  8
VISIBLE
100
AcDbSpline
210
0.0
220
0.0
230
1.0
 70
     8
 71
     3
 72
    22
 73
    18
 74
     0
 42
0.000000001
 43
0.000001
 40
0.2305040816452271
 40
0.2305040816452271
 40
0.2305040816452271
 40
0.2305040816452271
 40
0.2689239061235308
 40
0.2689239061235308
 40
0.3073437306018381
 40
0.3073437306018381
 40
0.3457635550801453
 40
0.3457635550801453
 40
0.3841833795584525
 40
0.3841833795584525
 40
0.4225994877306048
 40
0.4225994877306048
 40
0.4610155959027571
 40
0.4610155959027571
 40
0.4994317040749094
 40
0.4994317040749094
 40
0.5378478122470604
 40
0.5378478122470604
 40
0.5378478122470604
 40
0.5378478122470604
 10
246.2881284807793
 20
67.73723844926506
 30
0.0
 10
246.1285573960726
 20
67.64511004055478
 30
0.0
 10
245.9203642180233
 20
67.6126687098784
 30
0.0
 10
245.437222757857
 20
67.69222255724259
 30
0.0
 10
245.1614445602467
 20
67.80389629350238
 30
0.0
 10
244.6181061918345
 20
68.11759284676619
 30
0.0
 10
244.3157007955203
 20
68.33973356409975
 30
0.0
 10
243.7374221350224
 20
68.87299090912435
 30
0.0
 10
243.4622049189138
 20
69.18452936099683
 30
0.0
 10
243.0180735238474
 20
69.80944455338171
 30
0.0
 10
242.8192297114377
 20
70.16510282201978
 30
0.0
 10
242.5522973159295
 20
70.87815960658521
 30
0.0
 10
242.4848942378668
 20
71.2359827452249
 30
0.0
 10
242.4848942378668
 20
71.86331516472714
 30
0.0
 10
242.5522973159295
 20
72.17314339548314
 30
0.0
 10
242.8192297114377
 20
72.68577193550739
 30
0.0
 10
243.0180735238474
 20
72.88832582157552
 30
0.0
 10
243.2401284807793
 20
73.01652931073502
 30
0.0
  0
SPLINE
  5
14D
330
1F
100
AcDbEntity
  8
VISIBLE
100
AcDbSpline
210
0.0
220
0.0
230
1.0
 70
     8
 71
     3
 72
    10
 73
     6
 74
     0
 42
0.000000001
 43
0.000001
 40
0.5378478122470604
 40
0.5378478122470604
 40
0.5378478122470604
 40
0.5378478122470604
 40
0.576267636725369
 40
0.576267636725369
 40
0.6146874612036761
 40
0.6146874612036761
 40
0.6146874612036761
 40
0.6146874612036761
 10
243.2401284807793
 20
73.01652931073502
 30
0.0
 10
243.4622049189138
 20
73.14474520207266
 30
0.0
 10
243.7374221350224
 20
73.21588287916472
 30
0.0
 10
244.3157007955203
 20
73.19125652002195
 30
0.0
 10
244.6181061918345
 20
73.09495600410159
 30
0.0
 10
244.8897753760406
 20
72.93810772746968
 30
0.0
  0
LINE
  5
14E
330
1F
100
AcDbEntity
  8
VISIBLE
100
AcDbLine
 10
207.2517310732606
 20
104.2444369360518
 30
0.0
 11
208.4646788918535
 21
104.2916261436265
 31
0.0
  0
LINE
  5
14F
330
1F
100
AcDbEntity
  8
VISIBLE
100
AcDbLine
 10
204.6370443953278
 20
98.94381711942646
 30
0.0
 11
205.9741104322412
 21
99.6483639512951
 31
0.0
  0
LINE
  5
150
330
1F
100
AcDbEntity
  8
VISIBLE
100
AcDbLine
 10
203.4777876114523
 20
91.5449512489455
 30
0.0
 11
203.4777876114523
 21
93.61667489223866
 31
0.0
  0
LINE
  5
151
330
1F
100
AcDbEntity
  8
VISIBLE
100
AcDbLine
 10
221.1424438397374
 20
112.264243691013
 30
0.0
 11
247.4744311803684
 21
97.06146371160187
 31
0.0
  0
LINE
  5
152
330
1F
100
AcDbEntity
  8
VISIBLE
100
AcDbLine
 10
205.9830646197286
 20
86.00742867075378
 30
0.0
 11
206.1956389332853
 21
86.6565484781714
 31
0.0
  0
LINE
  5
153
330
1F
100
AcDbEntity
  8
VISIBLE
100
AcDbLine
 10
204.6370443953278
 20
87.55640345421861
 30
0.0
 11
232.2939756932656
 21
71.58866672439527
 31
0.0
  0
LINE
  5
154
330
1F
100
AcDbEntity
  8
VISIBLE
100
AcDbLine
 10
213.3000048041426
 20
110.6292541129549
 30
0.0
 11
242.6792625493068
 21
93.66713174519288
 31
0.0
  0
LINE
  5
155
330
1F
100
AcDbEntity
  8
VISIBLE
100
AcDbLine
 10
204.9371746911904
 20
90.68775159867008
 30
0.0
 11
204.9340303986843
 21
90.70418908373165
 31
0.0
  0
LINE
  5
156
330
1F
100
AcDbEntity
  8
VISIBLE
100
AcDbLine
 10
204.9371746911904
 20
90.68775159867008
 30
0.0
 11
232.5168944127745
 21
74.76459299323906
 31
0.0
  0
LINE
  5
157
330
1F
100
AcDbEntity
  8
VISIBLE
100
AcDbLine
 10
206.5486714764809
 20
100.9730039525224
 30
0.0
 11
235.5863278579792
 21
84.2081052240285
 31
0.0
  0
LINE
  5
158
330
1F
100
AcDbEntity
  8
VISIBLE
100
AcDbLine
 10
207.2517310732606
 20
104.2444369360518
 30
0.0
 11
237.1531346217742
 21
86.9808535481698
 31
0.0
  0
SPLINE
  5
159
330
1F
100
AcDbEntity
  8
VISIBLE
100
AcDbSpline
210
0.0
220
0.0
230
1.0
 70
     8
 71
     3
 72
    18
 73
    14
 74
     0
 42
0.000000001
 43
0.000001
 40
0.0038729383652586
 40
0.0038729383652586
 40
0.0038729383652586
 40
0.0038729383652586
 40
0.0385737398881743
 40
0.0385737398881743
 40
0.0771474797763485
 40
0.0771474797763485
 40
0.1157061576234718
 40
0.1157061576234718
 40
0.154264835470595
 40
0.154264835470595
 40
0.1928235133177183
 40
0.1928235133177183
 40
0.2313821911648463
 40
0.2313821911648463
 40
0.2313821911648463
 40
0.2313821911648463
 10
260.5336658186205
 20
81.87279023201765
 30
0.0
 10
260.7851393825214
 20
81.72012747782676
 30
0.0
 10
261.0620957846546
 20
81.5190332687599
 30
0.0
 10
261.6306190014184
 20
81.02374837523652
 30
0.0
 10
261.9194014164237
 20
80.72100651574388
 30
0.0
 10
262.3883678967738
 20
80.11289368433869
 30
0.0
 10
262.6005852955743
 20
79.76584630236786
 30
0.0
 10
262.8868131690403
 20
79.0638747914464
 30
0.0
 10
262.9598781939045
 20
78.7083535825849
 30
0.0
 10
262.9598781939045
 20
78.07869301003952
 30
0.0
 10
262.8868131690403
 20
77.7655428870153
 30
0.0
 10
262.6005852955743
 20
77.24242502694531
 30
0.0
 10
262.3883678967737
 20
77.0327160101069
 30
0.0
 10
262.1539304453382
 20
76.89736348441247
 30
0.0
  0
SPLINE
  5
15A
330
1F
100
AcDbEntity
  8
VISIBLE
100
AcDbSpline
210
0.0
220
0.0
230
1.0
 70
     8
 71
     3
 72
    20
 73
    16
 74
     0
 42
0.000000001
 43
0.000001
 40
0.2313821911648463
 40
0.2313821911648463
 40
0.2313821911648463
 40
0.2313821911648463
 40
0.2699559310530158
 40
0.2699559310530158
 40
0.30852967094119
 40
0.30852967094119
 40
0.3471034108293643
 40
0.3471034108293643
 40
0.3856771507175386
 40
0.3856771507175386
 40
0.4242358285646618
 40
0.4242358285646618
 40
0.462794506411785
 40
0.462794506411785
 40
0.4758868253020014
 40
0.4758868253020014
 40
0.4758868253020014
 40
0.4758868253020014
 10
262.1539304453382
 20
76.89736348441247
 30
0.0
 10
261.9194014164237
 20
76.76195808643588
 30
0.0
 10
261.6306190014185
 20
76.68244648455241
 30
0.0
 10
261.0320463932106
 20
76.69464697216895
 30
0.0
 10
260.7232213040658
 20
76.78723557155612
 30
0.0
 10
260.1777062430527
 20
77.10218883887903
 30
0.0
 10
259.9075273683114
 20
77.34388833390332
 30
0.0
 10
259.4453610050002
 20
77.94410577703329
 30
0.0
 10
259.2520379310173
 20
78.30196111276184
 30
0.0
 10
258.9598800108282
 20
79.01215441397096
 30
0.0
 10
258.8409414977093
 20
79.41305638569978
 30
0.0
 10
258.6860496925123
 20
80.19085481099071
 30
0.0
 10
258.6493552557913
 20
80.56737458870722
 30
0.0
 10
258.6493552557913
 20
80.98910321108269
 30
0.0
 10
258.6535857305448
 20
81.09338693275944
 30
0.0
 10
258.6622054950274
 20
81.19326209940351
 30
0.0
  0
LINE
  5
15B
330
1F
100
AcDbEntity
  8
VISIBLE
100
AcDbLine
 10
205.9830646197286
 20
102.0470421806761
 30
0.0
 11
207.2517310732606
 21
104.2444369360518
 31
0.0
  0
LINE
  5
15C
330
1F
100
AcDbEntity
  8
VISIBLE
100
AcDbLine
 10
203.4777876114523
 20
93.61667489223866
 30
0.0
 11
232.8570453566165
 21
76.65455252447668
 31
0.0
  0
LINE
  5
15D
330
1F
100
AcDbEntity
  8
VISIBLE
100
AcDbLine
 10
205.9830646197286
 20
86.00742867075378
 30
0.0
 11
232.3150519603595
 21
70.80464869134268
 31
0.0
  0
ELLIPSE
  5
15E
330
1F
100
AcDbEntity
  8
VISIBLE
100
AcDbEllipse
 10
258.3799475721592
 20
73.26061754031007
 30
0.0
 11
4.762499999999989
 21
8.248891971046774
 31
0.0
210
0.0
220
0.0
230
0.9999999999999998
 40
0.577350269189625
 41
-0.7853981633974529
 42
0.0
  0
ELLIPSE
  5
15F
330
1F
100
AcDbEntity
  8
VISIBLE
100
AcDbEllipse
 10
258.3799475721592
 20
73.26061754031007
 30
0.0
 11
4.762499999999989
 21
8.248891971046774
 31
0.0
210
0.0
220
0.0
230
0.9999999999999998
 40
0.577350269189625
 41
0.0
 42
3.141592653589794
  0
ELLIPSE
  5
160
330
1F
100
AcDbEntity
  8
VISIBLE
100
AcDbEllipse
 10
258.3799475721592
 20
73.26061754031007
 30
0.0
 11
4.762499999999989
 21
8.248891971046774
 31
0.0
210
0.0
220
0.0
230
0.9999999999999998
 40
0.577350269189625
 41
3.141592653589794
 42
5.497787143782134
  0
SPLINE
  5
161
330
1F
100
AcDbEntity
  8
VISIBLE
100
AcDbSpline
210
0.0
220
0.0
230
1.0
 70
     8
 71
     3
 72
    12
 73
     8
 74
     0
 42
0.000000001
 43
0.000001
 40
0.201203584158126
 40
0.201203584158126
 40
0.201203584158126
 40
0.201203584158126
 40
0.2305040816452237
 40
0.2305040816452237
 40
0.2689239061235309
 40
0.2689239061235309
 40
0.292142159360091
 40
0.292142159360091
 40
0.292142159360091
 40
0.292142159360091
 10
261.5410509082469
 20
81.09374739963006
 30
0.0
 10
261.6230156451741
 20
80.79988473855673
 30
0.0
 10
261.7290254846936
 20
80.50765851517583
 30
0.0
 10
262.0102918720194
 20
79.89327235632496
 30
0.0
 10
262.2184850500688
 20
79.54303755803674
 30
0.0
 10
262.6060442239247
 20
79.07121626584431
 30
0.0
 10
262.7645257401245
 20
78.91415068652076
 30
0.0
 10
262.9270434886874
 20
78.78306469141066
 30
0.0
  0
LINE
  5
162
330
1F
100
AcDbEntity
  8
VISIBLE
100
AcDbLine
 10
219.1279822152351
 20
112.6554440076192
 30
0.0
 11
246.7849135131727
 21
96.68770727779585
 31
0.0
  0
LINE
  5
163
330
1F
100
AcDbEntity
  8
VISIBLE
100
AcDbLine
 10
217.4703896122691
 20
112.4912467868174
 30
0.0
 11
245.8381405198571
 21
96.11311816401715
 31
0.0
  0
LINE
  5
164
330
1F
100
AcDbEntity
  8
VISIBLE
100
AcDbLine
 10
216.5662203219781
 20
110.8298494747311
 30
0.0
 11
244.1459400435622
 21
94.90669086930014
 31
0.0
  0
LINE
  5
165
330
1F
100
AcDbEntity
  8
VISIBLE
100
AcDbLine
 10
204.7354156830999
 20
94.87131847998216
 30
0.0
 11
204.9234773803425
 21
96.07160757263784
 31
0.0
  0
LINE
  5
166
330
1F
100
AcDbEntity
  8
VISIBLE
100
AcDbLine
 10
203.95044705829
 20
89.07401936791321
 30
0.0
 11
204.9371746911904
 21
90.68775159867008
 31
0.0
  0
LINE
  5
167
330
1F
100
AcDbEntity
  8
VISIBLE
100
AcDbLine
 10
211.8968156227814
 20
108.1497837069051
 30
0.0
 11
212.8422656202853
 21
108.9127944605238
 31
0.0
  0
LINE
  5
168
330
1F
100
AcDbEntity
  8
VISIBLE
100
AcDbLine
 10
209.266192697763
 20
106.9617371750153
 30
0.0
 11
239.0815129496701
 21
89.74785400160177
 31
0.0
  0
LINE
  5
169
330
1F
100
AcDbEntity
  8
VISIBLE
100
AcDbLine
 10
205.9741104322412
 20
99.6483639512951
 30
0.0
 11
206.5486714764809
 21
100.9730039525224
 31
0.0
  0
LINE
  5
16A
330
1F
100
AcDbEntity
  8
VISIBLE
100
AcDbLine
 10
210.923785300729
 20
108.7115630252717
 30
0.0
 11
240.604492949503
 21
91.57539847451342
 31
0.0
  0
LINE
  5
16B
330
1F
100
AcDbEntity
  8
VISIBLE
100
AcDbLine
 10
206.5486714764809
 20
100.9730039525224
 30
0.0
 11
205.9830646197286
 21
102.0470421806761
 31
0.0
  0
LINE
  5
16C
330
1F
100
AcDbEntity
  8
VISIBLE
100
AcDbLine
 10
203.95044705829
 20
89.07401936791321
 30
0.0
 11
232.3181979658781
 21
72.69589074511296
 31
0.0
  0
SPLINE
  5
16D
330
1F
100
AcDbEntity
  8
VISIBLE
100
AcDbSpline
210
0.0
220
0.0
230
1.0
 70
     8
 71
     3
 72
    12
 73
     8
 74
     0
 42
0.000000001
 43
0.000001
 40
0.1694790402237644
 40
0.1694790402237644
 40
0.1694790402237644
 40
0.1694790402237644
 40
0.1928235133177183
 40
0.1928235133177183
 40
0.2313821911648415
 40
0.2313821911648415
 40
0.2608602570887478
 40
0.2608602570887478
 40
0.2608602570887478
 40
0.2608602570887478
 10
245.2129117665397
 20
72.71617759255199
 30
0.0
 10
245.2475357668548
 20
72.5103927853548
 30
0.0
 10
245.3085049630808
 20
72.29623402085517
 30
0.0
 10
245.5382639725178
 20
71.73275193558769
 30
0.0
 10
245.7504813713183
 20
71.38570455361686
 30
0.0
 10
246.1641459911708
 20
70.84930211597803
 30
0.0
 10
246.3750572559238
 20
70.61769909802453
 30
0.0
 10
246.5981274490475
 20
70.40503422258281
 30
0.0
  0
LINE
  5
16E
330
1F
100
AcDbEntity
  8
VISIBLE
100
AcDbLine
 10
204.6370443953278
 20
87.55640345421861
 30
0.0
 11
203.95044705829
 21
89.07401936791321
 31
0.0
  0
LINE
  5
16F
330
1F
100
AcDbEntity
  8
VISIBLE
100
AcDbLine
 10
212.8422656202853
 20
108.9127944605238
 30
0.0
 11
213.3000048041426
 21
110.6292541129549
 31
0.0
  0
LINE
  5
170
330
1F
100
AcDbEntity
  8
VISIBLE
100
AcDbLine
 10
205.9741104322412
 20
99.6483639512951
 30
0.0
 11
234.9632048807337
 21
82.9115024678945
 31
0.0
  0
LINE
  5
171
330
1F
100
AcDbEntity
  8
VISIBLE
100
AcDbLine
 10
204.7354156830999
 20
94.87131847998216
 30
0.0
 11
233.291589203351
 21
78.38440401103952
 31
0.0
  0
LINE
  5
172
330
1F
100
AcDbEntity
  8
VISIBLE
100
AcDbLine
 10
205.9830646197286
 20
102.0470421806761
 30
0.0
 11
235.8844681682422
 21
84.78345879279416
 31
0.0
  0
LINE
  5
173
330
1F
100
AcDbEntity
  8
VISIBLE
100
AcDbLine
 10
217.4703896122691
 20
112.4912467868174
 30
0.0
 11
219.1279822152351
 21
112.6554440076192
 31
0.0
  0
LINE
  5
174
330
1F
100
AcDbEntity
  8
VISIBLE
100
AcDbLine
 10
203.4777876114523
 20
91.5449512489455
 30
0.0
 11
232.5188075145719
 21
74.77811059033809
 31
0.0
  0
LINE
  5
175
330
1F
100
AcDbEntity
  8
VISIBLE
100
AcDbLine
 10
216.5662203219781
 20
110.8298494747311
 30
0.0
 11
217.4703896122691
 21
112.4912467868174
 31
0.0
  0
LINE
  5
176
330
1F
100
AcDbEntity
  8
VISIBLE
100
AcDbLine
 10
203.95044705829
 20
96.63338689100452
 30
0.0
 11
233.6311547070641
 21
79.4972223402462
 31
0.0
  0
LINE
  5
177
330
1F
100
AcDbEntity
  8
VISIBLE
100
AcDbLine
 10
209.3245702616656
 20
105.4515306045766
 30
0.0
 11
238.313664710158
 21
88.71466912117597
 31
0.0
  0
LINE
  5
178
330
1F
100
AcDbEntity
  8
VISIBLE
100
AcDbLine
 10
216.5504128960874
 20
110.8243537693876
 30
0.0
 11
216.5662203219781
 21
110.8298494747311
 31
0.0
  0
LINE
  5
179
330
1F
100
AcDbEntity
  8
VISIBLE
100
AcDbLine
 10
208.4646788918535
 20
104.2916261436265
 30
0.0
 11
209.3245702616656
 21
105.4515306045766
 31
0.0
  0
LINE
  5
17A
330
1F
100
AcDbEntity
  8
VISIBLE
100
AcDbLine
 10
203.4777876114523
 20
93.61667489223866
 30
0.0
 11
204.7354156830999
 21
94.87131847998216
 31
0.0
  0
SPLINE
  5
17B
330
1F
100
AcDbEntity
  8
VISIBLE
100
AcDbSpline
210
0.0
220
0.0
230
1.0
 70
     8
 71
     3
 72
    26
 73
    22
 74
     0
 42
0.000000001
 43
0.000001
 40
5.497787143782138
 40
5.497787143782138
 40
5.497787143782138
 40
5.497787143782138
 40
5.78590283389216
 40
5.78590283389216
 40
6.091977035626727
 40
6.091977035626727
 40
6.418592293155185
 40
6.418592293155185
 40
6.748212737284566
 40
6.748212737284566
 40
7.076255467829647
 40
7.076255467829647
 40
7.403591048081154
 40
7.403591048081154
 40
7.731696995612387
 40
7.731696995612387
 40
8.061357100602649
 40
8.061357100602649
 40
8.387432331697486
 40
8.387432331697486
 40
8.63937979737193
 40
8.63937979737193
 40
8.63937979737193
 40
8.63937979737193
 10
264.5086322048951
 20
85.12015149710902
 30
0.0
 10
265.2221507114525
 20
84.70820139527628
 30
0.0
 10
265.8286330681126
 20
84.11625363787108
 30
0.0
 10
266.7906498051582
 20
82.62509371968174
 30
0.0
 10
267.1312805089552
 20
81.71122291961086
 30
0.0
 10
267.5188316440423
 20
79.62315897456233
 30
0.0
 10
267.545220438005
 20
78.4339926903238
 30
0.0
 10
267.2687130659931
 20
75.93082750961047
 30
0.0
 10
266.9623499456382
 20
74.6157971418171
 30
0.0
 10
266.0544504674212
 20
72.00212989212689
 30
0.0
 10
265.4543404963968
 20
70.70395317989276
 30
0.0
 10
264.0220747370761
 20
68.24837988097707
 30
0.0
 10
263.1906988054678
 20
67.09114606835729
 30
0.0
 10
261.3735561020495
 20
65.02743423961664
 30
0.0
 10
260.3878698128879
 20
64.12178971677099
 30
0.0
 10
258.3483702765405
 20
62.65485832977749
 30
0.0
 10
257.2944519955587
 20
62.09484042342726
 30
0.0
 10
255.221512790786
 20
61.4016474038247
 30
0.0
 10
254.1999764509894
 20
61.26397964808793
 30
0.0
 10
252.5000617088392
 20
61.44174260496924
 30
0.0
 10
251.7975801036378
 20
61.6630174908786
 30
0.0
 10
251.1736322048951
 20
62.02325397817803
 30
0.0
  0
SPLINE
  5
17C
330
1F
100
AcDbEntity
  8
VISIBLE
100
AcDbSpline
210
0.0
220
0.0
230
1.0
 70
     8
 71
     3
 72
     8
 73
     4
 74
     0
 42
0.000000001
 43
0.000001
 40
0.0
 40
0.0
 40
0.0
 40
0.0
 40
0.0701126571589822
 40
0.0701126571589822
 40
0.0701126571589822
 40
0.0701126571589822
 10
261.8360244084799
 20
87.88162181498285
 30
0.0
 10
261.8360244084799
 20
87.48814159906748
 30
0.0
 10
261.8240756214972
 20
87.08857319869863
 30
0.0
 10
261.8002934943109
 20
86.68381158072148
 30
0.0
  0
SPLINE
  5
17D
330
1F
100
AcDbEntity
  8
VISIBLE
100
AcDbSpline
210
0.0
220
0.0
230
1.0
 70
     8
 71
     3
 72
    38
 73
    34
 74
     0
 42
0.000000001
 43
0.000001
 40
1.500683669635914
 40
1.500683669635914
 40
1.500683669635914
 40
1.500683669635914
 40
1.627250776404139
 40
1.627250776404139
 40
1.953310742536322
 40
1.953310742536322
 40
2.271160264154352
 40
2.271160264154352
 40
2.570939156758227
 40
2.570939156758227
 40
2.877287895116826
 40
2.877287895116826
 40
3.199957708654708
 40
3.199957708654708
 40
3.526269334973132
 40
3.526269334973132
 40
3.851655354991623
 40
3.851655354991623
 40
4.176366307473542
 40
4.176366307473542
 40
4.501332668134624
 40
4.501332668134624
 40
4.827312435999194
 40
4.827312435999194
 40
5.152911997740266
 40
5.152911997740266
 40
5.467538505582337
 40
5.467538505582337
 40
5.766064282765
 40
5.766064282765
 40
6.075861041143061
 40
6.075861041143061
 40
6.283185307179586
 40
6.283185307179586
 40
6.283185307179586
 40
6.283185307179586
 10
248.4652934943109
 20
63.58691406179051
 30
0.0
 10
247.853976812903
 20
63.18439729227152
 30
0.0
 10
247.2380388800916
 20
62.82376326538376
 30
0.0
 10
245.0338476320692
 20
61.69501248052152
 30
0.0
 10
243.4428229725067
 20
61.18150410362259
 30
0.0
 10
240.4379438813589
 20
60.84261920198406
 30
0.0
 10
239.0184728267911
 20
61.00336278480228
 30
0.0
 10
236.5641787378422
 20
61.97516304594486
 30
0.0
 10
235.5185631448566
 20
62.74859426397808
 30
0.0
 10
233.8347514555863
 20
64.80546175961166
 30
0.0
 10
233.2039358967377
 20
66.09508688743821
 30
0.0
 10
232.3881833507575
 20
69.10461354476367
 30
0.0
 10
232.2272116933053
 20
70.84533013545467
 30
0.0
 10
232.4106153157595
 20
74.57557424803032
 30
0.0
 10
232.7611605016127
 20
76.56774525499769
 30
0.0
 10
233.9329430685401
 20
80.58643170564545
 30
0.0
 10
234.7528499787549
 20
82.61211324124582
 30
0.0
 10
236.7760125022218
 20
86.49778137983628
 30
0.0
 10
237.9781216193378
 20
88.35737852842247
 30
0.0
 10
240.6480738726248
 20
91.73028640982095
 30
0.0
 10
242.1155597057064
 20
93.24279439492972
 30
0.0
 10
245.1795380056165
 20
95.7697841112138
 30
0.0
 10
246.7758571698053
 20
96.78268433085633
 30
0.0
 10
249.9463218097327
 20
98.1905633102676
 30
0.0
 10
251.5215591737913
 20
98.58672238426183
 30
0.0
 10
254.4549455068437
 20
98.68352935301624
 30
0.0
 10
255.8196892645044
 20
98.40300920017259
 30
0.0
 10
258.1445357098889
 20
97.21844189167759
 30
0.0
 10
259.1154900315153
 20
96.34955480615753
 30
0.0
 10
260.6529147521165
 20
94.11581642493861
 30
0.0
 10
261.2058961246921
 20
92.73660355120803
 30
0.0
 10
261.7313829385056
 20
90.15532837629104
 30
0.0
 10
261.8360244084799
 20
89.04514920461763
 30
0.0
 10
261.8360244084799
 20
87.88162181498285
 30
0.0
  0
SPLINE
  5
17E
330
1F
100
AcDbEntity
  8
VISIBLE
100
AcDbSpline
210
0.0
220
0.0
230
1.0
 70
     8
 71
     3
 72
    36
 73
    32
 74
     0
 42
0.000000001
 43
0.000001
 40
1.629031468137256
 40
1.629031468137256
 40
1.629031468137256
 40
1.629031468137256
 40
1.95343400281268
 40
1.95343400281268
 40
2.271267059924519
 40
2.271267059924519
 40
2.570974011239623
 40
2.570974011239623
 40
2.877276148230945
 40
2.877276148230945
 40
3.199953568187702
 40
3.199953568187702
 40
3.526288454171109
 40
3.526288454171109
 40
3.851694634007515
 40
3.851694634007515
 40
4.176423312313406
 40
4.176423312313406
 40
4.501408493055385
 40
4.501408493055385
 40
4.827410820903842
 40
4.827410820903842
 40
5.153029191581851
 40
5.153029191581851
 40
5.467627115921418
 40
5.467627115921418
 40
5.766079840658455
 40
5.766079840658455
 40
6.075839803363296
 40
6.075839803363296
 40
6.224950165837226
 40
6.224950165837226
 40
6.224950165837226
 40
6.224950165837226
 10
213.1922139510507
 20
81.84522436368671
 30
0.0
 10
211.6181610661662
 20
81.04241016902787
 30
0.0
 10
210.0412813772121
 20
80.53530779266035
 30
0.0
 10
207.0548823385816
 20
80.19900091623884
 30
0.0
 10
205.640452618301
 20
80.35941185589286
 30
0.0
 10
203.1950886910914
 20
81.32819199382737
 30
0.0
 10
202.153366081812
 20
82.09894786437627
 30
0.0
 10
200.4757852120744
 20
84.14843547065621
 30
0.0
 10
199.8473120365274
 20
85.43336130277217
 30
0.0
 10
199.0344871886089
 20
88.4319253622667
 30
0.0
 10
198.8740949001296
 20
90.1663635669782
 30
0.0
 10
199.0568230843733
 20
93.88312671865538
 30
0.0
 10
199.4061173451989
 20
95.86809813679805
 30
0.0
 10
200.573696236104
 20
99.87218483388413
 30
0.0
 10
201.390651653158
 20
101.8904689398828
 30
0.0
 10
203.4065094688825
 20
105.7618925752279
 30
0.0
 10
204.6042667218701
 20
107.6146451649876
 30
0.0
 10
207.264556825587
 20
110.9751101136039
 30
0.0
 10
208.726734135916
 20
112.4820217707019
 30
0.0
 10
211.7796783660749
 20
114.9996316671776
 30
0.0
 10
213.3702741028997
 20
116.0087503083858
 30
0.0
 10
216.5294506550408
 20
117.4112530059315
 30
0.0
 10
218.099126835016
 20
117.8058225957362
 30
0.0
 10
221.0220808602754
 20
117.9018018032649
 30
0.0
 10
222.3819505709475
 20
117.6220609878577
 30
0.0
 10
224.6983072146381
 20
116.4413724211603
 30
0.0
 10
225.6656405304997
 20
115.5755602102121
 30
0.0
 10
227.1974115420819
 20
113.3499235630587
 30
0.0
 10
227.7483615326668
 20
111.9757469062525
 30
0.0
 10
228.2130283711167
 20
109.6934980765035
 30
0.0
 10
228.3094119279025
 20
108.9131202801906
 30
0.0
 10
228.3515931710596
 20
108.1020393839459
 30
0.0
  0
LINE
  5
17F
330
1F
100
AcDbEntity
  8
VISIBLE
100
AcDbLine
 10
254.2711402268762
 20
91.03077024644483
 30
0.0
 11
264.5086322048951
 21
85.12015149710902
 31
0.0
  0
LINE
  5
180
330
1F
100
AcDbEntity
  8
VISIBLE
100
AcDbLine
 10
240.9361402268762
 20
67.93387272751386
 30
0.0
 11
251.1736322048951
 21
62.02325397817803
 31
0.0
  0
ELLIPSE
  5
181
330
1F
100
AcDbEntity
  8
TANGENT EDGES
100
AcDbEllipse
 10
247.6036402268762
 20
79.48232148697934
 30
0.0
 11
-9.906000000000006
 21
-17.1576952997773
 31
0.0
210
0.0
220
0.0
230
0.9999999999999998
 40
0.5773502691896262
 41
-3.974027619972038
 42
-3.926990816987241
  0
ELLIPSE
  5
182
330
1F
100
AcDbEntity
  8
TANGENT EDGES
100
AcDbEllipse
 10
247.6036402268762
 20
79.48232148697934
 30
0.0
 11
-9.906000000000006
 21
-17.1576952997773
 31
0.0
210
0.0
220
0.0
230
0.9999999999999998
 40
0.5773502691896262
 41
-3.926990816987241
 42
0.8324349663822446
  0
ELLIPSE
  5
183
330
1F
100
AcDbEntity
  8
TANGENT EDGES
100
AcDbEllipse
 10
257.8411322048951
 20
73.57170273764352
 30
0.0
 11
-6.667500000000018
 21
-11.54844875946549
 31
0.0
210
0.0
220
0.0
230
1.0
 40
0.5773502691896275
 41
-3.141592653589793
 42
0.0
  0
ELLIPSE
  5
184
330
1F
100
AcDbEntity
  8
TANGENT EDGES
100
AcDbEllipse
 10
258.3799475721592
 20
73.26061754031007
 30
0.0
 11
-6.28649999999999
 21
-10.88853740178174
 31
0.0
210
0.0
220
0.0
230
1.0
 40
0.5773502691896256
 41
0.0
 42
6.283185307179586
  0
ELLIPSE
  5
185
330
1F
100
AcDbEntity
  8
TANGENT EDGES
100
AcDbEllipse
 10
214.197087456499
 20
98.7696037216541
 30
0.0
 11
9.86838754463912
 21
17.0925486160948
 31
0.0
210
0.0
220
0.0
230
1.0
 40
0.5773502691896272
 41
-0.6949623343141492
 42
2.356194490192347
  0
ELLIPSE
  5
186
330
1F
100
AcDbEntity
  8
TANGENT EDGES
100
AcDbEllipse
 10
214.197087456499
 20
98.7696037216541
 30
0.0
 11
9.86838754463912
 21
17.0925486160948
 31
0.0
210
0.0
220
0.0
230
1.0
 40
0.5773502691896272
 41
2.356194490192348
 42
3.836554987903944
  0
MTEXT
  5
188
330
1F
100
AcDbEntity
  8
CONTINUOUS
100
AcDbMText
 10
81.87589263916016
 20
50.29516815185547
 30
0.0
 40
4.045185185185185
 41
0.0
 46
0.0
 71
     1
 72
     1
  3
{\fArial|b0|i0|c0|p0;\C7;EMCO 5 Series Stepper Pinion MXL 16t}{\fArial|b0|i0|c0|p0;\C7;\PSame for both Z and X axis.}{\fArial|b0|i0|c0|p0;\C7;\POriginal is steel with endplates retained by "e" clips.}{\fArial|b0|i0|c0|p0;\C7;\P2mm pin secures pinion 
  1
to stepper drive shaft.}{\fArial|b0|i0|c0|p0;\C7;\PBelts are 48MXL050 (60 tooth 4.8"Long x 1/2"Wide))}{\fArial|b0|i0|c0|p0;\C7;\Pmwg oct 2015.}{\fArial|b0|i0|c0|p0;\C7;\H0.5625x;}
 73
     1
 44
1.0
  0
MTEXT
  5
189
330
1F
100
AcDbEntity
  8
CONTINUOUS
100
AcDbMText
 10
29.83640670776367
 20
150.6863653564453
 30
0.0
 40
4.045185185185185
 41
0.0
 46
0.0
 71
     1
 72
     1
  3
{\fArial|b0|i0|c0|p0;\C7;Radius teeth .005" all corners, internal and external.}{\fArial|b0|i0|c0|p0;\C7;\PTooth form is .045" at root, 40 degree included angle per tooth.}{\fArial|b0|i0|c0|p0;\C7;\PBelt Tooth pitch is .080" and .020" deep so cut tee
  1
th to say .025" min depth.}{\fArial|b0|i0|c0|p0;\C7;\H0.5625x;}
 73
     1
 44
1.0
  0
ENDSEC
  0
SECTION
  2
OBJECTS
  0
DICTIONARY
  5
C
330
0
100
AcDbDictionary
281
     1
  3
ACAD_GROUP
350
D
  3
ACAD_LAYOUT
350
1A
  3
ACAD_MLEADERSTYLE
350
18B
  3
ACAD_MLINESTYLE
350
17
  3
ACAD_PLOTSETTINGS
350
19
  3
ACAD_PLOTSTYLENAME
350
E
  3
ACAD_SCALELIST
350
3B
  3
ACAD_TABLESTYLE
350
18A
  3
ACAD_VISUALSTYLE
350
2A
  0
DICTIONARY
  5
D
102
{ACAD_REACTORS
330
C
102
}
330
C
100
AcDbDictionary
281
     1
  0
DICTIONARY
  5
1A
102
{ACAD_REACTORS
330
C
102
}
330
C
100
AcDbDictionary
281
     1
  3
Layout1
350
1E
  3
Layout2
350
26
  3
Model
350
22
  0
DICTIONARY
  5
18B
102
{ACAD_REACTORS
330
C
102
}
330
C
100
AcDbDictionary
281
     1
  0
DICTIONARY
  5
17
102
{ACAD_REACTORS
330
C
102
}
330
C
100
AcDbDictionary
281
     1
  3
Standard
350
18
  0
DICTIONARY
  5
19
102
{ACAD_REACTORS
330
C
102
}
330
C
100
AcDbDictionary
281
     1
  0
ACDBDICTIONARYWDFLT
  5
E
102
{ACAD_REACTORS
330
C
102
}
330
C
100
AcDbDictionary
281
     1
  3
Normal
350
F
100
AcDbDictionaryWithDefault
340
F
  0
DICTIONARY
  5
3B
102
{ACAD_REACTORS
330
C
102
}
330
C
100
AcDbDictionary
281
     1
  3
A0
350
3C
  3
A1
350
3D
  3
A2
350
3E
  3
A3
350
3F
  3
A4
350
40
  3
A5
350
41
  3
A6
350
42
  3
A7
350
43
  3
A8
350
44
  3
A9
350
45
  3
B0
350
46
  3
B1
350
47
  3
B2
350
48
  3
B3
350
49
  3
B4
350
4A
  3
B5
350
4B
  3
B6
350
4C
  3
B7
350
4D
  3
B8
350
4E
  3
B9
350
4F
  3
C0
350
50
  3
C1
350
51
  3
C2
350
52
  3
C3
350
53
  3
C4
350
54
  3
C5
350
55
  3
C6
350
56
  3
C7
350
57
  3
C8
350
58
  3
C9
350
59
  3
D0
350
5A
  3
D1
350
5B
  3
D2
350
5C
  0
DICTIONARY
  5
18A
102
{ACAD_REACTORS
330
C
102
}
330
C
100
AcDbDictionary
281
     1
  0
DICTIONARY
  5
2A
102
{ACAD_REACTORS
330
C
102
}
330
C
100
AcDbDictionary
281
     1
  3
2dWireframe
350
2F
  3
3D Hidden
350
31
  3
3dWireframe
350
30
  3
Basic
350
32
  3
Brighten
350
36
  3
ColorChange
350
3A
  3
Conceptual
350
34
  3
Dim
350
35
  3
Facepattern
350
39
  3
Flat
350
2B
  3
FlatWithEdges
350
2C
  3
Gouraud
350
2D
  3
GouraudWithEdges
350
2E
  3
Linepattern
350
38
  3
Realistic
350
33
  3
Thicken
350
37
  0
LAYOUT
  5
1E
102
{ACAD_REACTORS
330
1A
102
}
330
1A
100
AcDbPlotSettings
  1

  2
none_device
  4

  6

 40
0.0
 41
0.0
 42
0.0
 43
0.0
 44
0.0
 45
0.0
 46
0.0
 47
0.0
 48
0.0
 49
0.0
140
0.0
141
0.0
142
1.0
143
1.0
 70
   688
 72
     0
 73
     0
 74
     5
  7

 75
    16
 76
     0
 77
     2
 78
   300
147
1.0
148
0.0
149
0.0
100
AcDbLayout
  1
Layout1
 70
     1
 71
     1
 10
0.0
 20
0.0
 11
420.0
 21
297.0
 12
0.0
 22
0.0
 32
0.0
 14
1.000000000000000E+20
 24
1.000000000000000E+20
 34
1.000000000000000E+20
 15
-1.000000000000000E+20
 25
-1.000000000000000E+20
 35
-1.000000000000000E+20
146
0.0
 13
0.0
 23
0.0
 33
0.0
 16
1.0
 26
0.0
 36
0.0
 17
0.0
 27
1.0
 37
0.0
 76
     0
330
1B
  0
LAYOUT
  5
26
102
{ACAD_REACTORS
330
1A
102
}
330
1A
100
AcDbPlotSettings
  1

  2
none_device
  4

  6

 40
0.0
 41
0.0
 42
0.0
 43
0.0
 44
0.0
 45
0.0
 46
0.0
 47
0.0
 48
0.0
 49
0.0
140
0.0
141
0.0
142
1.0
143
1.0
 70
   688
 72
     0
 73
     0
 74
     5
  7

 75
    16
 76
     0
 77
     2
 78
   300
147
1.0
148
0.0
149
0.0
100
AcDbLayout
  1
Layout2
 70
     1
 71
     2
 10
0.0
 20
0.0
 11
0.0
 21
0.0
 12
0.0
 22
0.0
 32
0.0
 14
0.0
 24
0.0
 34
0.0
 15
0.0
 25
0.0
 35
0.0
146
0.0
 13
0.0
 23
0.0
 33
0.0
 16
1.0
 26
0.0
 36
0.0
 17
0.0
 27
1.0
 37
0.0
 76
     0
330
23
  0
LAYOUT
  5
22
102
{ACAD_REACTORS
330
1A
102
}
330
1A
100
AcDbPlotSettings
  1

  2
none_device
  4

  6

 40
0.0
 41
0.0
 42
0.0
 43
0.0
 44
0.0
 45
0.0
 46
0.0
 47
0.0
 48
0.0
 49
0.0
140
0.0
141
0.0
142
1.0
143
1.0
 70
  1712
 72
     0
 73
     0
 74
     0
  7

 75
     0
 76
     0
 77
     2
 78
   300
147
1.0
148
0.0
149
0.0
100
AcDbLayout
  1
Model
 70
     1
 71
     0
 10
0.0
 20
0.0
 11
420.0
 21
297.0
 12
0.0
 22
0.0
 32
0.0
 14
1.000000000000000E+20
 24
1.000000000000000E+20
 34
1.000000000000000E+20
 15
-1.000000000000000E+20
 25
-1.000000000000000E+20
 35
-1.000000000000000E+20
146
0.0
 13
0.0
 23
0.0
 33
0.0
 16
1.0
 26
0.0
 36
0.0
 17
0.0
 27
1.0
 37
0.0
 76
     0
330
1F
331
29
  0
MLINESTYLE
  5
18
102
{ACAD_REACTORS
330
17
102
}
330
17
100
AcDbMlineStyle
  2
Standard
 70
     0
  3

 62
   256
 51
90.0
 52
90.0
 71
     2
 49
0.5
 62
   256
  6
BYLAYER
 49
-0.5
 62
   256
  6
BYLAYER
  0
ACDBPLACEHOLDER
  5
F
102
{ACAD_REACTORS
330
E
102
}
330
E
  0
SCALE
  5
3C
102
{ACAD_REACTORS
330
3B
102
}
330
3B
100
AcDbScale
 70
     0
300
1:1
140
1.0
141
1.0
290
     1
  0
SCALE
  5
3D
102
{ACAD_REACTORS
330
3B
102
}
330
3B
100
AcDbScale
 70
     0
300
1:2
140
1.0
141
2.0
290
     0
  0
SCALE
  5
3E
102
{ACAD_REACTORS
330
3B
102
}
330
3B
100
AcDbScale
 70
     0
300
1:4
140
1.0
141
4.0
290
     0
  0
SCALE
  5
3F
102
{ACAD_REACTORS
330
3B
102
}
330
3B
100
AcDbScale
 70
     0
300
1:5
140
1.0
141
5.0
290
     0
  0
SCALE
  5
40
102
{ACAD_REACTORS
330
3B
102
}
330
3B
100
AcDbScale
 70
     0
300
1:8
140
1.0
141
8.0
290
     0
  0
SCALE
  5
41
102
{ACAD_REACTORS
330
3B
102
}
330
3B
100
AcDbScale
 70
     0
300
1:10
140
1.0
141
10.0
290
     0
  0
SCALE
  5
42
102
{ACAD_REACTORS
330
3B
102
}
330
3B
100
AcDbScale
 70
     0
300
1:16
140
1.0
141
16.0
290
     0
  0
SCALE
  5
43
102
{ACAD_REACTORS
330
3B
102
}
330
3B
100
AcDbScale
 70
     0
300
1:20
140
1.0
141
20.0
290
     0
  0
SCALE
  5
44
102
{ACAD_REACTORS
330
3B
102
}
330
3B
100
AcDbScale
 70
     0
300
1:30
140
1.0
141
30.0
290
     0
  0
SCALE
  5
45
102
{ACAD_REACTORS
330
3B
102
}
330
3B
100
AcDbScale
 70
     0
300
1:40
140
1.0
141
40.0
290
     0
  0
SCALE
  5
46
102
{ACAD_REACTORS
330
3B
102
}
330
3B
100
AcDbScale
 70
     0
300
1:50
140
1.0
141
50.0
290
     0
  0
SCALE
  5
47
102
{ACAD_REACTORS
330
3B
102
}
330
3B
100
AcDbScale
 70
     0
300
1:100
140
1.0
141
100.0
290
     0
  0
SCALE
  5
48
102
{ACAD_REACTORS
330
3B
102
}
330
3B
100
AcDbScale
 70
     0
300
2:1
140
2.0
141
1.0
290
     0
  0
SCALE
  5
49
102
{ACAD_REACTORS
330
3B
102
}
330
3B
100
AcDbScale
 70
     0
300
4:1
140
4.0
141
1.0
290
     0
  0
SCALE
  5
4A
102
{ACAD_REACTORS
330
3B
102
}
330
3B
100
AcDbScale
 70
     0
300
8:1
140
8.0
141
1.0
290
     0
  0
SCALE
  5
4B
102
{ACAD_REACTORS
330
3B
102
}
330
3B
100
AcDbScale
 70
     0
300
10:1
140
10.0
141
1.0
290
     0
  0
SCALE
  5
4C
102
{ACAD_REACTORS
330
3B
102
}
330
3B
100
AcDbScale
 70
     0
300
100:1
140
100.0
141
1.0
290
     0
  0
SCALE
  5
4D
102
{ACAD_REACTORS
330
3B
102
}
330
3B
100
AcDbScale
 70
     0
300
1/128" = 1'-0"
140
0.0078125
141
12.0
290
     0
  0
SCALE
  5
4E
102
{ACAD_REACTORS
330
3B
102
}
330
3B
100
AcDbScale
 70
     0
300
1/64" = 1'-0"
140
0.015625
141
12.0
290
     0
  0
SCALE
  5
4F
102
{ACAD_REACTORS
330
3B
102
}
330
3B
100
AcDbScale
 70
     0
300
1/32" = 1'-0"
140
0.03125
141
12.0
290
     0
  0
SCALE
  5
50
102
{ACAD_REACTORS
330
3B
102
}
330
3B
100
AcDbScale
 70
     0
300
1/16" = 1'-0"
140
0.0625
141
12.0
290
     0
  0
SCALE
  5
51
102
{ACAD_REACTORS
330
3B
102
}
330
3B
100
AcDbScale
 70
     0
300
3/32" = 1'-0"
140
0.09375
141
12.0
290
     0
  0
SCALE
  5
52
102
{ACAD_REACTORS
330
3B
102
}
330
3B
100
AcDbScale
 70
     0
300
1/8" = 1'-0"
140
0.125
141
12.0
290
     0
  0
SCALE
  5
53
102
{ACAD_REACTORS
330
3B
102
}
330
3B
100
AcDbScale
 70
     0
300
3/16" = 1'-0"
140
0.1875
141
12.0
290
     0
  0
SCALE
  5
54
102
{ACAD_REACTORS
330
3B
102
}
330
3B
100
AcDbScale
 70
     0
300
1/4" = 1'-0"
140
0.25
141
12.0
290
     0
  0
SCALE
  5
55
102
{ACAD_REACTORS
330
3B
102
}
330
3B
100
AcDbScale
 70
     0
300
3/8" = 1'-0"
140
0.375
141
12.0
290
     0
  0
SCALE
  5
56
102
{ACAD_REACTORS
330
3B
102
}
330
3B
100
AcDbScale
 70
     0
300
1/2" = 1'-0"
140
0.5
141
12.0
290
     0
  0
SCALE
  5
57
102
{ACAD_REACTORS
330
3B
102
}
330
3B
100
AcDbScale
 70
     0
300
3/4" = 1'-0"
140
0.75
141
12.0
290
     0
  0
SCALE
  5
58
102
{ACAD_REACTORS
330
3B
102
}
330
3B
100
AcDbScale
 70
     0
300
1" = 1'-0"
140
1.0
141
12.0
290
     0
  0
SCALE
  5
59
102
{ACAD_REACTORS
330
3B
102
}
330
3B
100
AcDbScale
 70
     0
300
1-1/2" = 1'-0"
140
1.5
141
12.0
290
     0
  0
SCALE
  5
5A
102
{ACAD_REACTORS
330
3B
102
}
330
3B
100
AcDbScale
 70
     0
300
3" = 1'-0"
140
3.0
141
12.0
290
     0
  0
SCALE
  5
5B
102
{ACAD_REACTORS
330
3B
102
}
330
3B
100
AcDbScale
 70
     0
300
6" = 1'-0"
140
6.0
141
12.0
290
     0
  0
SCALE
  5
5C
102
{ACAD_REACTORS
330
3B
102
}
330
3B
100
AcDbScale
 70
     0
300
1'-0" = 1'-0"
140
12.0
141
12.0
290
     0
  0
VISUALSTYLE
  5
2F
102
{ACAD_REACTORS
330
2A
102
}
330
2A
100
AcDbVisualStyle
  2
2dWireframe
 70
     4
 71
     0
 72
     2
 73
     0
 90
        0
 40
-0.6
 41
-30.0
 62
     5
 63
     7
421
 16777215
 74
     1
 91
        4
 64
     7
 65
   257
 75
     1
175
     1
 42
1.0
 92
        0
 66
   257
 43
1.0
 76
     1
 77
     6
 78
     2
 67
     7
 79
     5
170
     0
171
     0
290
     0
174
     0
 93
        1
 44
0.0
173
     0
291
     0
 45
0.0
  0
VISUALSTYLE
  5
31
102
{ACAD_REACTORS
330
2A
102
}
330
2A
100
AcDbVisualStyle
  2
3D Hidden
 70
     6
 71
     1
 72
     2
 73
     2
 90
        0
 40
-0.6
 41
-30.0
 62
     5
 63
     7
421
 16777215
 74
     2
 91
        2
 64
     7
 65
   257
 75
     2
175
     1
 42
40.0
 92
        0
 66
   257
 43
1.0
 76
     1
 77
     6
 78
     2
 67
     7
 79
     3
170
     0
171
     0
290
     0
174
     0
 93
        1
 44
0.0
173
     0
291
     0
 45
0.0
  0
VISUALSTYLE
  5
30
102
{ACAD_REACTORS
330
2A
102
}
330
2A
100
AcDbVisualStyle
  2
3dWireframe
 70
     5
 71
     0
 72
     2
 73
     0
 90
        0
 40
-0.6
 41
-30.0
 62
     5
 63
     7
421
 16777215
 74
     1
 91
        4
 64
     7
 65
   257
 75
     1
175
     1
 42
1.0
 92
        0
 66
   257
 43
1.0
 76
     1
 77
     6
 78
     2
 67
     7
 79
     5
170
     0
171
     0
290
     0
174
     0
 93
        1
 44
0.0
173
     0
291
     0
 45
0.0
  0
VISUALSTYLE
  5
32
102
{ACAD_REACTORS
330
2A
102
}
330
2A
100
AcDbVisualStyle
  2
Basic
 70
     7
 71
     1
 72
     0
 73
     1
 90
        0
 40
-0.6
 41
-30.0
 62
     5
 63
     7
421
 16777215
 74
     0
 91
        4
 64
     7
 65
   257
 75
     1
175
     1
 42
1.0
 92
        8
 66
     7
 43
1.0
 76
     1
 77
     6
 78
     2
 67
     7
 79
     5
170
     0
171
     0
290
     0
174
     0
 93
        1
 44
0.0
173
     0
291
     1
 45
0.0
  0
VISUALSTYLE
  5
36
102
{ACAD_REACTORS
330
2A
102
}
330
2A
100
AcDbVisualStyle
  2
Brighten
 70
    12
 71
     2
 72
     2
 73
     0
 90
        0
 40
-0.6
 41
-30.0
 62
     5
 63
     7
421
 16777215
 74
     1
 91
        4
 64
     7
 65
   257
 75
     1
175
     1
 42
1.0
 92
        8
 66
     7
 43
1.0
 76
     1
 77
     6
 78
     2
 67
     7
 79
     5
170
     0
171
     0
290
     0
174
     0
 93
        1
 44
50.0
173
     0
291
     1
 45
0.0
  0
VISUALSTYLE
  5
3A
102
{ACAD_REACTORS
330
2A
102
}
330
2A
100
AcDbVisualStyle
  2
ColorChange
 70
    16
 71
     2
 72
     2
 73
     3
 90
        0
 40
-0.6
 41
-30.0
 62
     5
 63
     8
421
  8421504
 74
     1
 91
        4
 64
     7
 65
   257
 75
     1
175
     1
 42
1.0
 92
        8
 66
     8
424
  8421504
 43
1.0
 76
     1
 77
     6
 78
     2
 67
     7
 79
     5
170
     0
171
     0
290
     0
174
     0
 93
        1
 44
0.0
173
     0
291
     1
 45
0.0
  0
VISUALSTYLE
  5
34
102
{ACAD_REACTORS
330
2A
102
}
330
2A
100
AcDbVisualStyle
  2
Conceptual
 70
     9
 71
     3
 72
     2
 73
     0
 90
        0
 40
-0.6
 41
-30.0
 62
     5
 63
     7
421
 16777215
 74
     2
 91
        2
 64
     7
 65
   257
 75
     1
175
     1
 42
40.0
 92
        8
 66
     7
 43
1.0
 76
     1
 77
     6
 78
     2
 67
     7
 79
     3
170
     0
171
     0
290
     0
174
     0
 93
        1
 44
0.0
173
     0
291
     0
 45
0.0
  0
VISUALSTYLE
  5
35
102
{ACAD_REACTORS
330
2A
102
}
330
2A
100
AcDbVisualStyle
  2
Dim
 70
    11
 71
     2
 72
     2
 73
     0
 90
        0
 40
-0.6
 41
-30.0
 62
     5
 63
     7
421
 16777215
 74
     1
 91
        4
 64
     7
 65
   257
 75
     1
175
     1
 42
1.0
 92
        8
 66
     7
 43
1.0
 76
     1
 77
     6
 78
     2
 67
     7
 79
     5
170
     0
171
     0
290
     0
174
     0
 93
        1
 44
-50.0
173
     0
291
     1
 45
0.0
  0
VISUALSTYLE
  5
39
102
{ACAD_REACTORS
330
2A
102
}
330
2A
100
AcDbVisualStyle
  2
Facepattern
 70
    15
 71
     2
 72
     2
 73
     0
 90
        0
 40
-0.6
 41
-30.0
 62
     5
 63
     7
421
 16777215
 74
     1
 91
        4
 64
     7
 65
   257
 75
     1
175
     1
 42
1.0
 92
        8
 66
     7
 43
1.0
 76
     1
 77
     6
 78
     2
 67
     7
 79
     5
170
     0
171
     0
290
     0
174
     0
 93
        1
 44
0.0
173
     0
291
     1
 45
0.0
  0
VISUALSTYLE
  5
2B
102
{ACAD_REACTORS
330
2A
102
}
330
2A
100
AcDbVisualStyle
  2
Flat
 70
     0
 71
     2
 72
     1
 73
     1
 90
        2
 40
-0.6
 41
30.0
 62
     5
 63
     7
421
 16777215
 74
     0
 91
        4
 64
     7
 65
   257
 75
     1
175
     1
 42
1.0
 92
        8
 66
     7
 43
1.0
 76
     1
 77
     6
 78
     2
 67
     7
 79
     5
170
     0
171
     0
290
     0
174
     0
 93
       13
 44
0.0
173
     0
291
     1
 45
0.0
  0
VISUALSTYLE
  5
2C
102
{ACAD_REACTORS
330
2A
102
}
330
2A
100
AcDbVisualStyle
  2
FlatWithEdges
 70
     1
 71
     2
 72
     1
 73
     1
 90
        2
 40
-0.6
 41
30.0
 62
     5
 63
     7
421
 16777215
 74
     1
 91
        4
 64
     7
 65
   257
 75
     1
175
     1
 42
1.0
 92
        0
 66
   257
 43
1.0
 76
     1
 77
     6
 78
     2
 67
     7
 79
     5
170
     0
171
     0
290
     0
174
     0
 93
       13
 44
0.0
173
     0
291
     1
 45
0.0
  0
VISUALSTYLE
  5
2D
102
{ACAD_REACTORS
330
2A
102
}
330
2A
100
AcDbVisualStyle
  2
Gouraud
 70
     2
 71
     2
 72
     2
 73
     1
 90
        2
 40
-0.6
 41
30.0
 62
     5
 63
     7
421
 16777215
 74
     0
 91
        4
 64
     7
 65
   257
 75
     1
175
     1
 42
1.0
 92
        0
 66
     7
 43
1.0
 76
     1
 77
     6
 78
     2
 67
     7
 79
     5
170
     0
171
     0
290
     0
174
     0
 93
       13
 44
0.0
173
     0
291
     1
 45
0.0
  0
VISUALSTYLE
  5
2E
102
{ACAD_REACTORS
330
2A
102
}
330
2A
100
AcDbVisualStyle
  2
GouraudWithEdges
 70
     3
 71
     2
 72
     2
 73
     1
 90
        2
 40
-0.6
 41
30.0
 62
     5
 63
     7
421
 16777215
 74
     1
 91
        4
 64
     7
 65
   257
 75
     1
175
     1
 42
1.0
 92
        0
 66
   257
 43
1.0
 76
     1
 77
     6
 78
     2
 67
     7
 79
     5
170
     0
171
     0
290
     0
174
     0
 93
       13
 44
0.0
173
     0
291
     1
 45
0.0
  0
VISUALSTYLE
  5
38
102
{ACAD_REACTORS
330
2A
102
}
330
2A
100
AcDbVisualStyle
  2
Linepattern
 70
    14
 71
     2
 72
     2
 73
     0
 90
        0
 40
-0.6
 41
-30.0
 62
     5
 63
     7
421
 16777215
 74
     1
 91
        4
 64
     7
 65
   257
 75
     7
175
     7
 42
1.0
 92
        8
 66
     7
 43
1.0
 76
     1
 77
     6
 78
     2
 67
     7
 79
     5
170
     0
171
     0
290
     0
174
     0
 93
        1
 44
0.0
173
     0
291
     1
 45
0.0
  0
VISUALSTYLE
  5
33
102
{ACAD_REACTORS
330
2A
102
}
330
2A
100
AcDbVisualStyle
  2
Realistic
 70
     8
 71
     2
 72
     2
 73
     0
 90
        0
 40
-0.6
 41
-30.0
 62
     5
 63
     7
421
 16777215
 74
     1
 91
        0
 64
     7
 65
   257
 75
     1
175
     1
 42
1.0
 92
        8
 66
     8
424
  7895160
 43
1.0
 76
     1
 77
     6
 78
     2
 67
     7
 79
     5
170
     0
171
     0
290
     0
174
     0
 93
       13
 44
0.0
173
     0
291
     0
 45
0.0
  0
VISUALSTYLE
  5
37
102
{ACAD_REACTORS
330
2A
102
}
330
2A
100
AcDbVisualStyle
  2
Thicken
 70
    13
 71
     2
 72
     2
 73
     0
 90
        0
 40
-0.6
 41
-30.0
 62
     5
 63
     7
421
 16777215
 74
     1
 91
        4
 64
     7
 65
   257
 75
     1
175
     1
 42
1.0
 92
       12
 66
     7
 43
1.0
 76
     1
 77
     6
 78
     2
 67
     7
 79
     5
170
     0
171
     0
290
     0
174
     0
 93
        1
 44
0.0
173
     0
291
     1
 45
0.0
  0
ENDSEC
  0
EOF
