  0
SECTION
  2
HEADER
  9
$ACADVER
  1
AC1015
  9
$ACADMAINTVER
 70
     6
  9
$DWGCODEPAGE
  3
ANSI_1252
  9
$INSBASE
 10
0.0
 20
0.0
 30
0.0
  9
$EXTMIN
 10
1.000000000000000E+20
 20
1.000000000000000E+20
 30
1.000000000000000E+20
  9
$EXTMAX
 10
-1.000000000000000E+20
 20
-1.000000000000000E+20
 30
-1.000000000000000E+20
  9
$LIMMIN
 10
0.0
 20
0.0
  9
$LIMMAX
 10
420.0
 20
297.0
  9
$ORTHOMODE
 70
     0
  9
$REGENMODE
 70
     1
  9
$FILLMODE
 70
     1
  9
$QTEXTMODE
 70
     0
  9
$MIRRTEXT
 70
     1
  9
$LTSCALE
 40
1.0
  9
$ATTMODE
 70
     1
  9
$TEXTSIZE
 40
2.5
  9
$TRACEWID
 40
1.0
  9
$TEXTSTYLE
  7
Standard
  9
$CLAYER
  8
0
  9
$CELTYPE
  6
ByLayer
  9
$CECOLOR
 62
   256
  9
$CELTSCALE
 40
1.0
  9
$DISPSILH
 70
     0
  9
$DIMSCALE
 40
1.0
  9
$DIMASZ
 40
3.0
  9
$DIMEXO
 40
0.625
  9
$DIMDLI
 40
3.75
  9
$DIMRND
 40
0.0
  9
$DIMDLE
 40
0.0
  9
$DIMEXE
 40
1.25
  9
$DIMTP
 40
0.0
  9
$DIMTM
 40
0.0
  9
$DIMTXT
 40
2.085798611111111
  9
$DIMCEN
 40
2.5
  9
$DIMTSZ
 40
0.0
  9
$DIMTOL
 70
     0
  9
$DIMLIM
 70
     0
  9
$DIMTIH
 70
     0
  9
$DIMTOH
 70
     0
  9
$DIMSE1
 70
     0
  9
$DIMSE2
 70
     0
  9
$DIMTAD
 70
     1
  9
$DIMZIN
 70
     8
  9
$DIMBLK
  1

  9
$DIMASO
 70
     1
  9
$DIMSHO
 70
     1
  9
$DIMPOST
  1

  9
$DIMAPOST
  1

  9
$DIMALT
 70
     0
  9
$DIMALTD
 70
     3
  9
$DIMALTF
 40
0.03937007874016
  9
$DIMLFAC
 40
1.0
  9
$DIMTOFL
 70
     1
  9
$DIMTVP
 40
0.0
  9
$DIMTIX
 70
     0
  9
$DIMSOXD
 70
     0
  9
$DIMSAH
 70
     0
  9
$DIMBLK1
  1

  9
$DIMBLK2
  1

  9
$DIMSTYLE
  2
ISO-25
  9
$DIMCLRD
 70
     0
  9
$DIMCLRE
 70
     0
  9
$DIMCLRT
 70
     0
  9
$DIMTFAC
 40
1.0
  9
$DIMGAP
 40
0.625
  9
$DIMJUST
 70
     0
  9
$DIMSD1
 70
     0
  9
$DIMSD2
 70
     0
  9
$DIMTOLJ
 70
     0
  9
$DIMTZIN
 70
     8
  9
$DIMALTZ
 70
     0
  9
$DIMALTTZ
 70
     0
  9
$DIMUPT
 70
     0
  9
$DIMDEC
 70
     2
  9
$DIMTDEC
 70
     2
  9
$DIMALTU
 70
     2
  9
$DIMALTTD
 70
     3
  9
$DIMTXSTY
  7
Standard
  9
$DIMAUNIT
 70
     0
  9
$DIMADEC
 70
     0
  9
$DIMALTRND
 40
0.0
  9
$DIMAZIN
 70
     0
  9
$DIMDSEP
 70
    44
  9
$DIMATFIT
 70
     3
  9
$DIMFRAC
 70
     0
  9
$DIMLDRBLK
  1

  9
$DIMLUNIT
 70
     2
  9
$DIMLWD
 70
    -2
  9
$DIMLWE
 70
    -2
  9
$DIMTMOVE
 70
     0
  9
$LUNITS
 70
     2
  9
$LUPREC
 70
     4
  9
$SKETCHINC
 40
1.0
  9
$FILLETRAD
 40
10.0
  9
$AUNITS
 70
     0
  9
$AUPREC
 70
     0
  9
$MENU
  1
.
  9
$ELEVATION
 40
0.0
  9
$PELEVATION
 40
0.0
  9
$THICKNESS
 40
0.0
  9
$LIMCHECK
 70
     0
  9
$CHAMFERA
 40
10.0
  9
$CHAMFERB
 40
10.0
  9
$CHAMFERC
 40
20.0
  9
$CHAMFERD
 40
0.0
  9
$SKPOLY
 70
     0
  9
$TDCREATE
 40
2455833.49415522
  9
$TDUCREATE
 40
2455833.452488553
  9
$TDUPDATE
 40
2455833.494155231
  9
$TDUUPDATE
 40
2455833.452488565
  9
$TDINDWG
 40
0.0000000116
  9
$TDUSRTIMER
 40
0.0000000116
  9
$USRTIMER
 70
     1
  9
$ANGBASE
 50
0.0
  9
$ANGDIR
 70
     0
  9
$PDMODE
 70
     0
  9
$PDSIZE
 40
0.0
  9
$PLINEWID
 40
0.0
  9
$SPLFRAME
 70
     0
  9
$SPLINETYPE
 70
     6
  9
$SPLINESEGS
 70
     8
  9
$HANDSEED
  5
11F
  9
$SURFTAB1
 70
     6
  9
$SURFTAB2
 70
     6
  9
$SURFTYPE
 70
     6
  9
$SURFU
 70
     6
  9
$SURFV
 70
     6
  9
$UCSBASE
  2

  9
$UCSNAME
  2

  9
$UCSORG
 10
0.0
 20
0.0
 30
0.0
  9
$UCSXDIR
 10
1.0
 20
0.0
 30
0.0
  9
$UCSYDIR
 10
0.0
 20
1.0
 30
0.0
  9
$UCSORTHOREF
  2

  9
$UCSORTHOVIEW
 70
     0
  9
$UCSORGTOP
 10
0.0
 20
0.0
 30
0.0
  9
$UCSORGBOTTOM
 10
0.0
 20
0.0
 30
0.0
  9
$UCSORGLEFT
 10
0.0
 20
0.0
 30
0.0
  9
$UCSORGRIGHT
 10
0.0
 20
0.0
 30
0.0
  9
$UCSORGFRONT
 10
0.0
 20
0.0
 30
0.0
  9
$UCSORGBACK
 10
0.0
 20
0.0
 30
0.0
  9
$PUCSBASE
  2

  9
$PUCSNAME
  2

  9
$PUCSORG
 10
0.0
 20
0.0
 30
0.0
  9
$PUCSXDIR
 10
1.0
 20
0.0
 30
0.0
  9
$PUCSYDIR
 10
0.0
 20
1.0
 30
0.0
  9
$PUCSORTHOREF
  2

  9
$PUCSORTHOVIEW
 70
     0
  9
$PUCSORGTOP
 10
0.0
 20
0.0
 30
0.0
  9
$PUCSORGBOTTOM
 10
0.0
 20
0.0
 30
0.0
  9
$PUCSORGLEFT
 10
0.0
 20
0.0
 30
0.0
  9
$PUCSORGRIGHT
 10
0.0
 20
0.0
 30
0.0
  9
$PUCSORGFRONT
 10
0.0
 20
0.0
 30
0.0
  9
$PUCSORGBACK
 10
0.0
 20
0.0
 30
0.0
  9
$USERI1
 70
     0
  9
$USERI2
 70
     0
  9
$USERI3
 70
     0
  9
$USERI4
 70
     0
  9
$USERI5
 70
     0
  9
$USERR1
 40
0.0
  9
$USERR2
 40
0.0
  9
$USERR3
 40
0.0
  9
$USERR4
 40
0.0
  9
$USERR5
 40
0.0
  9
$WORLDVIEW
 70
     1
  9
$SHADEDGE
 70
     3
  9
$SHADEDIF
 70
    70
  9
$TILEMODE
 70
     1
  9
$MAXACTVP
 70
    64
  9
$PINSBASE
 10
0.0
 20
0.0
 30
0.0
  9
$PLIMCHECK
 70
     0
  9
$PEXTMIN
 10
1.000000000000000E+20
 20
1.000000000000000E+20
 30
1.000000000000000E+20
  9
$PEXTMAX
 10
-1.000000000000000E+20
 20
-1.000000000000000E+20
 30
-1.000000000000000E+20
  9
$PLIMMIN
 10
0.0
 20
0.0
  9
$PLIMMAX
 10
420.0
 20
297.0
  9
$UNITMODE
 70
     0
  9
$VISRETAIN
 70
     1
  9
$PLINEGEN
 70
     0
  9
$PSLTSCALE
 70
     1
  9
$TREEDEPTH
 70
  3020
  9
$CMLSTYLE
  2
Standard
  9
$CMLJUST
 70
     0
  9
$CMLSCALE
 40
20.0
  9
$PROXYGRAPHICS
 70
     1
  9
$MEASUREMENT
 70
     1
  9
$CELWEIGHT
370
    -1
  9
$ENDCAPS
280
     0
  9
$JOINSTYLE
280
     0
  9
$LWDISPLAY
290
     0
  9
$INSUNITS
 70
     4
  9
$HYPERLINKBASE
  1

  9
$STYLESHEET
  1

  9
$XEDIT
290
     1
  9
$CEPSNTYPE
380
     0
  9
$PSTYLEMODE
290
     1
  9
$FINGERPRINTGUID
  2
{88A53F33-63ED-48E9-902D-4D438CEC29B1}
  9
$VERSIONGUID
  2
{FAEB1C32-E019-11D5-929B-00C0DF256EC4}
  9
$EXTNAMES
290
     1
  9
$PSVPSCALE
 40
0.0
  9
$OLESTARTUP
290
     0
  0
ENDSEC
  0
SECTION
  2
CLASSES
  0
CLASS
  1
ACDBDICTIONARYWDFLT
  2
AcDbDictionaryWithDefault
  3
ObjectDBX Classes
 90
        0
280
     0
281
     0
  0
CLASS
  1
VISUALSTYLE
  2
AcDbVisualStyle
  3
ObjectDBX Classes
 90
     4095
280
     0
281
     0
  0
CLASS
  1
SCALE
  2
AcDbScale
  3
ObjectDBX Classes
 90
     1153
280
     0
281
     0
  0
CLASS
  1
DICTIONARYVAR
  2
AcDbDictionaryVar
  3
ObjectDBX Classes
 90
        0
280
     0
281
     0
  0
CLASS
  1
ACDBPLACEHOLDER
  2
AcDbPlaceHolder
  3
ObjectDBX Classes
 90
        0
280
     0
281
     0
  0
CLASS
  1
LAYOUT
  2
AcDbLayout
  3
ObjectDBX Classes
 90
        0
280
     0
281
     0
  0
ENDSEC
  0
SECTION
  2
TABLES
  0
TABLE
  2
VPORT
  5
8
330
0
100
AcDbSymbolTable
 70
     1
  0
VPORT
  5
29
330
8
100
AcDbSymbolTableRecord
100
AcDbViewportTableRecord
  2
*Active
 70
     0
 10
0.0
 20
0.0
 11
1.0
 21
1.0
 12
344.1869158878504
 22
148.5
 13
0.0
 23
0.0
 14
10.0
 24
10.0
 15
10.0
 25
10.0
 16
0.0
 26
0.0
 36
1.0
 17
0.0
 27
0.0
 37
0.0
 40
297.0
 41
1.972972972850329
 42
50.0
 43
0.0
 44
0.0
 50
0.0
 51
0.0
 71
     0
 72
   100
 73
     1
 74
     3
 75
     0
 76
     0
 77
     0
 78
     0
281
     0
 65
     1
110
0.0
120
0.0
130
0.0
111
1.0
121
0.0
131
0.0
112
0.0
122
1.0
132
0.0
 79
     0
146
0.0
  0
ENDTAB
  0
TABLE
  2
LTYPE
  5
5
330
0
100
AcDbSymbolTable
 70
     1
  0
LTYPE
  5
14
330
5
100
AcDbSymbolTableRecord
100
AcDbLinetypeTableRecord
  2
ByBlock
 70
     0
  3

 72
    65
 73
     0
 40
0.0
  0
LTYPE
  5
15
330
5
100
AcDbSymbolTableRecord
100
AcDbLinetypeTableRecord
  2
ByLayer
 70
     0
  3

 72
    65
 73
     0
 40
0.0
  0
LTYPE
  5
16
330
5
100
AcDbSymbolTableRecord
100
AcDbLinetypeTableRecord
  2
Continuous
 70
     0
  3
Solid line
 72
    65
 73
     0
 40
0.0
  0
ENDTAB
  0
TABLE
  2
LAYER
  5
2
330
0
100
AcDbSymbolTable
 70
     3
  0
LAYER
  5
10
330
2
100
AcDbSymbolTableRecord
100
AcDbLayerTableRecord
  2
0
 70
     0
 62
     7
  6
Continuous
370
    -3
390
F
  0
LAYER
  5
5D
330
2
100
AcDbSymbolTableRecord
100
AcDbLayerTableRecord
  2
VISIBLE
 70
     0
 62
     7
  6
Continuous
370
     0
390
F
  0
LAYER
  5
68
330
2
100
AcDbSymbolTableRecord
100
AcDbLayerTableRecord
  2
DIMENSIONS
 70
     0
 62
     7
  6
Continuous
370
     0
390
F
  0
ENDTAB
  0
TABLE
  2
STYLE
  5
3
330
0
100
AcDbSymbolTable
 70
     1
  0
STYLE
  5
11
330
3
100
AcDbSymbolTableRecord
100
AcDbTextStyleTableRecord
  2
Standard
 70
     0
 40
0.125
 41
1.0
 50
0.0
 71
     0
 42
2.5
  3
txt
  4

1001
ACAD
1000
Arial
1071
        0
  0
ENDTAB
  0
TABLE
  2
VIEW
  5
6
330
0
100
AcDbSymbolTable
 70
     0
  0
ENDTAB
  0
TABLE
  2
UCS
  5
7
330
0
100
AcDbSymbolTable
 70
     0
  0
ENDTAB
  0
TABLE
  2
APPID
  5
9
330
0
100
AcDbSymbolTable
 70
     1
  0
APPID
  5
12
330
9
100
AcDbSymbolTableRecord
100
AcDbRegAppTableRecord
  2
ACAD
 70
     0
  0
ENDTAB
  0
TABLE
  2
DIMSTYLE
  5
A
330
0
100
AcDbSymbolTable
 70
     1
100
AcDbDimStyleTable
  0
DIMSTYLE
105
27
102
{ACAD_REACTORS
330
69
330
76
330
83
330
90
330
9D
330
AB
330
B8
330
C5
330
D2
330
E3
330
F1
102
}
330
A
100
AcDbSymbolTableRecord
100
AcDbDimStyleTableRecord
  2
ISO-25
 70
     0
 41
2.5
 42
0.625
 43
3.75
 44
1.25
 73
     0
 74
     0
 77
     1
 78
     8
140
2.5
141
2.5
143
0.03937007874016
147
0.625
171
     3
172
     1
271
     2
272
     2
274
     3
278
    44
283
     0
284
     8
340
11
  0
ENDTAB
  0
TABLE
  2
BLOCK_RECORD
  5
1
330
0
100
AcDbSymbolTable
 70
    12
  0
BLOCK_RECORD
  5
1F
330
1
100
AcDbSymbolTableRecord
100
AcDbBlockTableRecord
  2
*Model_Space
340
22
  0
BLOCK_RECORD
  5
1B
330
1
100
AcDbSymbolTableRecord
100
AcDbBlockTableRecord
  2
*Paper_Space
340
1E
  0
BLOCK_RECORD
  5
23
330
1
100
AcDbSymbolTableRecord
100
AcDbBlockTableRecord
  2
*Paper_Space0
340
26
  0
BLOCK_RECORD
  5
6A
330
1
100
AcDbSymbolTableRecord
100
AcDbBlockTableRecord
  2
D1
340
0
  0
BLOCK_RECORD
  5
77
330
1
100
AcDbSymbolTableRecord
100
AcDbBlockTableRecord
  2
D2
340
0
  0
BLOCK_RECORD
  5
84
330
1
100
AcDbSymbolTableRecord
100
AcDbBlockTableRecord
  2
D3
340
0
  0
BLOCK_RECORD
  5
91
330
1
100
AcDbSymbolTableRecord
100
AcDbBlockTableRecord
  2
D4
340
0
  0
BLOCK_RECORD
  5
9E
330
1
100
AcDbSymbolTableRecord
100
AcDbBlockTableRecord
  2
D5
340
0
  0
BLOCK_RECORD
  5
AC
330
1
100
AcDbSymbolTableRecord
100
AcDbBlockTableRecord
  2
D6
340
0
  0
BLOCK_RECORD
  5
B9
330
1
100
AcDbSymbolTableRecord
100
AcDbBlockTableRecord
  2
D7
340
0
  0
BLOCK_RECORD
  5
C6
330
1
100
AcDbSymbolTableRecord
100
AcDbBlockTableRecord
  2
D8
340
0
  0
BLOCK_RECORD
  5
D3
330
1
100
AcDbSymbolTableRecord
100
AcDbBlockTableRecord
  2
D9
340
0
  0
BLOCK_RECORD
  5
E4
330
1
100
AcDbSymbolTableRecord
100
AcDbBlockTableRecord
  2
D10
340
0
  0
BLOCK_RECORD
  5
F2
330
1
100
AcDbSymbolTableRecord
100
AcDbBlockTableRecord
  2
D11
340
0
  0
ENDTAB
  0
ENDSEC
  0
SECTION
  2
BLOCKS
  0
BLOCK
  5
20
330
1F
100
AcDbEntity
  8
0
100
AcDbBlockBegin
  2
*Model_Space
 70
     0
 10
0.0
 20
0.0
 30
0.0
  3
*Model_Space
  1

  0
ENDBLK
  5
21
330
1F
100
AcDbEntity
  8
0
100
AcDbBlockEnd
  0
BLOCK
  5
1C
330
1B
100
AcDbEntity
 67
     1
  8
0
100
AcDbBlockBegin
  2
*Paper_Space
 70
     0
 10
0.0
 20
0.0
 30
0.0
  3
*Paper_Space
  1

  0
ENDBLK
  5
1D
330
1B
100
AcDbEntity
 67
     1
  8
0
100
AcDbBlockEnd
  0
BLOCK
  5
24
330
23
100
AcDbEntity
  8
0
100
AcDbBlockBegin
  2
*Paper_Space0
 70
     0
 10
0.0
 20
0.0
 30
0.0
  3
*Paper_Space0
  1

  0
ENDBLK
  5
25
330
23
100
AcDbEntity
  8
0
100
AcDbBlockEnd
  0
BLOCK
  5
6B
330
6A
100
AcDbEntity
  8
0
100
AcDbBlockBegin
  2
D1
 70
     0
 10
0.0
 20
0.0
 30
0.0
  3
D1
  1

  0
MTEXT
  5
6D
330
6A
100
AcDbEntity
  8
DIMENSIONS
100
AcDbMText
 10
92.5300674438477
 20
151.0899505615238
 30
0.0
 40
2.275416666666667
 41
0.0
 71
     5
 72
     1
  1
{\fArial|b0|i0|c0|p0;76}{\fArial|b0|i0|c0|p0;}
 73
     1
 44
1.0
  0
MTEXT
  5
6E
330
6A
100
AcDbEntity
  8
DIMENSIONS
100
AcDbMText
 10
92.5300674438477
 20
151.0899505615238
 30
0.0
 40
2.275416666666667
 41
0.0
 71
     5
 72
     1
  1
{\fArial|b0|i0|c0|p0;}
 73
     1
 44
1.0
  0
MTEXT
  5
6F
330
6A
100
AcDbEntity
  8
DIMENSIONS
100
AcDbMText
 10
92.5300674438477
 20
151.0899505615238
 30
0.0
 40
2.275416666666667
 41
0.0
 71
     5
 72
     1
  1
{\fArial|b0|i0|c0|p0;}
 73
     1
 44
1.0
  0
LINE
  5
70
330
6A
100
AcDbEntity
  8
DIMENSIONS
100
AcDbLine
 10
130.5300674438477
 20
155.287921905518
 30
0.0
 11
130.5300674438477
 21
149.0899505615238
 31
0.0
  0
LINE
  5
71
330
6A
100
AcDbEntity
  8
DIMENSIONS
100
AcDbLine
 10
54.5300674438477
 20
155.287921905518
 30
0.0
 11
54.5300674438477
 21
149.0899505615238
 31
0.0
  0
LWPOLYLINE
  5
72
330
6A
100
AcDbEntity
  8
DIMENSIONS
100
AcDbPolyline
 90
        4
 70
     0
 43
0.0
 10
130.5300674438477
 20
151.0899505615238
 10
127.5300674438477
 20
150.5899505615238
 10
127.5300674438477
 20
151.5899505615238
 10
130.5300674438477
 20
151.0899505615238
  0
LINE
  5
73
330
6A
100
AcDbEntity
  8
DIMENSIONS
100
AcDbLine
 10
127.5300674438477
 20
151.0899505615238
 30
0.0
 11
96.11756706237797
 21
151.0899503231053
 31
0.0
  0
LWPOLYLINE
  5
74
330
6A
100
AcDbEntity
  8
DIMENSIONS
100
AcDbPolyline
 90
        4
 70
     0
 43
0.0
 10
54.5300674438477
 20
151.0899505615238
 10
57.5300674438477
 20
151.5899505615238
 10
57.5300674438477
 20
150.5899505615238
 10
54.5300674438477
 20
151.0899505615238
  0
LINE
  5
75
330
6A
100
AcDbEntity
  8
DIMENSIONS
100
AcDbLine
 10
57.5300674438477
 20
151.0899505615238
 30
0.0
 11
88.94256711006169
 21
151.0899503231053
 31
0.0
  0
ENDBLK
  5
6C
330
6A
100
AcDbEntity
  8
0
100
AcDbBlockEnd
  0
BLOCK
  5
78
330
77
100
AcDbEntity
  8
0
100
AcDbBlockBegin
  2
D2
 70
     0
 10
0.0
 20
0.0
 30
0.0
  3
D2
  1

  0
MTEXT
  5
7A
330
77
100
AcDbEntity
  8
DIMENSIONS
100
AcDbMText
 10
144.2893371582032
 20
166.037921905518
 30
0.0
 40
2.275416666666667
 41
0.0
 71
     5
 72
     1
  1
{\fArial|b0|i0|c0|p0;17.5}{\fArial|b0|i0|c0|p0;}
 73
     1
 44
1.0
  0
MTEXT
  5
7B
330
77
100
AcDbEntity
  8
DIMENSIONS
100
AcDbMText
 10
144.2893371582032
 20
166.037921905518
 30
0.0
 40
2.275416666666667
 41
0.0
 71
     5
 72
     1
  1
{\fArial|b0|i0|c0|p0;}
 73
     1
 44
1.0
  0
MTEXT
  5
7C
330
77
100
AcDbEntity
  8
DIMENSIONS
100
AcDbMText
 10
144.2893371582032
 20
166.037921905518
 30
0.0
 40
2.275416666666667
 41
0.0
 71
     5
 72
     1
  1
{\fArial|b0|i0|c0|p0;}
 73
     1
 44
1.0
  0
LINE
  5
7D
330
77
100
AcDbEntity
  8
DIMENSIONS
100
AcDbLine
 10
132.5300674438477
 20
174.787921905518
 30
0.0
 11
146.2893371582032
 21
174.787921905518
 31
0.0
  0
LINE
  5
7E
330
77
100
AcDbEntity
  8
DIMENSIONS
100
AcDbLine
 10
132.5300674438477
 20
157.287921905518
 30
0.0
 11
146.2893371582032
 21
157.287921905518
 31
0.0
  0
LWPOLYLINE
  5
7F
330
77
100
AcDbEntity
  8
DIMENSIONS
100
AcDbPolyline
 90
        4
 70
     0
 43
0.0
 10
144.2893371582032
 20
174.787921905518
 10
144.7893371582032
 20
171.787921905518
 10
143.7893371582032
 20
171.787921905518
 10
144.2893371582032
 20
174.787921905518
  0
LINE
  5
80
330
77
100
AcDbEntity
  8
DIMENSIONS
100
AcDbLine
 10
144.2893371582032
 20
171.787921905518
 30
0.0
 11
144.2893381118775
 21
169.6254218518738
 31
0.0
  0
LWPOLYLINE
  5
81
330
77
100
AcDbEntity
  8
DIMENSIONS
100
AcDbPolyline
 90
        4
 70
     0
 43
0.0
 10
144.2893371582032
 20
157.287921905518
 10
143.7893371582032
 20
160.287921905518
 10
144.7893371582032
 20
160.287921905518
 10
144.2893371582032
 20
157.287921905518
  0
LINE
  5
82
330
77
100
AcDbEntity
  8
DIMENSIONS
100
AcDbLine
 10
144.2893371582032
 20
160.287921905518
 30
0.0
 11
144.2893381118775
 21
162.4504218995575
 31
0.0
  0
ENDBLK
  5
79
330
77
100
AcDbEntity
  8
0
100
AcDbBlockEnd
  0
BLOCK
  5
85
330
84
100
AcDbEntity
  8
0
100
AcDbBlockBegin
  2
D3
 70
     0
 10
0.0
 20
0.0
 30
0.0
  3
D3
  1

  0
MTEXT
  5
87
330
84
100
AcDbEntity
  8
DIMENSIONS
100
AcDbMText
 10
66.29181671142584
 20
171.6786193847661
 30
0.0
 40
2.275416666666667
 41
0.0
 71
     5
 72
     1
  1
{\fAlibre Symbols|b0|i0|c0|p0;n}{\fArial|b0|i0|c0|p0;5}{\fMS Shell Dlg|b0|i0|c0|p0;\H0.9444444x;}
 73
     1
 44
1.0
  0
MTEXT
  5
88
330
84
100
AcDbEntity
  8
DIMENSIONS
100
AcDbMText
 10
66.29181671142584
 20
171.6786193847661
 30
0.0
 40
2.275416666666667
 41
0.0
 71
     5
 72
     1
  1
{\fArial|b0|i0|c0|p0;}
 73
     1
 44
1.0
  0
MTEXT
  5
89
330
84
100
AcDbEntity
  8
DIMENSIONS
100
AcDbMText
 10
66.29181671142584
 20
171.6786193847661
 30
0.0
 40
2.275416666666667
 41
0.0
 71
     5
 72
     1
  1
{\fArial|b0|i0|c0|p0;}
 73
     1
 44
1.0
  0
LINE
  5
8A
330
84
100
AcDbEntity
  8
DIMENSIONS
100
AcDbLine
 10
60.17651405325444
 20
169.4699024208575
 30
0.0
 11
65.75273742666757
 21
175.0461257942706
 31
0.0
  0
LINE
  5
8B
330
84
100
AcDbEntity
  8
DIMENSIONS
100
AcDbLine
 10
63.71204795918716
 20
165.9343685149247
 30
0.0
 11
69.28827133260029
 21
171.5105918883378
 31
0.0
  0
LWPOLYLINE
  5
8C
330
84
100
AcDbEntity
  8
DIMENSIONS
100
AcDbPolyline
 90
        4
 70
     0
 43
0.0
 10
64.33852386429446
 20
173.6319122318974
 10
61.86365013014155
 20
175.3996791848638
 10
62.5707569113281
 20
176.1067859660504
 10
64.33852386429446
 20
173.6319122318974
  0
LINE
  5
8D
330
84
100
AcDbEntity
  8
DIMENSIONS
100
AcDbLine
 10
62.21720352073483
 20
175.7532325754571
 30
0.0
 11
61.79293945202291
 21
176.177496644169
 31
0.0
  0
LWPOLYLINE
  5
8E
330
84
100
AcDbEntity
  8
DIMENSIONS
100
AcDbPolyline
 90
        4
 70
     0
 43
0.0
 10
67.87405777022718
 20
170.0963783259647
 10
70.34893150438009
 20
168.3286113729983
 10
69.64182472319354
 20
167.6215045918118
 10
67.87405777022718
 20
170.0963783259647
  0
LINE
  5
8F
330
84
100
AcDbEntity
  8
DIMENSIONS
100
AcDbLine
 10
69.99537811378681
 20
167.975057982405
 30
0.0
 11
70.41964218249873
 21
167.5507939136931
 31
0.0
  0
ENDBLK
  5
86
330
84
100
AcDbEntity
  8
0
100
AcDbBlockEnd
  0
BLOCK
  5
92
330
91
100
AcDbEntity
  8
0
100
AcDbBlockBegin
  2
D4
 70
     0
 10
0.0
 20
0.0
 30
0.0
  3
D4
  1

  0
MTEXT
  5
94
330
91
100
AcDbEntity
  8
DIMENSIONS
100
AcDbMText
 10
100.2259140014649
 20
172.6028900146489
 30
0.0
 40
2.275416666666667
 41
0.0
 71
     5
 72
     1
  1
{\fAlibre Symbols|b0|i0|c0|p0;n}{\fArial|b0|i0|c0|p0;10}{\fMS Shell Dlg|b0|i0|c0|p0;\H0.9444444x;}
 73
     1
 44
1.0
  0
MTEXT
  5
95
330
91
100
AcDbEntity
  8
DIMENSIONS
100
AcDbMText
 10
100.2259140014649
 20
172.6028900146489
 30
0.0
 40
2.275416666666667
 41
0.0
 71
     5
 72
     1
  1
{\fArial|b0|i0|c0|p0;}
 73
     1
 44
1.0
  0
MTEXT
  5
96
330
91
100
AcDbEntity
  8
DIMENSIONS
100
AcDbMText
 10
100.2259140014649
 20
172.6028900146489
 30
0.0
 40
2.275416666666667
 41
0.0
 71
     5
 72
     1
  1
{\fArial|b0|i0|c0|p0;}
 73
     1
 44
1.0
  0
LINE
  5
97
330
91
100
AcDbEntity
  8
DIMENSIONS
100
AcDbLine
 10
90.84821828165295
 20
171.403719340486
 30
0.0
 11
98.47384120257726
 21
177.8023767209306
 31
0.0
  0
LINE
  5
98
330
91
100
AcDbEntity
  8
DIMENSIONS
100
AcDbLine
 10
97.27609437851835
 20
163.7432749092962
 30
0.0
 11
104.9017172994427
 21
170.1419322897408
 31
0.0
  0
LWPOLYLINE
  5
99
330
91
100
AcDbEntity
  8
DIMENSIONS
100
AcDbPolyline
 90
        4
 70
     0
 43
0.0
 10
96.94175231633932
 20
176.5168015015575
 10
99.25313736695843
 20
174.5400619770438
 10
98.48709292383944
 20
173.8972743673573
 10
96.94175231633932
 20
176.5168015015575
  0
LINE
  5
9A
330
91
100
AcDbEntity
  8
DIMENSIONS
100
AcDbLine
 10
98.87011514539894
 20
174.2186681722006
 30
0.0
 11
98.87011514539894
 21
174.2186681722006
 31
0.0
  0
LWPOLYLINE
  5
9B
330
91
100
AcDbEntity
  8
DIMENSIONS
100
AcDbPolyline
 90
        4
 70
     0
 43
0.0
 10
103.3696284132047
 20
168.8563570703677
 10
101.0582433625856
 20
170.8330965948814
 10
101.8242878057046
 20
171.4758842045679
 10
103.3696284132047
 20
168.8563570703677
  0
LINE
  5
9C
330
91
100
AcDbEntity
  8
DIMENSIONS
100
AcDbLine
 10
101.4412655841451
 20
171.1544903997247
 30
0.0
 11
101.4412655841451
 21
171.1544903997247
 31
0.0
  0
ENDBLK
  5
93
330
91
100
AcDbEntity
  8
0
100
AcDbBlockEnd
  0
BLOCK
  5
9F
330
9E
100
AcDbEntity
  8
0
100
AcDbBlockBegin
  2
D5
 70
     0
 10
0.0
 20
0.0
 30
0.0
  3
D5
  1

  0
MTEXT
  5
A1
330
9E
100
AcDbEntity
  8
DIMENSIONS
100
AcDbMText
 10
48.7305908203125
 20
165.4727783203129
 30
0.0
 40
2.275416666666667
 41
0.0
 71
     5
 72
     1
  1
{\fArial|b0|i0|c0|p0;6}{\fArial|b0|i0|c0|p0;}
 73
     1
 44
1.0
  0
MTEXT
  5
A2
330
9E
100
AcDbEntity
  8
DIMENSIONS
100
AcDbMText
 10
48.7305908203125
 20
165.4727783203129
 30
0.0
 40
2.275416666666667
 41
0.0
 71
     5
 72
     1
  1
{\fArial|b0|i0|c0|p0;}
 73
     1
 44
1.0
  0
MTEXT
  5
A3
330
9E
100
AcDbEntity
  8
DIMENSIONS
100
AcDbMText
 10
48.7305908203125
 20
165.4727783203129
 30
0.0
 40
2.275416666666667
 41
0.0
 71
     5
 72
     1
  1
{\fArial|b0|i0|c0|p0;}
 73
     1
 44
1.0
  0
LINE
  5
A4
330
9E
100
AcDbEntity
  8
DIMENSIONS
100
AcDbLine
 10
51.61253595352177
 20
165.4727783221756
 30
0.0
 11
51.61253595352177
 21
165.4727783221756
 31
0.0
  0
LINE
  5
A5
330
9E
100
AcDbEntity
  8
DIMENSIONS
100
AcDbLine
 10
60.5300674438477
 20
164.287921905518
 30
0.0
 11
60.5300674438477
 21
163.4727783203129
 31
0.0
  0
LINE
  5
A6
330
9E
100
AcDbEntity
  8
DIMENSIONS
100
AcDbLine
 10
54.5300674438477
 20
159.287921905518
 30
0.0
 11
54.5300674438477
 21
167.4727783203129
 31
0.0
  0
LWPOLYLINE
  5
A7
330
9E
100
AcDbEntity
  8
DIMENSIONS
100
AcDbPolyline
 90
        4
 70
     0
 43
0.0
 10
60.5300674438477
 20
165.4727783203129
 10
63.5300674438477
 20
165.9727783203129
 10
63.5300674438477
 20
164.9727783203129
 10
60.5300674438477
 20
165.4727783203129
  0
LINE
  5
A8
330
9E
100
AcDbEntity
  8
DIMENSIONS
100
AcDbLine
 10
63.5300674438477
 20
165.4727783203129
 30
0.0
 11
64.1300674438477
 21
165.4727783203129
 31
0.0
  0
LWPOLYLINE
  5
A9
330
9E
100
AcDbEntity
  8
DIMENSIONS
100
AcDbPolyline
 90
        4
 70
     0
 43
0.0
 10
54.5300674438477
 20
165.4727783203129
 10
51.5300674438477
 20
164.9727783203129
 10
51.5300674438477
 20
165.9727783203129
 10
54.5300674438477
 20
165.4727783203129
  0
LINE
  5
AA
330
9E
100
AcDbEntity
  8
DIMENSIONS
100
AcDbLine
 10
51.5300674438477
 20
165.4727783203129
 30
0.0
 11
51.61253595352177
 21
165.4727783221756
 31
0.0
  0
ENDBLK
  5
A0
330
9E
100
AcDbEntity
  8
0
100
AcDbBlockEnd
  0
BLOCK
  5
AD
330
AC
100
AcDbEntity
  8
0
100
AcDbBlockBegin
  2
D6
 70
     0
 10
0.0
 20
0.0
 30
0.0
  3
D6
  1

  0
MTEXT
  5
AF
330
AC
100
AcDbEntity
  8
DIMENSIONS
100
AcDbMText
 10
76.53006744384768
 20
159.3989715576176
 30
0.0
 40
2.275416666666667
 41
0.0
 71
     5
 72
     1
  1
{\fArial|b0|i0|c0|p0;32}{\fArial|b0|i0|c0|p0;}
 73
     1
 44
1.0
  0
MTEXT
  5
B0
330
AC
100
AcDbEntity
  8
DIMENSIONS
100
AcDbMText
 10
76.53006744384768
 20
159.3989715576176
 30
0.0
 40
2.275416666666667
 41
0.0
 71
     5
 72
     1
  1
{\fArial|b0|i0|c0|p0;}
 73
     1
 44
1.0
  0
MTEXT
  5
B1
330
AC
100
AcDbEntity
  8
DIMENSIONS
100
AcDbMText
 10
76.53006744384768
 20
159.3989715576176
 30
0.0
 40
2.275416666666667
 41
0.0
 71
     5
 72
     1
  1
{\fArial|b0|i0|c0|p0;}
 73
     1
 44
1.0
  0
LINE
  5
B2
330
AC
100
AcDbEntity
  8
DIMENSIONS
100
AcDbLine
 10
60.5300674438477
 20
164.287921905518
 30
0.0
 11
60.5300674438477
 21
157.3989715576176
 31
0.0
  0
LINE
  5
B3
330
AC
100
AcDbEntity
  8
DIMENSIONS
100
AcDbLine
 10
92.5300674438477
 20
164.287921905518
 30
0.0
 11
92.5300674438477
 21
157.3989715576176
 31
0.0
  0
LWPOLYLINE
  5
B4
330
AC
100
AcDbEntity
  8
DIMENSIONS
100
AcDbPolyline
 90
        4
 70
     0
 43
0.0
 10
60.5300674438477
 20
159.3989715576176
 10
63.5300674438477
 20
159.8989715576176
 10
63.5300674438477
 20
158.8989715576176
 10
60.5300674438477
 20
159.3989715576176
  0
LINE
  5
B5
330
AC
100
AcDbEntity
  8
DIMENSIONS
100
AcDbLine
 10
63.5300674438477
 20
159.3989715576176
 30
0.0
 11
72.94256746768956
 21
159.398971319199
 31
0.0
  0
LWPOLYLINE
  5
B6
330
AC
100
AcDbEntity
  8
DIMENSIONS
100
AcDbPolyline
 90
        4
 70
     0
 43
0.0
 10
92.5300674438477
 20
159.3989715576176
 10
89.5300674438477
 20
158.8989715576176
 10
89.5300674438477
 20
159.8989715576176
 10
92.5300674438477
 20
159.3989715576176
  0
LINE
  5
B7
330
AC
100
AcDbEntity
  8
DIMENSIONS
100
AcDbLine
 10
89.5300674438477
 20
159.3989715576176
 30
0.0
 11
80.11756742000584
 21
159.398971319199
 31
0.0
  0
ENDBLK
  5
AE
330
AC
100
AcDbEntity
  8
0
100
AcDbBlockEnd
  0
BLOCK
  5
BA
330
B9
100
AcDbEntity
  8
0
100
AcDbBlockBegin
  2
D7
 70
     0
 10
0.0
 20
0.0
 30
0.0
  3
D7
  1

  0
MTEXT
  5
BC
330
B9
100
AcDbEntity
  8
DIMENSIONS
100
AcDbMText
 10
110.6570129394532
 20
159.3989715576176
 30
0.0
 40
2.275416666666667
 41
0.0
 71
     5
 72
     1
  1
{\fArial|b0|i0|c0|p0;32}{\fArial|b0|i0|c0|p0;}
 73
     1
 44
1.0
  0
MTEXT
  5
BD
330
B9
100
AcDbEntity
  8
DIMENSIONS
100
AcDbMText
 10
110.6570129394532
 20
159.3989715576176
 30
0.0
 40
2.275416666666667
 41
0.0
 71
     5
 72
     1
  1
{\fArial|b0|i0|c0|p0;}
 73
     1
 44
1.0
  0
MTEXT
  5
BE
330
B9
100
AcDbEntity
  8
DIMENSIONS
100
AcDbMText
 10
110.6570129394532
 20
159.3989715576176
 30
0.0
 40
2.275416666666667
 41
0.0
 71
     5
 72
     1
  1
{\fArial|b0|i0|c0|p0;}
 73
     1
 44
1.0
  0
LINE
  5
BF
330
B9
100
AcDbEntity
  8
DIMENSIONS
100
AcDbLine
 10
92.5300674438477
 20
164.287921905518
 30
0.0
 11
92.5300674438477
 21
157.3989715576176
 31
0.0
  0
LINE
  5
C0
330
B9
100
AcDbEntity
  8
DIMENSIONS
100
AcDbLine
 10
124.5300674438477
 20
164.287921905518
 30
0.0
 11
124.5300674438477
 21
157.3989715576176
 31
0.0
  0
LWPOLYLINE
  5
C1
330
B9
100
AcDbEntity
  8
DIMENSIONS
100
AcDbPolyline
 90
        4
 70
     0
 43
0.0
 10
92.5300674438477
 20
159.3989715576176
 10
95.5300674438477
 20
159.8989715576176
 10
95.5300674438477
 20
158.8989715576176
 10
92.5300674438477
 20
159.3989715576176
  0
LINE
  5
C2
330
B9
100
AcDbEntity
  8
DIMENSIONS
100
AcDbLine
 10
95.5300674438477
 20
159.3989715576176
 30
0.0
 11
107.0695137977601
 21
159.398971319199
 31
0.0
  0
LWPOLYLINE
  5
C3
330
B9
100
AcDbEntity
  8
DIMENSIONS
100
AcDbPolyline
 90
        4
 70
     0
 43
0.0
 10
124.5300674438477
 20
159.3989715576176
 10
121.5300674438477
 20
158.8989715576176
 10
121.5300674438477
 20
159.8989715576176
 10
124.5300674438477
 20
159.3989715576176
  0
LINE
  5
C4
330
B9
100
AcDbEntity
  8
DIMENSIONS
100
AcDbLine
 10
121.5300674438477
 20
159.3989715576176
 30
0.0
 11
114.2445125579834
 21
159.398971319199
 31
0.0
  0
ENDBLK
  5
BB
330
B9
100
AcDbEntity
  8
0
100
AcDbBlockEnd
  0
BLOCK
  5
C7
330
C6
100
AcDbEntity
  8
0
100
AcDbBlockBegin
  2
D8
 70
     0
 10
0.0
 20
0.0
 30
0.0
  3
D8
  1

  0
MTEXT
  5
C9
330
C6
100
AcDbEntity
  8
DIMENSIONS
100
AcDbMText
 10
133.1036987304688
 20
170.537921905518
 30
0.0
 40
2.275416666666667
 41
0.0
 71
     5
 72
     1
  1
{\fArial|b0|i0|c0|p0;8.5}{\fArial|b0|i0|c0|p0;}
 73
     1
 44
1.0
  0
MTEXT
  5
CA
330
C6
100
AcDbEntity
  8
DIMENSIONS
100
AcDbMText
 10
133.1036987304688
 20
170.537921905518
 30
0.0
 40
2.275416666666667
 41
0.0
 71
     5
 72
     1
  1
{\fArial|b0|i0|c0|p0;}
 73
     1
 44
1.0
  0
MTEXT
  5
CB
330
C6
100
AcDbEntity
  8
DIMENSIONS
100
AcDbMText
 10
133.1036987304688
 20
170.537921905518
 30
0.0
 40
2.275416666666667
 41
0.0
 71
     5
 72
     1
  1
{\fArial|b0|i0|c0|p0;}
 73
     1
 44
1.0
  0
LINE
  5
CC
330
C6
100
AcDbEntity
  8
DIMENSIONS
100
AcDbLine
 10
126.5300674438477
 20
166.287921905518
 30
0.0
 11
135.1036987304688
 21
166.287921905518
 31
0.0
  0
LINE
  5
CD
330
C6
100
AcDbEntity
  8
DIMENSIONS
100
AcDbLine
 10
132.5300674438477
 20
174.787921905518
 30
0.0
 11
135.1036987304688
 21
174.787921905518
 31
0.0
  0
LWPOLYLINE
  5
CE
330
C6
100
AcDbEntity
  8
DIMENSIONS
100
AcDbPolyline
 90
        4
 70
     0
 43
0.0
 10
133.1036987304688
 20
166.287921905518
 10
132.6036987304688
 20
169.287921905518
 10
133.6036987304688
 20
169.287921905518
 10
133.1036987304688
 20
166.287921905518
  0
LINE
  5
CF
330
C6
100
AcDbEntity
  8
DIMENSIONS
100
AcDbLine
 10
133.1036987304688
 20
169.287921905518
 30
0.0
 11
133.1036987304688
 21
169.287921905518
 31
0.0
  0
LWPOLYLINE
  5
D0
330
C6
100
AcDbEntity
  8
DIMENSIONS
100
AcDbPolyline
 90
        4
 70
     0
 43
0.0
 10
133.1036987304688
 20
174.787921905518
 10
133.6036987304688
 20
171.787921905518
 10
132.6036987304688
 20
171.787921905518
 10
133.1036987304688
 20
174.787921905518
  0
LINE
  5
D1
330
C6
100
AcDbEntity
  8
DIMENSIONS
100
AcDbLine
 10
133.1036987304688
 20
171.787921905518
 30
0.0
 11
133.1036987304688
 21
171.787921905518
 31
0.0
  0
ENDBLK
  5
C8
330
C6
100
AcDbEntity
  8
0
100
AcDbBlockEnd
  0
BLOCK
  5
D4
330
D3
100
AcDbEntity
  8
0
100
AcDbBlockBegin
  2
D9
 70
     0
 10
0.0
 20
0.0
 30
0.0
  3
D9
  1

  0
MTEXT
  5
D6
330
D3
100
AcDbEntity
  8
DIMENSIONS
100
AcDbMText
 10
133.1036987304688
 20
161.787921905518
 30
0.0
 40
2.275416666666667
 41
0.0
 71
     5
 72
     1
  1
{\fArial|b0|i0|c0|p0;9}{\fArial|b0|i0|c0|p0;}
 73
     1
 44
1.0
  0
MTEXT
  5
D7
330
D3
100
AcDbEntity
  8
DIMENSIONS
100
AcDbMText
 10
133.1036987304688
 20
161.787921905518
 30
0.0
 40
2.275416666666667
 41
0.0
 71
     5
 72
     1
  1
{\fArial|b0|i0|c0|p0;}
 73
     1
 44
1.0
  0
MTEXT
  5
D8
330
D3
100
AcDbEntity
  8
DIMENSIONS
100
AcDbMText
 10
133.1036987304688
 20
161.787921905518
 30
0.0
 40
2.275416666666667
 41
0.0
 71
     5
 72
     1
  1
{\fArial|b0|i0|c0|p0;}
 73
     1
 44
1.0
  0
LINE
  5
D9
330
D3
100
AcDbEntity
  8
DIMENSIONS
100
AcDbLine
 10
126.5300674438477
 20
166.287921905518
 30
0.0
 11
135.1036987304688
 21
166.287921905518
 31
0.0
  0
LINE
  5
DA
330
D3
100
AcDbEntity
  8
DIMENSIONS
100
AcDbLine
 10
132.5300674438477
 20
157.287921905518
 30
0.0
 11
135.1036987304688
 21
157.287921905518
 31
0.0
  0
LWPOLYLINE
  5
DB
330
D3
100
AcDbEntity
  8
DIMENSIONS
100
AcDbPolyline
 90
        4
 70
     0
 43
0.0
 10
133.1036987304688
 20
166.287921905518
 10
133.6036987304688
 20
163.287921905518
 10
132.6036987304688
 20
163.287921905518
 10
133.1036987304688
 20
166.287921905518
  0
LINE
  5
DC
330
D3
100
AcDbEntity
  8
DIMENSIONS
100
AcDbLine
 10
133.1036987304688
 20
163.287921905518
 30
0.0
 11
133.1036987304688
 21
163.287921905518
 31
0.0
  0
LWPOLYLINE
  5
DD
330
D3
100
AcDbEntity
  8
DIMENSIONS
100
AcDbPolyline
 90
        4
 70
     0
 43
0.0
 10
133.1036987304688
 20
157.287921905518
 10
132.6036987304688
 20
160.287921905518
 10
133.6036987304688
 20
160.287921905518
 10
133.1036987304688
 20
157.287921905518
  0
LINE
  5
DE
330
D3
100
AcDbEntity
  8
DIMENSIONS
100
AcDbLine
 10
133.1036987304688
 20
160.287921905518
 30
0.0
 11
133.1036987304688
 21
160.287921905518
 31
0.0
  0
ENDBLK
  5
D5
330
D3
100
AcDbEntity
  8
0
100
AcDbBlockEnd
  0
BLOCK
  5
E5
330
E4
100
AcDbEntity
  8
0
100
AcDbBlockBegin
  2
D10
 70
     0
 10
0.0
 20
0.0
 30
0.0
  3
D10
  1

  0
MTEXT
  5
E7
330
E4
100
AcDbEntity
  8
DIMENSIONS
100
AcDbMText
 10
162.7227630615231
 20
152.3763427734379
 30
0.0
 40
2.275416666666667
 41
0.0
 71
     5
 72
     1
  1
{\fArial|b0|i0|c0|p0;7.5}{\fArial|b0|i0|c0|p0;}
 73
     1
 44
1.0
  0
MTEXT
  5
E8
330
E4
100
AcDbEntity
  8
DIMENSIONS
100
AcDbMText
 10
162.7227630615231
 20
152.3763427734379
 30
0.0
 40
2.275416666666667
 41
0.0
 71
     5
 72
     1
  1
{\fArial|b0|i0|c0|p0;}
 73
     1
 44
1.0
  0
MTEXT
  5
E9
330
E4
100
AcDbEntity
  8
DIMENSIONS
100
AcDbMText
 10
162.7227630615231
 20
152.3763427734379
 30
0.0
 40
2.275416666666667
 41
0.0
 71
     5
 72
     1
  1
{\fArial|b0|i0|c0|p0;}
 73
     1
 44
1.0
  0
LINE
  5
EA
330
E4
100
AcDbEntity
  8
DIMENSIONS
100
AcDbLine
 10
166.6630408763882
 20
152.3763425350193
 30
0.0
 11
166.6630408763882
 21
152.3763425350193
 31
0.0
  0
LINE
  5
EB
330
E4
100
AcDbEntity
  8
DIMENSIONS
100
AcDbLine
 10
166.999229431152
 20
155.287921905518
 30
0.0
 11
166.999229431152
 21
150.3763427734379
 31
0.0
  0
LINE
  5
EC
330
E4
100
AcDbEntity
  8
DIMENSIONS
100
AcDbLine
 10
174.499229431152
 20
155.287921905518
 30
0.0
 11
174.499229431152
 21
150.3763427734379
 31
0.0
  0
LWPOLYLINE
  5
ED
330
E4
100
AcDbEntity
  8
DIMENSIONS
100
AcDbPolyline
 90
        4
 70
     0
 43
0.0
 10
166.999229431152
 20
152.3763427734379
 10
169.999229431152
 20
152.8763427734379
 10
169.999229431152
 20
151.8763427734379
 10
166.999229431152
 20
152.3763427734379
  0
LINE
  5
EE
330
E4
100
AcDbEntity
  8
DIMENSIONS
100
AcDbLine
 10
166.999229431152
 20
152.3763427734379
 30
0.0
 11
166.6630408763882
 21
152.3763425350193
 31
0.0
  0
LWPOLYLINE
  5
EF
330
E4
100
AcDbEntity
  8
DIMENSIONS
100
AcDbPolyline
 90
        4
 70
     0
 43
0.0
 10
174.499229431152
 20
152.3763427734379
 10
171.499229431152
 20
151.8763427734379
 10
171.499229431152
 20
152.8763427734379
 10
174.499229431152
 20
152.3763427734379
  0
LINE
  5
F0
330
E4
100
AcDbEntity
  8
DIMENSIONS
100
AcDbLine
 10
171.499229431152
 20
152.3763427734379
 30
0.0
 11
169.999229431152
 21
152.3763427734379
 31
0.0
  0
ENDBLK
  5
E6
330
E4
100
AcDbEntity
  8
0
100
AcDbBlockEnd
  0
BLOCK
  5
F3
330
F2
100
AcDbEntity
  8
0
100
AcDbBlockBegin
  2
D11
 70
     0
 10
0.0
 20
0.0
 30
0.0
  3
D11
  1

  0
MTEXT
  5
F5
330
F2
100
AcDbEntity
  8
DIMENSIONS
100
AcDbMText
 10
162.8877258300778
 20
166.037921905518
 30
0.0
 40
2.275416666666667
 41
0.0
 71
     5
 72
     1
  1
{\fArial|b0|i0|c0|p0;17.5}{\fArial|b0|i0|c0|p0;}
 73
     1
 44
1.0
  0
MTEXT
  5
F6
330
F2
100
AcDbEntity
  8
DIMENSIONS
100
AcDbMText
 10
162.8877258300778
 20
166.037921905518
 30
0.0
 40
2.275416666666667
 41
0.0
 71
     5
 72
     1
  1
{\fArial|b0|i0|c0|p0;}
 73
     1
 44
1.0
  0
MTEXT
  5
F7
330
F2
100
AcDbEntity
  8
DIMENSIONS
100
AcDbMText
 10
162.8877258300778
 20
166.037921905518
 30
0.0
 40
2.275416666666667
 41
0.0
 71
     5
 72
     1
  1
{\fArial|b0|i0|c0|p0;}
 73
     1
 44
1.0
  0
LINE
  5
F8
330
F2
100
AcDbEntity
  8
DIMENSIONS
100
AcDbLine
 10
164.999229431152
 20
174.787921905518
 30
0.0
 11
160.8877258300778
 21
174.787921905518
 31
0.0
  0
LINE
  5
F9
330
F2
100
AcDbEntity
  8
DIMENSIONS
100
AcDbLine
 10
164.999229431152
 20
157.287921905518
 30
0.0
 11
160.8877258300778
 21
157.287921905518
 31
0.0
  0
LWPOLYLINE
  5
FA
330
F2
100
AcDbEntity
  8
DIMENSIONS
100
AcDbPolyline
 90
        4
 70
     0
 43
0.0
 10
162.8877258300778
 20
174.787921905518
 10
163.3877258300778
 20
171.787921905518
 10
162.3877258300778
 20
171.787921905518
 10
162.8877258300778
 20
174.787921905518
  0
LINE
  5
FB
330
F2
100
AcDbEntity
  8
DIMENSIONS
100
AcDbLine
 10
162.8877258300778
 20
171.787921905518
 30
0.0
 11
162.8877257704731
 21
169.6254218518738
 31
0.0
  0
LWPOLYLINE
  5
FC
330
F2
100
AcDbEntity
  8
DIMENSIONS
100
AcDbPolyline
 90
        4
 70
     0
 43
0.0
 10
162.8877258300778
 20
157.287921905518
 10
162.3877258300778
 20
160.287921905518
 10
163.3877258300778
 20
160.287921905518
 10
162.8877258300778
 20
157.287921905518
  0
LINE
  5
FD
330
F2
100
AcDbEntity
  8
DIMENSIONS
100
AcDbLine
 10
162.8877258300778
 20
160.287921905518
 30
0.0
 11
162.8877257704731
 21
162.4504218995575
 31
0.0
  0
ENDBLK
  5
F4
330
F2
100
AcDbEntity
  8
0
100
AcDbBlockEnd
  0
ENDSEC
  0
SECTION
  2
ENTITIES
  0
CIRCLE
  5
5E
330
1F
100
AcDbEntity
  8
VISIBLE
100
AcDbCircle
 10
60.53006744384768
 20
166.287921905518
 30
0.0
 40
2.5
  0
LINE
  5
5F
330
1F
100
AcDbEntity
  8
VISIBLE
100
AcDbLine
 10
130.5300674438477
 20
157.287921905518
 30
0.0
 11
54.5300674438477
 21
157.287921905518
 31
0.0
  0
LINE
  5
60
330
1F
100
AcDbEntity
  8
VISIBLE
100
AcDbLine
 10
54.5300674438477
 20
157.287921905518
 30
0.0
 11
54.5300674438477
 21
174.787921905518
 31
0.0
  0
CIRCLE
  5
61
330
1F
100
AcDbEntity
  8
VISIBLE
100
AcDbCircle
 10
92.5300674438477
 20
166.287921905518
 30
0.0
 40
5.0
  0
CIRCLE
  5
62
330
1F
100
AcDbEntity
  8
VISIBLE
100
AcDbCircle
 10
124.5300674438477
 20
166.287921905518
 30
0.0
 40
5.0
  0
CIRCLE
  5
63
330
1F
100
AcDbEntity
  8
VISIBLE
100
AcDbCircle
 10
60.53006744384768
 20
166.287921905518
 30
0.0
 40
5.0
  0
LINE
  5
64
330
1F
100
AcDbEntity
  8
VISIBLE
100
AcDbLine
 10
54.5300674438477
 20
174.787921905518
 30
0.0
 11
130.5300674438477
 21
174.787921905518
 31
0.0
  0
LINE
  5
65
330
1F
100
AcDbEntity
  8
VISIBLE
100
AcDbLine
 10
130.5300674438477
 20
174.787921905518
 30
0.0
 11
130.5300674438477
 21
157.287921905518
 31
0.0
  0
CIRCLE
  5
66
330
1F
100
AcDbEntity
  8
VISIBLE
100
AcDbCircle
 10
92.5300674438477
 20
166.287921905518
 30
0.0
 40
2.5
  0
CIRCLE
  5
67
330
1F
100
AcDbEntity
  8
VISIBLE
100
AcDbCircle
 10
124.5300674438477
 20
166.287921905518
 30
0.0
 40
2.5
  0
DIMENSION
  5
69
330
1F
100
AcDbEntity
  8
DIMENSIONS
100
AcDbDimension
  2
D1
 10
0.0
 20
0.0
 30
0.0
 11
169.0601348876954
 21
316.6278724670418
 31
0.0
 70
    32
  1
<>
 71
     5
 42
-1.0
 53
180.0
  3
ISO-25
100
AcDbAlignedDimension
 13
130.5300674438477
 23
157.287921905518
 33
0.0
 14
54.5300674438477
 24
157.287921905518
 34
0.0
 50
180.0
100
AcDbRotatedDimension
1001
ACAD
1000
DSTYLE
1002
{
1070
    76
1070
     0
1070
    75
1070
     0
1070
   282
1070
     0
1070
   281
1070
     0
1070
    77
1070
     0
1070
    79
1070
     0
1070
    78
1070
     0
1070
   272
1070
     3
1070
   271
1070
     3
1070
   179
1070
     3
1070
   140
1040
2.275416666666667
1070
    71
1070
     0
1070
    72
1070
     0
1070
    48
1040
0.002
1070
    47
1040
0.005
1002
}
  0
DIMENSION
  5
76
330
1F
100
AcDbEntity
  8
DIMENSIONS
100
AcDbDimension
  2
D2
 10
0.0
 20
0.0
 30
0.0
 11
220.8194046020509
 21
331.575843811036
 31
0.0
 70
    32
  1
<>
 71
     5
 42
-1.0
 53
270.0
  3
ISO-25
100
AcDbAlignedDimension
 13
130.5300674438477
 23
174.787921905518
 33
0.0
 14
130.5300674438477
 24
157.287921905518
 34
0.0
 50
270.0
100
AcDbRotatedDimension
1001
ACAD
1000
DSTYLE
1002
{
1070
    76
1070
     0
1070
    75
1070
     0
1070
   282
1070
     0
1070
   281
1070
     0
1070
    77
1070
     0
1070
    79
1070
     0
1070
    78
1070
     0
1070
   272
1070
     3
1070
   271
1070
     3
1070
   179
1070
     3
1070
   140
1040
2.275416666666667
1070
    71
1070
     0
1070
    72
1070
     0
1070
    48
1040
0.002
1070
    47
1040
0.005
1002
}
  0
DIMENSION
  5
83
330
1F
100
AcDbEntity
  8
DIMENSIONS
100
AcDbDimension
  2
D3
 10
0.0
 20
0.0
 30
0.0
 11
142.8218841552736
 21
337.2165412902841
 31
0.0
 70
    32
  1
<>
 71
     5
 42
-1.0
  3
ISO-25
100
AcDbAlignedDimension
 13
58.76230049088134
 23
168.0556888584844
 33
0.0
 14
62.29783439681406
 24
164.5201549525516
 34
0.0
100
AcDbRotatedDimension
1001
ACAD
1000
DSTYLE
1002
{
1070
    76
1070
     0
1070
    75
1070
     0
1070
   282
1070
     0
1070
   281
1070
     0
1070
    77
1070
     0
1070
    79
1070
     0
1070
    78
1070
     0
1070
   272
1070
     3
1070
   271
1070
     3
1070
   179
1070
     3
1070
   140
1040
2.275416666666667
1070
    71
1070
     0
1070
    72
1070
     0
1070
    48
1040
0.002
1070
    47
1040
0.005
1002
}
  0
DIMENSION
  5
90
330
1F
100
AcDbEntity
  8
DIMENSIONS
100
AcDbDimension
  2
D4
 10
0.0
 20
0.0
 30
0.0
 11
176.7559814453126
 21
338.1408119201669
 31
0.0
 70
    32
  1
<>
 71
     5
 42
-1.0
  3
ISO-25
100
AcDbAlignedDimension
 13
89.316129395415
 23
170.1181441211129
 33
0.0
 14
95.7440054922804
 24
162.4576996899231
 34
0.0
100
AcDbRotatedDimension
1001
ACAD
1000
DSTYLE
1002
{
1070
    76
1070
     0
1070
    75
1070
     0
1070
   282
1070
     0
1070
   281
1070
     0
1070
    77
1070
     0
1070
    79
1070
     0
1070
    78
1070
     0
1070
   272
1070
     3
1070
   271
1070
     3
1070
   179
1070
     3
1070
   140
1040
2.275416666666667
1070
    71
1070
     0
1070
    72
1070
     0
1070
    48
1040
0.002
1070
    47
1040
0.005
1002
}
  0
DIMENSION
  5
9D
330
1F
100
AcDbEntity
  8
DIMENSIONS
100
AcDbDimension
  2
D5
 10
0.0
 20
0.0
 30
0.0
 11
125.2606582641602
 21
331.0107002258309
 31
0.0
 70
    32
  1
<>
 71
     5
 42
-1.0
 53
180.0
  3
ISO-25
100
AcDbAlignedDimension
 13
60.5300674438477
 23
166.287921905518
 33
0.0
 14
54.5300674438477
 24
157.287921905518
 34
0.0
 50
180.0
100
AcDbRotatedDimension
1001
ACAD
1000
DSTYLE
1002
{
1070
    76
1070
     0
1070
    75
1070
     0
1070
   282
1070
     0
1070
   281
1070
     0
1070
    77
1070
     0
1070
    79
1070
     0
1070
    78
1070
     0
1070
   272
1070
     3
1070
   271
1070
     3
1070
   179
1070
     3
1070
   140
1040
2.275416666666667
1070
    71
1070
     0
1070
    72
1070
     0
1070
    48
1040
0.002
1070
    47
1040
0.005
1002
}
  0
DIMENSION
  5
AB
330
1F
100
AcDbEntity
  8
DIMENSIONS
100
AcDbDimension
  2
D6
 10
0.0
 20
0.0
 30
0.0
 11
153.0601348876954
 21
324.9368934631356
 31
0.0
 70
    32
  1
<>
 71
     5
 42
-1.0
  3
ISO-25
100
AcDbAlignedDimension
 13
60.5300674438477
 23
166.287921905518
 33
0.0
 14
92.5300674438477
 24
166.287921905518
 34
0.0
100
AcDbRotatedDimension
1001
ACAD
1000
DSTYLE
1002
{
1070
    76
1070
     0
1070
    75
1070
     0
1070
   282
1070
     0
1070
   281
1070
     0
1070
    77
1070
     0
1070
    79
1070
     0
1070
    78
1070
     0
1070
   272
1070
     3
1070
   271
1070
     3
1070
   179
1070
     3
1070
   140
1040
2.275416666666667
1070
    71
1070
     0
1070
    72
1070
     0
1070
    48
1040
0.002
1070
    47
1040
0.005
1002
}
  0
DIMENSION
  5
B8
330
1F
100
AcDbEntity
  8
DIMENSIONS
100
AcDbDimension
  2
D7
 10
0.0
 20
0.0
 30
0.0
 11
187.1870803833009
 21
324.9368934631356
 31
0.0
 70
    32
  1
<>
 71
     5
 42
-1.0
  3
ISO-25
100
AcDbAlignedDimension
 13
92.5300674438477
 23
166.287921905518
 33
0.0
 14
124.5300674438477
 24
166.287921905518
 34
0.0
100
AcDbRotatedDimension
1001
ACAD
1000
DSTYLE
1002
{
1070
    76
1070
     0
1070
    75
1070
     0
1070
   282
1070
     0
1070
   281
1070
     0
1070
    77
1070
     0
1070
    79
1070
     0
1070
    78
1070
     0
1070
   272
1070
     3
1070
   271
1070
     3
1070
   179
1070
     3
1070
   140
1040
2.275416666666667
1070
    71
1070
     0
1070
    72
1070
     0
1070
    48
1040
0.002
1070
    47
1040
0.005
1002
}
  0
DIMENSION
  5
C5
330
1F
100
AcDbEntity
  8
DIMENSIONS
100
AcDbDimension
  2
D8
 10
0.0
 20
0.0
 30
0.0
 11
209.6337661743165
 21
336.075843811036
 31
0.0
 70
    32
  1
<>
 71
     5
 42
-1.0
 53
90.0
  3
ISO-25
100
AcDbAlignedDimension
 13
124.5300674438477
 23
166.287921905518
 33
0.0
 14
130.5300674438477
 24
174.787921905518
 34
0.0
 50
90.0
100
AcDbRotatedDimension
1001
ACAD
1000
DSTYLE
1002
{
1070
    76
1070
     0
1070
    75
1070
     0
1070
   282
1070
     0
1070
   281
1070
     0
1070
    77
1070
     0
1070
    79
1070
     0
1070
    78
1070
     0
1070
   272
1070
     3
1070
   271
1070
     3
1070
   179
1070
     3
1070
   140
1040
2.275416666666667
1070
    71
1070
     0
1070
    72
1070
     0
1070
    48
1040
0.002
1070
    47
1040
0.005
1002
}
  0
DIMENSION
  5
D2
330
1F
100
AcDbEntity
  8
DIMENSIONS
100
AcDbDimension
  2
D9
 10
0.0
 20
0.0
 30
0.0
 11
209.6337661743165
 21
327.325843811036
 31
0.0
 70
    32
  1
<>
 71
     5
 42
-1.0
 53
270.0
  3
ISO-25
100
AcDbAlignedDimension
 13
124.5300674438477
 23
166.287921905518
 33
0.0
 14
130.5300674438477
 24
157.287921905518
 34
0.0
 50
270.0
100
AcDbRotatedDimension
1001
ACAD
1000
DSTYLE
1002
{
1070
    76
1070
     0
1070
    75
1070
     0
1070
   282
1070
     0
1070
   281
1070
     0
1070
    77
1070
     0
1070
    79
1070
     0
1070
    78
1070
     0
1070
   272
1070
     3
1070
   271
1070
     3
1070
   179
1070
     3
1070
   140
1040
2.275416666666667
1070
    71
1070
     0
1070
    72
1070
     0
1070
    48
1040
0.002
1070
    47
1040
0.005
1002
}
  0
LINE
  5
DF
330
1F
100
AcDbEntity
  8
VISIBLE
100
AcDbLine
 10
166.999229431152
 20
174.787921905518
 30
0.0
 11
174.499229431152
 21
174.787921905518
 31
0.0
  0
LINE
  5
E0
330
1F
100
AcDbEntity
  8
VISIBLE
100
AcDbLine
 10
174.499229431152
 20
157.287921905518
 30
0.0
 11
174.499229431152
 21
174.787921905518
 31
0.0
  0
LINE
  5
E1
330
1F
100
AcDbEntity
  8
VISIBLE
100
AcDbLine
 10
166.999229431152
 20
174.787921905518
 30
0.0
 11
166.999229431152
 21
157.287921905518
 31
0.0
  0
LINE
  5
E2
330
1F
100
AcDbEntity
  8
VISIBLE
100
AcDbLine
 10
166.999229431152
 20
157.287921905518
 30
0.0
 11
174.499229431152
 21
157.287921905518
 31
0.0
  0
DIMENSION
  5
E3
330
1F
100
AcDbEntity
  8
DIMENSIONS
100
AcDbDimension
  2
D10
 10
0.0
 20
0.0
 30
0.0
 11
329.7219924926751
 21
317.9142646789559
 31
0.0
 70
    32
  1
<>
 71
     5
 42
-1.0
  3
ISO-25
100
AcDbAlignedDimension
 13
166.999229431152
 23
157.287921905518
 33
0.0
 14
174.499229431152
 24
157.287921905518
 34
0.0
100
AcDbRotatedDimension
1001
ACAD
1000
DSTYLE
1002
{
1070
    76
1070
     0
1070
    75
1070
     0
1070
   282
1070
     0
1070
   281
1070
     0
1070
    77
1070
     0
1070
    79
1070
     0
1070
    78
1070
     0
1070
   272
1070
     3
1070
   271
1070
     3
1070
   179
1070
     3
1070
   140
1040
2.275416666666667
1070
    71
1070
     0
1070
    72
1070
     0
1070
    48
1040
0.002
1070
    47
1040
0.005
1002
}
  0
DIMENSION
  5
F1
330
1F
100
AcDbEntity
  8
DIMENSIONS
100
AcDbDimension
  2
D11
 10
0.0
 20
0.0
 30
0.0
 11
329.8869552612298
 21
331.575843811036
 31
0.0
 70
    32
  1
<>
 71
     5
 42
-1.0
 53
270.0
  3
ISO-25
100
AcDbAlignedDimension
 13
166.999229431152
 23
174.787921905518
 33
0.0
 14
166.999229431152
 24
157.287921905518
 34
0.0
 50
270.0
100
AcDbRotatedDimension
1001
ACAD
1000
DSTYLE
1002
{
1070
    76
1070
     0
1070
    75
1070
     0
1070
   282
1070
     0
1070
   281
1070
     0
1070
    77
1070
     0
1070
    79
1070
     0
1070
    78
1070
     0
1070
   272
1070
     3
1070
   271
1070
     3
1070
   179
1070
     3
1070
   140
1040
2.275416666666667
1070
    71
1070
     0
1070
    72
1070
     0
1070
    48
1040
0.002
1070
    47
1040
0.005
1002
}
  0
ELLIPSE
  5
FE
330
1F
100
AcDbEntity
  8
VISIBLE
100
AcDbEllipse
 10
147.5914861619899
 20
104.5151230791004
 30
0.0
 11
1.25
 21
2.165063509461092
 31
0.0
210
0.0
220
0.0
230
1.0
 40
0.5773502691896273
 41
3.89418951643865
 42
5.530588444330734
  0
ELLIPSE
  5
FF
330
1F
100
AcDbEntity
  8
VISIBLE
100
AcDbEllipse
 10
147.5914861619899
 20
104.5151230791004
 30
0.0
 11
2.5
 21
4.330127018922184
 31
0.0
210
0.0
220
0.0
230
1.0
 40
0.5773502691896273
 41
-0.7853981633974466
 42
-0.689817090131917
  0
ELLIPSE
  5
100
330
1F
100
AcDbEntity
  8
VISIBLE
100
AcDbEllipse
 10
147.5914861619899
 20
104.5151230791004
 30
0.0
 11
2.5
 21
4.330127018922184
 31
0.0
210
0.0
220
0.0
230
1.0
 40
0.5773502691896273
 41
3.831409743721712
 42
5.49778714378214
  0
ELLIPSE
  5
101
330
1F
100
AcDbEntity
  8
VISIBLE
100
AcDbEllipse
 10
192.8463201579289
 20
130.6430136687876
 30
0.0
 11
2.5
 21
4.330127018922184
 31
0.0
210
0.0
220
0.0
230
1.0
 40
0.5773502691896273
 41
-0.7853981633974499
 42
-0.689817090131917
  0
ELLIPSE
  5
102
330
1F
100
AcDbEntity
  8
VISIBLE
100
AcDbEllipse
 10
192.8463201579289
 20
130.6430136687876
 30
0.0
 11
2.5
 21
4.330127018922184
 31
0.0
210
0.0
220
0.0
230
1.0
 40
0.5773502691896273
 41
3.831409743721712
 42
5.497787143782136
  0
LINE
  5
103
330
1F
100
AcDbEntity
  8
VISIBLE
100
AcDbLine
 10
141.227525131311
 20
110.2305991455945
 30
0.0
 11
146.5308259902101
 21
107.1687369671155
 31
0.0
  0
LINE
  5
104
330
1F
100
AcDbEntity
  8
VISIBLE
100
AcDbLine
 10
200.2709413603877
 20
123.9069168761339
 30
0.0
 11
146.5308259902101
 21
92.88004680088031
 31
0.0
  0
LINE
  5
105
330
1F
100
AcDbEntity
  8
VISIBLE
100
AcDbLine
 10
146.5308259902101
 20
92.88004680088031
 30
0.0
 11
146.5308259902101
 21
107.1687369671155
 31
0.0
  0
ELLIPSE
  5
106
330
1F
100
AcDbEntity
  8
VISIBLE
100
AcDbEllipse
 10
173.4008836752989
 20
115.7419510668566
 30
0.0
 11
2.5
 21
4.330127018922198
 31
0.0
210
0.0
220
0.0
230
0.9999999999999999
 40
0.577350269189626
 41
3.14159265358979
 42
5.497787143782137
  0
ELLIPSE
  5
107
330
1F
100
AcDbEntity
  8
VISIBLE
100
AcDbEllipse
 10
173.4008836752989
 20
115.7419510668566
 30
0.0
 11
2.5
 21
4.330127018922198
 31
0.0
210
0.0
220
0.0
230
0.9999999999999999
 40
0.577350269189626
 41
0.0
 42
3.14159265358979
  0
ELLIPSE
  5
108
330
1F
100
AcDbEntity
  8
VISIBLE
100
AcDbEllipse
 10
173.4008836752989
 20
115.7419510668566
 30
0.0
 11
2.5
 21
4.330127018922198
 31
0.0
210
0.0
220
0.0
230
0.9999999999999999
 40
0.577350269189626
 41
-0.7853981633974496
 42
0.0
  0
LINE
  5
109
330
1F
100
AcDbEntity
  8
VISIBLE
100
AcDbLine
 10
141.227525131311
 20
110.2305991455945
 30
0.0
 11
141.227525131311
 21
95.94190897935928
 31
0.0
  0
LINE
  5
10A
330
1F
100
AcDbEntity
  8
VISIBLE
100
AcDbLine
 10
194.9676405014886
 20
141.2574692208481
 30
0.0
 11
200.2709413603877
 21
138.1956070423691
 31
0.0
  0
ELLIPSE
  5
10B
330
1F
100
AcDbEntity
  8
VISIBLE
100
AcDbEllipse
 10
196.0283006732684
 20
128.8058963617002
 30
0.0
 11
2.5
 21
4.330127018922184
 31
0.0
210
0.0
220
0.0
230
1.0
 40
0.5773502691896273
 41
3.141592653589793
 42
5.497787143782143
  0
ELLIPSE
  5
10C
330
1F
100
AcDbEntity
  8
VISIBLE
100
AcDbEllipse
 10
196.0283006732684
 20
128.8058963617002
 30
0.0
 11
2.5
 21
4.330127018922184
 31
0.0
210
0.0
220
0.0
230
1.0
 40
0.5773502691896273
 41
0.0
 42
3.141592653589793
  0
ELLIPSE
  5
10D
330
1F
100
AcDbEntity
  8
VISIBLE
100
AcDbEllipse
 10
196.0283006732684
 20
128.8058963617002
 30
0.0
 11
2.5
 21
4.330127018922184
 31
0.0
210
0.0
220
0.0
230
1.0
 40
0.5773502691896273
 41
-0.785398163397443
 42
0.0
  0
ELLIPSE
  5
10E
330
1F
100
AcDbEntity
  8
VISIBLE
100
AcDbEllipse
 10
150.7734666773293
 20
102.678005772013
 30
0.0
 11
2.5
 21
4.330127018922184
 31
0.0
210
0.0
220
0.0
230
1.0
 40
0.5773502691896273
 41
3.141592653589796
 42
5.49778714378214
  0
ELLIPSE
  5
10F
330
1F
100
AcDbEntity
  8
VISIBLE
100
AcDbEllipse
 10
150.7734666773293
 20
102.678005772013
 30
0.0
 11
2.5
 21
4.330127018922184
 31
0.0
210
0.0
220
0.0
230
1.0
 40
0.5773502691896273
 41
0.0
 42
3.141592653589796
  0
ELLIPSE
  5
110
330
1F
100
AcDbEntity
  8
VISIBLE
100
AcDbEllipse
 10
150.7734666773293
 20
102.678005772013
 30
0.0
 11
2.5
 21
4.330127018922184
 31
0.0
210
0.0
220
0.0
230
1.0
 40
0.5773502691896273
 41
-0.7853981633974466
 42
0.0
  0
LINE
  5
111
330
1F
100
AcDbEntity
  8
VISIBLE
100
AcDbLine
 10
146.5308259902101
 20
107.1687369671155
 30
0.0
 11
200.2709413603877
 21
138.1956070423691
 31
0.0
  0
LINE
  5
112
330
1F
100
AcDbEntity
  8
VISIBLE
100
AcDbLine
 10
194.9676405014886
 20
141.2574692208481
 30
0.0
 11
141.227525131311
 21
110.2305991455945
 31
0.0
  0
LINE
  5
113
330
1F
100
AcDbEntity
  8
VISIBLE
100
AcDbLine
 10
200.2709413603877
 20
138.1956070423691
 30
0.0
 11
200.2709413603877
 21
123.9069168761339
 31
0.0
  0
ELLIPSE
  5
114
330
1F
100
AcDbEntity
  8
VISIBLE
100
AcDbEllipse
 10
170.2189031599594
 20
117.579068373944
 30
0.0
 11
1.25
 21
2.165063509461092
 31
0.0
210
0.0
220
0.0
230
1.0
 40
0.5773502691896273
 41
3.89418951643865
 42
5.530588444330728
  0
ELLIPSE
  5
115
330
1F
100
AcDbEntity
  8
VISIBLE
100
AcDbEllipse
 10
170.2189031599594
 20
117.579068373944
 30
0.0
 11
2.5
 21
4.330127018922198
 31
0.0
210
0.0
220
0.0
230
0.9999999999999999
 40
0.577350269189626
 41
-0.7853981633974496
 42
-0.6898170901319169
  0
ELLIPSE
  5
116
330
1F
100
AcDbEntity
  8
VISIBLE
100
AcDbEllipse
 10
170.2189031599594
 20
117.579068373944
 30
0.0
 11
2.5
 21
4.330127018922198
 31
0.0
210
0.0
220
0.0
230
0.9999999999999999
 40
0.577350269189626
 41
3.83140974372171
 42
5.497787143782137
  0
LINE
  5
117
330
1F
100
AcDbEntity
  8
VISIBLE
100
AcDbLine
 10
141.227525131311
 20
95.94190897935928
 30
0.0
 11
146.5308259902101
 21
92.88004680088031
 31
0.0
  0
ELLIPSE
  5
118
330
1F
100
AcDbEntity
  8
VISIBLE
100
AcDbEllipse
 10
192.8463201579289
 20
130.6430136687876
 30
0.0
 11
1.25
 21
2.165063509461078
 31
0.0
210
0.0
220
0.0
230
0.9999999999999999
 40
0.5773502691896303
 41
3.89418951643865
 42
5.530588444330742
  0
ENDSEC
  0
SECTION
  2
OBJECTS
  0
DICTIONARY
  5
C
330
0
100
AcDbDictionary
281
     1
  3
ACAD_GROUP
350
D
  3
ACAD_LAYOUT
350
1A
  3
ACAD_MLEADERSTYLE
350
11C
  3
ACAD_MLINESTYLE
350
17
  3
ACAD_PLOTSETTINGS
350
19
  3
ACAD_PLOTSTYLENAME
350
E
  3
ACAD_SCALELIST
350
3B
  3
ACAD_TABLESTYLE
350
11B
  3
ACAD_VISUALSTYLE
350
2A
  3
AcDbVariableDictionary
350
119
  0
DICTIONARY
  5
D
102
{ACAD_REACTORS
330
C
102
}
330
C
100
AcDbDictionary
281
     1
  0
DICTIONARY
  5
1A
102
{ACAD_REACTORS
330
C
102
}
330
C
100
AcDbDictionary
281
     1
  3
Layout1
350
1E
  3
Layout2
350
26
  3
Model
350
22
  0
DICTIONARY
  5
11C
102
{ACAD_REACTORS
330
C
102
}
330
C
100
AcDbDictionary
281
     1
  0
DICTIONARY
  5
17
102
{ACAD_REACTORS
330
C
102
}
330
C
100
AcDbDictionary
281
     1
  3
Standard
350
18
  0
DICTIONARY
  5
19
102
{ACAD_REACTORS
330
C
102
}
330
C
100
AcDbDictionary
281
     1
  0
ACDBDICTIONARYWDFLT
  5
E
102
{ACAD_REACTORS
330
C
102
}
330
C
100
AcDbDictionary
281
     1
  3
Normal
350
F
100
AcDbDictionaryWithDefault
340
F
  0
DICTIONARY
  5
3B
102
{ACAD_REACTORS
330
C
102
}
330
C
100
AcDbDictionary
281
     1
  3
A0
350
3C
  3
A1
350
3D
  3
A2
350
3E
  3
A3
350
3F
  3
A4
350
40
  3
A5
350
41
  3
A6
350
42
  3
A7
350
43
  3
A8
350
44
  3
A9
350
45
  3
B0
350
46
  3
B1
350
47
  3
B2
350
48
  3
B3
350
49
  3
B4
350
4A
  3
B5
350
4B
  3
B6
350
4C
  3
B7
350
4D
  3
B8
350
4E
  3
B9
350
4F
  3
C0
350
50
  3
C1
350
51
  3
C2
350
52
  3
C3
350
53
  3
C4
350
54
  3
C5
350
55
  3
C6
350
56
  3
C7
350
57
  3
C8
350
58
  3
C9
350
59
  3
D0
350
5A
  3
D1
350
5B
  3
D2
350
5C
  0
DICTIONARY
  5
11B
102
{ACAD_REACTORS
330
C
102
}
330
C
100
AcDbDictionary
281
     1
  0
DICTIONARY
  5
2A
102
{ACAD_REACTORS
330
C
102
}
330
C
100
AcDbDictionary
281
     1
  3
2dWireframe
350
2F
  3
3D Hidden
350
31
  3
3dWireframe
350
30
  3
Basic
350
32
  3
Brighten
350
36
  3
ColorChange
350
3A
  3
Conceptual
350
34
  3
Dim
350
35
  3
Facepattern
350
39
  3
Flat
350
2B
  3
FlatWithEdges
350
2C
  3
Gouraud
350
2D
  3
GouraudWithEdges
350
2E
  3
Linepattern
350
38
  3
Realistic
350
33
  3
Thicken
350
37
  0
DICTIONARY
  5
119
102
{ACAD_REACTORS
330
C
102
}
330
C
100
AcDbDictionary
281
     1
  3
CANNOSCALE
350
11A
  3
PSOLHEIGHT
350
11E
  3
PSOLWIDTH
350
11D
  0
LAYOUT
  5
1E
102
{ACAD_REACTORS
330
1A
102
}
330
1A
100
AcDbPlotSettings
  1

  2
none_device
  4

  6

 40
0.0
 41
0.0
 42
0.0
 43
0.0
 44
0.0
 45
0.0
 46
0.0
 47
0.0
 48
0.0
 49
0.0
140
0.0
141
0.0
142
1.0
143
1.0
 70
   688
 72
     0
 73
     0
 74
     5
  7

 75
    16
147
1.0
148
0.0
149
0.0
100
AcDbLayout
  1
Layout1
 70
     1
 71
     1
 10
0.0
 20
0.0
 11
420.0
 21
297.0
 12
0.0
 22
0.0
 32
0.0
 14
1.000000000000000E+20
 24
1.000000000000000E+20
 34
1.000000000000000E+20
 15
-1.000000000000000E+20
 25
-1.000000000000000E+20
 35
-1.000000000000000E+20
146
0.0
 13
0.0
 23
0.0
 33
0.0
 16
1.0
 26
0.0
 36
0.0
 17
0.0
 27
1.0
 37
0.0
 76
     0
330
1B
  0
LAYOUT
  5
26
102
{ACAD_REACTORS
330
1A
102
}
330
1A
100
AcDbPlotSettings
  1

  2
none_device
  4

  6

 40
0.0
 41
0.0
 42
0.0
 43
0.0
 44
0.0
 45
0.0
 46
0.0
 47
0.0
 48
0.0
 49
0.0
140
0.0
141
0.0
142
1.0
143
1.0
 70
   688
 72
     0
 73
     0
 74
     5
  7

 75
    16
147
1.0
148
0.0
149
0.0
100
AcDbLayout
  1
Layout2
 70
     1
 71
     2
 10
0.0
 20
0.0
 11
0.0
 21
0.0
 12
0.0
 22
0.0
 32
0.0
 14
0.0
 24
0.0
 34
0.0
 15
0.0
 25
0.0
 35
0.0
146
0.0
 13
0.0
 23
0.0
 33
0.0
 16
1.0
 26
0.0
 36
0.0
 17
0.0
 27
1.0
 37
0.0
 76
     0
330
23
  0
LAYOUT
  5
22
102
{ACAD_REACTORS
330
1A
102
}
330
1A
100
AcDbPlotSettings
  1

  2
none_device
  4

  6

 40
0.0
 41
0.0
 42
0.0
 43
0.0
 44
0.0
 45
0.0
 46
0.0
 47
0.0
 48
0.0
 49
0.0
140
0.0
141
0.0
142
1.0
143
1.0
 70
  1712
 72
     0
 73
     0
 74
     0
  7

 75
     0
147
1.0
148
0.0
149
0.0
100
AcDbLayout
  1
Model
 70
     1
 71
     0
 10
0.0
 20
0.0
 11
420.0
 21
297.0
 12
0.0
 22
0.0
 32
0.0
 14
1.000000000000000E+20
 24
1.000000000000000E+20
 34
1.000000000000000E+20
 15
-1.000000000000000E+20
 25
-1.000000000000000E+20
 35
-1.000000000000000E+20
146
0.0
 13
0.0
 23
0.0
 33
0.0
 16
1.0
 26
0.0
 36
0.0
 17
0.0
 27
1.0
 37
0.0
 76
     0
330
1F
331
29
  0
MLINESTYLE
  5
18
102
{ACAD_REACTORS
330
17
102
}
330
17
100
AcDbMlineStyle
  2
Standard
 70
     0
  3

 62
   256
 51
90.0
 52
90.0
 71
     2
 49
0.5
 62
   256
  6
BYLAYER
 49
-0.5
 62
   256
  6
BYLAYER
  0
ACDBPLACEHOLDER
  5
F
102
{ACAD_REACTORS
330
E
102
}
330
E
  0
SCALE
  5
3C
102
{ACAD_REACTORS
330
3B
102
}
330
3B
100
AcDbScale
 70
     0
300
1:1
140
1.0
141
1.0
290
     1
  0
SCALE
  5
3D
102
{ACAD_REACTORS
330
3B
102
}
330
3B
100
AcDbScale
 70
     0
300
1:2
140
1.0
141
2.0
290
     0
  0
SCALE
  5
3E
102
{ACAD_REACTORS
330
3B
102
}
330
3B
100
AcDbScale
 70
     0
300
1:4
140
1.0
141
4.0
290
     0
  0
SCALE
  5
3F
102
{ACAD_REACTORS
330
3B
102
}
330
3B
100
AcDbScale
 70
     0
300
1:5
140
1.0
141
5.0
290
     0
  0
SCALE
  5
40
102
{ACAD_REACTORS
330
3B
102
}
330
3B
100
AcDbScale
 70
     0
300
1:8
140
1.0
141
8.0
290
     0
  0
SCALE
  5
41
102
{ACAD_REACTORS
330
3B
102
}
330
3B
100
AcDbScale
 70
     0
300
1:10
140
1.0
141
10.0
290
     0
  0
SCALE
  5
42
102
{ACAD_REACTORS
330
3B
102
}
330
3B
100
AcDbScale
 70
     0
300
1:16
140
1.0
141
16.0
290
     0
  0
SCALE
  5
43
102
{ACAD_REACTORS
330
3B
102
}
330
3B
100
AcDbScale
 70
     0
300
1:20
140
1.0
141
20.0
290
     0
  0
SCALE
  5
44
102
{ACAD_REACTORS
330
3B
102
}
330
3B
100
AcDbScale
 70
     0
300
1:30
140
1.0
141
30.0
290
     0
  0
SCALE
  5
45
102
{ACAD_REACTORS
330
3B
102
}
330
3B
100
AcDbScale
 70
     0
300
1:40
140
1.0
141
40.0
290
     0
  0
SCALE
  5
46
102
{ACAD_REACTORS
330
3B
102
}
330
3B
100
AcDbScale
 70
     0
300
1:50
140
1.0
141
50.0
290
     0
  0
SCALE
  5
47
102
{ACAD_REACTORS
330
3B
102
}
330
3B
100
AcDbScale
 70
     0
300
1:100
140
1.0
141
100.0
290
     0
  0
SCALE
  5
48
102
{ACAD_REACTORS
330
3B
102
}
330
3B
100
AcDbScale
 70
     0
300
2:1
140
2.0
141
1.0
290
     0
  0
SCALE
  5
49
102
{ACAD_REACTORS
330
3B
102
}
330
3B
100
AcDbScale
 70
     0
300
4:1
140
4.0
141
1.0
290
     0
  0
SCALE
  5
4A
102
{ACAD_REACTORS
330
3B
102
}
330
3B
100
AcDbScale
 70
     0
300
8:1
140
8.0
141
1.0
290
     0
  0
SCALE
  5
4B
102
{ACAD_REACTORS
330
3B
102
}
330
3B
100
AcDbScale
 70
     0
300
10:1
140
10.0
141
1.0
290
     0
  0
SCALE
  5
4C
102
{ACAD_REACTORS
330
3B
102
}
330
3B
100
AcDbScale
 70
     0
300
100:1
140
100.0
141
1.0
290
     0
  0
SCALE
  5
4D
102
{ACAD_REACTORS
330
3B
102
}
330
3B
100
AcDbScale
 70
     0
300
1/128" = 1'-0"
140
0.0078125
141
12.0
290
     0
  0
SCALE
  5
4E
102
{ACAD_REACTORS
330
3B
102
}
330
3B
100
AcDbScale
 70
     0
300
1/64" = 1'-0"
140
0.015625
141
12.0
290
     0
  0
SCALE
  5
4F
102
{ACAD_REACTORS
330
3B
102
}
330
3B
100
AcDbScale
 70
     0
300
1/32" = 1'-0"
140
0.03125
141
12.0
290
     0
  0
SCALE
  5
50
102
{ACAD_REACTORS
330
3B
102
}
330
3B
100
AcDbScale
 70
     0
300
1/16" = 1'-0"
140
0.0625
141
12.0
290
     0
  0
SCALE
  5
51
102
{ACAD_REACTORS
330
3B
102
}
330
3B
100
AcDbScale
 70
     0
300
3/32" = 1'-0"
140
0.09375
141
12.0
290
     0
  0
SCALE
  5
52
102
{ACAD_REACTORS
330
3B
102
}
330
3B
100
AcDbScale
 70
     0
300
1/8" = 1'-0"
140
0.125
141
12.0
290
     0
  0
SCALE
  5
53
102
{ACAD_REACTORS
330
3B
102
}
330
3B
100
AcDbScale
 70
     0
300
3/16" = 1'-0"
140
0.1875
141
12.0
290
     0
  0
SCALE
  5
54
102
{ACAD_REACTORS
330
3B
102
}
330
3B
100
AcDbScale
 70
     0
300
1/4" = 1'-0"
140
0.25
141
12.0
290
     0
  0
SCALE
  5
55
102
{ACAD_REACTORS
330
3B
102
}
330
3B
100
AcDbScale
 70
     0
300
3/8" = 1'-0"
140
0.375
141
12.0
290
     0
  0
SCALE
  5
56
102
{ACAD_REACTORS
330
3B
102
}
330
3B
100
AcDbScale
 70
     0
300
1/2" = 1'-0"
140
0.5
141
12.0
290
     0
  0
SCALE
  5
57
102
{ACAD_REACTORS
330
3B
102
}
330
3B
100
AcDbScale
 70
     0
300
3/4" = 1'-0"
140
0.75
141
12.0
290
     0
  0
SCALE
  5
58
102
{ACAD_REACTORS
330
3B
102
}
330
3B
100
AcDbScale
 70
     0
300
1" = 1'-0"
140
1.0
141
12.0
290
     0
  0
SCALE
  5
59
102
{ACAD_REACTORS
330
3B
102
}
330
3B
100
AcDbScale
 70
     0
300
1-1/2" = 1'-0"
140
1.5
141
12.0
290
     0
  0
SCALE
  5
5A
102
{ACAD_REACTORS
330
3B
102
}
330
3B
100
AcDbScale
 70
     0
300
3" = 1'-0"
140
3.0
141
12.0
290
     0
  0
SCALE
  5
5B
102
{ACAD_REACTORS
330
3B
102
}
330
3B
100
AcDbScale
 70
     0
300
6" = 1'-0"
140
6.0
141
12.0
290
     0
  0
SCALE
  5
5C
102
{ACAD_REACTORS
330
3B
102
}
330
3B
100
AcDbScale
 70
     0
300
1'-0" = 1'-0"
140
12.0
141
12.0
290
     0
  0
VISUALSTYLE
  5
2F
102
{ACAD_REACTORS
330
2A
102
}
330
2A
100
AcDbVisualStyle
  2
2dWireframe
 70
     4
 71
     0
 72
     2
 73
     0
 90
        0
 40
-0.6
 41
-30.0
 62
     5
 63
     7
 74
     1
 91
        4
 64
     7
 65
   257
 75
     1
175
     1
 42
1.0
 92
        0
 66
   257
 43
1.0
 76
     1
 77
     6
 78
     2
 67
     7
 79
     5
170
     0
171
     0
290
     0
174
     0
 93
        1
 44
0.0
173
     0
291
     0
 45
0.0
1001
ACAD
1000
AcDbSavedByObjectVersion
1070
     0
  0
VISUALSTYLE
  5
31
102
{ACAD_REACTORS
330
2A
102
}
330
2A
100
AcDbVisualStyle
  2
3D Hidden
 70
     6
 71
     1
 72
     2
 73
     2
 90
        0
 40
-0.6
 41
-30.0
 62
     5
 63
     7
 74
     2
 91
        2
 64
     7
 65
   257
 75
     2
175
     1
 42
40.0
 92
        0
 66
   257
 43
1.0
 76
     1
 77
     6
 78
     2
 67
     7
 79
     3
170
     0
171
     0
290
     0
174
     0
 93
        1
 44
0.0
173
     0
291
     0
 45
0.0
1001
ACAD
1000
AcDbSavedByObjectVersion
1070
     0
  0
VISUALSTYLE
  5
30
102
{ACAD_REACTORS
330
2A
102
}
330
2A
100
AcDbVisualStyle
  2
3dWireframe
 70
     5
 71
     0
 72
     2
 73
     0
 90
        0
 40
-0.6
 41
-30.0
 62
     5
 63
     7
 74
     1
 91
        4
 64
     7
 65
   257
 75
     1
175
     1
 42
1.0
 92
        0
 66
   257
 43
1.0
 76
     1
 77
     6
 78
     2
 67
     7
 79
     5
170
     0
171
     0
290
     0
174
     0
 93
        1
 44
0.0
173
     0
291
     0
 45
0.0
1001
ACAD
1000
AcDbSavedByObjectVersion
1070
     0
  0
VISUALSTYLE
  5
32
102
{ACAD_REACTORS
330
2A
102
}
330
2A
100
AcDbVisualStyle
  2
Basic
 70
     7
 71
     1
 72
     0
 73
     1
 90
        0
 40
-0.6
 41
-30.0
 62
     5
 63
     7
 74
     0
 91
        4
 64
     7
 65
   257
 75
     1
175
     1
 42
1.0
 92
        8
 66
     7
 43
1.0
 76
     1
 77
     6
 78
     2
 67
     7
 79
     5
170
     0
171
     0
290
     0
174
     0
 93
        1
 44
0.0
173
     0
291
     1
 45
0.0
1001
ACAD
1000
AcDbSavedByObjectVersion
1070
     0
  0
VISUALSTYLE
  5
36
102
{ACAD_REACTORS
330
2A
102
}
330
2A
100
AcDbVisualStyle
  2
Brighten
 70
    12
 71
     2
 72
     2
 73
     0
 90
        0
 40
-0.6
 41
-30.0
 62
     5
 63
     7
 74
     1
 91
        4
 64
     7
 65
   257
 75
     1
175
     1
 42
1.0
 92
        8
 66
     7
 43
1.0
 76
     1
 77
     6
 78
     2
 67
     7
 79
     5
170
     0
171
     0
290
     0
174
     0
 93
        1
 44
50.0
173
     0
291
     1
 45
0.0
1001
ACAD
1000
AcDbSavedByObjectVersion
1070
     0
  0
VISUALSTYLE
  5
3A
102
{ACAD_REACTORS
330
2A
102
}
330
2A
100
AcDbVisualStyle
  2
ColorChange
 70
    16
 71
     2
 72
     2
 73
     3
 90
        0
 40
-0.6
 41
-30.0
 62
     5
 63
     8
 74
     1
 91
        4
 64
     7
 65
   257
 75
     1
175
     1
 42
1.0
 92
        8
 66
     8
 43
1.0
 76
     1
 77
     6
 78
     2
 67
     7
 79
     5
170
     0
171
     0
290
     0
174
     0
 93
        1
 44
0.0
173
     0
291
     1
 45
0.0
1001
ACAD
1000
AcDbSavedByObjectVersion
1070
     0
  0
VISUALSTYLE
  5
34
102
{ACAD_REACTORS
330
2A
102
}
330
2A
100
AcDbVisualStyle
  2
Conceptual
 70
     9
 71
     3
 72
     2
 73
     0
 90
        0
 40
-0.6
 41
-30.0
 62
     5
 63
     7
 74
     2
 91
        2
 64
     7
 65
   257
 75
     1
175
     1
 42
40.0
 92
        8
 66
     7
 43
1.0
 76
     1
 77
     6
 78
     2
 67
     7
 79
     3
170
     0
171
     0
290
     0
174
     0
 93
        1
 44
0.0
173
     0
291
     0
 45
0.0
1001
ACAD
1000
AcDbSavedByObjectVersion
1070
     0
  0
VISUALSTYLE
  5
35
102
{ACAD_REACTORS
330
2A
102
}
330
2A
100
AcDbVisualStyle
  2
Dim
 70
    11
 71
     2
 72
     2
 73
     0
 90
        0
 40
-0.6
 41
-30.0
 62
     5
 63
     7
 74
     1
 91
        4
 64
     7
 65
   257
 75
     1
175
     1
 42
1.0
 92
        8
 66
     7
 43
1.0
 76
     1
 77
     6
 78
     2
 67
     7
 79
     5
170
     0
171
     0
290
     0
174
     0
 93
        1
 44
-50.0
173
     0
291
     1
 45
0.0
1001
ACAD
1000
AcDbSavedByObjectVersion
1070
     0
  0
VISUALSTYLE
  5
39
102
{ACAD_REACTORS
330
2A
102
}
330
2A
100
AcDbVisualStyle
  2
Facepattern
 70
    15
 71
     2
 72
     2
 73
     0
 90
        0
 40
-0.6
 41
-30.0
 62
     5
 63
     7
 74
     1
 91
        4
 64
     7
 65
   257
 75
     1
175
     1
 42
1.0
 92
        8
 66
     7
 43
1.0
 76
     1
 77
     6
 78
     2
 67
     7
 79
     5
170
     0
171
     0
290
     0
174
     0
 93
        1
 44
0.0
173
     0
291
     1
 45
0.0
1001
ACAD
1000
AcDbSavedByObjectVersion
1070
     0
  0
VISUALSTYLE
  5
2B
102
{ACAD_REACTORS
330
2A
102
}
330
2A
100
AcDbVisualStyle
  2
Flat
 70
     0
 71
     2
 72
     1
 73
     1
 90
        2
 40
-0.6
 41
30.0
 62
     5
 63
     7
 74
     0
 91
        4
 64
     7
 65
   257
 75
     1
175
     1
 42
1.0
 92
        8
 66
     7
 43
1.0
 76
     1
 77
     6
 78
     2
 67
     7
 79
     5
170
     0
171
     0
290
     0
174
     0
 93
       13
 44
0.0
173
     0
291
     1
 45
0.0
1001
ACAD
1000
AcDbSavedByObjectVersion
1070
     0
  0
VISUALSTYLE
  5
2C
102
{ACAD_REACTORS
330
2A
102
}
330
2A
100
AcDbVisualStyle
  2
FlatWithEdges
 70
     1
 71
     2
 72
     1
 73
     1
 90
        2
 40
-0.6
 41
30.0
 62
     5
 63
     7
 74
     1
 91
        4
 64
     7
 65
   257
 75
     1
175
     1
 42
1.0
 92
        0
 66
   257
 43
1.0
 76
     1
 77
     6
 78
     2
 67
     7
 79
     5
170
     0
171
     0
290
     0
174
     0
 93
       13
 44
0.0
173
     0
291
     1
 45
0.0
1001
ACAD
1000
AcDbSavedByObjectVersion
1070
     0
  0
VISUALSTYLE
  5
2D
102
{ACAD_REACTORS
330
2A
102
}
330
2A
100
AcDbVisualStyle
  2
Gouraud
 70
     2
 71
     2
 72
     2
 73
     1
 90
        2
 40
-0.6
 41
30.0
 62
     5
 63
     7
 74
     0
 91
        4
 64
     7
 65
   257
 75
     1
175
     1
 42
1.0
 92
        0
 66
     7
 43
1.0
 76
     1
 77
     6
 78
     2
 67
     7
 79
     5
170
     0
171
     0
290
     0
174
     0
 93
       13
 44
0.0
173
     0
291
     1
 45
0.0
1001
ACAD
1000
AcDbSavedByObjectVersion
1070
     0
  0
VISUALSTYLE
  5
2E
102
{ACAD_REACTORS
330
2A
102
}
330
2A
100
AcDbVisualStyle
  2
GouraudWithEdges
 70
     3
 71
     2
 72
     2
 73
     1
 90
        2
 40
-0.6
 41
30.0
 62
     5
 63
     7
 74
     1
 91
        4
 64
     7
 65
   257
 75
     1
175
     1
 42
1.0
 92
        0
 66
   257
 43
1.0
 76
     1
 77
     6
 78
     2
 67
     7
 79
     5
170
     0
171
     0
290
     0
174
     0
 93
       13
 44
0.0
173
     0
291
     1
 45
0.0
1001
ACAD
1000
AcDbSavedByObjectVersion
1070
     0
  0
VISUALSTYLE
  5
38
102
{ACAD_REACTORS
330
2A
102
}
330
2A
100
AcDbVisualStyle
  2
Linepattern
 70
    14
 71
     2
 72
     2
 73
     0
 90
        0
 40
-0.6
 41
-30.0
 62
     5
 63
     7
 74
     1
 91
        4
 64
     7
 65
   257
 75
     7
175
     7
 42
1.0
 92
        8
 66
     7
 43
1.0
 76
     1
 77
     6
 78
     2
 67
     7
 79
     5
170
     0
171
     0
290
     0
174
     0
 93
        1
 44
0.0
173
     0
291
     1
 45
0.0
1001
ACAD
1000
AcDbSavedByObjectVersion
1070
     0
  0
VISUALSTYLE
  5
33
102
{ACAD_REACTORS
330
2A
102
}
330
2A
100
AcDbVisualStyle
  2
Realistic
 70
     8
 71
     2
 72
     2
 73
     0
 90
        0
 40
-0.6
 41
-30.0
 62
     5
 63
     7
 74
     1
 91
        0
 64
     7
 65
   257
 75
     1
175
     1
 42
1.0
 92
        8
 66
     8
 43
1.0
 76
     1
 77
     6
 78
     2
 67
     7
 79
     5
170
     0
171
     0
290
     0
174
     0
 93
       13
 44
0.0
173
     0
291
     0
 45
0.0
1001
ACAD
1000
AcDbSavedByObjectVersion
1070
     0
  0
VISUALSTYLE
  5
37
102
{ACAD_REACTORS
330
2A
102
}
330
2A
100
AcDbVisualStyle
  2
Thicken
 70
    13
 71
     2
 72
     2
 73
     0
 90
        0
 40
-0.6
 41
-30.0
 62
     5
 63
     7
 74
     1
 91
        4
 64
     7
 65
   257
 75
     1
175
     1
 42
1.0
 92
       12
 66
     7
 43
1.0
 76
     1
 77
     6
 78
     2
 67
     7
 79
     5
170
     0
171
     0
290
     0
174
     0
 93
        1
 44
0.0
173
     0
291
     1
 45
0.0
1001
ACAD
1000
AcDbSavedByObjectVersion
1070
     0
  0
DICTIONARYVAR
  5
11A
102
{ACAD_REACTORS
330
119
102
}
330
119
100
DictionaryVariables
280
     0
  1
1:1
  0
DICTIONARYVAR
  5
11E
102
{ACAD_REACTORS
330
119
102
}
330
119
100
DictionaryVariables
280
     0
  1
80.000000
  0
DICTIONARYVAR
  5
11D
102
{ACAD_REACTORS
330
119
102
}
330
119
100
DictionaryVariables
280
     0
  1
5.000000
  0
ENDSEC
  0
EOF
