  0
SECTION
  2
HEADER
  9
$ACADVER
  1
AC1021
  9
$ACADMAINTVER
 70
    25
  9
$DWGCODEPAGE
  3
ANSI_1252
  9
$INSBASE
 10
0.0
 20
0.0
 30
0.0
  9
$EXTMIN
 10
1.000000000000000E+20
 20
1.000000000000000E+20
 30
1.000000000000000E+20
  9
$EXTMAX
 10
-1.000000000000000E+20
 20
-1.000000000000000E+20
 30
-1.000000000000000E+20
  9
$LIMMIN
 10
0.0
 20
0.0
  9
$LIMMAX
 10
420.0
 20
297.0
  9
$ORTHOMODE
 70
     0
  9
$REGENMODE
 70
     1
  9
$FILLMODE
 70
     1
  9
$QTEXTMODE
 70
     0
  9
$MIRRTEXT
 70
     1
  9
$LTSCALE
 40
1.0
  9
$ATTMODE
 70
     1
  9
$TEXTSIZE
 40
2.5
  9
$TRACEWID
 40
1.0
  9
$TEXTSTYLE
  7
Standard
  9
$CLAYER
  8
0
  9
$CELTYPE
  6
ByLayer
  9
$CECOLOR
 62
   256
  9
$CELTSCALE
 40
1.0
  9
$DISPSILH
 70
     0
  9
$DIMSCALE
 40
1.0
  9
$DIMASZ
 40
3.0
  9
$DIMEXO
 40
0.625
  9
$DIMDLI
 40
3.75
  9
$DIMRND
 40
0.0
  9
$DIMDLE
 40
0.0
  9
$DIMEXE
 40
1.25
  9
$DIMTP
 40
0.0
  9
$DIMTM
 40
0.0
  9
$DIMTXT
 40
2.085798611111111
  9
$DIMCEN
 40
2.5
  9
$DIMTSZ
 40
0.0
  9
$DIMTOL
 70
     0
  9
$DIMLIM
 70
     0
  9
$DIMTIH
 70
     0
  9
$DIMTOH
 70
     0
  9
$DIMSE1
 70
     0
  9
$DIMSE2
 70
     0
  9
$DIMTAD
 70
     1
  9
$DIMZIN
 70
     8
  9
$DIMBLK
  1

  9
$DIMASO
 70
     1
  9
$DIMSHO
 70
     1
  9
$DIMPOST
  1

  9
$DIMAPOST
  1

  9
$DIMALT
 70
     0
  9
$DIMALTD
 70
     3
  9
$DIMALTF
 40
0.03937007874016
  9
$DIMLFAC
 40
1.0
  9
$DIMTOFL
 70
     1
  9
$DIMTVP
 40
0.0
  9
$DIMTIX
 70
     0
  9
$DIMSOXD
 70
     0
  9
$DIMSAH
 70
     0
  9
$DIMBLK1
  1

  9
$DIMBLK2
  1

  9
$DIMSTYLE
  2
ISO-25
  9
$DIMCLRD
 70
     0
  9
$DIMCLRE
 70
     0
  9
$DIMCLRT
 70
     0
  9
$DIMTFAC
 40
1.0
  9
$DIMGAP
 40
0.625
  9
$DIMJUST
 70
     0
  9
$DIMSD1
 70
     0
  9
$DIMSD2
 70
     0
  9
$DIMTOLJ
 70
     0
  9
$DIMTZIN
 70
     8
  9
$DIMALTZ
 70
     0
  9
$DIMALTTZ
 70
     0
  9
$DIMUPT
 70
     0
  9
$DIMDEC
 70
     2
  9
$DIMTDEC
 70
     2
  9
$DIMALTU
 70
     2
  9
$DIMALTTD
 70
     3
  9
$DIMTXSTY
  7
Standard
  9
$DIMAUNIT
 70
     0
  9
$DIMADEC
 70
     0
  9
$DIMALTRND
 40
0.0
  9
$DIMAZIN
 70
     0
  9
$DIMDSEP
 70
    44
  9
$DIMATFIT
 70
     3
  9
$DIMFRAC
 70
     0
  9
$DIMLDRBLK
  1

  9
$DIMLUNIT
 70
     2
  9
$DIMLWD
 70
    -2
  9
$DIMLWE
 70
    -2
  9
$DIMTMOVE
 70
     0
  9
$DIMFXL
 40
1.0
  9
$DIMFXLON
 70
     0
  9
$DIMJOGANG
 40
0.7853981633974483
  9
$DIMTFILL
 70
     0
  9
$DIMTFILLCLR
 70
     0
  9
$DIMARCSYM
 70
     0
  9
$DIMLTYPE
  6

  9
$DIMLTEX1
  6

  9
$DIMLTEX2
  6

  9
$LUNITS
 70
     2
  9
$LUPREC
 70
     4
  9
$SKETCHINC
 40
1.0
  9
$FILLETRAD
 40
10.0
  9
$AUNITS
 70
     0
  9
$AUPREC
 70
     0
  9
$MENU
  1
.
  9
$ELEVATION
 40
0.0
  9
$PELEVATION
 40
0.0
  9
$THICKNESS
 40
0.0
  9
$LIMCHECK
 70
     0
  9
$CHAMFERA
 40
10.0
  9
$CHAMFERB
 40
10.0
  9
$CHAMFERC
 40
20.0
  9
$CHAMFERD
 40
0.0
  9
$SKPOLY
 70
     0
  9
$TDCREATE
 40
2457301.721293669
  9
$TDUCREATE
 40
2457301.679627002
  9
$TDUPDATE
 40
2457301.72129368
  9
$TDUUPDATE
 40
2457301.679627014
  9
$TDINDWG
 40
0.0000000116
  9
$TDUSRTIMER
 40
0.0000000116
  9
$USRTIMER
 70
     1
  9
$ANGBASE
 50
0.0
  9
$ANGDIR
 70
     0
  9
$PDMODE
 70
     0
  9
$PDSIZE
 40
0.0
  9
$PLINEWID
 40
0.0
  9
$SPLFRAME
 70
     0
  9
$SPLINETYPE
 70
     6
  9
$SPLINESEGS
 70
     8
  9
$HANDSEED
  5
3D1
  9
$SURFTAB1
 70
     6
  9
$SURFTAB2
 70
     6
  9
$SURFTYPE
 70
     6
  9
$SURFU
 70
     6
  9
$SURFV
 70
     6
  9
$UCSBASE
  2

  9
$UCSNAME
  2

  9
$UCSORG
 10
0.0
 20
0.0
 30
0.0
  9
$UCSXDIR
 10
1.0
 20
0.0
 30
0.0
  9
$UCSYDIR
 10
0.0
 20
1.0
 30
0.0
  9
$UCSORTHOREF
  2

  9
$UCSORTHOVIEW
 70
     0
  9
$UCSORGTOP
 10
0.0
 20
0.0
 30
0.0
  9
$UCSORGBOTTOM
 10
0.0
 20
0.0
 30
0.0
  9
$UCSORGLEFT
 10
0.0
 20
0.0
 30
0.0
  9
$UCSORGRIGHT
 10
0.0
 20
0.0
 30
0.0
  9
$UCSORGFRONT
 10
0.0
 20
0.0
 30
0.0
  9
$UCSORGBACK
 10
0.0
 20
0.0
 30
0.0
  9
$PUCSBASE
  2

  9
$PUCSNAME
  2

  9
$PUCSORG
 10
0.0
 20
0.0
 30
0.0
  9
$PUCSXDIR
 10
1.0
 20
0.0
 30
0.0
  9
$PUCSYDIR
 10
0.0
 20
1.0
 30
0.0
  9
$PUCSORTHOREF
  2

  9
$PUCSORTHOVIEW
 70
     0
  9
$PUCSORGTOP
 10
0.0
 20
0.0
 30
0.0
  9
$PUCSORGBOTTOM
 10
0.0
 20
0.0
 30
0.0
  9
$PUCSORGLEFT
 10
0.0
 20
0.0
 30
0.0
  9
$PUCSORGRIGHT
 10
0.0
 20
0.0
 30
0.0
  9
$PUCSORGFRONT
 10
0.0
 20
0.0
 30
0.0
  9
$PUCSORGBACK
 10
0.0
 20
0.0
 30
0.0
  9
$USERI1
 70
     0
  9
$USERI2
 70
     0
  9
$USERI3
 70
     0
  9
$USERI4
 70
     0
  9
$USERI5
 70
     0
  9
$USERR1
 40
0.0
  9
$USERR2
 40
0.0
  9
$USERR3
 40
0.0
  9
$USERR4
 40
0.0
  9
$USERR5
 40
0.0
  9
$WORLDVIEW
 70
     1
  9
$SHADEDGE
 70
     3
  9
$SHADEDIF
 70
    70
  9
$TILEMODE
 70
     1
  9
$MAXACTVP
 70
    64
  9
$PINSBASE
 10
0.0
 20
0.0
 30
0.0
  9
$PLIMCHECK
 70
     0
  9
$PEXTMIN
 10
1.000000000000000E+20
 20
1.000000000000000E+20
 30
1.000000000000000E+20
  9
$PEXTMAX
 10
-1.000000000000000E+20
 20
-1.000000000000000E+20
 30
-1.000000000000000E+20
  9
$PLIMMIN
 10
0.0
 20
0.0
  9
$PLIMMAX
 10
420.0
 20
297.0
  9
$UNITMODE
 70
     0
  9
$VISRETAIN
 70
     1
  9
$PLINEGEN
 70
     0
  9
$PSLTSCALE
 70
     1
  9
$TREEDEPTH
 70
  3020
  9
$CMLSTYLE
  2
Standard
  9
$CMLJUST
 70
     0
  9
$CMLSCALE
 40
20.0
  9
$PROXYGRAPHICS
 70
     1
  9
$MEASUREMENT
 70
     1
  9
$CELWEIGHT
370
    -1
  9
$ENDCAPS
280
     0
  9
$JOINSTYLE
280
     0
  9
$LWDISPLAY
290
     0
  9
$INSUNITS
 70
     4
  9
$HYPERLINKBASE
  1

  9
$STYLESHEET
  1

  9
$XEDIT
290
     1
  9
$CEPSNTYPE
380
     0
  9
$PSTYLEMODE
290
     1
  9
$FINGERPRINTGUID
  2
{ADBD2B14-B317-42C3-8934-F0A7677051F9}
  9
$VERSIONGUID
  2
{FAEB1C32-E019-11D5-929B-00C0DF256EC4}
  9
$EXTNAMES
290
     1
  9
$PSVPSCALE
 40
0.0
  9
$OLESTARTUP
290
     0
  9
$SORTENTS
280
   127
  9
$INDEXCTL
280
     0
  9
$HIDETEXT
280
     1
  9
$XCLIPFRAME
290
     0
  9
$HALOGAP
280
     0
  9
$OBSCOLOR
 70
   257
  9
$OBSLTYPE
280
     0
  9
$INTERSECTIONDISPLAY
280
     0
  9
$INTERSECTIONCOLOR
 70
   257
  9
$DIMASSOC
280
     2
  9
$PROJECTNAME
  1

  9
$CAMERADISPLAY
290
     0
  9
$LENSLENGTH
 40
50.0
  9
$CAMERAHEIGHT
 40
0.0
  9
$STEPSPERSEC
 40
2.0
  9
$STEPSIZE
 40
6.0
  9
$3DDWFPREC
 40
2.0
  9
$PSOLWIDTH
 40
5.0
  9
$PSOLHEIGHT
 40
80.0
  9
$LOFTANG1
 40
1.570796326794897
  9
$LOFTANG2
 40
1.570796326794897
  9
$LOFTMAG1
 40
0.0
  9
$LOFTMAG2
 40
0.0
  9
$LOFTPARAM
 70
     7
  9
$LOFTNORMALS
280
     1
  9
$LATITUDE
 40
37.795
  9
$LONGITUDE
 40
-122.394
  9
$NORTHDIRECTION
 40
0.0
  9
$TIMEZONE
 70
 -8000
  9
$LIGHTGLYPHDISPLAY
280
     1
  9
$TILEMODELIGHTSYNCH
280
     1
  9
$SOLIDHIST
280
     1
  9
$SHOWHIST
280
     1
  9
$DWFFRAME
280
     2
  9
$DGNFRAME
280
     2
  9
$REALWORLDSCALE
290
     1
  9
$INTERFERECOLOR
 62
   256
  9
$CSHADOW
280
     0
  9
$SHADOWPLANELOCATION
 40
0.0
  0
ENDSEC
  0
SECTION
  2
CLASSES
  0
CLASS
  1
ACDBDICTIONARYWDFLT
  2
AcDbDictionaryWithDefault
  3
ObjectDBX Classes
 90
        0
 91
        4
280
     0
281
     0
  0
CLASS
  1
VISUALSTYLE
  2
AcDbVisualStyle
  3
ObjectDBX Classes
 90
     4095
 91
        4
280
     0
281
     0
  0
CLASS
  1
SCALE
  2
AcDbScale
  3
ObjectDBX Classes
 90
     1153
 91
        4
280
     0
281
     0
  0
ENDSEC
  0
SECTION
  2
TABLES
  0
TABLE
  2
VPORT
  5
8
330
0
100
AcDbSymbolTable
 70
     1
  0
VPORT
  5
29
330
8
100
AcDbSymbolTableRecord
100
AcDbViewportTableRecord
  2
*Active
 70
     0
 10
0.0
 20
0.0
 11
1.0
 21
1.0
 12
344.1869158878504
 22
148.5
 13
0.0
 23
0.0
 14
10.0
 24
10.0
 15
10.0
 25
10.0
 16
0.0
 26
0.0
 36
1.0
 17
0.0
 27
0.0
 37
0.0
 40
297.0
 41
1.972972972850329
 42
50.0
 43
0.0
 44
0.0
 50
0.0
 51
0.0
 71
     0
 72
   100
 73
     1
 74
     3
 75
     0
 76
     0
 77
     0
 78
     0
281
     0
 65
     1
110
0.0
120
0.0
130
0.0
111
1.0
121
0.0
131
0.0
112
0.0
122
1.0
132
0.0
 79
     0
146
0.0
 60
     3
 61
     5
292
     1
282
     1
141
0.0
142
0.0
 63
   256
  0
ENDTAB
  0
TABLE
  2
LTYPE
  5
5
330
0
100
AcDbSymbolTable
 70
     1
  0
LTYPE
  5
14
330
5
100
AcDbSymbolTableRecord
100
AcDbLinetypeTableRecord
  2
ByBlock
 70
     0
  3

 72
    65
 73
     0
 40
0.0
  0
LTYPE
  5
15
330
5
100
AcDbSymbolTableRecord
100
AcDbLinetypeTableRecord
  2
ByLayer
 70
     0
  3

 72
    65
 73
     0
 40
0.0
  0
LTYPE
  5
16
330
5
100
AcDbSymbolTableRecord
100
AcDbLinetypeTableRecord
  2
Continuous
 70
     0
  3
Solid line
 72
    65
 73
     0
 40
0.0
  0
ENDTAB
  0
TABLE
  2
LAYER
  5
2
330
0
100
AcDbSymbolTable
 70
     4
  0
LAYER
  5
10
330
2
100
AcDbSymbolTableRecord
100
AcDbLayerTableRecord
  2
0
 70
     0
 62
     7
  6
Continuous
370
    -3
390
F
347
0
  0
LAYER
  5
5D
330
2
100
AcDbSymbolTableRecord
100
AcDbLayerTableRecord
  2
VISIBLE
 70
     0
 62
     7
  6
Continuous
370
     0
390
F
347
0
  0
LAYER
  5
101
330
2
100
AcDbSymbolTableRecord
100
AcDbLayerTableRecord
  2
DIMENSIONS
 70
     0
 62
     7
  6
Continuous
370
     0
390
F
347
0
  0
LAYER
  5
3CD
330
2
100
AcDbSymbolTableRecord
100
AcDbLayerTableRecord
  2
CONTINUOUS
 70
     0
 62
     7
  6
Continuous
370
     0
390
F
347
0
  0
ENDTAB
  0
TABLE
  2
STYLE
  5
3
330
0
100
AcDbSymbolTable
 70
     1
  0
STYLE
  5
11
330
3
100
AcDbSymbolTableRecord
100
AcDbTextStyleTableRecord
  2
Standard
 70
     0
 40
0.125
 41
1.0
 50
0.0
 71
     0
 42
2.5
  3
txt
  4

1001
ACAD
1000
Arial
1071
        0
  0
ENDTAB
  0
TABLE
  2
VIEW
  5
6
330
0
100
AcDbSymbolTable
 70
     0
  0
ENDTAB
  0
TABLE
  2
UCS
  5
7
330
0
100
AcDbSymbolTable
 70
     0
  0
ENDTAB
  0
TABLE
  2
APPID
  5
9
330
0
100
AcDbSymbolTable
 70
     1
  0
APPID
  5
12
330
9
100
AcDbSymbolTableRecord
100
AcDbRegAppTableRecord
  2
ACAD
 70
     0
  0
ENDTAB
  0
TABLE
  2
DIMSTYLE
  5
A
330
0
100
AcDbSymbolTable
 70
     1
100
AcDbDimStyleTable
  0
DIMSTYLE
105
27
102
{ACAD_REACTORS
330
102
330
10F
330
11C
330
129
330
28E
102
}
330
A
100
AcDbSymbolTableRecord
100
AcDbDimStyleTableRecord
  2
ISO-25
 70
     0
 41
2.5
 42
0.625
 43
3.75
 44
1.25
 73
     0
 74
     0
 77
     1
 78
     8
140
2.5
141
2.5
143
0.03937007874016
147
0.625
171
     3
172
     1
271
     2
272
     2
274
     3
278
    44
283
     0
284
     8
340
11
  0
ENDTAB
  0
TABLE
  2
BLOCK_RECORD
  5
1
330
0
100
AcDbSymbolTable
 70
     6
  0
BLOCK_RECORD
  5
1F
330
1
100
AcDbSymbolTableRecord
100
AcDbBlockTableRecord
  2
*Model_Space
340
22
 70
     0
280
     1
281
     0
  0
BLOCK_RECORD
  5
1B
330
1
100
AcDbSymbolTableRecord
100
AcDbBlockTableRecord
  2
*Paper_Space
340
1E
 70
     0
280
     1
281
     0
  0
BLOCK_RECORD
  5
23
330
1
100
AcDbSymbolTableRecord
100
AcDbBlockTableRecord
  2
*Paper_Space0
340
26
 70
     0
280
     1
281
     0
  0
BLOCK_RECORD
  5
103
330
1
100
AcDbSymbolTableRecord
100
AcDbBlockTableRecord
  2
D1
340
0
 70
     0
280
     1
281
     0
  0
BLOCK_RECORD
  5
110
330
1
100
AcDbSymbolTableRecord
100
AcDbBlockTableRecord
  2
D2
340
0
 70
     0
280
     1
281
     0
  0
BLOCK_RECORD
  5
11D
330
1
100
AcDbSymbolTableRecord
100
AcDbBlockTableRecord
  2
D3
340
0
 70
     0
280
     1
281
     0
  0
BLOCK_RECORD
  5
12A
330
1
100
AcDbSymbolTableRecord
100
AcDbBlockTableRecord
  2
D4
340
0
 70
     0
280
     1
281
     0
  0
BLOCK_RECORD
  5
28F
330
1
100
AcDbSymbolTableRecord
100
AcDbBlockTableRecord
  2
D5
340
0
 70
     0
280
     1
281
     0
  0
ENDTAB
  0
ENDSEC
  0
SECTION
  2
BLOCKS
  0
BLOCK
  5
20
330
1F
100
AcDbEntity
  8
0
100
AcDbBlockBegin
  2
*Model_Space
 70
     0
 10
0.0
 20
0.0
 30
0.0
  3
*Model_Space
  1

  0
ENDBLK
  5
21
330
1F
100
AcDbEntity
  8
0
100
AcDbBlockEnd
  0
BLOCK
  5
1C
330
1B
100
AcDbEntity
 67
     1
  8
0
100
AcDbBlockBegin
  2
*Paper_Space
 70
     0
 10
0.0
 20
0.0
 30
0.0
  3
*Paper_Space
  1

  0
ENDBLK
  5
1D
330
1B
100
AcDbEntity
 67
     1
  8
0
100
AcDbBlockEnd
  0
BLOCK
  5
24
330
23
100
AcDbEntity
  8
0
100
AcDbBlockBegin
  2
*Paper_Space0
 70
     0
 10
0.0
 20
0.0
 30
0.0
  3
*Paper_Space0
  1

  0
ENDBLK
  5
25
330
23
100
AcDbEntity
  8
0
100
AcDbBlockEnd
  0
BLOCK
  5
104
330
103
100
AcDbEntity
  8
0
100
AcDbBlockBegin
  2
D1
 70
     0
 10
0.0
 20
0.0
 30
0.0
  3
D1
  1

  0
MTEXT
  5
106
330
103
100
AcDbEntity
  8
DIMENSIONS
100
AcDbMText
 10
70.00235748291016
 20
151.7900848388672
 30
0.0
 40
2.275416666666667
 41
0.0
 46
0.0
 71
     5
 72
     1
  1
{\fAlibre Symbols|b0|i0|c0|p0;n}{\fArial|b0|i0|c0|p0;6.35}{\fMS Shell Dlg|b0|i0|c0|p0;\H0.9444444x;}
 73
     1
 44
1.0
  0
MTEXT
  5
107
330
103
100
AcDbEntity
  8
DIMENSIONS
100
AcDbMText
 10
70.00235748291016
 20
151.7900848388672
 30
0.0
 40
2.275416666666667
 41
0.0
 46
0.0
 71
     5
 72
     1
  1
{\fArial|b0|i0|c0|p0;}
 73
     1
 44
1.0
  0
MTEXT
  5
108
330
103
100
AcDbEntity
  8
DIMENSIONS
100
AcDbMText
 10
70.00235748291016
 20
151.7900848388672
 30
0.0
 40
2.275416666666667
 41
0.0
 46
0.0
 71
     5
 72
     1
  1
{\fArial|b0|i0|c0|p0;}
 73
     1
 44
1.0
  0
LINE
  5
109
330
103
100
AcDbEntity
  8
DIMENSIONS
100
AcDbLine
 10
77.82901863526583
 20
161.4624523380684
 30
0.0
 11
75.59164730969664
 21
148.7736890156339
 31
0.0
  0
LINE
  5
10A
330
103
100
AcDbEntity
  8
DIMENSIONS
100
AcDbLine
 10
65.32196017201079
 20
163.6677841944384
 30
0.0
 11
63.0845888464416
 21
150.9790208720039
 31
0.0
  0
LWPOLYLINE
  5
10B
330
103
100
AcDbEntity
  8
DIMENSIONS
100
AcDbPolyline
 90
        4
 70
     0
 43
0.0
 10
75.9389436650305
 20
150.7433045216583
 10
72.89769631716041
 20
150.771845178153
 10
73.07134449482734
 20
151.7566529311652
 10
75.9389436650305
 20
150.7433045216583
  0
LINE
  5
10C
330
103
100
AcDbEntity
  8
DIMENSIONS
100
AcDbLine
 10
72.98452040599388
 20
151.2642490546591
 30
0.0
 11
72.98452040599388
 21
151.2642490546591
 31
0.0
  0
LWPOLYLINE
  5
10D
330
103
100
AcDbEntity
  8
DIMENSIONS
100
AcDbPolyline
 90
        4
 70
     0
 43
0.0
 10
63.43188520177546
 20
152.9486363780283
 10
66.47313254964554
 20
152.9200957215336
 10
66.29948437197861
 20
151.9352879685214
 10
63.43188520177546
 20
152.9486363780283
  0
LINE
  5
10E
330
103
100
AcDbEntity
  8
DIMENSIONS
100
AcDbLine
 10
66.38630846081207
 20
152.4276918450275
 30
0.0
 11
66.38630846081207
 21
152.4276918450275
 31
0.0
  0
ENDBLK
  5
105
330
103
100
AcDbEntity
  8
0
100
AcDbBlockEnd
  0
BLOCK
  5
111
330
110
100
AcDbEntity
  8
0
100
AcDbBlockBegin
  2
D2
 70
     0
 10
0.0
 20
0.0
 30
0.0
  3
D2
  1

  0
MTEXT
  5
113
330
110
100
AcDbEntity
  8
DIMENSIONS
100
AcDbMText
 10
107.781867980957
 20
166.1536407470703
 30
0.0
 40
2.275416666666667
 41
0.0
 46
0.0
 71
     5
 72
     1
  1
{\fArial|b0|i0|c0|p0;25.4}{\fArial|b0|i0|c0|p0;}
 73
     1
 44
1.0
  0
MTEXT
  5
114
330
110
100
AcDbEntity
  8
DIMENSIONS
100
AcDbMText
 10
107.781867980957
 20
166.1536407470703
 30
0.0
 40
2.275416666666667
 41
0.0
 46
0.0
 71
     5
 72
     1
  1
{\fArial|b0|i0|c0|p0;}
 73
     1
 44
1.0
  0
MTEXT
  5
115
330
110
100
AcDbEntity
  8
DIMENSIONS
100
AcDbMText
 10
107.781867980957
 20
166.1536407470703
 30
0.0
 40
2.275416666666667
 41
0.0
 46
0.0
 71
     5
 72
     1
  1
{\fArial|b0|i0|c0|p0;}
 73
     1
 44
1.0
  0
LINE
  5
116
330
110
100
AcDbEntity
  8
DIMENSIONS
100
AcDbLine
 10
74.76856339466016
 20
189.9347337722778
 30
0.0
 11
109.781867980957
 21
189.9347337722778
 31
0.0
  0
LINE
  5
117
330
110
100
AcDbEntity
  8
DIMENSIONS
100
AcDbLine
 10
74.76856339466016
 20
139.1347337722778
 30
0.0
 11
109.781867980957
 21
139.1347337722778
 31
0.0
  0
LWPOLYLINE
  5
118
330
110
100
AcDbEntity
  8
DIMENSIONS
100
AcDbPolyline
 90
        4
 70
     0
 43
0.0
 10
107.781867980957
 20
189.9347337722778
 10
108.281867980957
 20
186.9347337722778
 10
107.281867980957
 20
186.9347337722778
 10
107.781867980957
 20
189.9347337722778
  0
LINE
  5
119
330
110
100
AcDbEntity
  8
DIMENSIONS
100
AcDbLine
 10
107.781867980957
 20
186.9347337722778
 30
0.0
 11
107.7818675041199
 21
169.7411406040192
 31
0.0
  0
LWPOLYLINE
  5
11A
330
110
100
AcDbEntity
  8
DIMENSIONS
100
AcDbPolyline
 90
        4
 70
     0
 43
0.0
 10
107.781867980957
 20
139.1347337722778
 10
107.281867980957
 20
142.1347337722778
 10
108.281867980957
 20
142.1347337722778
 10
107.781867980957
 20
139.1347337722778
  0
LINE
  5
11B
330
110
100
AcDbEntity
  8
DIMENSIONS
100
AcDbLine
 10
107.781867980957
 20
142.1347337722779
 30
0.0
 11
107.7818675041199
 21
162.5661407471634
 31
0.0
  0
ENDBLK
  5
112
330
110
100
AcDbEntity
  8
0
100
AcDbBlockEnd
  0
BLOCK
  5
11E
330
11D
100
AcDbEntity
  8
0
100
AcDbBlockBegin
  2
D3
 70
     0
 10
0.0
 20
0.0
 30
0.0
  3
D3
  1

  0
MTEXT
  5
120
330
11D
100
AcDbEntity
  8
DIMENSIONS
100
AcDbMText
 10
65.08375549316406
 20
176.6067047119141
 30
0.0
 40
2.275416666666667
 41
0.0
 46
0.0
 71
     5
 72
     1
  1
{\fArial|b0|i0|c0|p0;7.938}{\fArial|b0|i0|c0|p0;}
 73
     1
 44
1.0
  0
MTEXT
  5
121
330
11D
100
AcDbEntity
  8
DIMENSIONS
100
AcDbMText
 10
65.08375549316406
 20
176.6067047119141
 30
0.0
 40
2.275416666666667
 41
0.0
 46
0.0
 71
     5
 72
     1
  1
{\fArial|b0|i0|c0|p0;}
 73
     1
 44
1.0
  0
MTEXT
  5
122
330
11D
100
AcDbEntity
  8
DIMENSIONS
100
AcDbMText
 10
65.08375549316406
 20
176.6067047119141
 30
0.0
 40
2.275416666666667
 41
0.0
 46
0.0
 71
     5
 72
     1
  1
{\fArial|b0|i0|c0|p0;}
 73
     1
 44
1.0
  0
LINE
  5
123
330
11D
100
AcDbEntity
  8
DIMENSIONS
100
AcDbLine
 10
56.04778575897218
 20
166.5347337722778
 30
0.0
 11
56.04778575897218
 21
178.6067047119141
 31
0.0
  0
LINE
  5
124
330
11D
100
AcDbEntity
  8
DIMENSIONS
100
AcDbLine
 10
71.92278575897217
 20
166.5347337722778
 30
0.0
 11
71.92278575897217
 21
178.6067047119141
 31
0.0
  0
LWPOLYLINE
  5
125
330
11D
100
AcDbEntity
  8
DIMENSIONS
100
AcDbPolyline
 90
        4
 70
     0
 43
0.0
 10
56.04778575897218
 20
176.6067047119141
 10
59.04778575897218
 20
177.1067047119141
 10
59.04778575897218
 20
176.1067047119141
 10
56.04778575897218
 20
176.6067047119141
  0
LINE
  5
126
330
11D
100
AcDbEntity
  8
DIMENSIONS
100
AcDbLine
 10
59.04778575897218
 20
176.6067047119141
 30
0.0
 11
59.55597758293152
 21
176.6067044734955
 31
0.0
  0
LWPOLYLINE
  5
127
330
11D
100
AcDbEntity
  8
DIMENSIONS
100
AcDbPolyline
 90
        4
 70
     0
 43
0.0
 10
71.92278575897217
 20
176.6067047119141
 10
68.92278575897217
 20
176.1067047119141
 10
68.92278575897217
 20
177.1067047119141
 10
71.92278575897217
 20
176.6067047119141
  0
LINE
  5
128
330
11D
100
AcDbEntity
  8
DIMENSIONS
100
AcDbLine
 10
68.92278575897217
 20
176.6067047119141
 30
0.0
 11
68.92278575897217
 21
176.6067047119141
 31
0.0
  0
ENDBLK
  5
11F
330
11D
100
AcDbEntity
  8
0
100
AcDbBlockEnd
  0
BLOCK
  5
12B
330
12A
100
AcDbEntity
  8
0
100
AcDbBlockBegin
  2
D4
 70
     0
 10
0.0
 20
0.0
 30
0.0
  3
D4
  1

  0
MTEXT
  5
12D
330
12A
100
AcDbEntity
  8
DIMENSIONS
100
AcDbMText
 10
87.58441925048828
 20
170.4943237304688
 30
0.0
 40
2.275416666666667
 41
0.0
 46
0.0
 71
     5
 72
     1
  1
{\fAlibre Symbols|b0|i0|c0|p0;n}{\fArial|b0|i0|c0|p0;3.175}{\fMS Shell Dlg|b0|i0|c0|p0;\H0.9444444x;}
 73
     1
 44
1.0
  0
MTEXT
  5
12E
330
12A
100
AcDbEntity
  8
DIMENSIONS
100
AcDbMText
 10
87.58441925048828
 20
170.4943237304688
 30
0.0
 40
2.275416666666667
 41
0.0
 46
0.0
 71
     5
 72
     1
  1
{\fArial|b0|i0|c0|p0;}
 73
     1
 44
1.0
  0
MTEXT
  5
12F
330
12A
100
AcDbEntity
  8
DIMENSIONS
100
AcDbMText
 10
87.58441925048828
 20
170.4943237304688
 30
0.0
 40
2.275416666666667
 41
0.0
 46
0.0
 71
     5
 72
     1
  1
{\fArial|b0|i0|c0|p0;}
 73
     1
 44
1.0
  0
LINE
  5
130
330
12A
100
AcDbEntity
  8
DIMENSIONS
100
AcDbLine
 10
84.62278575897217
 20
166.5347337722778
 30
0.0
 11
84.62278575897217
 21
172.4943237304688
 31
0.0
  0
LINE
  5
131
330
12A
100
AcDbEntity
  8
DIMENSIONS
100
AcDbLine
 10
90.97278575897218
 20
166.5347337722778
 30
0.0
 11
90.97278575897218
 21
172.4943237304688
 31
0.0
  0
LWPOLYLINE
  5
132
330
12A
100
AcDbEntity
  8
DIMENSIONS
100
AcDbPolyline
 90
        4
 70
     0
 43
0.0
 10
84.62278575897217
 20
170.4943237304688
 10
81.62278575897217
 20
169.9943237304688
 10
81.62278575897217
 20
170.9943237304688
 10
84.62278575897217
 20
170.4943237304688
  0
LINE
  5
133
330
12A
100
AcDbEntity
  8
DIMENSIONS
100
AcDbLine
 10
81.62278575897217
 20
170.4943237304688
 30
0.0
 11
81.02278575897218
 21
170.4943237304688
 31
0.0
  0
LWPOLYLINE
  5
134
330
12A
100
AcDbEntity
  8
DIMENSIONS
100
AcDbPolyline
 90
        4
 70
     0
 43
0.0
 10
90.97278575897218
 20
170.4943237304688
 10
93.97278575897217
 20
170.9943237304688
 10
93.97278575897217
 20
169.9943237304688
 10
90.97278575897218
 20
170.4943237304688
  0
LINE
  5
135
330
12A
100
AcDbEntity
  8
DIMENSIONS
100
AcDbLine
 10
93.97278575897217
 20
170.4943237304688
 30
0.0
 11
94.57278575897217
 21
170.4943237304688
 31
0.0
  0
ENDBLK
  5
12C
330
12A
100
AcDbEntity
  8
0
100
AcDbBlockEnd
  0
BLOCK
  5
290
330
28F
100
AcDbEntity
  8
0
100
AcDbBlockBegin
  2
D5
 70
     0
 10
0.0
 20
0.0
 30
0.0
  3
D5
  1

  0
MTEXT
  5
292
330
28F
100
AcDbEntity
  8
DIMENSIONS
100
AcDbMText
 10
163.3627805709839
 20
135.4999389648438
 30
0.0
 40
2.275416666666667
 41
0.0
 46
0.0
 71
     5
 72
     1
  1
{\fArial|b0|i0|c0|p0;15.24}{\fArial|b0|i0|c0|p0;}
 73
     1
 44
1.0
  0
MTEXT
  5
293
330
28F
100
AcDbEntity
  8
DIMENSIONS
100
AcDbMText
 10
163.3627805709839
 20
135.4999389648438
 30
0.0
 40
2.275416666666667
 41
0.0
 46
0.0
 71
     5
 72
     1
  1
{\fArial|b0|i0|c0|p0;}
 73
     1
 44
1.0
  0
MTEXT
  5
294
330
28F
100
AcDbEntity
  8
DIMENSIONS
100
AcDbMText
 10
163.3627805709839
 20
135.4999389648438
 30
0.0
 40
2.275416666666667
 41
0.0
 46
0.0
 71
     5
 72
     1
  1
{\fArial|b0|i0|c0|p0;}
 73
     1
 44
1.0
  0
LINE
  5
295
330
28F
100
AcDbEntity
  8
DIMENSIONS
100
AcDbLine
 10
148.1227805709839
 20
151.756968470304
 30
0.0
 11
148.1227805709839
 21
133.4999389648438
 31
0.0
  0
LINE
  5
296
330
28F
100
AcDbEntity
  8
DIMENSIONS
100
AcDbLine
 10
178.6027805709839
 20
150.2497816874827
 30
0.0
 11
178.6027805709839
 21
133.4999389648438
 31
0.0
  0
LWPOLYLINE
  5
297
330
28F
100
AcDbEntity
  8
DIMENSIONS
100
AcDbPolyline
 90
        4
 70
     0
 43
0.0
 10
148.1227805709839
 20
135.4999389648438
 10
151.1227805709839
 20
135.9999389648438
 10
151.1227805709839
 20
134.9999389648438
 10
148.1227805709839
 20
135.4999389648438
  0
LINE
  5
298
330
28F
100
AcDbEntity
  8
DIMENSIONS
100
AcDbLine
 10
151.1227805709839
 20
135.4999389648438
 30
0.0
 11
157.8350026702881
 21
135.4999380111694
 31
0.0
  0
LWPOLYLINE
  5
299
330
28F
100
AcDbEntity
  8
DIMENSIONS
100
AcDbPolyline
 90
        4
 70
     0
 43
0.0
 10
178.6027805709839
 20
135.4999389648438
 10
175.6027805709839
 20
134.9999389648438
 10
175.6027805709839
 20
135.9999389648438
 10
178.6027805709839
 20
135.4999389648438
  0
LINE
  5
29A
330
28F
100
AcDbEntity
  8
DIMENSIONS
100
AcDbLine
 10
175.6027805709839
 20
135.4999389648438
 30
0.0
 11
168.8905582523346
 21
135.4999380111694
 31
0.0
  0
ENDBLK
  5
291
330
28F
100
AcDbEntity
  8
0
100
AcDbBlockEnd
  0
ENDSEC
  0
SECTION
  2
ENTITIES
  0
LINE
  5
5E
330
1F
100
AcDbEntity
  8
VISIBLE
100
AcDbLine
 10
50.8766184808723
 20
150.2892368447829
 30
0.0
 11
51.58220747234194
 21
151.335315543348
 31
0.0
  0
LINE
  5
5F
330
1F
100
AcDbEntity
  8
VISIBLE
100
AcDbLine
 10
69.39644730284347
 20
140.4187353351029
 30
0.0
 11
68.78471505645547
 21
139.3151411491795
 31
0.0
  0
LINE
  5
60
330
1F
100
AcDbEntity
  8
VISIBLE
100
AcDbLine
 10
59.63783367417706
 20
142.2871430693878
 30
0.0
 11
59.79160827784351
 21
143.5395367134719
 31
0.0
  0
LINE
  5
61
330
1F
100
AcDbEntity
  8
VISIBLE
100
AcDbLine
 10
81.77772976344711
 20
142.3797378281256
 30
0.0
 11
80.6202358944647
 21
141.9002881692294
 31
0.0
  0
LINE
  5
62
330
1F
100
AcDbEntity
  8
VISIBLE
100
AcDbLine
 10
48.9072450330931
 20
153.756968470304
 30
0.0
 11
49.76778981481996
 21
154.6797897678029
 31
0.0
  0
LINE
  5
63
330
1F
100
AcDbEntity
  8
VISIBLE
100
AcDbLine
 10
73.20012403588724
 20
188.7490306553811
 30
0.0
 11
74.44912421510087
 21
188.6507322094527
 31
0.0
  0
LINE
  5
64
330
1F
100
AcDbEntity
  8
VISIBLE
100
AcDbLine
 10
94.17037646186219
 20
176.8196858570729
 30
0.0
 11
94.93832648485125
 21
175.3124990742517
 31
0.0
  0
LINE
  5
65
330
1F
100
AcDbEntity
  8
VISIBLE
100
AcDbLine
 10
58.72336753004237
 20
144.1941554856476
 30
0.0
 11
57.67728883147721
 21
143.488566494178
 31
0.0
  0
LINE
  5
66
330
1F
100
AcDbEntity
  8
VISIBLE
100
AcDbLine
 10
94.93832648485123
 20
153.756968470304
 30
0.0
 11
94.17037646186218
 21
152.2497816874827
 31
0.0
  0
LINE
  5
67
330
1F
100
AcDbEntity
  8
VISIBLE
100
AcDbLine
 10
75.06085646148888
 20
189.7543263953762
 30
0.0
 11
76.7315858804992
 21
189.4897088514125
 31
0.0
  0
LINE
  5
68
330
1F
100
AcDbEntity
  8
VISIBLE
100
AcDbLine
 10
49.67519505608215
 20
152.2497816874827
 30
0.0
 11
48.9072450330931
 21
153.756968470304
 31
0.0
  0
LINE
  5
69
330
1F
100
AcDbEntity
  8
VISIBLE
100
AcDbLine
 10
85.12220398790197
 20
184.8753120589081
 30
0.0
 11
86.16828268646714
 21
185.5809010503777
 31
0.0
  0
LINE
  5
6A
330
1F
100
AcDbEntity
  8
VISIBLE
100
AcDbLine
 10
95.34666983228533
 20
170.8025421242237
 30
0.0
 11
95.63914473609783
 21
169.5842964746163
 31
0.0
  0
LINE
  5
6B
330
1F
100
AcDbEntity
  8
VISIBLE
100
AcDbLine
 10
67.11398563744514
 20
189.4897088514125
 30
0.0
 11
68.78471505645547
 21
189.7543263953762
 31
0.0
  0
LINE
  5
6C
330
1F
100
AcDbEntity
  8
VISIBLE
100
AcDbLine
 10
50.92758870016621
 20
176.6659112534065
 30
0.0
 11
51.58220747234194
 21
177.7341520012076
 31
0.0
  0
LINE
  5
6D
330
1F
100
AcDbEntity
  8
VISIBLE
100
AcDbLine
 10
75.06085646148885
 20
139.3151411491795
 30
0.0
 11
74.44912421510085
 21
140.418735335103
 31
0.0
  0
LINE
  5
6E
330
1F
100
AcDbEntity
  8
VISIBLE
100
AcDbLine
 10
74.44912421510087
 20
188.6507322094527
 30
0.0
 11
75.06085646148888
 21
189.7543263953762
 31
0.0
  0
LINE
  5
6F
330
1F
100
AcDbEntity
  8
VISIBLE
100
AcDbLine
 10
84.05396324010083
 20
143.5395367134719
 30
0.0
 11
84.20773784376728
 21
142.2871430693878
 31
0.0
  0
LINE
  5
70
330
1F
100
AcDbEntity
  8
VISIBLE
100
AcDbLine
 10
86.16828268646714
 20
185.5809010503777
 30
0.0
 11
87.53677964793485
 21
184.5866298084253
 31
0.0
  0
LINE
  5
71
330
1F
100
AcDbEntity
  8
VISIBLE
100
AcDbLine
 10
47.80678732179727
 20
162.0083953161491
 30
0.0
 11
47.70848887586889
 21
163.2573954953628
 31
0.0
  0
LINE
  5
72
330
1F
100
AcDbEntity
  8
VISIBLE
100
AcDbLine
 10
49.67519505608215
 20
176.819685857073
 30
0.0
 11
50.92758870016621
 21
176.6659112534065
 31
0.0
  0
LINE
  5
73
330
1F
100
AcDbEntity
  8
VISIBLE
100
AcDbLine
 10
48.49890168565901
 20
170.8025421242238
 30
0.0
 11
47.50459058218541
 21
171.5793830976437
 31
0.0
  0
LINE
  5
74
330
1F
100
AcDbEntity
  8
VISIBLE
100
AcDbLine
 10
95.34666983228533
 20
158.2669254203319
 30
0.0
 11
96.34098093575892
 21
157.4900844469119
 31
0.0
  0
LINE
  5
75
330
1F
100
AcDbEntity
  8
VISIBLE
100
AcDbLine
 10
51.87088972282471
 20
148.9207398833152
 30
0.0
 11
50.8766184808723
 21
150.2892368447829
 31
0.0
  0
LINE
  5
76
330
1F
100
AcDbEntity
  8
VISIBLE
100
AcDbLine
 10
87.18898073508177
 20
183.3737108561893
 30
0.0
 11
88.141664729203
 21
182.5600418574602
 31
0.0
  0
LINE
  5
77
330
1F
100
AcDbEntity
  8
VISIBLE
100
AcDbLine
 10
88.141664729203
 20
182.5600418574602
 30
0.0
 11
89.28524289953957
 21
183.093301115987
 31
0.0
  0
LINE
  5
78
330
1F
100
AcDbEntity
  8
VISIBLE
100
AcDbLine
 10
47.50459058218541
 20
157.490084446912
 30
0.0
 11
48.49890168565901
 21
158.2669254203319
 31
0.0
  0
LINE
  5
79
330
1F
100
AcDbEntity
  8
VISIBLE
100
AcDbLine
 10
94.93832648485125
 20
175.3124990742517
 30
0.0
 11
94.07778170312437
 21
174.3896777767528
 31
0.0
  0
LINE
  5
7A
330
1F
100
AcDbEntity
  8
VISIBLE
100
AcDbLine
 10
78.96743508433805
 20
140.1165385954911
 30
0.0
 11
78.1905941109181
 21
141.1108496989647
 31
0.0
  0
LINE
  5
7B
330
1F
100
AcDbEntity
  8
VISIBLE
100
AcDbLine
 10
49.76778981481996
 20
174.3896777767528
 30
0.0
 11
48.9072450330931
 21
175.3124990742517
 31
0.0
  0
LINE
  5
7C
330
1F
100
AcDbEntity
  8
VISIBLE
100
AcDbLine
 10
63.26937177009072
 20
140.6392579212708
 30
0.0
 11
63.22533562347964
 21
141.9002881692294
 31
0.0
  0
LINE
  5
7D
330
1F
100
AcDbEntity
  8
VISIBLE
100
AcDbLine
 10
80.6202358944647
 20
141.9002881692294
 30
0.0
 11
80.57619974785361
 21
140.6392579212708
 31
0.0
  0
LINE
  5
7E
330
1F
100
AcDbEntity
  8
VISIBLE
100
AcDbLine
 10
90.4813531026814
 20
181.8971909128452
 30
0.0
 11
89.94809384415456
 21
180.7536127425087
 31
0.0
  0
LINE
  5
7F
330
1F
100
AcDbEntity
  8
VISIBLE
100
AcDbLine
 10
94.55723136202059
 20
173.2321839077703
 30
0.0
 11
95.8182616099792
 21
173.1881477611593
 31
0.0
  0
LINE
  5
80
330
1F
100
AcDbEntity
  8
VISIBLE
100
AcDbLine
 10
65.65497740702624
 20
141.1108496989647
 30
0.0
 11
64.87813643360629
 21
140.1165385954911
 31
0.0
  0
LINE
  5
81
330
1F
100
AcDbEntity
  8
VISIBLE
100
AcDbLine
 10
90.76176284288368
 20
149.2685387961682
 30
0.0
 11
89.94809384415456
 21
148.315854802047
 31
0.0
  0
CIRCLE
  5
82
330
1F
100
AcDbEntity
  8
VISIBLE
100
AcDbCircle
 10
71.92278575897217
 20
164.5347337722778
 30
0.0
 40
6.349999999999994
  0
LINE
  5
83
330
1F
100
AcDbEntity
  8
VISIBLE
100
AcDbLine
 10
61.1450204569983
 20
187.5502744981569
 30
0.0
 11
62.06784175449722
 21
186.68972971643
 31
0.0
  0
LINE
  5
84
330
1F
100
AcDbEntity
  8
VISIBLE
100
AcDbLine
 10
96.13708264207544
 20
163.2573954953628
 30
0.0
 11
96.03878419614708
 21
162.0083953161491
 31
0.0
  0
LINE
  5
85
330
1F
100
AcDbEntity
  8
VISIBLE
100
AcDbLine
 10
89.94809384415456
 20
180.7536127425087
 30
0.0
 11
90.76176284288368
 21
179.8009287483874
 31
0.0
  0
LINE
  5
86
330
1F
100
AcDbEntity
  8
VISIBLE
100
AcDbLine
 10
53.89747767378978
 20
180.7536127425087
 30
0.0
 11
53.36421841526295
 21
181.8971909128452
 31
0.0
  0
LINE
  5
87
330
1F
100
AcDbEntity
  8
VISIBLE
100
AcDbLine
 10
50.92758870016621
 20
152.4035562911492
 30
0.0
 11
49.67519505608215
 21
152.2497816874827
 31
0.0
  0
LINE
  5
88
330
1F
100
AcDbEntity
  8
VISIBLE
100
AcDbLine
 10
92.96895303707203
 20
150.2892368447829
 30
0.0
 11
91.97468179511962
 21
148.9207398833152
 31
0.0
  0
LINE
  5
89
330
1F
100
AcDbEntity
  8
VISIBLE
100
AcDbLine
 10
70.6454474820571
 20
140.3204368891745
 30
0.0
 11
69.39644730284347
 21
140.4187353351029
 31
0.0
  0
LINE
  5
8A
330
1F
100
AcDbEntity
  8
VISIBLE
100
AcDbLine
 10
74.44912421510085
 20
140.418735335103
 30
0.0
 11
73.20012403588723
 21
140.3204368891746
 31
0.0
  0
LINE
  5
8B
330
1F
100
AcDbEntity
  8
VISIBLE
100
AcDbLine
 10
62.06784175449722
 20
186.68972971643
 30
0.0
 11
63.22533562347964
 21
187.1691793753263
 31
0.0
  0
LINE
  5
8C
330
1F
100
AcDbEntity
  8
VISIBLE
100
AcDbLine
 10
95.63914473609783
 20
169.5842964746163
 30
0.0
 11
96.87776083810682
 21
169.3435338938048
 31
0.0
  0
LINE
  5
8D
330
1F
100
AcDbEntity
  8
VISIBLE
100
AcDbLine
 10
90.76176284288368
 20
179.8009287483874
 30
0.0
 11
91.97468179511964
 21
180.1487276612405
 31
0.0
  0
LINE
  5
8E
330
1F
100
AcDbEntity
  8
VISIBLE
100
AcDbLine
 10
46.96781067983751
 20
169.3435338938048
 30
0.0
 11
48.2064267818465
 21
169.5842964746163
 31
0.0
  0
LINE
  5
8F
330
1F
100
AcDbEntity
  8
VISIBLE
100
AcDbLine
 10
84.20773784376728
 20
142.2871430693878
 30
0.0
 11
82.70055106094603
 21
141.5191930463988
 31
0.0
  0
CIRCLE
  5
90
330
1F
100
AcDbEntity
  8
VISIBLE
100
AcDbCircle
 10
87.79778575897217
 20
164.5347337722778
 30
0.0
 40
3.175000000000011
  0
LINE
  5
91
330
1F
100
AcDbEntity
  8
VISIBLE
100
AcDbLine
 10
73.20012403588723
 20
140.3204368891746
 30
0.0
 11
72.76856339466016
 21
139.1347337722778
 31
0.0
  0
LINE
  5
92
330
1F
100
AcDbEntity
  8
VISIBLE
100
AcDbLine
 10
96.34098093575892
 20
157.4900844469119
 30
0.0
 11
95.8182616099792
 21
155.8813197833964
 31
0.0
  0
LINE
  5
93
330
1F
100
AcDbEntity
  8
VISIBLE
100
AcDbLine
 10
61.14502045699831
 20
141.5191930463988
 30
0.0
 11
59.63783367417705
 21
142.2871430693878
 31
0.0
  0
LINE
  5
94
330
1F
100
AcDbEntity
  8
VISIBLE
100
AcDbLine
 10
48.2064267818465
 20
169.5842964746163
 30
0.0
 11
48.49890168565901
 21
170.8025421242238
 31
0.0
  0
LINE
  5
95
330
1F
100
AcDbEntity
  8
VISIBLE
100
AcDbLine
 10
54.56032861840478
 20
183.0933011159871
 30
0.0
 11
55.70390678874135
 21
182.5600418574602
 31
0.0
  0
LINE
  5
96
330
1F
100
AcDbEntity
  8
VISIBLE
100
AcDbLine
 10
88.14166472920299
 20
146.5094256870954
 30
0.0
 11
87.18898073508177
 21
145.6957566883663
 31
0.0
  0
LINE
  5
97
330
1F
100
AcDbEntity
  8
VISIBLE
100
AcDbLine
 10
48.02730990796513
 20
155.8813197833964
 30
0.0
 11
47.50459058218541
 21
157.490084446912
 31
0.0
  0
LINE
  5
98
330
1F
100
AcDbEntity
  8
VISIBLE
100
AcDbLine
 10
47.70848887586889
 20
165.8120720491929
 30
0.0
 11
47.80678732179727
 21
167.0610722284065
 31
0.0
  0
LINE
  5
99
330
1F
100
AcDbEntity
  8
VISIBLE
100
AcDbLine
 10
94.17037646186218
 20
152.2497816874827
 30
0.0
 11
92.91798281777812
 21
152.4035562911492
 31
0.0
  0
LINE
  5
9A
330
1F
100
AcDbEntity
  8
VISIBLE
100
AcDbLine
 10
81.77772976344713
 20
186.68972971643
 30
0.0
 11
82.70055106094604
 21
187.5502744981569
 31
0.0
  0
LINE
  5
9B
330
1F
100
AcDbEntity
  8
VISIBLE
100
AcDbLine
 10
97.1423783820705
 20
161.3966630697611
 30
0.0
 11
96.87776083810681
 21
159.7259336507508
 31
0.0
  0
LINE
  5
9C
330
1F
100
AcDbEntity
  8
VISIBLE
100
AcDbLine
 10
94.07778170312437
 20
174.3896777767528
 30
0.0
 11
94.55723136202059
 21
173.2321839077703
 31
0.0
  0
LINE
  5
9D
330
1F
100
AcDbEntity
  8
VISIBLE
100
AcDbLine
 10
51.87088972282471
 20
180.1487276612405
 30
0.0
 11
53.08380867506065
 21
179.8009287483874
 31
0.0
  0
LINE
  5
9E
330
1F
100
AcDbEntity
  8
VISIBLE
100
AcDbLine
 10
56.65659078286256
 20
145.6957566883663
 30
0.0
 11
55.70390678874135
 21
146.5094256870954
 31
0.0
  0
LINE
  5
9F
330
1F
100
AcDbEntity
  8
VISIBLE
100
AcDbLine
 10
53.36421841526295
 20
181.8971909128452
 30
0.0
 11
54.56032861840478
 21
183.0933011159871
 31
0.0
  0
LINE
  5
A0
330
1F
100
AcDbEntity
  8
VISIBLE
100
AcDbLine
 10
66.87322305663368
 20
140.8183747951522
 30
0.0
 11
65.65497740702624
 21
141.1108496989647
 31
0.0
  0
LINE
  5
A1
330
1F
100
AcDbEntity
  8
VISIBLE
100
AcDbLine
 10
84.05396324010083
 20
185.5299308310838
 30
0.0
 11
85.12220398790197
 21
184.8753120589081
 31
0.0
  0
LINE
  5
A2
330
1F
100
AcDbEntity
  8
VISIBLE
100
AcDbLine
 10
78.1905941109181
 20
187.958617845591
 30
0.0
 11
78.96743508433805
 21
188.9529289490646
 31
0.0
  0
LINE
  5
A3
330
1F
100
AcDbEntity
  8
VISIBLE
100
AcDbLine
 10
86.16828268646712
 20
143.488566494178
 30
0.0
 11
85.12220398790197
 21
144.1941554856476
 31
0.0
  0
LINE
  5
A4
330
1F
100
AcDbEntity
  8
VISIBLE
100
AcDbLine
 10
46.70319313587382
 20
161.3966630697611
 30
0.0
 11
47.80678732179727
 21
162.0083953161491
 31
0.0
  0
LINE
  5
A5
330
1F
100
AcDbEntity
  8
VISIBLE
100
AcDbLine
 10
96.03878419614708
 20
162.0083953161491
 30
0.0
 11
97.1423783820705
 21
161.3966630697611
 31
0.0
  0
LINE
  5
A6
330
1F
100
AcDbEntity
  8
VISIBLE
100
AcDbLine
 10
64.87813643360629
 20
140.1165385954911
 30
0.0
 11
63.26937177009072
 21
140.6392579212708
 31
0.0
  0
LINE
  5
A7
330
1F
100
AcDbEntity
  8
VISIBLE
100
AcDbLine
 10
48.02730990796513
 20
173.1881477611593
 30
0.0
 11
49.28834015592375
 21
173.2321839077704
 31
0.0
  0
LINE
  5
A8
330
1F
100
AcDbEntity
  8
VISIBLE
100
AcDbLine
 10
89.94809384415456
 20
148.315854802047
 30
0.0
 11
90.48135310268138
 21
147.1722766317104
 31
0.0
  0
LINE
  5
A9
330
1F
100
AcDbEntity
  8
VISIBLE
100
AcDbLine
 10
69.39644730284347
 20
188.6507322094527
 30
0.0
 11
70.6454474820571
 21
188.7490306553811
 31
0.0
  0
LINE
  5
AA
330
1F
100
AcDbEntity
  8
VISIBLE
100
AcDbLine
 10
53.08380867506065
 20
149.2685387961682
 30
0.0
 11
51.87088972282471
 21
148.9207398833152
 31
0.0
  0
LINE
  5
AB
330
1F
100
AcDbEntity
  8
VISIBLE
100
AcDbLine
 10
91.97468179511962
 20
148.9207398833152
 30
0.0
 11
90.76176284288368
 21
149.2685387961682
 31
0.0
  0
LINE
  5
AC
330
1F
100
AcDbEntity
  8
VISIBLE
100
AcDbLine
 10
46.52278575897217
 20
165.3805114079658
 30
0.0
 11
47.70848887586889
 21
165.8120720491929
 31
0.0
  0
LINE
  5
AD
330
1F
100
AcDbEntity
  8
VISIBLE
100
AcDbLine
 10
87.53677964793485
 20
184.5866298084253
 30
0.0
 11
87.18898073508177
 21
183.3737108561893
 31
0.0
  0
LINE
  5
AE
330
1F
100
AcDbEntity
  8
VISIBLE
100
AcDbLine
 10
53.36421841526295
 20
147.1722766317104
 30
0.0
 11
53.89747767378978
 21
148.315854802047
 31
0.0
  0
LINE
  5
AF
330
1F
100
AcDbEntity
  8
VISIBLE
100
AcDbLine
 10
78.96743508433806
 20
188.9529289490646
 30
0.0
 11
80.57619974785362
 21
188.4302096232849
 31
0.0
  0
LINE
  5
B0
330
1F
100
AcDbEntity
  8
VISIBLE
100
AcDbLine
 10
92.96895303707203
 20
178.7802306997728
 30
0.0
 11
92.2633640456024
 21
177.7341520012076
 31
0.0
  0
LINE
  5
B1
330
1F
100
AcDbEntity
  8
VISIBLE
100
AcDbLine
 10
76.7315858804992
 20
189.4897088514125
 30
0.0
 11
76.97234846131066
 21
188.2510927494035
 31
0.0
  0
LINE
  5
B2
330
1F
100
AcDbEntity
  8
VISIBLE
100
AcDbLine
 10
70.6454474820571
 20
188.7490306553811
 30
0.0
 11
71.07700812328417
 21
189.9347337722778
 31
0.0
  0
LINE
  5
B3
330
1F
100
AcDbEntity
  8
VISIBLE
100
AcDbLine
 10
78.1905941109181
 20
141.1108496989647
 30
0.0
 11
76.97234846131065
 21
140.8183747951522
 31
0.0
  0
LINE
  5
B4
330
1F
100
AcDbEntity
  8
VISIBLE
100
AcDbLine
 10
71.07700812328416
 20
139.1347337722778
 30
0.0
 11
70.6454474820571
 21
140.3204368891746
 31
0.0
  0
LINE
  5
B5
330
1F
100
AcDbEntity
  8
VISIBLE
100
AcDbLine
 10
66.87322305663368
 20
188.2510927494035
 30
0.0
 11
67.11398563744514
 21
189.4897088514125
 31
0.0
  0
LINE
  5
B6
330
1F
100
AcDbEntity
  8
VISIBLE
100
AcDbLine
 10
53.08380867506065
 20
179.8009287483874
 30
0.0
 11
53.89747767378978
 21
180.7536127425087
 31
0.0
  0
LINE
  5
B7
330
1F
100
AcDbEntity
  8
VISIBLE
100
AcDbLine
 10
49.28834015592374
 20
155.8372836367853
 30
0.0
 11
48.02730990796513
 21
155.8813197833964
 31
0.0
  0
LINE
  5
B8
330
1F
100
AcDbEntity
  8
VISIBLE
100
AcDbLine
 10
58.72336753004237
 20
184.8753120589081
 30
0.0
 11
59.79160827784351
 21
185.5299308310838
 31
0.0
  0
LINE
  5
B9
330
1F
100
AcDbEntity
  8
VISIBLE
100
AcDbLine
 10
56.30879187000949
 20
144.4828377361304
 30
0.0
 11
56.65659078286256
 21
145.6957566883663
 31
0.0
  0
LINE
  5
BA
330
1F
100
AcDbEntity
  8
VISIBLE
100
AcDbLine
 10
55.70390678874135
 20
182.5600418574602
 30
0.0
 11
56.65659078286257
 21
183.3737108561893
 31
0.0
  0
LINE
  5
BB
330
1F
100
AcDbEntity
  8
VISIBLE
100
AcDbLine
 10
92.91798281777812
 20
152.4035562911492
 30
0.0
 11
92.2633640456024
 21
151.335315543348
 31
0.0
  0
LINE
  5
BC
330
1F
100
AcDbEntity
  8
VISIBLE
100
AcDbLine
 10
51.58220747234194
 20
151.335315543348
 30
0.0
 11
50.92758870016621
 21
152.4035562911492
 31
0.0
  0
LINE
  5
BD
330
1F
100
AcDbEntity
  8
VISIBLE
100
AcDbLine
 10
97.14237838207052
 20
167.6728044747945
 30
0.0
 11
96.03878419614708
 21
167.0610722284065
 31
0.0
  0
LINE
  5
BE
330
1F
100
AcDbEntity
  8
VISIBLE
100
AcDbLine
 10
64.87813643360629
 20
188.9529289490646
 30
0.0
 11
65.65497740702624
 21
187.958617845591
 31
0.0
  0
LINE
  5
BF
330
1F
100
AcDbEntity
  8
VISIBLE
100
AcDbLine
 10
54.56032861840477
 20
145.9761664285686
 30
0.0
 11
53.36421841526295
 21
147.1722766317104
 31
0.0
  0
LINE
  5
C0
330
1F
100
AcDbEntity
  8
VISIBLE
100
AcDbLine
 10
95.8182616099792
 20
155.8813197833964
 30
0.0
 11
94.55723136202059
 21
155.8372836367853
 31
0.0
  0
LINE
  5
C1
330
1F
100
AcDbEntity
  8
VISIBLE
100
AcDbLine
 10
49.28834015592375
 20
173.2321839077704
 30
0.0
 11
49.76778981481996
 21
174.3896777767528
 31
0.0
  0
LINE
  5
C2
330
1F
100
AcDbEntity
  8
VISIBLE
100
AcDbLine
 10
82.70055106094604
 20
187.5502744981569
 30
0.0
 11
84.20773784376728
 21
186.7823244751679
 31
0.0
  0
LINE
  5
C3
330
1F
100
AcDbEntity
  8
VISIBLE
100
AcDbLine
 10
46.96781067983751
 20
159.7259336507508
 30
0.0
 11
46.70319313587382
 21
161.3966630697611
 31
0.0
  0
LINE
  5
C4
330
1F
100
AcDbEntity
  8
VISIBLE
100
AcDbLine
 10
87.18898073508177
 20
145.6957566883663
 30
0.0
 11
87.53677964793484
 21
144.4828377361304
 31
0.0
  0
LINE
  5
C5
330
1F
100
AcDbEntity
  8
VISIBLE
100
AcDbLine
 10
96.13708264207544
 20
165.8120720491929
 30
0.0
 11
97.32278575897216
 21
165.3805114079658
 31
0.0
  0
LINE
  5
C6
330
1F
100
AcDbEntity
  8
VISIBLE
100
AcDbLine
 10
65.65497740702624
 20
187.958617845591
 30
0.0
 11
66.87322305663368
 21
188.2510927494035
 31
0.0
  0
LINE
  5
C7
330
1F
100
AcDbEntity
  8
VISIBLE
100
AcDbLine
 10
68.78471505645547
 20
189.7543263953762
 30
0.0
 11
69.39644730284347
 21
188.6507322094527
 31
0.0
  0
LINE
  5
C8
330
1F
100
AcDbEntity
  8
VISIBLE
100
AcDbLine
 10
76.97234846131066
 20
188.2510927494035
 30
0.0
 11
78.1905941109181
 21
187.958617845591
 31
0.0
  0
LINE
  5
C9
330
1F
100
AcDbEntity
  8
VISIBLE
100
AcDbLine
 10
96.87776083810681
 20
159.7259336507508
 30
0.0
 11
95.63914473609783
 21
159.4851710699394
 31
0.0
  0
LINE
  5
CA
330
1F
100
AcDbEntity
  8
VISIBLE
100
AcDbLine
 10
94.07778170312437
 20
154.6797897678029
 30
0.0
 11
94.93832648485123
 21
153.756968470304
 31
0.0
  0
LINE
  5
CB
330
1F
100
AcDbEntity
  8
VISIBLE
100
AcDbLine
 10
53.89747767378978
 20
148.315854802047
 30
0.0
 11
53.08380867506065
 21
149.2685387961682
 31
0.0
  0
LINE
  5
CC
330
1F
100
AcDbEntity
  8
VISIBLE
100
AcDbLine
 10
80.57619974785361
 20
140.6392579212708
 30
0.0
 11
78.96743508433805
 21
140.1165385954911
 31
0.0
  0
LINE
  5
CD
330
1F
100
AcDbEntity
  8
VISIBLE
100
AcDbLine
 10
48.2064267818465
 20
159.4851710699394
 30
0.0
 11
46.96781067983751
 21
159.7259336507508
 31
0.0
  0
LINE
  5
CE
330
1F
100
AcDbEntity
  8
VISIBLE
100
AcDbLine
 10
76.97234846131065
 20
140.8183747951522
 30
0.0
 11
76.73158588049918
 21
139.5797586931432
 31
0.0
  0
LINE
  5
CF
330
1F
100
AcDbEntity
  8
VISIBLE
100
AcDbLine
 10
91.97468179511964
 20
180.1487276612405
 30
0.0
 11
92.96895303707203
 21
178.7802306997728
 31
0.0
  0
LINE
  5
D0
330
1F
100
AcDbEntity
  8
VISIBLE
100
AcDbLine
 10
72.76856339466016
 20
139.1347337722778
 30
0.0
 11
71.07700812328416
 21
139.1347337722778
 31
0.0
  0
LINE
  5
D1
330
1F
100
AcDbEntity
  8
VISIBLE
100
AcDbLine
 10
59.63783367417706
 20
186.7823244751679
 30
0.0
 11
61.1450204569983
 21
187.5502744981569
 31
0.0
  0
LINE
  5
D2
330
1F
100
AcDbEntity
  8
VISIBLE
100
AcDbLine
 10
63.26937177009072
 20
188.4302096232849
 30
0.0
 11
64.87813643360629
 21
188.9529289490646
 31
0.0
  0
LINE
  5
D3
330
1F
100
AcDbEntity
  8
VISIBLE
100
AcDbLine
 10
67.11398563744514
 20
139.5797586931432
 30
0.0
 11
66.87322305663368
 21
140.8183747951522
 31
0.0
  0
LINE
  5
D4
330
1F
100
AcDbEntity
  8
VISIBLE
100
AcDbLine
 10
72.76856339466016
 20
189.9347337722778
 30
0.0
 11
73.20012403588724
 21
188.7490306553811
 31
0.0
  0
LINE
  5
D5
330
1F
100
AcDbEntity
  8
VISIBLE
100
AcDbLine
 10
89.28524289953957
 20
183.0933011159871
 30
0.0
 11
90.4813531026814
 21
181.8971909128452
 31
0.0
  0
LINE
  5
D6
330
1F
100
AcDbEntity
  8
VISIBLE
100
AcDbLine
 10
82.70055106094603
 20
141.5191930463988
 30
0.0
 11
81.77772976344711
 21
142.3797378281256
 31
0.0
  0
LINE
  5
D7
330
1F
100
AcDbEntity
  8
VISIBLE
100
AcDbLine
 10
95.8182616099792
 20
173.1881477611593
 30
0.0
 11
96.34098093575892
 21
171.5793830976437
 31
0.0
  0
LINE
  5
D8
330
1F
100
AcDbEntity
  8
VISIBLE
100
AcDbLine
 10
92.91798281777812
 20
176.6659112534065
 30
0.0
 11
94.17037646186219
 21
176.8196858570729
 31
0.0
  0
LINE
  5
D9
330
1F
100
AcDbEntity
  8
VISIBLE
100
AcDbLine
 10
46.70319313587382
 20
167.6728044747945
 30
0.0
 11
46.96781067983751
 21
169.3435338938048
 31
0.0
  0
LINE
  5
DA
330
1F
100
AcDbEntity
  8
VISIBLE
100
AcDbLine
 10
90.48135310268138
 20
147.1722766317104
 30
0.0
 11
89.28524289953955
 21
145.9761664285686
 31
0.0
  0
LINE
  5
DB
330
1F
100
AcDbEntity
  8
VISIBLE
100
AcDbLine
 10
97.32278575897216
 20
165.3805114079658
 30
0.0
 11
97.32278575897216
 21
163.6889561365898
 31
0.0
  0
LINE
  5
DC
330
1F
100
AcDbEntity
  8
VISIBLE
100
AcDbLine
 10
56.3087918700095
 20
184.5866298084253
 30
0.0
 11
57.67728883147721
 21
185.5809010503777
 31
0.0
  0
LINE
  5
DD
330
1F
100
AcDbEntity
  8
VISIBLE
100
AcDbLine
 10
62.06784175449722
 20
142.3797378281256
 30
0.0
 11
61.1450204569983
 21
141.5191930463988
 31
0.0
  0
LINE
  5
DE
330
1F
100
AcDbEntity
  8
VISIBLE
100
AcDbLine
 10
80.6202358944647
 20
187.1691793753263
 30
0.0
 11
81.77772976344713
 21
186.68972971643
 31
0.0
  0
LINE
  5
DF
330
1F
100
AcDbEntity
  8
VISIBLE
100
AcDbLine
 10
56.65659078286257
 20
183.3737108561893
 30
0.0
 11
56.3087918700095
 21
184.5866298084253
 31
0.0
  0
CIRCLE
  5
E0
330
1F
100
AcDbEntity
  8
VISIBLE
100
AcDbCircle
 10
56.04778575897218
 20
164.5347337722778
 30
0.0
 40
3.174999999999997
  0
LINE
  5
E1
330
1F
100
AcDbEntity
  8
VISIBLE
100
AcDbLine
 10
57.67728883147721
 20
185.5809010503777
 30
0.0
 11
58.72336753004237
 21
184.8753120589081
 31
0.0
  0
LINE
  5
E2
330
1F
100
AcDbEntity
  8
VISIBLE
100
AcDbLine
 10
76.73158588049918
 20
139.5797586931432
 30
0.0
 11
75.06085646148885
 21
139.3151411491795
 31
0.0
  0
LINE
  5
E3
330
1F
100
AcDbEntity
  8
VISIBLE
100
AcDbLine
 10
84.20773784376728
 20
186.7823244751679
 30
0.0
 11
84.05396324010083
 21
185.5299308310838
 31
0.0
  0
LINE
  5
E4
330
1F
100
AcDbEntity
  8
VISIBLE
100
AcDbLine
 10
49.76778981481996
 20
154.6797897678029
 30
0.0
 11
49.28834015592374
 21
155.8372836367853
 31
0.0
  0
LINE
  5
E5
330
1F
100
AcDbEntity
  8
VISIBLE
100
AcDbLine
 10
94.55723136202059
 20
155.8372836367853
 30
0.0
 11
94.07778170312437
 21
154.6797897678029
 31
0.0
  0
LINE
  5
E6
330
1F
100
AcDbEntity
  8
VISIBLE
100
AcDbLine
 10
85.12220398790197
 20
144.1941554856476
 30
0.0
 11
84.05396324010083
 21
143.5395367134719
 31
0.0
  0
LINE
  5
E7
330
1F
100
AcDbEntity
  8
VISIBLE
100
AcDbLine
 10
68.78471505645547
 20
139.3151411491795
 30
0.0
 11
67.11398563744514
 21
139.5797586931432
 31
0.0
  0
LINE
  5
E8
330
1F
100
AcDbEntity
  8
VISIBLE
100
AcDbLine
 10
50.8766184808723
 20
178.7802306997728
 30
0.0
 11
51.87088972282471
 21
180.1487276612405
 31
0.0
  0
LINE
  5
E9
330
1F
100
AcDbEntity
  8
VISIBLE
100
AcDbLine
 10
57.67728883147721
 20
143.488566494178
 30
0.0
 11
56.30879187000949
 21
144.4828377361304
 31
0.0
  0
LINE
  5
EA
330
1F
100
AcDbEntity
  8
VISIBLE
100
AcDbLine
 10
87.53677964793484
 20
144.4828377361304
 30
0.0
 11
86.16828268646712
 21
143.488566494178
 31
0.0
  0
LINE
  5
EB
330
1F
100
AcDbEntity
  8
VISIBLE
100
AcDbLine
 10
92.2633640456024
 20
177.7341520012076
 30
0.0
 11
92.91798281777812
 21
176.6659112534065
 31
0.0
  0
LINE
  5
EC
330
1F
100
AcDbEntity
  8
VISIBLE
100
AcDbLine
 10
59.79160827784351
 20
143.5395367134719
 30
0.0
 11
58.72336753004237
 21
144.1941554856476
 31
0.0
  0
LINE
  5
ED
330
1F
100
AcDbEntity
  8
VISIBLE
100
AcDbLine
 10
96.34098093575892
 20
171.5793830976437
 30
0.0
 11
95.34666983228533
 21
170.8025421242237
 31
0.0
  0
LINE
  5
EE
330
1F
100
AcDbEntity
  8
VISIBLE
100
AcDbLine
 10
80.57619974785362
 20
188.4302096232849
 30
0.0
 11
80.6202358944647
 21
187.1691793753263
 31
0.0
  0
LINE
  5
EF
330
1F
100
AcDbEntity
  8
VISIBLE
100
AcDbLine
 10
63.22533562347964
 20
187.1691793753263
 30
0.0
 11
63.26937177009072
 21
188.4302096232849
 31
0.0
  0
LINE
  5
F0
330
1F
100
AcDbEntity
  8
VISIBLE
100
AcDbLine
 10
48.49890168565901
 20
158.2669254203319
 30
0.0
 11
48.2064267818465
 21
159.4851710699394
 31
0.0
  0
LINE
  5
F1
330
1F
100
AcDbEntity
  8
VISIBLE
100
AcDbLine
 10
47.50459058218541
 20
171.5793830976437
 30
0.0
 11
48.02730990796513
 21
173.1881477611593
 31
0.0
  0
LINE
  5
F2
330
1F
100
AcDbEntity
  8
VISIBLE
100
AcDbLine
 10
47.80678732179727
 20
167.0610722284065
 30
0.0
 11
46.70319313587382
 21
167.6728044747945
 31
0.0
  0
LINE
  5
F3
330
1F
100
AcDbEntity
  8
VISIBLE
100
AcDbLine
 10
71.07700812328417
 20
189.9347337722778
 30
0.0
 11
72.76856339466016
 21
189.9347337722778
 31
0.0
  0
LINE
  5
F4
330
1F
100
AcDbEntity
  8
VISIBLE
100
AcDbLine
 10
96.03878419614708
 20
167.0610722284065
 30
0.0
 11
96.13708264207544
 21
165.8120720491929
 31
0.0
  0
LINE
  5
F5
330
1F
100
AcDbEntity
  8
VISIBLE
100
AcDbLine
 10
96.87776083810682
 20
169.3435338938048
 30
0.0
 11
97.14237838207052
 21
167.6728044747945
 31
0.0
  0
LINE
  5
F6
330
1F
100
AcDbEntity
  8
VISIBLE
100
AcDbLine
 10
63.22533562347964
 20
141.9002881692294
 30
0.0
 11
62.06784175449722
 21
142.3797378281256
 31
0.0
  0
LINE
  5
F7
330
1F
100
AcDbEntity
  8
VISIBLE
100
AcDbLine
 10
46.52278575897217
 20
163.6889561365898
 30
0.0
 11
46.52278575897217
 21
165.3805114079658
 31
0.0
  0
LINE
  5
F8
330
1F
100
AcDbEntity
  8
VISIBLE
100
AcDbLine
 10
89.28524289953955
 20
145.9761664285686
 30
0.0
 11
88.14166472920299
 21
146.5094256870954
 31
0.0
  0
LINE
  5
F9
330
1F
100
AcDbEntity
  8
VISIBLE
100
AcDbLine
 10
48.9072450330931
 20
175.3124990742517
 30
0.0
 11
49.67519505608215
 21
176.819685857073
 31
0.0
  0
LINE
  5
FA
330
1F
100
AcDbEntity
  8
VISIBLE
100
AcDbLine
 10
97.32278575897216
 20
163.6889561365898
 30
0.0
 11
96.13708264207544
 21
163.2573954953628
 31
0.0
  0
LINE
  5
FB
330
1F
100
AcDbEntity
  8
VISIBLE
100
AcDbLine
 10
59.79160827784351
 20
185.5299308310838
 30
0.0
 11
59.63783367417706
 21
186.7823244751679
 31
0.0
  0
LINE
  5
FC
330
1F
100
AcDbEntity
  8
VISIBLE
100
AcDbLine
 10
55.70390678874135
 20
146.5094256870954
 30
0.0
 11
54.56032861840477
 21
145.9761664285686
 31
0.0
  0
LINE
  5
FD
330
1F
100
AcDbEntity
  8
VISIBLE
100
AcDbLine
 10
95.63914473609783
 20
159.4851710699394
 30
0.0
 11
95.34666983228533
 21
158.2669254203319
 31
0.0
  0
LINE
  5
FE
330
1F
100
AcDbEntity
  8
VISIBLE
100
AcDbLine
 10
47.70848887586889
 20
163.2573954953628
 30
0.0
 11
46.52278575897218
 21
163.6889561365898
 31
0.0
  0
LINE
  5
FF
330
1F
100
AcDbEntity
  8
VISIBLE
100
AcDbLine
 10
92.2633640456024
 20
151.335315543348
 30
0.0
 11
92.96895303707203
 21
150.2892368447829
 31
0.0
  0
LINE
  5
100
330
1F
100
AcDbEntity
  8
VISIBLE
100
AcDbLine
 10
51.58220747234194
 20
177.7341520012076
 30
0.0
 11
50.8766184808723
 21
178.7802306997728
 31
0.0
  0
DIMENSION
  5
102
330
1F
100
AcDbEntity
  8
DIMENSIONS
100
AcDbDimension
  2
D1
 10
0.0
 20
0.0
 30
0.0
 11
141.9251432418823
 21
316.324818611145
 31
0.0
 70
    32
  1
<>
 71
     5
 42
-1.0
 73
     0
 74
     0
 75
     0
  3
ISO-25
100
AcDbAlignedDimension
 13
78.17631499059969
 23
163.4320678440928
 33
0.0
 14
65.66925652734464
 24
165.6373997004629
 34
0.0
100
AcDbRotatedDimension
1001
ACAD
1000
DSTYLE
1002
{
1070
    76
1070
     0
1070
    75
1070
     0
1070
   282
1070
     0
1070
   281
1070
     0
1070
    77
1070
     0
1070
    79
1070
     0
1070
    78
1070
     0
1070
   272
1070
     3
1070
   271
1070
     3
1070
   179
1070
     3
1070
   140
1040
2.275416666666667
1070
    71
1070
     0
1070
    72
1070
     0
1070
    48
1040
0.002
1070
    47
1040
0.005
1002
}
  0
DIMENSION
  5
10F
330
1F
100
AcDbEntity
  8
DIMENSIONS
100
AcDbDimension
  2
D2
 10
0.0
 20
0.0
 30
0.0
 11
179.7046537399292
 21
330.6883745193481
 31
0.0
 70
    32
  1
<>
 71
     5
 42
-1.0
 73
     0
 74
     0
 75
     0
 53
90.0
  3
ISO-25
100
AcDbAlignedDimension
 13
72.76856339466016
 23
189.9347337722778
 33
0.0
 14
72.76856339466016
 24
139.1347337722778
 34
0.0
 50
90.0
100
AcDbRotatedDimension
1001
ACAD
1000
DSTYLE
1002
{
1070
    76
1070
     0
1070
    75
1070
     0
1070
   282
1070
     0
1070
   281
1070
     0
1070
    77
1070
     0
1070
    79
1070
     0
1070
    78
1070
     0
1070
   272
1070
     3
1070
   271
1070
     3
1070
   179
1070
     3
1070
   140
1040
2.275416666666667
1070
    71
1070
     0
1070
    72
1070
     0
1070
    48
1040
0.002
1070
    47
1040
0.005
1002
}
  0
DIMENSION
  5
11C
330
1F
100
AcDbEntity
  8
DIMENSIONS
100
AcDbDimension
  2
D3
 10
0.0
 20
0.0
 30
0.0
 11
137.0065412521362
 21
341.1414384841919
 31
0.0
 70
    32
  1
<>
 71
     5
 42
-1.0
 73
     0
 74
     0
 75
     0
  3
ISO-25
100
AcDbAlignedDimension
 13
56.04778575897218
 23
164.5347337722778
 33
0.0
 14
71.92278575897217
 24
164.5347337722778
 34
0.0
100
AcDbRotatedDimension
1001
ACAD
1000
DSTYLE
1002
{
1070
    76
1070
     0
1070
    75
1070
     0
1070
   282
1070
     0
1070
   281
1070
     0
1070
    77
1070
     0
1070
    79
1070
     0
1070
    78
1070
     0
1070
   272
1070
     3
1070
   271
1070
     3
1070
   179
1070
     3
1070
   140
1040
2.275416666666667
1070
    71
1070
     0
1070
    72
1070
     0
1070
    48
1040
0.002
1070
    47
1040
0.005
1002
}
  0
DIMENSION
  5
129
330
1F
100
AcDbEntity
  8
DIMENSIONS
100
AcDbDimension
  2
D4
 10
0.0
 20
0.0
 30
0.0
 11
159.5072050094604
 21
335.0290575027466
 31
0.0
 70
    32
  1
<>
 71
     5
 42
-1.0
 73
     0
 74
     0
 75
     0
  3
ISO-25
100
AcDbAlignedDimension
 13
84.62278575897217
 23
164.5347337722778
 33
0.0
 14
90.97278575897218
 24
164.5347337722778
 34
0.0
100
AcDbRotatedDimension
1001
ACAD
1000
DSTYLE
1002
{
1070
    76
1070
     0
1070
    75
1070
     0
1070
   282
1070
     0
1070
   281
1070
     0
1070
    77
1070
     0
1070
    79
1070
     0
1070
    78
1070
     0
1070
   272
1070
     3
1070
   271
1070
     3
1070
   179
1070
     3
1070
   140
1040
2.275416666666667
1070
    71
1070
     0
1070
    72
1070
     0
1070
    48
1040
0.002
1070
    47
1040
0.005
1002
}
  0
LINE
  5
136
330
1F
100
AcDbEntity
  8
VISIBLE
100
AcDbLine
 10
70.6454474820571
 20
88.33473514556886
 30
0.0
 11
70.6454474820571
 21
57.85473514556886
 31
0.0
  0
LINE
  5
137
330
1F
100
AcDbEntity
  8
VISIBLE
100
AcDbLine
 10
73.20012403588724
 20
88.33473514556886
 30
0.0
 11
74.44912421510087
 21
88.33473514556886
 31
0.0
  0
LINE
  5
138
330
1F
100
AcDbEntity
  8
VISIBLE
100
AcDbLine
 10
51.87088972282471
 20
88.33473514556886
 30
0.0
 11
51.87088972282471
 21
57.85473514556886
 31
0.0
  0
LINE
  5
139
330
1F
100
AcDbEntity
  8
VISIBLE
100
AcDbLine
 10
97.14237838207052
 20
88.33473514556886
 30
0.0
 11
97.32278575897216
 21
88.33473514556886
 31
0.0
  0
LINE
  5
13A
330
1F
100
AcDbEntity
  8
VISIBLE
100
AcDbLine
 10
46.96781067983751
 20
88.33473514556886
 30
0.0
 11
46.96781067983751
 21
57.85473514556886
 31
0.0
  0
LINE
  5
13B
330
1F
100
AcDbEntity
  8
VISIBLE
100
AcDbLine
 10
80.6202358944647
 20
88.33473514556886
 30
0.0
 11
81.77772976344713
 21
88.33473514556886
 31
0.0
  0
LINE
  5
13C
330
1F
100
AcDbEntity
  8
VISIBLE
100
AcDbLine
 10
56.3087918700095
 20
88.33473514556886
 30
0.0
 11
57.67728883147721
 21
88.33473514556886
 31
0.0
  0
LINE
  5
13D
330
1F
100
AcDbEntity
  8
VISIBLE
100
AcDbLine
 10
92.96895303707203
 20
88.33473514556886
 30
0.0
 11
94.17037646186219
 21
88.33473514556886
 31
0.0
  0
LINE
  5
13E
330
1F
100
AcDbEntity
  8
VISIBLE
100
AcDbLine
 10
85.12220398790197
 20
88.33473514556886
 30
0.0
 11
85.12220398790197
 21
57.85473514556886
 31
0.0
  0
LINE
  5
13F
330
1F
100
AcDbEntity
  8
VISIBLE
100
AcDbLine
 10
89.28524289953957
 20
88.33473514556886
 30
0.0
 11
89.28524289953957
 21
57.85473514556886
 31
0.0
  0
LINE
  5
140
330
1F
100
AcDbEntity
  8
VISIBLE
100
AcDbLine
 10
65.65497740702624
 20
88.33473514556886
 30
0.0
 11
66.87322305663368
 21
88.33473514556886
 31
0.0
  0
LINE
  5
141
330
1F
100
AcDbEntity
  8
VISIBLE
100
AcDbLine
 10
92.96895303707203
 20
88.33473514556886
 30
0.0
 11
92.96895303707203
 21
57.85473514556886
 31
0.0
  0
LINE
  5
142
330
1F
100
AcDbEntity
  8
VISIBLE
100
AcDbLine
 10
73.20012403588724
 20
57.85473514556886
 30
0.0
 11
74.44912421510087
 21
57.85473514556886
 31
0.0
  0
LINE
  5
143
330
1F
100
AcDbEntity
  8
VISIBLE
100
AcDbLine
 10
94.17037646186219
 20
57.85473514556886
 30
0.0
 11
94.93832648485125
 21
57.85473514556886
 31
0.0
  0
LINE
  5
144
330
1F
100
AcDbEntity
  8
VISIBLE
100
AcDbLine
 10
50.8766184808723
 20
88.33473514556886
 30
0.0
 11
50.8766184808723
 21
57.85473514556886
 31
0.0
  0
LINE
  5
145
330
1F
100
AcDbEntity
  8
VISIBLE
100
AcDbLine
 10
76.97234846131066
 20
88.33473514556886
 30
0.0
 11
78.1905941109181
 21
88.33473514556886
 31
0.0
  0
LINE
  5
146
330
1F
100
AcDbEntity
  8
VISIBLE
100
AcDbLine
 10
54.56032861840478
 20
88.33473514556886
 30
0.0
 11
54.56032861840478
 21
57.85473514556886
 31
0.0
  0
LINE
  5
147
330
1F
100
AcDbEntity
  8
VISIBLE
100
AcDbLine
 10
91.97468179511964
 20
88.33473514556886
 30
0.0
 11
92.96895303707203
 21
88.33473514556886
 31
0.0
  0
LINE
  5
148
330
1F
100
AcDbEntity
  8
VISIBLE
100
AcDbLine
 10
75.06085646148888
 20
57.85473514556886
 30
0.0
 11
76.7315858804992
 21
57.85473514556886
 31
0.0
  0
LINE
  5
149
330
1F
100
AcDbEntity
  8
VISIBLE
100
AcDbLine
 10
85.12220398790197
 20
57.85473514556886
 30
0.0
 11
86.16828268646714
 21
57.85473514556886
 31
0.0
  0
LINE
  5
14A
330
1F
100
AcDbEntity
  8
VISIBLE
100
AcDbLine
 10
67.11398563744514
 20
57.85473514556886
 30
0.0
 11
68.78471505645547
 21
57.85473514556886
 31
0.0
  0
LINE
  5
14B
330
1F
100
AcDbEntity
  8
VISIBLE
100
AcDbLine
 10
80.6202358944647
 20
88.33473514556886
 30
0.0
 11
80.6202358944647
 21
57.85473514556886
 31
0.0
  0
LINE
  5
14C
330
1F
100
AcDbEntity
  8
VISIBLE
100
AcDbLine
 10
74.44912421510087
 20
57.85473514556886
 30
0.0
 11
75.06085646148888
 21
57.85473514556886
 31
0.0
  0
LINE
  5
14D
330
1F
100
AcDbEntity
  8
VISIBLE
100
AcDbLine
 10
81.77772976344713
 20
88.33473514556886
 30
0.0
 11
81.77772976344713
 21
57.85473514556886
 31
0.0
  0
LINE
  5
14E
330
1F
100
AcDbEntity
  8
VISIBLE
100
AcDbLine
 10
84.20773784376728
 20
88.33473514556886
 30
0.0
 11
85.12220398790197
 21
88.33473514556886
 31
0.0
  0
LINE
  5
14F
330
1F
100
AcDbEntity
  8
VISIBLE
100
AcDbLine
 10
86.16828268646714
 20
57.85473514556886
 30
0.0
 11
87.53677964793485
 21
57.85473514556886
 31
0.0
  0
LINE
  5
150
330
1F
100
AcDbEntity
  8
VISIBLE
100
AcDbLine
 10
78.1905941109181
 20
88.33473514556886
 30
0.0
 11
78.96743508433805
 21
88.33473514556886
 31
0.0
  0
LINE
  5
151
330
1F
100
AcDbEntity
  8
VISIBLE
100
AcDbLine
 10
49.67519505608215
 20
57.85473514556886
 30
0.0
 11
50.8766184808723
 21
57.85473514556886
 31
0.0
  0
LINE
  5
152
330
1F
100
AcDbEntity
  8
VISIBLE
100
AcDbLine
 10
46.70319313587382
 20
88.33473514556886
 30
0.0
 11
46.96781067983751
 21
88.33473514556886
 31
0.0
  0
LINE
  5
153
330
1F
100
AcDbEntity
  8
VISIBLE
100
AcDbLine
 10
62.06784175449722
 20
88.33473514556886
 30
0.0
 11
63.22533562347964
 21
88.33473514556886
 31
0.0
  0
LINE
  5
154
330
1F
100
AcDbEntity
  8
VISIBLE
100
AcDbLine
 10
90.4813531026814
 20
88.33473514556886
 30
0.0
 11
90.4813531026814
 21
57.85473514556886
 31
0.0
  0
LINE
  5
155
330
1F
100
AcDbEntity
  8
VISIBLE
100
AcDbLine
 10
65.65497740702624
 20
88.33473514556886
 30
0.0
 11
65.65497740702624
 21
57.85473514556886
 31
0.0
  0
LINE
  5
156
330
1F
100
AcDbEntity
  8
VISIBLE
100
AcDbLine
 10
57.67728883147721
 20
88.33473514556886
 30
0.0
 11
57.67728883147721
 21
57.85473514556886
 31
0.0
  0
LINE
  5
157
330
1F
100
AcDbEntity
  8
VISIBLE
100
AcDbLine
 10
87.53677964793485
 20
57.85473514556886
 30
0.0
 11
88.141664729203
 21
57.85473514556886
 31
0.0
  0
LINE
  5
158
330
1F
100
AcDbEntity
  8
VISIBLE
100
AcDbLine
 10
95.8182616099792
 20
88.33473514556886
 30
0.0
 11
95.8182616099792
 21
57.85473514556886
 31
0.0
  0
LINE
  5
159
330
1F
100
AcDbEntity
  8
VISIBLE
100
AcDbLine
 10
88.141664729203
 20
57.85473514556886
 30
0.0
 11
89.28524289953957
 21
57.85473514556886
 31
0.0
  0
LINE
  5
15A
330
1F
100
AcDbEntity
  8
VISIBLE
100
AcDbLine
 10
96.34098093575892
 20
88.33473514556886
 30
0.0
 11
96.87776083810682
 21
88.33473514556886
 31
0.0
  0
LINE
  5
15B
330
1F
100
AcDbEntity
  8
VISIBLE
100
AcDbLine
 10
67.11398563744514
 20
88.33473514556886
 30
0.0
 11
68.78471505645547
 21
88.33473514556886
 31
0.0
  0
LINE
  5
15C
330
1F
100
AcDbEntity
  8
VISIBLE
100
AcDbLine
 10
75.06085646148888
 20
88.33473514556886
 30
0.0
 11
75.06085646148888
 21
57.85473514556886
 31
0.0
  0
LINE
  5
15D
330
1F
100
AcDbEntity
  8
VISIBLE
100
AcDbLine
 10
94.93832648485125
 20
57.85473514556886
 30
0.0
 11
95.8182616099792
 21
57.85473514556886
 31
0.0
  0
LINE
  5
15E
330
1F
100
AcDbEntity
  8
VISIBLE
100
AcDbLine
 10
72.76856339466016
 20
88.33473514556886
 30
0.0
 11
73.20012403588724
 21
88.33473514556886
 31
0.0
  0
LINE
  5
15F
330
1F
100
AcDbEntity
  8
VISIBLE
100
AcDbLine
 10
91.97468179511964
 20
88.33473514556886
 30
0.0
 11
91.97468179511964
 21
57.85473514556886
 31
0.0
  0
LINE
  5
160
330
1F
100
AcDbEntity
  8
VISIBLE
100
AcDbLine
 10
71.07700812328417
 20
88.33473514556886
 30
0.0
 11
71.07700812328417
 21
57.85473514556886
 31
0.0
  0
LINE
  5
161
330
1F
100
AcDbEntity
  8
VISIBLE
100
AcDbLine
 10
76.7315858804992
 20
88.33473514556886
 30
0.0
 11
76.7315858804992
 21
57.85473514556886
 31
0.0
  0
LINE
  5
162
330
1F
100
AcDbEntity
  8
VISIBLE
100
AcDbLine
 10
95.8182616099792
 20
88.33473514556886
 30
0.0
 11
96.34098093575892
 21
88.33473514556886
 31
0.0
  0
LINE
  5
163
330
1F
100
AcDbEntity
  8
VISIBLE
100
AcDbLine
 10
78.96743508433805
 20
88.33473514556886
 30
0.0
 11
80.57619974785362
 21
88.33473514556886
 31
0.0
  0
LINE
  5
164
330
1F
100
AcDbEntity
  8
VISIBLE
100
AcDbLine
 10
61.1450204569983
 20
57.85473514556886
 30
0.0
 11
62.06784175449722
 21
57.85473514556886
 31
0.0
  0
LINE
  5
165
330
1F
100
AcDbEntity
  8
VISIBLE
100
AcDbLine
 10
76.7315858804992
 20
88.33473514556886
 30
0.0
 11
76.97234846131066
 21
88.33473514556886
 31
0.0
  0
LINE
  5
166
330
1F
100
AcDbEntity
  8
VISIBLE
100
AcDbLine
 10
64.87813643360629
 20
88.33473514556886
 30
0.0
 11
65.65497740702624
 21
88.33473514556886
 31
0.0
  0
LINE
  5
167
330
1F
100
AcDbEntity
  8
VISIBLE
100
AcDbLine
 10
90.4813531026814
 20
57.85473514556886
 30
0.0
 11
90.76176284288368
 21
57.85473514556886
 31
0.0
  0
LINE
  5
168
330
1F
100
AcDbEntity
  8
VISIBLE
100
AcDbLine
 10
67.11398563744514
 20
88.33473514556886
 30
0.0
 11
67.11398563744514
 21
57.85473514556886
 31
0.0
  0
LINE
  5
169
330
1F
100
AcDbEntity
  8
VISIBLE
100
AcDbLine
 10
50.8766184808723
 20
88.33473514556886
 30
0.0
 11
51.87088972282471
 21
88.33473514556886
 31
0.0
  0
LINE
  5
16A
330
1F
100
AcDbEntity
  8
VISIBLE
100
AcDbLine
 10
82.70055106094604
 20
88.33473514556886
 30
0.0
 11
84.20773784376728
 21
88.33473514556886
 31
0.0
  0
LINE
  5
16B
330
1F
100
AcDbEntity
  8
VISIBLE
100
AcDbLine
 10
62.06784175449722
 20
57.85473514556886
 30
0.0
 11
63.22533562347964
 21
57.85473514556886
 31
0.0
  0
LINE
  5
16C
330
1F
100
AcDbEntity
  8
VISIBLE
100
AcDbLine
 10
96.34098093575892
 20
57.85473514556886
 30
0.0
 11
96.87776083810682
 21
57.85473514556886
 31
0.0
  0
LINE
  5
16D
330
1F
100
AcDbEntity
  8
VISIBLE
100
AcDbLine
 10
90.76176284288368
 20
57.85473514556886
 30
0.0
 11
91.97468179511964
 21
57.85473514556886
 31
0.0
  0
LINE
  5
16E
330
1F
100
AcDbEntity
  8
VISIBLE
100
AcDbLine
 10
47.50459058218541
 20
88.33473514556886
 30
0.0
 11
48.02730990796513
 21
88.33473514556886
 31
0.0
  0
LINE
  5
16F
330
1F
100
AcDbEntity
  8
VISIBLE
100
AcDbLine
 10
88.141664729203
 20
88.33473514556886
 30
0.0
 11
88.141664729203
 21
57.85473514556886
 31
0.0
  0
LINE
  5
170
330
1F
100
AcDbEntity
  8
VISIBLE
100
AcDbLine
 10
73.20012403588724
 20
88.33473514556886
 30
0.0
 11
73.20012403588724
 21
57.85473514556886
 31
0.0
  0
LINE
  5
171
330
1F
100
AcDbEntity
  8
VISIBLE
100
AcDbLine
 10
46.96781067983751
 20
57.85473514556886
 30
0.0
 11
47.50459058218541
 21
57.85473514556886
 31
0.0
  0
LINE
  5
172
330
1F
100
AcDbEntity
  8
VISIBLE
100
AcDbLine
 10
90.76176284288368
 20
88.33473514556886
 30
0.0
 11
91.97468179511964
 21
88.33473514556886
 31
0.0
  0
LINE
  5
173
330
1F
100
AcDbEntity
  8
VISIBLE
100
AcDbLine
 10
54.56032861840478
 20
57.85473514556886
 30
0.0
 11
55.70390678874135
 21
57.85473514556886
 31
0.0
  0
LINE
  5
174
330
1F
100
AcDbEntity
  8
VISIBLE
100
AcDbLine
 10
78.1905941109181
 20
88.33473514556886
 30
0.0
 11
78.1905941109181
 21
57.85473514556886
 31
0.0
  0
LINE
  5
175
330
1F
100
AcDbEntity
  8
VISIBLE
100
AcDbLine
 10
81.77772976344713
 20
57.85473514556886
 30
0.0
 11
82.70055106094604
 21
57.85473514556886
 31
0.0
  0
LINE
  5
176
330
1F
100
AcDbEntity
  8
VISIBLE
100
AcDbLine
 10
63.26937177009072
 20
88.33473514556886
 30
0.0
 11
63.26937177009072
 21
57.85473514556886
 31
0.0
  0
LINE
  5
177
330
1F
100
AcDbEntity
  8
VISIBLE
100
AcDbLine
 10
61.1450204569983
 20
88.33473514556886
 30
0.0
 11
61.1450204569983
 21
57.85473514556886
 31
0.0
  0
LINE
  5
178
330
1F
100
AcDbEntity
  8
VISIBLE
100
AcDbLine
 10
51.87088972282471
 20
57.85473514556886
 30
0.0
 11
53.08380867506065
 21
57.85473514556886
 31
0.0
  0
LINE
  5
179
330
1F
100
AcDbEntity
  8
VISIBLE
100
AcDbLine
 10
58.72336753004237
 20
88.33473514556886
 30
0.0
 11
59.63783367417706
 21
88.33473514556886
 31
0.0
  0
LINE
  5
17A
330
1F
100
AcDbEntity
  8
VISIBLE
100
AcDbLine
 10
46.52278575897217
 20
88.33473514556886
 30
0.0
 11
46.70319313587382
 21
88.33473514556886
 31
0.0
  0
LINE
  5
17B
330
1F
100
AcDbEntity
  8
VISIBLE
100
AcDbLine
 10
76.97234846131066
 20
88.33473514556886
 30
0.0
 11
76.97234846131066
 21
57.85473514556886
 31
0.0
  0
LINE
  5
17C
330
1F
100
AcDbEntity
  8
VISIBLE
100
AcDbLine
 10
53.36421841526295
 20
57.85473514556886
 30
0.0
 11
54.56032861840478
 21
57.85473514556886
 31
0.0
  0
LINE
  5
17D
330
1F
100
AcDbEntity
  8
VISIBLE
100
AcDbLine
 10
84.20773784376728
 20
57.85473514556886
 30
0.0
 11
85.12220398790197
 21
57.85473514556886
 31
0.0
  0
LINE
  5
17E
330
1F
100
AcDbEntity
  8
VISIBLE
100
AcDbLine
 10
78.1905941109181
 20
57.85473514556886
 30
0.0
 11
78.96743508433805
 21
57.85473514556886
 31
0.0
  0
LINE
  5
17F
330
1F
100
AcDbEntity
  8
VISIBLE
100
AcDbLine
 10
56.3087918700095
 20
88.33473514556886
 30
0.0
 11
56.3087918700095
 21
57.85473514556886
 31
0.0
  0
LINE
  5
180
330
1F
100
AcDbEntity
  8
VISIBLE
100
AcDbLine
 10
89.28524289953957
 20
88.33473514556886
 30
0.0
 11
90.4813531026814
 21
88.33473514556886
 31
0.0
  0
LINE
  5
181
330
1F
100
AcDbEntity
  8
VISIBLE
100
AcDbLine
 10
53.08380867506065
 20
88.33473514556886
 30
0.0
 11
53.08380867506065
 21
57.85473514556886
 31
0.0
  0
LINE
  5
182
330
1F
100
AcDbEntity
  8
VISIBLE
100
AcDbLine
 10
48.02730990796513
 20
57.85473514556886
 30
0.0
 11
48.9072450330931
 21
57.85473514556886
 31
0.0
  0
LINE
  5
183
330
1F
100
AcDbEntity
  8
VISIBLE
100
AcDbLine
 10
47.50459058218541
 20
88.33473514556886
 30
0.0
 11
47.50459058218541
 21
57.85473514556886
 31
0.0
  0
LINE
  5
184
330
1F
100
AcDbEntity
  8
VISIBLE
100
AcDbLine
 10
69.39644730284347
 20
57.85473514556886
 30
0.0
 11
70.6454474820571
 21
57.85473514556886
 31
0.0
  0
LINE
  5
185
330
1F
100
AcDbEntity
  8
VISIBLE
100
AcDbLine
 10
82.70055106094604
 20
88.33473514556886
 30
0.0
 11
82.70055106094604
 21
57.85473514556886
 31
0.0
  0
LINE
  5
186
330
1F
100
AcDbEntity
  8
VISIBLE
100
AcDbLine
 10
46.52278575897217
 20
57.85473514556886
 30
0.0
 11
46.70319313587382
 21
57.85473514556886
 31
0.0
  0
LINE
  5
187
330
1F
100
AcDbEntity
  8
VISIBLE
100
AcDbLine
 10
54.56032861840478
 20
88.33473514556886
 30
0.0
 11
55.70390678874135
 21
88.33473514556886
 31
0.0
  0
LINE
  5
188
330
1F
100
AcDbEntity
  8
VISIBLE
100
AcDbLine
 10
78.96743508433806
 20
57.85473514556886
 30
0.0
 11
80.57619974785362
 21
57.85473514556886
 31
0.0
  0
LINE
  5
189
330
1F
100
AcDbEntity
  8
VISIBLE
100
AcDbLine
 10
66.87322305663368
 20
88.33473514556886
 30
0.0
 11
67.11398563744514
 21
88.33473514556886
 31
0.0
  0
LINE
  5
18A
330
1F
100
AcDbEntity
  8
VISIBLE
100
AcDbLine
 10
94.17037646186219
 20
88.33473514556886
 30
0.0
 11
94.93832648485125
 21
88.33473514556886
 31
0.0
  0
LINE
  5
18B
330
1F
100
AcDbEntity
  8
VISIBLE
100
AcDbLine
 10
53.36421841526295
 20
88.33473514556886
 30
0.0
 11
54.56032861840478
 21
88.33473514556886
 31
0.0
  0
LINE
  5
18C
330
1F
100
AcDbEntity
  8
VISIBLE
100
AcDbLine
 10
76.7315858804992
 20
57.85473514556886
 30
0.0
 11
76.97234846131066
 21
57.85473514556886
 31
0.0
  0
LINE
  5
18D
330
1F
100
AcDbEntity
  8
VISIBLE
100
AcDbLine
 10
70.6454474820571
 20
57.85473514556886
 30
0.0
 11
71.07700812328417
 21
57.85473514556886
 31
0.0
  0
LINE
  5
18E
330
1F
100
AcDbEntity
  8
VISIBLE
100
AcDbLine
 10
74.44912421510087
 20
88.33473514556886
 30
0.0
 11
75.06085646148888
 21
88.33473514556886
 31
0.0
  0
LINE
  5
18F
330
1F
100
AcDbEntity
  8
VISIBLE
100
AcDbLine
 10
80.57619974785362
 20
88.33473514556886
 30
0.0
 11
80.57619974785362
 21
57.85473514556886
 31
0.0
  0
LINE
  5
190
330
1F
100
AcDbEntity
  8
VISIBLE
100
AcDbLine
 10
61.1450204569983
 20
88.33473514556886
 30
0.0
 11
62.06784175449722
 21
88.33473514556886
 31
0.0
  0
LINE
  5
191
330
1F
100
AcDbEntity
  8
VISIBLE
100
AcDbLine
 10
94.93832648485125
 20
88.33473514556886
 30
0.0
 11
95.8182616099792
 21
88.33473514556886
 31
0.0
  0
LINE
  5
192
330
1F
100
AcDbEntity
  8
VISIBLE
100
AcDbLine
 10
66.87322305663368
 20
57.85473514556886
 30
0.0
 11
67.11398563744514
 21
57.85473514556886
 31
0.0
  0
LINE
  5
193
330
1F
100
AcDbEntity
  8
VISIBLE
100
AcDbLine
 10
53.08380867506065
 20
57.85473514556886
 30
0.0
 11
53.36421841526295
 21
57.85473514556886
 31
0.0
  0
LINE
  5
194
330
1F
100
AcDbEntity
  8
VISIBLE
100
AcDbLine
 10
97.32278575897216
 20
88.33473514556886
 30
0.0
 11
97.32278575897216
 21
57.85473514556886
 31
0.0
  0
LINE
  5
195
330
1F
100
AcDbEntity
  8
VISIBLE
100
AcDbLine
 10
87.53677964793485
 20
88.33473514556886
 30
0.0
 11
87.53677964793485
 21
57.85473514556886
 31
0.0
  0
LINE
  5
196
330
1F
100
AcDbEntity
  8
VISIBLE
100
AcDbLine
 10
63.22533562347964
 20
88.33473514556886
 30
0.0
 11
63.22533562347964
 21
57.85473514556886
 31
0.0
  0
LINE
  5
197
330
1F
100
AcDbEntity
  8
VISIBLE
100
AcDbLine
 10
51.87088972282471
 20
88.33473514556886
 30
0.0
 11
53.08380867506065
 21
88.33473514556886
 31
0.0
  0
LINE
  5
198
330
1F
100
AcDbEntity
  8
VISIBLE
100
AcDbLine
 10
53.08380867506065
 20
88.33473514556886
 30
0.0
 11
53.36421841526295
 21
88.33473514556886
 31
0.0
  0
LINE
  5
199
330
1F
100
AcDbEntity
  8
VISIBLE
100
AcDbLine
 10
58.72336753004237
 20
57.85473514556886
 30
0.0
 11
59.63783367417706
 21
57.85473514556886
 31
0.0
  0
LINE
  5
19A
330
1F
100
AcDbEntity
  8
VISIBLE
100
AcDbLine
 10
63.26937177009072
 20
88.33473514556886
 30
0.0
 11
64.87813643360629
 21
88.33473514556886
 31
0.0
  0
LINE
  5
19B
330
1F
100
AcDbEntity
  8
VISIBLE
100
AcDbLine
 10
55.70390678874135
 20
57.85473514556886
 30
0.0
 11
56.3087918700095
 21
57.85473514556886
 31
0.0
  0
LINE
  5
19C
330
1F
100
AcDbEntity
  8
VISIBLE
100
AcDbLine
 10
69.39644730284347
 20
88.33473514556886
 30
0.0
 11
69.39644730284347
 21
57.85473514556886
 31
0.0
  0
LINE
  5
19D
330
1F
100
AcDbEntity
  8
VISIBLE
100
AcDbLine
 10
48.02730990796513
 20
88.33473514556886
 30
0.0
 11
48.02730990796513
 21
57.85473514556886
 31
0.0
  0
LINE
  5
19E
330
1F
100
AcDbEntity
  8
VISIBLE
100
AcDbLine
 10
85.12220398790197
 20
88.33473514556886
 30
0.0
 11
86.16828268646714
 21
88.33473514556886
 31
0.0
  0
LINE
  5
19F
330
1F
100
AcDbEntity
  8
VISIBLE
100
AcDbLine
 10
46.70319313587382
 20
88.33473514556886
 30
0.0
 11
46.70319313587382
 21
57.85473514556886
 31
0.0
  0
LINE
  5
1A0
330
1F
100
AcDbEntity
  8
VISIBLE
100
AcDbLine
 10
88.141664729203
 20
88.33473514556886
 30
0.0
 11
89.28524289953957
 21
88.33473514556886
 31
0.0
  0
LINE
  5
1A1
330
1F
100
AcDbEntity
  8
VISIBLE
100
AcDbLine
 10
62.06784175449722
 20
88.33473514556886
 30
0.0
 11
62.06784175449722
 21
57.85473514556886
 31
0.0
  0
LINE
  5
1A2
330
1F
100
AcDbEntity
  8
VISIBLE
100
AcDbLine
 10
90.76176284288368
 20
88.33473514556886
 30
0.0
 11
90.76176284288368
 21
57.85473514556886
 31
0.0
  0
LINE
  5
1A3
330
1F
100
AcDbEntity
  8
VISIBLE
100
AcDbLine
 10
96.87776083810682
 20
88.33473514556886
 30
0.0
 11
96.87776083810682
 21
57.85473514556886
 31
0.0
  0
LINE
  5
1A4
330
1F
100
AcDbEntity
  8
VISIBLE
100
AcDbLine
 10
72.76856339466016
 20
88.33473514556886
 30
0.0
 11
72.76856339466016
 21
57.85473514556886
 31
0.0
  0
LINE
  5
1A5
330
1F
100
AcDbEntity
  8
VISIBLE
100
AcDbLine
 10
66.87322305663368
 20
88.33473514556886
 30
0.0
 11
66.87322305663368
 21
57.85473514556886
 31
0.0
  0
LINE
  5
1A6
330
1F
100
AcDbEntity
  8
VISIBLE
100
AcDbLine
 10
64.87813643360629
 20
57.85473514556886
 30
0.0
 11
65.65497740702624
 21
57.85473514556886
 31
0.0
  0
LINE
  5
1A7
330
1F
100
AcDbEntity
  8
VISIBLE
100
AcDbLine
 10
94.93832648485125
 20
88.33473514556886
 30
0.0
 11
94.93832648485125
 21
57.85473514556886
 31
0.0
  0
LINE
  5
1A8
330
1F
100
AcDbEntity
  8
VISIBLE
100
AcDbLine
 10
74.44912421510087
 20
88.33473514556886
 30
0.0
 11
74.44912421510087
 21
57.85473514556886
 31
0.0
  0
LINE
  5
1A9
330
1F
100
AcDbEntity
  8
VISIBLE
100
AcDbLine
 10
82.70055106094604
 20
57.85473514556886
 30
0.0
 11
84.20773784376728
 21
57.85473514556886
 31
0.0
  0
LINE
  5
1AA
330
1F
100
AcDbEntity
  8
VISIBLE
100
AcDbLine
 10
94.17037646186219
 20
88.33473514556886
 30
0.0
 11
94.17037646186219
 21
57.85473514556886
 31
0.0
  0
LINE
  5
1AB
330
1F
100
AcDbEntity
  8
VISIBLE
100
AcDbLine
 10
97.14237838207052
 20
57.85473514556886
 30
0.0
 11
97.32278575897216
 21
57.85473514556886
 31
0.0
  0
LINE
  5
1AC
330
1F
100
AcDbEntity
  8
VISIBLE
100
AcDbLine
 10
65.65497740702624
 20
57.85473514556886
 30
0.0
 11
66.87322305663368
 21
57.85473514556886
 31
0.0
  0
LINE
  5
1AD
330
1F
100
AcDbEntity
  8
VISIBLE
100
AcDbLine
 10
68.78471505645547
 20
57.85473514556886
 30
0.0
 11
69.39644730284347
 21
57.85473514556886
 31
0.0
  0
LINE
  5
1AE
330
1F
100
AcDbEntity
  8
VISIBLE
100
AcDbLine
 10
76.97234846131066
 20
57.85473514556886
 30
0.0
 11
78.1905941109181
 21
57.85473514556886
 31
0.0
  0
LINE
  5
1AF
330
1F
100
AcDbEntity
  8
VISIBLE
100
AcDbLine
 10
49.67519505608215
 20
88.33473514556886
 30
0.0
 11
50.8766184808723
 21
88.33473514556886
 31
0.0
  0
LINE
  5
1B0
330
1F
100
AcDbEntity
  8
VISIBLE
100
AcDbLine
 10
90.4813531026814
 20
88.33473514556886
 30
0.0
 11
90.76176284288368
 21
88.33473514556886
 31
0.0
  0
LINE
  5
1B1
330
1F
100
AcDbEntity
  8
VISIBLE
100
AcDbLine
 10
59.63783367417706
 20
88.33473514556886
 30
0.0
 11
59.63783367417706
 21
57.85473514556886
 31
0.0
  0
LINE
  5
1B2
330
1F
100
AcDbEntity
  8
VISIBLE
100
AcDbLine
 10
91.97468179511964
 20
57.85473514556886
 30
0.0
 11
92.96895303707203
 21
57.85473514556886
 31
0.0
  0
LINE
  5
1B3
330
1F
100
AcDbEntity
  8
VISIBLE
100
AcDbLine
 10
59.63783367417706
 20
88.33473514556886
 30
0.0
 11
61.1450204569983
 21
88.33473514556886
 31
0.0
  0
LINE
  5
1B4
330
1F
100
AcDbEntity
  8
VISIBLE
100
AcDbLine
 10
59.63783367417706
 20
57.85473514556886
 30
0.0
 11
61.1450204569983
 21
57.85473514556886
 31
0.0
  0
LINE
  5
1B5
330
1F
100
AcDbEntity
  8
VISIBLE
100
AcDbLine
 10
63.26937177009072
 20
57.85473514556886
 30
0.0
 11
64.87813643360629
 21
57.85473514556886
 31
0.0
  0
LINE
  5
1B6
330
1F
100
AcDbEntity
  8
VISIBLE
100
AcDbLine
 10
71.07700812328417
 20
88.33473514556886
 30
0.0
 11
72.76856339466016
 21
88.33473514556886
 31
0.0
  0
LINE
  5
1B7
330
1F
100
AcDbEntity
  8
VISIBLE
100
AcDbLine
 10
72.76856339466016
 20
57.85473514556886
 30
0.0
 11
73.20012403588724
 21
57.85473514556886
 31
0.0
  0
LINE
  5
1B8
330
1F
100
AcDbEntity
  8
VISIBLE
100
AcDbLine
 10
89.28524289953957
 20
57.85473514556886
 30
0.0
 11
90.4813531026814
 21
57.85473514556886
 31
0.0
  0
LINE
  5
1B9
330
1F
100
AcDbEntity
  8
VISIBLE
100
AcDbLine
 10
95.8182616099792
 20
57.85473514556886
 30
0.0
 11
96.34098093575892
 21
57.85473514556886
 31
0.0
  0
LINE
  5
1BA
330
1F
100
AcDbEntity
  8
VISIBLE
100
AcDbLine
 10
92.96895303707203
 20
57.85473514556886
 30
0.0
 11
94.17037646186219
 21
57.85473514556886
 31
0.0
  0
LINE
  5
1BB
330
1F
100
AcDbEntity
  8
VISIBLE
100
AcDbLine
 10
46.70319313587382
 20
57.85473514556886
 30
0.0
 11
46.96781067983751
 21
57.85473514556886
 31
0.0
  0
LINE
  5
1BC
330
1F
100
AcDbEntity
  8
VISIBLE
100
AcDbLine
 10
56.3087918700095
 20
57.85473514556886
 30
0.0
 11
57.67728883147721
 21
57.85473514556886
 31
0.0
  0
LINE
  5
1BD
330
1F
100
AcDbEntity
  8
VISIBLE
100
AcDbLine
 10
48.9072450330931
 20
88.33473514556886
 30
0.0
 11
49.67519505608215
 21
88.33473514556886
 31
0.0
  0
LINE
  5
1BE
330
1F
100
AcDbEntity
  8
VISIBLE
100
AcDbLine
 10
46.52278575897217
 20
88.33473514556886
 30
0.0
 11
46.52278575897217
 21
57.85473514556886
 31
0.0
  0
LINE
  5
1BF
330
1F
100
AcDbEntity
  8
VISIBLE
100
AcDbLine
 10
80.6202358944647
 20
57.85473514556886
 30
0.0
 11
81.77772976344713
 21
57.85473514556886
 31
0.0
  0
LINE
  5
1C0
330
1F
100
AcDbEntity
  8
VISIBLE
100
AcDbLine
 10
81.77772976344713
 20
88.33473514556886
 30
0.0
 11
82.70055106094604
 21
88.33473514556886
 31
0.0
  0
LINE
  5
1C1
330
1F
100
AcDbEntity
  8
VISIBLE
100
AcDbLine
 10
57.67728883147721
 20
88.33473514556886
 30
0.0
 11
58.72336753004237
 21
88.33473514556886
 31
0.0
  0
LINE
  5
1C2
330
1F
100
AcDbEntity
  8
VISIBLE
100
AcDbLine
 10
55.70390678874135
 20
88.33473514556886
 30
0.0
 11
56.3087918700095
 21
88.33473514556886
 31
0.0
  0
LINE
  5
1C3
330
1F
100
AcDbEntity
  8
VISIBLE
100
AcDbLine
 10
63.22533562347964
 20
88.33473514556886
 30
0.0
 11
63.26937177009072
 21
88.33473514556886
 31
0.0
  0
LINE
  5
1C4
330
1F
100
AcDbEntity
  8
VISIBLE
100
AcDbLine
 10
70.6454474820571
 20
88.33473514556886
 30
0.0
 11
71.07700812328417
 21
88.33473514556886
 31
0.0
  0
LINE
  5
1C5
330
1F
100
AcDbEntity
  8
VISIBLE
100
AcDbLine
 10
68.78471505645547
 20
88.33473514556886
 30
0.0
 11
69.39644730284347
 21
88.33473514556886
 31
0.0
  0
LINE
  5
1C6
330
1F
100
AcDbEntity
  8
VISIBLE
100
AcDbLine
 10
57.67728883147721
 20
57.85473514556886
 30
0.0
 11
58.72336753004237
 21
57.85473514556886
 31
0.0
  0
LINE
  5
1C7
330
1F
100
AcDbEntity
  8
VISIBLE
100
AcDbLine
 10
46.96781067983751
 20
88.33473514556886
 30
0.0
 11
47.50459058218541
 21
88.33473514556886
 31
0.0
  0
LINE
  5
1C8
330
1F
100
AcDbEntity
  8
VISIBLE
100
AcDbLine
 10
48.9072450330931
 20
88.33473514556886
 30
0.0
 11
48.9072450330931
 21
57.85473514556886
 31
0.0
  0
LINE
  5
1C9
330
1F
100
AcDbEntity
  8
VISIBLE
100
AcDbLine
 10
53.36421841526295
 20
88.33473514556886
 30
0.0
 11
53.36421841526295
 21
57.85473514556886
 31
0.0
  0
LINE
  5
1CA
330
1F
100
AcDbEntity
  8
VISIBLE
100
AcDbLine
 10
50.8766184808723
 20
57.85473514556886
 30
0.0
 11
51.87088972282471
 21
57.85473514556886
 31
0.0
  0
LINE
  5
1CB
330
1F
100
AcDbEntity
  8
VISIBLE
100
AcDbLine
 10
96.34098093575892
 20
88.33473514556886
 30
0.0
 11
96.34098093575892
 21
57.85473514556886
 31
0.0
  0
LINE
  5
1CC
330
1F
100
AcDbEntity
  8
VISIBLE
100
AcDbLine
 10
68.78471505645547
 20
88.33473514556886
 30
0.0
 11
68.78471505645547
 21
57.85473514556886
 31
0.0
  0
LINE
  5
1CD
330
1F
100
AcDbEntity
  8
VISIBLE
100
AcDbLine
 10
55.70390678874135
 20
88.33473514556886
 30
0.0
 11
55.70390678874135
 21
57.85473514556886
 31
0.0
  0
LINE
  5
1CE
330
1F
100
AcDbEntity
  8
VISIBLE
100
AcDbLine
 10
48.02730990796513
 20
88.33473514556886
 30
0.0
 11
48.9072450330931
 21
88.33473514556886
 31
0.0
  0
LINE
  5
1CF
330
1F
100
AcDbEntity
  8
VISIBLE
100
AcDbLine
 10
80.57619974785362
 20
57.85473514556886
 30
0.0
 11
80.6202358944647
 21
57.85473514556886
 31
0.0
  0
LINE
  5
1D0
330
1F
100
AcDbEntity
  8
VISIBLE
100
AcDbLine
 10
87.53677964793485
 20
88.33473514556886
 30
0.0
 11
88.141664729203
 21
88.33473514556886
 31
0.0
  0
LINE
  5
1D1
330
1F
100
AcDbEntity
  8
VISIBLE
100
AcDbLine
 10
63.22533562347964
 20
57.85473514556886
 30
0.0
 11
63.26937177009072
 21
57.85473514556886
 31
0.0
  0
LINE
  5
1D2
330
1F
100
AcDbEntity
  8
VISIBLE
100
AcDbLine
 10
84.20773784376728
 20
88.33473514556886
 30
0.0
 11
84.20773784376728
 21
57.85473514556886
 31
0.0
  0
LINE
  5
1D3
330
1F
100
AcDbEntity
  8
VISIBLE
100
AcDbLine
 10
86.16828268646714
 20
88.33473514556886
 30
0.0
 11
87.53677964793485
 21
88.33473514556886
 31
0.0
  0
LINE
  5
1D4
330
1F
100
AcDbEntity
  8
VISIBLE
100
AcDbLine
 10
58.72336753004237
 20
88.33473514556886
 30
0.0
 11
58.72336753004237
 21
57.85473514556886
 31
0.0
  0
LINE
  5
1D5
330
1F
100
AcDbEntity
  8
VISIBLE
100
AcDbLine
 10
47.50459058218541
 20
57.85473514556886
 30
0.0
 11
48.02730990796513
 21
57.85473514556886
 31
0.0
  0
LINE
  5
1D6
330
1F
100
AcDbEntity
  8
VISIBLE
100
AcDbLine
 10
71.07700812328417
 20
57.85473514556886
 30
0.0
 11
72.76856339466016
 21
57.85473514556886
 31
0.0
  0
LINE
  5
1D7
330
1F
100
AcDbEntity
  8
VISIBLE
100
AcDbLine
 10
64.87813643360629
 20
88.33473514556886
 30
0.0
 11
64.87813643360629
 21
57.85473514556886
 31
0.0
  0
LINE
  5
1D8
330
1F
100
AcDbEntity
  8
VISIBLE
100
AcDbLine
 10
75.06085646148888
 20
88.33473514556886
 30
0.0
 11
76.7315858804992
 21
88.33473514556886
 31
0.0
  0
LINE
  5
1D9
330
1F
100
AcDbEntity
  8
VISIBLE
100
AcDbLine
 10
96.87776083810682
 20
57.85473514556886
 30
0.0
 11
97.14237838207052
 21
57.85473514556886
 31
0.0
  0
LINE
  5
1DA
330
1F
100
AcDbEntity
  8
VISIBLE
100
AcDbLine
 10
80.57619974785362
 20
88.33473514556886
 30
0.0
 11
80.6202358944647
 21
88.33473514556886
 31
0.0
  0
LINE
  5
1DB
330
1F
100
AcDbEntity
  8
VISIBLE
100
AcDbLine
 10
86.16828268646714
 20
88.33473514556886
 30
0.0
 11
86.16828268646714
 21
57.85473514556886
 31
0.0
  0
LINE
  5
1DC
330
1F
100
AcDbEntity
  8
VISIBLE
100
AcDbLine
 10
49.67519505608215
 20
88.33473514556886
 30
0.0
 11
49.67519505608215
 21
57.85473514556886
 31
0.0
  0
LINE
  5
1DD
330
1F
100
AcDbEntity
  8
VISIBLE
100
AcDbLine
 10
48.9072450330931
 20
57.85473514556886
 30
0.0
 11
49.67519505608215
 21
57.85473514556886
 31
0.0
  0
LINE
  5
1DE
330
1F
100
AcDbEntity
  8
VISIBLE
100
AcDbLine
 10
69.39644730284347
 20
88.33473514556886
 30
0.0
 11
70.6454474820571
 21
88.33473514556886
 31
0.0
  0
LINE
  5
1DF
330
1F
100
AcDbEntity
  8
VISIBLE
100
AcDbLine
 10
97.14237838207052
 20
88.33473514556886
 30
0.0
 11
97.14237838207052
 21
57.85473514556886
 31
0.0
  0
LINE
  5
1E0
330
1F
100
AcDbEntity
  8
VISIBLE
100
AcDbLine
 10
96.87776083810682
 20
88.33473514556886
 30
0.0
 11
97.14237838207052
 21
88.33473514556886
 31
0.0
  0
LINE
  5
1E1
330
1F
100
AcDbEntity
  8
VISIBLE
100
AcDbLine
 10
78.96743508433805
 20
88.33473514556886
 30
0.0
 11
78.96743508433805
 21
57.85473514556886
 31
0.0
  0
LINE
  5
1E2
330
1F
100
AcDbEntity
  8
VISIBLE
100
AcDbLine
 10
178.6027805709839
 20
150.2892368447829
 30
0.0
 11
178.6027805709839
 21
151.335315543348
 31
0.0
  0
LINE
  5
1E3
330
1F
100
AcDbEntity
  8
VISIBLE
100
AcDbLine
 10
148.1227805709839
 20
165.8120720491929
 30
0.0
 11
148.1227805709839
 21
167.0610722284065
 31
0.0
  0
LINE
  5
1E4
330
1F
100
AcDbEntity
  8
VISIBLE
100
AcDbLine
 10
148.1227805709839
 20
180.1487276612405
 30
0.0
 11
178.6027805709839
 21
180.1487276612405
 31
0.0
  0
LINE
  5
1E5
330
1F
100
AcDbEntity
  8
VISIBLE
100
AcDbLine
 10
148.1227805709839
 20
169.3435338938048
 30
0.0
 11
178.6027805709839
 21
169.3435338938048
 31
0.0
  0
LINE
  5
1E6
330
1F
100
AcDbEntity
  8
VISIBLE
100
AcDbLine
 10
148.1227805709839
 20
184.5866298084253
 30
0.0
 11
148.1227805709839
 21
185.5809010503777
 31
0.0
  0
LINE
  5
1E7
330
1F
100
AcDbEntity
  8
VISIBLE
100
AcDbLine
 10
178.6027805709839
 20
142.2871430693878
 30
0.0
 11
178.6027805709839
 21
143.488566494178
 31
0.0
  0
LINE
  5
1E8
330
1F
100
AcDbEntity
  8
VISIBLE
100
AcDbLine
 10
148.1227805709839
 20
174.3896777767528
 30
0.0
 11
148.1227805709839
 21
175.3124990742517
 31
0.0
  0
LINE
  5
1E9
330
1F
100
AcDbEntity
  8
VISIBLE
100
AcDbLine
 10
148.1227805709839
 20
145.9761664285686
 30
0.0
 11
148.1227805709839
 21
147.1722766317104
 31
0.0
  0
LINE
  5
1EA
330
1F
100
AcDbEntity
  8
VISIBLE
100
AcDbLine
 10
148.1227805709839
 20
153.756968470304
 30
0.0
 11
178.6027805709839
 21
153.756968470304
 31
0.0
  0
LINE
  5
1EB
330
1F
100
AcDbEntity
  8
VISIBLE
100
AcDbLine
 10
178.6027805709839
 20
153.756968470304
 30
0.0
 11
178.6027805709839
 21
154.6797897678029
 31
0.0
  0
LINE
  5
1EC
330
1F
100
AcDbEntity
  8
VISIBLE
100
AcDbLine
 10
148.1227805709839
 20
178.7802306997728
 30
0.0
 11
178.6027805709839
 21
178.7802306997728
 31
0.0
  0
LINE
  5
1ED
330
1F
100
AcDbEntity
  8
VISIBLE
100
AcDbLine
 10
148.1227805709839
 20
159.7259336507508
 30
0.0
 11
148.1227805709839
 21
161.3966630697611
 31
0.0
  0
LINE
  5
1EE
330
1F
100
AcDbEntity
  8
VISIBLE
100
AcDbLine
 10
148.1227805709839
 20
183.0933011159871
 30
0.0
 11
178.6027805709839
 21
183.0933011159871
 31
0.0
  0
LINE
  5
1EF
330
1F
100
AcDbEntity
  8
VISIBLE
100
AcDbLine
 10
148.1227805709839
 20
148.315854802047
 30
0.0
 11
148.1227805709839
 21
148.9207398833152
 31
0.0
  0
LINE
  5
1F0
330
1F
100
AcDbEntity
  8
VISIBLE
100
AcDbLine
 10
148.1227805709839
 20
159.4851710699394
 30
0.0
 11
148.1227805709839
 21
159.7259336507508
 31
0.0
  0
LINE
  5
1F1
330
1F
100
AcDbEntity
  8
VISIBLE
100
AcDbLine
 10
178.6027805709839
 20
152.2497816874827
 30
0.0
 11
178.6027805709839
 21
153.756968470304
 31
0.0
  0
LINE
  5
1F2
330
1F
100
AcDbEntity
  8
VISIBLE
100
AcDbLine
 10
178.6027805709839
 20
189.4897088514125
 30
0.0
 11
178.6027805709839
 21
189.7543263953762
 31
0.0
  0
LINE
  5
1F3
330
1F
100
AcDbEntity
  8
VISIBLE
100
AcDbLine
 10
178.6027805709839
 20
176.819685857073
 30
0.0
 11
178.6027805709839
 21
177.7341520012076
 31
0.0
  0
LINE
  5
1F4
330
1F
100
AcDbEntity
  8
VISIBLE
100
AcDbLine
 10
148.1227805709839
 20
163.2573954953628
 30
0.0
 11
178.6027805709839
 21
163.2573954953628
 31
0.0
  0
LINE
  5
1F5
330
1F
100
AcDbEntity
  8
VISIBLE
100
AcDbLine
 10
148.1227805709839
 20
167.0610722284065
 30
0.0
 11
148.1227805709839
 21
167.6728044747945
 31
0.0
  0
LINE
  5
1F6
330
1F
100
AcDbEntity
  8
VISIBLE
100
AcDbLine
 10
148.1227805709839
 20
139.5797586931432
 30
0.0
 11
148.1227805709839
 21
140.1165385954911
 31
0.0
  0
LINE
  5
1F7
330
1F
100
AcDbEntity
  8
VISIBLE
100
AcDbLine
 10
148.1227805709839
 20
150.2892368447829
 30
0.0
 11
178.6027805709839
 21
150.2892368447829
 31
0.0
  0
LINE
  5
1F8
330
1F
100
AcDbEntity
  8
VISIBLE
100
AcDbLine
 10
148.1227805709839
 20
163.6889561365898
 30
0.0
 11
148.1227805709839
 21
165.3805114079658
 31
0.0
  0
LINE
  5
1F9
330
1F
100
AcDbEntity
  8
VISIBLE
100
AcDbLine
 10
148.1227805709839
 20
170.8025421242238
 30
0.0
 11
148.1227805709839
 21
171.5793830976437
 31
0.0
  0
LINE
  5
1FA
330
1F
100
AcDbEntity
  8
VISIBLE
100
AcDbLine
 10
178.6027805709839
 20
162.0083953161491
 30
0.0
 11
178.6027805709839
 21
163.2573954953628
 31
0.0
  0
LINE
  5
1FB
330
1F
100
AcDbEntity
  8
VISIBLE
100
AcDbLine
 10
148.1227805709839
 20
150.2892368447829
 30
0.0
 11
148.1227805709839
 21
151.335315543348
 31
0.0
  0
LINE
  5
1FC
330
1F
100
AcDbEntity
  8
VISIBLE
100
AcDbLine
 10
148.1227805709839
 20
167.6728044747945
 30
0.0
 11
148.1227805709839
 21
169.3435338938048
 31
0.0
  0
LINE
  5
1FD
330
1F
100
AcDbEntity
  8
VISIBLE
100
AcDbLine
 10
178.6027805709839
 20
170.8025421242238
 30
0.0
 11
178.6027805709839
 21
171.5793830976437
 31
0.0
  0
LINE
  5
1FE
330
1F
100
AcDbEntity
  8
VISIBLE
100
AcDbLine
 10
148.1227805709839
 20
170.8025421242238
 30
0.0
 11
178.6027805709839
 21
170.8025421242238
 31
0.0
  0
LINE
  5
1FF
330
1F
100
AcDbEntity
  8
VISIBLE
100
AcDbLine
 10
148.1227805709839
 20
185.5809010503777
 30
0.0
 11
178.6027805709839
 21
185.5809010503777
 31
0.0
  0
LINE
  5
200
330
1F
100
AcDbEntity
  8
VISIBLE
100
AcDbLine
 10
178.6027805709839
 20
148.9207398833152
 30
0.0
 11
178.6027805709839
 21
150.2892368447829
 31
0.0
  0
LINE
  5
201
330
1F
100
AcDbEntity
  8
VISIBLE
100
AcDbLine
 10
148.1227805709839
 20
140.1165385954911
 30
0.0
 11
178.6027805709839
 21
140.1165385954911
 31
0.0
  0
LINE
  5
202
330
1F
100
AcDbEntity
  8
VISIBLE
100
AcDbLine
 10
178.6027805709839
 20
157.490084446912
 30
0.0
 11
178.6027805709839
 21
158.2669254203319
 31
0.0
  0
LINE
  5
203
330
1F
100
AcDbEntity
  8
VISIBLE
100
AcDbLine
 10
148.1227805709839
 20
142.2871430693878
 30
0.0
 11
178.6027805709839
 21
142.2871430693878
 31
0.0
  0
LINE
  5
204
330
1F
100
AcDbEntity
  8
VISIBLE
100
AcDbLine
 10
148.1227805709839
 20
189.4897088514125
 30
0.0
 11
148.1227805709839
 21
189.7543263953762
 31
0.0
  0
LINE
  5
205
330
1F
100
AcDbEntity
  8
VISIBLE
100
AcDbLine
 10
178.6027805709839
 20
174.3896777767528
 30
0.0
 11
178.6027805709839
 21
175.3124990742517
 31
0.0
  0
LINE
  5
206
330
1F
100
AcDbEntity
  8
VISIBLE
100
AcDbLine
 10
178.6027805709839
 20
140.6392579212708
 30
0.0
 11
178.6027805709839
 21
141.5191930463988
 31
0.0
  0
LINE
  5
207
330
1F
100
AcDbEntity
  8
VISIBLE
100
AcDbLine
 10
148.1227805709839
 20
145.9761664285686
 30
0.0
 11
178.6027805709839
 21
145.9761664285686
 31
0.0
  0
LINE
  5
208
330
1F
100
AcDbEntity
  8
VISIBLE
100
AcDbLine
 10
148.1227805709839
 20
152.2497816874827
 30
0.0
 11
178.6027805709839
 21
152.2497816874827
 31
0.0
  0
LINE
  5
209
330
1F
100
AcDbEntity
  8
VISIBLE
100
AcDbLine
 10
148.1227805709839
 20
189.9347337722778
 30
0.0
 11
178.6027805709839
 21
189.9347337722778
 31
0.0
  0
LINE
  5
20A
330
1F
100
AcDbEntity
  8
VISIBLE
100
AcDbLine
 10
148.1227805709839
 20
154.6797897678029
 30
0.0
 11
148.1227805709839
 21
155.8372836367853
 31
0.0
  0
LINE
  5
20B
330
1F
100
AcDbEntity
  8
VISIBLE
100
AcDbLine
 10
178.6027805709839
 20
180.7536127425087
 30
0.0
 11
178.6027805709839
 21
181.8971909128452
 31
0.0
  0
LINE
  5
20C
330
1F
100
AcDbEntity
  8
VISIBLE
100
AcDbLine
 10
148.1227805709839
 20
158.2669254203319
 30
0.0
 11
148.1227805709839
 21
159.4851710699394
 31
0.0
  0
LINE
  5
20D
330
1F
100
AcDbEntity
  8
VISIBLE
100
AcDbLine
 10
148.1227805709839
 20
143.488566494178
 30
0.0
 11
148.1227805709839
 21
144.4828377361304
 31
0.0
  0
LINE
  5
20E
330
1F
100
AcDbEntity
  8
VISIBLE
100
AcDbLine
 10
148.1227805709839
 20
189.4897088514125
 30
0.0
 11
178.6027805709839
 21
189.4897088514125
 31
0.0
  0
LINE
  5
20F
330
1F
100
AcDbEntity
  8
VISIBLE
100
AcDbLine
 10
148.1227805709839
 20
139.1347337722778
 30
0.0
 11
178.6027805709839
 21
139.1347337722778
 31
0.0
  0
LINE
  5
210
330
1F
100
AcDbEntity
  8
VISIBLE
100
AcDbLine
 10
148.1227805709839
 20
178.7802306997728
 30
0.0
 11
148.1227805709839
 21
180.1487276612405
 31
0.0
  0
LINE
  5
211
330
1F
100
AcDbEntity
  8
VISIBLE
100
AcDbLine
 10
148.1227805709839
 20
139.3151411491795
 30
0.0
 11
148.1227805709839
 21
139.5797586931432
 31
0.0
  0
LINE
  5
212
330
1F
100
AcDbEntity
  8
VISIBLE
100
AcDbLine
 10
148.1227805709839
 20
177.7341520012076
 30
0.0
 11
178.6027805709839
 21
177.7341520012076
 31
0.0
  0
LINE
  5
213
330
1F
100
AcDbEntity
  8
VISIBLE
100
AcDbLine
 10
148.1227805709839
 20
171.5793830976437
 30
0.0
 11
148.1227805709839
 21
173.1881477611593
 31
0.0
  0
LINE
  5
214
330
1F
100
AcDbEntity
  8
VISIBLE
100
AcDbLine
 10
148.1227805709839
 20
157.490084446912
 30
0.0
 11
178.6027805709839
 21
157.490084446912
 31
0.0
  0
LINE
  5
215
330
1F
100
AcDbEntity
  8
VISIBLE
100
AcDbLine
 10
178.6027805709839
 20
169.3435338938048
 30
0.0
 11
178.6027805709839
 21
169.5842964746163
 31
0.0
  0
LINE
  5
216
330
1F
100
AcDbEntity
  8
VISIBLE
100
AcDbLine
 10
148.1227805709839
 20
161.3966630697611
 30
0.0
 11
178.6027805709839
 21
161.3966630697611
 31
0.0
  0
LINE
  5
217
330
1F
100
AcDbEntity
  8
VISIBLE
100
AcDbLine
 10
148.1227805709839
 20
185.5809010503777
 30
0.0
 11
148.1227805709839
 21
186.7823244751679
 31
0.0
  0
LINE
  5
218
330
1F
100
AcDbEntity
  8
VISIBLE
100
AcDbLine
 10
178.6027805709839
 20
141.5191930463988
 30
0.0
 11
178.6027805709839
 21
142.2871430693878
 31
0.0
  0
LINE
  5
219
330
1F
100
AcDbEntity
  8
VISIBLE
100
AcDbLine
 10
178.6027805709839
 20
169.5842964746163
 30
0.0
 11
178.6027805709839
 21
170.8025421242238
 31
0.0
  0
LINE
  5
21A
330
1F
100
AcDbEntity
  8
VISIBLE
100
AcDbLine
 10
178.6027805709839
 20
155.8813197833964
 30
0.0
 11
178.6027805709839
 21
157.490084446912
 31
0.0
  0
LINE
  5
21B
330
1F
100
AcDbEntity
  8
VISIBLE
100
AcDbLine
 10
178.6027805709839
 20
165.8120720491929
 30
0.0
 11
178.6027805709839
 21
167.0610722284065
 31
0.0
  0
LINE
  5
21C
330
1F
100
AcDbEntity
  8
VISIBLE
100
AcDbLine
 10
148.1227805709839
 20
188.4302096232849
 30
0.0
 11
178.6027805709839
 21
188.4302096232849
 31
0.0
  0
LINE
  5
21D
330
1F
100
AcDbEntity
  8
VISIBLE
100
AcDbLine
 10
148.1227805709839
 20
187.5502744981569
 30
0.0
 11
178.6027805709839
 21
187.5502744981569
 31
0.0
  0
LINE
  5
21E
330
1F
100
AcDbEntity
  8
VISIBLE
100
AcDbLine
 10
148.1227805709839
 20
165.3805114079658
 30
0.0
 11
148.1227805709839
 21
165.8120720491929
 31
0.0
  0
LINE
  5
21F
330
1F
100
AcDbEntity
  8
VISIBLE
100
AcDbLine
 10
178.6027805709839
 20
145.6957566883663
 30
0.0
 11
178.6027805709839
 21
145.9761664285686
 31
0.0
  0
LINE
  5
220
330
1F
100
AcDbEntity
  8
VISIBLE
100
AcDbLine
 10
148.1227805709839
 20
163.2573954953628
 30
0.0
 11
148.1227805709839
 21
163.6889561365898
 31
0.0
  0
LINE
  5
221
330
1F
100
AcDbEntity
  8
VISIBLE
100
AcDbLine
 10
178.6027805709839
 20
181.8971909128452
 30
0.0
 11
178.6027805709839
 21
183.0933011159871
 31
0.0
  0
LINE
  5
222
330
1F
100
AcDbEntity
  8
VISIBLE
100
AcDbLine
 10
148.1227805709839
 20
142.2871430693878
 30
0.0
 11
148.1227805709839
 21
143.488566494178
 31
0.0
  0
LINE
  5
223
330
1F
100
AcDbEntity
  8
VISIBLE
100
AcDbLine
 10
148.1227805709839
 20
184.5866298084253
 30
0.0
 11
178.6027805709839
 21
184.5866298084253
 31
0.0
  0
LINE
  5
224
330
1F
100
AcDbEntity
  8
VISIBLE
100
AcDbLine
 10
148.1227805709839
 20
148.315854802047
 30
0.0
 11
178.6027805709839
 21
148.315854802047
 31
0.0
  0
LINE
  5
225
330
1F
100
AcDbEntity
  8
VISIBLE
100
AcDbLine
 10
178.6027805709839
 20
161.3966630697611
 30
0.0
 11
178.6027805709839
 21
162.0083953161491
 31
0.0
  0
LINE
  5
226
330
1F
100
AcDbEntity
  8
VISIBLE
100
AcDbLine
 10
148.1227805709839
 20
153.756968470304
 30
0.0
 11
148.1227805709839
 21
154.6797897678029
 31
0.0
  0
LINE
  5
227
330
1F
100
AcDbEntity
  8
VISIBLE
100
AcDbLine
 10
148.1227805709839
 20
162.0083953161491
 30
0.0
 11
178.6027805709839
 21
162.0083953161491
 31
0.0
  0
LINE
  5
228
330
1F
100
AcDbEntity
  8
VISIBLE
100
AcDbLine
 10
178.6027805709839
 20
140.1165385954911
 30
0.0
 11
178.6027805709839
 21
140.6392579212708
 31
0.0
  0
LINE
  5
229
330
1F
100
AcDbEntity
  8
VISIBLE
100
AcDbLine
 10
178.6027805709839
 20
173.1881477611593
 30
0.0
 11
178.6027805709839
 21
173.2321839077704
 31
0.0
  0
LINE
  5
22A
330
1F
100
AcDbEntity
  8
VISIBLE
100
AcDbLine
 10
148.1227805709839
 20
171.5793830976437
 30
0.0
 11
178.6027805709839
 21
171.5793830976437
 31
0.0
  0
LINE
  5
22B
330
1F
100
AcDbEntity
  8
VISIBLE
100
AcDbLine
 10
148.1227805709839
 20
174.3896777767528
 30
0.0
 11
178.6027805709839
 21
174.3896777767528
 31
0.0
  0
LINE
  5
22C
330
1F
100
AcDbEntity
  8
VISIBLE
100
AcDbLine
 10
148.1227805709839
 20
148.9207398833152
 30
0.0
 11
178.6027805709839
 21
148.9207398833152
 31
0.0
  0
LINE
  5
22D
330
1F
100
AcDbEntity
  8
VISIBLE
100
AcDbLine
 10
178.6027805709839
 20
165.3805114079658
 30
0.0
 11
178.6027805709839
 21
165.8120720491929
 31
0.0
  0
LINE
  5
22E
330
1F
100
AcDbEntity
  8
VISIBLE
100
AcDbLine
 10
178.6027805709839
 20
147.1722766317104
 30
0.0
 11
178.6027805709839
 21
148.315854802047
 31
0.0
  0
LINE
  5
22F
330
1F
100
AcDbEntity
  8
VISIBLE
100
AcDbLine
 10
148.1227805709839
 20
188.9529289490646
 30
0.0
 11
148.1227805709839
 21
189.4897088514125
 31
0.0
  0
LINE
  5
230
330
1F
100
AcDbEntity
  8
VISIBLE
100
AcDbLine
 10
148.1227805709839
 20
143.488566494178
 30
0.0
 11
178.6027805709839
 21
143.488566494178
 31
0.0
  0
LINE
  5
231
330
1F
100
AcDbEntity
  8
VISIBLE
100
AcDbLine
 10
148.1227805709839
 20
152.2497816874827
 30
0.0
 11
148.1227805709839
 21
153.756968470304
 31
0.0
  0
LINE
  5
232
330
1F
100
AcDbEntity
  8
VISIBLE
100
AcDbLine
 10
148.1227805709839
 20
181.8971909128452
 30
0.0
 11
148.1227805709839
 21
183.0933011159871
 31
0.0
  0
LINE
  5
233
330
1F
100
AcDbEntity
  8
VISIBLE
100
AcDbLine
 10
148.1227805709839
 20
167.0610722284065
 30
0.0
 11
178.6027805709839
 21
167.0610722284065
 31
0.0
  0
LINE
  5
234
330
1F
100
AcDbEntity
  8
VISIBLE
100
AcDbLine
 10
178.6027805709839
 20
189.7543263953762
 30
0.0
 11
178.6027805709839
 21
189.9347337722778
 31
0.0
  0
LINE
  5
235
330
1F
100
AcDbEntity
  8
VISIBLE
100
AcDbLine
 10
148.1227805709839
 20
155.8813197833964
 30
0.0
 11
178.6027805709839
 21
155.8813197833964
 31
0.0
  0
LINE
  5
236
330
1F
100
AcDbEntity
  8
VISIBLE
100
AcDbLine
 10
178.6027805709839
 20
139.1347337722778
 30
0.0
 11
178.6027805709839
 21
139.3151411491795
 31
0.0
  0
LINE
  5
237
330
1F
100
AcDbEntity
  8
VISIBLE
100
AcDbLine
 10
178.6027805709839
 20
188.9529289490646
 30
0.0
 11
178.6027805709839
 21
189.4897088514125
 31
0.0
  0
LINE
  5
238
330
1F
100
AcDbEntity
  8
VISIBLE
100
AcDbLine
 10
148.1227805709839
 20
145.6957566883663
 30
0.0
 11
178.6027805709839
 21
145.6957566883663
 31
0.0
  0
LINE
  5
239
330
1F
100
AcDbEntity
  8
VISIBLE
100
AcDbLine
 10
178.6027805709839
 20
180.1487276612405
 30
0.0
 11
178.6027805709839
 21
180.7536127425087
 31
0.0
  0
LINE
  5
23A
330
1F
100
AcDbEntity
  8
VISIBLE
100
AcDbLine
 10
148.1227805709839
 20
145.6957566883663
 30
0.0
 11
148.1227805709839
 21
145.9761664285686
 31
0.0
  0
LINE
  5
23B
330
1F
100
AcDbEntity
  8
VISIBLE
100
AcDbLine
 10
178.6027805709839
 20
155.8372836367853
 30
0.0
 11
178.6027805709839
 21
155.8813197833964
 31
0.0
  0
LINE
  5
23C
330
1F
100
AcDbEntity
  8
VISIBLE
100
AcDbLine
 10
148.1227805709839
 20
180.1487276612405
 30
0.0
 11
148.1227805709839
 21
180.7536127425087
 31
0.0
  0
LINE
  5
23D
330
1F
100
AcDbEntity
  8
VISIBLE
100
AcDbLine
 10
148.1227805709839
 20
162.0083953161491
 30
0.0
 11
148.1227805709839
 21
163.2573954953628
 31
0.0
  0
LINE
  5
23E
330
1F
100
AcDbEntity
  8
VISIBLE
100
AcDbLine
 10
178.6027805709839
 20
144.4828377361304
 30
0.0
 11
178.6027805709839
 21
145.6957566883663
 31
0.0
  0
LINE
  5
23F
330
1F
100
AcDbEntity
  8
VISIBLE
100
AcDbLine
 10
148.1227805709839
 20
165.8120720491929
 30
0.0
 11
178.6027805709839
 21
165.8120720491929
 31
0.0
  0
LINE
  5
240
330
1F
100
AcDbEntity
  8
VISIBLE
100
AcDbLine
 10
148.1227805709839
 20
188.4302096232849
 30
0.0
 11
148.1227805709839
 21
188.9529289490646
 31
0.0
  0
LINE
  5
241
330
1F
100
AcDbEntity
  8
VISIBLE
100
AcDbLine
 10
178.6027805709839
 20
183.0933011159871
 30
0.0
 11
178.6027805709839
 21
183.3737108561893
 31
0.0
  0
LINE
  5
242
330
1F
100
AcDbEntity
  8
VISIBLE
100
AcDbLine
 10
148.1227805709839
 20
148.9207398833152
 30
0.0
 11
148.1227805709839
 21
150.2892368447829
 31
0.0
  0
LINE
  5
243
330
1F
100
AcDbEntity
  8
VISIBLE
100
AcDbLine
 10
148.1227805709839
 20
173.1881477611593
 30
0.0
 11
178.6027805709839
 21
173.1881477611593
 31
0.0
  0
LINE
  5
244
330
1F
100
AcDbEntity
  8
VISIBLE
100
AcDbLine
 10
148.1227805709839
 20
167.6728044747945
 30
0.0
 11
178.6027805709839
 21
167.6728044747945
 31
0.0
  0
LINE
  5
245
330
1F
100
AcDbEntity
  8
VISIBLE
100
AcDbLine
 10
148.1227805709839
 20
173.2321839077704
 30
0.0
 11
148.1227805709839
 21
174.3896777767528
 31
0.0
  0
LINE
  5
246
330
1F
100
AcDbEntity
  8
VISIBLE
100
AcDbLine
 10
148.1227805709839
 20
157.490084446912
 30
0.0
 11
148.1227805709839
 21
158.2669254203319
 31
0.0
  0
LINE
  5
247
330
1F
100
AcDbEntity
  8
VISIBLE
100
AcDbLine
 10
178.6027805709839
 20
151.335315543348
 30
0.0
 11
178.6027805709839
 21
152.2497816874827
 31
0.0
  0
LINE
  5
248
330
1F
100
AcDbEntity
  8
VISIBLE
100
AcDbLine
 10
148.1227805709839
 20
147.1722766317104
 30
0.0
 11
178.6027805709839
 21
147.1722766317104
 31
0.0
  0
LINE
  5
249
330
1F
100
AcDbEntity
  8
VISIBLE
100
AcDbLine
 10
178.6027805709839
 20
145.9761664285686
 30
0.0
 11
178.6027805709839
 21
147.1722766317104
 31
0.0
  0
LINE
  5
24A
330
1F
100
AcDbEntity
  8
VISIBLE
100
AcDbLine
 10
148.1227805709839
 20
158.2669254203319
 30
0.0
 11
178.6027805709839
 21
158.2669254203319
 31
0.0
  0
LINE
  5
24B
330
1F
100
AcDbEntity
  8
VISIBLE
100
AcDbLine
 10
148.1227805709839
 20
140.6392579212708
 30
0.0
 11
148.1227805709839
 21
141.5191930463988
 31
0.0
  0
LINE
  5
24C
330
1F
100
AcDbEntity
  8
VISIBLE
100
AcDbLine
 10
148.1227805709839
 20
159.7259336507508
 30
0.0
 11
178.6027805709839
 21
159.7259336507508
 31
0.0
  0
LINE
  5
24D
330
1F
100
AcDbEntity
  8
VISIBLE
100
AcDbLine
 10
178.6027805709839
 20
173.2321839077704
 30
0.0
 11
178.6027805709839
 21
174.3896777767528
 31
0.0
  0
LINE
  5
24E
330
1F
100
AcDbEntity
  8
VISIBLE
100
AcDbLine
 10
178.6027805709839
 20
159.7259336507508
 30
0.0
 11
178.6027805709839
 21
161.3966630697611
 31
0.0
  0
LINE
  5
24F
330
1F
100
AcDbEntity
  8
VISIBLE
100
AcDbLine
 10
178.6027805709839
 20
148.315854802047
 30
0.0
 11
178.6027805709839
 21
148.9207398833152
 31
0.0
  0
LINE
  5
250
330
1F
100
AcDbEntity
  8
VISIBLE
100
AcDbLine
 10
148.1227805709839
 20
180.7536127425087
 30
0.0
 11
148.1227805709839
 21
181.8971909128452
 31
0.0
  0
LINE
  5
251
330
1F
100
AcDbEntity
  8
VISIBLE
100
AcDbLine
 10
178.6027805709839
 20
159.4851710699394
 30
0.0
 11
178.6027805709839
 21
159.7259336507508
 31
0.0
  0
LINE
  5
252
330
1F
100
AcDbEntity
  8
VISIBLE
100
AcDbLine
 10
148.1227805709839
 20
186.7823244751679
 30
0.0
 11
178.6027805709839
 21
186.7823244751679
 31
0.0
  0
LINE
  5
253
330
1F
100
AcDbEntity
  8
VISIBLE
100
AcDbLine
 10
148.1227805709839
 20
169.5842964746163
 30
0.0
 11
178.6027805709839
 21
169.5842964746163
 31
0.0
  0
LINE
  5
254
330
1F
100
AcDbEntity
  8
VISIBLE
100
AcDbLine
 10
148.1227805709839
 20
186.7823244751679
 30
0.0
 11
148.1227805709839
 21
187.5502744981569
 31
0.0
  0
LINE
  5
255
330
1F
100
AcDbEntity
  8
VISIBLE
100
AcDbLine
 10
148.1227805709839
 20
141.5191930463988
 30
0.0
 11
178.6027805709839
 21
141.5191930463988
 31
0.0
  0
LINE
  5
256
330
1F
100
AcDbEntity
  8
VISIBLE
100
AcDbLine
 10
148.1227805709839
 20
154.6797897678029
 30
0.0
 11
178.6027805709839
 21
154.6797897678029
 31
0.0
  0
LINE
  5
257
330
1F
100
AcDbEntity
  8
VISIBLE
100
AcDbLine
 10
178.6027805709839
 20
186.7823244751679
 30
0.0
 11
178.6027805709839
 21
187.5502744981569
 31
0.0
  0
LINE
  5
258
330
1F
100
AcDbEntity
  8
VISIBLE
100
AcDbLine
 10
178.6027805709839
 20
188.4302096232849
 30
0.0
 11
178.6027805709839
 21
188.9529289490646
 31
0.0
  0
LINE
  5
259
330
1F
100
AcDbEntity
  8
VISIBLE
100
AcDbLine
 10
178.6027805709839
 20
139.5797586931432
 30
0.0
 11
178.6027805709839
 21
140.1165385954911
 31
0.0
  0
LINE
  5
25A
330
1F
100
AcDbEntity
  8
VISIBLE
100
AcDbLine
 10
148.1227805709839
 20
177.7341520012076
 30
0.0
 11
148.1227805709839
 21
178.7802306997728
 31
0.0
  0
LINE
  5
25B
330
1F
100
AcDbEntity
  8
VISIBLE
100
AcDbLine
 10
148.1227805709839
 20
141.5191930463988
 30
0.0
 11
148.1227805709839
 21
142.2871430693878
 31
0.0
  0
LINE
  5
25C
330
1F
100
AcDbEntity
  8
VISIBLE
100
AcDbLine
 10
178.6027805709839
 20
167.6728044747945
 30
0.0
 11
178.6027805709839
 21
169.3435338938048
 31
0.0
  0
LINE
  5
25D
330
1F
100
AcDbEntity
  8
VISIBLE
100
AcDbLine
 10
178.6027805709839
 20
184.5866298084253
 30
0.0
 11
178.6027805709839
 21
185.5809010503777
 31
0.0
  0
LINE
  5
25E
330
1F
100
AcDbEntity
  8
VISIBLE
100
AcDbLine
 10
148.1227805709839
 20
175.3124990742517
 30
0.0
 11
148.1227805709839
 21
176.819685857073
 31
0.0
  0
LINE
  5
25F
330
1F
100
AcDbEntity
  8
VISIBLE
100
AcDbLine
 10
148.1227805709839
 20
165.3805114079658
 30
0.0
 11
178.6027805709839
 21
165.3805114079658
 31
0.0
  0
LINE
  5
260
330
1F
100
AcDbEntity
  8
VISIBLE
100
AcDbLine
 10
148.1227805709839
 20
183.3737108561893
 30
0.0
 11
178.6027805709839
 21
183.3737108561893
 31
0.0
  0
LINE
  5
261
330
1F
100
AcDbEntity
  8
VISIBLE
100
AcDbLine
 10
148.1227805709839
 20
155.8813197833964
 30
0.0
 11
148.1227805709839
 21
157.490084446912
 31
0.0
  0
LINE
  5
262
330
1F
100
AcDbEntity
  8
VISIBLE
100
AcDbLine
 10
178.6027805709839
 20
183.3737108561893
 30
0.0
 11
178.6027805709839
 21
184.5866298084253
 31
0.0
  0
LINE
  5
263
330
1F
100
AcDbEntity
  8
VISIBLE
100
AcDbLine
 10
148.1227805709839
 20
139.5797586931432
 30
0.0
 11
178.6027805709839
 21
139.5797586931432
 31
0.0
  0
LINE
  5
264
330
1F
100
AcDbEntity
  8
VISIBLE
100
AcDbLine
 10
148.1227805709839
 20
183.0933011159871
 30
0.0
 11
148.1227805709839
 21
183.3737108561893
 31
0.0
  0
LINE
  5
265
330
1F
100
AcDbEntity
  8
VISIBLE
100
AcDbLine
 10
148.1227805709839
 20
187.5502744981569
 30
0.0
 11
148.1227805709839
 21
188.4302096232849
 31
0.0
  0
LINE
  5
266
330
1F
100
AcDbEntity
  8
VISIBLE
100
AcDbLine
 10
148.1227805709839
 20
189.7543263953762
 30
0.0
 11
148.1227805709839
 21
189.9347337722778
 31
0.0
  0
LINE
  5
267
330
1F
100
AcDbEntity
  8
VISIBLE
100
AcDbLine
 10
148.1227805709839
 20
169.3435338938048
 30
0.0
 11
148.1227805709839
 21
169.5842964746163
 31
0.0
  0
LINE
  5
268
330
1F
100
AcDbEntity
  8
VISIBLE
100
AcDbLine
 10
178.6027805709839
 20
154.6797897678029
 30
0.0
 11
178.6027805709839
 21
155.8372836367853
 31
0.0
  0
LINE
  5
269
330
1F
100
AcDbEntity
  8
VISIBLE
100
AcDbLine
 10
148.1227805709839
 20
175.3124990742517
 30
0.0
 11
178.6027805709839
 21
175.3124990742517
 31
0.0
  0
LINE
  5
26A
330
1F
100
AcDbEntity
  8
VISIBLE
100
AcDbLine
 10
148.1227805709839
 20
155.8372836367853
 30
0.0
 11
178.6027805709839
 21
155.8372836367853
 31
0.0
  0
LINE
  5
26B
330
1F
100
AcDbEntity
  8
VISIBLE
100
AcDbLine
 10
178.6027805709839
 20
139.3151411491795
 30
0.0
 11
178.6027805709839
 21
139.5797586931432
 31
0.0
  0
LINE
  5
26C
330
1F
100
AcDbEntity
  8
VISIBLE
100
AcDbLine
 10
148.1227805709839
 20
140.1165385954911
 30
0.0
 11
148.1227805709839
 21
140.6392579212708
 31
0.0
  0
LINE
  5
26D
330
1F
100
AcDbEntity
  8
VISIBLE
100
AcDbLine
 10
148.1227805709839
 20
159.4851710699394
 30
0.0
 11
178.6027805709839
 21
159.4851710699394
 31
0.0
  0
LINE
  5
26E
330
1F
100
AcDbEntity
  8
VISIBLE
100
AcDbLine
 10
148.1227805709839
 20
181.8971909128452
 30
0.0
 11
178.6027805709839
 21
181.8971909128452
 31
0.0
  0
LINE
  5
26F
330
1F
100
AcDbEntity
  8
VISIBLE
100
AcDbLine
 10
178.6027805709839
 20
178.7802306997728
 30
0.0
 11
178.6027805709839
 21
180.1487276612405
 31
0.0
  0
LINE
  5
270
330
1F
100
AcDbEntity
  8
VISIBLE
100
AcDbLine
 10
178.6027805709839
 20
143.488566494178
 30
0.0
 11
178.6027805709839
 21
144.4828377361304
 31
0.0
  0
LINE
  5
271
330
1F
100
AcDbEntity
  8
VISIBLE
100
AcDbLine
 10
148.1227805709839
 20
144.4828377361304
 30
0.0
 11
178.6027805709839
 21
144.4828377361304
 31
0.0
  0
LINE
  5
272
330
1F
100
AcDbEntity
  8
VISIBLE
100
AcDbLine
 10
148.1227805709839
 20
189.7543263953762
 30
0.0
 11
178.6027805709839
 21
189.7543263953762
 31
0.0
  0
LINE
  5
273
330
1F
100
AcDbEntity
  8
VISIBLE
100
AcDbLine
 10
148.1227805709839
 20
173.1881477611593
 30
0.0
 11
148.1227805709839
 21
173.2321839077704
 31
0.0
  0
LINE
  5
274
330
1F
100
AcDbEntity
  8
VISIBLE
100
AcDbLine
 10
148.1227805709839
 20
140.6392579212708
 30
0.0
 11
178.6027805709839
 21
140.6392579212708
 31
0.0
  0
LINE
  5
275
330
1F
100
AcDbEntity
  8
VISIBLE
100
AcDbLine
 10
148.1227805709839
 20
147.1722766317104
 30
0.0
 11
148.1227805709839
 21
148.315854802047
 31
0.0
  0
LINE
  5
276
330
1F
100
AcDbEntity
  8
VISIBLE
100
AcDbLine
 10
178.6027805709839
 20
187.5502744981569
 30
0.0
 11
178.6027805709839
 21
188.4302096232849
 31
0.0
  0
LINE
  5
277
330
1F
100
AcDbEntity
  8
VISIBLE
100
AcDbLine
 10
148.1227805709839
 20
161.3966630697611
 30
0.0
 11
148.1227805709839
 21
162.0083953161491
 31
0.0
  0
LINE
  5
278
330
1F
100
AcDbEntity
  8
VISIBLE
100
AcDbLine
 10
178.6027805709839
 20
158.2669254203319
 30
0.0
 11
178.6027805709839
 21
159.4851710699394
 31
0.0
  0
LINE
  5
279
330
1F
100
AcDbEntity
  8
VISIBLE
100
AcDbLine
 10
148.1227805709839
 20
139.1347337722778
 30
0.0
 11
148.1227805709839
 21
139.3151411491795
 31
0.0
  0
LINE
  5
27A
330
1F
100
AcDbEntity
  8
VISIBLE
100
AcDbLine
 10
178.6027805709839
 20
171.5793830976437
 30
0.0
 11
178.6027805709839
 21
173.1881477611593
 31
0.0
  0
LINE
  5
27B
330
1F
100
AcDbEntity
  8
VISIBLE
100
AcDbLine
 10
178.6027805709839
 20
167.0610722284065
 30
0.0
 11
178.6027805709839
 21
167.6728044747945
 31
0.0
  0
LINE
  5
27C
330
1F
100
AcDbEntity
  8
VISIBLE
100
AcDbLine
 10
148.1227805709839
 20
188.9529289490646
 30
0.0
 11
178.6027805709839
 21
188.9529289490646
 31
0.0
  0
LINE
  5
27D
330
1F
100
AcDbEntity
  8
VISIBLE
100
AcDbLine
 10
148.1227805709839
 20
183.3737108561893
 30
0.0
 11
148.1227805709839
 21
184.5866298084253
 31
0.0
  0
LINE
  5
27E
330
1F
100
AcDbEntity
  8
VISIBLE
100
AcDbLine
 10
148.1227805709839
 20
176.819685857073
 30
0.0
 11
148.1227805709839
 21
177.7341520012076
 31
0.0
  0
LINE
  5
27F
330
1F
100
AcDbEntity
  8
VISIBLE
100
AcDbLine
 10
148.1227805709839
 20
173.2321839077704
 30
0.0
 11
178.6027805709839
 21
173.2321839077704
 31
0.0
  0
LINE
  5
280
330
1F
100
AcDbEntity
  8
VISIBLE
100
AcDbLine
 10
148.1227805709839
 20
155.8372836367853
 30
0.0
 11
148.1227805709839
 21
155.8813197833964
 31
0.0
  0
LINE
  5
281
330
1F
100
AcDbEntity
  8
VISIBLE
100
AcDbLine
 10
148.1227805709839
 20
163.6889561365898
 30
0.0
 11
178.6027805709839
 21
163.6889561365898
 31
0.0
  0
LINE
  5
282
330
1F
100
AcDbEntity
  8
VISIBLE
100
AcDbLine
 10
178.6027805709839
 20
163.6889561365898
 30
0.0
 11
178.6027805709839
 21
165.3805114079658
 31
0.0
  0
LINE
  5
283
330
1F
100
AcDbEntity
  8
VISIBLE
100
AcDbLine
 10
148.1227805709839
 20
144.4828377361304
 30
0.0
 11
148.1227805709839
 21
145.6957566883663
 31
0.0
  0
LINE
  5
284
330
1F
100
AcDbEntity
  8
VISIBLE
100
AcDbLine
 10
148.1227805709839
 20
176.819685857073
 30
0.0
 11
178.6027805709839
 21
176.819685857073
 31
0.0
  0
LINE
  5
285
330
1F
100
AcDbEntity
  8
VISIBLE
100
AcDbLine
 10
148.1227805709839
 20
169.5842964746163
 30
0.0
 11
148.1227805709839
 21
170.8025421242238
 31
0.0
  0
LINE
  5
286
330
1F
100
AcDbEntity
  8
VISIBLE
100
AcDbLine
 10
148.1227805709839
 20
151.335315543348
 30
0.0
 11
178.6027805709839
 21
151.335315543348
 31
0.0
  0
LINE
  5
287
330
1F
100
AcDbEntity
  8
VISIBLE
100
AcDbLine
 10
178.6027805709839
 20
175.3124990742517
 30
0.0
 11
178.6027805709839
 21
176.819685857073
 31
0.0
  0
LINE
  5
288
330
1F
100
AcDbEntity
  8
VISIBLE
100
AcDbLine
 10
148.1227805709839
 20
139.3151411491795
 30
0.0
 11
178.6027805709839
 21
139.3151411491795
 31
0.0
  0
LINE
  5
289
330
1F
100
AcDbEntity
  8
VISIBLE
100
AcDbLine
 10
178.6027805709839
 20
185.5809010503777
 30
0.0
 11
178.6027805709839
 21
186.7823244751679
 31
0.0
  0
LINE
  5
28A
330
1F
100
AcDbEntity
  8
VISIBLE
100
AcDbLine
 10
148.1227805709839
 20
180.7536127425087
 30
0.0
 11
178.6027805709839
 21
180.7536127425087
 31
0.0
  0
LINE
  5
28B
330
1F
100
AcDbEntity
  8
VISIBLE
100
AcDbLine
 10
178.6027805709839
 20
163.2573954953628
 30
0.0
 11
178.6027805709839
 21
163.6889561365898
 31
0.0
  0
LINE
  5
28C
330
1F
100
AcDbEntity
  8
VISIBLE
100
AcDbLine
 10
148.1227805709839
 20
151.335315543348
 30
0.0
 11
148.1227805709839
 21
152.2497816874827
 31
0.0
  0
LINE
  5
28D
330
1F
100
AcDbEntity
  8
VISIBLE
100
AcDbLine
 10
178.6027805709839
 20
177.7341520012076
 30
0.0
 11
178.6027805709839
 21
178.7802306997728
 31
0.0
  0
DIMENSION
  5
28E
330
1F
100
AcDbEntity
  8
DIMENSIONS
100
AcDbDimension
  2
D5
 10
0.0
 20
0.0
 30
0.0
 11
311.4855611419678
 21
300.0346727371216
 31
0.0
 70
    32
  1
<>
 71
     5
 42
-1.0
 73
     0
 74
     0
 75
     0
  3
ISO-25
100
AcDbAlignedDimension
 13
148.1227805709839
 23
153.756968470304
 33
0.0
 14
178.6027805709839
 24
152.2497816874827
 34
0.0
100
AcDbRotatedDimension
1001
ACAD
1000
DSTYLE
1002
{
1070
    76
1070
     0
1070
    75
1070
     0
1070
   282
1070
     0
1070
   281
1070
     0
1070
    77
1070
     0
1070
    79
1070
     0
1070
    78
1070
     0
1070
   272
1070
     3
1070
   271
1070
     3
1070
   179
1070
     3
1070
   140
1040
2.275416666666667
1070
    71
1070
     0
1070
    72
1070
     0
1070
    48
1040
0.002
1070
    47
1040
0.005
1002
}
  0
LINE
  5
29B
330
1F
100
AcDbEntity
  8
VISIBLE
100
AcDbLine
 10
151.683264390271
 20
98.56586235366346
 30
0.0
 11
173.235879080837
 21
86.12245446032492
 31
0.0
  0
LINE
  5
29C
330
1F
100
AcDbEntity
  8
VISIBLE
100
AcDbLine
 10
159.2572060379819
 20
46.64957366658001
 30
0.0
 11
159.7561327985807
 21
47.7917488468774
 31
0.0
  0
LINE
  5
29D
330
1F
100
AcDbEntity
  8
VISIBLE
100
AcDbLine
 10
172.3527025844118
 20
46.15103138813748
 30
0.0
 11
171.9201425647204
 21
45.00021186478976
 31
0.0
  0
LINE
  5
29E
330
1F
100
AcDbEntity
  8
VISIBLE
100
AcDbLine
 10
135.4643854200402
 20
70.4739399354133
 30
0.0
 11
135.5085176282562
 21
71.14692132211775
 31
0.0
  0
LINE
  5
29F
330
1F
100
AcDbEntity
  8
VISIBLE
100
AcDbLine
 10
154.0685063202218
 20
99.89038170781916
 30
0.0
 11
154.3728700016478
 21
100.0384465323947
 31
0.0
  0
LINE
  5
2A0
330
1F
100
AcDbEntity
  8
VISIBLE
100
AcDbLine
 10
138.4076472849393
 20
83.8790632545835
 30
0.0
 11
159.9602619755052
 21
71.43565536124495
 31
0.0
  0
LINE
  5
2A1
330
1F
100
AcDbEntity
  8
VISIBLE
100
AcDbLine
 10
134.9406468449494
 20
73.054985849902
 30
0.0
 11
156.4932615355154
 21
60.61157795656345
 31
0.0
  0
LINE
  5
2A2
330
1F
100
AcDbEntity
  8
VISIBLE
100
AcDbLine
 10
141.545717987456
 20
89.31436114908578
 30
0.0
 11
142.513391468943
 21
90.68486676367888
 31
0.0
  0
LINE
  5
2A3
330
1F
100
AcDbEntity
  8
VISIBLE
100
AcDbLine
 10
165.4523207126023
 20
43.69264258375961
 30
0.0
 11
165.5610557776292
 21
44.77799593119343
 31
0.0
  0
LINE
  5
2A4
330
1F
100
AcDbEntity
  8
VISIBLE
100
AcDbLine
 10
182.7491157316713
 20
89.28732891955026
 30
0.0
 11
183.4724917757064
 21
88.8696875658013
 31
0.0
  0
LINE
  5
2A5
330
1F
100
AcDbEntity
  8
VISIBLE
100
AcDbLine
 10
136.9205310784763
 20
78.31823177238942
 30
0.0
 11
136.3120340278026
 21
78.72039627059698
 31
0.0
  0
LINE
  5
2A6
330
1F
100
AcDbEntity
  8
VISIBLE
100
AcDbLine
 10
164.8635901299028
 20
101.5576431358796
 30
0.0
 11
186.4162048204688
 21
89.11423524254108
 31
0.0
  0
LINE
  5
2A7
330
1F
100
AcDbEntity
  8
VISIBLE
100
AcDbLine
 10
148.2784730599027
 20
95.98911205222888
 30
0.0
 11
149.0158989188966
 21
96.6192935829933
 31
0.0
  0
LINE
  5
2A8
330
1F
100
AcDbEntity
  8
VISIBLE
100
AcDbLine
 10
181.1075913720907
 20
52.80682061717292
 30
0.0
 11
180.2891196081514
 21
51.9428067167227
 31
0.0
  0
LINE
  5
2A9
330
1F
100
AcDbEntity
  8
VISIBLE
100
AcDbLine
 10
136.3120340278026
 20
61.12037923239069
 30
0.0
 11
157.8646487183685
 21
48.67697133905214
 31
0.0
  0
LINE
  5
2AA
330
1F
100
AcDbEntity
  8
VISIBLE
100
AcDbLine
 10
157.8646487183685
 20
48.67697133905214
 30
0.0
 11
158.4731457690423
 21
49.78176770927489
 31
0.0
  0
LINE
  5
2AB
330
1F
100
AcDbEntity
  8
VISIBLE
100
AcDbLine
 10
175.0423081957886
 20
87.1653967961142
 30
0.0
 11
175.9254846922137
 21
87.59503863905618
 31
0.0
  0
LINE
  5
2AC
330
1F
100
AcDbEntity
  8
VISIBLE
100
AcDbLine
 10
189.8705158893891
 20
85.98619725908756
 30
0.0
 11
190.413538558257
 21
85.06909868814152
 31
0.0
  0
LINE
  5
2AD
330
1F
100
AcDbEntity
  8
VISIBLE
100
AcDbLine
 10
137.7045913474159
 20
82.35578062975068
 30
0.0
 11
159.2572060379819
 21
69.91237273641214
 31
0.0
  0
LINE
  5
2AE
330
1F
100
AcDbEntity
  8
VISIBLE
100
AcDbLine
 10
134.9406468449494
 20
65.2022481347187
 30
0.0
 11
134.7535339851917
 21
66.45836333304608
 31
0.0
  0
LINE
  5
2AF
330
1F
100
AcDbEntity
  8
VISIBLE
100
AcDbLine
 10
164.8056955009192
 20
44.87638246139237
 30
0.0
 11
164.066006159509
 21
43.87321162193727
 31
0.0
  0
LINE
  5
2B0
330
1F
100
AcDbEntity
  8
VISIBLE
100
AcDbLine
 10
140.3093677655908
 20
87.38125624410218
 30
0.0
 11
161.8619824561568
 21
74.93784835076363
 31
0.0
  0
LINE
  5
2B1
330
1F
100
AcDbEntity
  8
VISIBLE
100
AcDbLine
 10
190.413538558257
 20
67.46908164993523
 30
0.0
 11
189.8705158893891
 21
65.92495451089526
 31
0.0
  0
LINE
  5
2B2
330
1F
100
AcDbEntity
  8
VISIBLE
100
AcDbLine
 10
176.3580447119052
 20
88.74585816240392
 30
0.0
 11
177.5394288136152
 21
89.2118712716427
 31
0.0
  0
LINE
  5
2B3
330
1F
100
AcDbEntity
  8
VISIBLE
100
AcDbLine
 10
158.4076713872364
 20
47.75987276810611
 30
0.0
 11
157.8646487183685
 21
48.67697133905214
 31
0.0
  0
LINE
  5
2B4
330
1F
100
AcDbEntity
  8
VISIBLE
100
AcDbLine
 10
183.4724917757064
 20
88.8696875658013
 30
0.0
 11
184.2121811171166
 21
89.8728584052564
 31
0.0
  0
LINE
  5
2B5
330
1F
100
AcDbEntity
  8
VISIBLE
100
AcDbLine
 10
190.7022809082801
 20
81.55343973182474
 30
0.0
 11
190.9090918960928
 21
80.67814870367522
 31
0.0
  0
LINE
  5
2B6
330
1F
100
AcDbEntity
  8
VISIBLE
100
AcDbLine
 10
170.7387584630103
 20
85.28550241405107
 30
0.0
 11
171.9201425647204
 21
86.18363416308955
 31
0.0
  0
LINE
  5
2B7
330
1F
100
AcDbEntity
  8
VISIBLE
100
AcDbLine
 10
159.2932474256832
 20
68.20684664235635
 30
0.0
 11
159.7561327985807
 21
69.34630855518995
 31
0.0
  0
LINE
  5
2B8
330
1F
100
AcDbEntity
  8
VISIBLE
100
AcDbLine
 10
178.4470995261568
 20
50.20036586830334
 30
0.0
 11
179.1204129473602
 21
49.81162818332258
 31
0.0
  0
LINE
  5
2B9
330
1F
100
AcDbEntity
  8
VISIBLE
100
AcDbLine
 10
176.3580447119052
 20
47.56243586410412
 30
0.0
 11
175.9254846922137
 21
48.2137780998328
 31
0.0
  0
LINE
  5
2BA
330
1F
100
AcDbEntity
  8
VISIBLE
100
AcDbLine
 10
175.9254846922137
 20
87.59503863905618
 30
0.0
 11
176.3580447119052
 21
88.7458581624039
 31
0.0
  0
LINE
  5
2BB
330
1F
100
AcDbEntity
  8
VISIBLE
100
AcDbLine
 10
180.2717710314834
 20
89.46833859355257
 30
0.0
 11
181.1075913720907
 21
88.98577749490875
 31
0.0
  0
LINE
  5
2BC
330
1F
100
AcDbEntity
  8
VISIBLE
100
AcDbLine
 10
182.7171314989964
 20
54.68306086716241
 30
0.0
 11
182.8258665640232
 21
53.72326395785574
 31
0.0
  0
LINE
  5
2BD
330
1F
100
AcDbEntity
  8
VISIBLE
100
AcDbLine
 10
137.704591347416
 20
59.09298155991856
 30
0.0
 11
159.2572060379819
 21
46.64957366658001
 31
0.0
  0
LINE
  5
2BE
330
1F
100
AcDbEntity
  8
VISIBLE
100
AcDbLine
 10
134.6259667056085
 20
68.25636178138888
 30
0.0
 11
134.6259667056085
 21
69.63751087691766
 31
0.0
  0
LINE
  5
2BF
330
1F
100
AcDbEntity
  8
VISIBLE
100
AcDbLine
 10
184.2121811171166
 20
89.8728584052564
 30
0.0
 11
185.1798545986036
 21
89.61972588071167
 31
0.0
  0
LINE
  5
2C0
330
1F
100
AcDbEntity
  8
VISIBLE
100
AcDbLine
 10
157.0865076083022
 20
54.96497316709568
 30
0.0
 11
157.0170001106061
 21
55.94464737049621
 31
0.0
  0
LINE
  5
2C1
330
1F
100
AcDbEntity
  8
VISIBLE
100
AcDbLine
 10
157.0408446682349
 20
101.0467343459843
 30
0.0
 11
157.5677982567942
 21
102.1297818252057
 31
0.0
  0
LINE
  5
2C2
330
1F
100
AcDbEntity
  8
VISIBLE
100
AcDbLine
 10
137.704591347416
 20
59.09298155991856
 30
0.0
 11
137.9208115769113
 21
59.58796679444748
 31
0.0
  0
LINE
  5
2C3
330
1F
100
AcDbEntity
  8
VISIBLE
100
AcDbLine
 10
158.4076713872364
 20
67.8211155162984
 30
0.0
 11
159.2932474256832
 21
68.20684664235635
 31
0.0
  0
LINE
  5
2C4
330
1F
100
AcDbEntity
  8
VISIBLE
100
AcDbLine
 10
134.7535339851917
 20
71.58281133167479
 30
0.0
 11
134.9406468449494
 21
73.054985849902
 31
0.0
  0
LINE
  5
2C5
330
1F
100
AcDbEntity
  8
VISIBLE
100
AcDbLine
 10
145.6179812139688
 20
93.3826573033593
 30
0.0
 11
146.4364529779082
 21
94.2466712038095
 31
0.0
  0
LINE
  5
2C6
330
1F
100
AcDbEntity
  8
VISIBLE
100
AcDbLine
 10
157.5759063683455
 20
62.42791847391713
 30
0.0
 11
156.8728222444702
 21
62.65628066445675
 31
0.0
  0
LINE
  5
2C7
330
1F
100
AcDbEntity
  8
VISIBLE
100
AcDbLine
 10
142.513391468943
 20
90.68486676367888
 30
0.0
 11
164.066006159509
 21
78.24145887034034
 31
0.0
  0
LINE
  5
2C8
330
1F
100
AcDbEntity
  8
VISIBLE
100
AcDbLine
 10
190.7022809082801
 20
71.31815155327654
 30
0.0
 11
191.4053650321553
 21
71.08978936273691
 31
0.0
  0
LINE
  5
2C9
330
1F
100
AcDbEntity
  8
VISIBLE
100
AcDbLine
 10
159.9602619755052
 20
45.93811011131609
 30
0.0
 11
159.2572060379819
 21
46.64957366658001
 31
0.0
  0
LINE
  5
2CA
330
1F
100
AcDbEntity
  8
VISIBLE
100
AcDbLine
 10
184.9339236288359
 20
88.48739339167113
 30
0.0
 11
185.6075729414069
 21
88.21196704815418
 31
0.0
  0
LINE
  5
2CB
330
1F
100
AcDbEntity
  8
VISIBLE
100
AcDbLine
 10
189.9889350015292
 20
84.29818210319313
 30
0.0
 11
191.0357466522393
 21
83.69380511486483
 31
0.0
  0
LINE
  5
2CC
330
1F
100
AcDbEntity
  8
VISIBLE
100
AcDbLine
 10
185.6075729414069
 20
88.21196704815418
 30
0.0
 11
186.4162048204688
 21
89.11423524254108
 31
0.0
  0
LINE
  5
2CD
330
1F
100
AcDbEntity
  8
VISIBLE
100
AcDbLine
 10
156.8728222444702
 20
51.15241648846465
 30
0.0
 11
157.5759063683454
 21
52.19263029536893
 31
0.0
  0
LINE
  5
2CE
330
1F
100
AcDbEntity
  8
VISIBLE
100
AcDbLine
 10
164.3865658323616
 20
44.30795645075677
 30
0.0
 11
165.4523207126023
 21
43.6926425837596
 31
0.0
  0
LINE
  5
2CF
330
1F
100
AcDbEntity
  8
VISIBLE
100
AcDbLine
 10
190.413538558257
 20
85.06909868814152
 30
0.0
 11
189.8050415075832
 21
83.96430231791878
 31
0.0
  0
LINE
  5
2D0
330
1F
100
AcDbEntity
  8
VISIBLE
100
AcDbLine
 10
179.1204129473602
 20
49.81162818332258
 30
0.0
 11
178.5711034271514
 21
50.30633580032626
 31
0.0
  0
LINE
  5
2D1
330
1F
100
AcDbEntity
  8
VISIBLE
100
AcDbLine
 10
149.1861437724444
 20
97.72891030738961
 30
0.0
 11
150.3675278741544
 21
98.62704205642811
 31
0.0
  0
LINE
  5
2D2
330
1F
100
AcDbEntity
  8
VISIBLE
100
AcDbLine
 10
154.8054300213392
 20
101.1892660557425
 30
0.0
 11
176.3580447119052
 21
88.7458581624039
 31
0.0
  0
LINE
  5
2D3
330
1F
100
AcDbEntity
  8
VISIBLE
100
AcDbLine
 10
158.4731457690423
 20
65.87482387905087
 30
0.0
 11
157.8646487183685
 21
66.27698837725843
 31
0.0
  0
LINE
  5
2D4
330
1F
100
AcDbEntity
  8
VISIBLE
100
AcDbLine
 10
168.0202059263601
 20
43.82971921397161
 30
0.0
 11
167.9890676684741
 21
44.84136841830367
 31
0.0
  0
LINE
  5
2D5
330
1F
100
AcDbEntity
  8
VISIBLE
100
AcDbLine
 10
180.2891196081514
 20
51.9428067167227
 30
0.0
 11
180.2579813502654
 21
50.89520214924546
 31
0.0
  0
LINE
  5
2D6
330
1F
100
AcDbEntity
  8
VISIBLE
100
AcDbLine
 10
187.2619824561568
 20
88.62592529690205
 30
0.0
 11
186.8849112183219
 21
87.47449545013106
 31
0.0
  0
LINE
  5
2D7
330
1F
100
AcDbEntity
  8
VISIBLE
100
AcDbLine
 10
136.8550566966705
 20
60.20328066144465
 30
0.0
 11
158.4076713872364
 21
47.75987276810611
 31
0.0
  0
LINE
  5
2D8
330
1F
100
AcDbEntity
  8
VISIBLE
100
AcDbLine
 10
190.1440636126264
 20
83.21494703505769
 30
0.0
 11
191.0357466522393
 21
83.69380511486483
 31
0.0
  0
LINE
  5
2D9
330
1F
100
AcDbEntity
  8
VISIBLE
100
AcDbLine
 10
169.7070838494741
 20
45.18869171105217
 30
0.0
 11
169.1577743292653
 21
44.05969609532653
 31
0.0
  0
LINE
  5
2DA
330
1F
100
AcDbEntity
  8
VISIBLE
100
AcDbLine
 10
187.2046102253231
 20
88.45073267458197
 30
0.0
 11
188.3179253011203
 21
87.80795991587757
 31
0.0
  0
LINE
  5
2DB
330
1F
100
AcDbEntity
  8
VISIBLE
100
AcDbLine
 10
151.9884238461759
 20
99.71016878861742
 30
0.0
 11
173.5410385367419
 21
87.26676089527888
 31
0.0
  0
LINE
  5
2DC
330
1F
100
AcDbEntity
  8
VISIBLE
100
AcDbLine
 10
187.4602620849646
 20
62.09921920042207
 30
0.0
 11
186.8849112183219
 21
60.98917699878292
 31
0.0
  0
LINE
  5
2DD
330
1F
100
AcDbEntity
  8
VISIBLE
100
AcDbLine
 10
190.7320516109519
 20
71.47852704771768
 30
0.0
 11
191.4053650321553
 21
71.08978936273691
 31
0.0
  0
LINE
  5
2DE
330
1F
100
AcDbEntity
  8
VISIBLE
100
AcDbLine
 10
155.9868141230492
 20
101.6552791649813
 30
0.0
 11
177.5394288136152
 21
89.2118712716427
 31
0.0
  0
LINE
  5
2DF
330
1F
100
AcDbEntity
  8
VISIBLE
100
AcDbLine
 10
191.2170549578034
 20
75.04255659841446
 30
0.0
 11
191.9720386008678
 21
74.60666658885742
 31
0.0
  0
ELLIPSE
  5
2E0
330
1F
100
AcDbEntity
  8
VISIBLE
100
AcDbEllipse
 10
174.1390936383128
 20
66.87303501359683
 30
0.0
 11
3.174999999999983
 21
5.499261314031187
 31
0.0
210
0.0
220
0.0
230
0.9999999999999998
 40
0.577350269189628
 41
-0.7853981633974476
 42
0.0
  0
ELLIPSE
  5
2E1
330
1F
100
AcDbEntity
  8
VISIBLE
100
AcDbEllipse
 10
174.1390936383128
 20
66.87303501359683
 30
0.0
 11
3.174999999999983
 21
5.499261314031187
 31
0.0
210
0.0
220
0.0
230
0.9999999999999998
 40
0.577350269189628
 41
0.0
 42
3.141592653589787
  0
ELLIPSE
  5
2E2
330
1F
100
AcDbEntity
  8
VISIBLE
100
AcDbEllipse
 10
174.1390936383128
 20
66.87303501359683
 30
0.0
 11
3.174999999999983
 21
5.499261314031187
 31
0.0
210
0.0
220
0.0
230
0.9999999999999998
 40
0.577350269189628
 41
3.141592653589787
 42
5.497787143782139
  0
LINE
  5
2E3
330
1F
100
AcDbEntity
  8
VISIBLE
100
AcDbLine
 10
157.5677982567942
 20
102.1297818252057
 30
0.0
 11
158.7053666596994
 21
102.3597587065606
 31
0.0
  0
LINE
  5
2E4
330
1F
100
AcDbEntity
  8
VISIBLE
100
AcDbLine
 10
166.51806270725
 20
81.26514106492836
 30
0.0
 11
167.1705959045348
 21
80.93924941002075
 31
0.0
  0
LINE
  5
2E5
330
1F
100
AcDbEntity
  8
VISIBLE
100
AcDbLine
 10
191.2611871660194
 20
75.71553798511893
 30
0.0
 11
191.1916796683233
 21
74.65560343670737
 31
0.0
  0
LINE
  5
2E6
330
1F
100
AcDbEntity
  8
VISIBLE
100
AcDbLine
 10
186.8849112183219
 20
87.47449545013106
 30
0.0
 11
187.4602620849646
 21
87.02881120396111
 31
0.0
  0
LINE
  5
2E7
330
1F
100
AcDbEntity
  8
VISIBLE
100
AcDbLine
 10
161.3932760583036
 20
72.75689302841074
 30
0.0
 11
161.0162048204688
 21
73.47291851384654
 31
0.0
  0
LINE
  5
2E8
330
1F
100
AcDbEntity
  8
VISIBLE
100
AcDbLine
 10
159.2932474256832
 20
48.3967167704184
 30
0.0
 11
158.4076713872364
 21
47.75987276810611
 31
0.0
  0
LINE
  5
2E9
330
1F
100
AcDbEntity
  8
VISIBLE
100
AcDbLine
 10
149.1861437724444
 20
97.72891030738961
 30
0.0
 11
170.7387584630103
 21
85.28550241405107
 31
0.0
  0
LINE
  5
2EA
330
1F
100
AcDbEntity
  8
VISIBLE
100
AcDbLine
 10
189.0209812386436
 20
63.83369729078153
 30
0.0
 11
188.3179253011203
 21
62.31041466594871
 31
0.0
  0
LINE
  5
2EB
330
1F
100
AcDbEntity
  8
VISIBLE
100
AcDbLine
 10
173.235879080837
 20
46.58067323107948
 30
0.0
 11
172.3527025844118
 21
46.15103138813748
 31
0.0
  0
LINE
  5
2EC
330
1F
100
AcDbEntity
  8
VISIBLE
100
AcDbLine
 10
172.6570662658378
 20
46.29909621271305
 30
0.0
 11
173.5410385367418
 21
45.78873458415039
 31
0.0
  0
LINE
  5
2ED
330
1F
100
AcDbEntity
  8
VISIBLE
100
AcDbLine
 10
175.9254846922137
 20
48.2137780998328
 30
0.0
 11
175.0423081957886
 21
47.62361556686875
 31
0.0
  0
LINE
  5
2EE
330
1F
100
AcDbEntity
  8
VISIBLE
100
AcDbLine
 10
137.7045913474159
 20
82.35578062975068
 30
0.0
 11
138.4076472849393
 21
83.8790632545835
 31
0.0
  0
LINE
  5
2EF
330
1F
100
AcDbEntity
  8
VISIBLE
100
AcDbLine
 10
160.2075098788096
 20
102.50855747737
 30
0.0
 11
161.2732518734572
 21
102.4968353367726
 31
0.0
  0
LINE
  5
2F0
330
1F
100
AcDbEntity
  8
VISIBLE
100
AcDbLine
 10
167.1705959045348
 20
80.93924941002075
 30
0.0
 11
167.9890676684741
 21
81.80326331047095
 31
0.0
  0
LINE
  5
2F1
330
1F
100
AcDbEntity
  8
VISIBLE
100
AcDbLine
 10
190.9090918960928
 20
80.67814870367522
 30
0.0
 11
191.7849257411102
 21
80.98722978581351
 31
0.0
  0
LINE
  5
2F2
330
1F
100
AcDbEntity
  8
VISIBLE
100
AcDbLine
 10
187.4602620849646
 20
87.02881120396111
 30
0.0
 11
188.3179253011203
 21
87.80795991587757
 31
0.0
  0
LINE
  5
2F3
330
1F
100
AcDbEntity
  8
VISIBLE
100
AcDbLine
 10
138.2035181080147
 20
81.78971644852851
 30
0.0
 11
159.7561327985807
 21
69.34630855518996
 31
0.0
  0
LINE
  5
2F4
330
1F
100
AcDbEntity
  8
VISIBLE
100
AcDbLine
 10
135.3202075539042
 20
75.0996885577953
 30
0.0
 11
135.6898259338203
 21
76.6266386762151
 31
0.0
  0
LINE
  5
2F5
330
1F
100
AcDbEntity
  8
VISIBLE
100
AcDbLine
 10
184.9558289926391
 20
88.58825159241795
 30
0.0
 11
185.6075729414069
 21
88.21196704815418
 31
0.0
  0
LINE
  5
2F6
330
1F
100
AcDbEntity
  8
VISIBLE
100
AcDbLine
 10
135.3202075539042
 20
63.59582438180319
 30
0.0
 11
156.8728222444702
 21
51.15241648846465
 31
0.0
  0
LINE
  5
2F7
330
1F
100
AcDbEntity
  8
VISIBLE
100
AcDbLine
 10
156.4932615355154
 20
60.61157795656345
 30
0.0
 11
157.3690953805327
 21
61.31382268679754
 31
0.0
  0
LINE
  5
2F8
330
1F
100
AcDbEntity
  8
VISIBLE
100
AcDbLine
 10
134.7535339851917
 20
66.45836333304608
 30
0.0
 11
156.3061486757577
 21
54.01495543970753
 31
0.0
  0
LINE
  5
2F9
330
1F
100
AcDbEntity
  8
VISIBLE
100
AcDbLine
 10
182.8258665640232
 20
53.72326395785574
 30
0.0
 11
181.7601245693756
 21
52.4809289622653
 31
0.0
  0
LINE
  5
2FA
330
1F
100
AcDbEntity
  8
VISIBLE
100
AcDbLine
 10
144.0084410870632
 20
91.5064170533698
 30
0.0
 11
143.8997060220364
 21
92.46621396267648
 31
0.0
  0
ELLIPSE
  5
2FB
330
1F
100
AcDbEntity
  8
VISIBLE
100
AcDbEllipse
 10
185.3644137896492
 20
73.35397662471065
 30
0.0
 11
1.587500000000006
 21
2.749630657015601
 31
0.0
210
0.0
220
0.0
230
1.0
 40
0.5773502691896268
 41
3.141592653589788
 42
5.497787143782143
  0
ELLIPSE
  5
2FC
330
1F
100
AcDbEntity
  8
VISIBLE
100
AcDbEllipse
 10
185.3644137896492
 20
73.35397662471065
 30
0.0
 11
1.587500000000006
 21
2.749630657015601
 31
0.0
210
0.0
220
0.0
230
1.0
 40
0.5773502691896268
 41
0.0
 42
3.141592653589788
  0
ELLIPSE
  5
2FD
330
1F
100
AcDbEntity
  8
VISIBLE
100
AcDbEllipse
 10
185.3644137896492
 20
73.35397662471065
 30
0.0
 11
1.587500000000006
 21
2.749630657015601
 31
0.0
210
0.0
220
0.0
230
1.0
 40
0.5773502691896268
 41
-0.7853981633974427
 42
0.0
  0
LINE
  5
2FE
330
1F
100
AcDbEntity
  8
VISIBLE
100
AcDbLine
 10
137.7406327351172
 20
80.6502545356949
 30
0.0
 11
159.2932474256832
 21
68.20684664235635
 31
0.0
  0
LINE
  5
2FF
330
1F
100
AcDbEntity
  8
VISIBLE
100
AcDbLine
 10
175.0423081957886
 20
47.62361556686875
 30
0.0
 11
174.7371487398837
 21
46.47930913191479
 31
0.0
  0
LINE
  5
300
330
1F
100
AcDbEntity
  8
VISIBLE
100
AcDbLine
 10
191.4053650321553
 20
71.08978936273691
 30
0.0
 11
191.0357466522392
 21
69.56283924431713
 31
0.0
  0
LINE
  5
301
330
1F
100
AcDbEntity
  8
VISIBLE
100
AcDbLine
 10
166.51806270725
 20
43.68092044316218
 30
0.0
 11
165.4523207126023
 21
43.6926425837596
 31
0.0
  0
LINE
  5
302
330
1F
100
AcDbEntity
  8
VISIBLE
100
AcDbLine
 10
157.3690953805327
 20
61.31382268679754
 30
0.0
 11
157.5759063683455
 21
62.42791847391713
 31
0.0
  0
LINE
  5
303
330
1F
100
AcDbEntity
  8
VISIBLE
100
AcDbLine
 10
161.8619824561568
 20
74.93784835076363
 30
0.0
 11
162.6706143352187
 21
74.96930782248012
 31
0.0
  0
LINE
  5
304
330
1F
100
AcDbEntity
  8
VISIBLE
100
AcDbLine
 10
177.5517269328091
 20
89.1459156095556
 30
0.0
 11
178.5711034271514
 21
88.5573783161415
 31
0.0
  0
LINE
  5
305
330
1F
100
AcDbEntity
  8
VISIBLE
100
AcDbLine
 10
185.6075729414069
 20
58.77676220471354
 30
0.0
 11
184.9339236288359
 21
57.72347263729206
 31
0.0
  0
LINE
  5
306
330
1F
100
AcDbEntity
  8
VISIBLE
100
AcDbLine
 10
157.2424406243863
 20
50.05226491232884
 30
0.0
 11
156.8728222444702
 21
51.15241648846465
 31
0.0
  0
LINE
  5
307
330
1F
100
AcDbEntity
  8
VISIBLE
100
AcDbLine
 10
157.0170001106061
 20
58.03053204207475
 30
0.0
 11
157.0865076083022
 21
59.0904665904863
 31
0.0
  0
LINE
  5
308
330
1F
100
AcDbEntity
  8
VISIBLE
100
AcDbLine
 10
189.8705158893891
 20
65.92495451089526
 30
0.0
 11
188.9849398509423
 21
65.53922338483731
 31
0.0
  0
LINE
  5
309
330
1F
100
AcDbEntity
  8
VISIBLE
100
AcDbLine
 10
181.1075913720907
 20
88.98577749490875
 30
0.0
 11
181.7601245693756
 21
90.0651495840315
 31
0.0
  0
LINE
  5
30A
330
1F
100
AcDbEntity
  8
VISIBLE
100
AcDbLine
 10
191.9720386008678
 20
74.60666658885742
 30
0.0
 11
191.7849257411102
 21
73.1344920706302
 31
0.0
  0
LINE
  5
30B
330
1F
100
AcDbEntity
  8
VISIBLE
100
AcDbLine
 10
146.4675912357942
 20
95.29427577128675
 30
0.0
 11
168.0202059263601
 21
82.8508678779482
 31
0.0
  0
LINE
  5
30C
330
1F
100
AcDbEntity
  8
VISIBLE
100
AcDbLine
 10
189.8050415075832
 20
83.96430231791878
 30
0.0
 11
190.1440636126264
 21
83.21494703505769
 31
0.0
  0
LINE
  5
30D
330
1F
100
AcDbEntity
  8
VISIBLE
100
AcDbLine
 10
144.965448016684
 20
93.7085489582669
 30
0.0
 11
166.51806270725
 21
81.26514106492836
 31
0.0
  0
LINE
  5
30E
330
1F
100
AcDbEntity
  8
VISIBLE
100
AcDbLine
 10
159.9602619755052
 20
71.43565536124495
 30
0.0
 11
160.8179251916609
 21
71.64685082677158
 31
0.0
  0
LINE
  5
30F
330
1F
100
AcDbEntity
  8
VISIBLE
100
AcDbLine
 10
143.2530808103532
 20
90.53581560498357
 30
0.0
 11
144.0084410870632
 21
91.5064170533698
 31
0.0
  0
LINE
  5
310
330
1F
100
AcDbEntity
  8
VISIBLE
100
AcDbLine
 10
134.6259667056085
 20
69.63751087691766
 30
0.0
 11
135.4643854200402
 21
70.47393993541328
 31
0.0
  0
LINE
  5
311
330
1F
100
AcDbEntity
  8
VISIBLE
100
AcDbLine
 10
163.3442636477897
 20
45.25867663552254
 30
0.0
 11
162.6706143352187
 21
45.53410297903948
 31
0.0
  0
LINE
  5
312
330
1F
100
AcDbEntity
  8
VISIBLE
100
AcDbLine
 10
161.0162048204688
 20
73.47291851384654
 30
0.0
 11
161.8619824561568
 21
74.93784835076363
 31
0.0
  0
LINE
  5
313
330
1F
100
AcDbEntity
  8
VISIBLE
100
AcDbLine
 10
170.5685136094625
 20
45.44723365589937
 30
0.0
 11
169.7070838494741
 21
45.18869171105217
 31
0.0
  0
LINE
  5
314
330
1F
100
AcDbEntity
  8
VISIBLE
100
AcDbLine
 10
182.7171314989964
 20
88.96807409600024
 30
0.0
 11
183.4724917757064
 21
88.8696875658013
 31
0.0
  0
LINE
  5
315
330
1F
100
AcDbEntity
  8
VISIBLE
100
AcDbLine
 10
178.5711034271514
 20
88.5573783161415
 30
0.0
 11
179.1204129473602
 21
89.68637393186714
 31
0.0
  0
LINE
  5
316
330
1F
100
AcDbEntity
  8
VISIBLE
100
AcDbLine
 10
141.545717987456
 20
89.31436114908578
 30
0.0
 11
163.0983326780219
 21
76.87095325574724
 31
0.0
  0
LINE
  5
317
330
1F
100
AcDbEntity
  8
VISIBLE
100
AcDbLine
 10
184.2121811171166
 20
55.50461115685334
 30
0.0
 11
183.4724917757063
 21
55.65366231554864
 31
0.0
  0
LINE
  5
318
330
1F
100
AcDbEntity
  8
VISIBLE
100
AcDbLine
 10
160.7415321095359
 20
46.64785912132637
 30
0.0
 11
161.3932760583036
 21
46.27157457706261
 31
0.0
  0
LINE
  5
319
330
1F
100
AcDbEntity
  8
VISIBLE
100
AcDbLine
 10
156.3061486757577
 20
54.01495543970753
 30
0.0
 11
157.0865076083022
 21
54.96497316709568
 31
0.0
  0
LINE
  5
31A
330
1F
100
AcDbEntity
  8
VISIBLE
100
AcDbLine
 10
191.1916796683233
 20
74.65560343670737
 30
0.0
 11
191.9720386008678
 21
74.60666658885742
 31
0.0
  0
LINE
  5
31B
330
1F
100
AcDbEntity
  8
VISIBLE
100
AcDbLine
 10
136.3120340278026
 20
61.12037923239069
 30
0.0
 11
136.7366375845304
 21
61.89129581733908
 31
0.0
  0
LINE
  5
31C
330
1F
100
AcDbEntity
  8
VISIBLE
100
AcDbLine
 10
135.5338929177362
 20
67.40838106043422
 30
0.0
 11
157.0865076083022
 21
54.96497316709568
 31
0.0
  0
LINE
  5
31D
330
1F
100
AcDbEntity
  8
VISIBLE
100
AcDbLine
 10
169.1577743292653
 20
44.05969609532653
 30
0.0
 11
168.0202059263601
 21
43.82971921397161
 31
0.0
  0
LINE
  5
31E
330
1F
100
AcDbEntity
  8
VISIBLE
100
AcDbLine
 10
139.265310501095
 20
84.09025872011014
 30
0.0
 11
160.8179251916609
 21
71.64685082677158
 31
0.0
  0
LINE
  5
31F
330
1F
100
AcDbEntity
  8
VISIBLE
100
AcDbLine
 10
157.2424406243863
 20
64.18323078287655
 30
0.0
 11
158.1341236639992
 21
64.73399958897406
 31
0.0
  0
LINE
  5
320
330
1F
100
AcDbEntity
  8
VISIBLE
100
AcDbLine
 10
135.3202075539042
 20
75.0996885577953
 30
0.0
 11
156.8728222444702
 21
62.65628066445675
 31
0.0
  0
LINE
  5
321
330
1F
100
AcDbEntity
  8
VISIBLE
100
AcDbLine
 10
186.8849112183219
 20
60.98917699878292
 30
0.0
 11
187.2619824561568
 21
60.27315151334713
 31
0.0
  0
LINE
  5
322
330
1F
100
AcDbEntity
  8
VISIBLE
100
AcDbLine
 10
172.3527025844118
 20
85.53229192736087
 30
0.0
 11
173.235879080837
 21
86.12245446032492
 31
0.0
  0
LINE
  5
323
330
1F
100
AcDbEntity
  8
VISIBLE
100
AcDbLine
 10
136.9205310784763
 20
78.31823177238942
 30
0.0
 11
158.4731457690423
 21
65.87482387905087
 31
0.0
  0
LINE
  5
324
330
1F
100
AcDbEntity
  8
VISIBLE
100
AcDbLine
 10
160.8179251916609
 20
46.71725882323254
 30
0.0
 11
159.9602619755052
 21
45.93811011131609
 31
0.0
  0
LINE
  5
325
330
1F
100
AcDbEntity
  8
VISIBLE
100
AcDbLine
 10
160.2075098788096
 20
102.50855747737
 30
0.0
 11
181.7601245693756
 21
90.0651495840315
 31
0.0
  0
LINE
  5
326
330
1F
100
AcDbEntity
  8
VISIBLE
100
AcDbLine
 10
188.3179253011203
 20
62.31041466594871
 30
0.0
 11
187.4602620849646
 21
62.09921920042207
 31
0.0
  0
LINE
  5
327
330
1F
100
AcDbEntity
  8
VISIBLE
100
AcDbLine
 10
138.4076472849393
 20
58.38151800465464
 30
0.0
 11
159.9602619755052
 21
45.93811011131609
 31
0.0
  0
LINE
  5
328
330
1F
100
AcDbEntity
  8
VISIBLE
100
AcDbLine
 10
156.1785813961745
 20
57.19410298357911
 30
0.0
 11
157.0170001106061
 21
58.03053204207475
 31
0.0
  0
LINE
  5
329
330
1F
100
AcDbEntity
  8
VISIBLE
100
AcDbLine
 10
185.1798545986036
 20
89.61972588071167
 30
0.0
 11
184.9339236288359
 21
88.48739339167113
 31
0.0
  0
LINE
  5
32A
330
1F
100
AcDbEntity
  8
VISIBLE
100
AcDbLine
 10
140.3093677655908
 20
87.38125624410218
 30
0.0
 11
141.1179996446527
 21
87.41271571581866
 31
0.0
  0
LINE
  5
32B
330
1F
100
AcDbEntity
  8
VISIBLE
100
AcDbLine
 10
161.0162048204688
 20
45.12014473029161
 30
0.0
 11
161.3932760583036
 21
46.27157457706261
 31
0.0
  0
LINE
  5
32C
330
1F
100
AcDbEntity
  8
VISIBLE
100
AcDbLine
 10
179.1204129473602
 20
89.68637393186715
 30
0.0
 11
180.2579813502654
 21
89.91635081322207
 31
0.0
  0
LINE
  5
32D
330
1F
100
AcDbEntity
  8
VISIBLE
100
AcDbLine
 10
149.0158989188966
 20
96.6192935829933
 30
0.0
 11
149.1861437724444
 21
97.72891030738961
 31
0.0
  0
LINE
  5
32E
330
1F
100
AcDbEntity
  8
VISIBLE
100
AcDbLine
 10
136.8550566966705
 20
60.20328066144465
 30
0.0
 11
136.3120340278026
 21
61.12037923239069
 31
0.0
  0
LINE
  5
32F
330
1F
100
AcDbEntity
  8
VISIBLE
100
AcDbLine
 10
189.0209812386436
 20
87.09649636061366
 30
0.0
 11
188.5220544780449
 21
85.95432118031627
 31
0.0
  0
LINE
  5
330
330
1F
100
AcDbEntity
  8
VISIBLE
100
AcDbLine
 10
139.4635901299028
 20
85.91632640718508
 30
0.0
 11
140.3093677655908
 21
87.38125624410218
 31
0.0
  0
LINE
  5
331
330
1F
100
AcDbEntity
  8
VISIBLE
100
AcDbLine
 10
177.5394288136152
 20
89.2118712716427
 30
0.0
 11
177.709673667163
 21
88.2988363712943
 31
0.0
  0
LINE
  5
332
330
1F
100
AcDbEntity
  8
VISIBLE
100
AcDbLine
 10
173.235879080837
 20
86.12245446032492
 30
0.0
 11
173.5410385367418
 21
87.26676089527888
 31
0.0
  0
LINE
  5
333
330
1F
100
AcDbEntity
  8
VISIBLE
100
AcDbLine
 10
154.3728700016478
 20
100.0384465323947
 30
0.0
 11
154.8054300213392
 21
101.1892660557425
 31
0.0
  0
LINE
  5
334
330
1F
100
AcDbEntity
  8
VISIBLE
100
AcDbLine
 10
135.6898259338203
 20
62.49567280566738
 30
0.0
 11
157.2424406243863
 21
50.05226491232883
 31
0.0
  0
LINE
  5
335
330
1F
100
AcDbEntity
  8
VISIBLE
100
AcDbLine
 10
158.7053666596994
 20
102.3597587065606
 30
0.0
 11
180.2579813502654
 21
89.91635081322207
 31
0.0
  0
LINE
  5
336
330
1F
100
AcDbEntity
  8
VISIBLE
100
AcDbLine
 10
144.965448016684
 20
93.7085489582669
 30
0.0
 11
145.6179812139688
 21
93.3826573033593
 31
0.0
  0
LINE
  5
337
330
1F
100
AcDbEntity
  8
VISIBLE
100
AcDbLine
 10
178.5711034271514
 20
50.30633580032626
 30
0.0
 11
177.709673667163
 21
49.57018433753891
 31
0.0
  0
LINE
  5
338
330
1F
100
AcDbEntity
  8
VISIBLE
100
AcDbLine
 10
173.5410385367418
 20
45.78873458415039
 30
0.0
 11
173.235879080837
 21
46.58067323107949
 31
0.0
  0
LINE
  5
339
330
1F
100
AcDbEntity
  8
VISIBLE
100
AcDbLine
 10
170.5685136094625
 20
84.17588568965476
 30
0.0
 11
170.7387584630103
 21
85.28550241405107
 31
0.0
  0
LINE
  5
33A
330
1F
100
AcDbEntity
  8
VISIBLE
100
AcDbLine
 10
160.8179251916609
 20
71.64685082677158
 30
0.0
 11
161.3932760583036
 21
72.75689302841074
 31
0.0
  0
LINE
  5
33B
330
1F
100
AcDbEntity
  8
VISIBLE
100
AcDbLine
 10
191.215633609547
 20
78.44347776770599
 30
0.0
 11
192.0996058804511
 21
77.93311613914334
 31
0.0
  0
LINE
  5
33C
330
1F
100
AcDbEntity
  8
VISIBLE
100
AcDbLine
 10
163.6272399080376
 20
102.0631337740502
 30
0.0
 11
185.1798545986036
 21
89.61972588071167
 31
0.0
  0
LINE
  5
33D
330
1F
100
AcDbEntity
  8
VISIBLE
100
AcDbLine
 10
146.4364529779082
 20
94.2466712038095
 30
0.0
 11
167.9890676684741
 21
81.80326331047095
 31
0.0
  0
LINE
  5
33E
330
1F
100
AcDbEntity
  8
VISIBLE
100
AcDbLine
 10
138.4076472849393
 20
83.8790632545835
 30
0.0
 11
139.265310501095
 21
84.09025872011014
 31
0.0
  0
LINE
  5
33F
330
1F
100
AcDbEntity
  8
VISIBLE
100
AcDbLine
 10
158.1341236639992
 20
50.53112299213598
 30
0.0
 11
157.2424406243863
 21
50.05226491232883
 31
0.0
  0
LINE
  5
340
330
1F
100
AcDbEntity
  8
VISIBLE
100
AcDbLine
 10
139.265310501095
 20
84.09025872011014
 30
0.0
 11
139.8406613677376
 21
85.20030092174929
 31
0.0
  0
LINE
  5
341
330
1F
100
AcDbEntity
  8
VISIBLE
100
AcDbLine
 10
135.5338929177362
 20
67.40838106043422
 30
0.0
 11
135.5099389765126
 21
67.74600015282623
 31
0.0
  0
LINE
  5
342
330
1F
100
AcDbEntity
  8
VISIBLE
100
AcDbLine
 10
164.8056955009192
 20
78.09240771164502
 30
0.0
 11
165.5610557776292
 21
79.06300916003126
 31
0.0
  0
LINE
  5
343
330
1F
100
AcDbEntity
  8
VISIBLE
100
AcDbLine
 10
163.0983326780219
 20
44.12634414648199
 30
0.0
 11
163.3442636477897
 21
45.25867663552254
 31
0.0
  0
LINE
  5
344
330
1F
100
AcDbEntity
  8
VISIBLE
100
AcDbLine
 10
135.4643854200402
 20
70.47393993541328
 30
0.0
 11
157.0170001106061
 21
58.03053204207475
 31
0.0
  0
LINE
  5
345
330
1F
100
AcDbEntity
  8
VISIBLE
100
AcDbLine
 10
146.4675912357942
 20
95.29427577128675
 30
0.0
 11
147.6051596386993
 21
96.37784973720963
 31
0.0
  0
LINE
  5
346
330
1F
100
AcDbEntity
  8
VISIBLE
100
AcDbLine
 10
162.6706143352187
 20
74.96930782248012
 30
0.0
 11
163.3442636477897
 21
76.0225973899016
 31
0.0
  0
LINE
  5
347
330
1F
100
AcDbEntity
  8
VISIBLE
100
AcDbLine
 10
138.4076472849393
 20
58.38151800465464
 30
0.0
 11
137.704591347416
 21
59.09298155991856
 31
0.0
  0
LINE
  5
348
330
1F
100
AcDbEntity
  8
VISIBLE
100
AcDbLine
 10
188.9849398509423
 20
65.53922338483731
 30
0.0
 11
188.5220544780449
 21
64.39976147200372
 31
0.0
  0
LINE
  5
349
330
1F
100
AcDbEntity
  8
VISIBLE
100
AcDbLine
 10
135.6898259338203
 20
76.6266386762151
 30
0.0
 11
157.2424406243863
 21
64.18323078287655
 31
0.0
  0
LINE
  5
34A
330
1F
100
AcDbEntity
  8
VISIBLE
100
AcDbLine
 10
162.339006753698
 20
101.8815214697754
 30
0.0
 11
162.6595664265506
 21
102.3162662985949
 31
0.0
  0
LINE
  5
34B
330
1F
100
AcDbEntity
  8
VISIBLE
100
AcDbLine
 10
134.7535339851917
 20
71.58281133167479
 30
0.0
 11
156.3061486757577
 21
59.13940343833624
 31
0.0
  0
LINE
  5
34C
330
1F
100
AcDbEntity
  8
VISIBLE
100
AcDbLine
 10
164.7405549838348
 20
101.4203610153458
 30
0.0
 11
164.8635901299028
 21
101.5576431358796
 31
0.0
  0
LINE
  5
34D
330
1F
100
AcDbEntity
  8
VISIBLE
100
AcDbLine
 10
136.5815089734332
 20
77.1774074823126
 30
0.0
 11
136.9205310784763
 21
78.31823177238942
 31
0.0
  0
LINE
  5
34E
330
1F
100
AcDbEntity
  8
VISIBLE
100
AcDbLine
 10
145.6179812139688
 20
93.3826573033593
 30
0.0
 11
167.1705959045348
 21
80.93924941002075
 31
0.0
  0
LINE
  5
34F
330
1F
100
AcDbEntity
  8
VISIBLE
100
AcDbLine
 10
135.3202075539042
 20
63.59582438180319
 30
0.0
 11
135.994677390135
 21
64.59370331572171
 31
0.0
  0
LINE
  5
350
330
1F
100
AcDbEntity
  8
VISIBLE
100
AcDbLine
 10
159.7561327985807
 20
47.7917488468774
 30
0.0
 11
159.2932474256832
 21
48.3967167704184
 31
0.0
  0
LINE
  5
351
330
1F
100
AcDbEntity
  8
VISIBLE
100
AcDbLine
 10
190.7308951959246
 20
81.59577460481049
 30
0.0
 11
191.7849257411102
 21
80.98722978581351
 31
0.0
  0
LINE
  5
352
330
1F
100
AcDbEntity
  8
VISIBLE
100
AcDbLine
 10
139.4635901299028
 20
57.56355262363015
 30
0.0
 11
161.0162048204688
 21
45.12014473029161
 31
0.0
  0
LINE
  5
353
330
1F
100
AcDbEntity
  8
VISIBLE
100
AcDbLine
 10
191.9720386008678
 20
79.73111458748613
 30
0.0
 11
191.1916796683233
 21
78.78109686009799
 31
0.0
  0
LINE
  5
354
330
1F
100
AcDbEntity
  8
VISIBLE
100
AcDbLine
 10
153.1845340493177
 20
100.4007433363818
 30
0.0
 11
174.7371487398837
 21
87.95733544304326
 31
0.0
  0
LINE
  5
355
330
1F
100
AcDbEntity
  8
VISIBLE
100
AcDbLine
 10
149.0158989188966
 20
96.6192935829933
 30
0.0
 11
170.5685136094625
 21
84.17588568965476
 31
0.0
  0
LINE
  5
356
330
1F
100
AcDbEntity
  8
VISIBLE
100
AcDbLine
 10
169.1577743292653
 20
83.93444184387108
 30
0.0
 11
169.7070838494741
 21
83.4397342268674
 31
0.0
  0
LINE
  5
357
330
1F
100
AcDbEntity
  8
VISIBLE
100
AcDbLine
 10
161.8619824561568
 20
44.63183478465258
 30
0.0
 11
161.0162048204688
 21
45.12014473029161
 31
0.0
  0
LINE
  5
358
330
1F
100
AcDbEntity
  8
VISIBLE
100
AcDbLine
 10
191.0357466522392
 20
69.56283924431712
 30
0.0
 11
190.1440636126263
 21
69.01207043821961
 31
0.0
  0
LINE
  5
359
330
1F
100
AcDbEntity
  8
VISIBLE
100
AcDbLine
 10
156.5565298740031
 20
52.78116758878304
 30
0.0
 11
157.5759063683454
 21
52.19263029536893
 31
0.0
  0
LINE
  5
35A
330
1F
100
AcDbEntity
  8
VISIBLE
100
AcDbLine
 10
154.3728700016478
 20
100.0384465323947
 30
0.0
 11
175.9254846922137
 21
87.59503863905618
 31
0.0
  0
LINE
  5
35B
330
1F
100
AcDbEntity
  8
VISIBLE
100
AcDbLine
 10
134.9406468449494
 20
65.2022481347187
 30
0.0
 11
156.4932615355154
 21
52.75884024138016
 31
0.0
  0
LINE
  5
35C
330
1F
100
AcDbEntity
  8
VISIBLE
100
AcDbLine
 10
158.1341236639992
 20
64.73399958897406
 30
0.0
 11
158.4731457690423
 21
65.87482387905087
 31
0.0
  0
LINE
  5
35D
330
1F
100
AcDbEntity
  8
VISIBLE
100
AcDbLine
 10
181.7601245693756
 20
90.0651495840315
 30
0.0
 11
182.8258665640232
 21
90.05342744343407
 31
0.0
  0
LINE
  5
35E
330
1F
100
AcDbEntity
  8
VISIBLE
100
AcDbLine
 10
156.4932615355154
 20
52.75884024138016
 30
0.0
 11
156.3061486757577
 21
54.01495543970753
 31
0.0
  0
LINE
  5
35F
330
1F
100
AcDbEntity
  8
VISIBLE
100
AcDbLine
 10
188.8047610091483
 20
86.60151112608473
 30
0.0
 11
189.8705158893891
 21
85.98619725908756
 31
0.0
  0
LINE
  5
360
330
1F
100
AcDbEntity
  8
VISIBLE
100
AcDbLine
 10
184.9339236288359
 20
57.72347263729206
 30
0.0
 11
185.1798545986036
 21
56.87511677144641
 31
0.0
  0
LINE
  5
361
330
1F
100
AcDbEntity
  8
VISIBLE
100
AcDbLine
 10
191.2611871660194
 20
77.80142265669745
 30
0.0
 11
192.0996058804511
 21
77.93311613914334
 31
0.0
  0
LINE
  5
362
330
1F
100
AcDbEntity
  8
VISIBLE
100
AcDbLine
 10
169.7070838494741
 20
83.4397342268674
 30
0.0
 11
170.5685136094625
 21
84.17588568965476
 31
0.0
  0
LINE
  5
363
330
1F
100
AcDbEntity
  8
VISIBLE
100
AcDbLine
 10
171.9201425647204
 20
86.18363416308956
 30
0.0
 11
172.3527025844118
 21
85.53229192736087
 31
0.0
  0
LINE
  5
364
330
1F
100
AcDbEntity
  8
VISIBLE
100
AcDbLine
 10
177.709673667163
 20
88.2988363712943
 30
0.0
 11
178.5711034271514
 21
88.5573783161415
 31
0.0
  0
LINE
  5
365
330
1F
100
AcDbEntity
  8
VISIBLE
100
AcDbLine
 10
191.7849257411102
 20
73.1344920706302
 30
0.0
 11
190.9090918960928
 21
72.43224734039613
 31
0.0
  0
LINE
  5
366
330
1F
100
AcDbEntity
  8
VISIBLE
100
AcDbLine
 10
189.8050415075832
 20
67.8712461481428
 30
0.0
 11
190.413538558257
 21
67.46908164993523
 31
0.0
  0
LINE
  5
367
330
1F
100
AcDbEntity
  8
VISIBLE
100
AcDbLine
 10
161.3932760583036
 20
46.27157457706261
 30
0.0
 11
160.8179251916609
 21
46.71725882323254
 31
0.0
  0
LINE
  5
368
330
1F
100
AcDbEntity
  8
VISIBLE
100
AcDbLine
 10
136.8550566966705
 20
80.26452340963695
 30
0.0
 11
137.7406327351172
 21
80.6502545356949
 31
0.0
  0
LINE
  5
369
330
1F
100
AcDbEntity
  8
VISIBLE
100
AcDbLine
 10
180.2579813502654
 20
50.89520214924546
 30
0.0
 11
179.1204129473602
 21
49.81162818332258
 31
0.0
  0
LINE
  5
36A
330
1F
100
AcDbEntity
  8
VISIBLE
100
AcDbLine
 10
139.8406613677376
 20
85.20030092174929
 30
0.0
 11
139.4635901299028
 21
85.91632640718508
 31
0.0
  0
LINE
  5
36B
330
1F
100
AcDbEntity
  8
VISIBLE
100
AcDbLine
 10
157.3690953805327
 20
53.06792132351845
 30
0.0
 11
156.4932615355154
 21
52.75884024138016
 31
0.0
  0
LINE
  5
36C
330
1F
100
AcDbEntity
  8
VISIBLE
100
AcDbLine
 10
143.8997060220364
 20
92.46621396267648
 30
0.0
 11
165.4523207126023
 21
80.02280606933793
 31
0.0
  0
LINE
  5
36D
330
1F
100
AcDbEntity
  8
VISIBLE
100
AcDbLine
 10
177.709673667163
 20
49.57018433753891
 30
0.0
 11
177.5394288136152
 21
48.4605676131426
 31
0.0
  0
LINE
  5
36E
330
1F
100
AcDbEntity
  8
VISIBLE
100
AcDbLine
 10
188.3179253011203
 20
87.80795991587757
 30
0.0
 11
189.0209812386436
 21
87.09649636061366
 31
0.0
  0
LINE
  5
36F
330
1F
100
AcDbEntity
  8
VISIBLE
100
AcDbLine
 10
135.8164806899668
 20
73.75723058013608
 30
0.0
 11
157.3690953805327
 21
61.31382268679754
 31
0.0
  0
LINE
  5
370
330
1F
100
AcDbEntity
  8
VISIBLE
100
AcDbLine
 10
143.8997060220364
 20
92.46621396267648
 30
0.0
 11
144.965448016684
 21
93.7085489582669
 31
0.0
  0
LINE
  5
371
330
1F
100
AcDbEntity
  8
VISIBLE
100
AcDbLine
 10
174.7371487398837
 20
46.47930913191479
 30
0.0
 11
173.5410385367418
 21
45.78873458415039
 31
0.0
  0
LINE
  5
372
330
1F
100
AcDbEntity
  8
VISIBLE
100
AcDbLine
 10
157.6373254284349
 20
50.26432880791872
 30
0.0
 11
158.4731457690423
 21
49.78176770927489
 31
0.0
  0
LINE
  5
373
330
1F
100
AcDbEntity
  8
VISIBLE
100
AcDbLine
 10
165.4523207126023
 20
80.02280606933793
 30
0.0
 11
166.51806270725
 21
81.26514106492836
 31
0.0
  0
LINE
  5
374
330
1F
100
AcDbEntity
  8
VISIBLE
100
AcDbLine
 10
168.0202059263601
 20
82.8508678779482
 30
0.0
 11
169.1577743292653
 21
83.93444184387108
 31
0.0
  0
LINE
  5
375
330
1F
100
AcDbEntity
  8
VISIBLE
100
AcDbLine
 10
151.9884238461759
 20
99.71016878861742
 30
0.0
 11
153.1845340493177
 21
100.4007433363818
 31
0.0
  0
LINE
  5
376
330
1F
100
AcDbEntity
  8
VISIBLE
100
AcDbLine
 10
170.7387584630103
 20
44.53419875555095
 30
0.0
 11
170.5685136094625
 21
45.44723365589937
 31
0.0
  0
LINE
  5
377
330
1F
100
AcDbEntity
  8
VISIBLE
100
AcDbLine
 10
138.2035181080147
 20
81.78971644852851
 30
0.0
 11
137.7045913474159
 21
82.35578062975068
 31
0.0
  0
LINE
  5
378
330
1F
100
AcDbEntity
  8
VISIBLE
100
AcDbLine
 10
174.7371487398837
 20
87.95733544304326
 30
0.0
 11
175.0423081957886
 21
87.1653967961142
 31
0.0
  0
LINE
  5
379
330
1F
100
AcDbEntity
  8
VISIBLE
100
AcDbLine
 10
186.4162048204688
 20
89.1142352425411
 30
0.0
 11
187.2619824561568
 21
88.62592529690205
 31
0.0
  0
LINE
  5
37A
330
1F
100
AcDbEntity
  8
VISIBLE
100
AcDbLine
 10
181.7601245693756
 20
52.4809289622653
 30
0.0
 11
181.1075913720907
 21
52.80682061717292
 31
0.0
  0
LINE
  5
37B
330
1F
100
AcDbEntity
  8
VISIBLE
100
AcDbLine
 10
191.0357466522393
 20
83.69380511486483
 30
0.0
 11
191.4053650321553
 21
82.59365353872903
 31
0.0
  0
LINE
  5
37C
330
1F
100
AcDbEntity
  8
VISIBLE
100
AcDbLine
 10
188.9849398509423
 20
85.34935325677526
 30
0.0
 11
189.8705158893891
 21
85.98619725908756
 31
0.0
  0
LINE
  5
37D
330
1F
100
AcDbEntity
  8
VISIBLE
100
AcDbLine
 10
156.3061486757577
 20
59.13940343833625
 30
0.0
 11
156.4932615355154
 21
60.61157795656346
 31
0.0
  0
LINE
  5
37E
330
1F
100
AcDbEntity
  8
VISIBLE
100
AcDbLine
 10
187.2619824561568
 20
60.27315151334713
 30
0.0
 11
186.4162048204687
 21
58.80822167643002
 31
0.0
  0
LINE
  5
37F
330
1F
100
AcDbEntity
  8
VISIBLE
100
AcDbLine
 10
192.0996058804511
 20
77.93311613914334
 30
0.0
 11
192.0996058804511
 21
76.55196704361455
 31
0.0
  0
LINE
  5
380
330
1F
100
AcDbEntity
  8
VISIBLE
100
AcDbLine
 10
163.0983326780219
 20
76.87095325574724
 30
0.0
 11
164.066006159509
 21
78.24145887034034
 31
0.0
  0
LINE
  5
381
330
1F
100
AcDbEntity
  8
VISIBLE
100
AcDbLine
 10
136.3120340278026
 20
78.72039627059698
 30
0.0
 11
136.8550566966705
 21
80.26452340963695
 31
0.0
  0
LINE
  5
382
330
1F
100
AcDbEntity
  8
VISIBLE
100
AcDbLine
 10
134.6259667056085
 20
69.63751087691766
 30
0.0
 11
156.1785813961745
 21
57.19410298357911
 31
0.0
  0
LINE
  5
383
330
1F
100
AcDbEntity
  8
VISIBLE
100
AcDbLine
 10
167.1705959045348
 20
44.76029253228492
 30
0.0
 11
166.51806270725
 21
43.68092044316217
 31
0.0
  0
LINE
  5
384
330
1F
100
AcDbEntity
  8
VISIBLE
100
AcDbLine
 10
141.7916489572237
 20
88.46600528324015
 30
0.0
 11
163.3442636477897
 21
76.0225973899016
 31
0.0
  0
LINE
  5
385
330
1F
100
AcDbEntity
  8
VISIBLE
100
AcDbLine
 10
135.6898259338203
 20
62.49567280566738
 30
0.0
 11
135.3202075539042
 21
63.59582438180319
 31
0.0
  0
LINE
  5
386
330
1F
100
AcDbEntity
  8
VISIBLE
100
AcDbLine
 10
180.2891196081514
 20
88.90470160889
 30
0.0
 11
181.1075913720907
 21
88.98577749490875
 31
0.0
  0
LINE
  5
387
330
1F
100
AcDbEntity
  8
VISIBLE
100
AcDbLine
 10
144.0084410870632
 20
91.5064170533698
 30
0.0
 11
165.5610557776292
 21
79.06300916003126
 31
0.0
  0
LINE
  5
388
330
1F
100
AcDbEntity
  8
VISIBLE
100
AcDbLine
 10
163.3442636477897
 20
76.0225973899016
 30
0.0
 11
163.0983326780219
 21
76.87095325574724
 31
0.0
  0
LINE
  5
389
330
1F
100
AcDbEntity
  8
VISIBLE
100
AcDbLine
 10
159.7521783104095
 20
101.7553817182323
 30
0.0
 11
160.2075098788096
 21
102.50855747737
 31
0.0
  0
LINE
  5
38A
330
1F
100
AcDbEntity
  8
VISIBLE
100
AcDbLine
 10
142.513391468943
 20
90.68486676367888
 30
0.0
 11
143.2530808103532
 21
90.53581560498357
 31
0.0
  0
LINE
  5
38B
330
1F
100
AcDbEntity
  8
VISIBLE
100
AcDbLine
 10
169.6847279178247
 20
45.14274357454794
 30
0.0
 11
170.7387584630103
 21
44.53419875555095
 31
0.0
  0
LINE
  5
38C
330
1F
100
AcDbEntity
  8
VISIBLE
100
AcDbLine
 10
141.1179996446527
 20
87.41271571581866
 30
0.0
 11
141.7916489572237
 21
88.46600528324015
 31
0.0
  0
LINE
  5
38D
330
1F
100
AcDbEntity
  8
VISIBLE
100
AcDbLine
 10
146.4364529779082
 20
94.2466712038095
 30
0.0
 11
146.4675912357942
 21
95.29427577128675
 31
0.0
  0
ELLIPSE
  5
38E
330
1F
100
AcDbEntity
  8
VISIBLE
100
AcDbEllipse
 10
162.9137734869763
 20
60.39209340248301
 30
0.0
 11
1.587500000000006
 21
2.749630657015587
 31
0.0
210
0.0
220
0.0
230
1.0
 40
0.577350269189619
 41
3.14159265358981
 42
5.497787143782127
  0
ELLIPSE
  5
38F
330
1F
100
AcDbEntity
  8
VISIBLE
100
AcDbEllipse
 10
162.9137734869763
 20
60.39209340248301
 30
0.0
 11
1.587500000000006
 21
2.749630657015587
 31
0.0
210
0.0
220
0.0
230
1.0
 40
0.577350269189619
 41
0.0
 42
3.14159265358981
  0
ELLIPSE
  5
390
330
1F
100
AcDbEntity
  8
VISIBLE
100
AcDbEllipse
 10
162.9137734869763
 20
60.39209340248301
 30
0.0
 11
1.587500000000006
 21
2.749630657015587
 31
0.0
210
0.0
220
0.0
230
1.0
 40
0.577350269189619
 41
-0.7853981633974586
 42
0.0
  0
LINE
  5
391
330
1F
100
AcDbEntity
  8
VISIBLE
100
AcDbLine
 10
151.683264390271
 20
98.56586235366346
 30
0.0
 11
151.9884238461759
 21
99.71016878861742
 31
0.0
  0
LINE
  5
392
330
1F
100
AcDbEntity
  8
VISIBLE
100
AcDbLine
 10
164.066006159509
 20
78.24145887034034
 30
0.0
 11
164.8056955009192
 21
78.09240771164502
 31
0.0
  0
LINE
  5
393
330
1F
100
AcDbEntity
  8
VISIBLE
100
AcDbLine
 10
177.5394288136152
 20
48.4605676131426
 30
0.0
 11
176.3580447119052
 21
47.56243586410412
 31
0.0
  0
LINE
  5
394
330
1F
100
AcDbEntity
  8
VISIBLE
100
AcDbLine
 10
182.8258665640232
 20
90.05342744343407
 30
0.0
 11
182.7171314989964
 21
88.96807409600024
 31
0.0
  0
LINE
  5
395
330
1F
100
AcDbEntity
  8
VISIBLE
100
AcDbLine
 10
134.9406468449494
 20
73.054985849902
 30
0.0
 11
135.8164806899668
 21
73.75723058013608
 31
0.0
  0
LINE
  5
396
330
1F
100
AcDbEntity
  8
VISIBLE
100
AcDbLine
 10
158.4731457690423
 20
49.78176770927489
 30
0.0
 11
158.1341236639992
 21
50.53112299213598
 31
0.0
  0
LINE
  5
397
330
1F
100
AcDbEntity
  8
VISIBLE
100
AcDbLine
 10
136.3120340278026
 20
78.72039627059698
 30
0.0
 11
157.8646487183685
 21
66.27698837725843
 31
0.0
  0
LINE
  5
398
330
1F
100
AcDbEntity
  8
VISIBLE
100
AcDbLine
 10
190.1440636126263
 20
69.01207043821961
 30
0.0
 11
189.8050415075832
 21
67.8712461481428
 31
0.0
  0
LINE
  5
399
330
1F
100
AcDbEntity
  8
VISIBLE
100
AcDbLine
 10
183.4724917757063
 20
55.65366231554864
 30
0.0
 11
182.7171314989964
 21
54.68306086716241
 31
0.0
  0
LINE
  5
39A
330
1F
100
AcDbEntity
  8
VISIBLE
100
AcDbLine
 10
171.9201425647204
 20
45.00021186478976
 30
0.0
 11
170.7387584630103
 21
44.53419875555095
 31
0.0
  0
LINE
  5
39B
330
1F
100
AcDbEntity
  8
VISIBLE
100
AcDbLine
 10
139.4635901299028
 20
85.91632640718508
 30
0.0
 11
161.0162048204688
 21
73.47291851384654
 31
0.0
  0
LINE
  5
39C
330
1F
100
AcDbEntity
  8
VISIBLE
100
AcDbLine
 10
159.2572060379819
 20
69.91237273641214
 30
0.0
 11
159.9602619755052
 21
71.43565536124495
 31
0.0
  0
LINE
  5
39D
330
1F
100
AcDbEntity
  8
VISIBLE
100
AcDbLine
 10
164.066006159509
 20
43.87321162193727
 30
0.0
 11
163.0983326780219
 21
44.12634414648199
 31
0.0
  0
LINE
  5
39E
330
1F
100
AcDbEntity
  8
VISIBLE
100
AcDbLine
 10
185.1798545986036
 20
56.87511677144641
 30
0.0
 11
184.2121811171166
 21
55.50461115685334
 31
0.0
  0
LINE
  5
39F
330
1F
100
AcDbEntity
  8
VISIBLE
100
AcDbLine
 10
161.9850176022247
 20
44.76911690518639
 30
0.0
 11
163.0983326780219
 21
44.12634414648199
 31
0.0
  0
LINE
  5
3A0
330
1F
100
AcDbEntity
  8
VISIBLE
100
AcDbLine
 10
150.3675278741544
 20
98.62704205642811
 30
0.0
 11
171.9201425647204
 21
86.18363416308956
 31
0.0
  0
LINE
  5
3A1
330
1F
100
AcDbEntity
  8
VISIBLE
100
AcDbLine
 10
188.5220544780449
 20
85.95432118031627
 30
0.0
 11
188.9849398509423
 21
85.34935325677526
 31
0.0
  0
LINE
  5
3A2
330
1F
100
AcDbEntity
  8
VISIBLE
100
AcDbLine
 10
165.5610557776292
 20
44.77799593119343
 30
0.0
 11
164.8056955009192
 21
44.87638246139237
 31
0.0
  0
LINE
  5
3A3
330
1F
100
AcDbEntity
  8
VISIBLE
100
AcDbLine
 10
191.4053650321553
 20
82.59365353872903
 30
0.0
 11
190.7022809082801
 21
81.55343973182474
 31
0.0
  0
LINE
  5
3A4
330
1F
100
AcDbEntity
  8
VISIBLE
100
AcDbLine
 10
141.1179996446527
 20
87.41271571581866
 30
0.0
 11
162.6706143352187
 21
74.96930782248012
 31
0.0
  0
LINE
  5
3A5
330
1F
100
AcDbEntity
  8
VISIBLE
100
AcDbLine
 10
135.6898259338203
 20
76.6266386762151
 30
0.0
 11
136.5815089734332
 21
77.1774074823126
 31
0.0
  0
LINE
  5
3A6
330
1F
100
AcDbEntity
  8
VISIBLE
100
AcDbLine
 10
166.9733942756501
 20
44.43409620229991
 30
0.0
 11
168.0202059263601
 21
43.82971921397161
 31
0.0
  0
LINE
  5
3A7
330
1F
100
AcDbEntity
  8
VISIBLE
100
AcDbLine
 10
139.4635901299028
 20
57.56355262363015
 30
0.0
 11
139.5209623607365
 21
57.73874524595025
 31
0.0
  0
LINE
  5
3A8
330
1F
100
AcDbEntity
  8
VISIBLE
100
AcDbLine
 10
180.2579813502654
 20
89.91635081322207
 30
0.0
 11
180.2891196081514
 21
88.90470160889
 31
0.0
  0
LINE
  5
3A9
330
1F
100
AcDbEntity
  8
VISIBLE
100
AcDbLine
 10
167.9890676684741
 20
81.80326331047095
 30
0.0
 11
168.0202059263601
 21
82.8508678779482
 31
0.0
  0
LINE
  5
3AA
330
1F
100
AcDbEntity
  8
VISIBLE
100
AcDbLine
 10
134.7535339851917
 20
66.45836333304608
 30
0.0
 11
135.5338929177362
 21
67.40838106043422
 31
0.0
  0
LINE
  5
3AB
330
1F
100
AcDbEntity
  8
VISIBLE
100
AcDbLine
 10
157.5759063683454
 20
52.19263029536893
 30
0.0
 11
157.3690953805327
 21
53.06792132351845
 31
0.0
  0
LINE
  5
3AC
330
1F
100
AcDbEntity
  8
VISIBLE
100
AcDbLine
 10
161.2732518734572
 20
102.4968353367726
 30
0.0
 11
182.8258665640232
 21
90.05342744343407
 31
0.0
  0
LINE
  5
3AD
330
1F
100
AcDbEntity
  8
VISIBLE
100
AcDbLine
 10
162.6595664265506
 20
102.3162662985949
 30
0.0
 11
163.6272399080376
 21
102.0631337740502
 31
0.0
  0
LINE
  5
3AE
330
1F
100
AcDbEntity
  8
VISIBLE
100
AcDbLine
 10
175.6030610688407
 20
47.99832587366116
 30
0.0
 11
176.3580447119052
 21
47.56243586410412
 31
0.0
  0
LINE
  5
3AF
330
1F
100
AcDbEntity
  8
VISIBLE
100
AcDbLine
 10
143.2530808103532
 20
90.53581560498357
 30
0.0
 11
164.8056955009192
 21
78.09240771164502
 31
0.0
  0
LINE
  5
3B0
330
1F
100
AcDbEntity
  8
VISIBLE
100
AcDbLine
 10
156.8728222444702
 20
62.65628066445675
 30
0.0
 11
157.2424406243863
 21
64.18323078287655
 31
0.0
  0
LINE
  5
3B1
330
1F
100
AcDbEntity
  8
VISIBLE
100
AcDbLine
 10
157.0865076083022
 20
59.0904665904863
 30
0.0
 11
156.3061486757577
 21
59.13940343833624
 31
0.0
  0
LINE
  5
3B2
330
1F
100
AcDbEntity
  8
VISIBLE
100
AcDbLine
 10
173.5410385367418
 20
87.26676089527888
 30
0.0
 11
174.7371487398837
 21
87.95733544304326
 31
0.0
  0
LINE
  5
3B3
330
1F
100
AcDbEntity
  8
VISIBLE
100
AcDbLine
 10
147.6051596386993
 20
96.37784973720963
 30
0.0
 11
169.1577743292653
 21
83.93444184387108
 31
0.0
  0
LINE
  5
3B4
330
1F
100
AcDbEntity
  8
VISIBLE
100
AcDbLine
 10
154.8054300213392
 20
101.1892660557425
 30
0.0
 11
155.9868141230492
 21
101.6552791649813
 31
0.0
  0
LINE
  5
3B5
330
1F
100
AcDbEntity
  8
VISIBLE
100
AcDbLine
 10
191.1916796683233
 20
78.78109686009799
 30
0.0
 11
191.2611871660194
 21
77.80142265669745
 31
0.0
  0
LINE
  5
3B6
330
1F
100
AcDbEntity
  8
VISIBLE
100
AcDbLine
 10
191.7849257411102
 20
80.98722978581351
 30
0.0
 11
191.9720386008678
 21
79.73111458748613
 31
0.0
  0
LINE
  5
3B7
330
1F
100
AcDbEntity
  8
VISIBLE
100
AcDbLine
 10
141.7916489572237
 20
88.46600528324015
 30
0.0
 11
141.545717987456
 21
89.31436114908578
 31
0.0
  0
LINE
  5
3B8
330
1F
100
AcDbEntity
  8
VISIBLE
100
AcDbLine
 10
137.7406327351172
 20
80.6502545356949
 30
0.0
 11
138.2035181080147
 21
81.78971644852851
 31
0.0
  0
LINE
  5
3B9
330
1F
100
AcDbEntity
  8
VISIBLE
100
AcDbLine
 10
136.5815089734332
 20
77.1774074823126
 30
0.0
 11
158.1341236639992
 21
64.73399958897406
 31
0.0
  0
LINE
  5
3BA
330
1F
100
AcDbEntity
  8
VISIBLE
100
AcDbLine
 10
134.6259667056085
 20
68.25636178138888
 30
0.0
 11
156.1785813961745
 21
55.81295388805032
 31
0.0
  0
LINE
  5
3BB
330
1F
100
AcDbEntity
  8
VISIBLE
100
AcDbLine
 10
167.9890676684741
 20
44.84136841830367
 30
0.0
 11
167.1705959045348
 21
44.76029253228492
 31
0.0
  0
LINE
  5
3BC
330
1F
100
AcDbEntity
  8
VISIBLE
100
AcDbLine
 10
156.1785813961745
 20
55.81295388805032
 30
0.0
 11
156.1785813961745
 21
57.19410298357911
 31
0.0
  0
LINE
  5
3BD
330
1F
100
AcDbEntity
  8
VISIBLE
100
AcDbLine
 10
162.6595664265506
 20
102.3162662985949
 30
0.0
 11
184.2121811171166
 21
89.8728584052564
 31
0.0
  0
LINE
  5
3BE
330
1F
100
AcDbEntity
  8
VISIBLE
100
AcDbLine
 10
186.4162048204687
 20
58.80822167643002
 30
0.0
 11
185.6075729414069
 21
58.77676220471354
 31
0.0
  0
LINE
  5
3BF
330
1F
100
AcDbEntity
  8
VISIBLE
100
AcDbLine
 10
136.8550566966705
 20
80.26452340963695
 30
0.0
 11
158.4076713872364
 21
67.8211155162984
 31
0.0
  0
LINE
  5
3C0
330
1F
100
AcDbEntity
  8
VISIBLE
100
AcDbLine
 10
135.8164806899668
 20
73.75723058013608
 30
0.0
 11
135.9935209751076
 21
74.71095087281454
 31
0.0
  0
LINE
  5
3C1
330
1F
100
AcDbEntity
  8
VISIBLE
100
AcDbLine
 10
159.0327567545456
 20
48.20939020062636
 30
0.0
 11
159.7561327985807
 21
47.7917488468774
 31
0.0
  0
LINE
  5
3C2
330
1F
100
AcDbEntity
  8
VISIBLE
100
AcDbLine
 10
157.8646487183685
 20
66.27698837725843
 30
0.0
 11
158.4076713872364
 21
67.82111551629839
 31
0.0
  0
LINE
  5
3C3
330
1F
100
AcDbEntity
  8
VISIBLE
100
AcDbLine
 10
192.0996058804511
 20
76.55196704361455
 30
0.0
 11
191.2611871660194
 21
75.71553798511893
 31
0.0
  0
LINE
  5
3C4
330
1F
100
AcDbEntity
  8
VISIBLE
100
AcDbLine
 10
165.5610557776292
 20
79.06300916003126
 30
0.0
 11
165.4523207126023
 21
80.02280606933793
 31
0.0
  0
LINE
  5
3C5
330
1F
100
AcDbEntity
  8
VISIBLE
100
AcDbLine
 10
151.1225115172189
 20
98.19115204687107
 30
0.0
 11
151.683264390271
 21
98.56586235366346
 31
0.0
  0
LINE
  5
3C6
330
1F
100
AcDbEntity
  8
VISIBLE
100
AcDbLine
 10
139.8406613677376
 20
85.20030092174929
 30
0.0
 11
161.3932760583036
 21
72.75689302841074
 31
0.0
  0
LINE
  5
3C7
330
1F
100
AcDbEntity
  8
VISIBLE
100
AcDbLine
 10
162.6706143352187
 20
45.53410297903948
 30
0.0
 11
161.8619824561568
 21
44.63183478465258
 31
0.0
  0
LINE
  5
3C8
330
1F
100
AcDbEntity
  8
VISIBLE
100
AcDbLine
 10
190.9090918960928
 20
72.43224734039613
 30
0.0
 11
190.7022809082801
 21
71.31815155327654
 31
0.0
  0
LINE
  5
3C9
330
1F
100
AcDbEntity
  8
VISIBLE
100
AcDbLine
 10
157.0170001106061
 20
55.94464737049621
 30
0.0
 11
156.1785813961745
 21
55.81295388805032
 31
0.0
  0
LINE
  5
3CA
330
1F
100
AcDbEntity
  8
VISIBLE
100
AcDbLine
 10
188.5220544780449
 20
64.39976147200372
 30
0.0
 11
189.0209812386436
 21
63.83369729078153
 31
0.0
  0
LINE
  5
3CB
330
1F
100
AcDbEntity
  8
VISIBLE
100
AcDbLine
 10
159.7561327985807
 20
69.34630855518995
 30
0.0
 11
159.2572060379819
 21
69.91237273641214
 31
0.0
  0
LINE
  5
3CC
330
1F
100
AcDbEntity
  8
VISIBLE
100
AcDbLine
 10
157.5677982567942
 20
102.1297818252057
 30
0.0
 11
179.1204129473602
 21
89.68637393186714
 31
0.0
  0
MTEXT
  5
3CE
330
1F
100
AcDbEntity
  8
CONTINUOUS
100
AcDbMText
 10
19.94444274902344
 20
131.1043341064453
 30
0.0
 40
4.045185185185185
 41
0.0
 46
0.0
 71
     1
 72
     1
  3
{\fArial|b0|i0|c0|p0;\C7;Emco Series 5 lathe X & Z axis drive gear MXL 40t x 15mm wide.}{\fArial|b0|i0|c0|p0;\C7;\P2 holes in end face for hand operation tool.}{\fArial|b0|i0|c0|p0;\C7;\P.005" radius on all corners, both inside and outside.}{\fArial|
  1
b0|i0|c0|p0;\C7;\P}{\fArial|b0|i0|c0|p0;\C7;\Pmwg oct 2015}{\fArial|b0|i0|c0|p0;\C7;\H0.5625x;}
 73
     1
 44
1.0
  0
ENDSEC
  0
SECTION
  2
OBJECTS
  0
DICTIONARY
  5
C
330
0
100
AcDbDictionary
281
     1
  3
ACAD_GROUP
350
D
  3
ACAD_LAYOUT
350
1A
  3
ACAD_MLEADERSTYLE
350
3D0
  3
ACAD_MLINESTYLE
350
17
  3
ACAD_PLOTSETTINGS
350
19
  3
ACAD_PLOTSTYLENAME
350
E
  3
ACAD_SCALELIST
350
3B
  3
ACAD_TABLESTYLE
350
3CF
  3
ACAD_VISUALSTYLE
350
2A
  0
DICTIONARY
  5
D
102
{ACAD_REACTORS
330
C
102
}
330
C
100
AcDbDictionary
281
     1
  0
DICTIONARY
  5
1A
102
{ACAD_REACTORS
330
C
102
}
330
C
100
AcDbDictionary
281
     1
  3
Layout1
350
1E
  3
Layout2
350
26
  3
Model
350
22
  0
DICTIONARY
  5
3D0
102
{ACAD_REACTORS
330
C
102
}
330
C
100
AcDbDictionary
281
     1
  0
DICTIONARY
  5
17
102
{ACAD_REACTORS
330
C
102
}
330
C
100
AcDbDictionary
281
     1
  3
Standard
350
18
  0
DICTIONARY
  5
19
102
{ACAD_REACTORS
330
C
102
}
330
C
100
AcDbDictionary
281
     1
  0
ACDBDICTIONARYWDFLT
  5
E
102
{ACAD_REACTORS
330
C
102
}
330
C
100
AcDbDictionary
281
     1
  3
Normal
350
F
100
AcDbDictionaryWithDefault
340
F
  0
DICTIONARY
  5
3B
102
{ACAD_REACTORS
330
C
102
}
330
C
100
AcDbDictionary
281
     1
  3
A0
350
3C
  3
A1
350
3D
  3
A2
350
3E
  3
A3
350
3F
  3
A4
350
40
  3
A5
350
41
  3
A6
350
42
  3
A7
350
43
  3
A8
350
44
  3
A9
350
45
  3
B0
350
46
  3
B1
350
47
  3
B2
350
48
  3
B3
350
49
  3
B4
350
4A
  3
B5
350
4B
  3
B6
350
4C
  3
B7
350
4D
  3
B8
350
4E
  3
B9
350
4F
  3
C0
350
50
  3
C1
350
51
  3
C2
350
52
  3
C3
350
53
  3
C4
350
54
  3
C5
350
55
  3
C6
350
56
  3
C7
350
57
  3
C8
350
58
  3
C9
350
59
  3
D0
350
5A
  3
D1
350
5B
  3
D2
350
5C
  0
DICTIONARY
  5
3CF
102
{ACAD_REACTORS
330
C
102
}
330
C
100
AcDbDictionary
281
     1
  0
DICTIONARY
  5
2A
102
{ACAD_REACTORS
330
C
102
}
330
C
100
AcDbDictionary
281
     1
  3
2dWireframe
350
2F
  3
3D Hidden
350
31
  3
3dWireframe
350
30
  3
Basic
350
32
  3
Brighten
350
36
  3
ColorChange
350
3A
  3
Conceptual
350
34
  3
Dim
350
35
  3
Facepattern
350
39
  3
Flat
350
2B
  3
FlatWithEdges
350
2C
  3
Gouraud
350
2D
  3
GouraudWithEdges
350
2E
  3
Linepattern
350
38
  3
Realistic
350
33
  3
Thicken
350
37
  0
LAYOUT
  5
1E
102
{ACAD_REACTORS
330
1A
102
}
330
1A
100
AcDbPlotSettings
  1

  2
none_device
  4

  6

 40
0.0
 41
0.0
 42
0.0
 43
0.0
 44
0.0
 45
0.0
 46
0.0
 47
0.0
 48
0.0
 49
0.0
140
0.0
141
0.0
142
1.0
143
1.0
 70
   688
 72
     0
 73
     0
 74
     5
  7

 75
    16
 76
     0
 77
     2
 78
   300
147
1.0
148
0.0
149
0.0
100
AcDbLayout
  1
Layout1
 70
     1
 71
     1
 10
0.0
 20
0.0
 11
420.0
 21
297.0
 12
0.0
 22
0.0
 32
0.0
 14
1.000000000000000E+20
 24
1.000000000000000E+20
 34
1.000000000000000E+20
 15
-1.000000000000000E+20
 25
-1.000000000000000E+20
 35
-1.000000000000000E+20
146
0.0
 13
0.0
 23
0.0
 33
0.0
 16
1.0
 26
0.0
 36
0.0
 17
0.0
 27
1.0
 37
0.0
 76
     0
330
1B
  0
LAYOUT
  5
26
102
{ACAD_REACTORS
330
1A
102
}
330
1A
100
AcDbPlotSettings
  1

  2
none_device
  4

  6

 40
0.0
 41
0.0
 42
0.0
 43
0.0
 44
0.0
 45
0.0
 46
0.0
 47
0.0
 48
0.0
 49
0.0
140
0.0
141
0.0
142
1.0
143
1.0
 70
   688
 72
     0
 73
     0
 74
     5
  7

 75
    16
 76
     0
 77
     2
 78
   300
147
1.0
148
0.0
149
0.0
100
AcDbLayout
  1
Layout2
 70
     1
 71
     2
 10
0.0
 20
0.0
 11
0.0
 21
0.0
 12
0.0
 22
0.0
 32
0.0
 14
0.0
 24
0.0
 34
0.0
 15
0.0
 25
0.0
 35
0.0
146
0.0
 13
0.0
 23
0.0
 33
0.0
 16
1.0
 26
0.0
 36
0.0
 17
0.0
 27
1.0
 37
0.0
 76
     0
330
23
  0
LAYOUT
  5
22
102
{ACAD_REACTORS
330
1A
102
}
330
1A
100
AcDbPlotSettings
  1

  2
none_device
  4

  6

 40
0.0
 41
0.0
 42
0.0
 43
0.0
 44
0.0
 45
0.0
 46
0.0
 47
0.0
 48
0.0
 49
0.0
140
0.0
141
0.0
142
1.0
143
1.0
 70
  1712
 72
     0
 73
     0
 74
     0
  7

 75
     0
 76
     0
 77
     2
 78
   300
147
1.0
148
0.0
149
0.0
100
AcDbLayout
  1
Model
 70
     1
 71
     0
 10
0.0
 20
0.0
 11
420.0
 21
297.0
 12
0.0
 22
0.0
 32
0.0
 14
1.000000000000000E+20
 24
1.000000000000000E+20
 34
1.000000000000000E+20
 15
-1.000000000000000E+20
 25
-1.000000000000000E+20
 35
-1.000000000000000E+20
146
0.0
 13
0.0
 23
0.0
 33
0.0
 16
1.0
 26
0.0
 36
0.0
 17
0.0
 27
1.0
 37
0.0
 76
     0
330
1F
331
29
  0
MLINESTYLE
  5
18
102
{ACAD_REACTORS
330
17
102
}
330
17
100
AcDbMlineStyle
  2
Standard
 70
     0
  3

 62
   256
 51
90.0
 52
90.0
 71
     2
 49
0.5
 62
   256
  6
BYLAYER
 49
-0.5
 62
   256
  6
BYLAYER
  0
ACDBPLACEHOLDER
  5
F
102
{ACAD_REACTORS
330
E
102
}
330
E
  0
SCALE
  5
3C
102
{ACAD_REACTORS
330
3B
102
}
330
3B
100
AcDbScale
 70
     0
300
1:1
140
1.0
141
1.0
290
     1
  0
SCALE
  5
3D
102
{ACAD_REACTORS
330
3B
102
}
330
3B
100
AcDbScale
 70
     0
300
1:2
140
1.0
141
2.0
290
     0
  0
SCALE
  5
3E
102
{ACAD_REACTORS
330
3B
102
}
330
3B
100
AcDbScale
 70
     0
300
1:4
140
1.0
141
4.0
290
     0
  0
SCALE
  5
3F
102
{ACAD_REACTORS
330
3B
102
}
330
3B
100
AcDbScale
 70
     0
300
1:5
140
1.0
141
5.0
290
     0
  0
SCALE
  5
40
102
{ACAD_REACTORS
330
3B
102
}
330
3B
100
AcDbScale
 70
     0
300
1:8
140
1.0
141
8.0
290
     0
  0
SCALE
  5
41
102
{ACAD_REACTORS
330
3B
102
}
330
3B
100
AcDbScale
 70
     0
300
1:10
140
1.0
141
10.0
290
     0
  0
SCALE
  5
42
102
{ACAD_REACTORS
330
3B
102
}
330
3B
100
AcDbScale
 70
     0
300
1:16
140
1.0
141
16.0
290
     0
  0
SCALE
  5
43
102
{ACAD_REACTORS
330
3B
102
}
330
3B
100
AcDbScale
 70
     0
300
1:20
140
1.0
141
20.0
290
     0
  0
SCALE
  5
44
102
{ACAD_REACTORS
330
3B
102
}
330
3B
100
AcDbScale
 70
     0
300
1:30
140
1.0
141
30.0
290
     0
  0
SCALE
  5
45
102
{ACAD_REACTORS
330
3B
102
}
330
3B
100
AcDbScale
 70
     0
300
1:40
140
1.0
141
40.0
290
     0
  0
SCALE
  5
46
102
{ACAD_REACTORS
330
3B
102
}
330
3B
100
AcDbScale
 70
     0
300
1:50
140
1.0
141
50.0
290
     0
  0
SCALE
  5
47
102
{ACAD_REACTORS
330
3B
102
}
330
3B
100
AcDbScale
 70
     0
300
1:100
140
1.0
141
100.0
290
     0
  0
SCALE
  5
48
102
{ACAD_REACTORS
330
3B
102
}
330
3B
100
AcDbScale
 70
     0
300
2:1
140
2.0
141
1.0
290
     0
  0
SCALE
  5
49
102
{ACAD_REACTORS
330
3B
102
}
330
3B
100
AcDbScale
 70
     0
300
4:1
140
4.0
141
1.0
290
     0
  0
SCALE
  5
4A
102
{ACAD_REACTORS
330
3B
102
}
330
3B
100
AcDbScale
 70
     0
300
8:1
140
8.0
141
1.0
290
     0
  0
SCALE
  5
4B
102
{ACAD_REACTORS
330
3B
102
}
330
3B
100
AcDbScale
 70
     0
300
10:1
140
10.0
141
1.0
290
     0
  0
SCALE
  5
4C
102
{ACAD_REACTORS
330
3B
102
}
330
3B
100
AcDbScale
 70
     0
300
100:1
140
100.0
141
1.0
290
     0
  0
SCALE
  5
4D
102
{ACAD_REACTORS
330
3B
102
}
330
3B
100
AcDbScale
 70
     0
300
1/128" = 1'-0"
140
0.0078125
141
12.0
290
     0
  0
SCALE
  5
4E
102
{ACAD_REACTORS
330
3B
102
}
330
3B
100
AcDbScale
 70
     0
300
1/64" = 1'-0"
140
0.015625
141
12.0
290
     0
  0
SCALE
  5
4F
102
{ACAD_REACTORS
330
3B
102
}
330
3B
100
AcDbScale
 70
     0
300
1/32" = 1'-0"
140
0.03125
141
12.0
290
     0
  0
SCALE
  5
50
102
{ACAD_REACTORS
330
3B
102
}
330
3B
100
AcDbScale
 70
     0
300
1/16" = 1'-0"
140
0.0625
141
12.0
290
     0
  0
SCALE
  5
51
102
{ACAD_REACTORS
330
3B
102
}
330
3B
100
AcDbScale
 70
     0
300
3/32" = 1'-0"
140
0.09375
141
12.0
290
     0
  0
SCALE
  5
52
102
{ACAD_REACTORS
330
3B
102
}
330
3B
100
AcDbScale
 70
     0
300
1/8" = 1'-0"
140
0.125
141
12.0
290
     0
  0
SCALE
  5
53
102
{ACAD_REACTORS
330
3B
102
}
330
3B
100
AcDbScale
 70
     0
300
3/16" = 1'-0"
140
0.1875
141
12.0
290
     0
  0
SCALE
  5
54
102
{ACAD_REACTORS
330
3B
102
}
330
3B
100
AcDbScale
 70
     0
300
1/4" = 1'-0"
140
0.25
141
12.0
290
     0
  0
SCALE
  5
55
102
{ACAD_REACTORS
330
3B
102
}
330
3B
100
AcDbScale
 70
     0
300
3/8" = 1'-0"
140
0.375
141
12.0
290
     0
  0
SCALE
  5
56
102
{ACAD_REACTORS
330
3B
102
}
330
3B
100
AcDbScale
 70
     0
300
1/2" = 1'-0"
140
0.5
141
12.0
290
     0
  0
SCALE
  5
57
102
{ACAD_REACTORS
330
3B
102
}
330
3B
100
AcDbScale
 70
     0
300
3/4" = 1'-0"
140
0.75
141
12.0
290
     0
  0
SCALE
  5
58
102
{ACAD_REACTORS
330
3B
102
}
330
3B
100
AcDbScale
 70
     0
300
1" = 1'-0"
140
1.0
141
12.0
290
     0
  0
SCALE
  5
59
102
{ACAD_REACTORS
330
3B
102
}
330
3B
100
AcDbScale
 70
     0
300
1-1/2" = 1'-0"
140
1.5
141
12.0
290
     0
  0
SCALE
  5
5A
102
{ACAD_REACTORS
330
3B
102
}
330
3B
100
AcDbScale
 70
     0
300
3" = 1'-0"
140
3.0
141
12.0
290
     0
  0
SCALE
  5
5B
102
{ACAD_REACTORS
330
3B
102
}
330
3B
100
AcDbScale
 70
     0
300
6" = 1'-0"
140
6.0
141
12.0
290
     0
  0
SCALE
  5
5C
102
{ACAD_REACTORS
330
3B
102
}
330
3B
100
AcDbScale
 70
     0
300
1'-0" = 1'-0"
140
12.0
141
12.0
290
     0
  0
VISUALSTYLE
  5
2F
102
{ACAD_REACTORS
330
2A
102
}
330
2A
100
AcDbVisualStyle
  2
2dWireframe
 70
     4
 71
     0
 72
     2
 73
     0
 90
        0
 40
-0.6
 41
-30.0
 62
     5
 63
     7
421
 16777215
 74
     1
 91
        4
 64
     7
 65
   257
 75
     1
175
     1
 42
1.0
 92
        0
 66
   257
 43
1.0
 76
     1
 77
     6
 78
     2
 67
     7
 79
     5
170
     0
171
     0
290
     0
174
     0
 93
        1
 44
0.0
173
     0
291
     0
 45
0.0
  0
VISUALSTYLE
  5
31
102
{ACAD_REACTORS
330
2A
102
}
330
2A
100
AcDbVisualStyle
  2
3D Hidden
 70
     6
 71
     1
 72
     2
 73
     2
 90
        0
 40
-0.6
 41
-30.0
 62
     5
 63
     7
421
 16777215
 74
     2
 91
        2
 64
     7
 65
   257
 75
     2
175
     1
 42
40.0
 92
        0
 66
   257
 43
1.0
 76
     1
 77
     6
 78
     2
 67
     7
 79
     3
170
     0
171
     0
290
     0
174
     0
 93
        1
 44
0.0
173
     0
291
     0
 45
0.0
  0
VISUALSTYLE
  5
30
102
{ACAD_REACTORS
330
2A
102
}
330
2A
100
AcDbVisualStyle
  2
3dWireframe
 70
     5
 71
     0
 72
     2
 73
     0
 90
        0
 40
-0.6
 41
-30.0
 62
     5
 63
     7
421
 16777215
 74
     1
 91
        4
 64
     7
 65
   257
 75
     1
175
     1
 42
1.0
 92
        0
 66
   257
 43
1.0
 76
     1
 77
     6
 78
     2
 67
     7
 79
     5
170
     0
171
     0
290
     0
174
     0
 93
        1
 44
0.0
173
     0
291
     0
 45
0.0
  0
VISUALSTYLE
  5
32
102
{ACAD_REACTORS
330
2A
102
}
330
2A
100
AcDbVisualStyle
  2
Basic
 70
     7
 71
     1
 72
     0
 73
     1
 90
        0
 40
-0.6
 41
-30.0
 62
     5
 63
     7
421
 16777215
 74
     0
 91
        4
 64
     7
 65
   257
 75
     1
175
     1
 42
1.0
 92
        8
 66
     7
 43
1.0
 76
     1
 77
     6
 78
     2
 67
     7
 79
     5
170
     0
171
     0
290
     0
174
     0
 93
        1
 44
0.0
173
     0
291
     1
 45
0.0
  0
VISUALSTYLE
  5
36
102
{ACAD_REACTORS
330
2A
102
}
330
2A
100
AcDbVisualStyle
  2
Brighten
 70
    12
 71
     2
 72
     2
 73
     0
 90
        0
 40
-0.6
 41
-30.0
 62
     5
 63
     7
421
 16777215
 74
     1
 91
        4
 64
     7
 65
   257
 75
     1
175
     1
 42
1.0
 92
        8
 66
     7
 43
1.0
 76
     1
 77
     6
 78
     2
 67
     7
 79
     5
170
     0
171
     0
290
     0
174
     0
 93
        1
 44
50.0
173
     0
291
     1
 45
0.0
  0
VISUALSTYLE
  5
3A
102
{ACAD_REACTORS
330
2A
102
}
330
2A
100
AcDbVisualStyle
  2
ColorChange
 70
    16
 71
     2
 72
     2
 73
     3
 90
        0
 40
-0.6
 41
-30.0
 62
     5
 63
     8
421
  8421504
 74
     1
 91
        4
 64
     7
 65
   257
 75
     1
175
     1
 42
1.0
 92
        8
 66
     8
424
  8421504
 43
1.0
 76
     1
 77
     6
 78
     2
 67
     7
 79
     5
170
     0
171
     0
290
     0
174
     0
 93
        1
 44
0.0
173
     0
291
     1
 45
0.0
  0
VISUALSTYLE
  5
34
102
{ACAD_REACTORS
330
2A
102
}
330
2A
100
AcDbVisualStyle
  2
Conceptual
 70
     9
 71
     3
 72
     2
 73
     0
 90
        0
 40
-0.6
 41
-30.0
 62
     5
 63
     7
421
 16777215
 74
     2
 91
        2
 64
     7
 65
   257
 75
     1
175
     1
 42
40.0
 92
        8
 66
     7
 43
1.0
 76
     1
 77
     6
 78
     2
 67
     7
 79
     3
170
     0
171
     0
290
     0
174
     0
 93
        1
 44
0.0
173
     0
291
     0
 45
0.0
  0
VISUALSTYLE
  5
35
102
{ACAD_REACTORS
330
2A
102
}
330
2A
100
AcDbVisualStyle
  2
Dim
 70
    11
 71
     2
 72
     2
 73
     0
 90
        0
 40
-0.6
 41
-30.0
 62
     5
 63
     7
421
 16777215
 74
     1
 91
        4
 64
     7
 65
   257
 75
     1
175
     1
 42
1.0
 92
        8
 66
     7
 43
1.0
 76
     1
 77
     6
 78
     2
 67
     7
 79
     5
170
     0
171
     0
290
     0
174
     0
 93
        1
 44
-50.0
173
     0
291
     1
 45
0.0
  0
VISUALSTYLE
  5
39
102
{ACAD_REACTORS
330
2A
102
}
330
2A
100
AcDbVisualStyle
  2
Facepattern
 70
    15
 71
     2
 72
     2
 73
     0
 90
        0
 40
-0.6
 41
-30.0
 62
     5
 63
     7
421
 16777215
 74
     1
 91
        4
 64
     7
 65
   257
 75
     1
175
     1
 42
1.0
 92
        8
 66
     7
 43
1.0
 76
     1
 77
     6
 78
     2
 67
     7
 79
     5
170
     0
171
     0
290
     0
174
     0
 93
        1
 44
0.0
173
     0
291
     1
 45
0.0
  0
VISUALSTYLE
  5
2B
102
{ACAD_REACTORS
330
2A
102
}
330
2A
100
AcDbVisualStyle
  2
Flat
 70
     0
 71
     2
 72
     1
 73
     1
 90
        2
 40
-0.6
 41
30.0
 62
     5
 63
     7
421
 16777215
 74
     0
 91
        4
 64
     7
 65
   257
 75
     1
175
     1
 42
1.0
 92
        8
 66
     7
 43
1.0
 76
     1
 77
     6
 78
     2
 67
     7
 79
     5
170
     0
171
     0
290
     0
174
     0
 93
       13
 44
0.0
173
     0
291
     1
 45
0.0
  0
VISUALSTYLE
  5
2C
102
{ACAD_REACTORS
330
2A
102
}
330
2A
100
AcDbVisualStyle
  2
FlatWithEdges
 70
     1
 71
     2
 72
     1
 73
     1
 90
        2
 40
-0.6
 41
30.0
 62
     5
 63
     7
421
 16777215
 74
     1
 91
        4
 64
     7
 65
   257
 75
     1
175
     1
 42
1.0
 92
        0
 66
   257
 43
1.0
 76
     1
 77
     6
 78
     2
 67
     7
 79
     5
170
     0
171
     0
290
     0
174
     0
 93
       13
 44
0.0
173
     0
291
     1
 45
0.0
  0
VISUALSTYLE
  5
2D
102
{ACAD_REACTORS
330
2A
102
}
330
2A
100
AcDbVisualStyle
  2
Gouraud
 70
     2
 71
     2
 72
     2
 73
     1
 90
        2
 40
-0.6
 41
30.0
 62
     5
 63
     7
421
 16777215
 74
     0
 91
        4
 64
     7
 65
   257
 75
     1
175
     1
 42
1.0
 92
        0
 66
     7
 43
1.0
 76
     1
 77
     6
 78
     2
 67
     7
 79
     5
170
     0
171
     0
290
     0
174
     0
 93
       13
 44
0.0
173
     0
291
     1
 45
0.0
  0
VISUALSTYLE
  5
2E
102
{ACAD_REACTORS
330
2A
102
}
330
2A
100
AcDbVisualStyle
  2
GouraudWithEdges
 70
     3
 71
     2
 72
     2
 73
     1
 90
        2
 40
-0.6
 41
30.0
 62
     5
 63
     7
421
 16777215
 74
     1
 91
        4
 64
     7
 65
   257
 75
     1
175
     1
 42
1.0
 92
        0
 66
   257
 43
1.0
 76
     1
 77
     6
 78
     2
 67
     7
 79
     5
170
     0
171
     0
290
     0
174
     0
 93
       13
 44
0.0
173
     0
291
     1
 45
0.0
  0
VISUALSTYLE
  5
38
102
{ACAD_REACTORS
330
2A
102
}
330
2A
100
AcDbVisualStyle
  2
Linepattern
 70
    14
 71
     2
 72
     2
 73
     0
 90
        0
 40
-0.6
 41
-30.0
 62
     5
 63
     7
421
 16777215
 74
     1
 91
        4
 64
     7
 65
   257
 75
     7
175
     7
 42
1.0
 92
        8
 66
     7
 43
1.0
 76
     1
 77
     6
 78
     2
 67
     7
 79
     5
170
     0
171
     0
290
     0
174
     0
 93
        1
 44
0.0
173
     0
291
     1
 45
0.0
  0
VISUALSTYLE
  5
33
102
{ACAD_REACTORS
330
2A
102
}
330
2A
100
AcDbVisualStyle
  2
Realistic
 70
     8
 71
     2
 72
     2
 73
     0
 90
        0
 40
-0.6
 41
-30.0
 62
     5
 63
     7
421
 16777215
 74
     1
 91
        0
 64
     7
 65
   257
 75
     1
175
     1
 42
1.0
 92
        8
 66
     8
424
  7895160
 43
1.0
 76
     1
 77
     6
 78
     2
 67
     7
 79
     5
170
     0
171
     0
290
     0
174
     0
 93
       13
 44
0.0
173
     0
291
     0
 45
0.0
  0
VISUALSTYLE
  5
37
102
{ACAD_REACTORS
330
2A
102
}
330
2A
100
AcDbVisualStyle
  2
Thicken
 70
    13
 71
     2
 72
     2
 73
     0
 90
        0
 40
-0.6
 41
-30.0
 62
     5
 63
     7
421
 16777215
 74
     1
 91
        4
 64
     7
 65
   257
 75
     1
175
     1
 42
1.0
 92
       12
 66
     7
 43
1.0
 76
     1
 77
     6
 78
     2
 67
     7
 79
     5
170
     0
171
     0
290
     0
174
     0
 93
        1
 44
0.0
173
     0
291
     1
 45
0.0
  0
ENDSEC
  0
EOF
