**ABCDEFGHIJKLMNOPQRSTUVWXYZabcdefghijklmnopqrstuvwxyz**************************
**PARASOLID !"#$%&'()*+,-./:;<=>?@[\]^_`{|}~0123456789**************************
**PART1;
MC=Intel x86/Windows NT;
MC_MODEL=genuineintel family 15 model 6 stepping 4, intel(r) pentium(r) d cpu 2.80ghz;
MC_ID=vladik;
OS=windows nt;
OS_RELEASE=5.1 (workstation) (build 2600: service pack 2) ;
FRU=mdc_ugii_v7.0_djl_can_vrh;
APPL=unigraphics;
SITE=unknown;
USER=Administrator;
FORMAT=text;
GUISE=transmit;
KEY=pullstud;
FILE=C:\Documents and Settings\Administrator\My Documents\UG\CNC\Pull_Studs\pullstud.x_t;
DATE=29-dec-2008;
**PART2;
SCH=SCH_1901198_19008;
USFLD_SIZE=0;
**PART3;
**END_OF_HEADER*****************************************************************
T51 : TRANSMIT FILE created by modeller version 190119823 SCH_1901198_19008_1300
6186 0 12 27 CCCCCCCCCCCCCCCCCCCCCCCA16 index_map_offset0 0 1 dA9 index_map82 0
 A17 node_id_index_map82 0 A20 schema_embedding_map82 0 Z1 569 2 3 0 0 0 0 1e3 1
e-8 0 0 0 1 0 1 1 4 5 6 0 7 8 0 0 0 0 0 81 255 2 2 544 9 1 0 0 0 0 10 11 70 11 C
I9 list_type0 0 1 uI10 notransmit0 0 1 lCCCDCCDI12 finger_index0 0 1 dI12 finger
_block1012 0 CZ3 0 4 T1 0 0 2 20 1 12 12 13 255 4 177 0 1 0 13 0 0 14 0 52 255 5
 538 0 15 16 0 0 +-.01228792201528466 0 0 1 0 0 .0048 .866025403784439 .5 0 0 -1
 31 255 6 521 0 8 17 0 0 +-.0115951016922571 0 0 1 0 0 0 0 -1 .006 19 255 7 183
 0 1 14 0 18 V16 255 8 518 0 ?19 0 20 6 0 0 1 17 255 19 0 21 19 19 0 22 8 0 0 +1
6 20 512 0 ?23 8 24 17 0 0 1 17 23 0 25 23 23 0 26 20 0 0 +16 24 386 0 ?27 20 28
 29 0 0 1 31 17 515 0 20 29 6 0 --.01228792201528466 0 0 1 0 0 0 0 -1 .0048 31 2
9 389 0 24 30 17 0 +.0245422885820016 0 0 -1 0 0 0 0 1 .00550924745181135 31 30
 383 0 28 31 29 0 +.02691410835422915 0 0 -1 0 0 0 0 1 .00565 16 28 380 0 ?32 24
 33 30 0 0 1 31 31 377 0 33 34 30 0 -.02484690433787995 0 0 -1 0 0 0 0 1 .00565
 16 33 374 0 ?35 28 36 31 0 0 1 31 34 371 0 36 37 31 0 +.02717442490361155 0 0 1
 0 0 0 0 -1 .00555370264094612 16 36 368 0 ?38 33 39 34 0 0 1 31 37 338 0 39 40
 34 0 -.01300006313067944 0 0 1 0 0 0 0 -1 .00753520113173607 16 39 335 0 ?41 36
 42 37 0 0 1 31 40 332 0 42 43 37 0 -.01346207798471534 0 0 -1 0 0 0 0 1 .007036
64609095713 16 42 329 0 ?44 39 45 40 0 0 1 31 43 304 0 45 46 40 0 +.013462077984
71534 0 0 -1 0 0 0 0 1 .00648089100093832 16 45 301 0 ?47 42 48 43 0 0 1 31 46 2
98 0 48 49 43 0 -.01475336301298692 0 0 -1 0 0 0 0 1 .00461067093665498 16 48 29
5 0 ?50 45 51 46 0 0 1 31 49 269 0 51 52 46 0 +.0181264592771245 0 0 -1 0 0 0 0
 1 .003332444983929165 16 51 266 0 ?53 48 54 49 0 0 1 31 52 263 0 54 55 49 0 +.0
183036380200566 0 0 1 0 0 0 0 -1 .0033 16 54 260 0 ?56 51 57 52 0 0 1 31 55 234
 0 57 58 52 0 -.0210448473945253 0 0 1 0 0 0 0 -1 .0033 16 57 231 0 ?59 54 60 55
 0 0 1 31 58 228 0 60 61 55 0 +.02371023525846065 0 0 1 0 0 0 0 -1 .004531584796
65075 16 60 225 0 ?62 57 63 58 0 0 1 31 61 93 0 63 64 58 0 +.00821207798471534 0
 0 1 0 0 0 0 -1 .0079 16 63 92 0 ?65 60 66 61 0 0 1 31 64 87 0 66 67 61 0 +.0082
1207798471534 0 0 1 0 0 0 0 -1 .00625 16 66 86 0 ?68 63 69 64 0 0 1 31 67 81 0 6
9 70 64 0 +.00221207798471534 0 0 1 0 0 0 0 -1 .00625 16 69 80 0 ?71 66 72 67 0
 0 1 31 70 75 0 72 73 67 0 +.00221207798471534 0 0 1 0 0 0 0 -1 .004925 16 72 74
 0 ?74 69 75 70 0 0 1 31 73 69 0 75 76 70 0 +-.000287922015284659 0 0 1 0 0 0 0
 -1 .004925 16 75 68 0 ?77 72 78 73 0 0 1 31 76 63 0 78 79 73 0 +-.0002879220152
84659 0 0 1 0 0 0 0 -1 .006 16 78 62 0 ?80 75 81 76 0 0 1 31 79 57 0 81 0 76 0 +
.03021207798471535 0 0 1 0 0 0 0 -1 .00295 16 81 56 0 ?82 78 0 79 0 0 1 17 82 0
 83 82 82 0 84 81 0 0 +15 255 83 178 0 82 85 0 17 84 0 86 84 84 0 82 81 0 0 -15
 86 204 0 84 87 0 14 255 87 49 88 ?89 85 90 4 91 -0 0 85 89 18 81 1 88 550 92 87
 0 0 93 94 95 14 89 45 94 ?96 87 97 4 98 -0 0 87 96 18 14 85 179 93 ?87 13 83 4
 99 +0 0 13 87 18 15 90 369 0 38 87 86 52 91 50 0 87 98 100 0 -.0270620779847153
5 0 0 -1 0 0 .00565 .650791373455969 .759256602365297 0 0 1 13 18 182 0 0 0 0 0
 0 7 101 14 101 1 102 ?103 104 21 4 105 -0 0 104 0 18 81 1 102 562 92 101 0 0 10
6 107 108 14 103 243 107 ?109 101 110 4 111 -0 0 109 13 18 14 104 5 106 ?101 112
 113 4 114 -0 0 112 101 18 15 21 519 0 19 101 115 51 255 105 2 0 101 0 114 0 -0
 0 0 1 0 0 .006 0 0 -1 50 255 114 6 0 104 105 116 0 +-.000287922015284659 .006 0
 -1 0 0 0 0 1 51 116 10 0 112 114 117 0 -0 0 0 1 0 0 .004925 0 0 -1 14 112 9 118
 ?104 119 120 4 116 -0 0 119 104 18 50 117 14 0 119 116 121 0 +.0022120779847153
4 .004925 0 1 0 0 0 0 -1 14 119 13 122 ?112 123 124 4 117 -0 0 123 112 18 51 121
 18 0 123 117 125 0 -0 0 0 1 0 0 .00625 0 0 -1 14 123 17 126 ?119 127 128 4 121
 -0 0 127 119 18 50 125 22 0 127 121 129 0 +.00821207798471534 .00625 0 1 0 0 0
 0 -1 14 127 21 130 ?123 131 132 4 125 -0 0 131 123 18 52 129 26 0 131 125 133 0
 -.00821207798471534 0 0 -1 0 0 .0079 .0759702919282188 .99711008155787 0 0 1 14
 131 25 134 ?127 135 136 4 129 -0 0 135 127 18 50 133 30 0 135 129 137 0 +.01346
207798471534 .0075 0 -1 0 0 0 0 1 14 135 29 138 ?131 139 140 4 133 -0 0 139 131
 18 52 137 34 0 139 133 141 0 -.01346207798471534 0 0 -1 0 0 .0051 .354357485864
212 .93511003214167 0 0 1 14 139 33 142 ?135 143 144 4 137 -0 0 143 135 18 51 14
1 38 0 143 137 145 0 -0 0 0 1 0 0 .0033 0 0 -1 14 143 37 146 ?139 96 147 4 141 -
0 0 96 139 18 52 145 42 0 96 141 98 0 -.02266207798471535 0 0 1 0 0 .0033 .76153
9389695821 .648118629528357 0 0 -1 14 96 41 148 ?143 89 149 4 145 -0 0 89 143 18
 51 98 46 0 89 145 91 0 -0 0 0 1 0 0 .00565 0 0 -1 81 1 148 552 92 96 0 0 94 146
 150 15 149 387 0 27 96 151 17 27 0 149 27 27 0 152 24 0 0 +15 151 226 0 62 96 0
 17 62 0 151 62 62 0 153 60 0 0 +17 153 0 154 153 153 0 62 60 0 0 -15 154 245 0
 153 103 0 17 152 0 155 152 152 0 27 24 0 0 -15 155 413 0 152 156 157 14 156 412
 158 ?15 159 155 4 16 +0 0 15 159 18 15 157 414 0 160 156 0 17 160 0 157 160 160
 0 35 33 0 0 -17 35 0 161 35 35 0 160 33 0 0 +15 161 375 0 35 89 0 81 1 158 568
 92 156 0 0 162 163 164 14 15 531 163 ?0 156 165 4 5 +0 0 0 156 18 14 159 399 16
2 ?156 166 167 4 168 +0 0 156 166 18 54 255 16 419 0 156 168 5 0 +.0248469043378
7995 0 0 -1 0 0 .00525 4e-4 0 0 1 54 168 406 0 159 169 16 0 +.02691410835422915
 0 0 -1 0 0 .00525 4e-4 0 0 1 54 169 354 0 166 170 168 0 +.01296207798471534 0 0
 -1 0 0 .00703664609095713 5e-4 0 0 1 14 166 347 171 ?159 172 173 4 169 +0 0 159
 172 18 54 170 320 0 172 174 169 0 +.01546207798471535 0 0 -1 0 0 .0064808910009
3832 .002 0 0 1 14 172 313 175 ?166 109 176 4 170 -0 0 166 109 18 54 174 285 0 1
09 111 170 0 +.0183036380200566 0 0 1 0 0 .0038 5e-4 0 0 -1 14 109 278 177 ?172
 103 178 4 174 -0 0 172 103 18 54 111 250 0 103 99 174 0 +.0210448473945253 0 0
 1 0 0 .0068 .0035 0 0 -1 50 99 185 0 85 100 111 0 +.03021207798471535 0 0 1 0 0
 0 0 -1 50 100 184 0 13 91 99 0 +-.01228792201528466 0 0 1 0 0 0 0 -1 14 13 181
 179 ?85 0 25 4 100 -0 0 103 85 18 81 1 179 548 92 13 0 0 0 93 180 15 25 513 0 2
3 13 0 80 255 1 92 0 181 8001 0 0 0 0 3 5 0 0 0 FFFFTFTFFFFFFF2 81 1 93 549 92 8
5 0 0 179 88 182 83 255 3 180 .5960784 .6666667 .6862745 83 3 182 .5960784 .6666
667 .6862745 79 255 15 181 SDL/TYSA_COLOUR81 1 177 564 92 109 0 0 107 175 183 15
 178 279 0 184 109 185 17 184 0 178 184 184 0 53 51 0 0 -15 185 280 0 186 109 0
 17 186 0 185 186 186 0 56 54 0 0 -17 56 0 147 56 56 0 186 54 0 0 +15 147 261 0
 56 143 187 15 187 232 0 59 143 0 17 59 0 187 59 59 0 188 57 0 0 +17 188 0 110 1
88 188 0 59 57 0 0 -15 110 244 0 188 103 154 17 53 0 189 53 53 0 184 51 0 0 +15
 189 267 0 53 139 0 81 1 107 563 92 103 0 0 102 177 190 81 1 175 565 92 172 0 0
 177 171 191 83 3 183 .5960784 .6666667 .6862745 81 1 171 566 92 166 0 0 175 162
 192 83 3 191 .5960784 .6666667 .6862745 81 1 162 567 92 159 0 0 171 158 193 83
 3 192 .5960784 .6666667 .6862745 83 3 193 .5960784 .6666667 .6862745 83 3 190 .
5960784 .6666667 .6862745 15 176 314 0 194 172 195 17 194 0 176 194 194 0 47 45
 0 0 -15 195 315 0 196 172 0 17 196 0 195 196 196 0 50 48 0 0 -17 50 0 144 50 50
 0 196 48 0 0 +15 144 296 0 50 139 189 17 47 0 197 47 47 0 194 45 0 0 +15 197 30
2 0 47 135 0 15 173 348 0 198 166 199 17 198 0 173 198 198 0 41 39 0 0 -15 199 3
49 0 200 166 0 17 200 0 199 200 200 0 44 42 0 0 -17 44 0 140 44 44 0 200 42 0 0
 +15 140 330 0 44 135 197 17 41 0 136 41 41 0 198 39 0 0 +15 136 336 0 41 131 20
1 15 201 28 0 65 131 0 17 65 0 201 65 65 0 202 63 0 0 +17 202 0 132 202 202 0 65
 63 0 0 -15 132 211 0 202 127 203 15 203 24 0 68 127 0 17 68 0 203 68 68 0 204 6
6 0 0 +17 204 0 128 204 204 0 68 66 0 0 -15 128 212 0 204 123 205 15 205 20 0 71
 123 0 17 71 0 205 71 71 0 206 69 0 0 +17 206 0 124 206 206 0 71 69 0 0 -15 124
 213 0 206 119 207 15 207 16 0 74 119 0 17 74 0 207 74 74 0 208 72 0 0 +17 208 0
 120 208 208 0 74 72 0 0 -15 120 214 0 208 112 209 15 209 12 0 77 112 0 17 77 0
 209 77 77 0 210 75 0 0 +17 210 0 113 210 210 0 77 75 0 0 -15 113 215 0 210 104
 211 15 211 8 0 80 104 0 17 80 0 211 80 80 0 212 78 0 0 +17 212 0 115 212 212 0
 80 78 0 0 -15 115 216 0 212 101 0 15 167 400 0 213 159 214 17 213 0 167 213 213
 0 32 28 0 0 -15 214 401 0 215 159 0 17 215 0 214 215 215 0 38 36 0 0 -17 38 0 9
0 38 38 0 215 36 0 0 +17 32 0 97 32 32 0 213 28 0 0 +15 97 381 0 32 89 161 81 1
 163 569 92 15 0 0 158 0 216 15 165 532 0 22 15 217 17 22 0 165 22 22 0 19 8 0 0
 -15 217 533 0 26 15 0 17 26 0 217 26 26 0 23 20 0 0 -83 3 216 .5960784 .6666667
 .6862745 83 3 164 .5960784 .6666667 .6862745 81 1 94 551 92 89 0 0 88 148 218 8
1 1 146 553 92 143 0 0 148 142 219 83 3 150 .5960784 .6666667 .6862745 81 1 142
 554 92 139 0 0 146 138 220 83 3 219 .5960784 .6666667 .6862745 81 1 138 555 92
 135 0 0 142 134 221 83 3 220 .5960784 .6666667 .6862745 81 1 134 556 92 131 0 0
 138 130 222 83 3 221 .5960784 .6666667 .6862745 81 1 130 557 92 127 0 0 134 126
 223 83 3 222 .5960784 .6666667 .6862745 81 1 126 558 92 123 0 0 130 122 224 83
 3 223 .5960784 .6666667 .6862745 81 1 122 559 92 119 0 0 126 118 225 83 3 224 .
5960784 .6666667 .6862745 81 1 118 560 92 112 0 0 122 106 226 83 3 225 .5960784
 .6666667 .6862745 81 1 106 561 92 104 0 0 118 102 227 83 3 226 .5960784 .666666
7 .6862745 83 3 227 .5960784 .6666667 .6862745 83 3 218 .5960784 .6666667 .68627
45 83 3 108 .5960784 .6666667 .6862745 83 3 95 .5960784 .6666667 .6862745 19 14
 176 0 1 0 7 4 S74 4 CI16 index_map_offset0 0 1 dCCZ20 12 2 0 0 2 163 0 0 0 0 0
 0 0 0 0 0 0 0 0 0 0 0 0 0 80 2 9 228 229 8004 0 0 0 0 3 5 0 0 0 FFTFFFFFFFFFFF2
 3 83 1 10 7830.64 84 255 8 11 Kg/Cu M 79 16 229 SDL/TYSA_DENSITY1 0 
