  0
SECTION
  2
HEADER
  9
$ACADVER
  1
AC1021
  9
$ACADMAINTVER
 70
    25
  9
$DWGCODEPAGE
  3
ANSI_1252
  9
$INSBASE
 10
0.0
 20
0.0
 30
0.0
  9
$EXTMIN
 10
1.000000000000000E+20
 20
1.000000000000000E+20
 30
1.000000000000000E+20
  9
$EXTMAX
 10
-1.000000000000000E+20
 20
-1.000000000000000E+20
 30
-1.000000000000000E+20
  9
$LIMMIN
 10
0.0
 20
0.0
  9
$LIMMAX
 10
420.0
 20
297.0
  9
$ORTHOMODE
 70
     0
  9
$REGENMODE
 70
     1
  9
$FILLMODE
 70
     1
  9
$QTEXTMODE
 70
     0
  9
$MIRRTEXT
 70
     1
  9
$LTSCALE
 40
1.0
  9
$ATTMODE
 70
     1
  9
$TEXTSIZE
 40
2.5
  9
$TRACEWID
 40
1.0
  9
$TEXTSTYLE
  7
Standard
  9
$CLAYER
  8
0
  9
$CELTYPE
  6
ByLayer
  9
$CECOLOR
 62
   256
  9
$CELTSCALE
 40
1.0
  9
$DISPSILH
 70
     0
  9
$DIMSCALE
 40
1.0
  9
$DIMASZ
 40
3.0
  9
$DIMEXO
 40
0.625
  9
$DIMDLI
 40
3.75
  9
$DIMRND
 40
0.0
  9
$DIMDLE
 40
0.0
  9
$DIMEXE
 40
1.25
  9
$DIMTP
 40
0.0
  9
$DIMTM
 40
0.0
  9
$DIMTXT
 40
2.085798611111111
  9
$DIMCEN
 40
2.5
  9
$DIMTSZ
 40
0.0
  9
$DIMTOL
 70
     0
  9
$DIMLIM
 70
     0
  9
$DIMTIH
 70
     0
  9
$DIMTOH
 70
     0
  9
$DIMSE1
 70
     0
  9
$DIMSE2
 70
     0
  9
$DIMTAD
 70
     1
  9
$DIMZIN
 70
     8
  9
$DIMBLK
  1

  9
$DIMASO
 70
     1
  9
$DIMSHO
 70
     1
  9
$DIMPOST
  1

  9
$DIMAPOST
  1

  9
$DIMALT
 70
     0
  9
$DIMALTD
 70
     3
  9
$DIMALTF
 40
0.03937007874016
  9
$DIMLFAC
 40
1.0
  9
$DIMTOFL
 70
     1
  9
$DIMTVP
 40
0.0
  9
$DIMTIX
 70
     0
  9
$DIMSOXD
 70
     0
  9
$DIMSAH
 70
     0
  9
$DIMBLK1
  1

  9
$DIMBLK2
  1

  9
$DIMSTYLE
  2
ISO-25
  9
$DIMCLRD
 70
     0
  9
$DIMCLRE
 70
     0
  9
$DIMCLRT
 70
     0
  9
$DIMTFAC
 40
1.0
  9
$DIMGAP
 40
0.625
  9
$DIMJUST
 70
     0
  9
$DIMSD1
 70
     0
  9
$DIMSD2
 70
     0
  9
$DIMTOLJ
 70
     0
  9
$DIMTZIN
 70
     8
  9
$DIMALTZ
 70
     0
  9
$DIMALTTZ
 70
     0
  9
$DIMUPT
 70
     0
  9
$DIMDEC
 70
     2
  9
$DIMTDEC
 70
     2
  9
$DIMALTU
 70
     2
  9
$DIMALTTD
 70
     3
  9
$DIMTXSTY
  7
Standard
  9
$DIMAUNIT
 70
     0
  9
$DIMADEC
 70
     0
  9
$DIMALTRND
 40
0.0
  9
$DIMAZIN
 70
     0
  9
$DIMDSEP
 70
    44
  9
$DIMATFIT
 70
     3
  9
$DIMFRAC
 70
     0
  9
$DIMLDRBLK
  1

  9
$DIMLUNIT
 70
     2
  9
$DIMLWD
 70
    -2
  9
$DIMLWE
 70
    -2
  9
$DIMTMOVE
 70
     0
  9
$DIMFXL
 40
1.0
  9
$DIMFXLON
 70
     0
  9
$DIMJOGANG
 40
0.7853981633974483
  9
$DIMTFILL
 70
     0
  9
$DIMTFILLCLR
 70
     0
  9
$DIMARCSYM
 70
     0
  9
$DIMLTYPE
  6

  9
$DIMLTEX1
  6

  9
$DIMLTEX2
  6

  9
$LUNITS
 70
     2
  9
$LUPREC
 70
     4
  9
$SKETCHINC
 40
1.0
  9
$FILLETRAD
 40
10.0
  9
$AUNITS
 70
     0
  9
$AUPREC
 70
     0
  9
$MENU
  1
.
  9
$ELEVATION
 40
0.0
  9
$PELEVATION
 40
0.0
  9
$THICKNESS
 40
0.0
  9
$LIMCHECK
 70
     0
  9
$CHAMFERA
 40
10.0
  9
$CHAMFERB
 40
10.0
  9
$CHAMFERC
 40
20.0
  9
$CHAMFERD
 40
0.0
  9
$SKPOLY
 70
     0
  9
$TDCREATE
 40
2455861.409649201
  9
$TDUCREATE
 40
2455861.367982535
  9
$TDUPDATE
 40
2455861.409649213
  9
$TDUUPDATE
 40
2455861.367982546
  9
$TDINDWG
 40
0.0000000116
  9
$TDUSRTIMER
 40
0.0000000116
  9
$USRTIMER
 70
     1
  9
$ANGBASE
 50
0.0
  9
$ANGDIR
 70
     0
  9
$PDMODE
 70
     0
  9
$PDSIZE
 40
0.0
  9
$PLINEWID
 40
0.0
  9
$SPLFRAME
 70
     0
  9
$SPLINETYPE
 70
     6
  9
$SPLINESEGS
 70
     8
  9
$HANDSEED
  5
2BE
  9
$SURFTAB1
 70
     6
  9
$SURFTAB2
 70
     6
  9
$SURFTYPE
 70
     6
  9
$SURFU
 70
     6
  9
$SURFV
 70
     6
  9
$UCSBASE
  2

  9
$UCSNAME
  2

  9
$UCSORG
 10
0.0
 20
0.0
 30
0.0
  9
$UCSXDIR
 10
1.0
 20
0.0
 30
0.0
  9
$UCSYDIR
 10
0.0
 20
1.0
 30
0.0
  9
$UCSORTHOREF
  2

  9
$UCSORTHOVIEW
 70
     0
  9
$UCSORGTOP
 10
0.0
 20
0.0
 30
0.0
  9
$UCSORGBOTTOM
 10
0.0
 20
0.0
 30
0.0
  9
$UCSORGLEFT
 10
0.0
 20
0.0
 30
0.0
  9
$UCSORGRIGHT
 10
0.0
 20
0.0
 30
0.0
  9
$UCSORGFRONT
 10
0.0
 20
0.0
 30
0.0
  9
$UCSORGBACK
 10
0.0
 20
0.0
 30
0.0
  9
$PUCSBASE
  2

  9
$PUCSNAME
  2

  9
$PUCSORG
 10
0.0
 20
0.0
 30
0.0
  9
$PUCSXDIR
 10
1.0
 20
0.0
 30
0.0
  9
$PUCSYDIR
 10
0.0
 20
1.0
 30
0.0
  9
$PUCSORTHOREF
  2

  9
$PUCSORTHOVIEW
 70
     0
  9
$PUCSORGTOP
 10
0.0
 20
0.0
 30
0.0
  9
$PUCSORGBOTTOM
 10
0.0
 20
0.0
 30
0.0
  9
$PUCSORGLEFT
 10
0.0
 20
0.0
 30
0.0
  9
$PUCSORGRIGHT
 10
0.0
 20
0.0
 30
0.0
  9
$PUCSORGFRONT
 10
0.0
 20
0.0
 30
0.0
  9
$PUCSORGBACK
 10
0.0
 20
0.0
 30
0.0
  9
$USERI1
 70
     0
  9
$USERI2
 70
     0
  9
$USERI3
 70
     0
  9
$USERI4
 70
     0
  9
$USERI5
 70
     0
  9
$USERR1
 40
0.0
  9
$USERR2
 40
0.0
  9
$USERR3
 40
0.0
  9
$USERR4
 40
0.0
  9
$USERR5
 40
0.0
  9
$WORLDVIEW
 70
     1
  9
$SHADEDGE
 70
     3
  9
$SHADEDIF
 70
    70
  9
$TILEMODE
 70
     1
  9
$MAXACTVP
 70
    64
  9
$PINSBASE
 10
0.0
 20
0.0
 30
0.0
  9
$PLIMCHECK
 70
     0
  9
$PEXTMIN
 10
1.000000000000000E+20
 20
1.000000000000000E+20
 30
1.000000000000000E+20
  9
$PEXTMAX
 10
-1.000000000000000E+20
 20
-1.000000000000000E+20
 30
-1.000000000000000E+20
  9
$PLIMMIN
 10
0.0
 20
0.0
  9
$PLIMMAX
 10
420.0
 20
297.0
  9
$UNITMODE
 70
     0
  9
$VISRETAIN
 70
     1
  9
$PLINEGEN
 70
     0
  9
$PSLTSCALE
 70
     1
  9
$TREEDEPTH
 70
  3020
  9
$CMLSTYLE
  2
Standard
  9
$CMLJUST
 70
     0
  9
$CMLSCALE
 40
20.0
  9
$PROXYGRAPHICS
 70
     1
  9
$MEASUREMENT
 70
     1
  9
$CELWEIGHT
370
    -1
  9
$ENDCAPS
280
     0
  9
$JOINSTYLE
280
     0
  9
$LWDISPLAY
290
     0
  9
$INSUNITS
 70
     4
  9
$HYPERLINKBASE
  1

  9
$STYLESHEET
  1

  9
$XEDIT
290
     1
  9
$CEPSNTYPE
380
     0
  9
$PSTYLEMODE
290
     1
  9
$FINGERPRINTGUID
  2
{3BC5642A-30C7-44CD-98EB-43B7D5987107}
  9
$VERSIONGUID
  2
{FAEB1C32-E019-11D5-929B-00C0DF256EC4}
  9
$EXTNAMES
290
     1
  9
$PSVPSCALE
 40
0.0
  9
$OLESTARTUP
290
     0
  9
$SORTENTS
280
   127
  9
$INDEXCTL
280
     0
  9
$HIDETEXT
280
     1
  9
$XCLIPFRAME
290
     0
  9
$HALOGAP
280
     0
  9
$OBSCOLOR
 70
   257
  9
$OBSLTYPE
280
     0
  9
$INTERSECTIONDISPLAY
280
     0
  9
$INTERSECTIONCOLOR
 70
   257
  9
$DIMASSOC
280
     2
  9
$PROJECTNAME
  1

  9
$CAMERADISPLAY
290
     0
  9
$LENSLENGTH
 40
50.0
  9
$CAMERAHEIGHT
 40
0.0
  9
$STEPSPERSEC
 40
2.0
  9
$STEPSIZE
 40
6.0
  9
$3DDWFPREC
 40
2.0
  9
$PSOLWIDTH
 40
5.0
  9
$PSOLHEIGHT
 40
80.0
  9
$LOFTANG1
 40
1.570796326794897
  9
$LOFTANG2
 40
1.570796326794897
  9
$LOFTMAG1
 40
0.0
  9
$LOFTMAG2
 40
0.0
  9
$LOFTPARAM
 70
     7
  9
$LOFTNORMALS
280
     1
  9
$LATITUDE
 40
37.795
  9
$LONGITUDE
 40
-122.394
  9
$NORTHDIRECTION
 40
0.0
  9
$TIMEZONE
 70
 -8000
  9
$LIGHTGLYPHDISPLAY
280
     1
  9
$TILEMODELIGHTSYNCH
280
     1
  9
$SOLIDHIST
280
     1
  9
$SHOWHIST
280
     1
  9
$DWFFRAME
280
     2
  9
$DGNFRAME
280
     2
  9
$REALWORLDSCALE
290
     1
  9
$INTERFERECOLOR
 62
   256
  9
$CSHADOW
280
     0
  9
$SHADOWPLANELOCATION
 40
0.0
  0
ENDSEC
  0
SECTION
  2
CLASSES
  0
CLASS
  1
ACDBDICTIONARYWDFLT
  2
AcDbDictionaryWithDefault
  3
ObjectDBX Classes
 90
        0
 91
        3
280
     0
281
     0
  0
CLASS
  1
VISUALSTYLE
  2
AcDbVisualStyle
  3
ObjectDBX Classes
 90
     4095
 91
        3
280
     0
281
     0
  0
CLASS
  1
SCALE
  2
AcDbScale
  3
ObjectDBX Classes
 90
     1153
 91
        3
280
     0
281
     0
  0
ENDSEC
  0
SECTION
  2
TABLES
  0
TABLE
  2
VPORT
  5
8
330
0
100
AcDbSymbolTable
 70
     1
  0
VPORT
  5
29
330
8
100
AcDbSymbolTableRecord
100
AcDbViewportTableRecord
  2
*Active
 70
     0
 10
0.0
 20
0.0
 11
1.0
 21
1.0
 12
344.1869158878504
 22
148.5
 13
0.0
 23
0.0
 14
10.0
 24
10.0
 15
10.0
 25
10.0
 16
0.0
 26
0.0
 36
1.0
 17
0.0
 27
0.0
 37
0.0
 40
297.0
 41
1.972972972850329
 42
50.0
 43
0.0
 44
0.0
 50
0.0
 51
0.0
 71
     0
 72
   100
 73
     1
 74
     3
 75
     0
 76
     0
 77
     0
 78
     0
281
     0
 65
     1
110
0.0
120
0.0
130
0.0
111
1.0
121
0.0
131
0.0
112
0.0
122
1.0
132
0.0
 79
     0
146
0.0
 60
     3
 61
     5
292
     1
282
     1
141
0.0
142
0.0
 63
   256
  0
ENDTAB
  0
TABLE
  2
LTYPE
  5
5
330
0
100
AcDbSymbolTable
 70
     1
  0
LTYPE
  5
14
330
5
100
AcDbSymbolTableRecord
100
AcDbLinetypeTableRecord
  2
ByBlock
 70
     0
  3

 72
    65
 73
     0
 40
0.0
  0
LTYPE
  5
15
330
5
100
AcDbSymbolTableRecord
100
AcDbLinetypeTableRecord
  2
ByLayer
 70
     0
  3

 72
    65
 73
     0
 40
0.0
  0
LTYPE
  5
16
330
5
100
AcDbSymbolTableRecord
100
AcDbLinetypeTableRecord
  2
Continuous
 70
     0
  3
Solid line
 72
    65
 73
     0
 40
0.0
  0
ENDTAB
  0
TABLE
  2
LAYER
  5
2
330
0
100
AcDbSymbolTable
 70
     5
  0
LAYER
  5
10
330
2
100
AcDbSymbolTableRecord
100
AcDbLayerTableRecord
  2
0
 70
     0
 62
     7
  6
Continuous
370
    -3
390
F
347
0
  0
LAYER
  5
5D
330
2
100
AcDbSymbolTableRecord
100
AcDbLayerTableRecord
  2
VISIBLE
 70
     0
 62
     7
  6
Continuous
370
     0
390
F
347
0
  0
LAYER
  5
8F
330
2
100
AcDbSymbolTableRecord
100
AcDbLayerTableRecord
  2
TANGENT EDGES
 70
     0
 62
     7
  6
Continuous
370
     0
390
F
347
0
  0
LAYER
  5
94
330
2
100
AcDbSymbolTableRecord
100
AcDbLayerTableRecord
  2
DIMENSIONS
 70
     0
 62
     7
  6
Continuous
370
     0
390
F
347
0
  0
LAYER
  5
233
330
2
100
AcDbSymbolTableRecord
100
AcDbLayerTableRecord
  2
CONTINUOUS
 70
     0
 62
     7
  6
Continuous
370
     0
390
F
347
0
  0
ENDTAB
  0
TABLE
  2
STYLE
  5
3
330
0
100
AcDbSymbolTable
 70
     1
  0
STYLE
  5
11
330
3
100
AcDbSymbolTableRecord
100
AcDbTextStyleTableRecord
  2
Standard
 70
     0
 40
0.125
 41
1.0
 50
0.0
 71
     0
 42
2.5
  3
txt
  4

1001
ACAD
1000
Arial
1071
        0
  0
ENDTAB
  0
TABLE
  2
VIEW
  5
6
330
0
100
AcDbSymbolTable
 70
     0
  0
ENDTAB
  0
TABLE
  2
UCS
  5
7
330
0
100
AcDbSymbolTable
 70
     0
  0
ENDTAB
  0
TABLE
  2
APPID
  5
9
330
0
100
AcDbSymbolTable
 70
     1
  0
APPID
  5
12
330
9
100
AcDbSymbolTableRecord
100
AcDbRegAppTableRecord
  2
ACAD
 70
     0
  0
ENDTAB
  0
TABLE
  2
DIMSTYLE
  5
A
330
0
100
AcDbSymbolTable
 70
     1
100
AcDbDimStyleTable
  0
DIMSTYLE
105
27
102
{ACAD_REACTORS
330
95
330
A2
330
AF
330
BC
330
C9
330
D6
330
E4
330
F1
330
FE
330
10B
330
118
330
125
330
133
330
140
330
193
330
1A0
330
1AD
330
1BA
330
1C8
330
1D6
330
1FE
330
20B
330
218
330
225
102
}
330
A
100
AcDbSymbolTableRecord
100
AcDbDimStyleTableRecord
  2
ISO-25
 70
     0
 41
2.5
 42
0.625
 43
3.75
 44
1.25
 73
     0
 74
     0
 77
     1
 78
     8
140
2.5
141
2.5
143
0.03937007874016
147
0.625
171
     3
172
     1
271
     2
272
     2
274
     3
278
    44
283
     0
284
     8
340
11
  0
ENDTAB
  0
TABLE
  2
BLOCK_RECORD
  5
1
330
0
100
AcDbSymbolTable
 70
    25
  0
BLOCK_RECORD
  5
1F
330
1
100
AcDbSymbolTableRecord
100
AcDbBlockTableRecord
  2
*Model_Space
340
22
 70
     0
280
     1
281
     0
  0
BLOCK_RECORD
  5
1B
330
1
100
AcDbSymbolTableRecord
100
AcDbBlockTableRecord
  2
*Paper_Space
340
1E
 70
     0
280
     1
281
     0
  0
BLOCK_RECORD
  5
23
330
1
100
AcDbSymbolTableRecord
100
AcDbBlockTableRecord
  2
*Paper_Space0
340
26
 70
     0
280
     1
281
     0
  0
BLOCK_RECORD
  5
96
330
1
100
AcDbSymbolTableRecord
100
AcDbBlockTableRecord
  2
D1
340
0
 70
     0
280
     1
281
     0
  0
BLOCK_RECORD
  5
A3
330
1
100
AcDbSymbolTableRecord
100
AcDbBlockTableRecord
  2
D2
340
0
 70
     0
280
     1
281
     0
  0
BLOCK_RECORD
  5
B0
330
1
100
AcDbSymbolTableRecord
100
AcDbBlockTableRecord
  2
D3
340
0
 70
     0
280
     1
281
     0
  0
BLOCK_RECORD
  5
BD
330
1
100
AcDbSymbolTableRecord
100
AcDbBlockTableRecord
  2
D4
340
0
 70
     0
280
     1
281
     0
  0
BLOCK_RECORD
  5
CA
330
1
100
AcDbSymbolTableRecord
100
AcDbBlockTableRecord
  2
D5
340
0
 70
     0
280
     1
281
     0
  0
BLOCK_RECORD
  5
D7
330
1
100
AcDbSymbolTableRecord
100
AcDbBlockTableRecord
  2
D6
340
0
 70
     0
280
     1
281
     0
  0
BLOCK_RECORD
  5
E5
330
1
100
AcDbSymbolTableRecord
100
AcDbBlockTableRecord
  2
D7
340
0
 70
     0
280
     1
281
     0
  0
BLOCK_RECORD
  5
F2
330
1
100
AcDbSymbolTableRecord
100
AcDbBlockTableRecord
  2
D8
340
0
 70
     0
280
     1
281
     0
  0
BLOCK_RECORD
  5
FF
330
1
100
AcDbSymbolTableRecord
100
AcDbBlockTableRecord
  2
D9
340
0
 70
     0
280
     1
281
     0
  0
BLOCK_RECORD
  5
10C
330
1
100
AcDbSymbolTableRecord
100
AcDbBlockTableRecord
  2
D10
340
0
 70
     0
280
     1
281
     0
  0
BLOCK_RECORD
  5
119
330
1
100
AcDbSymbolTableRecord
100
AcDbBlockTableRecord
  2
D11
340
0
 70
     0
280
     1
281
     0
  0
BLOCK_RECORD
  5
126
330
1
100
AcDbSymbolTableRecord
100
AcDbBlockTableRecord
  2
D12
340
0
 70
     0
280
     1
281
     0
  0
BLOCK_RECORD
  5
134
330
1
100
AcDbSymbolTableRecord
100
AcDbBlockTableRecord
  2
D13
340
0
 70
     0
280
     1
281
     0
  0
BLOCK_RECORD
  5
141
330
1
100
AcDbSymbolTableRecord
100
AcDbBlockTableRecord
  2
D14
340
0
 70
     0
280
     1
281
     0
  0
BLOCK_RECORD
  5
194
330
1
100
AcDbSymbolTableRecord
100
AcDbBlockTableRecord
  2
D15
340
0
 70
     0
280
     1
281
     0
  0
BLOCK_RECORD
  5
1A1
330
1
100
AcDbSymbolTableRecord
100
AcDbBlockTableRecord
  2
D16
340
0
 70
     0
280
     1
281
     0
  0
BLOCK_RECORD
  5
1AE
330
1
100
AcDbSymbolTableRecord
100
AcDbBlockTableRecord
  2
D17
340
0
 70
     0
280
     1
281
     0
  0
BLOCK_RECORD
  5
1BB
330
1
100
AcDbSymbolTableRecord
100
AcDbBlockTableRecord
  2
D18
340
0
 70
     0
280
     1
281
     0
  0
BLOCK_RECORD
  5
1C9
330
1
100
AcDbSymbolTableRecord
100
AcDbBlockTableRecord
  2
D19
340
0
 70
     0
280
     1
281
     0
  0
BLOCK_RECORD
  5
1D7
330
1
100
AcDbSymbolTableRecord
100
AcDbBlockTableRecord
  2
D20
340
0
 70
     0
280
     1
281
     0
  0
BLOCK_RECORD
  5
1FF
330
1
100
AcDbSymbolTableRecord
100
AcDbBlockTableRecord
  2
D21
340
0
 70
     0
280
     1
281
     0
  0
BLOCK_RECORD
  5
20C
330
1
100
AcDbSymbolTableRecord
100
AcDbBlockTableRecord
  2
D22
340
0
 70
     0
280
     1
281
     0
  0
BLOCK_RECORD
  5
219
330
1
100
AcDbSymbolTableRecord
100
AcDbBlockTableRecord
  2
D23
340
0
 70
     0
280
     1
281
     0
  0
BLOCK_RECORD
  5
226
330
1
100
AcDbSymbolTableRecord
100
AcDbBlockTableRecord
  2
D24
340
0
 70
     0
280
     1
281
     0
  0
ENDTAB
  0
ENDSEC
  0
SECTION
  2
BLOCKS
  0
BLOCK
  5
20
330
1F
100
AcDbEntity
  8
0
100
AcDbBlockBegin
  2
*Model_Space
 70
     0
 10
0.0
 20
0.0
 30
0.0
  3
*Model_Space
  1

  0
ENDBLK
  5
21
330
1F
100
AcDbEntity
  8
0
100
AcDbBlockEnd
  0
BLOCK
  5
1C
330
1B
100
AcDbEntity
 67
     1
  8
0
100
AcDbBlockBegin
  2
*Paper_Space
 70
     0
 10
0.0
 20
0.0
 30
0.0
  3
*Paper_Space
  1

  0
ENDBLK
  5
1D
330
1B
100
AcDbEntity
 67
     1
  8
0
100
AcDbBlockEnd
  0
BLOCK
  5
24
330
23
100
AcDbEntity
  8
0
100
AcDbBlockBegin
  2
*Paper_Space0
 70
     0
 10
0.0
 20
0.0
 30
0.0
  3
*Paper_Space0
  1

  0
ENDBLK
  5
25
330
23
100
AcDbEntity
  8
0
100
AcDbBlockEnd
  0
BLOCK
  5
97
330
96
100
AcDbEntity
  8
0
100
AcDbBlockBegin
  2
D1
 70
     0
 10
0.0
 20
0.0
 30
0.0
  3
D1
  1

  0
MTEXT
  5
99
330
96
100
AcDbEntity
  8
DIMENSIONS
100
AcDbMText
 10
27.43620491027827
 20
179.6453857421871
 30
0.0
 40
2.275416666666667
 41
0.0
 46
0.0
 71
     5
 72
     1
  1
{\fAlibre Symbols|b0|i0|c0|p0;n}{\fArial|b0|i0|c0|p0;120}{\fMS Shell Dlg|b0|i0|c0|p0;\H0.9444444x;}
 73
     1
 44
1.0
  0
MTEXT
  5
9A
330
96
100
AcDbEntity
  8
DIMENSIONS
100
AcDbMText
 10
27.43620491027827
 20
179.6453857421871
 30
0.0
 40
2.275416666666667
 41
0.0
 46
0.0
 71
     5
 72
     1
  1
{\fArial|b0|i0|c0|p0;}
 73
     1
 44
1.0
  0
MTEXT
  5
9B
330
96
100
AcDbEntity
  8
DIMENSIONS
100
AcDbMText
 10
27.43620491027827
 20
179.6453857421871
 30
0.0
 40
2.275416666666667
 41
0.0
 46
0.0
 71
     5
 72
     1
  1
{\fArial|b0|i0|c0|p0;}
 73
     1
 44
1.0
  0
LINE
  5
9C
330
96
100
AcDbEntity
  8
DIMENSIONS
100
AcDbLine
 10
32.36922106987394
 20
134.9085378751367
 30
0.0
 11
5.913722158181024
 21
157.107337254549
 31
0.0
  0
LINE
  5
9D
330
96
100
AcDbEntity
  8
DIMENSIONS
100
AcDbLine
 10
70.93647765106618
 20
180.8712044622754
 30
0.0
 11
44.48097873937327
 21
203.0700038416878
 31
0.0
  0
LWPOLYLINE
  5
9E
330
96
100
AcDbEntity
  8
DIMENSIONS
100
AcDbPolyline
 90
        4
 70
     0
 43
0.0
 10
7.445811044418981
 20
155.821762035176
 10
8.991151651919104
 20
158.4412891693762
 10
9.757196095038083
 20
157.7985015596896
 10
7.445811044418981
 20
155.821762035176
  0
LINE
  5
9F
330
96
100
AcDbEntity
  8
DIMENSIONS
100
AcDbLine
 10
9.374173873478597
 20
158.1198953645329
 30
0.0
 11
24.37453519232093
 21
175.9966298107469
 31
0.0
  0
LWPOLYLINE
  5
A0
330
96
100
AcDbEntity
  8
DIMENSIONS
100
AcDbPolyline
 90
        4
 70
     0
 43
0.0
 10
46.01306762561123
 20
201.7844286223147
 10
44.46772701811111
 20
199.1649014881145
 10
43.70168257499212
 20
199.8076890978011
 10
46.01306762561123
 20
201.7844286223147
  0
LINE
  5
A1
330
96
100
AcDbEntity
  8
DIMENSIONS
100
AcDbLine
 10
44.08470479655161
 20
199.4862952929578
 30
0.0
 11
30.49787473691664
 21
183.2941416342753
 31
0.0
  0
ENDBLK
  5
98
330
96
100
AcDbEntity
  8
0
100
AcDbBlockEnd
  0
BLOCK
  5
A4
330
A3
100
AcDbEntity
  8
0
100
AcDbBlockBegin
  2
D2
 70
     0
 10
0.0
 20
0.0
 30
0.0
  3
D2
  1

  0
MTEXT
  5
A6
330
A3
100
AcDbEntity
  8
DIMENSIONS
100
AcDbMText
 10
42.01399993896482
 20
178.6486053466793
 30
0.0
 40
2.275416666666667
 41
0.0
 46
0.0
 71
     5
 72
     1
  1
{\fAlibre Symbols|b0|i0|c0|p0;n}{\fArial|b0|i0|c0|p0;10}{\fMS Shell Dlg|b0|i0|c0|p0;\H0.9444444x;}
 73
     1
 44
1.0
  0
MTEXT
  5
A7
330
A3
100
AcDbEntity
  8
DIMENSIONS
100
AcDbMText
 10
42.01399993896482
 20
178.6486053466793
 30
0.0
 40
2.275416666666667
 41
0.0
 46
0.0
 71
     5
 72
     1
  1
{\fArial|b0|i0|c0|p0;}
 73
     1
 44
1.0
  0
MTEXT
  5
A8
330
A3
100
AcDbEntity
  8
DIMENSIONS
100
AcDbMText
 10
42.01399993896482
 20
178.6486053466793
 30
0.0
 40
2.275416666666667
 41
0.0
 46
0.0
 71
     5
 72
     1
  1
{\fArial|b0|i0|c0|p0;}
 73
     1
 44
1.0
  0
LINE
  5
A9
330
A3
100
AcDbEntity
  8
DIMENSIONS
100
AcDbLine
 10
36.57308311523602
 20
177.5427698442573
 30
0.0
 11
41.84255074714797
 21
181.9643781906953
 31
0.0
  0
LINE
  5
AA
330
A3
100
AcDbEntity
  8
DIMENSIONS
100
AcDbLine
 10
39.78702116366873
 20
173.7125476286624
 30
0.0
 11
45.05648879558068
 21
178.1341559751004
 31
0.0
  0
LWPOLYLINE
  5
AB
330
A3
100
AcDbEntity
  8
DIMENSIONS
100
AcDbPolyline
 90
        4
 70
     0
 43
0.0
 10
40.31046186091002
 20
180.6788029713222
 10
37.99907681029092
 20
182.6555424958358
 10
38.76512125340989
 20
183.2983301055224
 10
40.31046186091002
 20
180.6788029713222
  0
LINE
  5
AC
330
A3
100
AcDbEntity
  8
DIMENSIONS
100
AcDbLine
 10
38.3820990318504
 20
182.9769363006791
 30
0.0
 11
37.99642646603847
 21
183.4365629665505
 31
0.0
  0
LWPOLYLINE
  5
AD
330
A3
100
AcDbEntity
  8
DIMENSIONS
100
AcDbPolyline
 90
        4
 70
     0
 43
0.0
 10
43.52439990934273
 20
176.8485807557273
 10
45.83578495996183
 20
174.8718412312136
 10
45.06974051684286
 20
174.2290536215271
 10
43.52439990934273
 20
176.8485807557273
  0
LINE
  5
AE
330
A3
100
AcDbEntity
  8
DIMENSIONS
100
AcDbLine
 10
45.45276273840234
 20
174.5504474263704
 30
0.0
 11
45.83843530421426
 21
174.090820760499
 31
0.0
  0
ENDBLK
  5
A5
330
A3
100
AcDbEntity
  8
0
100
AcDbBlockEnd
  0
BLOCK
  5
B1
330
B0
100
AcDbEntity
  8
0
100
AcDbBlockBegin
  2
D3
 70
     0
 10
0.0
 20
0.0
 30
0.0
  3
D3
  1

  0
MTEXT
  5
B3
330
B0
100
AcDbEntity
  8
DIMENSIONS
100
AcDbMText
 10
51.80733309909573
 20
174.059834342176
 30
0.0
 40
2.275416666666667
 41
0.0
 46
0.0
 71
     5
 72
     1
  1
{\fArial|b0|i0|c0|p0;12}{\fMS Shell Dlg|b0|i0|c0|p0;\H0.9444444x;}
 73
     1
 44
1.0
  0
MTEXT
  5
B4
330
B0
100
AcDbEntity
  8
DIMENSIONS
100
AcDbMText
 10
51.80733309909573
 20
174.059834342176
 30
0.0
 40
2.275416666666667
 41
0.0
 46
0.0
 71
     5
 72
     1
  1
{\fArial|b0|i0|c0|p0;}
 73
     1
 44
1.0
  0
MTEXT
  5
B5
330
B0
100
AcDbEntity
  8
DIMENSIONS
100
AcDbMText
 10
51.80733309909573
 20
174.059834342176
 30
0.0
 40
2.275416666666667
 41
0.0
 46
0.0
 71
     5
 72
     1
  1
{\fArial|b0|i0|c0|p0;}
 73
     1
 44
1.0
  0
LINE
  5
B6
330
B0
100
AcDbEntity
  8
DIMENSIONS
100
AcDbLine
 10
54.96398821162053
 20
182.5083062340344
 30
0.0
 11
48.22304887536948
 21
174.4508670819141
 31
0.0
  0
LINE
  5
B7
330
B0
100
AcDbEntity
  8
DIMENSIONS
100
AcDbLine
 10
59.56588999240639
 20
178.6583062340344
 30
0.0
 11
52.82495065615534
 21
170.6008670819141
 31
0.0
  0
LWPOLYLINE
  5
B8
330
B0
100
AcDbEntity
  8
DIMENSIONS
100
AcDbPolyline
 90
        4
 70
     0
 43
0.0
 10
49.5063822087028
 20
175.984834342176
 10
46.88459798497654
 20
177.5263425271106
 10
47.52626465164321
 20
178.2933261572415
 10
49.5063822087028
 20
175.984834342176
  0
LINE
  5
B9
330
B0
100
AcDbEntity
  8
DIMENSIONS
100
AcDbLine
 10
47.20543131830988
 20
177.9098343421761
 30
0.0
 11
46.74524114023129
 21
178.294834342176
 31
0.0
  0
LWPOLYLINE
  5
BA
330
B0
100
AcDbEntity
  8
DIMENSIONS
100
AcDbPolyline
 90
        4
 70
     0
 43
0.0
 10
54.10828398948867
 20
172.134834342176
 10
56.73006821321493
 20
170.5933261572415
 10
56.08840154654825
 20
169.8263425271105
 10
54.10828398948867
 20
172.134834342176
  0
LINE
  5
BB
330
B0
100
AcDbEntity
  8
DIMENSIONS
100
AcDbLine
 10
56.40923487988159
 20
170.209834342176
 30
0.0
 11
56.86942505796018
 21
169.824834342176
 31
0.0
  0
ENDBLK
  5
B2
330
B0
100
AcDbEntity
  8
0
100
AcDbBlockEnd
  0
BLOCK
  5
BE
330
BD
100
AcDbEntity
  8
0
100
AcDbBlockBegin
  2
D4
 70
     0
 10
0.0
 20
0.0
 30
0.0
  3
D4
  1

  0
MTEXT
  5
C0
330
BD
100
AcDbEntity
  8
DIMENSIONS
100
AcDbMText
 10
53.83724154712684
 20
159.5459760894427
 30
0.0
 40
2.275416666666667
 41
0.0
 46
0.0
 71
     5
 72
     1
  1
{\fArial|b0|i0|c0|p0;12.041}{\fMS Shell Dlg|b0|i0|c0|p0;\H0.9444444x;}
 73
     1
 44
1.0
  0
MTEXT
  5
C1
330
BD
100
AcDbEntity
  8
DIMENSIONS
100
AcDbMText
 10
53.83724154712684
 20
159.5459760894427
 30
0.0
 40
2.275416666666667
 41
0.0
 46
0.0
 71
     5
 72
     1
  1
{\fArial|b0|i0|c0|p0;}
 73
     1
 44
1.0
  0
MTEXT
  5
C2
330
BD
100
AcDbEntity
  8
DIMENSIONS
100
AcDbMText
 10
53.83724154712684
 20
159.5459760894427
 30
0.0
 40
2.275416666666667
 41
0.0
 46
0.0
 71
     5
 72
     1
  1
{\fArial|b0|i0|c0|p0;}
 73
     1
 44
1.0
  0
LINE
  5
C3
330
BD
100
AcDbEntity
  8
DIMENSIONS
100
AcDbLine
 10
55.15486751424248
 20
156.2587837485193
 30
0.0
 11
55.28715071884555
 21
156.2355821737692
 31
0.0
  0
LINE
  5
C4
330
BD
100
AcDbEntity
  8
DIMENSIONS
100
AcDbLine
 10
56.19490770587399
 20
162.1885471782388
 30
0.0
 11
56.32719091047706
 21
162.1653456034887
 31
0.0
  0
LWPOLYLINE
  5
C5
330
BD
100
AcDbEntity
  8
DIMENSIONS
100
AcDbPolyline
 90
        4
 70
     0
 43
0.0
 10
53.31722145131108
 20
156.5810943745829
 10
53.29143546697413
 20
153.5398224230778
 10
52.3064708332069
 20
153.7125785234846
 10
53.31722145131108
 20
156.5810943745829
  0
LINE
  5
C6
330
BD
100
AcDbEntity
  8
DIMENSIONS
100
AcDbLine
 10
52.79895315009052
 20
153.6262004732812
 30
0.0
 11
52.69529948984641
 21
153.0352216930209
 31
0.0
  0
LWPOLYLINE
  5
C7
330
BD
100
AcDbEntity
  8
DIMENSIONS
100
AcDbPolyline
 90
        4
 70
     0
 43
0.0
 10
54.35726164294259
 20
162.5108578043024
 10
54.38304762727954
 20
165.5521297558076
 10
55.36801226104677
 20
165.3793736554007
 10
54.35726164294259
 20
162.5108578043024
  0
LINE
  5
C8
330
BD
100
AcDbEntity
  8
DIMENSIONS
100
AcDbLine
 10
54.87552994416315
 20
165.4657517056041
 30
0.0
 11
54.97918360440727
 21
166.0567304858645
 31
0.0
  0
ENDBLK
  5
BF
330
BD
100
AcDbEntity
  8
0
100
AcDbBlockEnd
  0
BLOCK
  5
CB
330
CA
100
AcDbEntity
  8
0
100
AcDbBlockBegin
  2
D5
 70
     0
 10
0.0
 20
0.0
 30
0.0
  3
D5
  1

  0
MTEXT
  5
CD
330
CA
100
AcDbEntity
  8
DIMENSIONS
100
AcDbMText
 10
59.70388269358302
 20
130.9485258062587
 30
0.0
 40
2.275416666666667
 41
0.0
 46
0.0
 71
     5
 72
     1
  1
{\fArial|b0|i0|c0|p0;47.75}{\fMS Shell Dlg|b0|i0|c0|p0;\H0.9444444x;}
 73
     1
 44
1.0
  0
MTEXT
  5
CE
330
CA
100
AcDbEntity
  8
DIMENSIONS
100
AcDbMText
 10
59.70388269358302
 20
130.9485258062587
 30
0.0
 40
2.275416666666667
 41
0.0
 46
0.0
 71
     5
 72
     1
  1
{\fArial|b0|i0|c0|p0;}
 73
     1
 44
1.0
  0
MTEXT
  5
CF
330
CA
100
AcDbEntity
  8
DIMENSIONS
100
AcDbMText
 10
59.70388269358302
 20
130.9485258062587
 30
0.0
 40
2.275416666666667
 41
0.0
 46
0.0
 71
     5
 72
     1
  1
{\fArial|b0|i0|c0|p0;}
 73
     1
 44
1.0
  0
LINE
  5
D0
330
CA
100
AcDbEntity
  8
DIMENSIONS
100
AcDbLine
 10
70.46057381792995
 20
136.291973304543
 30
0.0
 11
71.60226856723048
 21
133.1694084802851
 31
0.0
  0
LINE
  5
D1
330
CA
100
AcDbEntity
  8
DIMENSIONS
100
AcDbLine
 10
46.77883905214176
 20
131.5355788210215
 30
0.0
 11
49.17907271852311
 21
124.9708773355904
 31
0.0
  0
LWPOLYLINE
  5
D2
330
CA
100
AcDbEntity
  8
DIMENSIONS
100
AcDbPolyline
 90
        4
 70
     0
 43
0.0
 10
70.9154806179367
 20
135.0477913786061
 10
68.26960325777863
 20
133.5480137300851
 10
67.92620928313174
 20
134.4872051792456
 10
70.9154806179367
 20
135.0477913786061
  0
LINE
  5
D3
330
CA
100
AcDbEntity
  8
DIMENSIONS
100
AcDbLine
 10
68.09790627045518
 20
134.0176094546654
 30
0.0
 11
65.11004403309951
 21
132.925166770063
 31
0.0
  0
LWPOLYLINE
  5
D4
330
CA
100
AcDbEntity
  8
DIMENSIONS
100
AcDbPolyline
 90
        4
 70
     0
 43
0.0
 10
48.49228476922932
 20
126.8492602339114
 10
51.1381621293874
 20
128.3490378824323
 10
51.48155610403428
 20
127.4098464332718
 10
48.49228476922932
 20
126.8492602339114
  0
LINE
  5
D5
330
CA
100
AcDbEntity
  8
DIMENSIONS
100
AcDbLine
 10
51.30985911671084
 20
127.8794421578521
 30
0.0
 11
54.29772206011664
 21
128.9718873450127
 31
0.0
  0
ENDBLK
  5
CC
330
CA
100
AcDbEntity
  8
0
100
AcDbBlockEnd
  0
BLOCK
  5
D8
330
D7
100
AcDbEntity
  8
0
100
AcDbBlockBegin
  2
D6
 70
     0
 10
0.0
 20
0.0
 30
0.0
  3
D6
  1

  0
MTEXT
  5
DA
330
D7
100
AcDbEntity
  8
DIMENSIONS
100
AcDbMText
 10
44.38133621215817
 20
124.3245315551754
 30
0.0
 40
2.275416666666667
 41
0.0
 46
0.0
 71
     5
 72
     1
  1
{\fArial|b0|i0|c0|p0;7.33}{\fMS Shell Dlg|b0|i0|c0|p0;\H0.9444444x;}
 73
     1
 44
1.0
  0
MTEXT
  5
DB
330
D7
100
AcDbEntity
  8
DIMENSIONS
100
AcDbMText
 10
44.38133621215817
 20
124.3245315551754
 30
0.0
 40
2.275416666666667
 41
0.0
 46
0.0
 71
     5
 72
     1
  1
{\fArial|b0|i0|c0|p0;}
 73
     1
 44
1.0
  0
MTEXT
  5
DC
330
D7
100
AcDbEntity
  8
DIMENSIONS
100
AcDbMText
 10
44.38133621215817
 20
124.3245315551754
 30
0.0
 40
2.275416666666667
 41
0.0
 46
0.0
 71
     5
 72
     1
  1
{\fArial|b0|i0|c0|p0;}
 73
     1
 44
1.0
  0
LINE
  5
DD
330
D7
100
AcDbEntity
  8
DIMENSIONS
100
AcDbLine
 10
36.55911427209865
 20
124.3245327275923
 30
0.0
 11
39.55911427209865
 21
124.3245327275923
 31
0.0
  0
LINE
  5
DE
330
D7
100
AcDbEntity
  8
DIMENSIONS
100
AcDbLine
 10
44.21366820452696
 20
132.7271737700487
 30
0.0
 11
32.87339362679018
 21
128.580860508448
 31
0.0
  0
LINE
  5
DF
330
D7
100
AcDbEntity
  8
DIMENSIONS
100
AcDbLine
 10
41.12844666924072
 20
127.6968399761336
 30
0.0
 11
34.13193254387106
 21
125.1387238472747
 31
0.0
  0
LWPOLYLINE
  5
E0
330
D7
100
AcDbEntity
  8
DIMENSIONS
100
AcDbPolyline
 90
        4
 70
     0
 43
0.0
 10
34.75177652511118
 20
129.2676484577418
 10
33.25199887659025
 20
131.9135258178999
 10
34.19119032575075
 20
132.2569197925468
 10
34.75177652511118
 20
129.2676484577418
  0
LINE
  5
E1
330
D7
100
AcDbEntity
  8
DIMENSIONS
100
AcDbLine
 10
33.7215946011705
 20
132.0852228052233
 30
0.0
 11
33.51555821638237
 21
132.6487376747196
 31
0.0
  0
LWPOLYLINE
  5
E2
330
D7
100
AcDbEntity
  8
DIMENSIONS
100
AcDbPolyline
 90
        4
 70
     0
 43
0.0
 10
36.01031544219207
 20
125.8255117965685
 10
37.510093090713
 20
123.1796344364105
 10
36.5709016415525
 20
122.8362404617636
 10
36.01031544219207
 20
125.8255117965685
  0
LINE
  5
E3
330
D7
100
AcDbEntity
  8
DIMENSIONS
100
AcDbLine
 10
37.04049736613275
 20
123.007937449087
 30
0.0
 11
36.55911427209865
 21
124.3245327275923
 31
0.0
  0
ENDBLK
  5
D9
330
D7
100
AcDbEntity
  8
0
100
AcDbBlockEnd
  0
BLOCK
  5
E6
330
E5
100
AcDbEntity
  8
0
100
AcDbBlockBegin
  2
D7
 70
     0
 10
0.0
 20
0.0
 30
0.0
  3
D7
  1

  0
MTEXT
  5
E8
330
E5
100
AcDbEntity
  8
DIMENSIONS
100
AcDbMText
 10
80.38973236083982
 20
138.1547393798824
 30
0.0
 40
2.275416666666667
 41
0.0
 46
0.0
 71
     5
 72
     1
  1
{\fArial|b0|i0|c0|p0;8}{\fMS Shell Dlg|b0|i0|c0|p0;\H0.9444444x;}
 73
     1
 44
1.0
  0
MTEXT
  5
E9
330
E5
100
AcDbEntity
  8
DIMENSIONS
100
AcDbMText
 10
80.38973236083982
 20
138.1547393798824
 30
0.0
 40
2.275416666666667
 41
0.0
 46
0.0
 71
     5
 72
     1
  1
{\fArial|b0|i0|c0|p0;}
 73
     1
 44
1.0
  0
MTEXT
  5
EA
330
E5
100
AcDbEntity
  8
DIMENSIONS
100
AcDbMText
 10
80.38973236083982
 20
138.1547393798824
 30
0.0
 40
2.275416666666667
 41
0.0
 46
0.0
 71
     5
 72
     1
  1
{\fArial|b0|i0|c0|p0;}
 73
     1
 44
1.0
  0
LINE
  5
EB
330
E5
100
AcDbEntity
  8
DIMENSIONS
100
AcDbLine
 10
79.8524883095349
 20
139.7259130510119
 30
0.0
 11
81.10935120551385
 21
136.2883603511302
 31
0.0
  0
LINE
  5
EC
330
E5
100
AcDbEntity
  8
DIMENSIONS
100
AcDbLine
 10
76.09572251289296
 20
138.3523371524243
 30
0.0
 11
77.3525854088719
 21
134.9147844525427
 31
0.0
  0
LWPOLYLINE
  5
ED
330
E5
100
AcDbEntity
  8
DIMENSIONS
100
AcDbPolyline
 90
        4
 70
     0
 43
0.0
 10
80.42256325622006
 20
138.1667432494512
 10
83.06844061637813
 20
139.6665208979722
 10
83.41183459102501
 20
138.7273294488116
 10
80.42256325622006
 20
138.1667432494512
  0
LINE
  5
EE
330
E5
100
AcDbEntity
  8
DIMENSIONS
100
AcDbLine
 10
83.24013760370157
 20
139.1969251733919
 30
0.0
 11
83.80365247319787
 21
139.40296155818
 31
0.0
  0
LWPOLYLINE
  5
EF
330
E5
100
AcDbEntity
  8
DIMENSIONS
100
AcDbPolyline
 90
        4
 70
     0
 43
0.0
 10
76.6657974595781
 20
136.7931673508637
 10
74.01992009942003
 20
135.2933897023428
 10
73.67652612477315
 20
136.2325811515032
 10
76.6657974595781
 20
136.7931673508637
  0
LINE
  5
F0
330
E5
100
AcDbEntity
  8
DIMENSIONS
100
AcDbLine
 10
73.84822311209659
 20
135.762985426923
 30
0.0
 11
73.28470824260029
 21
135.5569490421348
 31
0.0
  0
ENDBLK
  5
E7
330
E5
100
AcDbEntity
  8
0
100
AcDbBlockEnd
  0
BLOCK
  5
F3
330
F2
100
AcDbEntity
  8
0
100
AcDbBlockBegin
  2
D8
 70
     0
 10
0.0
 20
0.0
 30
0.0
  3
D8
  1

  0
MTEXT
  5
F5
330
F2
100
AcDbEntity
  8
DIMENSIONS
100
AcDbMText
 10
61.94944381713865
 20
168.0579071044918
 30
0.0
 40
2.275416666666667
 41
0.0
 46
0.0
 71
     5
 72
     1
  1
{\fAlibre Symbols|b0|i0|c0|p0;n}{\fArial|b0|i0|c0|p0;12}{\fMS Shell Dlg|b0|i0|c0|p0;\H0.9444444x;}
 73
     1
 44
1.0
  0
MTEXT
  5
F6
330
F2
100
AcDbEntity
  8
DIMENSIONS
100
AcDbMText
 10
61.94944381713865
 20
168.0579071044918
 30
0.0
 40
2.275416666666667
 41
0.0
 46
0.0
 71
     5
 72
     1
  1
{\fArial|b0|i0|c0|p0;}
 73
     1
 44
1.0
  0
MTEXT
  5
F7
330
F2
100
AcDbEntity
  8
DIMENSIONS
100
AcDbMText
 10
61.94944381713865
 20
168.0579071044918
 30
0.0
 40
2.275416666666667
 41
0.0
 46
0.0
 71
     5
 72
     1
  1
{\fArial|b0|i0|c0|p0;}
 73
     1
 44
1.0
  0
LINE
  5
F8
330
F2
100
AcDbEntity
  8
DIMENSIONS
100
AcDbLine
 10
59.81660475164256
 20
165.4120320657331
 30
0.0
 11
58.5316913947976
 21
168.9423024996203
 31
0.0
  0
LINE
  5
F9
330
F2
100
AcDbEntity
  8
DIMENSIONS
100
AcDbLine
 10
65.454760476358
 20
167.4641529256872
 30
0.0
 11
64.16984711951304
 21
170.9944233595743
 31
0.0
  0
LWPOLYLINE
  5
FA
330
F2
100
AcDbEntity
  8
DIMENSIONS
100
AcDbPolyline
 90
        4
 70
     0
 43
0.0
 10
59.21573168144894
 20
167.0629172580485
 10
56.56766389075405
 20
165.5670105176785
 10
56.22564374742838
 20
166.5067031384644
 10
59.21573168144894
 20
167.0629172580485
  0
LINE
  5
FB
330
F2
100
AcDbEntity
  8
DIMENSIONS
100
AcDbLine
 10
56.39665381909121
 20
166.0368568280715
 30
0.0
 11
55.83283824661967
 21
165.8316447420761
 31
0.0
  0
LWPOLYLINE
  5
FC
330
F2
100
AcDbEntity
  8
DIMENSIONS
100
AcDbPolyline
 90
        4
 70
     0
 43
0.0
 10
64.85388740616438
 20
169.1150381180025
 10
67.50195519685927
 20
170.6109448583725
 10
67.84397534018494
 20
169.6712522375866
 10
64.85388740616438
 20
169.1150381180025
  0
LINE
  5
FD
330
F2
100
AcDbEntity
  8
DIMENSIONS
100
AcDbLine
 10
67.6729652685221
 20
170.1410985479795
 30
0.0
 11
68.23678084099365
 21
170.3463106339749
 31
0.0
  0
ENDBLK
  5
F4
330
F2
100
AcDbEntity
  8
0
100
AcDbBlockEnd
  0
BLOCK
  5
100
330
FF
100
AcDbEntity
  8
0
100
AcDbBlockBegin
  2
D9
 70
     0
 10
0.0
 20
0.0
 30
0.0
  3
D9
  1

  0
MTEXT
  5
102
330
FF
100
AcDbEntity
  8
DIMENSIONS
100
AcDbMText
 10
66.43492126464842
 20
156.2212371826168
 30
0.0
 40
2.275416666666667
 41
0.0
 46
0.0
 71
     5
 72
     1
  1
{\fArial|b0|i0|c0|p0;54}{\fMS Shell Dlg|b0|i0|c0|p0;\H0.9444444x;}
 73
     1
 44
1.0
  0
MTEXT
  5
103
330
FF
100
AcDbEntity
  8
DIMENSIONS
100
AcDbMText
 10
66.43492126464842
 20
156.2212371826168
 30
0.0
 40
2.275416666666667
 41
0.0
 46
0.0
 71
     5
 72
     1
  1
{\fArial|b0|i0|c0|p0;}
 73
     1
 44
1.0
  0
MTEXT
  5
104
330
FF
100
AcDbEntity
  8
DIMENSIONS
100
AcDbMText
 10
66.43492126464842
 20
156.2212371826168
 30
0.0
 40
2.275416666666667
 41
0.0
 46
0.0
 71
     5
 72
     1
  1
{\fArial|b0|i0|c0|p0;}
 73
     1
 44
1.0
  0
LINE
  5
105
330
FF
100
AcDbEntity
  8
DIMENSIONS
100
AcDbLine
 10
73.53055166527817
 20
139.5439321014516
 30
0.0
 11
70.77189343562574
 21
138.5352915148923
 31
0.0
  0
LINE
  5
106
330
FF
100
AcDbEntity
  8
DIMENSIONS
100
AcDbLine
 10
62.38053145149108
 20
164.2153132794914
 30
0.0
 11
65.25702191680159
 21
165.2670365408135
 31
0.0
  0
LWPOLYLINE
  5
107
330
FF
100
AcDbEntity
  8
DIMENSIONS
100
AcDbPolyline
 90
        4
 70
     0
 43
0.0
 10
72.65027633394675
 20
139.2220794641861
 10
71.15049868542582
 20
141.8679568243441
 10
72.08969013458632
 20
142.211350798991
 10
72.65027633394675
 20
139.2220794641861
  0
LINE
  5
108
330
FF
100
AcDbEntity
  8
DIMENSIONS
100
AcDbLine
 10
71.62009441000606
 20
142.0396538116676
 30
0.0
 11
67.70214273442849
 21
152.7553543102685
 31
0.0
  0
LWPOLYLINE
  5
109
330
FF
100
AcDbEntity
  8
DIMENSIONS
100
AcDbPolyline
 90
        4
 70
     0
 43
0.0
 10
63.37863901848058
 20
164.5802485915197
 10
64.87841666700153
 20
161.9343712313616
 10
63.93922521784102
 20
161.5909772567148
 10
63.37863901848058
 20
164.5802485915197
  0
LINE
  5
10A
330
FF
100
AcDbEntity
  8
DIMENSIONS
100
AcDbLine
 10
64.40882094242127
 20
161.7626742440382
 30
0.0
 11
65.16770014196791
 21
159.687120015613
 31
0.0
  0
ENDBLK
  5
101
330
FF
100
AcDbEntity
  8
0
100
AcDbBlockEnd
  0
BLOCK
  5
10D
330
10C
100
AcDbEntity
  8
0
100
AcDbBlockBegin
  2
D10
 70
     0
 10
0.0
 20
0.0
 30
0.0
  3
D10
  1

  0
MTEXT
  5
10F
330
10C
100
AcDbEntity
  8
DIMENSIONS
100
AcDbMText
 10
40.64343833923337
 20
154.3522949218747
 30
0.0
 40
2.275416666666667
 41
0.0
 46
0.0
 71
     5
 72
     1
  1
{\fAlibre Symbols|b0|i0|c0|p0;n}{\fArial|b0|i0|c0|p0;6.5}{\fMS Shell Dlg|b0|i0|c0|p0;\H0.9444444x;}
 73
     1
 44
1.0
  0
MTEXT
  5
110
330
10C
100
AcDbEntity
  8
DIMENSIONS
100
AcDbMText
 10
40.64343833923337
 20
154.3522949218747
 30
0.0
 40
2.275416666666667
 41
0.0
 46
0.0
 71
     5
 72
     1
  1
{\fArial|b0|i0|c0|p0;}
 73
     1
 44
1.0
  0
MTEXT
  5
111
330
10C
100
AcDbEntity
  8
DIMENSIONS
100
AcDbMText
 10
40.64343833923337
 20
154.3522949218747
 30
0.0
 40
2.275416666666667
 41
0.0
 46
0.0
 71
     5
 72
     1
  1
{\fArial|b0|i0|c0|p0;}
 73
     1
 44
1.0
  0
LINE
  5
112
330
10C
100
AcDbEntity
  8
DIMENSIONS
100
AcDbLine
 10
45.54320350445477
 20
152.9200834710144
 30
0.0
 11
38.64343833923337
 21
152.9200834710144
 31
0.0
  0
LINE
  5
113
330
10C
100
AcDbEntity
  8
DIMENSIONS
100
AcDbLine
 10
45.54320350445477
 20
156.1700834710144
 30
0.0
 11
38.64343833923337
 21
156.1700834710144
 31
0.0
  0
LWPOLYLINE
  5
114
330
10C
100
AcDbEntity
  8
DIMENSIONS
100
AcDbPolyline
 90
        4
 70
     0
 43
0.0
 10
40.64343833923337
 20
152.9200834710144
 10
41.14343833923337
 20
149.9200834710144
 10
40.14343833923337
 20
149.9200834710144
 10
40.64343833923337
 20
152.9200834710144
  0
LINE
  5
115
330
10C
100
AcDbEntity
  8
DIMENSIONS
100
AcDbLine
 10
40.64343833923337
 20
149.9200834710144
 30
0.0
 11
40.64343833923337
 21
149.3200834710144
 31
0.0
  0
LWPOLYLINE
  5
116
330
10C
100
AcDbEntity
  8
DIMENSIONS
100
AcDbPolyline
 90
        4
 70
     0
 43
0.0
 10
40.64343833923337
 20
156.1700834710144
 10
40.14343833923337
 20
159.1700834710144
 10
41.14343833923337
 20
159.1700834710144
 10
40.64343833923337
 20
156.1700834710144
  0
LINE
  5
117
330
10C
100
AcDbEntity
  8
DIMENSIONS
100
AcDbLine
 10
40.64343833923337
 20
159.1700834710144
 30
0.0
 11
40.64343833923337
 21
159.7700834710144
 31
0.0
  0
ENDBLK
  5
10E
330
10C
100
AcDbEntity
  8
0
100
AcDbBlockEnd
  0
BLOCK
  5
11A
330
119
100
AcDbEntity
  8
0
100
AcDbBlockBegin
  2
D11
 70
     0
 10
0.0
 20
0.0
 30
0.0
  3
D11
  1

  0
MTEXT
  5
11C
330
119
100
AcDbEntity
  8
DIMENSIONS
100
AcDbMText
 10
60.82807540893553
 20
147.9978637695309
 30
0.0
 40
2.275416666666667
 41
0.0
 46
0.0
 71
     5
 72
     1
  1
{\fAlibre Symbols|b0|i0|c0|p0;n}{\fArial|b0|i0|c0|p0;10.4}{\fMS Shell Dlg|b0|i0|c0|p0;\H0.9444444x;}
 73
     1
 44
1.0
  0
MTEXT
  5
11D
330
119
100
AcDbEntity
  8
DIMENSIONS
100
AcDbMText
 10
60.82807540893553
 20
147.9978637695309
 30
0.0
 40
2.275416666666667
 41
0.0
 46
0.0
 71
     5
 72
     1
  1
{\fArial|b0|i0|c0|p0;}
 73
     1
 44
1.0
  0
MTEXT
  5
11E
330
119
100
AcDbEntity
  8
DIMENSIONS
100
AcDbMText
 10
60.82807540893553
 20
147.9978637695309
 30
0.0
 40
2.275416666666667
 41
0.0
 46
0.0
 71
     5
 72
     1
  1
{\fArial|b0|i0|c0|p0;}
 73
     1
 44
1.0
  0
LINE
  5
11F
330
119
100
AcDbEntity
  8
DIMENSIONS
100
AcDbLine
 10
61.03090581730262
 20
152.3242543807574
 30
0.0
 11
63.85358030321917
 21
147.4352387579216
 31
0.0
  0
LINE
  5
120
330
119
100
AcDbEntity
  8
DIMENSIONS
100
AcDbLine
 10
56.52757371762354
 20
149.7242543807574
 30
0.0
 11
59.35024820354009
 21
144.8352387579216
 31
0.0
  0
LWPOLYLINE
  5
121
330
119
100
AcDbEntity
  8
DIMENSIONS
100
AcDbPolyline
 90
        4
 70
     0
 43
0.0
 10
62.85358030321917
 20
149.1672895654905
 10
65.20165651457248
 20
151.1003022673827
 10
65.70165651457248
 20
150.2342768635983
 10
62.85358030321917
 20
149.1672895654905
  0
LINE
  5
122
330
119
100
AcDbEntity
  8
DIMENSIONS
100
AcDbLine
 10
65.45165651457248
 20
150.6672895654905
 30
0.0
 11
65.97127175684315
 21
150.9672895654905
 31
0.0
  0
LWPOLYLINE
  5
123
330
119
100
AcDbEntity
  8
DIMENSIONS
100
AcDbPolyline
 90
        4
 70
     0
 43
0.0
 10
58.35024820354009
 20
146.5672895654905
 10
56.00217199218677
 20
144.6342768635982
 10
55.50217199218677
 20
145.5003022673827
 10
58.35024820354009
 20
146.5672895654905
  0
LINE
  5
124
330
119
100
AcDbEntity
  8
DIMENSIONS
100
AcDbLine
 10
55.75217199218677
 20
145.0672895654905
 30
0.0
 11
55.23255674991611
 21
144.7672895654905
 31
0.0
  0
ENDBLK
  5
11B
330
119
100
AcDbEntity
  8
0
100
AcDbBlockEnd
  0
BLOCK
  5
127
330
126
100
AcDbEntity
  8
0
100
AcDbBlockBegin
  2
D12
 70
     0
 10
0.0
 20
0.0
 30
0.0
  3
D12
  1

  0
MTEXT
  5
129
330
126
100
AcDbEntity
  8
DIMENSIONS
100
AcDbMText
 10
91.35422515869138
 20
167.5595245361325
 30
0.0
 40
2.275416666666667
 41
0.0
 46
0.0
 71
     5
 72
     1
  1
{\fArial|b0|i0|c0|p0;18.5}{\fMS Shell Dlg|b0|i0|c0|p0;\H0.9444444x;}
 73
     1
 44
1.0
  0
MTEXT
  5
12A
330
126
100
AcDbEntity
  8
DIMENSIONS
100
AcDbMText
 10
91.35422515869138
 20
167.5595245361325
 30
0.0
 40
2.275416666666667
 41
0.0
 46
0.0
 71
     5
 72
     1
  1
{\fArial|b0|i0|c0|p0;}
 73
     1
 44
1.0
  0
MTEXT
  5
12B
330
126
100
AcDbEntity
  8
DIMENSIONS
100
AcDbMText
 10
91.35422515869138
 20
167.5595245361325
 30
0.0
 40
2.275416666666667
 41
0.0
 46
0.0
 71
     5
 72
     1
  1
{\fArial|b0|i0|c0|p0;}
 73
     1
 44
1.0
  0
LINE
  5
12C
330
126
100
AcDbEntity
  8
DIMENSIONS
100
AcDbLine
 10
83.53200178812037
 20
167.559524754875
 30
0.0
 11
86.53200178812037
 21
167.559524754875
 31
0.0
  0
LINE
  5
12D
330
126
100
AcDbEntity
  8
DIMENSIONS
100
AcDbLine
 10
53.87172619600179
 20
154.725913051012
 30
0.0
 11
53.91703412947842
 21
154.6019946749131
 31
0.0
  0
LINE
  5
12E
330
126
100
AcDbEntity
  8
DIMENSIONS
100
AcDbLine
 10
61.18893650246385
 20
161.6501424318766
 30
0.0
 11
62.60455503421327
 21
157.7783889403969
 31
0.0
  0
LWPOLYLINE
  5
12F
330
126
100
AcDbEntity
  8
DIMENSIONS
100
AcDbPolyline
 90
        4
 70
     0
 43
0.0
 10
53.23024618018465
 20
156.4803775732341
 10
55.87612354034272
 20
157.980155221755
 10
56.21951751498961
 20
157.0409637725946
 10
53.23024618018465
 20
156.4803775732341
  0
LINE
  5
130
330
126
100
AcDbEntity
  8
DIMENSIONS
100
AcDbLine
 10
56.04782052766616
 20
157.5105594971748
 30
0.0
 11
59.10019273743797
 21
158.6265899147773
 31
0.0
  0
LWPOLYLINE
  5
131
330
126
100
AcDbEntity
  8
DIMENSIONS
100
AcDbPolyline
 90
        4
 70
     0
 43
0.0
 10
61.91776708491949
 20
159.6567718387179
 10
59.27188972476142
 20
158.156994190197
 10
58.92849575011452
 20
159.0961856393575
 10
61.91776708491949
 20
159.6567718387179
  0
LINE
  5
132
330
126
100
AcDbEntity
  8
DIMENSIONS
100
AcDbLine
 10
61.91776708491949
 20
159.6567718387179
 30
0.0
 11
83.53200178812037
 21
167.559524754875
 31
0.0
  0
ENDBLK
  5
128
330
126
100
AcDbEntity
  8
0
100
AcDbBlockEnd
  0
BLOCK
  5
135
330
134
100
AcDbEntity
  8
0
100
AcDbBlockBegin
  2
D13
 70
     0
 10
0.0
 20
0.0
 30
0.0
  3
D13
  1

  0
MTEXT
  5
137
330
134
100
AcDbEntity
  8
DIMENSIONS
100
AcDbMText
 10
48.96811471938781
 20
145.214168111475
 30
0.0
 40
2.275416666666667
 41
0.0
 46
0.0
 71
     5
 72
     1
  1
{\fArial|b0|i0|c0|p0;48.502}{\fMS Shell Dlg|b0|i0|c0|p0;\H0.9444444x;}
 73
     1
 44
1.0
  0
MTEXT
  5
138
330
134
100
AcDbEntity
  8
DIMENSIONS
100
AcDbMText
 10
48.96811471938781
 20
145.214168111475
 30
0.0
 40
2.275416666666667
 41
0.0
 46
0.0
 71
     5
 72
     1
  1
{\fArial|b0|i0|c0|p0;}
 73
     1
 44
1.0
  0
MTEXT
  5
139
330
134
100
AcDbEntity
  8
DIMENSIONS
100
AcDbMText
 10
48.96811471938781
 20
145.214168111475
 30
0.0
 40
2.275416666666667
 41
0.0
 46
0.0
 71
     5
 72
     1
  1
{\fArial|b0|i0|c0|p0;}
 73
     1
 44
1.0
  0
LINE
  5
13A
330
134
100
AcDbEntity
  8
DIMENSIONS
100
AcDbLine
 10
51.2723953975287
 20
157.1892573583619
 30
0.0
 11
50.60201544213851
 21
157.3942966354991
 31
0.0
  0
LINE
  5
13B
330
134
100
AcDbEntity
  8
DIMENSIONS
100
AcDbLine
 10
44.17950825366864
 20
133.9989231283714
 30
0.0
 11
43.50912829827845
 21
134.2039624055086
 31
0.0
  0
LWPOLYLINE
  5
13C
330
134
100
AcDbEntity
  8
DIMENSIONS
100
AcDbPolyline
 90
        4
 70
     0
 43
0.0
 10
52.51455829131783
 20
156.8093352264702
 10
52.11525189006937
 20
153.794280600444
 10
51.15898046547971
 20
154.0867613049585
 10
52.51455829131783
 20
156.8093352264702
  0
LINE
  5
13D
330
134
100
AcDbEntity
  8
DIMENSIONS
100
AcDbLine
 10
51.63711617777454
 20
153.9405209527013
 30
0.0
 11
50.03862165906492
 21
148.7142112364266
 31
0.0
  0
LWPOLYLINE
  5
13E
330
134
100
AcDbEntity
  8
DIMENSIONS
100
AcDbPolyline
 90
        4
 70
     0
 43
0.0
 10
45.42167114745777
 20
133.6190009964797
 10
45.82097754870624
 20
136.6340556225059
 10
46.7772489732959
 20
136.3415749179915
 10
45.42167114745777
 20
133.6190009964797
  0
LINE
  5
13F
330
134
100
AcDbEntity
  8
DIMENSIONS
100
AcDbLine
 10
46.29911326100107
 20
136.4878152702487
 30
0.0
 11
47.89760822550133
 21
141.71412558297
 31
0.0
  0
ENDBLK
  5
136
330
134
100
AcDbEntity
  8
0
100
AcDbBlockEnd
  0
BLOCK
  5
142
330
141
100
AcDbEntity
  8
0
100
AcDbBlockBegin
  2
D14
 70
     0
 10
0.0
 20
0.0
 30
0.0
  3
D14
  1

  0
MTEXT
  5
144
330
141
100
AcDbEntity
  8
DIMENSIONS
100
AcDbMText
 10
41.99768374349286
 20
187.4889149680125
 30
0.0
 40
2.275416666666667
 41
0.0
 46
0.0
 71
     5
 72
     1
  1
{\fArial|b0|i0|c0|p0;15}{\fMS Shell Dlg|b0|i0|c0|p0;\H0.9444444x;}
 73
     1
 44
1.0
  0
MTEXT
  5
145
330
141
100
AcDbEntity
  8
DIMENSIONS
100
AcDbMText
 10
41.99768374349286
 20
187.4889149680125
 30
0.0
 40
2.275416666666667
 41
0.0
 46
0.0
 71
     5
 72
     1
  1
{\fArial|b0|i0|c0|p0;}
 73
     1
 44
1.0
  0
MTEXT
  5
146
330
141
100
AcDbEntity
  8
DIMENSIONS
100
AcDbMText
 10
41.99768374349286
 20
187.4889149680125
 30
0.0
 40
2.275416666666667
 41
0.0
 46
0.0
 71
     5
 72
     1
  1
{\fArial|b0|i0|c0|p0;}
 73
     1
 44
1.0
  0
LINE
  5
147
330
141
100
AcDbEntity
  8
DIMENSIONS
100
AcDbLine
 10
39.89119692745058
 20
184.3619412854538
 30
0.0
 11
41.12540100375481
 21
183.329393021688
 31
0.0
  0
LINE
  5
148
330
141
100
AcDbEntity
  8
DIMENSIONS
100
AcDbLine
 10
44.70369692745058
 20
190.1143185114362
 30
0.0
 11
45.93790100375481
 21
189.0817702476704
 31
0.0
  0
LWPOLYLINE
  5
149
330
141
100
AcDbEntity
  8
DIMENSIONS
100
AcDbPolyline
 90
        4
 70
     0
 43
0.0
 10
39.59143374349285
 20
184.6127263550213
 10
41.13294192842736
 20
187.2345105787476
 10
41.89992555855834
 20
186.5928439120809
 10
39.59143374349285
 20
184.6127263550213
  0
LINE
  5
14A
330
141
100
AcDbEntity
  8
DIMENSIONS
100
AcDbLine
 10
41.51643374349285
 20
186.9136772454142
 30
0.0
 11
41.51643374349285
 21
186.9136772454142
 31
0.0
  0
LWPOLYLINE
  5
14B
330
141
100
AcDbEntity
  8
DIMENSIONS
100
AcDbPolyline
 90
        4
 70
     0
 43
0.0
 10
44.40393374349286
 20
190.3651035810037
 10
42.86242555855835
 20
187.7433193572774
 10
42.09544192842738
 20
188.3849860239441
 10
44.40393374349286
 20
190.3651035810037
  0
LINE
  5
14C
330
141
100
AcDbEntity
  8
DIMENSIONS
100
AcDbLine
 10
42.47893374349286
 20
188.0641526906107
 30
0.0
 11
42.47893374349286
 21
188.0641526906107
 31
0.0
  0
ENDBLK
  5
143
330
141
100
AcDbEntity
  8
0
100
AcDbBlockEnd
  0
BLOCK
  5
195
330
194
100
AcDbEntity
  8
0
100
AcDbBlockBegin
  2
D15
 70
     0
 10
0.0
 20
0.0
 30
0.0
  3
D15
  1

  0
MTEXT
  5
197
330
194
100
AcDbEntity
  8
DIMENSIONS
100
AcDbMText
 10
131.5557327270504
 20
156.2234497070309
 30
0.0
 40
2.275416666666667
 41
0.0
 46
0.0
 71
     5
 72
     1
  1
{\fArial|b0|i0|c0|p0;40}{\fMS Shell Dlg|b0|i0|c0|p0;\H0.9444444x;}
 73
     1
 44
1.0
  0
MTEXT
  5
198
330
194
100
AcDbEntity
  8
DIMENSIONS
100
AcDbMText
 10
131.5557327270504
 20
156.2234497070309
 30
0.0
 40
2.275416666666667
 41
0.0
 46
0.0
 71
     5
 72
     1
  1
{\fArial|b0|i0|c0|p0;}
 73
     1
 44
1.0
  0
MTEXT
  5
199
330
194
100
AcDbEntity
  8
DIMENSIONS
100
AcDbMText
 10
131.5557327270504
 20
156.2234497070309
 30
0.0
 40
2.275416666666667
 41
0.0
 46
0.0
 71
     5
 72
     1
  1
{\fArial|b0|i0|c0|p0;}
 73
     1
 44
1.0
  0
LINE
  5
19A
330
194
100
AcDbEntity
  8
DIMENSIONS
100
AcDbLine
 10
141.1452510833736
 20
166.604295949333
 30
0.0
 11
129.5557327270504
 21
166.604295949333
 31
0.0
  0
LINE
  5
19B
330
194
100
AcDbEntity
  8
DIMENSIONS
100
AcDbLine
 10
141.1452510833736
 20
146.604295949333
 30
0.0
 11
129.5557327270504
 21
146.604295949333
 31
0.0
  0
LWPOLYLINE
  5
19C
330
194
100
AcDbEntity
  8
DIMENSIONS
100
AcDbPolyline
 90
        4
 70
     0
 43
0.0
 10
131.5557327270504
 20
166.604295949333
 10
132.0557327270504
 20
163.604295949333
 10
131.0557327270504
 20
163.604295949333
 10
131.5557327270504
 20
166.604295949333
  0
LINE
  5
19D
330
194
100
AcDbEntity
  8
DIMENSIONS
100
AcDbLine
 10
131.5557327270504
 20
163.604295949333
 30
0.0
 11
131.5557333946224
 21
159.810949663513
 31
0.0
  0
LWPOLYLINE
  5
19E
330
194
100
AcDbEntity
  8
DIMENSIONS
100
AcDbPolyline
 90
        4
 70
     0
 43
0.0
 10
131.5557327270504
 20
146.604295949333
 10
131.0557327270504
 20
149.604295949333
 10
132.0557327270504
 20
149.604295949333
 10
131.5557327270504
 20
146.604295949333
  0
LINE
  5
19F
330
194
100
AcDbEntity
  8
DIMENSIONS
100
AcDbLine
 10
131.5557327270504
 20
149.604295949333
 30
0.0
 11
131.5557333946224
 21
152.6359497111967
 31
0.0
  0
ENDBLK
  5
196
330
194
100
AcDbEntity
  8
0
100
AcDbBlockEnd
  0
BLOCK
  5
1A2
330
1A1
100
AcDbEntity
  8
0
100
AcDbBlockBegin
  2
D16
 70
     0
 10
0.0
 20
0.0
 30
0.0
  3
D16
  1

  0
MTEXT
  5
1A4
330
1A1
100
AcDbEntity
  8
DIMENSIONS
100
AcDbMText
 10
148.7202510833736
 20
161.7230834960934
 30
0.0
 40
2.275416666666667
 41
0.0
 46
0.0
 71
     5
 72
     1
  1
{\fArial|b0|i0|c0|p0;22.3}{\fMS Shell Dlg|b0|i0|c0|p0;\H0.9444444x;}
 73
     1
 44
1.0
  0
MTEXT
  5
1A5
330
1A1
100
AcDbEntity
  8
DIMENSIONS
100
AcDbMText
 10
148.7202510833736
 20
161.7230834960934
 30
0.0
 40
2.275416666666667
 41
0.0
 46
0.0
 71
     5
 72
     1
  1
{\fArial|b0|i0|c0|p0;}
 73
     1
 44
1.0
  0
MTEXT
  5
1A6
330
1A1
100
AcDbEntity
  8
DIMENSIONS
100
AcDbMText
 10
148.7202510833736
 20
161.7230834960934
 30
0.0
 40
2.275416666666667
 41
0.0
 46
0.0
 71
     5
 72
     1
  1
{\fArial|b0|i0|c0|p0;}
 73
     1
 44
1.0
  0
LINE
  5
1A7
330
1A1
100
AcDbEntity
  8
DIMENSIONS
100
AcDbLine
 10
154.2952510833736
 20
153.4549023624686
 30
0.0
 11
154.2952510833736
 21
163.7230834960934
 31
0.0
  0
LINE
  5
1A8
330
1A1
100
AcDbEntity
  8
DIMENSIONS
100
AcDbLine
 10
143.1452510833736
 20
164.604295949333
 30
0.0
 11
143.1452510833736
 21
159.7230834960934
 31
0.0
  0
LWPOLYLINE
  5
1A9
330
1A1
100
AcDbEntity
  8
DIMENSIONS
100
AcDbPolyline
 90
        4
 70
     0
 43
0.0
 10
154.2952510833736
 20
161.7230834960934
 10
151.2952510833736
 20
161.2230834960934
 10
151.2952510833736
 20
162.2230834960934
 10
154.2952510833736
 20
161.7230834960934
  0
LINE
  5
1AA
330
1A1
100
AcDbEntity
  8
DIMENSIONS
100
AcDbLine
 10
151.2952510833736
 20
161.7230834960934
 30
0.0
 11
151.2952510833736
 21
161.7230834960934
 31
0.0
  0
LWPOLYLINE
  5
1AB
330
1A1
100
AcDbEntity
  8
DIMENSIONS
100
AcDbPolyline
 90
        4
 70
     0
 43
0.0
 10
143.1452510833736
 20
161.7230834960934
 10
146.1452510833736
 20
162.2230834960934
 10
146.1452510833736
 20
161.2230834960934
 10
143.1452510833736
 20
161.7230834960934
  0
LINE
  5
1AC
330
1A1
100
AcDbEntity
  8
DIMENSIONS
100
AcDbLine
 10
146.1452510833736
 20
161.7230834960934
 30
0.0
 11
146.1452510833736
 21
161.7230834960934
 31
0.0
  0
ENDBLK
  5
1A3
330
1A1
100
AcDbEntity
  8
0
100
AcDbBlockEnd
  0
BLOCK
  5
1AF
330
1AE
100
AcDbEntity
  8
0
100
AcDbBlockBegin
  2
D17
 70
     0
 10
0.0
 20
0.0
 30
0.0
  3
D17
  1

  0
MTEXT
  5
1B1
330
1AE
100
AcDbEntity
  8
DIMENSIONS
100
AcDbMText
 10
148.7952510833736
 20
173.1019592285153
 30
0.0
 40
2.275416666666667
 41
0.0
 46
0.0
 71
     5
 72
     1
  1
{\fArial|b0|i0|c0|p0;22}{\fMS Shell Dlg|b0|i0|c0|p0;\H0.9444444x;}
 73
     1
 44
1.0
  0
MTEXT
  5
1B2
330
1AE
100
AcDbEntity
  8
DIMENSIONS
100
AcDbMText
 10
148.7952510833736
 20
173.1019592285153
 30
0.0
 40
2.275416666666667
 41
0.0
 46
0.0
 71
     5
 72
     1
  1
{\fArial|b0|i0|c0|p0;}
 73
     1
 44
1.0
  0
MTEXT
  5
1B3
330
1AE
100
AcDbEntity
  8
DIMENSIONS
100
AcDbMText
 10
148.7952510833736
 20
173.1019592285153
 30
0.0
 40
2.275416666666667
 41
0.0
 46
0.0
 71
     5
 72
     1
  1
{\fArial|b0|i0|c0|p0;}
 73
     1
 44
1.0
  0
LINE
  5
1B4
330
1AE
100
AcDbEntity
  8
DIMENSIONS
100
AcDbLine
 10
143.2952510833736
 20
177.5291306399054
 30
0.0
 11
143.2952510833736
 21
171.1019592285153
 31
0.0
  0
LINE
  5
1B5
330
1AE
100
AcDbEntity
  8
DIMENSIONS
100
AcDbLine
 10
154.2952510833736
 20
177.5291306399054
 30
0.0
 11
154.2952510833736
 21
171.1019592285153
 31
0.0
  0
LWPOLYLINE
  5
1B6
330
1AE
100
AcDbEntity
  8
DIMENSIONS
100
AcDbPolyline
 90
        4
 70
     0
 43
0.0
 10
143.2952510833736
 20
173.1019592285153
 10
146.2952510833736
 20
173.6019592285153
 10
146.2952510833736
 20
172.6019592285153
 10
143.2952510833736
 20
173.1019592285153
  0
LINE
  5
1B7
330
1AE
100
AcDbEntity
  8
DIMENSIONS
100
AcDbLine
 10
146.2952510833736
 20
173.1019592285153
 30
0.0
 11
146.2952510833736
 21
173.1019592285153
 31
0.0
  0
LWPOLYLINE
  5
1B8
330
1AE
100
AcDbEntity
  8
DIMENSIONS
100
AcDbPolyline
 90
        4
 70
     0
 43
0.0
 10
154.2952510833736
 20
173.1019592285153
 10
151.2952510833736
 20
172.6019592285153
 10
151.2952510833736
 20
173.6019592285153
 10
154.2952510833736
 20
173.1019592285153
  0
LINE
  5
1B9
330
1AE
100
AcDbEntity
  8
DIMENSIONS
100
AcDbLine
 10
151.2952510833736
 20
173.1019592285153
 30
0.0
 11
151.2952510833736
 21
173.1019592285153
 31
0.0
  0
ENDBLK
  5
1B0
330
1AE
100
AcDbEntity
  8
0
100
AcDbBlockEnd
  0
BLOCK
  5
1BC
330
1BB
100
AcDbEntity
  8
0
100
AcDbBlockBegin
  2
D18
 70
     0
 10
0.0
 20
0.0
 30
0.0
  3
D18
  1

  0
MTEXT
  5
1BE
330
1BB
100
AcDbEntity
  8
DIMENSIONS
100
AcDbMText
 10
161.104095458984
 20
182.1013488769528
 30
0.0
 40
2.275416666666667
 41
0.0
 46
0.0
 71
     5
 72
     1
  1
{\fArial|b0|i0|c0|p0;5.5}{\fMS Shell Dlg|b0|i0|c0|p0;\H0.9444444x;}
 73
     1
 44
1.0
  0
MTEXT
  5
1BF
330
1BB
100
AcDbEntity
  8
DIMENSIONS
100
AcDbMText
 10
161.104095458984
 20
182.1013488769528
 30
0.0
 40
2.275416666666667
 41
0.0
 46
0.0
 71
     5
 72
     1
  1
{\fArial|b0|i0|c0|p0;}
 73
     1
 44
1.0
  0
MTEXT
  5
1C0
330
1BB
100
AcDbEntity
  8
DIMENSIONS
100
AcDbMText
 10
161.104095458984
 20
182.1013488769528
 30
0.0
 40
2.275416666666667
 41
0.0
 46
0.0
 71
     5
 72
     1
  1
{\fArial|b0|i0|c0|p0;}
 73
     1
 44
1.0
  0
LINE
  5
1C1
330
1BB
100
AcDbEntity
  8
DIMENSIONS
100
AcDbLine
 10
157.1638177752491
 20
182.1013486188581
 30
0.0
 11
157.1638177752491
 21
182.1013486188581
 31
0.0
  0
LINE
  5
1C2
330
1BB
100
AcDbEntity
  8
DIMENSIONS
100
AcDbLine
 10
151.5452510833736
 20
182.345059878008
 30
0.0
 11
151.5452510833736
 21
184.1013488769528
 31
0.0
  0
LINE
  5
1C3
330
1BB
100
AcDbEntity
  8
DIMENSIONS
100
AcDbLine
 10
154.2952510833736
 20
181.5291306399054
 30
0.0
 11
154.2952510833736
 21
184.1013488769528
 31
0.0
  0
LWPOLYLINE
  5
1C4
330
1BB
100
AcDbEntity
  8
DIMENSIONS
100
AcDbPolyline
 90
        4
 70
     0
 43
0.0
 10
151.5452510833736
 20
182.1013488769528
 10
148.5452510833736
 20
181.6013488769528
 10
148.5452510833736
 20
182.6013488769528
 10
151.5452510833736
 20
182.1013488769528
  0
LINE
  5
1C5
330
1BB
100
AcDbEntity
  8
DIMENSIONS
100
AcDbLine
 10
148.5452510833736
 20
182.1013488769528
 30
0.0
 11
147.9452510833736
 21
182.1013488769528
 31
0.0
  0
LWPOLYLINE
  5
1C6
330
1BB
100
AcDbEntity
  8
DIMENSIONS
100
AcDbPolyline
 90
        4
 70
     0
 43
0.0
 10
154.2952510833736
 20
182.1013488769528
 10
157.2952510833736
 20
182.6013488769528
 10
157.2952510833736
 20
181.6013488769528
 10
154.2952510833736
 20
182.1013488769528
  0
LINE
  5
1C7
330
1BB
100
AcDbEntity
  8
DIMENSIONS
100
AcDbLine
 10
157.2952510833736
 20
182.1013488769528
 30
0.0
 11
157.1638177752491
 21
182.1013486188581
 31
0.0
  0
ENDBLK
  5
1BD
330
1BB
100
AcDbEntity
  8
0
100
AcDbBlockEnd
  0
BLOCK
  5
1CA
330
1C9
100
AcDbEntity
  8
0
100
AcDbBlockBegin
  2
D19
 70
     0
 10
0.0
 20
0.0
 30
0.0
  3
D19
  1

  0
MTEXT
  5
1CC
330
1C9
100
AcDbEntity
  8
DIMENSIONS
100
AcDbMText
 10
137.3375701904293
 20
179.1305389404293
 30
0.0
 40
2.275416666666667
 41
0.0
 46
0.0
 71
     5
 72
     1
  1
{\fArial|b0|i0|c0|p0;11.5}{\fMS Shell Dlg|b0|i0|c0|p0;\H0.9444444x;}
 73
     1
 44
1.0
  0
MTEXT
  5
1CD
330
1C9
100
AcDbEntity
  8
DIMENSIONS
100
AcDbMText
 10
137.3375701904293
 20
179.1305389404293
 30
0.0
 40
2.275416666666667
 41
0.0
 46
0.0
 71
     5
 72
     1
  1
{\fArial|b0|i0|c0|p0;}
 73
     1
 44
1.0
  0
MTEXT
  5
1CE
330
1C9
100
AcDbEntity
  8
DIMENSIONS
100
AcDbMText
 10
137.3375701904293
 20
179.1305389404293
 30
0.0
 40
2.275416666666667
 41
0.0
 46
0.0
 71
     5
 72
     1
  1
{\fArial|b0|i0|c0|p0;}
 73
     1
 44
1.0
  0
LINE
  5
1CF
330
1C9
100
AcDbEntity
  8
DIMENSIONS
100
AcDbLine
 10
142.1597926139827
 20
179.1305386823347
 30
0.0
 11
142.1597926139827
 21
179.1305386823347
 31
0.0
  0
LINE
  5
1D0
330
1C9
100
AcDbEntity
  8
DIMENSIONS
100
AcDbLine
 10
151.5452510833736
 20
178.345059878008
 30
0.0
 11
151.5452510833736
 21
177.1305389404293
 31
0.0
  0
LINE
  5
1D1
330
1C9
100
AcDbEntity
  8
DIMENSIONS
100
AcDbLine
 10
145.7952510833736
 20
178.345059878008
 30
0.0
 11
145.7952510833736
 21
177.1305389404293
 31
0.0
  0
LWPOLYLINE
  5
1D2
330
1C9
100
AcDbEntity
  8
DIMENSIONS
100
AcDbPolyline
 90
        4
 70
     0
 43
0.0
 10
151.5452510833736
 20
179.1305389404293
 10
154.5452510833736
 20
179.6305389404293
 10
154.5452510833736
 20
178.6305389404293
 10
151.5452510833736
 20
179.1305389404293
  0
LINE
  5
1D3
330
1C9
100
AcDbEntity
  8
DIMENSIONS
100
AcDbLine
 10
154.5452510833736
 20
179.1305389404293
 30
0.0
 11
155.1452510833736
 21
179.1305389404293
 31
0.0
  0
LWPOLYLINE
  5
1D4
330
1C9
100
AcDbEntity
  8
DIMENSIONS
100
AcDbPolyline
 90
        4
 70
     0
 43
0.0
 10
145.7952510833736
 20
179.1305389404293
 10
142.7952510833736
 20
178.6305389404293
 10
142.7952510833736
 20
179.6305389404293
 10
145.7952510833736
 20
179.1305389404293
  0
LINE
  5
1D5
330
1C9
100
AcDbEntity
  8
DIMENSIONS
100
AcDbLine
 10
142.7952510833736
 20
179.1305389404293
 30
0.0
 11
142.1597926139827
 21
179.1305386823347
 31
0.0
  0
ENDBLK
  5
1CB
330
1C9
100
AcDbEntity
  8
0
100
AcDbBlockEnd
  0
BLOCK
  5
1D8
330
1D7
100
AcDbEntity
  8
0
100
AcDbBlockBegin
  2
D20
 70
     0
 10
0.0
 20
0.0
 30
0.0
  3
D20
  1

  0
MTEXT
  5
1DA
330
1D7
100
AcDbEntity
  8
DIMENSIONS
100
AcDbMText
 10
159.5020904541016
 20
134.5685882568359
 30
0.0
 40
2.275416666666667
 41
0.0
 46
0.0
 71
     5
 72
     1
  1
{\fArial|b0|i0|c0|p0;6}{\fMS Shell Dlg|b0|i0|c0|p0;\H0.9444444x;}
 73
     1
 44
1.0
  0
MTEXT
  5
1DB
330
1D7
100
AcDbEntity
  8
DIMENSIONS
100
AcDbMText
 10
159.5020904541016
 20
134.5685882568359
 30
0.0
 40
2.275416666666667
 41
0.0
 46
0.0
 71
     5
 72
     1
  1
{\fArial|b0|i0|c0|p0;}
 73
     1
 44
1.0
  0
MTEXT
  5
1DC
330
1D7
100
AcDbEntity
  8
DIMENSIONS
100
AcDbMText
 10
159.5020904541016
 20
134.5685882568359
 30
0.0
 40
2.275416666666667
 41
0.0
 46
0.0
 71
     5
 72
     1
  1
{\fArial|b0|i0|c0|p0;}
 73
     1
 44
1.0
  0
LINE
  5
1DD
330
1D7
100
AcDbEntity
  8
DIMENSIONS
100
AcDbLine
 10
156.6201459288593
 20
134.5685875219038
 30
0.0
 11
156.6201459288593
 21
134.5685875219038
 31
0.0
  0
LINE
  5
1DE
330
1D7
100
AcDbEntity
  8
DIMENSIONS
100
AcDbLine
 10
151.2952510833736
 20
134.8851750942392
 30
0.0
 11
151.2952510833736
 21
136.5685882568359
 31
0.0
  0
LINE
  5
1DF
330
1D7
100
AcDbEntity
  8
DIMENSIONS
100
AcDbLine
 10
154.2952510833736
 20
130.3836279254274
 30
0.0
 11
154.2952510833736
 21
136.5685882568359
 31
0.0
  0
LWPOLYLINE
  5
1E0
330
1D7
100
AcDbEntity
  8
DIMENSIONS
100
AcDbPolyline
 90
        4
 70
     0
 43
0.0
 10
151.2952510833736
 20
134.5685882568359
 10
148.2952510833736
 20
134.0685882568359
 10
148.2952510833736
 20
135.0685882568359
 10
151.2952510833736
 20
134.5685882568359
  0
LINE
  5
1E1
330
1D7
100
AcDbEntity
  8
DIMENSIONS
100
AcDbLine
 10
148.2952510833736
 20
134.5685882568359
 30
0.0
 11
147.6952510833736
 21
134.5685882568359
 31
0.0
  0
LWPOLYLINE
  5
1E2
330
1D7
100
AcDbEntity
  8
DIMENSIONS
100
AcDbPolyline
 90
        4
 70
     0
 43
0.0
 10
154.2952510833736
 20
134.5685882568359
 10
157.2952510833736
 20
135.0685882568359
 10
157.2952510833736
 20
134.0685882568359
 10
154.2952510833736
 20
134.5685882568359
  0
LINE
  5
1E3
330
1D7
100
AcDbEntity
  8
DIMENSIONS
100
AcDbLine
 10
157.2952510833736
 20
134.5685882568359
 30
0.0
 11
156.6201459288593
 21
134.5685875219038
 31
0.0
  0
ENDBLK
  5
1D9
330
1D7
100
AcDbEntity
  8
0
100
AcDbBlockEnd
  0
BLOCK
  5
200
330
1FF
100
AcDbEntity
  8
0
100
AcDbBlockBegin
  2
D21
 70
     0
 10
0.0
 20
0.0
 30
0.0
  3
D21
  1

  0
MTEXT
  5
202
330
1FF
100
AcDbEntity
  8
DIMENSIONS
100
AcDbMText
 10
255.8656463623047
 20
165.7699279785156
 30
0.0
 40
2.275416666666667
 41
0.0
 46
0.0
 71
     5
 72
     1
  1
{\fAlibre Symbols|b0|i0|c0|p0;n}{\fArial|b0|i0|c0|p0;40}{\fMS Shell Dlg|b0|i0|c0|p0;\H0.9444444x;}
 73
     1
 44
1.0
  0
MTEXT
  5
203
330
1FF
100
AcDbEntity
  8
DIMENSIONS
100
AcDbMText
 10
255.8656463623047
 20
165.7699279785156
 30
0.0
 40
2.275416666666667
 41
0.0
 46
0.0
 71
     5
 72
     1
  1
{\fArial|b0|i0|c0|p0;}
 73
     1
 44
1.0
  0
MTEXT
  5
204
330
1FF
100
AcDbEntity
  8
DIMENSIONS
100
AcDbMText
 10
255.8656463623047
 20
165.7699279785156
 30
0.0
 40
2.275416666666667
 41
0.0
 46
0.0
 71
     5
 72
     1
  1
{\fArial|b0|i0|c0|p0;}
 73
     1
 44
1.0
  0
LINE
  5
205
330
1FF
100
AcDbEntity
  8
DIMENSIONS
100
AcDbLine
 10
239.3597671726692
 20
165.5503155998958
 30
0.0
 11
250.6860415613213
 21
175.0541882620266
 31
0.0
  0
LINE
  5
206
330
1FF
100
AcDbEntity
  8
DIMENSIONS
100
AcDbLine
 10
252.2155193664
 20
150.2294267375163
 30
0.0
 11
263.5417937550521
 21
159.733299399647
 31
0.0
  0
LWPOLYLINE
  5
207
330
1FF
100
AcDbEntity
  8
DIMENSIONS
100
AcDbPolyline
 90
        4
 70
     0
 43
0.0
 10
249.1539526750834
 20
173.7686130426535
 10
251.4653377257025
 20
171.7918735181398
 10
250.6992932825835
 20
171.1490859084533
 10
249.1539526750834
 20
173.7686130426535
  0
LINE
  5
208
330
1FF
100
AcDbEntity
  8
DIMENSIONS
100
AcDbLine
 10
251.082315504143
 20
171.4704797132966
 30
0.0
 11
252.8039768879762
 21
169.4186834097005
 31
0.0
  0
LWPOLYLINE
  5
209
330
1FF
100
AcDbEntity
  8
DIMENSIONS
100
AcDbPolyline
 90
        4
 70
     0
 43
0.0
 10
262.0097048688142
 20
158.4477241802739
 10
259.698319818195
 20
160.4244637047876
 10
260.464364261314
 20
161.0672513144741
 10
262.0097048688142
 20
158.4477241802739
  0
LINE
  5
20A
330
1FF
100
AcDbEntity
  8
DIMENSIONS
100
AcDbLine
 10
260.0813420397545
 20
160.7458575096309
 30
0.0
 11
258.9273158050353
 21
162.12117215035
 31
0.0
  0
ENDBLK
  5
201
330
1FF
100
AcDbEntity
  8
0
100
AcDbBlockEnd
  0
BLOCK
  5
20D
330
20C
100
AcDbEntity
  8
0
100
AcDbBlockBegin
  2
D22
 70
     0
 10
0.0
 20
0.0
 30
0.0
  3
D22
  1

  0
MTEXT
  5
20F
330
20C
100
AcDbEntity
  8
DIMENSIONS
100
AcDbMText
 10
230.6410064697266
 20
145.5902252197266
 30
0.0
 40
2.275416666666667
 41
0.0
 46
0.0
 71
     5
 72
     1
  1
{\fAlibre Symbols|b0|i0|c0|p0;n}{\fArial|b0|i0|c0|p0;15.1}{\fMS Shell Dlg|b0|i0|c0|p0;\H0.9444444x;}
 73
     1
 44
1.0
  0
MTEXT
  5
210
330
20C
100
AcDbEntity
  8
DIMENSIONS
100
AcDbMText
 10
230.6410064697266
 20
145.5902252197266
 30
0.0
 40
2.275416666666667
 41
0.0
 46
0.0
 71
     5
 72
     1
  1
{\fArial|b0|i0|c0|p0;}
 73
     1
 44
1.0
  0
MTEXT
  5
211
330
20C
100
AcDbEntity
  8
DIMENSIONS
100
AcDbMText
 10
230.6410064697266
 20
145.5902252197266
 30
0.0
 40
2.275416666666667
 41
0.0
 46
0.0
 71
     5
 72
     1
  1
{\fArial|b0|i0|c0|p0;}
 73
     1
 44
1.0
  0
LINE
  5
212
330
20C
100
AcDbEntity
  8
DIMENSIONS
100
AcDbLine
 10
245.1499887236253
 20
152.4269029571858
 30
0.0
 11
231.7372729259944
 21
141.172298078308
 31
0.0
  0
LINE
  5
213
330
20C
100
AcDbEntity
  8
DIMENSIONS
100
AcDbLine
 10
240.296942270492
 20
158.2105385027341
 30
0.0
 11
226.8842264728611
 21
146.9559336238563
 31
0.0
  0
LWPOLYLINE
  5
214
330
20C
100
AcDbEntity
  8
DIMENSIONS
100
AcDbPolyline
 90
        4
 70
     0
 43
0.0
 10
233.2693618122324
 20
142.4578732976811
 10
230.9579767616133
 20
144.4346128221947
 10
231.7240212047323
 20
145.0774004318813
 10
233.2693618122324
 20
142.4578732976811
  0
LINE
  5
215
330
20C
100
AcDbEntity
  8
DIMENSIONS
100
AcDbLine
 10
231.3409989831728
 20
144.756006627038
 30
0.0
 11
231.3409989831728
 21
144.756006627038
 31
0.0
  0
LWPOLYLINE
  5
216
330
20C
100
AcDbEntity
  8
DIMENSIONS
100
AcDbPolyline
 90
        4
 70
     0
 43
0.0
 10
228.416315359099
 20
148.2415088432294
 10
230.7277004097181
 20
146.2647693187157
 10
229.9616559665991
 20
145.6219817090291
 10
228.416315359099
 20
148.2415088432294
  0
LINE
  5
217
330
20C
100
AcDbEntity
  8
DIMENSIONS
100
AcDbLine
 10
230.3446781881586
 20
145.9433755138724
 30
0.0
 11
230.3446781881586
 21
145.9433755138724
 31
0.0
  0
ENDBLK
  5
20E
330
20C
100
AcDbEntity
  8
0
100
AcDbBlockEnd
  0
BLOCK
  5
21A
330
219
100
AcDbEntity
  8
0
100
AcDbBlockBegin
  2
D23
 70
     0
 10
0.0
 20
0.0
 30
0.0
  3
D23
  1

  0
MTEXT
  5
21C
330
219
100
AcDbEntity
  8
DIMENSIONS
100
AcDbMText
 10
250.3820343017578
 20
144.7128448486328
 30
0.0
 40
2.275416666666667
 41
0.0
 46
0.0
 71
     5
 72
     1
  1
{\fAlibre Symbols|b0|i0|c0|p0;n}{\fArial|b0|i0|c0|p0;6.5}{\fMS Shell Dlg|b0|i0|c0|p0;\H0.9444444x;}
 73
     1
 44
1.0
  0
MTEXT
  5
21D
330
219
100
AcDbEntity
  8
DIMENSIONS
100
AcDbMText
 10
250.3820343017578
 20
144.7128448486328
 30
0.0
 40
2.275416666666667
 41
0.0
 46
0.0
 71
     5
 72
     1
  1
{\fArial|b0|i0|c0|p0;}
 73
     1
 44
1.0
  0
MTEXT
  5
21E
330
219
100
AcDbEntity
  8
DIMENSIONS
100
AcDbMText
 10
250.3820343017578
 20
144.7128448486328
 30
0.0
 40
2.275416666666667
 41
0.0
 46
0.0
 71
     5
 72
     1
  1
{\fArial|b0|i0|c0|p0;}
 73
     1
 44
1.0
  0
LINE
  5
21F
330
219
100
AcDbEntity
  8
DIMENSIONS
100
AcDbLine
 10
251.5222891255499
 20
152.5450834710144
 30
0.0
 11
251.5222891255499
 21
142.7128448486328
 31
0.0
  0
LINE
  5
220
330
219
100
AcDbEntity
  8
DIMENSIONS
100
AcDbLine
 10
248.2722891255499
 20
152.5450834710144
 30
0.0
 11
248.2722891255499
 21
142.7128448486328
 31
0.0
  0
LWPOLYLINE
  5
221
330
219
100
AcDbEntity
  8
DIMENSIONS
100
AcDbPolyline
 90
        4
 70
     0
 43
0.0
 10
251.5222891255499
 20
144.7128448486328
 10
254.5222891255499
 20
145.2128448486328
 10
254.5222891255499
 20
144.2128448486328
 10
251.5222891255499
 20
144.7128448486328
  0
LINE
  5
222
330
219
100
AcDbEntity
  8
DIMENSIONS
100
AcDbLine
 10
254.5222891255499
 20
144.7128448486328
 30
0.0
 11
255.1222891255499
 21
144.7128448486328
 31
0.0
  0
LWPOLYLINE
  5
223
330
219
100
AcDbEntity
  8
DIMENSIONS
100
AcDbPolyline
 90
        4
 70
     0
 43
0.0
 10
248.2722891255499
 20
144.7128448486328
 10
245.2722891255499
 20
144.2128448486328
 10
245.2722891255499
 20
145.2128448486328
 10
248.2722891255499
 20
144.7128448486328
  0
LINE
  5
224
330
219
100
AcDbEntity
  8
DIMENSIONS
100
AcDbLine
 10
245.2722891255499
 20
144.7128448486328
 30
0.0
 11
244.6722891255499
 21
144.7128448486328
 31
0.0
  0
ENDBLK
  5
21B
330
219
100
AcDbEntity
  8
0
100
AcDbBlockEnd
  0
BLOCK
  5
227
330
226
100
AcDbEntity
  8
0
100
AcDbBlockBegin
  2
D24
 70
     0
 10
0.0
 20
0.0
 30
0.0
  3
D24
  1

  0
MTEXT
  5
229
330
226
100
AcDbEntity
  8
DIMENSIONS
100
AcDbMText
 10
259.6481323242188
 20
190.0838165283203
 30
0.0
 40
2.275416666666667
 41
0.0
 46
0.0
 71
     5
 72
     1
  1
{\fArial|b0|i0|c0|p0;6}{\fMS Shell Dlg|b0|i0|c0|p0;\H0.9444444x;}
 73
     1
 44
1.0
  0
MTEXT
  5
22A
330
226
100
AcDbEntity
  8
DIMENSIONS
100
AcDbMText
 10
259.6481323242188
 20
190.0838165283203
 30
0.0
 40
2.275416666666667
 41
0.0
 46
0.0
 71
     5
 72
     1
  1
{\fArial|b0|i0|c0|p0;}
 73
     1
 44
1.0
  0
MTEXT
  5
22B
330
226
100
AcDbEntity
  8
DIMENSIONS
100
AcDbMText
 10
259.6481323242188
 20
190.0838165283203
 30
0.0
 40
2.275416666666667
 41
0.0
 46
0.0
 71
     5
 72
     1
  1
{\fArial|b0|i0|c0|p0;}
 73
     1
 44
1.0
  0
LINE
  5
22C
330
226
100
AcDbEntity
  8
DIMENSIONS
100
AcDbLine
 10
265.5300769262501
 20
190.0838172238996
 30
0.0
 11
262.5300769262501
 21
190.0838172238996
 31
0.0
  0
LINE
  5
22D
330
226
100
AcDbEntity
  8
DIMENSIONS
100
AcDbLine
 10
256.7672302230779
 20
191.5305097329063
 30
0.0
 11
262.7440771846637
 21
196.5308035023608
 31
0.0
  0
LINE
  5
22E
330
226
100
AcDbEntity
  8
DIMENSIONS
100
AcDbLine
 10
254.842230223078
 20
193.8314606232993
 30
0.0
 11
260.8190771846637
 21
198.8317543927537
 31
0.0
  0
LWPOLYLINE
  5
22F
330
226
100
AcDbEntity
  8
DIMENSIONS
100
AcDbPolyline
 90
        4
 70
     0
 43
0.0
 10
261.2101099244018
 20
195.2474701690275
 10
263.5186017394672
 20
193.2673526119679
 10
262.7516181093363
 20
192.6256859453012
 10
261.2101099244018
 20
195.2474701690275
  0
LINE
  5
230
330
226
100
AcDbEntity
  8
DIMENSIONS
100
AcDbLine
 10
263.1351099244017
 20
192.9465192786346
 30
0.0
 11
265.5300769262501
 21
190.0838172238996
 31
0.0
  0
LWPOLYLINE
  5
231
330
226
100
AcDbEntity
  8
DIMENSIONS
100
AcDbPolyline
 90
        4
 70
     0
 43
0.0
 10
259.2851099244018
 20
197.5484210594204
 10
256.9766181093362
 20
199.52853861648
 10
257.7436017394672
 20
200.1702052831467
 10
259.2851099244018
 20
197.5484210594204
  0
LINE
  5
232
330
226
100
AcDbEntity
  8
DIMENSIONS
100
AcDbLine
 10
257.3601099244017
 20
199.8493719498133
 30
0.0
 11
256.9751099244017
 21
200.3095621278919
 31
0.0
  0
ENDBLK
  5
228
330
226
100
AcDbEntity
  8
0
100
AcDbBlockEnd
  0
ENDSEC
  0
SECTION
  2
ENTITIES
  0
LINE
  5
5E
330
1F
100
AcDbEntity
  8
VISIBLE
100
AcDbLine
 10
54.48964472475924
 20
140.89492740079
 30
0.0
 11
27.89300740929296
 21
145.5445385145873
 31
0.0
  0
CIRCLE
  5
5F
330
1F
100
AcDbEntity
  8
VISIBLE
100
AcDbCircle
 10
54.22497843833953
 20
162.5340593790525
 30
0.0
 40
1.625
  0
LINE
  5
60
330
1F
100
AcDbEntity
  8
VISIBLE
100
AcDbLine
 10
79.16570036024112
 20
141.6042959493329
 30
0.0
 11
75.40893456359917
 21
140.2307200507453
 31
0.0
  0
CIRCLE
  5
61
330
1F
100
AcDbEntity
  8
VISIBLE
100
AcDbCircle
 10
54.22497843833953
 20
162.5340593790525
 30
0.0
 40
2.600000000000001
  0
LINE
  5
62
330
1F
100
AcDbEntity
  8
VISIBLE
100
AcDbLine
 10
27.20417613317477
 20
141.6042959493331
 30
0.0
 11
27.89300740929288
 21
145.5445385145873
 31
0.0
  0
ARC
  5
63
330
1F
100
AcDbEntity
  8
VISIBLE
100
AcDbCircle
 10
53.18493824670801
 20
156.6042959493329
 30
0.0
 40
30.00000000000006
100
AcDbArc
 50
90.0
 51
130.1675776035362
  0
LINE
  5
64
330
1F
100
AcDbEntity
  8
VISIBLE
100
AcDbLine
 10
40.13055544565212
 20
134.6457278531721
 30
0.0
 11
40.13055544565212
 21
131.6457278531721
 31
0.0
  0
LINE
  5
65
330
1F
100
AcDbEntity
  8
VISIBLE
100
AcDbLine
 10
37.36340042632257
 20
184.8469617477901
 30
0.0
 11
38.16548375965591
 21
185.8056912854538
 31
0.0
  0
LINE
  5
66
330
1F
100
AcDbEntity
  8
VISIBLE
100
AcDbLine
 10
38.16548375965587
 20
185.8056912854538
 30
0.0
 11
38.9675670929892
 21
186.7644208231176
 31
0.0
  0
LINE
  5
67
330
1F
100
AcDbEntity
  8
VISIBLE
100
AcDbLine
 10
75.40893456359917
 20
140.2307200507453
 30
0.0
 11
69.7737858686362
 21
138.170356202864
 31
0.0
  0
LINE
  5
68
330
1F
100
AcDbEntity
  8
VISIBLE
100
AcDbLine
 10
28.92625432347007
 20
151.4549023624686
 30
0.0
 11
33.83417716581179
 21
179.5291306399054
 31
0.0
  0
ARC
  5
69
330
1F
100
AcDbEntity
  8
VISIBLE
100
AcDbCircle
 10
41.22327243534682
 20
161.40871548076
 30
0.0
 40
3.000000000000024
100
AcDbArc
 50
140.0837888017684
 51
320.0837888017684
  0
LINE
  5
6A
330
1F
100
AcDbEntity
  8
VISIBLE
100
AcDbLine
 10
27.89300740929287
 20
145.5445385145873
 30
0.0
 11
28.92625432347006
 21
151.4549023624686
 31
0.0
  0
LINE
  5
6B
330
1F
100
AcDbEntity
  8
VISIBLE
100
AcDbLine
 10
60.84922332573972
 20
180.1922734942963
 30
0.0
 11
82.71380800675058
 21
161.9001292826663
 31
0.0
  0
LINE
  5
6C
330
1F
100
AcDbEntity
  8
VISIBLE
100
AcDbLine
 10
60.84922332573972
 20
180.1922734942963
 30
0.0
 11
43.52422332573974
 21
159.48371548076
 31
0.0
  0
CIRCLE
  5
6D
330
1F
100
AcDbEntity
  8
VISIBLE
100
AcDbCircle
 10
46.09205110284798
 20
133.4139617193425
 30
0.0
 40
2.5
  0
ARC
  5
6E
330
1F
100
AcDbEntity
  8
VISIBLE
100
AcDbCircle
 10
53.18493824670784
 20
156.604295949333
 30
0.0
 40
30.00000000000017
100
AcDbArc
 50
329.9999999999999
 51
10.16757760353657
  0
LINE
  5
6F
330
1F
100
AcDbEntity
  8
VISIBLE
100
AcDbLine
 10
39.98975806564232
 20
131.6457278531721
 30
0.0
 11
39.98975806564232
 21
134.3610984822527
 31
0.0
  0
CIRCLE
  5
70
330
1F
100
AcDbEntity
  8
VISIBLE
100
AcDbCircle
 10
47.54320350445477
 20
154.5450834710144
 30
0.0
 40
1.625
  0
LINE
  5
71
330
1F
100
AcDbEntity
  8
VISIBLE
100
AcDbLine
 10
39.72372751901637
 20
134.2758834165266
 30
0.0
 11
40.13055544565212
 21
134.6457278531721
 31
0.0
  0
LINE
  5
72
330
1F
100
AcDbEntity
  8
VISIBLE
100
AcDbLine
 10
69.77378586863617
 20
138.170356202864
 30
0.0
 11
60.50214855317009
 21
163.5285253301976
 31
0.0
  0
LINE
  5
73
330
1F
100
AcDbEntity
  8
VISIBLE
100
AcDbLine
 10
56.24732154495386
 20
184.0422734942964
 30
0.0
 11
60.84922332573971
 21
180.1922734942963
 31
0.0
  0
CIRCLE
  5
74
330
1F
100
AcDbEntity
  8
VISIBLE
100
AcDbCircle
 10
57.77923976746307
 20
152.7563051883263
 30
0.0
 40
2.600000000000001
  0
LINE
  5
75
330
1F
100
AcDbEntity
  8
VISIBLE
100
AcDbLine
 10
69.77378586863617
 20
138.170356202864
 30
0.0
 11
43.00682956756172
 21
128.3836279254274
 31
0.0
  0
LINE
  5
76
330
1F
100
AcDbEntity
  8
VISIBLE
100
AcDbLine
 10
38.92232154495387
 20
163.33371548076
 30
0.0
 11
56.24732154495386
 21
184.0422734942964
 31
0.0
  0
CIRCLE
  5
77
330
1F
100
AcDbEntity
  8
VISIBLE
100
AcDbCircle
 10
53.18493824670803
 20
156.604295949333
 30
0.0
 40
0.25
  0
LINE
  5
78
330
1F
100
AcDbEntity
  8
VISIBLE
100
AcDbLine
 10
40.13055544565212
 20
131.6457278531721
 30
0.0
 11
39.98975806564232
 21
131.6457278531721
 31
0.0
  0
CIRCLE
  5
79
330
1F
100
AcDbEntity
  8
VISIBLE
100
AcDbCircle
 10
57.77923976746307
 20
152.7563051883263
 30
0.0
 40
1.625
  0
ARC
  5
7A
330
1F
100
AcDbEntity
  8
VISIBLE
100
AcDbCircle
 10
55.00626818184781
 20
143.8501093247308
 30
0.0
 40
3.000000000000055
100
AcDbArc
 50
260.0837888017688
 51
80.08378880176768
  0
LINE
  5
7B
330
1F
100
AcDbEntity
  8
VISIBLE
100
AcDbLine
 10
53.18493824670801
 20
186.604295949333
 30
0.0
 11
56.24732154495386
 21
184.0422734942964
 31
0.0
  0
LINE
  5
7C
330
1F
100
AcDbEntity
  8
VISIBLE
100
AcDbLine
 10
39.98975806564232
 20
134.3610984822527
 30
0.0
 11
39.80168889291967
 21
134.1901261062628
 31
0.0
  0
CIRCLE
  5
7D
330
1F
100
AcDbEntity
  8
VISIBLE
100
AcDbCircle
 10
76.81480038406167
 20
162.0568426115695
 30
0.0
 40
2.5
  0
ARC
  5
7E
330
1F
100
AcDbEntity
  8
VISIBLE
100
AcDbCircle
 10
53.18493824670814
 20
156.604295949333
 30
0.0
 40
30.00000000000013
100
AcDbArc
 50
209.9999999999997
 51
250.1675776035363
  0
ARC
  5
7F
330
1F
100
AcDbEntity
  8
VISIBLE
100
AcDbCircle
 10
63.31972290065162
 20
164.5587072541383
 30
0.0
 40
3.000000000000003
100
AcDbArc
 50
20.08378880176869
 51
200.0837888017682
  0
LINE
  5
80
330
1F
100
AcDbEntity
  8
VISIBLE
100
AcDbLine
 10
66.13729724813312
 20
165.5888891780791
 30
0.0
 11
75.40893456359916
 21
140.2307200507453
 31
0.0
  0
CIRCLE
  5
81
330
1F
100
AcDbEntity
  8
VISIBLE
100
AcDbCircle
 10
47.54320350445477
 20
154.5450834710144
 30
0.0
 40
2.600000000000001
  0
LINE
  5
82
330
1F
100
AcDbEntity
  8
VISIBLE
100
AcDbLine
 10
39.80168889291967
 20
134.1901261062628
 30
0.0
 11
39.72372751901637
 21
134.2758834165266
 31
0.0
  0
LINE
  5
83
330
1F
100
AcDbEntity
  8
VISIBLE
100
AcDbLine
 10
28.92625432347013
 20
151.4549023624686
 30
0.0
 11
55.52289163893641
 21
146.8052912486714
 31
0.0
  0
LINE
  5
84
330
1F
100
AcDbEntity
  8
VISIBLE
100
AcDbLine
 10
42.17590042632257
 20
190.5993389737724
 30
0.0
 11
42.97798375965591
 21
191.5580685114361
 31
0.0
  0
LINE
  5
85
330
1F
100
AcDbEntity
  8
VISIBLE
100
AcDbLine
 10
42.97798375965587
 20
191.5580685114361
 30
0.0
 11
43.78006709298921
 21
192.5167980490999
 31
0.0
  0
CIRCLE
  5
86
330
1F
100
AcDbEntity
  8
VISIBLE
100
AcDbCircle
 10
36.64796325321442
 20
174.3420835170868
 30
0.0
 40
2.5
  0
LINE
  5
87
330
1F
100
AcDbEntity
  8
VISIBLE
100
AcDbLine
 10
44.13222966718862
 20
192.5481272899659
 30
0.0
 11
51.30719721244421
 21
186.5454730906586
 31
0.0
  0
ARC
  5
88
330
1F
100
AcDbEntity
  8
VISIBLE
100
AcDbCircle
 10
42.36764633385532
 20
190.4389223071057
 30
0.0
 40
0.2500000000000194
100
AcDbArc
 50
140.0837888017647
 51
230.0837888017634
  0
ARC
  5
89
330
1F
100
AcDbEntity
  8
VISIBLE
100
AcDbCircle
 10
43.97181300052197
 20
192.3563813824332
 30
0.0
 40
0.2499999999999966
100
AcDbArc
 50
50.08378880177094
 51
140.0837888017747
  0
LINE
  5
8A
330
1F
100
AcDbEntity
  8
VISIBLE
100
AcDbLine
 10
37.39472966718862
 20
184.4947991735907
 30
0.0
 11
39.08235583818189
 21
183.0829131604097
 31
0.0
  0
ARC
  5
8B
330
1F
100
AcDbEntity
  8
VISIBLE
100
AcDbCircle
 10
39.15931300052196
 20
186.6040041564509
 30
0.0
 40
0.2499999999999576
100
AcDbArc
 50
50.08378880176132
 51
140.0837888017736
  0
LINE
  5
8C
330
1F
100
AcDbEntity
  8
VISIBLE
100
AcDbLine
 10
42.20722966718862
 20
190.247176399573
 30
0.0
 11
47.26633930499379
 21
186.0146714411069
 31
0.0
  0
LINE
  5
8D
330
1F
100
AcDbEntity
  8
VISIBLE
100
AcDbLine
 10
39.31972966718862
 20
186.7957500639836
 30
0.0
 11
42.09068721646776
 21
184.4775374916799
 31
0.0
  0
ARC
  5
8E
330
1F
100
AcDbEntity
  8
VISIBLE
100
AcDbCircle
 10
37.55514633385526
 20
184.6865450811234
 30
0.0
 40
0.2499999999999576
100
AcDbArc
 50
140.0837888017613
 51
230.0837888017692
  0
LINE
  5
90
330
1F
100
AcDbEntity
  8
TANGENT EDGES
100
AcDbLine
 10
43.16972966718862
 20
191.3976518447695
 30
0.0
 11
44.13222966718862
 21
192.548127289966
 31
0.0
  0
LINE
  5
91
330
1F
100
AcDbEntity
  8
TANGENT EDGES
100
AcDbLine
 10
43.16972966718862
 20
191.3976518447695
 30
0.0
 11
42.20722966718863
 21
190.247176399573
 31
0.0
  0
LINE
  5
92
330
1F
100
AcDbEntity
  8
TANGENT EDGES
100
AcDbLine
 10
38.35722966718862
 20
185.6452746187871
 30
0.0
 11
39.31972966718862
 21
186.7957500639836
 31
0.0
  0
LINE
  5
93
330
1F
100
AcDbEntity
  8
TANGENT EDGES
100
AcDbLine
 10
38.35722966718862
 20
185.6452746187871
 30
0.0
 11
37.39472966718862
 21
184.4947991735907
 31
0.0
  0
DIMENSION
  5
95
330
1F
100
AcDbEntity
  8
DIMENSIONS
100
AcDbDimension
  2
D1
 10
0.0
 20
0.0
 30
0.0
 11
80.62114315698629
 21
336.2496816915201
 31
0.0
 70
    32
  1
<>
 71
     5
 42
-1.0
 73
     0
 74
     0
 75
     0
  3
ISO-25
100
AcDbAlignedDimension
 13
33.9013099561119
 23
133.6229626557636
 33
0.0
 14
72.46856653730414
 24
179.5856292429024
 34
0.0
100
AcDbRotatedDimension
1001
ACAD
1000
DSTYLE
1002
{
1070
    76
1070
     0
1070
    75
1070
     0
1070
   282
1070
     0
1070
   281
1070
     0
1070
    77
1070
     0
1070
    79
1070
     0
1070
    78
1070
     0
1070
   272
1070
     3
1070
   271
1070
     3
1070
   179
1070
     3
1070
   140
1040
2.275416666666667
1070
    71
1070
     0
1070
    72
1070
     0
1070
    48
1040
0.002
1070
    47
1040
0.005
1002
}
  0
DIMENSION
  5
A2
330
1F
100
AcDbEntity
  8
DIMENSIONS
100
AcDbDimension
  2
D2
 10
0.0
 20
0.0
 30
0.0
 11
95.19893818567284
 21
335.2529012960123
 31
0.0
 70
    32
  1
<>
 71
     5
 42
-1.0
 73
     0
 74
     0
 75
     0
  3
ISO-25
100
AcDbAlignedDimension
 13
35.04099422899807
 23
176.2571946248842
 33
0.0
 14
38.25493227743077
 24
172.4269724092894
 34
0.0
100
AcDbRotatedDimension
1001
ACAD
1000
DSTYLE
1002
{
1070
    76
1070
     0
1070
    75
1070
     0
1070
   282
1070
     0
1070
   281
1070
     0
1070
    77
1070
     0
1070
    79
1070
     0
1070
    78
1070
     0
1070
   272
1070
     3
1070
   271
1070
     3
1070
   179
1070
     3
1070
   140
1040
2.275416666666667
1070
    71
1070
     0
1070
    72
1070
     0
1070
    48
1040
0.002
1070
    47
1040
0.005
1002
}
  0
DIMENSION
  5
AF
330
1F
100
AcDbEntity
  8
DIMENSIONS
100
AcDbDimension
  2
D3
 10
0.0
 20
0.0
 30
0.0
 11
104.9922713458037
 21
330.664130291509
 31
0.0
 70
    32
  1
<>
 71
     5
 42
-1.0
 73
     0
 74
     0
 75
     0
 53
140.0837888017684
  3
ISO-25
100
AcDbAlignedDimension
 13
56.24732154495386
 23
184.0422734942964
 33
0.0
 14
60.84922332573972
 24
180.1922734942963
 34
0.0
 50
140.0837888017684
100
AcDbRotatedDimension
1001
ACAD
1000
DSTYLE
1002
{
1070
    76
1070
     0
1070
    75
1070
     0
1070
   282
1070
     0
1070
   281
1070
     0
1070
    77
1070
     0
1070
    79
1070
     0
1070
    78
1070
     0
1070
   272
1070
     3
1070
   271
1070
     3
1070
   179
1070
     3
1070
   140
1040
2.275416666666667
1070
    71
1070
     0
1070
    72
1070
     0
1070
    48
1040
0.002
1070
    47
1040
0.005
1002
}
  0
DIMENSION
  5
BC
330
1F
100
AcDbEntity
  8
DIMENSIONS
100
AcDbDimension
  2
D4
 10
0.0
 20
0.0
 30
0.0
 11
107.0221797938349
 21
316.1502720387757
 31
0.0
 70
    32
  1
<>
 71
     5
 42
-1.0
 73
     0
 74
     0
 75
     0
 53
80.05189661389356
  3
ISO-25
100
AcDbAlignedDimension
 13
53.18493824670802
 23
156.604295949333
 33
0.0
 14
54.22497843833953
 24
162.5340593790525
 34
0.0
 50
80.05189661389356
100
AcDbRotatedDimension
1001
ACAD
1000
DSTYLE
1002
{
1070
    76
1070
     0
1070
    75
1070
     0
1070
   282
1070
     0
1070
   281
1070
     0
1070
    77
1070
     0
1070
    79
1070
     0
1070
    78
1070
     0
1070
   272
1070
     3
1070
   271
1070
     3
1070
   179
1070
     3
1070
   140
1040
2.275416666666667
1070
    71
1070
     0
1070
    72
1070
     0
1070
    48
1040
0.002
1070
    47
1040
0.005
1002
}
  0
DIMENSION
  5
C9
330
1F
100
AcDbEntity
  8
DIMENSIONS
100
AcDbDimension
  2
D5
 10
0.0
 20
0.0
 30
0.0
 11
112.888820940291
 21
287.5528217555917
 31
0.0
 70
    32
  1
<>
 71
     5
 42
-1.0
 73
     0
 74
     0
 75
     0
 53
200.0837888017679
  3
ISO-25
100
AcDbAlignedDimension
 13
69.77378586863617
 23
138.170356202864
 33
0.0
 14
46.09205110284798
 24
133.4139617193425
 34
0.0
 50
200.0837888017679
100
AcDbRotatedDimension
1001
ACAD
1000
DSTYLE
1002
{
1070
    76
1070
     0
1070
    75
1070
     0
1070
   282
1070
     0
1070
   281
1070
     0
1070
    77
1070
     0
1070
    79
1070
     0
1070
    78
1070
     0
1070
   272
1070
     3
1070
   271
1070
     3
1070
   179
1070
     3
1070
   140
1040
2.275416666666667
1070
    71
1070
     0
1070
    72
1070
     0
1070
    48
1040
0.002
1070
    47
1040
0.005
1002
}
  0
DIMENSION
  5
D6
330
1F
100
AcDbEntity
  8
DIMENSIONS
100
AcDbDimension
  2
D6
 10
0.0
 20
0.0
 30
0.0
 11
97.56627445886619
 21
280.9288275045084
 31
0.0
 70
    32
  1
<>
 71
     5
 42
-1.0
 73
     0
 74
     0
 75
     0
 53
290.083788801768
  3
ISO-25
100
AcDbAlignedDimension
 13
46.09205110284798
 23
133.4139617193425
 33
0.0
 14
43.00682956756172
 24
128.3836279254274
 34
0.0
 50
290.083788801768
100
AcDbRotatedDimension
1001
ACAD
1000
DSTYLE
1002
{
1070
    76
1070
     0
1070
    75
1070
     0
1070
   282
1070
     0
1070
   281
1070
     0
1070
    77
1070
     0
1070
    79
1070
     0
1070
    78
1070
     0
1070
   272
1070
     3
1070
   271
1070
     3
1070
   179
1070
     3
1070
   140
1040
2.275416666666667
1070
    71
1070
     0
1070
    72
1070
     0
1070
    48
1040
0.002
1070
    47
1040
0.005
1002
}
  0
DIMENSION
  5
E4
330
1F
100
AcDbEntity
  8
DIMENSIONS
100
AcDbDimension
  2
D7
 10
0.0
 20
0.0
 30
0.0
 11
133.5746706075478
 21
294.7590353292154
 31
0.0
 70
    32
  1
<>
 71
     5
 42
-1.0
 73
     0
 74
     0
 75
     0
 53
200.083788801768
  3
ISO-25
100
AcDbAlignedDimension
 13
79.16570036024112
 23
141.6042959493329
 33
0.0
 14
75.40893456359917
 24
140.2307200507453
 34
0.0
 50
200.083788801768
100
AcDbRotatedDimension
1001
ACAD
1000
DSTYLE
1002
{
1070
    76
1070
     0
1070
    75
1070
     0
1070
   282
1070
     0
1070
   281
1070
     0
1070
    77
1070
     0
1070
    79
1070
     0
1070
    78
1070
     0
1070
   272
1070
     3
1070
   271
1070
     3
1070
   179
1070
     3
1070
   140
1040
2.275416666666667
1070
    71
1070
     0
1070
    72
1070
     0
1070
    48
1040
0.002
1070
    47
1040
0.005
1002
}
  0
DIMENSION
  5
F1
330
1F
100
AcDbEntity
  8
DIMENSIONS
100
AcDbDimension
  2
D8
 10
0.0
 20
0.0
 30
0.0
 11
115.1343820638467
 21
324.6622030538248
 31
0.0
 70
    32
  1
<>
 71
     5
 42
-1.0
 73
     0
 74
     0
 75
     0
  3
ISO-25
100
AcDbAlignedDimension
 13
60.5006450382939
 23
163.5326468241613
 33
0.0
 14
66.13880076300934
 24
165.5847676841153
 34
0.0
100
AcDbRotatedDimension
1001
ACAD
1000
DSTYLE
1002
{
1070
    76
1070
     0
1070
    75
1070
     0
1070
   282
1070
     0
1070
   281
1070
     0
1070
    77
1070
     0
1070
    79
1070
     0
1070
    78
1070
     0
1070
   272
1070
     3
1070
   271
1070
     3
1070
   179
1070
     3
1070
   140
1040
2.275416666666667
1070
    71
1070
     0
1070
    72
1070
     0
1070
    48
1040
0.002
1070
    47
1040
0.005
1002
}
  0
DIMENSION
  5
FE
330
1F
100
AcDbEntity
  8
DIMENSIONS
100
AcDbDimension
  2
D9
 10
0.0
 20
0.0
 30
0.0
 11
119.6198595113565
 21
312.8255331319498
 31
0.0
 70
    32
  1
<>
 71
     5
 42
-1.0
 73
     0
 74
     0
 75
     0
 53
290.083788801768
  3
ISO-25
100
AcDbAlignedDimension
 13
75.40893456359917
 23
140.2307200507453
 33
0.0
 14
60.50214855317007
 24
163.5285253301977
 34
0.0
 50
290.083788801768
100
AcDbRotatedDimension
1001
ACAD
1000
DSTYLE
1002
{
1070
    76
1070
     0
1070
    75
1070
     0
1070
   282
1070
     0
1070
   281
1070
     0
1070
    77
1070
     0
1070
    79
1070
     0
1070
    78
1070
     0
1070
   272
1070
     3
1070
   271
1070
     3
1070
   179
1070
     3
1070
   140
1040
2.275416666666667
1070
    71
1070
     0
1070
    72
1070
     0
1070
    48
1040
0.002
1070
    47
1040
0.005
1002
}
  0
DIMENSION
  5
10B
330
1F
100
AcDbEntity
  8
DIMENSIONS
100
AcDbDimension
  2
D10
 10
0.0
 20
0.0
 30
0.0
 11
93.82837658594138
 21
310.9565908712077
 31
0.0
 70
    32
  1
<>
 71
     5
 42
-1.0
 73
     0
 74
     0
 75
     0
  3
ISO-25
100
AcDbAlignedDimension
 13
47.54320350445477
 23
152.9200834710144
 33
0.0
 14
47.54320350445477
 24
156.1700834710144
 34
0.0
100
AcDbRotatedDimension
1001
ACAD
1000
DSTYLE
1002
{
1070
    76
1070
     0
1070
    75
1070
     0
1070
   282
1070
     0
1070
   281
1070
     0
1070
    77
1070
     0
1070
    79
1070
     0
1070
    78
1070
     0
1070
   272
1070
     3
1070
   271
1070
     3
1070
   179
1070
     3
1070
   140
1040
2.275416666666667
1070
    71
1070
     0
1070
    72
1070
     0
1070
    48
1040
0.002
1070
    47
1040
0.005
1002
}
  0
DIMENSION
  5
118
330
1F
100
AcDbEntity
  8
DIMENSIONS
100
AcDbDimension
  2
D11
 10
0.0
 20
0.0
 30
0.0
 11
114.0130136556435
 21
304.6021597188639
 31
0.0
 70
    32
  1
<>
 71
     5
 42
-1.0
 73
     0
 74
     0
 75
     0
  3
ISO-25
100
AcDbAlignedDimension
 13
60.03090581730262
 23
154.0563051883263
 33
0.0
 14
55.52757371762354
 24
151.4563051883263
 34
0.0
100
AcDbRotatedDimension
1001
ACAD
1000
DSTYLE
1002
{
1070
    76
1070
     0
1070
    75
1070
     0
1070
   282
1070
     0
1070
   281
1070
     0
1070
    77
1070
     0
1070
    79
1070
     0
1070
    78
1070
     0
1070
   272
1070
     3
1070
   271
1070
     3
1070
   179
1070
     3
1070
   140
1040
2.275416666666667
1070
    71
1070
     0
1070
    72
1070
     0
1070
    48
1040
0.002
1070
    47
1040
0.005
1002
}
  0
DIMENSION
  5
125
330
1F
100
AcDbEntity
  8
DIMENSIONS
100
AcDbDimension
  2
D12
 10
0.0
 20
0.0
 30
0.0
 11
144.5391634053994
 21
324.1638204854655
 31
0.0
 70
    32
  1
<>
 71
     5
 42
-1.0
 73
     0
 74
     0
 75
     0
 53
200.0837888017679
  3
ISO-25
100
AcDbAlignedDimension
 13
53.18493824670802
 23
156.604295949333
 33
0.0
 14
60.50214855317007
 24
163.5285253301977
 34
0.0
 50
200.0837888017679
100
AcDbRotatedDimension
1001
ACAD
1000
DSTYLE
1002
{
1070
    76
1070
     0
1070
    75
1070
     0
1070
   282
1070
     0
1070
   281
1070
     0
1070
    77
1070
     0
1070
    79
1070
     0
1070
    78
1070
     0
1070
   272
1070
     3
1070
   271
1070
     3
1070
   179
1070
     3
1070
   140
1040
2.275416666666667
1070
    71
1070
     0
1070
    72
1070
     0
1070
    48
1040
0.002
1070
    47
1040
0.005
1002
}
  0
DIMENSION
  5
133
330
1F
100
AcDbEntity
  8
DIMENSIONS
100
AcDbDimension
  2
D13
 10
0.0
 20
0.0
 30
0.0
 11
102.1530529660958
 21
301.818464060808
 31
0.0
 70
    32
  1
<>
 71
     5
 42
-1.0
 73
     0
 74
     0
 75
     0
 53
252.9934693027251
  3
ISO-25
100
AcDbAlignedDimension
 13
53.18493824670802
 23
156.604295949333
 33
0.0
 14
46.09205110284798
 24
133.4139617193425
 34
0.0
 50
252.9934693027251
100
AcDbRotatedDimension
1001
ACAD
1000
DSTYLE
1002
{
1070
    76
1070
     0
1070
    75
1070
     0
1070
   282
1070
     0
1070
   281
1070
     0
1070
    77
1070
     0
1070
    79
1070
     0
1070
    78
1070
     0
1070
   272
1070
     3
1070
   271
1070
     3
1070
   179
1070
     3
1070
   140
1040
2.275416666666667
1070
    71
1070
     0
1070
    72
1070
     0
1070
    48
1040
0.002
1070
    47
1040
0.005
1002
}
  0
DIMENSION
  5
140
330
1F
100
AcDbEntity
  8
DIMENSIONS
100
AcDbDimension
  2
D14
 10
0.0
 20
0.0
 30
0.0
 11
95.18262199020089
 21
344.0932109173455
 31
0.0
 70
    32
  1
<>
 71
     5
 42
-1.0
 73
     0
 74
     0
 75
     0
 53
50.08378880176849
  3
ISO-25
100
AcDbAlignedDimension
 13
38.35722966718862
 23
185.6452746187871
 33
0.0
 14
43.16972966718862
 24
191.3976518447695
 34
0.0
 50
50.08378880176849
100
AcDbRotatedDimension
1001
ACAD
1000
DSTYLE
1002
{
1070
    76
1070
     0
1070
    75
1070
     0
1070
   282
1070
     0
1070
   281
1070
     0
1070
    77
1070
     0
1070
    79
1070
     0
1070
    78
1070
     0
1070
   272
1070
     3
1070
   271
1070
     3
1070
   179
1070
     3
1070
   140
1040
2.275416666666667
1070
    71
1070
     0
1070
    72
1070
     0
1070
    48
1040
0.002
1070
    47
1040
0.005
1002
}
  0
LINE
  5
14D
330
1F
100
AcDbEntity
  8
VISIBLE
100
AcDbLine
 10
150.3574883260047
 20
185.3628730801337
 30
0.0
 11
150.3574883260047
 21
186.248509490774
 31
0.0
  0
LINE
  5
14E
330
1F
100
AcDbEntity
  8
VISIBLE
100
AcDbLine
 10
151.3574883260047
 20
185.4079943627608
 30
0.0
 11
150.8065404628805
 21
185.1640246187872
 31
0.0
  0
LINE
  5
14F
330
1F
100
AcDbEntity
  8
VISIBLE
100
AcDbLine
 10
152.3574883260047
 20
186.248509490774
 30
0.0
 11
152.3574883260047
 21
185.3628730801337
 31
0.0
  0
SPLINE
  5
150
330
1F
100
AcDbEntity
  8
VISIBLE
100
AcDbSpline
210
0.0
220
0.0
230
1.0
 70
     8
 71
     3
 72
    14
 73
    10
 74
     0
 42
0.000000001
 43
0.000001
 40
0.0
 40
0.0
 40
0.0
 40
0.0
 40
0.112345439236247
 40
0.112345439236247
 40
0.224690878472493
 40
0.224690878472493
 40
0.349024852350142
 40
0.349024852350142
 40
0.473358826227791
 40
0.473358826227791
 40
0.473358826227791
 40
0.473358826227791
 10
151.3574883260047
 20
183.0829131604098
 30
0.0
 10
151.1702459272776
 20
183.0829131604098
 30
0.0
 10
150.9715728464892
 20
183.1018831139276
 30
0.0
 10
150.6086002941522
 20
183.1766610590149
 30
0.0
 10
150.4442736744744
 20
183.2323340808926
 30
0.0
 10
150.1721228491777
 20
183.3627192032834
 30
0.0
 10
150.0520004719019
 20
183.4481701375817
 30
0.0
 10
149.8947452563674
 20
183.6295936717036
 30
0.0
 10
149.8574883260047
 20
183.72544505501
 30
0.0
 10
149.8574883260047
 20
183.8127363261024
 30
0.0
  0
SPLINE
  5
151
330
1F
100
AcDbEntity
  8
VISIBLE
100
AcDbSpline
210
0.0
220
0.0
230
1.0
 70
     8
 71
     3
 72
    14
 73
    10
 74
     0
 42
0.000000001
 43
0.000001
 40
1.431619813177
 40
1.431619813177
 40
1.431619813177
 40
1.431619813177
 40
1.55595378705465
 40
1.55595378705465
 40
1.6802877609323
 40
1.6802877609323
 40
1.79263320016854
 40
1.79263320016854
 40
1.90497863940479
 40
1.90497863940479
 40
1.90497863940479
 40
1.90497863940479
 10
152.8574883260047
 20
183.8127363261024
 30
0.0
 10
152.8574883260047
 20
183.72544505501
 30
0.0
 10
152.8202313956421
 20
183.6295936717036
 30
0.0
 10
152.6629761801076
 20
183.4481701375817
 30
0.0
 10
152.5428538028318
 20
183.3627192032834
 30
0.0
 10
152.2707029775351
 20
183.2323340808926
 30
0.0
 10
152.1063763578573
 20
183.1766610590149
 30
0.0
 10
151.7434038055203
 20
183.1018831139276
 30
0.0
 10
151.5447307247318
 20
183.0829131604098
 30
0.0
 10
151.3574883260047
 20
183.0829131604098
 30
0.0
  0
LINE
  5
152
330
1F
100
AcDbEntity
  8
VISIBLE
100
AcDbLine
 10
151.3574883260047
 20
192.4437049220764
 30
0.0
 11
152.3574883260047
 21
192.0008867167563
 31
0.0
  0
SPLINE
  5
153
330
1F
100
AcDbEntity
  8
VISIBLE
100
AcDbSpline
210
0.0
220
0.0
230
1.0
 70
     8
 71
     3
 72
    14
 73
    10
 74
     0
 42
0.000000001
 43
0.000001
 40
0.0
 40
0.0
 40
0.0
 40
0.0
 40
0.0957889079948532
 40
0.0957889079948532
 40
0.191577815989707
 40
0.191577815989707
 40
0.262378137744749
 40
0.262378137744749
 40
0.333178459499792
 40
0.333178459499792
 40
0.333178459499792
 40
0.333178459499792
 10
145.7952510833736
 20
128.8621222839257
 30
0.0
 10
145.6356029033822
 20
128.8621222839257
 30
0.0
 10
145.4630671052071
 20
128.8714518197938
 30
0.0
 10
145.1389128777258
 20
128.9123522174933
 30
0.0
 10
144.9872699105607
 20
128.9439192709012
 30
0.0
 10
144.7755837851348
 20
129.0140488469216
 30
0.0
 10
144.691627188455
 20
129.0524383476015
 30
0.0
 10
144.5762906423108
 20
129.140254756094
 30
0.0
 10
144.5452510833736
 20
129.1897971892365
 30
0.0
 10
144.5452510833736
 20
129.2381460342627
 30
0.0
  0
SPLINE
  5
154
330
1F
100
AcDbEntity
  8
VISIBLE
100
AcDbSpline
210
0.0
220
0.0
230
1.0
 70
     8
 71
     3
 72
    22
 73
    18
 74
     0
 42
0.000000001
 43
0.000001
 40
0.333178459499792
 40
0.333178459499792
 40
0.333178459499792
 40
0.333178459499792
 40
0.403350278164243
 40
0.403350278164243
 40
0.473522096828694
 40
0.473522096828694
 40
0.569292166939189
 40
0.569292166939189
 40
0.665062237049685
 40
0.665062237049685
 40
0.760832307160181
 40
0.760832307160181
 40
0.856602377270677
 40
0.856602377270677
 40
0.926774195935127
 40
0.926774195935127
 40
0.996946014599578
 40
0.996946014599578
 40
0.996946014599578
 40
0.996946014599578
 10
144.5452510833736
 20
129.2381460342627
 30
0.0
 10
144.5452510833736
 20
129.2860656806954
 30
0.0
 10
144.575831402614
 20
129.3365857721152
 30
0.0
 10
144.6904025404124
 20
129.4281364435468
 30
0.0
 10
144.7740340178198
 20
129.46920143948
 30
0.0
 10
144.9858965084017
 20
129.5454218175389
 30
0.0
 10
145.1381114233794
 20
129.5805170100566
 30
0.0
 10
145.4629705982016
 20
129.6261921472108
 30
0.0
 10
145.6356342998561
 20
129.6367251749285
 30
0.0
 10
145.9548678668911
 20
129.6367251749285
 30
0.0
 10
146.1275315685456
 20
129.6261921472108
 30
0.0
 10
146.4523907433679
 20
129.5805170100566
 30
0.0
 10
146.6046056583456
 20
129.5454218175389
 30
0.0
 10
146.8164681489275
 20
129.46920143948
 30
0.0
 10
146.9000996263348
 20
129.4281364435468
 30
0.0
 10
147.0146707641333
 20
129.3365857721152
 30
0.0
 10
147.0452510833736
 20
129.2860656806954
 30
0.0
 10
147.0452510833736
 20
129.2381460342627
 30
0.0
  0
SPLINE
  5
155
330
1F
100
AcDbEntity
  8
VISIBLE
100
AcDbSpline
210
0.0
220
0.0
230
1.0
 70
     8
 71
     3
 72
    14
 73
    10
 74
     0
 42
0.000000001
 43
0.000001
 40
0.996946014599578
 40
0.996946014599578
 40
0.996946014599578
 40
0.996946014599578
 40
1.06774633635462
 40
1.06774633635462
 40
1.13854665810966
 40
1.13854665810966
 40
1.23433556610452
 40
1.23433556610452
 40
1.33012447409937
 40
1.33012447409937
 40
1.33012447409937
 40
1.33012447409937
 10
147.0452510833736
 20
129.2381460342627
 30
0.0
 10
147.0452510833736
 20
129.1897971892365
 30
0.0
 10
147.0142115244365
 20
129.140254756094
 30
0.0
 10
146.8988749782923
 20
129.0524383476015
 30
0.0
 10
146.8149183816124
 20
129.0140488469216
 30
0.0
 10
146.6032322561866
 20
128.9439192709012
 30
0.0
 10
146.4515892890214
 20
128.9123522174933
 30
0.0
 10
146.1274350615401
 20
128.8714518197938
 30
0.0
 10
145.954899263365
 20
128.8621222839257
 30
0.0
 10
145.7952510833736
 20
128.8621222839257
 30
0.0
  0
LINE
  5
156
330
1F
100
AcDbEntity
  8
VISIBLE
100
AcDbLine
 10
152.3574883260047
 20
192.0008867167563
 30
0.0
 11
152.3574883260047
 21
191.1152503061159
 31
0.0
  0
LINE
  5
157
330
1F
100
AcDbEntity
  8
VISIBLE
100
AcDbLine
 10
154.2952510833736
 20
179.5291306399054
 30
0.0
 11
143.2952510833736
 21
179.5291306399054
 31
0.0
  0
LINE
  5
158
330
1F
100
AcDbEntity
  8
VISIBLE
100
AcDbLine
 10
154.2952510833736
 20
141.6042959493331
 30
0.0
 11
154.2952510833736
 21
145.5445385145873
 31
0.0
  0
LINE
  5
159
330
1F
100
AcDbEntity
  8
VISIBLE
100
AcDbLine
 10
154.2952510833736
 20
186.604295949333
 30
0.0
 11
154.2952510833736
 21
179.5291306399054
 31
0.0
  0
LINE
  5
15A
330
1F
100
AcDbEntity
  8
VISIBLE
100
AcDbLine
 10
151.3574883260047
 20
186.6913276960941
 30
0.0
 11
151.3574883260047
 21
185.4079943627608
 31
0.0
  0
LINE
  5
15B
330
1F
100
AcDbEntity
  8
VISIBLE
100
AcDbLine
 10
150.3574883260047
 20
186.248509490774
 30
0.0
 11
151.3574883260047
 21
186.6913276960941
 31
0.0
  0
LINE
  5
15C
330
1F
100
AcDbEntity
  8
VISIBLE
100
AcDbLine
 10
154.2952510833736
 20
151.4549023624686
 30
0.0
 11
154.2952510833736
 21
179.5291306399054
 31
0.0
  0
LINE
  5
15D
330
1F
100
AcDbEntity
  8
VISIBLE
100
AcDbLine
 10
154.2952510833736
 20
186.604295949333
 30
0.0
 11
152.8574883260047
 21
186.604295949333
 31
0.0
  0
LINE
  5
15E
330
1F
100
AcDbEntity
  8
VISIBLE
100
AcDbLine
 10
149.8574883260047
 20
186.604295949333
 30
0.0
 11
143.2952510833736
 21
186.604295949333
 31
0.0
  0
LINE
  5
15F
330
1F
100
AcDbEntity
  8
VISIBLE
100
AcDbLine
 10
148.2952510833736
 20
145.5445385145873
 30
0.0
 11
148.2952510833736
 21
151.4549023624686
 31
0.0
  0
LINE
  5
160
330
1F
100
AcDbEntity
  8
VISIBLE
100
AcDbLine
 10
143.2952510833736
 20
179.5291306399054
 30
0.0
 11
143.2952510833736
 21
141.6042959493331
 31
0.0
  0
LINE
  5
161
330
1F
100
AcDbEntity
  8
VISIBLE
100
AcDbLine
 10
143.2952510833736
 20
186.604295949333
 30
0.0
 11
143.2952510833736
 21
179.5291306399054
 31
0.0
  0
SPLINE
  5
162
330
1F
100
AcDbEntity
  8
VISIBLE
100
AcDbSpline
210
0.0
220
0.0
230
1.0
 70
     8
 71
     3
 72
    14
 73
    10
 74
     0
 42
0.000000001
 43
0.000001
 40
0.0
 40
0.0
 40
0.0
 40
0.0
 40
0.0957889079948534
 40
0.0957889079948534
 40
0.191577815989707
 40
0.191577815989707
 40
0.26237813774475
 40
0.26237813774475
 40
0.333178459499793
 40
0.333178459499793
 40
0.333178459499793
 40
0.333178459499793
 10
151.5452510833736
 20
128.8621222839257
 30
0.0
 10
151.3856029033822
 20
128.8621222839257
 30
0.0
 10
151.2130671052071
 20
128.8714518197938
 30
0.0
 10
150.8889128777258
 20
128.9123522174933
 30
0.0
 10
150.7372699105607
 20
128.9439192709012
 30
0.0
 10
150.5255837851348
 20
129.0140488469216
 30
0.0
 10
150.441627188455
 20
129.0524383476015
 30
0.0
 10
150.3262906423108
 20
129.140254756094
 30
0.0
 10
150.2952510833736
 20
129.1897971892365
 30
0.0
 10
150.2952510833736
 20
129.2381460342627
 30
0.0
  0
SPLINE
  5
163
330
1F
100
AcDbEntity
  8
VISIBLE
100
AcDbSpline
210
0.0
220
0.0
230
1.0
 70
     8
 71
     3
 72
    22
 73
    18
 74
     0
 42
0.000000001
 43
0.000001
 40
0.333178459499793
 40
0.333178459499793
 40
0.333178459499793
 40
0.333178459499793
 40
0.403350278164243
 40
0.403350278164243
 40
0.473522096828693
 40
0.473522096828693
 40
0.569292166939189
 40
0.569292166939189
 40
0.665062237049685
 40
0.665062237049685
 40
0.76083230716018
 40
0.76083230716018
 40
0.856602377270676
 40
0.856602377270676
 40
0.926774195935126
 40
0.926774195935126
 40
0.996946014599577
 40
0.996946014599577
 40
0.996946014599577
 40
0.996946014599577
 10
150.2952510833736
 20
129.2381460342627
 30
0.0
 10
150.2952510833736
 20
129.2860656806954
 30
0.0
 10
150.325831402614
 20
129.3365857721152
 30
0.0
 10
150.4404025404124
 20
129.4281364435468
 30
0.0
 10
150.5240340178198
 20
129.46920143948
 30
0.0
 10
150.7358965084017
 20
129.5454218175389
 30
0.0
 10
150.8881114233794
 20
129.5805170100566
 30
0.0
 10
151.2129705982016
 20
129.6261921472108
 30
0.0
 10
151.3856342998561
 20
129.6367251749285
 30
0.0
 10
151.7048678668911
 20
129.6367251749285
 30
0.0
 10
151.8775315685456
 20
129.6261921472108
 30
0.0
 10
152.2023907433679
 20
129.5805170100566
 30
0.0
 10
152.3546056583455
 20
129.5454218175389
 30
0.0
 10
152.5664681489275
 20
129.46920143948
 30
0.0
 10
152.6500996263348
 20
129.4281364435468
 30
0.0
 10
152.7646707641333
 20
129.3365857721152
 30
0.0
 10
152.7952510833736
 20
129.2860656806954
 30
0.0
 10
152.7952510833736
 20
129.2381460342627
 30
0.0
  0
SPLINE
  5
164
330
1F
100
AcDbEntity
  8
VISIBLE
100
AcDbSpline
210
0.0
220
0.0
230
1.0
 70
     8
 71
     3
 72
    14
 73
    10
 74
     0
 42
0.000000001
 43
0.000001
 40
0.996946014599577
 40
0.996946014599577
 40
0.996946014599577
 40
0.996946014599577
 40
1.06774633635462
 40
1.06774633635462
 40
1.13854665810966
 40
1.13854665810966
 40
1.23433556610452
 40
1.23433556610452
 40
1.33012447409937
 40
1.33012447409937
 40
1.33012447409937
 40
1.33012447409937
 10
152.7952510833736
 20
129.2381460342627
 30
0.0
 10
152.7952510833736
 20
129.1897971892365
 30
0.0
 10
152.7642115244365
 20
129.140254756094
 30
0.0
 10
152.6488749782923
 20
129.0524383476015
 30
0.0
 10
152.5649183816124
 20
129.0140488469216
 30
0.0
 10
152.3532322561866
 20
128.9439192709012
 30
0.0
 10
152.2015892890214
 20
128.9123522174933
 30
0.0
 10
151.8774350615401
 20
128.8714518197938
 30
0.0
 10
151.704899263365
 20
128.8621222839257
 30
0.0
 10
151.5452510833736
 20
128.8621222839257
 30
0.0
  0
LINE
  5
165
330
1F
100
AcDbEntity
  8
VISIBLE
100
AcDbLine
 10
154.2952510833736
 20
141.6042959493331
 30
0.0
 11
143.2952510833736
 21
141.6042959493331
 31
0.0
  0
LINE
  5
166
330
1F
100
AcDbEntity
  8
VISIBLE
100
AcDbLine
 10
150.3574883260048
 20
192.0008867167563
 30
0.0
 11
151.3574883260047
 21
192.4437049220764
 31
0.0
  0
SPLINE
  5
167
330
1F
100
AcDbEntity
  8
VISIBLE
100
AcDbSpline
210
0.0
220
0.0
230
1.0
 70
     8
 71
     3
 72
    14
 73
    10
 74
     0
 42
0.000000001
 43
0.000001
 40
0.0
 40
0.0
 40
0.0
 40
0.0
 40
0.0938530993605659
 40
0.0938530993605659
 40
0.187706198721132
 40
0.187706198721132
 40
0.293264487181281
 40
0.293264487181281
 40
0.39882277564143
 40
0.39882277564143
 40
0.39882277564143
 40
0.39882277564143
 10
151.2952510833736
 20
132.8851750942392
 30
0.0
 10
151.4516729156412
 20
132.8851750942392
 30
0.0
 10
151.616916561455
 20
132.8634848589328
 30
0.0
 10
151.9176382410373
 20
132.779104530297
 30
0.0
 10
152.0532103458326
 20
132.7166125510861
 30
0.0
 10
152.2795241015153
 20
132.5701088405976
 30
0.0
 10
152.3802757268986
 20
132.4734252024132
 30
0.0
 10
152.51313118749
 20
132.2668393540503
 30
0.0
 10
152.5452510833736
 20
132.1570009020705
 30
0.0
 10
152.5452510833736
 20
132.0558727658537
 30
0.0
  0
SPLINE
  5
168
330
1F
100
AcDbEntity
  8
VISIBLE
100
AcDbSpline
210
0.0
220
0.0
230
1.0
 70
     8
 71
     3
 72
    22
 73
    18
 74
     0
 42
0.000000001
 43
0.000001
 40
0.39882277564143
 40
0.39882277564143
 40
0.39882277564143
 40
0.39882277564143
 40
0.502598734906085
 40
0.502598734906085
 40
0.606374694170741
 40
0.606374694170741
 40
0.700008208472422
 40
0.700008208472422
 40
0.793641722774103
 40
0.793641722774103
 40
0.887275237075784
 40
0.887275237075784
 40
0.980908751377464
 40
0.980908751377464
 40
1.08468471064212
 40
1.08468471064212
 40
1.18846066990678
 40
1.18846066990678
 40
1.18846066990678
 40
1.18846066990678
 10
152.5452510833736
 20
132.0558727658537
 30
0.0
 10
152.5452510833736
 20
131.9564521566563
 30
0.0
 10
152.5141142235049
 20
131.8510864201456
 30
0.0
 10
152.3829133041788
 20
131.6583968604457
 30
0.0
 10
152.2827529165803
 20
131.5710295197856
 30
0.0
 10
152.0559895719167
 20
131.4404833590876
 30
0.0
 10
151.919164102305
 20
131.3861666537308
 30
0.0
 10
151.6168365472797
 20
131.3138711834934
 30
0.0
 10
151.4513069405431
 20
131.2958551154484
 30
0.0
 10
151.1391952262042
 20
131.2958551154484
 30
0.0
 10
150.9736656194675
 20
131.3138711834934
 30
0.0
 10
150.6713380644422
 20
131.3861666537308
 30
0.0
 10
150.5345125948306
 20
131.4404833590876
 30
0.0
 10
150.3077492501669
 20
131.5710295197856
 30
0.0
 10
150.2075888625684
 20
131.6583968604457
 30
0.0
 10
150.0763879432424
 20
131.8510864201456
 30
0.0
 10
150.0452510833736
 20
131.9564521566563
 30
0.0
 10
150.0452510833736
 20
132.0558727658537
 30
0.0
  0
SPLINE
  5
169
330
1F
100
AcDbEntity
  8
VISIBLE
100
AcDbSpline
210
0.0
220
0.0
230
1.0
 70
     8
 71
     3
 72
    14
 73
    10
 74
     0
 42
0.000000001
 43
0.000001
 40
1.18846066990678
 40
1.18846066990678
 40
1.18846066990678
 40
1.18846066990678
 40
1.29401895836693
 40
1.29401895836693
 40
1.39957724682707
 40
1.39957724682707
 40
1.49343034618764
 40
1.49343034618764
 40
1.58728344554821
 40
1.58728344554821
 40
1.58728344554821
 40
1.58728344554821
 10
150.0452510833736
 20
132.0558727658537
 30
0.0
 10
150.0452510833736
 20
132.1570009020705
 30
0.0
 10
150.0773709792572
 20
132.2668393540503
 30
0.0
 10
150.2102264398486
 20
132.4734252024132
 30
0.0
 10
150.3109780652319
 20
132.5701088405976
 30
0.0
 10
150.5372918209147
 20
132.7166125510861
 30
0.0
 10
150.6728639257099
 20
132.779104530297
 30
0.0
 10
150.9735856052922
 20
132.8634848589328
 30
0.0
 10
151.138829251106
 20
132.8851750942392
 30
0.0
 10
151.2952510833736
 20
132.8851750942392
 30
0.0
  0
LINE
  5
16A
330
1F
100
AcDbEntity
  8
VISIBLE
100
AcDbLine
 10
151.3574883260047
 20
192.4437049220764
 30
0.0
 11
151.3574883260047
 21
190.6724321007958
 31
0.0
  0
LINE
  5
16B
330
1F
100
AcDbEntity
  8
VISIBLE
100
AcDbLine
 10
151.3574883260047
 20
184.9200548748135
 30
0.0
 11
150.3574883260047
 21
185.3628730801337
 31
0.0
  0
LINE
  5
16C
330
1F
100
AcDbEntity
  8
VISIBLE
100
AcDbLine
 10
151.3574883260047
 20
186.6913276960941
 30
0.0
 11
152.3574883260047
 21
186.248509490774
 31
0.0
  0
LINE
  5
16D
330
1F
100
AcDbEntity
  8
VISIBLE
100
AcDbLine
 10
154.2952510833736
 20
145.5445385145873
 30
0.0
 11
148.2952510833736
 21
145.5445385145873
 31
0.0
  0
LINE
  5
16E
330
1F
100
AcDbEntity
  8
VISIBLE
100
AcDbLine
 10
143.2952510833736
 20
141.6042959493331
 30
0.0
 11
143.2952510833736
 21
128.3836279254274
 31
0.0
  0
SPLINE
  5
16F
330
1F
100
AcDbEntity
  8
VISIBLE
100
AcDbSpline
210
0.0
220
0.0
230
1.0
 70
     8
 71
     3
 72
    14
 73
    10
 74
     0
 42
0.000000001
 43
0.000001
 40
0.0
 40
0.0
 40
0.0
 40
0.0
 40
0.0936291886854091
 40
0.0936291886854091
 40
0.187258377370818
 40
0.187258377370818
 40
0.309483020098386
 40
0.309483020098386
 40
0.431707662825948
 40
0.431707662825948
 40
0.431707662825948
 40
0.431707662825948
 10
151.5452510833736
 20
180.345059878008
 30
0.0
 10
151.3892024355646
 20
180.345059878008
 30
0.0
 10
151.2269914353715
 20
180.3701319530506
 30
0.0
 10
150.9359002041129
 20
180.4628501230908
 30
0.0
 10
150.8067512534418
 20
180.5300887847071
 30
0.0
 10
150.5739086450448
 20
180.6946686651702
 30
0.0
 10
150.467602903098
 20
180.8094298856968
 30
0.0
 10
150.3282136420673
 20
181.0509028706736
 30
0.0
 10
150.2952510833736
 20
181.1775755643976
 30
0.0
 10
150.2952510833736
 20
181.2932997868734
 30
0.0
  0
SPLINE
  5
170
330
1F
100
AcDbEntity
  8
VISIBLE
100
AcDbSpline
210
0.0
220
0.0
230
1.0
 70
     8
 71
     3
 72
    22
 73
    18
 74
     0
 42
0.000000001
 43
0.000001
 40
0.431707662825948
 40
0.431707662825948
 40
0.431707662825948
 40
0.431707662825948
 40
0.550059731384823
 40
0.550059731384823
 40
0.668411799943693
 40
0.668411799943693
 40
0.761453032085687
 40
0.761453032085687
 40
0.854494264227682
 40
0.854494264227682
 40
0.947535496369676
 40
0.947535496369676
 40
1.04057672851167
 40
1.04057672851167
 40
1.15892879707054
 40
1.15892879707054
 40
1.27728086562941
 40
1.27728086562941
 40
1.27728086562941
 40
1.27728086562941
 10
150.2952510833736
 20
181.2932997868734
 30
0.0
 10
150.2952510833736
 20
181.4053573949526
 30
0.0
 10
150.3262872372225
 20
181.5246145676624
 30
0.0
 10
150.4624299195283
 20
181.7441657339339
 30
0.0
 10
150.56763462315
 20
181.8445111292165
 30
0.0
 10
150.8014529679012
 20
181.9858745337523
 30
0.0
 10
150.9330247066048
 20
182.042074528805
 30
0.0
 10
151.2273323775215
 20
182.1178144827253
 30
0.0
 10
151.3901823631369
 20
182.1373189523093
 30
0.0
 10
151.7003198036103
 20
182.1373189523093
 30
0.0
 10
151.8631697892257
 20
182.1178144827253
 30
0.0
 10
152.1574774601424
 20
182.042074528805
 30
0.0
 10
152.2890491988461
 20
181.9858745337523
 30
0.0
 10
152.5228675435972
 20
181.8445111292165
 30
0.0
 10
152.6280722472189
 20
181.7441657339339
 30
0.0
 10
152.7642149295247
 20
181.5246145676624
 30
0.0
 10
152.7952510833736
 20
181.4053573949526
 30
0.0
 10
152.7952510833736
 20
181.2932997868734
 30
0.0
  0
SPLINE
  5
171
330
1F
100
AcDbEntity
  8
VISIBLE
100
AcDbSpline
210
0.0
220
0.0
230
1.0
 70
     8
 71
     3
 72
    14
 73
    10
 74
     0
 42
0.000000001
 43
0.000001
 40
1.27728086562941
 40
1.27728086562941
 40
1.27728086562941
 40
1.27728086562941
 40
1.39950550835698
 40
1.39950550835698
 40
1.52173015108455
 40
1.52173015108455
 40
1.61535933976995
 40
1.61535933976995
 40
1.70898852845536
 40
1.70898852845536
 40
1.70898852845536
 40
1.70898852845536
 10
152.7952510833736
 20
181.2932997868734
 30
0.0
 10
152.7952510833736
 20
181.1775755643976
 30
0.0
 10
152.76228852468
 20
181.0509028706736
 30
0.0
 10
152.6228992636492
 20
180.8094298856968
 30
0.0
 10
152.5165935217025
 20
180.6946686651703
 30
0.0
 10
152.2837509133054
 20
180.5300887847071
 30
0.0
 10
152.1546019626343
 20
180.4628501230908
 30
0.0
 10
151.8635107313757
 20
180.3701319530506
 30
0.0
 10
151.7012997311826
 20
180.345059878008
 30
0.0
 10
151.5452510833736
 20
180.345059878008
 30
0.0
  0
LINE
  5
172
330
1F
100
AcDbEntity
  8
VISIBLE
100
AcDbLine
 10
148.2952510833736
 20
151.4549023624686
 30
0.0
 11
154.2952510833736
 21
151.4549023624686
 31
0.0
  0
LINE
  5
173
330
1F
100
AcDbEntity
  8
VISIBLE
100
AcDbLine
 10
152.3574883260048
 20
191.1152503061159
 30
0.0
 11
151.3574883260047
 21
190.6724321007958
 31
0.0
  0
LINE
  5
174
330
1F
100
AcDbEntity
  8
VISIBLE
100
AcDbLine
 10
154.2952510833736
 20
146.8052912486714
 30
0.0
 11
154.2952510833736
 21
145.5445385145873
 31
0.0
  0
LINE
  5
175
330
1F
100
AcDbEntity
  8
VISIBLE
100
AcDbLine
 10
143.1452510833736
 20
146.604295949333
 30
0.0
 11
143.1452510833736
 21
156.604295949333
 31
0.0
  0
LINE
  5
176
330
1F
100
AcDbEntity
  8
VISIBLE
100
AcDbLine
 10
143.1452510833736
 20
156.604295949333
 30
0.0
 11
143.1452510833736
 21
166.604295949333
 31
0.0
  0
SPLINE
  5
177
330
1F
100
AcDbEntity
  8
VISIBLE
100
AcDbSpline
210
0.0
220
0.0
230
1.0
 70
     8
 71
     3
 72
    14
 73
    10
 74
     0
 42
0.000000001
 43
0.000001
 40
0.0
 40
0.0
 40
0.0
 40
0.0
 40
0.0936291886854091
 40
0.0936291886854091
 40
0.187258377370818
 40
0.187258377370818
 40
0.309483020098386
 40
0.309483020098386
 40
0.431707662825947
 40
0.431707662825947
 40
0.431707662825947
 40
0.431707662825947
 10
145.7952510833736
 20
180.345059878008
 30
0.0
 10
145.6392024355646
 20
180.345059878008
 30
0.0
 10
145.4769914353715
 20
180.3701319530506
 30
0.0
 10
145.1859002041129
 20
180.4628501230908
 30
0.0
 10
145.0567512534418
 20
180.5300887847071
 30
0.0
 10
144.8239086450448
 20
180.6946686651703
 30
0.0
 10
144.717602903098
 20
180.8094298856968
 30
0.0
 10
144.5782136420673
 20
181.0509028706736
 30
0.0
 10
144.5452510833736
 20
181.1775755643976
 30
0.0
 10
144.5452510833736
 20
181.2932997868734
 30
0.0
  0
SPLINE
  5
178
330
1F
100
AcDbEntity
  8
VISIBLE
100
AcDbSpline
210
0.0
220
0.0
230
1.0
 70
     8
 71
     3
 72
    22
 73
    18
 74
     0
 42
0.000000001
 43
0.000001
 40
0.431707662825947
 40
0.431707662825947
 40
0.431707662825947
 40
0.431707662825947
 40
0.550059731384823
 40
0.550059731384823
 40
0.668411799943693
 40
0.668411799943693
 40
0.761453032085687
 40
0.761453032085687
 40
0.854494264227682
 40
0.854494264227682
 40
0.947535496369676
 40
0.947535496369676
 40
1.04057672851167
 40
1.04057672851167
 40
1.15892879707054
 40
1.15892879707054
 40
1.27728086562941
 40
1.27728086562941
 40
1.27728086562941
 40
1.27728086562941
 10
144.5452510833736
 20
181.2932997868734
 30
0.0
 10
144.5452510833736
 20
181.4053573949526
 30
0.0
 10
144.5762872372225
 20
181.5246145676624
 30
0.0
 10
144.7124299195283
 20
181.7441657339339
 30
0.0
 10
144.81763462315
 20
181.8445111292165
 30
0.0
 10
145.0514529679012
 20
181.9858745337523
 30
0.0
 10
145.1830247066048
 20
182.042074528805
 30
0.0
 10
145.4773323775215
 20
182.1178144827253
 30
0.0
 10
145.640182363137
 20
182.1373189523093
 30
0.0
 10
145.9503198036103
 20
182.1373189523093
 30
0.0
 10
146.1131697892258
 20
182.1178144827253
 30
0.0
 10
146.4074774601424
 20
182.042074528805
 30
0.0
 10
146.5390491988461
 20
181.9858745337523
 30
0.0
 10
146.7728675435972
 20
181.8445111292165
 30
0.0
 10
146.878072247219
 20
181.7441657339339
 30
0.0
 10
147.0142149295247
 20
181.5246145676624
 30
0.0
 10
147.0452510833736
 20
181.4053573949526
 30
0.0
 10
147.0452510833736
 20
181.2932997868734
 30
0.0
  0
SPLINE
  5
179
330
1F
100
AcDbEntity
  8
VISIBLE
100
AcDbSpline
210
0.0
220
0.0
230
1.0
 70
     8
 71
     3
 72
    14
 73
    10
 74
     0
 42
0.000000001
 43
0.000001
 40
1.27728086562941
 40
1.27728086562941
 40
1.27728086562941
 40
1.27728086562941
 40
1.39950550835698
 40
1.39950550835698
 40
1.52173015108455
 40
1.52173015108455
 40
1.61535933976995
 40
1.61535933976995
 40
1.70898852845536
 40
1.70898852845536
 40
1.70898852845536
 40
1.70898852845536
 10
147.0452510833736
 20
181.2932997868734
 30
0.0
 10
147.0452510833736
 20
181.1775755643976
 30
0.0
 10
147.01228852468
 20
181.0509028706736
 30
0.0
 10
146.8728992636493
 20
180.8094298856968
 30
0.0
 10
146.7665935217025
 20
180.6946686651703
 30
0.0
 10
146.5337509133054
 20
180.5300887847071
 30
0.0
 10
146.4046019626343
 20
180.4628501230908
 30
0.0
 10
146.1135107313757
 20
180.3701319530506
 30
0.0
 10
145.9512997311826
 20
180.345059878008
 30
0.0
 10
145.7952510833736
 20
180.345059878008
 30
0.0
  0
LINE
  5
17A
330
1F
100
AcDbEntity
  8
VISIBLE
100
AcDbLine
 10
154.2952510833736
 20
141.6042959493331
 30
0.0
 11
154.2952510833736
 21
128.3836279254274
 31
0.0
  0
SPLINE
  5
17B
330
1F
100
AcDbEntity
  8
VISIBLE
100
AcDbSpline
210
0.0
220
0.0
230
1.0
 70
     8
 71
     3
 72
    14
 73
    10
 74
     0
 42
0.000000001
 43
0.000001
 40
0.0
 40
0.0
 40
0.0
 40
0.0
 40
0.0936684584326101
 40
0.0936684584326101
 40
0.18733691686522
 40
0.18733691686522
 40
0.320284719701522
 40
0.320284719701522
 40
0.453232522537821
 40
0.453232522537821
 40
0.453232522537821
 40
0.453232522537821
 10
151.2952510833736
 20
139.7081237647842
 30
0.0
 10
151.4513651807613
 20
139.7081237647842
 30
0.0
 10
151.6116812534892
 20
139.6712425924827
 30
0.0
 10
151.897029770815
 20
139.5386231700051
 30
0.0
 10
152.0224472364086
 20
139.4435242486804
 30
0.0
 10
152.2593321588714
 20
139.2029155900214
 30
0.0
 10
152.3686320996866
 20
139.0295689922323
 30
0.0
 10
152.51174691889
 20
138.6648288614215
 30
0.0
 10
152.5452510833736
 20
138.4734021433399
 30
0.0
 10
152.5452510833736
 20
138.2978587097929
 30
0.0
  0
SPLINE
  5
17C
330
1F
100
AcDbEntity
  8
VISIBLE
100
AcDbSpline
210
0.0
220
0.0
230
1.0
 70
     8
 71
     3
 72
    22
 73
    18
 74
     0
 42
0.000000001
 43
0.000001
 40
0.453232522537821
 40
0.453232522537821
 40
0.453232522537821
 40
0.453232522537821
 40
0.580747538912681
 40
0.580747538912681
 40
0.708262555287539
 40
0.708262555287539
 40
0.801021832264179
 40
0.801021832264179
 40
0.893781109240819
 40
0.893781109240819
 40
0.986540386217459
 40
0.986540386217459
 40
1.0792996631941
 40
1.0792996631941
 40
1.20681467956896
 40
1.20681467956896
 40
1.33432969594381
 40
1.33432969594381
 40
1.33432969594381
 40
1.33432969594381
 10
152.5452510833736
 20
138.2978587097929
 30
0.0
 10
152.5452510833736
 20
138.1294886929465
 30
0.0
 10
152.5142927638656
 20
137.9486709257115
 30
0.0
 10
152.3754693828789
 20
137.612031840987
 30
0.0
 10
152.2675892777953
 20
137.4561603173658
 30
0.0
 10
152.029325789817
 20
137.2421110420004
 30
0.0
 10
151.900752079407
 20
137.1590043508701
 30
0.0
 10
151.6111039721857
 20
137.0458607246235
 30
0.0
 10
151.4498498783347
 20
137.0160151362391
 30
0.0
 10
151.1406522884126
 20
137.0160151362391
 30
0.0
 10
150.9793981945615
 20
137.0458607246235
 30
0.0
 10
150.6897500873402
 20
137.1590043508701
 30
0.0
 10
150.5611763769303
 20
137.2421110420004
 30
0.0
 10
150.3229128889519
 20
137.4561603173658
 30
0.0
 10
150.2150327838683
 20
137.612031840987
 30
0.0
 10
150.0762094028816
 20
137.9486709257115
 30
0.0
 10
150.0452510833736
 20
138.1294886929465
 30
0.0
 10
150.0452510833736
 20
138.2978587097929
 30
0.0
  0
SPLINE
  5
17D
330
1F
100
AcDbEntity
  8
VISIBLE
100
AcDbSpline
210
0.0
220
0.0
230
1.0
 70
     8
 71
     3
 72
    14
 73
    10
 74
     0
 42
0.000000001
 43
0.000001
 40
1.33432969594381
 40
1.33432969594381
 40
1.33432969594381
 40
1.33432969594381
 40
1.46727749878012
 40
1.46727749878012
 40
1.60022530161642
 40
1.60022530161642
 40
1.69389376004903
 40
1.69389376004903
 40
1.78756221848164
 40
1.78756221848164
 40
1.78756221848164
 40
1.78756221848164
 10
150.0452510833736
 20
138.2978587097929
 30
0.0
 10
150.0452510833736
 20
138.4734021433399
 30
0.0
 10
150.0787552478573
 20
138.6648288614215
 30
0.0
 10
150.2218700670606
 20
139.0295689922323
 30
0.0
 10
150.3311700078758
 20
139.2029155900214
 30
0.0
 10
150.5680549303387
 20
139.4435242486804
 30
0.0
 10
150.6934723959322
 20
139.5386231700051
 30
0.0
 10
150.9788209132581
 20
139.6712425924827
 30
0.0
 10
151.1391369859859
 20
139.7081237647842
 30
0.0
 10
151.2952510833736
 20
139.7081237647842
 30
0.0
  0
SPLINE
  5
17E
330
1F
100
AcDbEntity
  8
VISIBLE
100
AcDbSpline
210
0.0
220
0.0
230
1.0
 70
     8
 71
     3
 72
    10
 73
     6
 74
     0
 42
0.000000001
 43
0.000001
 40
0.347873016944118
 40
0.347873016944118
 40
0.347873016944118
 40
0.347873016944118
 40
0.374929195944667
 40
0.374929195944667
 40
0.527370697894613
 40
0.527370697894613
 40
0.527370697894613
 40
0.527370697894613
 10
150.0259829043505
 20
186.2041393405647
 30
0.0
 10
150.0083838700313
 20
186.2114075655305
 30
0.0
 10
149.9921843459263
 20
186.2186923199539
 30
0.0
 10
149.8943748368959
 20
186.2668480145677
 30
0.0
 10
149.8574883260047
 20
186.3067900954845
 30
0.0
 10
149.8574883260047
 20
186.3404144303005
 30
0.0
  0
SPLINE
  5
17F
330
1F
100
AcDbEntity
  8
VISIBLE
100
AcDbSpline
210
0.0
220
0.0
230
1.0
 70
     8
 71
     3
 72
    10
 73
     6
 74
     0
 42
0.000000001
 43
0.000001
 40
1.61874962725935
 40
1.61874962725935
 40
1.61874962725935
 40
1.61874962725935
 40
1.7711911292093
 40
1.7711911292093
 40
1.79824730820983
 40
1.79824730820983
 40
1.79824730820983
 40
1.79824730820983
 10
152.8574883260047
 20
186.3404144303005
 30
0.0
 10
152.8574883260047
 20
186.3067900954845
 30
0.0
 10
152.8206018151135
 20
186.2668480145677
 30
0.0
 10
152.7227923060832
 20
186.2186923199539
 30
0.0
 10
152.7065927819782
 20
186.2114075655305
 30
0.0
 10
152.688993747659
 20
186.2041393405648
 30
0.0
  0
LINE
  5
180
330
1F
100
AcDbEntity
  8
VISIBLE
100
AcDbLine
 10
154.2952510833736
 20
151.4549023624686
 30
0.0
 11
154.2952510833736
 21
146.8052912486714
 31
0.0
  0
LINE
  5
181
330
1F
100
AcDbEntity
  8
VISIBLE
100
AcDbLine
 10
150.3574883260047
 20
191.115250306116
 30
0.0
 11
150.3574883260047
 21
192.0008867167563
 31
0.0
  0
LINE
  5
182
330
1F
100
AcDbEntity
  8
VISIBLE
100
AcDbLine
 10
151.3574883260047
 20
190.6724321007958
 30
0.0
 11
150.3574883260047
 21
191.115250306116
 31
0.0
  0
LINE
  5
183
330
1F
100
AcDbEntity
  8
VISIBLE
100
AcDbLine
 10
152.3574883260047
 20
185.3628730801337
 30
0.0
 11
151.3574883260047
 21
184.9200548748135
 31
0.0
  0
LINE
  5
184
330
1F
100
AcDbEntity
  8
VISIBLE
100
AcDbLine
 10
151.9084361891289
 20
185.1640246187872
 30
0.0
 11
151.3574883260047
 21
185.4079943627608
 31
0.0
  0
LINE
  5
185
330
1F
100
AcDbEntity
  8
VISIBLE
100
AcDbLine
 10
154.2952510833736
 20
128.3836279254274
 30
0.0
 11
143.2952510833736
 21
128.3836279254274
 31
0.0
  0
SPLINE
  5
186
330
1F
100
AcDbEntity
  8
VISIBLE
100
AcDbSpline
210
0.0
220
0.0
230
1.0
 70
     8
 71
     3
 72
    26
 73
    22
 74
     0
 42
0.000000001
 43
0.000001
 40
0.0
 40
0.0
 40
0.0
 40
0.0
 40
0.28934306341728
 40
0.28934306341728
 40
0.587978363517294
 40
0.587978363517294
 40
0.905766310252875
 40
0.905766310252875
 40
1.23759716979177
 40
1.23759716979177
 40
1.57447191864226
 40
1.57447191864226
 40
1.91220115618178
 40
1.91220115618178
 40
2.2490223380426
 40
2.2490223380426
 40
2.58048201383432
 40
2.58048201383432
 40
2.89662199788633
 40
2.89662199788633
 40
3.14159265358979
 40
3.14159265358979
 40
3.14159265358979
 40
3.14159265358979
 10
152.8574883260047
 20
191.3976518447695
 30
0.0
 10
152.8574883260047
 20
191.5215564277316
 30
0.0
 10
152.8337482201063
 20
191.6453083831891
 30
0.0
 10
152.7419769683518
 20
191.8817465468568
 30
0.0
 10
152.6727906662446
 20
191.9938812912741
 30
0.0
 10
152.4941740392375
 20
192.1993861277027
 30
0.0
 10
152.3825331132711
 20
192.2912240886553
 30
0.0
 10
152.1273434668233
 20
192.4447119259891
 30
0.0
 10
151.9825677214446
 20
192.5049071495968
 30
0.0
 10
151.6760515255606
 20
192.5862735781749
 30
0.0
 10
151.5140840826917
 20
192.606830316138
 30
0.0
 10
151.1898834007158
 20
192.6059163517917
 30
0.0
 10
151.0276739637044
 20
192.5843386151399
 30
0.0
 10
150.7192228670798
 20
192.5002785030139
 30
0.0
 10
150.5729358066208
 20
192.4379107541033
 30
0.0
 10
150.3127468956882
 20
192.2771184607493
 30
0.0
 10
150.1983291207717
 20
192.1792053480123
 30
0.0
 10
150.0175232363197
 20
191.9585599426458
 30
0.0
 10
149.9492857233621
 20
191.8370254007835
 30
0.0
 10
149.8744379085333
 20
191.6073893910308
 30
0.0
 10
149.8574883260047
 20
191.5025549538138
 30
0.0
 10
149.8574883260047
 20
191.3976518447695
 30
0.0
  0
LINE
  5
187
330
1F
100
AcDbEntity
  8
VISIBLE
100
AcDbLine
 10
152.8574883260047
 20
185.6452746187871
 30
0.0
 11
152.8574883260047
 21
183.8127363261024
 31
0.0
  0
SPLINE
  5
188
330
1F
100
AcDbEntity
  8
VISIBLE
100
AcDbSpline
210
0.0
220
0.0
230
1.0
 70
     8
 71
     3
 72
    26
 73
    22
 74
     0
 42
0.000000001
 43
0.000001
 40
0.0
 40
0.0
 40
0.0
 40
0.0
 40
0.28934306341728
 40
0.28934306341728
 40
0.587978363517294
 40
0.587978363517294
 40
0.905766310252875
 40
0.905766310252875
 40
1.23759716979177
 40
1.23759716979177
 40
1.57447191864226
 40
1.57447191864226
 40
1.91220115618178
 40
1.91220115618178
 40
2.2490223380426
 40
2.2490223380426
 40
2.58048201383432
 40
2.58048201383432
 40
2.89662199788633
 40
2.89662199788633
 40
3.14159265358979
 40
3.14159265358979
 40
3.14159265358979
 40
3.14159265358979
 10
152.8574883260047
 20
185.6452746187871
 30
0.0
 10
152.8574883260047
 20
185.7691792017492
 30
0.0
 10
152.8337482201063
 20
185.8929311572068
 30
0.0
 10
152.7419769683518
 20
186.1293693208744
 30
0.0
 10
152.6727906662446
 20
186.2415040652918
 30
0.0
 10
152.4941740392375
 20
186.4470089017204
 30
0.0
 10
152.3825331132711
 20
186.538846862673
 30
0.0
 10
152.1273434668233
 20
186.6923347000068
 30
0.0
 10
151.9825677214446
 20
186.7525299236144
 30
0.0
 10
151.6760515255606
 20
186.8338963521927
 30
0.0
 10
151.5140840826917
 20
186.8544530901557
 30
0.0
 10
151.1898834007158
 20
186.8535391258094
 30
0.0
 10
151.0276739637044
 20
186.8319613891576
 30
0.0
 10
150.7192228670798
 20
186.7479012770316
 30
0.0
 10
150.5729358066208
 20
186.6855335281209
 30
0.0
 10
150.3127468956882
 20
186.524741234767
 30
0.0
 10
150.1983291207717
 20
186.42682812203
 30
0.0
 10
150.0175232363197
 20
186.2061827166635
 30
0.0
 10
149.9492857233621
 20
186.0846481748011
 30
0.0
 10
149.8744379085333
 20
185.8550121650484
 30
0.0
 10
149.8574883260047
 20
185.7501777278315
 30
0.0
 10
149.8574883260047
 20
185.6452746187871
 30
0.0
  0
LINE
  5
189
330
1F
100
AcDbEntity
  8
VISIBLE
100
AcDbLine
 10
143.2952510833736
 20
146.604295949333
 30
0.0
 11
143.1452510833736
 21
146.604295949333
 31
0.0
  0
LINE
  5
18A
330
1F
100
AcDbEntity
  8
VISIBLE
100
AcDbLine
 10
152.8574883260047
 20
191.3976518447695
 30
0.0
 11
152.8574883260047
 21
186.3404144303005
 31
0.0
  0
LINE
  5
18B
330
1F
100
AcDbEntity
  8
VISIBLE
100
AcDbLine
 10
143.2952510833736
 20
166.604295949333
 30
0.0
 11
143.1452510833736
 21
166.604295949333
 31
0.0
  0
LINE
  5
18C
330
1F
100
AcDbEntity
  8
VISIBLE
100
AcDbLine
 10
149.8574883260047
 20
191.3976518447695
 30
0.0
 11
149.8574883260047
 21
186.3404144303005
 31
0.0
  0
LINE
  5
18D
330
1F
100
AcDbEntity
  8
VISIBLE
100
AcDbLine
 10
149.8574883260047
 20
185.6452746187871
 30
0.0
 11
149.8574883260047
 21
183.8127363261024
 31
0.0
  0
ELLIPSE
  5
18E
330
1F
100
AcDbEntity
  8
TANGENT EDGES
100
AcDbEllipse
 10
151.3574883260047
 20
185.8056912854538
 30
0.0
 11
-1.25
 21
0.0
 31
0.0
210
0.0
220
0.0
230
1.0
 40
0.7669836301309715
 41
0.0
 42
6.283185307179586
  0
ELLIPSE
  5
18F
330
1F
100
AcDbEntity
  8
TANGENT EDGES
100
AcDbEllipse
 10
151.3574883260047
 20
191.3976518447695
 30
0.0
 11
1.5
 21
0.0
 31
0.0
210
0.0
220
0.0
230
1.0
 40
0.7669836301310132
 41
3.141592653589793
 42
6.283185307179586
  0
ELLIPSE
  5
190
330
1F
100
AcDbEntity
  8
TANGENT EDGES
100
AcDbEllipse
 10
151.3574883260047
 20
185.6452746187871
 30
0.0
 11
1.5
 21
0.0
 31
0.0
210
0.0
220
0.0
230
1.0
 40
0.7669836301309753
 41
3.141592653589793
 42
6.283185307179586
  0
ELLIPSE
  5
191
330
1F
100
AcDbEntity
  8
TANGENT EDGES
100
AcDbEllipse
 10
151.3574883260047
 20
191.5580685114361
 30
0.0
 11
-1.25
 21
0.0
 31
0.0
210
0.0
220
0.0
230
1.0
 40
0.7669836301309715
 41
0.0
 42
6.283185307179586
  0
LINE
  5
192
330
1F
100
AcDbEntity
  8
TANGENT EDGES
100
AcDbLine
 10
154.2952510833736
 20
146.8052912486714
 30
0.0
 11
148.2952510833736
 21
146.8052912486714
 31
0.0
  0
DIMENSION
  5
193
330
1F
100
AcDbEntity
  8
DIMENSIONS
100
AcDbDimension
  2
D15
 10
0.0
 20
0.0
 30
0.0
 11
285.850983810424
 21
312.8277456563639
 31
0.0
 70
    32
  1
<>
 71
     5
 42
-1.0
 73
     0
 74
     0
 75
     0
 53
270.0
  3
ISO-25
100
AcDbAlignedDimension
 13
143.1452510833736
 23
166.604295949333
 33
0.0
 14
143.1452510833736
 24
146.604295949333
 34
0.0
 50
270.0
100
AcDbRotatedDimension
1001
ACAD
1000
DSTYLE
1002
{
1070
    76
1070
     0
1070
    75
1070
     0
1070
   282
1070
     0
1070
   281
1070
     0
1070
    77
1070
     0
1070
    79
1070
     0
1070
    78
1070
     0
1070
   272
1070
     3
1070
   271
1070
     3
1070
   179
1070
     3
1070
   140
1040
2.275416666666667
1070
    71
1070
     0
1070
    72
1070
     0
1070
    48
1040
0.002
1070
    47
1040
0.005
1002
}
  0
DIMENSION
  5
1A0
330
1F
100
AcDbEntity
  8
DIMENSIONS
100
AcDbDimension
  2
D16
 10
0.0
 20
0.0
 30
0.0
 11
303.0155021667472
 21
318.3273794454263
 31
0.0
 70
    32
  1
<>
 71
     5
 42
-1.0
 73
     0
 74
     0
 75
     0
 53
180.0
  3
ISO-25
100
AcDbAlignedDimension
 13
154.2952510833736
 23
151.4549023624686
 33
0.0
 14
143.1452510833736
 24
166.604295949333
 34
0.0
 50
180.0
100
AcDbRotatedDimension
1001
ACAD
1000
DSTYLE
1002
{
1070
    76
1070
     0
1070
    75
1070
     0
1070
   282
1070
     0
1070
   281
1070
     0
1070
    77
1070
     0
1070
    79
1070
     0
1070
    78
1070
     0
1070
   272
1070
     3
1070
   271
1070
     3
1070
   179
1070
     3
1070
   140
1040
2.275416666666667
1070
    71
1070
     0
1070
    72
1070
     0
1070
    48
1040
0.002
1070
    47
1040
0.005
1002
}
  0
DIMENSION
  5
1AD
330
1F
100
AcDbEntity
  8
DIMENSIONS
100
AcDbDimension
  2
D17
 10
0.0
 20
0.0
 30
0.0
 11
303.0905021667472
 21
329.7062551778483
 31
0.0
 70
    32
  1
<>
 71
     5
 42
-1.0
 73
     0
 74
     0
 75
     0
  3
ISO-25
100
AcDbAlignedDimension
 13
143.2952510833736
 23
179.5291306399054
 33
0.0
 14
154.2952510833736
 24
179.5291306399054
 34
0.0
100
AcDbRotatedDimension
1001
ACAD
1000
DSTYLE
1002
{
1070
    76
1070
     0
1070
    75
1070
     0
1070
   282
1070
     0
1070
   281
1070
     0
1070
    77
1070
     0
1070
    79
1070
     0
1070
    78
1070
     0
1070
   272
1070
     3
1070
   271
1070
     3
1070
   179
1070
     3
1070
   140
1040
2.275416666666667
1070
    71
1070
     0
1070
    72
1070
     0
1070
    48
1040
0.002
1070
    47
1040
0.005
1002
}
  0
DIMENSION
  5
1BA
330
1F
100
AcDbEntity
  8
DIMENSIONS
100
AcDbDimension
  2
D18
 10
0.0
 20
0.0
 30
0.0
 11
315.3993465423576
 21
338.7056448262858
 31
0.0
 70
    32
  1
<>
 71
     5
 42
-1.0
 73
     0
 74
     0
 75
     0
  3
ISO-25
100
AcDbAlignedDimension
 13
151.5452510833736
 23
180.345059878008
 33
0.0
 14
154.2952510833736
 24
179.5291306399054
 34
0.0
100
AcDbRotatedDimension
1001
ACAD
1000
DSTYLE
1002
{
1070
    76
1070
     0
1070
    75
1070
     0
1070
   282
1070
     0
1070
   281
1070
     0
1070
    77
1070
     0
1070
    79
1070
     0
1070
    78
1070
     0
1070
   272
1070
     3
1070
   271
1070
     3
1070
   179
1070
     3
1070
   140
1040
2.275416666666667
1070
    71
1070
     0
1070
    72
1070
     0
1070
    48
1040
0.002
1070
    47
1040
0.005
1002
}
  0
DIMENSION
  5
1C8
330
1F
100
AcDbEntity
  8
DIMENSIONS
100
AcDbDimension
  2
D19
 10
0.0
 20
0.0
 30
0.0
 11
291.632821273803
 21
335.7348348897623
 31
0.0
 70
    32
  1
<>
 71
     5
 42
-1.0
 73
     0
 74
     0
 75
     0
 53
180.0
  3
ISO-25
100
AcDbAlignedDimension
 13
151.5452510833736
 23
180.345059878008
 33
0.0
 14
145.7952510833736
 24
180.345059878008
 34
0.0
 50
180.0
100
AcDbRotatedDimension
1001
ACAD
1000
DSTYLE
1002
{
1070
    76
1070
     0
1070
    75
1070
     0
1070
   282
1070
     0
1070
   281
1070
     0
1070
    77
1070
     0
1070
    79
1070
     0
1070
    78
1070
     0
1070
   272
1070
     3
1070
   271
1070
     3
1070
   179
1070
     3
1070
   140
1040
2.275416666666667
1070
    71
1070
     0
1070
    72
1070
     0
1070
    48
1040
0.002
1070
    47
1040
0.005
1002
}
  0
DIMENSION
  5
1D6
330
1F
100
AcDbEntity
  8
DIMENSIONS
100
AcDbDimension
  2
D20
 10
0.0
 20
0.0
 30
0.0
 11
313.7973415374752
 21
291.1728842061689
 31
0.0
 70
    32
  1
<>
 71
     5
 42
-1.0
 73
     0
 74
     0
 75
     0
  3
ISO-25
100
AcDbAlignedDimension
 13
151.2952510833736
 23
132.8851750942392
 33
0.0
 14
154.2952510833736
 24
128.3836279254274
 34
0.0
100
AcDbRotatedDimension
1001
ACAD
1000
DSTYLE
1002
{
1070
    76
1070
     0
1070
    75
1070
     0
1070
   282
1070
     0
1070
   281
1070
     0
1070
    77
1070
     0
1070
    79
1070
     0
1070
    78
1070
     0
1070
   272
1070
     3
1070
   271
1070
     3
1070
   179
1070
     3
1070
   140
1040
2.275416666666667
1070
    71
1070
     0
1070
    72
1070
     0
1070
    48
1040
0.002
1070
    47
1040
0.005
1002
}
  0
CIRCLE
  5
1E4
330
1F
100
AcDbEntity
  8
VISIBLE
100
AcDbCircle
 10
239.6612528625416
 20
152.7563051883263
 30
0.0
 40
1.625
  0
LINE
  5
1E5
330
1F
100
AcDbEntity
  8
VISIBLE
100
AcDbLine
 10
258.4729255370154
 20
186.7644208231175
 30
0.0
 11
260.0770922036821
 21
184.8469617477901
 31
0.0
  0
LINE
  5
1E6
330
1F
100
AcDbEntity
  8
VISIBLE
100
AcDbLine
 10
263.6063154641928
 20
179.5291306399054
 30
0.0
 11
270.2363164968298
 21
141.6042959493331
 31
0.0
  0
ARC
  5
1E7
330
1F
100
AcDbEntity
  8
VISIBLE
100
AcDbCircle
 10
244.2555543832966
 20
156.6042959493329
 30
0.0
 40
30.00000000000004
100
AcDbArc
 50
49.83242239646375
 51
90.0
  0
CIRCLE
  5
1E8
330
1F
100
AcDbEntity
  8
VISIBLE
100
AcDbCircle
 10
220.625692245943
 20
162.0568426115695
 30
0.0
 40
2.5
  0
CIRCLE
  5
1E9
330
1F
100
AcDbEntity
  8
VISIBLE
100
AcDbCircle
 10
244.2555543832966
 20
156.604295949333
 30
0.0
 40
3.775000000000006
  0
CIRCLE
  5
1EA
330
1F
100
AcDbEntity
  8
VISIBLE
100
AcDbCircle
 10
249.8972891255499
 20
154.5450834710144
 30
0.0
 40
1.625
  0
LINE
  5
1EB
330
1F
100
AcDbEntity
  8
VISIBLE
100
AcDbLine
 10
214.7266846232541
 20
161.9001292826663
 30
0.0
 11
244.2555543832966
 21
186.604295949333
 31
0.0
  0
ARC
  5
1EC
330
1F
100
AcDbEntity
  8
VISIBLE
100
AcDbCircle
 10
244.2555543832964
 20
156.6042959493333
 30
0.0
 40
30.00000000000038
100
AcDbArc
 50
289.8324223964638
 51
330.0000000000002
  0
CIRCLE
  5
1ED
330
1F
100
AcDbEntity
  8
VISIBLE
100
AcDbCircle
 10
251.3484415271567
 20
133.4139617193425
 30
0.0
 40
2.5
  0
ARC
  5
1EE
330
1F
100
AcDbEntity
  8
VISIBLE
100
AcDbCircle
 10
244.2555543832968
 20
156.604295949333
 30
0.0
 40
30.00000000000015
100
AcDbArc
 50
169.8324223964634
 51
210.0000000000001
  0
LINE
  5
1EF
330
1F
100
AcDbEntity
  8
VISIBLE
100
AcDbLine
 10
254.4336630624429
 20
128.3836279254274
 30
0.0
 11
218.2747922697635
 21
141.6042959493329
 31
0.0
  0
CIRCLE
  5
1F0
330
1F
100
AcDbEntity
  8
VISIBLE
100
AcDbCircle
 10
244.2555543832966
 20
156.604295949333
 30
0.0
 40
10.0
  0
CIRCLE
  5
1F1
330
1F
100
AcDbEntity
  8
VISIBLE
100
AcDbCircle
 10
243.2155141916651
 20
162.5340593790525
 30
0.0
 40
1.625
  0
CIRCLE
  5
1F2
330
1F
100
AcDbEntity
  8
VISIBLE
100
AcDbCircle
 10
260.7925293767902
 20
174.3420835170868
 30
0.0
 40
2.5
  0
LINE
  5
1F3
330
1F
100
AcDbEntity
  8
VISIBLE
100
AcDbLine
 10
253.6604255370154
 20
192.5167980490998
 30
0.0
 11
255.2645922036821
 21
190.5993389737724
 31
0.0
  0
LINE
  5
1F4
330
1F
100
AcDbEntity
  8
VISIBLE
100
AcDbLine
 10
260.045762962816
 20
184.4947991735907
 30
0.0
 11
258.3581367918227
 21
183.0829131604097
 31
0.0
  0
LINE
  5
1F5
330
1F
100
AcDbEntity
  8
VISIBLE
100
AcDbLine
 10
255.233262962816
 20
190.247176399573
 30
0.0
 11
250.1741533250108
 21
186.0146714411069
 31
0.0
  0
ARC
  5
1F6
330
1F
100
AcDbEntity
  8
VISIBLE
100
AcDbCircle
 10
253.4686796294827
 20
192.3563813824332
 30
0.0
 40
0.2499999999999829
100
AcDbArc
 50
39.91621119822533
 51
129.9162111982303
  0
LINE
  5
1F7
330
1F
100
AcDbEntity
  8
VISIBLE
100
AcDbLine
 10
258.120762962816
 20
186.7957500639836
 30
0.0
 11
255.3498054135369
 21
184.4775374916799
 31
0.0
  0
LINE
  5
1F8
330
1F
100
AcDbEntity
  8
VISIBLE
100
AcDbLine
 10
253.308262962816
 20
192.5481272899659
 30
0.0
 11
246.1332954175604
 21
186.5454730906586
 31
0.0
  0
ARC
  5
1F9
330
1F
100
AcDbEntity
  8
VISIBLE
100
AcDbCircle
 10
259.8853462961494
 20
184.6865450811234
 30
0.0
 40
0.2499999999999794
100
AcDbArc
 50
309.9162111982345
 51
39.9162111982345
  0
ARC
  5
1FA
330
1F
100
AcDbEntity
  8
VISIBLE
100
AcDbCircle
 10
258.2811796294827
 20
186.6040041564509
 30
0.0
 40
0.2499999999999794
100
AcDbArc
 50
39.9162111982345
 51
129.9162111982345
  0
ARC
  5
1FB
330
1F
100
AcDbEntity
  8
VISIBLE
100
AcDbCircle
 10
255.0728462961493
 20
190.4389223071057
 30
0.0
 40
0.2500000000000194
100
AcDbArc
 50
309.9162111982353
 51
39.91621119823531
  0
LINE
  5
1FC
330
1F
100
AcDbEntity
  8
TANGENT EDGES
100
AcDbLine
 10
255.233262962816
 20
190.247176399573
 30
0.0
 11
253.308262962816
 21
192.5481272899659
 31
0.0
  0
LINE
  5
1FD
330
1F
100
AcDbEntity
  8
TANGENT EDGES
100
AcDbLine
 10
260.045762962816
 20
184.4947991735907
 30
0.0
 11
258.120762962816
 21
186.7957500639836
 31
0.0
  0
DIMENSION
  5
1FE
330
1F
100
AcDbEntity
  8
DIMENSIONS
100
AcDbDimension
  2
D21
 10
0.0
 20
0.0
 30
0.0
 11
500.1212007456013
 21
322.3742239278486
 31
0.0
 70
    32
  1
<>
 71
     5
 42
-1.0
 73
     0
 74
     0
 75
     0
  3
ISO-25
100
AcDbAlignedDimension
 13
237.8276782864312
 23
164.2647403805228
 33
0.0
 14
250.683430480162
 24
148.9438515181432
 34
0.0
100
AcDbRotatedDimension
1001
ACAD
1000
DSTYLE
1002
{
1070
    76
1070
     0
1070
    75
1070
     0
1070
   282
1070
     0
1070
   281
1070
     0
1070
    77
1070
     0
1070
    79
1070
     0
1070
    78
1070
     0
1070
   272
1070
     3
1070
   271
1070
     3
1070
   179
1070
     3
1070
   140
1040
2.275416666666667
1070
    71
1070
     0
1070
    72
1070
     0
1070
    48
1040
0.002
1070
    47
1040
0.005
1002
}
  0
DIMENSION
  5
20B
330
1F
100
AcDbEntity
  8
DIMENSIONS
100
AcDbDimension
  2
D22
 10
0.0
 20
0.0
 30
0.0
 11
474.8965608530232
 21
302.1945211690596
 31
0.0
 70
    32
  1
<>
 71
     5
 42
-1.0
 73
     0
 74
     0
 75
     0
  3
ISO-25
100
AcDbAlignedDimension
 13
246.6820776098633
 23
153.7124781765588
 33
0.0
 14
241.8290311567299
 24
159.4961137221071
 34
0.0
100
AcDbRotatedDimension
1001
ACAD
1000
DSTYLE
1002
{
1070
    76
1070
     0
1070
    75
1070
     0
1070
   282
1070
     0
1070
   281
1070
     0
1070
    77
1070
     0
1070
    79
1070
     0
1070
    78
1070
     0
1070
   272
1070
     3
1070
   271
1070
     3
1070
   179
1070
     3
1070
   140
1040
2.275416666666667
1070
    71
1070
     0
1070
    72
1070
     0
1070
    48
1040
0.002
1070
    47
1040
0.005
1002
}
  0
DIMENSION
  5
218
330
1F
100
AcDbEntity
  8
DIMENSIONS
100
AcDbDimension
  2
D23
 10
0.0
 20
0.0
 30
0.0
 11
494.6375886850544
 21
301.3171407979658
 31
0.0
 70
    32
  1
<>
 71
     5
 42
-1.0
 73
     0
 74
     0
 75
     0
  3
ISO-25
100
AcDbAlignedDimension
 13
251.5222891255499
 23
154.5450834710144
 33
0.0
 14
248.2722891255499
 24
154.5450834710144
 34
0.0
100
AcDbRotatedDimension
1001
ACAD
1000
DSTYLE
1002
{
1070
    76
1070
     0
1070
    75
1070
     0
1070
   282
1070
     0
1070
   281
1070
     0
1070
    77
1070
     0
1070
    79
1070
     0
1070
    78
1070
     0
1070
   272
1070
     3
1070
   271
1070
     3
1070
   179
1070
     3
1070
   140
1040
2.275416666666667
1070
    71
1070
     0
1070
    72
1070
     0
1070
    48
1040
0.002
1070
    47
1040
0.005
1002
}
  0
DIMENSION
  5
225
330
1F
100
AcDbEntity
  8
DIMENSIONS
100
AcDbDimension
  2
D24
 10
0.0
 20
0.0
 30
0.0
 11
503.9036867075154
 21
346.6881124776533
 31
0.0
 70
    32
  1
<>
 71
     5
 42
-1.0
 73
     0
 74
     0
 75
     0
 53
129.9162111982316
  3
ISO-25
100
AcDbAlignedDimension
 13
255.233262962816
 23
190.247176399573
 33
0.0
 14
253.308262962816
 24
192.5481272899659
 34
0.0
 50
129.9162111982316
100
AcDbRotatedDimension
1001
ACAD
1000
DSTYLE
1002
{
1070
    76
1070
     0
1070
    75
1070
     0
1070
   282
1070
     0
1070
   281
1070
     0
1070
    77
1070
     0
1070
    79
1070
     0
1070
    78
1070
     0
1070
   272
1070
     3
1070
   271
1070
     3
1070
   179
1070
     3
1070
   140
1040
2.275416666666667
1070
    71
1070
     0
1070
    72
1070
     0
1070
    48
1040
0.002
1070
    47
1040
0.005
1002
}
  0
MTEXT
  5
234
330
1F
100
AcDbEntity
  8
CONTINUOUS
100
AcDbMText
 10
218.3719635009766
 20
151.4739129638672
 30
0.0
 40
2.275416666666667
 41
0.0
 46
0.0
 71
     1
 72
     1
  1
{\fArial|b0|i0|c0|p0;\C7;8.0mm Deep}{\fArial|b0|i0|c0|p0;\C7;}
 73
     1
 44
1.0
  0
LINE
  5
235
330
1F
100
AcDbEntity
  8
VISIBLE
100
AcDbLine
 10
142.1727491264861
 20
49.75457002163755
 30
0.0
 11
123.3660865239607
 21
42.69292988257006
 31
0.0
  0
LINE
  5
236
330
1F
100
AcDbEntity
  8
VISIBLE
100
AcDbLine
 10
127.583446142727
 20
80.85452745263545
 30
0.0
 11
128.1073647821557
 21
81.88013112137597
 31
0.0
  0
LINE
  5
237
330
1F
100
AcDbEntity
  8
VISIBLE
100
AcDbLine
 10
129.3238491565667
 20
81.47275400987866
 30
0.0
 11
129.1920434340051
 21
81.4585333541482
 31
0.0
  0
LINE
  5
238
330
1F
100
AcDbEntity
  8
VISIBLE
100
AcDbLine
 10
129.5215783445287
 20
81.06363454044819
 30
0.0
 11
128.9976597051001
 21
80.03803087170776
 31
0.0
  0
LINE
  5
239
330
1F
100
AcDbEntity
  8
VISIBLE
100
AcDbLine
 10
129.1920434340051
 20
81.4585333541482
 30
0.0
 11
128.6681247945764
 21
80.43292968540769
 31
0.0
  0
ELLIPSE
  5
23A
330
1F
100
AcDbEntity
  8
VISIBLE
100
AcDbEllipse
 10
154.1758559133262
 20
60.70056183803464
 30
0.0
 11
-0.8836802178077792
 21
0.8840866884268125
 31
0.0
210
0.0
220
0.0
230
1.0
 40
0.3439838322930274
 41
3.141592653589137
 42
3.803816953091033
  0
ELLIPSE
  5
23B
330
1F
100
AcDbEntity
  8
VISIBLE
100
AcDbEllipse
 10
154.1758559133256
 20
60.70056183803498
 30
0.0
 11
0.8836802178082054
 21
-0.8840866884273241
 31
0.0
210
0.0
220
0.0
230
1.0
 40
0.3439838322929333
 41
-3.141592653589829
 42
0.0
  0
ELLIPSE
  5
23C
330
1F
100
AcDbEntity
  8
VISIBLE
100
AcDbEllipse
 10
154.1758559133256
 20
60.70056183803498
 30
0.0
 11
-0.8836802178082054
 21
0.8840866884273525
 31
0.0
210
0.0
220
0.0
230
1.0
 40
0.3439838322929237
 41
3.803816953091347
 42
6.283185307179586
  0
SPLINE
  5
23D
330
1F
100
AcDbEntity
  8
VISIBLE
100
AcDbSpline
210
0.0
220
0.0
230
1.0
 70
     8
 71
     3
 72
    24
 73
    20
 74
     0
 42
0.000000001
 43
0.000001
 40
0.915670519587222
 40
0.915670519587222
 40
0.915670519587222
 40
0.915670519587222
 40
0.952489319702395
 40
0.952489319702395
 40
1.06515255975022
 40
1.06515255975022
 40
1.17781579979805
 40
1.17781579979805
 40
1.30471780648752
 40
1.30471780648752
 40
1.431619813177
 40
1.431619813177
 40
1.55595378705465
 40
1.55595378705465
 40
1.6802877609323
 40
1.6802877609323
 40
1.79263320016854
 40
1.79263320016854
 40
1.86821851704547
 40
1.86821851704547
 40
1.86821851704547
 40
1.86821851704547
 10
131.1872617291181
 20
81.5439669125787
 30
0.0
 10
131.2374790248073
 20
81.52456789008795
 30
0.0
 10
131.2846588534155
 20
81.50215758628545
 30
0.0
 10
131.4608251271902
 20
81.40044794069945
 30
0.0
 10
131.5729611817712
 20
81.2904913314363
 30
0.0
 10
131.7186029860455
 20
81.02921409603209
 30
0.0
 10
131.7524066793711
 20
80.87794402733245
 30
0.0
 10
131.7532767695729
 20
80.5648929250802
 30
0.0
 10
131.7121087982379
 20
80.38028760428546
 30
0.0
 10
131.5520838262656
 20
80.01939482210905
 30
0.0
 10
131.4332652238045
 20
79.84304384321595
 30
0.0
 10
131.1647320270735
 20
79.5439879856598
 30
0.0
 10
130.9964390267431
 20
79.39898180612644
 30
0.0
 10
130.6236918651254
 20
79.16404278253336
 30
0.0
 10
130.4191452358958
 20
79.07425684573289
 30
0.0
 10
130.0470714309594
 20
78.9751911460099
 30
0.0
 10
129.8556930108513
 20
78.95341405475264
 30
0.0
 10
129.5571779402139
 20
78.97787878083875
 30
0.0
 10
129.4429573615383
 20
79.0042505257891
 30
0.0
 10
129.3407429544402
 20
79.04373459805005
 30
0.0
  0
LINE
  5
23E
330
1F
100
AcDbEntity
  8
VISIBLE
100
AcDbLine
 10
132.4793822675168
 20
88.64617590036075
 30
0.0
 11
132.924529728989
 21
87.72512577552666
 31
0.0
  0
LINE
  5
23F
330
1F
100
AcDbEntity
  8
VISIBLE
100
AcDbLine
 10
131.5103161666159
 20
88.54162235645435
 30
0.0
 11
132.7657503649511
 21
88.05365455694334
 31
0.0
  0
LINE
  5
240
330
1F
100
AcDbEntity
  8
VISIBLE
100
AcDbLine
 10
132.924529728989
 20
87.72512577552665
 30
0.0
 11
132.4006110895604
 21
86.6995221067861
 31
0.0
  0
LINE
  5
241
330
1F
100
AcDbEntity
  8
VISIBLE
100
AcDbLine
 10
159.6213553992718
 20
60.40772454471711
 30
0.0
 11
156.9649208291366
 21
57.75251130572346
 31
0.0
  0
LINE
  5
242
330
1F
100
AcDbEntity
  8
VISIBLE
100
AcDbLine
 10
127.5671279469756
 20
72.86670555357006
 30
0.0
 11
119.7889533539235
 21
77.35743674867255
 31
0.0
  0
ELLIPSE
  5
243
330
1F
100
AcDbEntity
  8
VISIBLE
100
AcDbEllipse
 10
141.9856018006072
 20
67.31479773715846
 30
0.0
 11
1.299999999999983
 21
2.251666049839542
 31
0.0
210
0.0
220
0.0
230
1.0
 40
0.5773502691896303
 41
3.141592653589778
 42
5.497787143782136
  0
ELLIPSE
  5
244
330
1F
100
AcDbEntity
  8
VISIBLE
100
AcDbEllipse
 10
141.9856018006072
 20
67.31479773715844
 30
0.0
 11
-1.299999999999983
 21
-2.251666049839557
 31
0.0
210
0.0
220
0.0
230
1.0
 40
0.5773502691896276
 41
-3.141592653589809
 42
0.0
  0
ELLIPSE
  5
245
330
1F
100
AcDbEntity
  8
VISIBLE
100
AcDbEllipse
 10
141.9856018006072
 20
67.31479773715851
 30
0.0
 11
1.300000000000068
 21
2.251666049839486
 31
0.0
210
0.0
220
0.0
230
1.0
 40
0.5773502691896455
 41
-0.7853981633974335
 42
0.0
  0
SPLINE
  5
246
330
1F
100
AcDbEntity
  8
VISIBLE
100
AcDbSpline
210
0.0
220
0.0
230
1.0
 70
     8
 71
     3
 72
    10
 73
     6
 74
     0
 42
0.000000001
 43
0.000001
 40
0.0
 40
0.0
 40
0.0
 40
0.0
 40
0.0972730763704569
 40
0.0972730763704569
 40
0.168493917064616
 40
0.168493917064616
 40
0.168493917064616
 40
0.168493917064616
 10
157.0555262741321
 20
76.2214107034134
 30
0.0
 10
156.9408888542515
 20
76.2875966486407
 30
0.0
 10
156.8475293975117
 20
76.39119108898495
 30
0.0
 10
156.7367900584192
 20
76.61162060354765
 30
0.0
 10
156.7048565720457
 20
76.7173789155218
 30
0.0
 10
156.6844976543995
 20
76.826014433475
 30
0.0
  0
SPLINE
  5
247
330
1F
100
AcDbEntity
  8
VISIBLE
100
AcDbSpline
210
0.0
220
0.0
230
1.0
 70
     8
 71
     3
 72
    20
 73
    16
 74
     0
 42
0.000000001
 43
0.000001
 40
0.850267105429282
 40
0.850267105429282
 40
0.850267105429282
 40
0.850267105429282
 40
0.860478711775697
 40
0.860478711775697
 40
0.954739007356096
 40
0.954739007356096
 40
1.04772029296806
 40
1.04772029296806
 40
1.14070157858003
 40
1.14070157858003
 40
1.23829227659523
 40
1.23829227659523
 40
1.33588297461043
 40
1.33588297461043
 40
1.36930401643896
 40
1.36930401643896
 40
1.36930401643896
 40
1.36930401643896
 10
158.0804212619335
 20
78.25389765201625
 30
0.0
 10
158.0926966661624
 20
78.24206348885821
 30
0.0
 10
158.1048862049236
 20
78.22997423086301
 30
0.0
 10
158.2284654376399
 20
78.1037865588834
 30
0.0
 10
158.3300264582221
 20
77.96884218597
 30
0.0
 10
158.4793804323783
 20
77.69493506295186
 30
0.0
 10
158.537573493177
 20
77.5376910929967
 30
0.0
 10
158.5844367823932
 20
77.2197397559073
 30
0.0
 10
158.572524540918
 20
77.05885448838904
 30
0.0
 10
158.4862278139237
 20
76.7696036817388
 30
0.0
 10
158.4043553739073
 20
76.62662833472235
 30
0.0
 10
158.1866721390288
 20
76.39002932820755
 30
0.0
 10
158.0513343188764
 20
76.29614758854694
 30
0.0
 10
157.8691431492266
 20
76.2120318577385
 30
0.0
 10
157.820233422575
 20
76.19313578526055
 30
0.0
 10
157.7699392775171
 20
76.17737775546775
 30
0.0
  0
SPLINE
  5
248
330
1F
100
AcDbEntity
  8
VISIBLE
100
AcDbSpline
210
0.0
220
0.0
230
1.0
 70
     8
 71
     3
 72
    10
 73
     6
 74
     0
 42
0.000000001
 43
0.000001
 40
1.36930401643896
 40
1.36930401643896
 40
1.36930401643896
 40
1.36930401643896
 40
1.43417480711915
 40
1.43417480711915
 40
1.53246663962788
 40
1.53246663962788
 40
1.53246663962788
 40
1.53246663962788
 10
157.7699392775171
 20
76.17737775546775
 30
0.0
 10
157.6723175165549
 20
76.14679116102636
 30
0.0
 10
157.5694798973496
 20
76.12802728270294
 30
0.0
 10
157.3169882194092
 20
76.1211676024928
 30
0.0
 10
157.1713643096357
 20
76.15453158243295
 30
0.0
 10
157.0555262741321
 20
76.2214107034134
 30
0.0
  0
LINE
  5
249
330
1F
100
AcDbEntity
  8
VISIBLE
100
AcDbLine
 10
122.8790092575241
 20
39.1945211091209
 30
0.0
 11
123.3660865239606
 21
42.69292988257007
 31
0.0
  0
ELLIPSE
  5
24A
330
1F
100
AcDbEntity
  8
VISIBLE
100
AcDbEllipse
 10
141.2501823283979
 20
62.04857154083565
 30
0.0
 11
-15.00000000000021
 21
-25.98076211353245
 31
0.0
210
0.0
220
0.0
230
1.0
 40
0.5773502691896185
 41
-2.356194490192318
 42
-1.655138008460275
  0
LINE
  5
24B
330
1F
100
AcDbEntity
  8
VISIBLE
100
AcDbLine
 10
132.0193397255664
 20
38.79004630665895
 30
0.0
 11
132.0193397255664
 21
36.34055656387577
 31
0.0
  0
LINE
  5
24C
330
1F
100
AcDbEntity
  8
VISIBLE
100
AcDbLine
 10
128.1073647821557
 20
81.88013112137595
 30
0.0
 11
129.0764308830565
 21
81.9846846652823
 31
0.0
  0
LINE
  5
24D
330
1F
100
AcDbEntity
  8
VISIBLE
100
AcDbLine
 10
132.0193397255664
 20
36.34055656387575
 30
0.0
 11
131.9197809433881
 21
36.39803685356654
 31
0.0
  0
LINE
  5
24E
330
1F
100
AcDbEntity
  8
VISIBLE
100
AcDbLine
 10
152.7222801420173
 20
60.20200104850663
 30
0.0
 11
151.1116737989603
 21
58.59213520314744
 31
0.0
  0
LINE
  5
24F
330
1F
100
AcDbEntity
  8
VISIBLE
100
AcDbLine
 10
124.0967024236154
 20
47.9405430427439
 30
0.0
 11
127.5671279469755
 21
72.86670555357004
 31
0.0
  0
LINE
  5
250
330
1F
100
AcDbEntity
  8
VISIBLE
100
AcDbLine
 10
127.583446142727
 20
80.85452745263545
 30
0.0
 11
128.6681247945764
 21
80.43292968540767
 31
0.0
  0
LINE
  5
251
330
1F
100
AcDbEntity
  8
VISIBLE
100
AcDbLine
 10
142.4270095936089
 20
86.886495581223
 30
0.0
 11
146.6696502807282
 21
84.43700583843983
 31
0.0
  0
LINE
  5
252
330
1F
100
AcDbEntity
  8
VISIBLE
100
AcDbLine
 10
142.184821714737
 20
86.4123975850791
 30
0.0
 11
142.4270095936089
 21
86.88649558122304
 31
0.0
  0
ELLIPSE
  5
253
330
1F
100
AcDbEntity
  8
VISIBLE
100
AcDbEllipse
 10
132.7920073188972
 20
61.08803404299915
 30
0.0
 11
1.5
 21
2.598076211353323
 31
0.0
210
0.0
220
0.0
230
0.9999999999999999
 40
0.577350269189624
 41
3.141592653589773
 42
4.801117833451569
  0
ELLIPSE
  5
254
330
1F
100
AcDbEntity
  8
VISIBLE
100
AcDbEllipse
 10
132.7920073188972
 20
61.08803404299918
 30
0.0
 11
-1.5
 21
-2.598076211353336
 31
0.0
210
0.0
220
0.0
230
0.9999999999999999
 40
0.5773502691896203
 41
-1.482067473728027
 42
0.0
  0
LINE
  5
255
330
1F
100
AcDbEntity
  8
VISIBLE
100
AcDbLine
 10
141.250182328398
 20
86.5434689686667
 30
0.0
 11
133.472007735346
 21
91.0342001637692
 31
0.0
  0
LINE
  5
256
330
1F
100
AcDbEntity
  8
VISIBLE
100
AcDbLine
 10
119.1234458368413
 20
45.14241962535325
 30
0.0
 11
119.8540617364961
 21
50.39003278552708
 31
0.0
  0
LINE
  5
257
330
1F
100
AcDbEntity
  8
VISIBLE
100
AcDbLine
 10
119.7889533539235
 20
77.35743674867255
 30
0.0
 11
115.1008346644721
 21
43.68525230422341
 31
0.0
  0
ELLIPSE
  5
258
330
1F
100
AcDbEntity
  8
VISIBLE
100
AcDbEllipse
 10
133.4720077353467
 20
66.53930273593636
 30
0.0
 11
-14.99999999999982
 21
-25.98076211353424
 31
0.0
210
0.0
220
0.0
230
1.0
 40
0.5773502691896456
 41
-2.356194490192389
 42
-1.655138008460333
  0
ELLIPSE
  5
259
330
1F
100
AcDbEntity
  8
VISIBLE
100
AcDbEllipse
 10
123.1602595936212
 20
44.63691587923702
 30
0.0
 11
-1.238058026352959
 21
0.1723726294486809
 31
0.0
210
0.0
220
0.0
230
0.9999999999999998
 40
0.4693007957572276
 41
3.1415926535898
 42
5.570560068997069
  0
ELLIPSE
  5
25A
330
1F
100
AcDbEntity
  8
VISIBLE
100
AcDbEllipse
 10
123.1602595936212
 20
44.63691587923699
 30
0.0
 11
1.238058026352945
 21
-0.1723726294487165
 31
0.0
210
0.0
220
0.0
230
0.9999999999999997
 40
0.4693007957572214
 41
-3.141592653589768
 42
0.0
  0
ELLIPSE
  5
25B
330
1F
100
AcDbEntity
  8
VISIBLE
100
AcDbEllipse
 10
123.1602595936227
 20
44.63691587923629
 30
0.0
 11
-1.23805802635448
 21
0.1723726294495904
 31
0.0
210
0.0
220
0.0
230
0.9999999999999999
 40
0.4693007957570138
 41
-0.7126252381817519
 42
0.0
  0
LINE
  5
25C
330
1F
100
AcDbEntity
  8
VISIBLE
100
AcDbLine
 10
152.7222801420173
 20
60.20200104850664
 30
0.0
 11
147.319884253035
 21
74.1444272469324
 31
0.0
  0
LINE
  5
25D
330
1F
100
AcDbEntity
  8
VISIBLE
100
AcDbLine
 10
146.6696502807282
 20
84.43700583843984
 30
0.0
 11
162.1302463764985
 21
78.4277119495321
 31
0.0
  0
LINE
  5
25E
330
1F
100
AcDbEntity
  8
VISIBLE
100
AcDbLine
 10
146.6696502807282
 20
84.43700583843984
 30
0.0
 11
134.4190252966713
 21
60.45563739215751
 31
0.0
  0
ELLIPSE
  5
25F
330
1F
100
AcDbEntity
  8
VISIBLE
100
AcDbEllipse
 10
136.2347537307837
 20
40.21808388054245
 30
0.0
 11
-1.250000000000029
 21
-2.165063509461099
 31
0.0
210
0.0
220
0.0
230
1.0
 40
0.5773502691896238
 41
-3.141592653589776
 42
-0.7853981633974474
  0
ELLIPSE
  5
260
330
1F
100
AcDbEntity
  8
VISIBLE
100
AcDbEllipse
 10
136.2347537307837
 20
40.21808388054245
 30
0.0
 11
1.249999999999943
 21
2.16506350946112
 31
0.0
210
0.0
220
0.0
230
1.0
 40
0.5773502691896196
 41
3.14159265358977
 42
6.283185307179586
  0
ELLIPSE
  5
261
330
1F
100
AcDbEntity
  8
VISIBLE
100
AcDbEllipse
 10
136.2347537307843
 20
40.21808388054289
 30
0.0
 11
-1.250000000000739
 21
-2.165063509461476
 31
0.0
210
0.0
220
0.0
230
1.0
 40
0.5773502691896166
 41
-0.7853981633972171
 42
0.0
  0
LINE
  5
262
330
1F
100
AcDbEntity
  8
VISIBLE
100
AcDbLine
 10
130.9863975271873
 20
87.51601868771385
 30
0.0
 11
132.514330432045
 21
86.92213486777922
 31
0.0
  0
ELLIPSE
  5
263
330
1F
100
AcDbEntity
  8
VISIBLE
100
AcDbEllipse
 10
141.250182328395
 20
62.04857154083377
 30
0.0
 11
15.00000000000296
 21
25.98076211353462
 31
0.0
210
0.0
220
0.0
230
1.0
 40
0.5773502691896406
 41
4.97418836818393
 42
5.675244849915934
  0
LINE
  5
264
330
1F
100
AcDbEntity
  8
VISIBLE
100
AcDbLine
 10
122.8790092575241
 20
39.1945211091209
 30
0.0
 11
115.1008346644721
 21
43.6852523042234
 31
0.0
  0
LINE
  5
265
330
1F
100
AcDbEntity
  8
VISIBLE
100
AcDbLine
 10
131.9197809433881
 20
36.283076274185
 30
0.0
 11
131.9197809433881
 21
38.50016710878092
 31
0.0
  0
LINE
  5
266
330
1F
100
AcDbEntity
  8
VISIBLE
100
AcDbLine
 10
131.5103161666159
 20
88.54162235645435
 30
0.0
 11
132.4793822675168
 21
88.64617590036076
 31
0.0
  0
LINE
  5
267
330
1F
100
AcDbEntity
  8
VISIBLE
100
AcDbLine
 10
131.7316689398662
 20
38.32198278310075
 30
0.0
 11
132.0193397255664
 21
38.79004630665894
 31
0.0
  0
LINE
  5
268
330
1F
100
AcDbEntity
  8
VISIBLE
100
AcDbLine
 10
156.9649208291366
 20
57.75251130572346
 30
0.0
 11
152.7222801420173
 21
60.20200104850664
 31
0.0
  0
LINE
  5
269
330
1F
100
AcDbEntity
  8
VISIBLE
100
AcDbLine
 10
128.0285936041993
 20
79.9334773278013
 30
0.0
 11
127.583446142727
 21
80.85452745263542
 31
0.0
  0
LINE
  5
26A
330
1F
100
AcDbEntity
  8
VISIBLE
100
AcDbLine
 10
128.6681247945764
 20
80.43292968540766
 30
0.0
 11
128.8658539825385
 21
80.02381021597726
 31
0.0
  0
LINE
  5
26B
330
1F
100
AcDbEntity
  8
VISIBLE
100
AcDbLine
 10
152.9802689739338
 20
53.76969144723295
 30
0.0
 11
146.4242313554654
 21
70.68941975444791
 31
0.0
  0
LINE
  5
26C
330
1F
100
AcDbEntity
  8
VISIBLE
100
AcDbLine
 10
162.1302463764985
 20
78.4277119495321
 30
0.0
 11
154.3520717834464
 21
82.9184431446346
 31
0.0
  0
LINE
  5
26D
330
1F
100
AcDbEntity
  8
VISIBLE
100
AcDbLine
 10
139.1729736380608
 20
88.15128888290636
 30
0.0
 11
142.4270095936089
 21
86.88649558122304
 31
0.0
  0
LINE
  5
26E
330
1F
100
AcDbEntity
  8
VISIBLE
100
AcDbLine
 10
129.0764308830565
 20
81.9846846652823
 30
0.0
 11
129.5215783445287
 21
81.06363454044816
 31
0.0
  0
ELLIPSE
  5
26F
330
1F
100
AcDbEntity
  8
VISIBLE
100
AcDbEllipse
 10
138.2954163891942
 20
54.82786634450765
 30
0.0
 11
1.499999999999972
 21
2.598076211353259
 31
0.0
210
0.0
220
0.0
230
1.0
 40
0.5773502691896161
 41
3.753920282254954
 42
4.648680800146198
  0
LINE
  5
270
330
1F
100
AcDbEntity
  8
VISIBLE
100
AcDbLine
 10
154.3520717834465
 20
82.9184431446346
 30
0.0
 11
133.472007735346
 21
91.03420016376919
 31
0.0
  0
LINE
  5
271
330
1F
100
AcDbEntity
  8
VISIBLE
100
AcDbLine
 10
119.1234458368414
 20
45.14241962535325
 30
0.0
 11
137.9301084393668
 21
52.20405976442074
 31
0.0
  0
ELLIPSE
  5
272
330
1F
100
AcDbEntity
  8
VISIBLE
100
AcDbEllipse
 10
144.4988440885396
 20
60.78231598275524
 30
0.0
 11
1.299999999999983
 21
2.251666049839542
 31
0.0
210
0.0
220
0.0
230
1.0
 40
0.5773502691896303
 41
3.141592653589778
 42
5.497787143782133
  0
ELLIPSE
  5
273
330
1F
100
AcDbEntity
  8
VISIBLE
100
AcDbEllipse
 10
144.4988440885396
 20
60.78231598275524
 30
0.0
 11
-1.300000000000011
 21
-2.25166604983955
 31
0.0
210
0.0
220
0.0
230
0.9999999999999997
 40
0.5773502691896164
 41
-3.141592653589779
 42
0.0
  0
ELLIPSE
  5
274
330
1F
100
AcDbEntity
  8
VISIBLE
100
AcDbEllipse
 10
144.4988440885396
 20
60.78231598275525
 30
0.0
 11
1.30000000000004
 21
2.251666049839521
 31
0.0
210
0.0
220
0.0
230
1.0
 40
0.5773502691896363
 41
-0.7853981633974357
 42
0.0
  0
LINE
  5
275
330
1F
100
AcDbEntity
  8
VISIBLE
100
AcDbLine
 10
123.3660865239606
 20
42.69292988257005
 30
0.0
 11
119.1234458368413
 21
45.14241962535323
 31
0.0
  0
LINE
  5
276
330
1F
100
AcDbEntity
  8
VISIBLE
100
AcDbLine
 10
152.9802689739338
 20
53.76969144723295
 30
0.0
 11
134.05317266172
 21
34.85129711940273
 31
0.0
  0
ELLIPSE
  5
277
330
1F
100
AcDbEntity
  8
VISIBLE
100
AcDbEllipse
 10
152.3547343526403
 20
65.4004863678167
 30
0.0
 11
-0.8836802178080064
 21
0.8840866884270612
 31
0.0
210
0.0
220
0.0
230
1.0
 40
0.3439838322929388
 41
3.141592653589583
 42
3.803816953091317
  0
ELLIPSE
  5
278
330
1F
100
AcDbEntity
  8
VISIBLE
100
AcDbEllipse
 10
152.35473435264
 20
65.40048636781692
 30
0.0
 11
0.8836802178082338
 21
-0.8840866884273313
 31
0.0
210
0.0
220
0.0
230
1.0
 40
0.3439838322929303
 41
-3.141592653589909
 42
0.0
  0
ELLIPSE
  5
279
330
1F
100
AcDbEntity
  8
VISIBLE
100
AcDbEllipse
 10
152.35473435264
 20
65.40048636781692
 30
0.0
 11
-0.8836802178082053
 21
0.8840866884273453
 31
0.0
210
0.0
220
0.0
230
1.0
 40
0.3439838322929251
 41
3.803816953091327
 42
6.283185307179586
  0
ELLIPSE
  5
27A
330
1F
100
AcDbEntity
  8
VISIBLE
100
AcDbEllipse
 10
133.4720077353044
 20
66.53930273587925
 30
0.0
 11
14.99999999995549
 21
25.98076211347667
 31
0.0
210
0.0
220
0.0
230
1.0
 40
0.5773502691903005
 41
2.879793265790134
 42
3.141592653589596
  0
LINE
  5
27B
330
1F
100
AcDbEntity
  8
VISIBLE
100
AcDbLine
 10
131.1649893411232
 20
61.72043069384083
 30
0.0
 11
143.4156143251801
 21
85.70179914012313
 31
0.0
  0
SPLINE
  5
27C
330
1F
100
AcDbEntity
  8
VISIBLE
100
AcDbSpline
210
0.0
220
0.0
230
1.0
 70
     8
 71
     3
 72
    12
 73
     8
 74
     0
 42
0.000000001
 43
0.000001
 40
0.0
 40
0.0
 40
0.0
 40
0.0
 40
0.0936291886854091
 40
0.0936291886854091
 40
0.187258377370818
 40
0.187258377370818
 40
0.208313671449092
 40
0.208313671449092
 40
0.208313671449092
 40
0.208313671449092
 10
126.3369045845703
 20
75.06800479486304
 30
0.0
 10
126.2265615275096
 20
75.13171138856025
 30
0.0
 10
126.1347299948944
 20
75.2316084190804
 30
0.0
 10
126.0144514703501
 20
75.47554464444539
 30
0.0
 10
125.9855775793389
 20
75.61922410966675
 30
0.0
 10
125.9805154036148
 20
75.78870719588974
 30
0.0
 10
125.9807711080549
 20
75.820411187556
 30
0.0
 10
125.9821839479183
 20
75.85257577655905
 30
0.0
  0
SPLINE
  5
27D
330
1F
100
AcDbEntity
  8
VISIBLE
100
AcDbSpline
210
0.0
220
0.0
230
1.0
 70
     8
 71
     3
 72
    24
 73
    20
 74
     0
 42
0.000000001
 43
0.000001
 40
0.208313671449092
 40
0.208313671449092
 40
0.208313671449092
 40
0.208313671449092
 40
0.309483020098386
 40
0.309483020098386
 40
0.431707662825953
 40
0.431707662825953
 40
0.550059731384823
 40
0.550059731384823
 40
0.668411799943693
 40
0.668411799943693
 40
0.761453032085687
 40
0.761453032085687
 40
0.854494264227682
 40
0.854494264227682
 40
0.947535496369676
 40
0.947535496369676
 40
1.04057672851167
 40
1.04057672851167
 40
1.05879802753252
 40
1.05879802753252
 40
1.05879802753252
 40
1.05879802753252
 10
125.9821839479183
 20
75.85257577655905
 30
0.0
 10
125.9889725535865
 20
76.0071245806229
 30
0.0
 10
126.0224764234575
 20
76.1723073859409
 30
0.0
 10
126.1486009315288
 20
76.52931292996095
 30
0.0
 10
126.2522148301964
 20
76.71947608004315
 30
0.0
 10
126.4855443288978
 20
77.04017201477384
 30
0.0
 10
126.632321487184
 20
77.19694600688715
 30
0.0
 10
126.9635570693202
 20
77.45628770137711
 30
0.0
 10
127.148032447698
 20
77.55882700209774
 30
0.0
 10
127.4706506131394
 20
77.6696015441851
 30
0.0
 10
127.6271842837782
 20
77.6984355300761
 30
0.0
 10
127.9214116149734
 20
77.68984796531585
 30
0.0
 10
128.059006532177
 20
77.6522473040715
 30
0.0
 10
128.2783068194356
 20
77.52563422418945
 30
0.0
 10
128.3710165605216
 20
77.43026842897464
 30
0.0
 10
128.4930031290472
 20
77.19855478669065
 30
0.0
 10
128.5225399957081
 20
77.06229292600135
 30
0.0
 10
128.5267774265653
 20
76.90350646152194
 30
0.0
 10
128.5265184944779
 20
76.8770392108996
 30
0.0
 10
128.5253305535494
 20
76.8501918524526
 30
0.0
  0
SPLINE
  5
27E
330
1F
100
AcDbEntity
  8
VISIBLE
100
AcDbSpline
210
0.0
220
0.0
230
1.0
 70
     8
 71
     3
 72
    18
 73
    14
 74
     0
 42
0.000000001
 43
0.000001
 40
1.05879802753252
 40
1.05879802753252
 40
1.05879802753252
 40
1.05879802753252
 40
1.15892879707054
 40
1.15892879707054
 40
1.27728086562941
 40
1.27728086562941
 40
1.39950550835698
 40
1.39950550835698
 40
1.52173015108455
 40
1.52173015108455
 40
1.61535933976995
 40
1.61535933976995
 40
1.70898852845536
 40
1.70898852845536
 40
1.70898852845536
 40
1.70898852845536
 10
128.5253305535494
 20
76.8501918524526
 30
0.0
 10
128.518802509682
 20
76.70265864648955
 30
0.0
 10
128.4842203694512
 20
76.5436469905173
 30
0.0
 10
128.3561966904533
 20
76.2016661942303
 30
0.0
 10
128.2533112818642
 20
76.01955128861415
 30
0.0
 10
128.0199817831628
 20
75.69885535388345
 30
0.0
 10
127.8697517869401
 20
75.53560602027329
 30
0.0
 10
127.5346136288844
 20
75.25876290293385
 30
0.0
 10
127.3497354362166
 20
75.1451195592793
 30
0.0
 10
127.0299740546387
 20
75.0162415235117
 30
0.0
 10
126.8762037480446
 20
74.9780117349437
 30
0.0
 10
126.5848171054551
 20
74.9717505046394
 30
0.0
 10
126.4472476416311
 20
75.0042982011658
 30
0.0
 10
126.3369045845703
 20
75.06800479486304
 30
0.0
  0
LINE
  5
27F
330
1F
100
AcDbEntity
  8
VISIBLE
100
AcDbLine
 10
131.9197809433881
 20
38.5001671087809
 30
0.0
 11
131.8617663993047
 21
38.53366182142434
 31
0.0
  0
LINE
  5
280
330
1F
100
AcDbEntity
  8
VISIBLE
100
AcDbLine
 10
143.4156143251801
 20
85.70179914012314
 30
0.0
 11
139.1729736380608
 21
88.15128888290633
 31
0.0
  0
ELLIPSE
  5
281
330
1F
100
AcDbEntity
  8
VISIBLE
100
AcDbEllipse
 10
141.250182328398
 20
62.0485715408349
 30
0.0
 11
0.125
 21
0.216506350946112
 31
0.0
210
0.0
220
0.0
230
0.9999999999999998
 40
0.5773502691896274
 41
3.141592653589768
 42
5.497787143782126
  0
ELLIPSE
  5
282
330
1F
100
AcDbEntity
  8
VISIBLE
100
AcDbEllipse
 10
141.250182328398
 20
62.0485715408349
 30
0.0
 11
-0.125
 21
-0.216506350946112
 31
0.0
210
0.0
220
0.0
230
1.0
 40
0.5773502691896131
 41
-3.141592653589793
 42
0.0
  0
ELLIPSE
  5
283
330
1F
100
AcDbEntity
  8
VISIBLE
100
AcDbEllipse
 10
141.250182328398
 20
62.04857154083489
 30
0.0
 11
0.125
 21
0.2165063509461191
 31
0.0
210
0.0
220
0.0
230
1.0
 40
0.5773502691895989
 41
-0.7853981633974669
 42
0.0
  0
LINE
  5
284
330
1F
100
AcDbEntity
  8
VISIBLE
100
AcDbLine
 10
119.8540617364961
 20
50.3900327855271
 30
0.0
 11
124.0967024236154
 21
47.94054304274392
 31
0.0
  0
LINE
  5
285
330
1F
100
AcDbEntity
  8
VISIBLE
100
AcDbLine
 10
132.0193397255664
 20
36.34055656387575
 30
0.0
 11
131.9197809433881
 21
36.28307627418496
 31
0.0
  0
LINE
  5
286
330
1F
100
AcDbEntity
  8
VISIBLE
100
AcDbLine
 10
132.4006110895604
 20
86.6995221067861
 30
0.0
 11
131.4315449886595
 21
86.5949685628797
 31
0.0
  0
ELLIPSE
  5
287
330
1F
100
AcDbEntity
  8
VISIBLE
100
AcDbEllipse
 10
142.5380570763131
 20
52.37837660172368
 30
0.0
 11
-1.50000000000037
 21
-2.598076211354162
 31
0.0
210
0.0
220
0.0
230
0.9999999999999999
 40
0.5773502691895366
 41
-3.141592653589777
 42
-2.529265024924698
  0
ELLIPSE
  5
288
330
1F
100
AcDbEntity
  8
VISIBLE
100
AcDbEllipse
 10
142.5380570763134
 20
52.37837660172451
 30
0.0
 11
1.499999999999972
 21
2.598076211353344
 31
0.0
210
0.0
220
0.0
230
0.9999999999999998
 40
0.5773502691896312
 41
3.753920282254941
 42
6.283185307179586
  0
LINE
  5
289
330
1F
100
AcDbEntity
  8
VISIBLE
100
AcDbLine
 10
141.250182328398
 20
86.5434689686667
 30
0.0
 11
143.4156143251801
 21
85.70179914012317
 31
0.0
  0
LINE
  5
28A
330
1F
100
AcDbEntity
  8
VISIBLE
100
AcDbLine
 10
131.9197809433881
 20
38.5001671087809
 30
0.0
 11
131.7867959560238
 21
38.28378983009904
 31
0.0
  0
ELLIPSE
  5
28B
330
1F
100
AcDbEntity
  8
VISIBLE
100
AcDbEllipse
 10
157.959018084224
 20
76.14740806937131
 30
0.0
 11
-1.249999999999972
 21
-2.165063509461106
 31
0.0
210
0.0
220
0.0
230
0.9999999999999999
 40
0.5773502691896251
 41
-3.141592653589797
 42
-0.7853981633974554
  0
ELLIPSE
  5
28C
330
1F
100
AcDbEntity
  8
VISIBLE
100
AcDbEllipse
 10
157.959018084224
 20
76.14740806937131
 30
0.0
 11
1.250000000000028
 21
2.165063509461092
 31
0.0
210
0.0
220
0.0
230
0.9999999999999999
 40
0.5773502691896268
 41
3.141592653589816
 42
6.283185307179586
  0
ELLIPSE
  5
28D
330
1F
100
AcDbEntity
  8
VISIBLE
100
AcDbEllipse
 10
157.9590180842244
 20
76.14740806937195
 30
0.0
 11
-1.250000000000455
 21
-2.165063509461731
 31
0.0
210
0.0
220
0.0
230
1.0
 40
0.5773502691894964
 41
-0.7853981633973176
 42
0.0
  0
SPLINE
  5
28E
330
1F
100
AcDbEntity
  8
VISIBLE
100
AcDbSpline
210
0.0
220
0.0
230
1.0
 70
     8
 71
     3
 72
    12
 73
     8
 74
     0
 42
0.000000001
 43
0.000001
 40
0.0
 40
0.0
 40
0.0
 40
0.0
 40
0.0936291886854091
 40
0.0936291886854091
 40
0.187258377370818
 40
0.187258377370818
 40
0.208313671449092
 40
0.208313671449092
 40
0.208313671449092
 40
0.208313671449092
 10
122.2710405927477
 20
77.41543246503025
 30
0.0
 10
122.160697535687
 20
77.47913905872745
 30
0.0
 10
122.0688660030718
 20
77.5790360892476
 30
0.0
 10
121.9485874785275
 20
77.8229723146126
 30
0.0
 10
121.9197135875163
 20
77.96665177983395
 30
0.0
 10
121.9146514117922
 20
78.13613486605695
 30
0.0
 10
121.9149071162322
 20
78.1678388577232
 30
0.0
 10
121.9163199560956
 20
78.20000344672624
 30
0.0
  0
SPLINE
  5
28F
330
1F
100
AcDbEntity
  8
VISIBLE
100
AcDbSpline
210
0.0
220
0.0
230
1.0
 70
     8
 71
     3
 72
    24
 73
    20
 74
     0
 42
0.000000001
 43
0.000001
 40
0.208313671449092
 40
0.208313671449092
 40
0.208313671449092
 40
0.208313671449092
 40
0.309483020098386
 40
0.309483020098386
 40
0.431707662825953
 40
0.431707662825953
 40
0.550059731384823
 40
0.550059731384823
 40
0.668411799943693
 40
0.668411799943693
 40
0.761453032085687
 40
0.761453032085687
 40
0.854494264227682
 40
0.854494264227682
 40
0.947535496369676
 40
0.947535496369676
 40
1.04057672851167
 40
1.04057672851167
 40
1.05879802753252
 40
1.05879802753252
 40
1.05879802753252
 40
1.05879802753252
 10
121.9163199560956
 20
78.20000344672624
 30
0.0
 10
121.9231085617639
 20
78.3545522507901
 30
0.0
 10
121.9566124316349
 20
78.51973505610815
 30
0.0
 10
122.0827369397061
 20
78.8767406001282
 30
0.0
 10
122.1863508383738
 20
79.06690375021034
 30
0.0
 10
122.4196803370752
 20
79.38759968494105
 30
0.0
 10
122.5664574953613
 20
79.5443736770544
 30
0.0
 10
122.8976930774976
 20
79.8037153715443
 30
0.0
 10
123.0821684558754
 20
79.90625467226495
 30
0.0
 10
123.4047866213167
 20
80.0170292143523
 30
0.0
 10
123.5613202919556
 20
80.04586320024335
 30
0.0
 10
123.8555476231507
 20
80.03727563548304
 30
0.0
 10
123.9931425403544
 20
79.9996749742387
 30
0.0
 10
124.2124428276129
 20
79.87306189435665
 30
0.0
 10
124.3051525686989
 20
79.77769609914185
 30
0.0
 10
124.4271391372245
 20
79.54598245685784
 30
0.0
 10
124.4566760038854
 20
79.40972059616854
 30
0.0
 10
124.4609134347427
 20
79.25093413168915
 30
0.0
 10
124.4606545026552
 20
79.2244668810668
 30
0.0
 10
124.4594665617268
 20
79.19761952261985
 30
0.0
  0
SPLINE
  5
290
330
1F
100
AcDbEntity
  8
VISIBLE
100
AcDbSpline
210
0.0
220
0.0
230
1.0
 70
     8
 71
     3
 72
    18
 73
    14
 74
     0
 42
0.000000001
 43
0.000001
 40
1.05879802753252
 40
1.05879802753252
 40
1.05879802753252
 40
1.05879802753252
 40
1.15892879707054
 40
1.15892879707054
 40
1.27728086562941
 40
1.27728086562941
 40
1.39950550835698
 40
1.39950550835698
 40
1.52173015108455
 40
1.52173015108455
 40
1.61535933976995
 40
1.61535933976995
 40
1.70898852845536
 40
1.70898852845536
 40
1.70898852845536
 40
1.70898852845536
 10
124.4594665617268
 20
79.19761952261985
 30
0.0
 10
124.4529385178594
 20
79.05008631665675
 30
0.0
 10
124.4183563776286
 20
78.89107466068455
 30
0.0
 10
124.2903326986307
 20
78.54909386439749
 30
0.0
 10
124.1874472900415
 20
78.3669789587814
 30
0.0
 10
123.9541177913402
 20
78.0462830240507
 30
0.0
 10
123.8038877951174
 20
77.8830336904405
 30
0.0
 10
123.4687496370618
 20
77.60619057310105
 30
0.0
 10
123.2838714443939
 20
77.4925472294465
 30
0.0
 10
122.9641100628161
 20
77.3636691936789
 30
0.0
 10
122.810339756222
 20
77.3254394051109
 30
0.0
 10
122.5189531136325
 20
77.31917817480665
 30
0.0
 10
122.3813836498084
 20
77.351725871333
 30
0.0
 10
122.2710405927477
 20
77.41543246503025
 30
0.0
  0
ELLIPSE
  5
291
330
1F
100
AcDbEntity
  8
VISIBLE
100
AcDbEllipse
 10
141.2501823283991
 20
62.04857154083636
 30
0.0
 11
15.00000000000151
 21
25.98076211353459
 31
0.0
210
0.0
220
0.0
230
1.0
 40
0.577350269189592
 41
2.879793265790657
 42
3.141592653589813
  0
ELLIPSE
  5
292
330
1F
100
AcDbEntity
  8
VISIBLE
100
AcDbEllipse
 10
141.250182328396
 20
62.04857154082968
 30
0.0
 11
14.99999999999736
 21
25.98076211352835
 31
0.0
210
0.0
220
0.0
230
1.0
 40
0.5773502691896729
 41
3.141592653589748
 42
3.580849747522692
  0
SPLINE
  5
293
330
1F
100
AcDbEntity
  8
VISIBLE
100
AcDbSpline
210
0.0
220
0.0
230
1.0
 70
     8
 71
     3
 72
    18
 73
    14
 74
     0
 42
0.000000001
 43
0.000001
 40
0.0
 40
0.0
 40
0.0
 40
0.0
 40
0.0936684584326101
 40
0.0936684584326101
 40
0.18733691686522
 40
0.18733691686522
 40
0.320284719701522
 40
0.320284719701522
 40
0.453232522537823
 40
0.453232522537823
 40
0.580747538912681
 40
0.580747538912681
 40
0.671626594096232
 40
0.671626594096232
 40
0.671626594096232
 40
0.671626594096232
 10
121.6000376444828
 20
39.35737814129435
 30
0.0
 10
121.7104269813845
 20
39.29364482791855
 30
0.0
 10
121.8414985694372
 20
39.208308168229
 30
0.0
 10
122.1077610482765
 20
39.02076548827505
 30
0.0
 10
122.2430285325836
 20
38.91881133079505
 30
0.0
 10
122.5302093474965
 20
38.6947433751902
 30
0.0
 10
122.6951235246664
 20
38.55917668739094
 30
0.0
 10
122.985720713741
 20
38.31229122243515
 30
0.0
 10
123.1112693816033
 20
38.20112148306225
 30
0.0
 10
123.2985798565629
 20
38.02846107982095
 30
0.0
 10
123.3773904389307
 20
37.95160266407715
 30
0.0
 10
123.4575954338346
 20
37.85959551304285
 30
0.0
 10
123.474696063528
 20
37.8330292366604
 30
0.0
 10
123.4730486569337
 20
37.8200336414382
 30
0.0
  0
SPLINE
  5
294
330
1F
100
AcDbEntity
  8
VISIBLE
100
AcDbSpline
210
0.0
220
0.0
230
1.0
 70
     8
 71
     3
 72
    24
 73
    20
 74
     0
 42
0.000000001
 43
0.000001
 40
0.671626594096232
 40
0.671626594096232
 40
0.671626594096232
 40
0.671626594096232
 40
0.708262555287539
 40
0.708262555287539
 40
0.801021832264179
 40
0.801021832264179
 40
0.893781109240819
 40
0.893781109240819
 40
0.986540386217459
 40
0.986540386217459
 40
1.0792996631941
 40
1.0792996631941
 40
1.20681467956896
 40
1.20681467956896
 40
1.33432969594382
 40
1.33432969594382
 40
1.46727749878012
 40
1.46727749878012
 40
1.55896104895088
 40
1.55896104895088
 40
1.55896104895088
 40
1.55896104895088
 10
123.4730486569337
 20
37.8200336414382
 30
0.0
 10
123.4723845399495
 20
37.8147947431986
 30
0.0
 10
123.4686736270866
 20
37.8117612543574
 30
0.0
 10
123.4442336257574
 20
37.8092647428878
 30
0.0
 10
123.4032828816675
 20
37.8227454855509
 30
0.0
 10
123.2669130016271
 20
37.88812760383435
 30
0.0
 10
123.1711444147032
 20
37.9401301798123
 30
0.0
 10
122.9525087021427
 20
38.06635956731355
 30
0.0
 10
122.8202295625543
 20
38.14602040762555
 30
0.0
 10
122.5469751610467
 20
38.3171349785605
 30
0.0
 10
122.4060952201101
 20
38.4086342308443
 30
0.0
 10
122.1107448809858
 20
38.6074254578258
 30
0.0
 10
121.9433905828716
 20
38.7261557118111
 30
0.0
 10
121.6534051612808
 20
38.94694602820725
 30
0.0
 10
121.5308129035965
 20
39.0490818059806
 30
0.0
 10
121.343502428637
 20
39.2217422092219
 30
0.0
 10
121.2653358045834
 20
39.3055559128471
 30
0.0
 10
121.1908216155518
 20
39.41540888409045
 30
0.0
 10
121.1764642275566
 20
39.45135569529604
 30
0.0
 10
121.1796834812821
 20
39.47524834300705
 30
0.0
  0
SPLINE
  5
295
330
1F
100
AcDbEntity
  8
VISIBLE
100
AcDbSpline
210
0.0
220
0.0
230
1.0
 70
     8
 71
     3
 72
    12
 73
     8
 74
     0
 42
0.000000001
 43
0.000001
 40
1.55896104895088
 40
1.55896104895088
 40
1.55896104895088
 40
1.55896104895088
 40
1.60022530161642
 40
1.60022530161642
 40
1.69389376004903
 40
1.69389376004903
 40
1.78756221848164
 40
1.78756221848164
 40
1.78756221848164
 40
1.78756221848164
 10
121.1796834812821
 20
39.47524834300705
 30
0.0
 10
121.1811323791365
 20
39.48600176878695
 30
0.0
 10
121.1861416952934
 20
39.49431343891115
 30
0.0
 10
121.214617870456
 20
39.51256450341189
 30
0.0
 10
121.2567174669498
 20
39.5121157290461
 30
0.0
 10
121.3939987313158
 20
39.4666723202307
 30
0.0
 10
121.4896483075812
 20
39.4211114546702
 30
0.0
 10
121.6000376444828
 20
39.35737814129435
 30
0.0
  0
SPLINE
  5
296
330
1F
100
AcDbEntity
  8
VISIBLE
100
AcDbSpline
210
0.0
220
0.0
230
1.0
 70
     8
 71
     3
 72
    24
 73
    20
 74
     0
 42
0.000000001
 43
0.000001
 40
1.03588976977311
 40
1.03588976977311
 40
1.03588976977311
 40
1.03588976977311
 40
1.07306016257698
 40
1.07306016257698
 40
1.18562660364074
 40
1.18562660364074
 40
1.29819304470449
 40
1.29819304470449
 40
1.45847133598192
 40
1.45847133598192
 40
1.61874962725936
 40
1.61874962725936
 40
1.7711911292093
 40
1.7711911292093
 40
1.92363263115924
 40
1.92363263115924
 40
2.0348764781566
 40
2.0348764781566
 40
2.10916951524927
 40
2.10916951524927
 40
2.10916951524927
 40
2.10916951524927
 10
137.7010253195774
 20
86.99634879648535
 30
0.0
 10
137.7529590123015
 20
86.97627512324335
 30
0.0
 10
137.8013012144867
 20
86.9534836108543
 30
0.0
 10
137.977767765522
 20
86.8516006001111
 30
0.0
 10
138.0753734442723
 20
86.74830202544629
 30
0.0
 10
138.1795290784254
 20
86.51857504864125
 30
0.0
 10
138.1870456390997
 20
86.39219061048274
 30
0.0
 10
138.1375773269247
 20
86.1084121666317
 30
0.0
 10
138.0493214897352
 20
85.93139495368645
 30
0.0
 10
137.7873886994774
 20
85.5927137080198
 30
0.0
 10
137.6133349464411
 20
85.431069702587
 30
0.0
 10
137.2480328657902
 20
85.16384276219665
 30
0.0
 10
137.0294187929919
 20
85.03513100593915
 30
0.0
 10
136.5512250626628
 20
84.82790800098165
 30
0.0
 10
136.2916052808157
 20
84.74952071085175
 30
0.0
 10
135.8573226879508
 20
84.68299329084124
 30
0.0
 10
135.6575483858751
 20
84.67376613306419
 30
0.0
 10
135.3496076601038
 20
84.70963439934499
 30
0.0
 10
135.233101382691
 20
84.73788818220075
 30
0.0
 10
135.1302578131368
 20
84.77761893637654
 30
0.0
  0
ELLIPSE
  5
297
330
1F
100
AcDbEntity
  8
VISIBLE
100
AcDbEllipse
 10
148.4165572830669
 20
72.68082968369318
 30
0.0
 11
-1.5
 21
-2.598076211353316
 31
0.0
210
0.0
220
0.0
230
1.0
 40
0.577350269189625
 41
-3.14159265358979
 42
-0.4348699225314365
  0
ELLIPSE
  5
298
330
1F
100
AcDbEntity
  8
VISIBLE
100
AcDbEllipse
 10
148.4165572830689
 20
72.68082968369582
 30
0.0
 11
-1.499999999997783
 21
-2.598076211350815
 31
0.0
210
0.0
220
0.0
230
1.0
 40
0.5773502691899185
 41
-3.576462576121604
 42
-3.141592653589942
  0
LINE
  5
299
330
1F
100
AcDbEntity
  8
VISIBLE
100
AcDbLine
 10
150.4088832106683
 20
74.67223961293845
 30
0.0
 11
156.9649208291366
 21
57.75251130572342
 31
0.0
  0
ELLIPSE
  5
29A
330
1F
100
AcDbEntity
  8
VISIBLE
100
AcDbEllipse
 10
137.260873434495
 20
58.06400302910856
 30
0.0
 11
1.300000000000011
 21
2.25166604983955
 31
0.0
210
0.0
220
0.0
230
0.9999999999999997
 40
0.5773502691896285
 41
3.141592653589794
 42
5.497787143782144
  0
ELLIPSE
  5
29B
330
1F
100
AcDbEntity
  8
VISIBLE
100
AcDbEllipse
 10
137.260873434495
 20
58.06400302910856
 30
0.0
 11
-1.299999999999983
 21
-2.251666049839542
 31
0.0
210
0.0
220
0.0
230
1.0
 40
0.5773502691896303
 41
-3.141592653589793
 42
0.0
  0
ELLIPSE
  5
29C
330
1F
100
AcDbEntity
  8
VISIBLE
100
AcDbEllipse
 10
137.260873434495
 20
58.06400302910851
 30
0.0
 11
1.300000000000068
 21
2.251666049839578
 31
0.0
210
0.0
220
0.0
230
1.0
 40
0.5773502691896208
 41
-0.7853981633974287
 42
0.0
  0
LINE
  5
29D
330
1F
100
AcDbEntity
  8
VISIBLE
100
AcDbLine
 10
128.1073647821557
 20
81.88013112137595
 30
0.0
 11
129.192043434005
 21
81.45853335414819
 31
0.0
  0
LINE
  5
29E
330
1F
100
AcDbEntity
  8
VISIBLE
100
AcDbLine
 10
131.7867959560238
 20
38.28378983009905
 30
0.0
 11
131.7316689398662
 21
38.32198278310076
 31
0.0
  0
LINE
  5
29F
330
1F
100
AcDbEntity
  8
VISIBLE
100
AcDbLine
 10
124.0967024236154
 20
47.94054304274395
 30
0.0
 11
142.9033650261408
 21
55.00218318181146
 31
0.0
  0
LINE
  5
2A0
330
1F
100
AcDbEntity
  8
VISIBLE
100
AcDbLine
 10
130.9863975271873
 20
87.51601868771385
 30
0.0
 11
131.5103161666159
 21
88.54162235645431
 31
0.0
  0
LINE
  5
2A1
330
1F
100
AcDbEntity
  8
VISIBLE
100
AcDbLine
 10
131.4315449886595
 20
86.5949685628797
 30
0.0
 11
130.9863975271873
 21
87.51601868771387
 31
0.0
  0
LINE
  5
2A2
330
1F
100
AcDbEntity
  8
VISIBLE
100
AcDbLine
 10
128.9976597051001
 20
80.03803087170775
 30
0.0
 11
128.0285936041992
 21
79.93347732780133
 31
0.0
  0
ELLIPSE
  5
2A3
330
1F
100
AcDbEntity
  8
VISIBLE
100
AcDbEllipse
 10
128.3843325387671
 20
46.59848258453357
 30
0.0
 11
-1.238058026352917
 21
0.1723726294486738
 31
0.0
210
0.0
220
0.0
230
1.0
 40
0.4693007957572509
 41
3.141592653589798
 42
5.570560068997072
  0
ELLIPSE
  5
2A4
330
1F
100
AcDbEntity
  8
VISIBLE
100
AcDbEllipse
 10
128.3843325387671
 20
46.5984825845336
 30
0.0
 11
1.238058026352945
 21
-0.1723726294486028
 31
0.0
210
0.0
220
0.0
230
0.9999999999999998
 40
0.4693007957572548
 41
-3.141592653589862
 42
0.0
  0
ELLIPSE
  5
2A5
330
1F
100
AcDbEntity
  8
VISIBLE
100
AcDbEllipse
 10
128.3843325387671
 20
46.59848258453364
 30
0.0
 11
-1.238058026353002
 21
0.1723726294485317
 31
0.0
210
0.0
220
0.0
230
1.0
 40
0.4693007957572228
 41
-0.7126252381826121
 42
0.0
  0
ELLIPSE
  5
2A6
330
1F
100
AcDbEntity
  8
VISIBLE
100
AcDbEllipse
 10
129.5567751701863
 20
69.78022267259081
 30
0.0
 11
-1.25
 21
-2.165063509461092
 31
0.0
210
0.0
220
0.0
230
1.0
 40
0.5773502691896273
 41
-3.141592653589793
 42
-0.785398163397439
  0
ELLIPSE
  5
2A7
330
1F
100
AcDbEntity
  8
VISIBLE
100
AcDbEllipse
 10
129.5567751701863
 20
69.78022267259078
 30
0.0
 11
1.25
 21
2.165063509461092
 31
0.0
210
0.0
220
0.0
230
1.0
 40
0.5773502691896273
 41
3.141592653589788
 42
6.283185307179586
  0
ELLIPSE
  5
2A8
330
1F
100
AcDbEntity
  8
VISIBLE
100
AcDbEllipse
 10
129.5567751701863
 20
69.78022267259102
 30
0.0
 11
-1.249999999999971
 21
-2.165063509461333
 31
0.0
210
0.0
220
0.0
230
1.0
 40
0.5773502691895626
 41
-0.7853981633974584
 42
0.0
  0
LINE
  5
2A9
330
1F
100
AcDbEntity
  8
VISIBLE
100
AcDbLine
 10
129.2315182268568
 20
82.3044847953511
 30
0.0
 11
131.1874720263981
 21
81.54423589280167
 31
0.0
  0
LINE
  5
2AA
330
1F
100
AcDbEntity
  8
VISIBLE
100
AcDbLine
 10
126.250182328398
 20
36.06780942730175
 30
0.0
 11
118.472007735346
 21
40.55854062240425
 31
0.0
  0
SPLINE
  5
2AB
330
1F
100
AcDbEntity
  8
VISIBLE
100
AcDbSpline
210
0.0
220
0.0
230
1.0
 70
     8
 71
     3
 72
    26
 73
    22
 74
     0
 42
0.000000001
 43
0.000001
 40
1.69546339626053
 40
1.69546339626053
 40
1.69546339626053
 40
1.69546339626053
 40
1.99239826899401
 40
1.99239826899401
 40
2.29591111769694
 40
2.29591111769694
 40
2.61337738758294
 40
2.61337738758294
 40
2.94217559172263
 40
2.94217559172263
 40
3.27610338073409
 40
3.27610338073409
 40
3.61120493236429
 40
3.61120493236429
 40
3.94495669028477
 40
3.94495669028477
 40
4.27308778217338
 40
4.27308778217338
 40
4.58888084748468
 40
4.58888084748468
 40
4.83705604985032
 40
4.83705604985032
 40
4.83705604985032
 40
4.83705604985032
 10
132.6344696113171
 20
88.9659760304295
 30
0.0
 10
132.5123244090589
 20
89.01345197591975
 30
0.0
 10
132.3814982477343
 20
89.03828365301754
 30
0.0
 10
132.1146886670233
 20
89.04118300069919
 30
0.0
 10
131.9787879460612
 20
89.01833477441235
 30
0.0
 10
131.7122412506909
 20
88.92729678615345
 30
0.0
 10
131.5820886793148
 20
88.85717943047135
 30
0.0
 10
131.3405605822766
 20
88.6759713312528
 30
0.0
 10
131.2299764102156
 20
88.5635232019425
 30
0.0
 10
131.0408087978768
 20
88.3080731327172
 30
0.0
 10
130.9627510726709
 20
88.16462663642875
 30
0.0
 10
130.8477574083813
 20
87.86161112612714
 30
0.0
 10
130.810974428479
 20
87.7020043923723
 30
0.0
 10
130.783323949847
 20
87.3828022815314
 30
0.0
 10
130.7922796073768
 20
87.2232099431276
 30
0.0
 10
130.8565313271262
 20
86.9214829621854
 30
0.0
 10
130.9111047679305
 20
86.77907919768255
 30
0.0
 10
131.0605828680722
 20
86.52919542588485
 30
0.0
 10
131.1540079882159
 20
86.42068713382244
 30
0.0
 10
131.3496097385378
 20
86.2648416122649
 30
0.0
 10
131.445539567135
 20
86.20944891229814
 30
0.0
 10
131.5476273078216
 20
86.16976899100405
 30
0.0
  0
LINE
  5
2AC
330
1F
100
AcDbEntity
  8
VISIBLE
100
AcDbLine
 10
128.1446759233613
 20
79.5082777559256
 30
0.0
 11
129.3405658388334
 21
79.04345389555587
 31
0.0
  0
LINE
  5
2AD
330
1F
100
AcDbEntity
  8
VISIBLE
100
AcDbLine
 10
132.6344696113171
 20
88.9659760304295
 30
0.0
 11
137.701289592213
 21
86.99658169668041
 31
0.0
  0
LINE
  5
2AE
330
1F
100
AcDbEntity
  8
VISIBLE
100
AcDbLine
 10
131.5476273078216
 20
86.16976899100405
 30
0.0
 11
135.1300197088946
 21
84.7773486321715
 31
0.0
  0
SPLINE
  5
2AF
330
1F
100
AcDbEntity
  8
VISIBLE
100
AcDbSpline
210
0.0
220
0.0
230
1.0
 70
     8
 71
     3
 72
    26
 73
    22
 74
     0
 42
0.000000001
 43
0.000001
 40
1.69546339626053
 40
1.69546339626053
 40
1.69546339626053
 40
1.69546339626053
 40
1.99239826899401
 40
1.99239826899401
 40
2.29591111769694
 40
2.29591111769694
 40
2.61337738758294
 40
2.61337738758294
 40
2.94217559172263
 40
2.94217559172263
 40
3.27610338073409
 40
3.27610338073409
 40
3.61120493236429
 40
3.61120493236429
 40
3.94495669028477
 40
3.94495669028477
 40
4.27308778217338
 40
4.27308778217338
 40
4.58888084748468
 40
4.58888084748468
 40
4.83705604985032
 40
4.83705604985032
 40
4.83705604985032
 40
4.83705604985032
 10
129.2315182268568
 20
82.3044847953511
 30
0.0
 10
129.1093730245987
 20
82.35196074084135
 30
0.0
 10
128.978546863274
 20
82.37679241793916
 30
0.0
 10
128.7117372825631
 20
82.3796917656208
 30
0.0
 10
128.5758365616009
 20
82.35684353933395
 30
0.0
 10
128.3092898662307
 20
82.26580555107505
 30
0.0
 10
128.1791372948546
 20
82.19568819539295
 30
0.0
 10
127.9376091978163
 20
82.01448009617435
 30
0.0
 10
127.8270250257553
 20
81.9020319668641
 30
0.0
 10
127.6378574134166
 20
81.6465818976388
 30
0.0
 10
127.5597996882106
 20
81.5031354013503
 30
0.0
 10
127.444806023921
 20
81.20011989104876
 30
0.0
 10
127.4080230440188
 20
81.0405131572939
 30
0.0
 10
127.3803725653867
 20
80.72131104645295
 30
0.0
 10
127.3893282229166
 20
80.5617187080492
 30
0.0
 10
127.4535799426659
 20
80.25999172710695
 30
0.0
 10
127.5081533834703
 20
80.11758796260415
 30
0.0
 10
127.6576314836119
 20
79.86770419080639
 30
0.0
 10
127.7510566037556
 20
79.75919589874405
 30
0.0
 10
127.9466583540776
 20
79.60335037718644
 30
0.0
 10
128.0425881826748
 20
79.5479576772197
 30
0.0
 10
128.1446759233613
 20
79.5082777559256
 30
0.0
  0
ELLIPSE
  5
2B0
330
1F
100
AcDbEntity
  8
TANGENT EDGES
100
AcDbEllipse
 10
141.0734056331014
 20
62.15063361345087
 30
0.0
 11
0.125
 21
0.2165063509461049
 31
0.0
210
0.0
220
0.0
230
0.9999999999999999
 40
0.5773502691896415
 41
3.926990816987238
 42
5.497787143782154
  0
ELLIPSE
  5
2B1
330
1F
100
AcDbEntity
  8
TANGENT EDGES
100
AcDbEllipse
 10
128.5525122436279
 20
80.9590809965418
 30
0.0
 11
0.4528509597897994
 21
1.165086266427281
 31
0.0
210
0.0
220
0.0
230
1.0
 40
0.8132846280501711
 41
0.0
 42
6.283185307179586
  0
LINE
  5
2B2
330
1F
100
AcDbEntity
  8
TANGENT EDGES
100
AcDbLine
 10
150.4088832106683
 20
74.6722396129385
 30
0.0
 11
149.1450059073412
 21
75.40193951423709
 31
0.0
  0
ELLIPSE
  5
2B3
330
1F
100
AcDbEntity
  8
TANGENT EDGES
100
AcDbEllipse
 10
132.0910484595694
 20
87.56787251071678
 30
0.0
 11
0.5434211517476513
 21
1.398103519712734
 31
0.0
210
0.0
220
0.0
230
1.0
 40
0.8132846280501769
 41
4.587721910919007
 42
6.283185307179586
  0
ELLIPSE
  5
2B4
330
1F
100
AcDbEntity
  8
TANGENT EDGES
100
AcDbEllipse
 10
132.0910484595693
 20
87.56787251071685
 30
0.0
 11
0.5434211517477934
 21
1.398103519712777
 31
0.0
210
0.0
220
0.0
230
1.0
 40
0.8132846280501727
 41
3.141592653589822
 42
4.587721910919048
  0
LINE
  5
2B5
330
1F
100
AcDbEntity
  8
TANGENT EDGES
100
AcDbLine
 10
142.1727491264861
 20
49.75457002163755
 30
0.0
 11
137.9301084393668
 21
52.20405976442073
 31
0.0
  0
LINE
  5
2B6
330
1F
100
AcDbEntity
  8
TANGENT EDGES
100
AcDbLine
 10
134.4190252966713
 20
60.45563739215751
 30
0.0
 11
131.4071772199951
 21
62.19452868998476
 31
0.0
  0
ELLIPSE
  5
2B7
330
1F
100
AcDbEntity
  8
TANGENT EDGES
100
AcDbEllipse
 10
128.6880970751091
 20
80.90638127563834
 30
0.0
 11
0.5434211517477365
 21
1.398103519712777
 31
0.0
210
0.0
220
0.0
230
0.9999999999999998
 40
0.8132846280501733
 41
4.587721910919061
 42
6.283185307179586
  0
ELLIPSE
  5
2B8
330
1F
100
AcDbEntity
  8
TANGENT EDGES
100
AcDbEllipse
 10
128.688097075109
 20
80.90638127563845
 30
0.0
 11
0.5434211517477648
 21
1.398103519712833
 31
0.0
210
0.0
220
0.0
230
0.9999999999999998
 40
0.813284628050169
 41
3.141592653589841
 42
4.58772191091901
  0
ELLIPSE
  5
2B9
330
1F
100
AcDbEntity
  8
TANGENT EDGES
100
AcDbEllipse
 10
131.9554636280882
 20
87.62057223162024
 30
0.0
 11
0.4528509597897994
 21
1.165086266427281
 31
0.0
210
0.0
220
0.0
230
1.0
 40
0.8132846280501607
 41
0.0
 42
6.283185307179586
  0
MTEXT
  5
2BA
330
1F
100
AcDbEntity
  8
CONTINUOUS
100
AcDbMText
 10
15.94692993164062
 20
110.3077154541016
 30
0.0
 40
9.101666666666667
 41
0.0
 46
0.0
 71
     1
 72
     1
  1
{\fArial|b0|i0|c0|p0;\C7;EMCO 5 series Toolchanger 6 position Toolplate}{\fArial|b0|i0|c0|p0;\C7;\H0.25x;}
 73
     1
 44
1.0
  0
MTEXT
  5
2BB
330
1F
100
AcDbEntity
  8
CONTINUOUS
100
AcDbMText
 10
64.21794128417969
 20
199.3631805419922
 30
0.0
 40
2.528240740740741
 41
0.0
 46
0.0
 71
     1
 72
     1
  1
{\fArial|b0|i0|c0|p0;\C7;All tool fixing screws are skt head grub type M6x1}{\fArial|b0|i0|c0|p0;\C7;\H0.9x;}
 73
     1
 44
1.0
  0
ENDSEC
  0
SECTION
  2
OBJECTS
  0
DICTIONARY
  5
C
330
0
100
AcDbDictionary
281
     1
  3
ACAD_GROUP
350
D
  3
ACAD_LAYOUT
350
1A
  3
ACAD_MLEADERSTYLE
350
2BD
  3
ACAD_MLINESTYLE
350
17
  3
ACAD_PLOTSETTINGS
350
19
  3
ACAD_PLOTSTYLENAME
350
E
  3
ACAD_SCALELIST
350
3B
  3
ACAD_TABLESTYLE
350
2BC
  3
ACAD_VISUALSTYLE
350
2A
  0
DICTIONARY
  5
D
102
{ACAD_REACTORS
330
C
102
}
330
C
100
AcDbDictionary
281
     1
  0
DICTIONARY
  5
1A
102
{ACAD_REACTORS
330
C
102
}
330
C
100
AcDbDictionary
281
     1
  3
Layout1
350
1E
  3
Layout2
350
26
  3
Model
350
22
  0
DICTIONARY
  5
2BD
102
{ACAD_REACTORS
330
C
102
}
330
C
100
AcDbDictionary
281
     1
  0
DICTIONARY
  5
17
102
{ACAD_REACTORS
330
C
102
}
330
C
100
AcDbDictionary
281
     1
  3
Standard
350
18
  0
DICTIONARY
  5
19
102
{ACAD_REACTORS
330
C
102
}
330
C
100
AcDbDictionary
281
     1
  0
ACDBDICTIONARYWDFLT
  5
E
102
{ACAD_REACTORS
330
C
102
}
330
C
100
AcDbDictionary
281
     1
  3
Normal
350
F
100
AcDbDictionaryWithDefault
340
F
  0
DICTIONARY
  5
3B
102
{ACAD_REACTORS
330
C
102
}
330
C
100
AcDbDictionary
281
     1
  3
A0
350
3C
  3
A1
350
3D
  3
A2
350
3E
  3
A3
350
3F
  3
A4
350
40
  3
A5
350
41
  3
A6
350
42
  3
A7
350
43
  3
A8
350
44
  3
A9
350
45
  3
B0
350
46
  3
B1
350
47
  3
B2
350
48
  3
B3
350
49
  3
B4
350
4A
  3
B5
350
4B
  3
B6
350
4C
  3
B7
350
4D
  3
B8
350
4E
  3
B9
350
4F
  3
C0
350
50
  3
C1
350
51
  3
C2
350
52
  3
C3
350
53
  3
C4
350
54
  3
C5
350
55
  3
C6
350
56
  3
C7
350
57
  3
C8
350
58
  3
C9
350
59
  3
D0
350
5A
  3
D1
350
5B
  3
D2
350
5C
  0
DICTIONARY
  5
2BC
102
{ACAD_REACTORS
330
C
102
}
330
C
100
AcDbDictionary
281
     1
  0
DICTIONARY
  5
2A
102
{ACAD_REACTORS
330
C
102
}
330
C
100
AcDbDictionary
281
     1
  3
2dWireframe
350
2F
  3
3D Hidden
350
31
  3
3dWireframe
350
30
  3
Basic
350
32
  3
Brighten
350
36
  3
ColorChange
350
3A
  3
Conceptual
350
34
  3
Dim
350
35
  3
Facepattern
350
39
  3
Flat
350
2B
  3
FlatWithEdges
350
2C
  3
Gouraud
350
2D
  3
GouraudWithEdges
350
2E
  3
Linepattern
350
38
  3
Realistic
350
33
  3
Thicken
350
37
  0
LAYOUT
  5
1E
102
{ACAD_REACTORS
330
1A
102
}
330
1A
100
AcDbPlotSettings
  1

  2
none_device
  4

  6

 40
0.0
 41
0.0
 42
0.0
 43
0.0
 44
0.0
 45
0.0
 46
0.0
 47
0.0
 48
0.0
 49
0.0
140
0.0
141
0.0
142
1.0
143
1.0
 70
   688
 72
     0
 73
     0
 74
     5
  7

 75
    16
 76
     0
 77
     2
 78
   300
147
1.0
148
0.0
149
0.0
100
AcDbLayout
  1
Layout1
 70
     1
 71
     1
 10
0.0
 20
0.0
 11
420.0
 21
297.0
 12
0.0
 22
0.0
 32
0.0
 14
1.000000000000000E+20
 24
1.000000000000000E+20
 34
1.000000000000000E+20
 15
-1.000000000000000E+20
 25
-1.000000000000000E+20
 35
-1.000000000000000E+20
146
0.0
 13
0.0
 23
0.0
 33
0.0
 16
1.0
 26
0.0
 36
0.0
 17
0.0
 27
1.0
 37
0.0
 76
     0
330
1B
  0
LAYOUT
  5
26
102
{ACAD_REACTORS
330
1A
102
}
330
1A
100
AcDbPlotSettings
  1

  2
none_device
  4

  6

 40
0.0
 41
0.0
 42
0.0
 43
0.0
 44
0.0
 45
0.0
 46
0.0
 47
0.0
 48
0.0
 49
0.0
140
0.0
141
0.0
142
1.0
143
1.0
 70
   688
 72
     0
 73
     0
 74
     5
  7

 75
    16
 76
     0
 77
     2
 78
   300
147
1.0
148
0.0
149
0.0
100
AcDbLayout
  1
Layout2
 70
     1
 71
     2
 10
0.0
 20
0.0
 11
0.0
 21
0.0
 12
0.0
 22
0.0
 32
0.0
 14
0.0
 24
0.0
 34
0.0
 15
0.0
 25
0.0
 35
0.0
146
0.0
 13
0.0
 23
0.0
 33
0.0
 16
1.0
 26
0.0
 36
0.0
 17
0.0
 27
1.0
 37
0.0
 76
     0
330
23
  0
LAYOUT
  5
22
102
{ACAD_REACTORS
330
1A
102
}
330
1A
100
AcDbPlotSettings
  1

  2
none_device
  4

  6

 40
0.0
 41
0.0
 42
0.0
 43
0.0
 44
0.0
 45
0.0
 46
0.0
 47
0.0
 48
0.0
 49
0.0
140
0.0
141
0.0
142
1.0
143
1.0
 70
  1712
 72
     0
 73
     0
 74
     0
  7

 75
     0
 76
     0
 77
     2
 78
   300
147
1.0
148
0.0
149
0.0
100
AcDbLayout
  1
Model
 70
     1
 71
     0
 10
0.0
 20
0.0
 11
420.0
 21
297.0
 12
0.0
 22
0.0
 32
0.0
 14
1.000000000000000E+20
 24
1.000000000000000E+20
 34
1.000000000000000E+20
 15
-1.000000000000000E+20
 25
-1.000000000000000E+20
 35
-1.000000000000000E+20
146
0.0
 13
0.0
 23
0.0
 33
0.0
 16
1.0
 26
0.0
 36
0.0
 17
0.0
 27
1.0
 37
0.0
 76
     0
330
1F
331
29
  0
MLINESTYLE
  5
18
102
{ACAD_REACTORS
330
17
102
}
330
17
100
AcDbMlineStyle
  2
Standard
 70
     0
  3

 62
   256
 51
90.0
 52
90.0
 71
     2
 49
0.5
 62
   256
  6
BYLAYER
 49
-0.5
 62
   256
  6
BYLAYER
  0
ACDBPLACEHOLDER
  5
F
102
{ACAD_REACTORS
330
E
102
}
330
E
  0
SCALE
  5
3C
102
{ACAD_REACTORS
330
3B
102
}
330
3B
100
AcDbScale
 70
     0
300
1:1
140
1.0
141
1.0
290
     1
  0
SCALE
  5
3D
102
{ACAD_REACTORS
330
3B
102
}
330
3B
100
AcDbScale
 70
     0
300
1:2
140
1.0
141
2.0
290
     0
  0
SCALE
  5
3E
102
{ACAD_REACTORS
330
3B
102
}
330
3B
100
AcDbScale
 70
     0
300
1:4
140
1.0
141
4.0
290
     0
  0
SCALE
  5
3F
102
{ACAD_REACTORS
330
3B
102
}
330
3B
100
AcDbScale
 70
     0
300
1:5
140
1.0
141
5.0
290
     0
  0
SCALE
  5
40
102
{ACAD_REACTORS
330
3B
102
}
330
3B
100
AcDbScale
 70
     0
300
1:8
140
1.0
141
8.0
290
     0
  0
SCALE
  5
41
102
{ACAD_REACTORS
330
3B
102
}
330
3B
100
AcDbScale
 70
     0
300
1:10
140
1.0
141
10.0
290
     0
  0
SCALE
  5
42
102
{ACAD_REACTORS
330
3B
102
}
330
3B
100
AcDbScale
 70
     0
300
1:16
140
1.0
141
16.0
290
     0
  0
SCALE
  5
43
102
{ACAD_REACTORS
330
3B
102
}
330
3B
100
AcDbScale
 70
     0
300
1:20
140
1.0
141
20.0
290
     0
  0
SCALE
  5
44
102
{ACAD_REACTORS
330
3B
102
}
330
3B
100
AcDbScale
 70
     0
300
1:30
140
1.0
141
30.0
290
     0
  0
SCALE
  5
45
102
{ACAD_REACTORS
330
3B
102
}
330
3B
100
AcDbScale
 70
     0
300
1:40
140
1.0
141
40.0
290
     0
  0
SCALE
  5
46
102
{ACAD_REACTORS
330
3B
102
}
330
3B
100
AcDbScale
 70
     0
300
1:50
140
1.0
141
50.0
290
     0
  0
SCALE
  5
47
102
{ACAD_REACTORS
330
3B
102
}
330
3B
100
AcDbScale
 70
     0
300
1:100
140
1.0
141
100.0
290
     0
  0
SCALE
  5
48
102
{ACAD_REACTORS
330
3B
102
}
330
3B
100
AcDbScale
 70
     0
300
2:1
140
2.0
141
1.0
290
     0
  0
SCALE
  5
49
102
{ACAD_REACTORS
330
3B
102
}
330
3B
100
AcDbScale
 70
     0
300
4:1
140
4.0
141
1.0
290
     0
  0
SCALE
  5
4A
102
{ACAD_REACTORS
330
3B
102
}
330
3B
100
AcDbScale
 70
     0
300
8:1
140
8.0
141
1.0
290
     0
  0
SCALE
  5
4B
102
{ACAD_REACTORS
330
3B
102
}
330
3B
100
AcDbScale
 70
     0
300
10:1
140
10.0
141
1.0
290
     0
  0
SCALE
  5
4C
102
{ACAD_REACTORS
330
3B
102
}
330
3B
100
AcDbScale
 70
     0
300
100:1
140
100.0
141
1.0
290
     0
  0
SCALE
  5
4D
102
{ACAD_REACTORS
330
3B
102
}
330
3B
100
AcDbScale
 70
     0
300
1/128" = 1'-0"
140
0.0078125
141
12.0
290
     0
  0
SCALE
  5
4E
102
{ACAD_REACTORS
330
3B
102
}
330
3B
100
AcDbScale
 70
     0
300
1/64" = 1'-0"
140
0.015625
141
12.0
290
     0
  0
SCALE
  5
4F
102
{ACAD_REACTORS
330
3B
102
}
330
3B
100
AcDbScale
 70
     0
300
1/32" = 1'-0"
140
0.03125
141
12.0
290
     0
  0
SCALE
  5
50
102
{ACAD_REACTORS
330
3B
102
}
330
3B
100
AcDbScale
 70
     0
300
1/16" = 1'-0"
140
0.0625
141
12.0
290
     0
  0
SCALE
  5
51
102
{ACAD_REACTORS
330
3B
102
}
330
3B
100
AcDbScale
 70
     0
300
3/32" = 1'-0"
140
0.09375
141
12.0
290
     0
  0
SCALE
  5
52
102
{ACAD_REACTORS
330
3B
102
}
330
3B
100
AcDbScale
 70
     0
300
1/8" = 1'-0"
140
0.125
141
12.0
290
     0
  0
SCALE
  5
53
102
{ACAD_REACTORS
330
3B
102
}
330
3B
100
AcDbScale
 70
     0
300
3/16" = 1'-0"
140
0.1875
141
12.0
290
     0
  0
SCALE
  5
54
102
{ACAD_REACTORS
330
3B
102
}
330
3B
100
AcDbScale
 70
     0
300
1/4" = 1'-0"
140
0.25
141
12.0
290
     0
  0
SCALE
  5
55
102
{ACAD_REACTORS
330
3B
102
}
330
3B
100
AcDbScale
 70
     0
300
3/8" = 1'-0"
140
0.375
141
12.0
290
     0
  0
SCALE
  5
56
102
{ACAD_REACTORS
330
3B
102
}
330
3B
100
AcDbScale
 70
     0
300
1/2" = 1'-0"
140
0.5
141
12.0
290
     0
  0
SCALE
  5
57
102
{ACAD_REACTORS
330
3B
102
}
330
3B
100
AcDbScale
 70
     0
300
3/4" = 1'-0"
140
0.75
141
12.0
290
     0
  0
SCALE
  5
58
102
{ACAD_REACTORS
330
3B
102
}
330
3B
100
AcDbScale
 70
     0
300
1" = 1'-0"
140
1.0
141
12.0
290
     0
  0
SCALE
  5
59
102
{ACAD_REACTORS
330
3B
102
}
330
3B
100
AcDbScale
 70
     0
300
1-1/2" = 1'-0"
140
1.5
141
12.0
290
     0
  0
SCALE
  5
5A
102
{ACAD_REACTORS
330
3B
102
}
330
3B
100
AcDbScale
 70
     0
300
3" = 1'-0"
140
3.0
141
12.0
290
     0
  0
SCALE
  5
5B
102
{ACAD_REACTORS
330
3B
102
}
330
3B
100
AcDbScale
 70
     0
300
6" = 1'-0"
140
6.0
141
12.0
290
     0
  0
SCALE
  5
5C
102
{ACAD_REACTORS
330
3B
102
}
330
3B
100
AcDbScale
 70
     0
300
1'-0" = 1'-0"
140
12.0
141
12.0
290
     0
  0
VISUALSTYLE
  5
2F
102
{ACAD_REACTORS
330
2A
102
}
330
2A
100
AcDbVisualStyle
  2
2dWireframe
 70
     4
 71
     0
 72
     2
 73
     0
 90
        0
 40
-0.6
 41
-30.0
 62
     5
 63
     7
421
 16777215
 74
     1
 91
        4
 64
     7
 65
   257
 75
     1
175
     1
 42
1.0
 92
        0
 66
   257
 43
1.0
 76
     1
 77
     6
 78
     2
 67
     7
 79
     5
170
     0
171
     0
290
     0
174
     0
 93
        1
 44
0.0
173
     0
291
     0
 45
0.0
  0
VISUALSTYLE
  5
31
102
{ACAD_REACTORS
330
2A
102
}
330
2A
100
AcDbVisualStyle
  2
3D Hidden
 70
     6
 71
     1
 72
     2
 73
     2
 90
        0
 40
-0.6
 41
-30.0
 62
     5
 63
     7
421
 16777215
 74
     2
 91
        2
 64
     7
 65
   257
 75
     2
175
     1
 42
40.0
 92
        0
 66
   257
 43
1.0
 76
     1
 77
     6
 78
     2
 67
     7
 79
     3
170
     0
171
     0
290
     0
174
     0
 93
        1
 44
0.0
173
     0
291
     0
 45
0.0
  0
VISUALSTYLE
  5
30
102
{ACAD_REACTORS
330
2A
102
}
330
2A
100
AcDbVisualStyle
  2
3dWireframe
 70
     5
 71
     0
 72
     2
 73
     0
 90
        0
 40
-0.6
 41
-30.0
 62
     5
 63
     7
421
 16777215
 74
     1
 91
        4
 64
     7
 65
   257
 75
     1
175
     1
 42
1.0
 92
        0
 66
   257
 43
1.0
 76
     1
 77
     6
 78
     2
 67
     7
 79
     5
170
     0
171
     0
290
     0
174
     0
 93
        1
 44
0.0
173
     0
291
     0
 45
0.0
  0
VISUALSTYLE
  5
32
102
{ACAD_REACTORS
330
2A
102
}
330
2A
100
AcDbVisualStyle
  2
Basic
 70
     7
 71
     1
 72
     0
 73
     1
 90
        0
 40
-0.6
 41
-30.0
 62
     5
 63
     7
421
 16777215
 74
     0
 91
        4
 64
     7
 65
   257
 75
     1
175
     1
 42
1.0
 92
        8
 66
     7
 43
1.0
 76
     1
 77
     6
 78
     2
 67
     7
 79
     5
170
     0
171
     0
290
     0
174
     0
 93
        1
 44
0.0
173
     0
291
     1
 45
0.0
  0
VISUALSTYLE
  5
36
102
{ACAD_REACTORS
330
2A
102
}
330
2A
100
AcDbVisualStyle
  2
Brighten
 70
    12
 71
     2
 72
     2
 73
     0
 90
        0
 40
-0.6
 41
-30.0
 62
     5
 63
     7
421
 16777215
 74
     1
 91
        4
 64
     7
 65
   257
 75
     1
175
     1
 42
1.0
 92
        8
 66
     7
 43
1.0
 76
     1
 77
     6
 78
     2
 67
     7
 79
     5
170
     0
171
     0
290
     0
174
     0
 93
        1
 44
50.0
173
     0
291
     1
 45
0.0
  0
VISUALSTYLE
  5
3A
102
{ACAD_REACTORS
330
2A
102
}
330
2A
100
AcDbVisualStyle
  2
ColorChange
 70
    16
 71
     2
 72
     2
 73
     3
 90
        0
 40
-0.6
 41
-30.0
 62
     5
 63
     8
421
  8421504
 74
     1
 91
        4
 64
     7
 65
   257
 75
     1
175
     1
 42
1.0
 92
        8
 66
     8
424
  8421504
 43
1.0
 76
     1
 77
     6
 78
     2
 67
     7
 79
     5
170
     0
171
     0
290
     0
174
     0
 93
        1
 44
0.0
173
     0
291
     1
 45
0.0
  0
VISUALSTYLE
  5
34
102
{ACAD_REACTORS
330
2A
102
}
330
2A
100
AcDbVisualStyle
  2
Conceptual
 70
     9
 71
     3
 72
     2
 73
     0
 90
        0
 40
-0.6
 41
-30.0
 62
     5
 63
     7
421
 16777215
 74
     2
 91
        2
 64
     7
 65
   257
 75
     1
175
     1
 42
40.0
 92
        8
 66
     7
 43
1.0
 76
     1
 77
     6
 78
     2
 67
     7
 79
     3
170
     0
171
     0
290
     0
174
     0
 93
        1
 44
0.0
173
     0
291
     0
 45
0.0
  0
VISUALSTYLE
  5
35
102
{ACAD_REACTORS
330
2A
102
}
330
2A
100
AcDbVisualStyle
  2
Dim
 70
    11
 71
     2
 72
     2
 73
     0
 90
        0
 40
-0.6
 41
-30.0
 62
     5
 63
     7
421
 16777215
 74
     1
 91
        4
 64
     7
 65
   257
 75
     1
175
     1
 42
1.0
 92
        8
 66
     7
 43
1.0
 76
     1
 77
     6
 78
     2
 67
     7
 79
     5
170
     0
171
     0
290
     0
174
     0
 93
        1
 44
-50.0
173
     0
291
     1
 45
0.0
  0
VISUALSTYLE
  5
39
102
{ACAD_REACTORS
330
2A
102
}
330
2A
100
AcDbVisualStyle
  2
Facepattern
 70
    15
 71
     2
 72
     2
 73
     0
 90
        0
 40
-0.6
 41
-30.0
 62
     5
 63
     7
421
 16777215
 74
     1
 91
        4
 64
     7
 65
   257
 75
     1
175
     1
 42
1.0
 92
        8
 66
     7
 43
1.0
 76
     1
 77
     6
 78
     2
 67
     7
 79
     5
170
     0
171
     0
290
     0
174
     0
 93
        1
 44
0.0
173
     0
291
     1
 45
0.0
  0
VISUALSTYLE
  5
2B
102
{ACAD_REACTORS
330
2A
102
}
330
2A
100
AcDbVisualStyle
  2
Flat
 70
     0
 71
     2
 72
     1
 73
     1
 90
        2
 40
-0.6
 41
30.0
 62
     5
 63
     7
421
 16777215
 74
     0
 91
        4
 64
     7
 65
   257
 75
     1
175
     1
 42
1.0
 92
        8
 66
     7
 43
1.0
 76
     1
 77
     6
 78
     2
 67
     7
 79
     5
170
     0
171
     0
290
     0
174
     0
 93
       13
 44
0.0
173
     0
291
     1
 45
0.0
  0
VISUALSTYLE
  5
2C
102
{ACAD_REACTORS
330
2A
102
}
330
2A
100
AcDbVisualStyle
  2
FlatWithEdges
 70
     1
 71
     2
 72
     1
 73
     1
 90
        2
 40
-0.6
 41
30.0
 62
     5
 63
     7
421
 16777215
 74
     1
 91
        4
 64
     7
 65
   257
 75
     1
175
     1
 42
1.0
 92
        0
 66
   257
 43
1.0
 76
     1
 77
     6
 78
     2
 67
     7
 79
     5
170
     0
171
     0
290
     0
174
     0
 93
       13
 44
0.0
173
     0
291
     1
 45
0.0
  0
VISUALSTYLE
  5
2D
102
{ACAD_REACTORS
330
2A
102
}
330
2A
100
AcDbVisualStyle
  2
Gouraud
 70
     2
 71
     2
 72
     2
 73
     1
 90
        2
 40
-0.6
 41
30.0
 62
     5
 63
     7
421
 16777215
 74
     0
 91
        4
 64
     7
 65
   257
 75
     1
175
     1
 42
1.0
 92
        0
 66
     7
 43
1.0
 76
     1
 77
     6
 78
     2
 67
     7
 79
     5
170
     0
171
     0
290
     0
174
     0
 93
       13
 44
0.0
173
     0
291
     1
 45
0.0
  0
VISUALSTYLE
  5
2E
102
{ACAD_REACTORS
330
2A
102
}
330
2A
100
AcDbVisualStyle
  2
GouraudWithEdges
 70
     3
 71
     2
 72
     2
 73
     1
 90
        2
 40
-0.6
 41
30.0
 62
     5
 63
     7
421
 16777215
 74
     1
 91
        4
 64
     7
 65
   257
 75
     1
175
     1
 42
1.0
 92
        0
 66
   257
 43
1.0
 76
     1
 77
     6
 78
     2
 67
     7
 79
     5
170
     0
171
     0
290
     0
174
     0
 93
       13
 44
0.0
173
     0
291
     1
 45
0.0
  0
VISUALSTYLE
  5
38
102
{ACAD_REACTORS
330
2A
102
}
330
2A
100
AcDbVisualStyle
  2
Linepattern
 70
    14
 71
     2
 72
     2
 73
     0
 90
        0
 40
-0.6
 41
-30.0
 62
     5
 63
     7
421
 16777215
 74
     1
 91
        4
 64
     7
 65
   257
 75
     7
175
     7
 42
1.0
 92
        8
 66
     7
 43
1.0
 76
     1
 77
     6
 78
     2
 67
     7
 79
     5
170
     0
171
     0
290
     0
174
     0
 93
        1
 44
0.0
173
     0
291
     1
 45
0.0
  0
VISUALSTYLE
  5
33
102
{ACAD_REACTORS
330
2A
102
}
330
2A
100
AcDbVisualStyle
  2
Realistic
 70
     8
 71
     2
 72
     2
 73
     0
 90
        0
 40
-0.6
 41
-30.0
 62
     5
 63
     7
421
 16777215
 74
     1
 91
        0
 64
     7
 65
   257
 75
     1
175
     1
 42
1.0
 92
        8
 66
     8
424
  7895160
 43
1.0
 76
     1
 77
     6
 78
     2
 67
     7
 79
     5
170
     0
171
     0
290
     0
174
     0
 93
       13
 44
0.0
173
     0
291
     0
 45
0.0
  0
VISUALSTYLE
  5
37
102
{ACAD_REACTORS
330
2A
102
}
330
2A
100
AcDbVisualStyle
  2
Thicken
 70
    13
 71
     2
 72
     2
 73
     0
 90
        0
 40
-0.6
 41
-30.0
 62
     5
 63
     7
421
 16777215
 74
     1
 91
        4
 64
     7
 65
   257
 75
     1
175
     1
 42
1.0
 92
       12
 66
     7
 43
1.0
 76
     1
 77
     6
 78
     2
 67
     7
 79
     5
170
     0
171
     0
290
     0
174
     0
 93
        1
 44
0.0
173
     0
291
     1
 45
0.0
  0
ENDSEC
  0
EOF
